<?xml version="1.0" encoding="UTF-8" standalone="no"?>
<!DOCTYPE score-partwise PUBLIC "-//Recordare//DTD MusicXML 3.1 Partwise//EN" "http://www.musicxml.org/dtds/partwise.dtd">
<score-partwise version="3.1">
  <identification>
    <encoding>
      <software>Finale v25 for Windows</software>
      <encoding-date>2020-07-08</encoding-date>
      <supports attribute="new-system" element="print" type="yes" value="yes"/>
      <supports attribute="new-page" element="print" type="yes" value="yes"/>
      <supports element="accidental" type="yes"/>
      <supports element="beam" type="yes"/>
      <supports element="stem" type="yes"/>
    </encoding>
  </identification>
  <defaults>
    <scaling>
      <millimeters>6.35</millimeters>
      <tenths>40</tenths>
    </scaling>
    <page-layout>
      <page-height>1380</page-height>
      <page-width>852</page-width>
      <page-margins type="both">
        <left-margin>0</left-margin>
        <right-margin>0</right-margin>
        <top-margin>0</top-margin>
        <bottom-margin>618</bottom-margin>
      </page-margins>
    </page-layout>
    <system-layout>
      <system-margins>
        <left-margin>5</left-margin>
        <right-margin>0</right-margin>
      </system-margins>
      <system-distance>54</system-distance>
      <top-system-distance>54</top-system-distance>
    </system-layout>
    <staff-layout>
      <staff-distance>167</staff-distance>
    </staff-layout>
    <appearance>
      <line-width type="stem">0.8333</line-width>
      <line-width type="beam">4.1667</line-width>
      <line-width type="staff">0.7096</line-width>
      <line-width type="light barline">0.8333</line-width>
      <line-width type="heavy barline">5</line-width>
      <line-width type="leger">0.7292</line-width>
      <line-width type="ending">0.7682</line-width>
      <line-width type="wedge">0.8333</line-width>
      <line-width type="enclosure">0.8333</line-width>
      <line-width type="tuplet bracket">0.7292</line-width>
      <note-size type="grace">55</note-size>
      <note-size type="cue">55</note-size>
      <distance type="hyphen">83</distance>
      <distance type="beam">8</distance>
    </appearance>
    <music-font font-family="Petrucci2" font-size="18"/>
    <word-font font-family="Palatino Linotype" font-size="9"/>
    <lyric-font font-family="Palatino Linotype" font-size="9"/>
  </defaults>
  <credit page="1">
    <credit-words default-y="618" font-size="7.5" valign="bottom">Music: </credit-words>
    <credit-words font-size="7.5" font-style="italic">Rouen Antiphoner</credit-words>
    <credit-words font-size="7.5" font-style="normal" xml:space="preserve">, 1728; harm. Ralph Vaughan Williams, 1906
Text: Coelius Sedulius, c.450; tr. John Ellerton, 1864</credit-words>
  </credit>
  <credit page="1">
    <credit-words default-x="852" default-y="618" font-size="7.5" justify="right" valign="bottom" xml:space="preserve">ROUEN
8 8. 8 8.</credit-words>
  </credit>
  <credit page="1">
    <credit-words default-x="93" default-y="863" font-size="8.25" font-style="italic" font-weight="bold" valign="top">-</credit-words>
  </credit>
  <part-list>
    <part-group number="1" type="start">
      <group-symbol default-x="-2">line</group-symbol>
      <group-barline>no</group-barline>
    </part-group>
    <score-part id="P1">
      <part-name print-object="no">MusicXML Part</part-name>
      <score-instrument id="P1-I2">
        <instrument-name>Instr. 1</instrument-name>
      </score-instrument>
      <midi-instrument id="P1-I2">
        <midi-channel>1</midi-channel>
        <midi-program>1</midi-program>
        <volume>80</volume>
        <pan>0</pan>
      </midi-instrument>
    </score-part>
    <score-part id="P2">
      <part-name print-object="no">MusicXML Part</part-name>
      <score-instrument id="P2-I3">
        <instrument-name>Instr. 3</instrument-name>
      </score-instrument>
      <midi-instrument id="P2-I3">
        <midi-channel>3</midi-channel>
        <midi-program>1</midi-program>
        <volume>80</volume>
        <pan>0</pan>
      </midi-instrument>
    </score-part>
    <part-group number="1" type="stop"/>
  </part-list>
  <!--=========================================================-->
  <part id="P1">
    <measure implicit="yes" number="0" width="134">
      <print>
        <system-layout>
          <top-system-distance>75</top-system-distance>
        </system-layout>
        <measure-numbering>system</measure-numbering>
      </print>
      <attributes>
        <divisions>2</divisions>
        <key>
          <fifths>-2</fifths>
          <mode>major</mode>
        </key>
        <time>
          <beats>3</beats>
          <beat-type>4</beat-type>
        </time>
        <clef>
          <sign>G</sign>
          <line>2</line>
        </clef>
      </attributes>
      <sound tempo="100"/>
      <direction placement="above">
        <direction-type>
          <words default-y="8" font-size="7.5" font-style="italic" font-weight="bold" relative-x="-10">unison</words>
        </direction-type>
      </direction>
      <note default-x="97">
        <pitch>
          <step>D</step>
          <octave>4</octave>
        </pitch>
        <duration>2</duration>
        <instrument id="P1-I2"/>
        <voice>1</voice>
        <type>quarter</type>
        <stem default-y="2">up</stem>
        <lyric default-y="-91" number="1">
          <syllabic>single</syllabic>
          <text>1.</text>
          <elision> </elision>
          <syllabic>single</syllabic>
          <text>From</text>
        </lyric>
        <lyric default-y="-111" number="2">
          <syllabic>single</syllabic>
          <text>2.</text>
          <elision> </elision>
          <syllabic>begin</syllabic>
          <text>Be</text>
        </lyric>
        <lyric default-y="-131" number="3">
          <syllabic>single</syllabic>
          <text font-size="8.25" font-style="italic" font-weight="bold">3.</text>
          <elision> </elision>
          <syllabic>single</syllabic>
          <text font-size="8.25" font-style="italic" font-weight="bold">For</text>
        </lyric>
        <lyric default-y="-151" number="4">
          <syllabic>single</syllabic>
          <text>4.</text>
          <elision> </elision>
          <syllabic>single</syllabic>
          <text>She</text>
        </lyric>
        <lyric default-y="-171" number="5">
          <syllabic>single</syllabic>
          <text font-size="8.25" font-style="italic" font-weight="bold">5.</text>
          <elision> </elision>
          <syllabic>single</syllabic>
          <text font-size="8.25" font-style="italic" font-weight="bold">He</text>
        </lyric>
        <lyric default-y="-191" number="6">
          <syllabic>single</syllabic>
          <text>6.</text>
          <elision> </elision>
          <syllabic>single</syllabic>
          <text>And</text>
        </lyric>
        <lyric default-y="-211" number="7">
          <syllabic>single</syllabic>
          <text>7.</text>
          <elision> </elision>
          <syllabic>single</syllabic>
          <text>All</text>
        </lyric>
      </note>
      <note default-x="97">
        <chord/>
        <pitch>
          <step>G</step>
          <octave>4</octave>
        </pitch>
        <duration>2</duration>
        <instrument id="P1-I2"/>
        <voice>1</voice>
        <type>quarter</type>
        <stem>up</stem>
      </note>
    </measure>
    <!--=======================================================-->
    <measure number="1" width="93">
      <note default-x="20">
        <pitch>
          <step>D</step>
          <octave>4</octave>
        </pitch>
        <duration>4</duration>
        <instrument id="P1-I2"/>
        <voice>1</voice>
        <type>half</type>
        <stem default-y="12">up</stem>
        <lyric default-y="-91" number="1">
          <syllabic>single</syllabic>
          <text>east</text>
        </lyric>
        <lyric default-y="-111" number="2">
          <syllabic>end</syllabic>
          <text>hold,</text>
        </lyric>
        <lyric default-y="-131" number="3">
          <syllabic>single</syllabic>
          <text font-size="8.25" font-style="italic" font-weight="bold">this</text>
        </lyric>
        <lyric default-y="-151" number="4" relative-x="-2">
          <syllabic>single</syllabic>
          <text>bowed</text>
        </lyric>
        <lyric default-y="-171" number="5">
          <syllabic>single</syllabic>
          <text font-size="8.25" font-style="italic" font-weight="bold">shrank</text>
        </lyric>
        <lyric default-y="-191" number="6">
          <syllabic>single</syllabic>
          <text>while</text>
        </lyric>
        <lyric default-y="-211" number="7">
          <syllabic>begin</syllabic>
          <text>glo</text>
        </lyric>
      </note>
      <note default-x="20">
        <chord/>
        <pitch>
          <step>G</step>
          <octave>4</octave>
        </pitch>
        <duration>4</duration>
        <instrument id="P1-I2"/>
        <voice>1</voice>
        <type>half</type>
        <stem>up</stem>
      </note>
      <note default-x="20">
        <chord/>
        <pitch>
          <step>B</step>
          <alter>-1</alter>
          <octave>4</octave>
        </pitch>
        <duration>4</duration>
        <instrument id="P1-I2"/>
        <voice>1</voice>
        <type>half</type>
        <stem>up</stem>
      </note>
      <note default-x="65">
        <pitch>
          <step>D</step>
          <octave>4</octave>
        </pitch>
        <duration>2</duration>
        <instrument id="P1-I2"/>
        <voice>1</voice>
        <type>quarter</type>
        <stem default-y="7">up</stem>
        <lyric default-y="-91" number="1" relative-x="-2">
          <syllabic>single</syllabic>
          <text>to</text>
        </lyric>
        <lyric default-y="-111" number="2">
          <syllabic>single</syllabic>
          <text>the</text>
        </lyric>
        <lyric default-y="-131" number="3" relative-x="3">
          <syllabic>single</syllabic>
          <text font-size="8.25" font-style="italic" font-weight="bold">how</text>
        </lyric>
        <lyric default-y="-151" number="4" relative-x="4">
          <syllabic>single</syllabic>
          <text>her</text>
        </lyric>
        <lyric default-y="-171" number="5" relative-x="3">
          <syllabic>single</syllabic>
          <text font-size="8.25" font-style="italic" font-weight="bold">not</text>
        </lyric>
        <lyric default-y="-191" number="6" relative-x="3">
          <syllabic>single</syllabic>
          <text>the</text>
        </lyric>
        <lyric default-y="-211" number="7" relative-x="3">
          <syllabic>end</syllabic>
          <text>ry</text>
        </lyric>
      </note>
      <note default-x="65">
        <chord/>
        <pitch>
          <step>F</step>
          <octave>4</octave>
        </pitch>
        <duration>2</duration>
        <instrument id="P1-I2"/>
        <voice>1</voice>
        <type>quarter</type>
        <stem>up</stem>
      </note>
      <note default-x="65">
        <chord/>
        <pitch>
          <step>A</step>
          <octave>4</octave>
        </pitch>
        <duration>2</duration>
        <instrument id="P1-I2"/>
        <voice>1</voice>
        <type>quarter</type>
        <stem>up</stem>
      </note>
    </measure>
    <!--=======================================================-->
    <measure number="2" width="105">
      <note default-x="22">
        <pitch>
          <step>E</step>
          <alter>-1</alter>
          <octave>4</octave>
        </pitch>
        <duration>4</duration>
        <instrument id="P1-I2"/>
        <voice>1</voice>
        <type>half</type>
        <stem default-y="-66">down</stem>
        <lyric default-y="-91" number="1">
          <syllabic>single</syllabic>
          <text>west,</text>
        </lyric>
        <lyric default-y="-111" number="2" relative-x="3">
          <syllabic>single</syllabic>
          <text>world’s</text>
        </lyric>
        <lyric default-y="-131" number="3">
          <syllabic>begin</syllabic>
          <text font-size="8.25" font-style="italic" font-weight="bold">won</text>
        </lyric>
        <lyric default-y="-151" number="4">
          <syllabic>single</syllabic>
          <text>to</text>
        </lyric>
        <lyric default-y="-171" number="5">
          <syllabic>single</syllabic>
          <text font-size="8.25" font-style="italic" font-weight="bold">from</text>
        </lyric>
        <lyric default-y="-191" number="6">
          <syllabic>begin</syllabic>
          <text>an</text>
        </lyric>
        <lyric default-y="-211" number="7">
          <syllabic>single</syllabic>
          <text>for</text>
        </lyric>
      </note>
      <backup>
        <duration>4</duration>
      </backup>
      <note default-x="22">
        <pitch>
          <step>G</step>
          <octave>4</octave>
        </pitch>
        <duration>2</duration>
        <instrument id="P1-I2"/>
        <voice>2</voice>
        <type>quarter</type>
        <stem default-y="2">up</stem>
        <notations>
          <slur default-x="17" default-y="-7" number="1" placement="above" type="start"/>
        </notations>
      </note>
      <note default-x="48">
        <pitch>
          <step>F</step>
          <octave>4</octave>
        </pitch>
        <duration>2</duration>
        <instrument id="P1-I2"/>
        <voice>2</voice>
        <type>quarter</type>
        <stem default-y="-3">up</stem>
        <notations>
          <slur default-x="6" default-y="-7" number="1" type="stop"/>
        </notations>
      </note>
      <note default-x="74">
        <pitch>
          <step>G</step>
          <octave>4</octave>
        </pitch>
        <duration>2</duration>
        <instrument id="P1-I2"/>
        <voice>1</voice>
        <type>quarter</type>
        <stem default-y="2">up</stem>
        <lyric default-y="-91" number="1">
          <syllabic>single</syllabic>
          <text>from</text>
        </lyric>
        <lyric default-y="-111" number="2" relative-x="5">
          <syllabic>begin</syllabic>
          <text>Cre</text>
        </lyric>
        <lyric default-y="-131" number="3">
          <syllabic>middle</syllabic>
          <text font-size="8.25" font-style="italic" font-weight="bold">drous</text>
        </lyric>
        <lyric default-y="-151" number="4">
          <syllabic>single</syllabic>
          <text>the</text>
        </lyric>
        <lyric default-y="-171" number="5">
          <syllabic>single</syllabic>
          <text font-size="8.25" font-style="italic" font-weight="bold">the</text>
        </lyric>
        <lyric default-y="-191" number="6">
          <syllabic>end</syllabic>
          <text>gels</text>
        </lyric>
        <lyric default-y="-211" number="7">
          <syllabic>single</syllabic>
          <text>this</text>
        </lyric>
      </note>
      <backup>
        <duration>2</duration>
      </backup>
      <note default-x="74">
        <pitch>
          <step>E</step>
          <alter>-1</alter>
          <octave>4</octave>
        </pitch>
        <duration>2</duration>
        <instrument id="P1-I2"/>
        <voice>2</voice>
        <type>quarter</type>
        <stem default-y="-66">down</stem>
      </note>
    </measure>
    <!--=======================================================-->
    <measure number="3" width="83">
      <note default-x="15">
        <pitch>
          <step>B</step>
          <alter>-1</alter>
          <octave>3</octave>
        </pitch>
        <duration>4</duration>
        <instrument id="P1-I2"/>
        <voice>1</voice>
        <type>half</type>
        <stem default-y="-13">up</stem>
        <lyric default-y="-91" number="1">
          <syllabic>single</syllabic>
          <text>shore</text>
        </lyric>
        <lyric default-y="-111" number="2">
          <syllabic>middle</syllabic>
          <text>a</text>
        </lyric>
        <lyric default-y="-131" number="3">
          <syllabic>end</syllabic>
          <text font-size="8.25" font-style="italic" font-weight="bold">ly</text>
        </lyric>
        <lyric default-y="-151" number="4">
          <syllabic>begin</syllabic>
          <text>an</text>
        </lyric>
        <lyric default-y="-171" number="5">
          <syllabic>begin</syllabic>
          <text font-size="8.25" font-style="italic" font-weight="bold">ox</text>
        </lyric>
        <lyric default-y="-191" number="6">
          <syllabic>single</syllabic>
          <text>in</text>
        </lyric>
        <lyric default-y="-211" number="7" relative-x="3">
          <syllabic>begin</syllabic>
          <text>bless</text>
        </lyric>
      </note>
      <note default-x="15">
        <chord/>
        <pitch>
          <step>D</step>
          <octave>4</octave>
        </pitch>
        <duration>4</duration>
        <instrument id="P1-I2"/>
        <voice>1</voice>
        <type>half</type>
        <stem>up</stem>
      </note>
      <note default-x="56">
        <pitch>
          <step>C</step>
          <octave>4</octave>
        </pitch>
        <duration>2</duration>
        <instrument id="P1-I2"/>
        <voice>1</voice>
        <type>quarter</type>
        <stem default-y="2">up</stem>
        <lyric default-y="-91" number="1" relative-x="4">
          <syllabic>single</syllabic>
          <text>to</text>
        </lyric>
        <lyric default-y="-111" number="2">
          <syllabic>end</syllabic>
          <text>tor</text>
        </lyric>
        <lyric default-y="-131" number="3" relative-x="-10">
          <syllabic>single</syllabic>
          <text font-size="8.25" font-style="italic" font-weight="bold">He</text>
        </lyric>
        <lyric default-y="-151" number="4" relative-x="3">
          <syllabic>end</syllabic>
          <text>gel’s</text>
        </lyric>
        <lyric default-y="-171" number="5">
          <syllabic>end</syllabic>
          <text font-size="8.25" font-style="italic" font-weight="bold">en’s</text>
        </lyric>
        <lyric default-y="-191" number="6">
          <syllabic>single</syllabic>
          <text>the</text>
        </lyric>
        <lyric default-y="-211" number="7" relative-x="6">
          <syllabic>end</syllabic>
          <text>ed</text>
        </lyric>
      </note>
      <note default-x="56">
        <chord/>
        <pitch>
          <step>E</step>
          <alter>-1</alter>
          <octave>4</octave>
        </pitch>
        <duration>2</duration>
        <instrument id="P1-I2"/>
        <voice>1</voice>
        <type>quarter</type>
        <stem>up</stem>
      </note>
      <note default-x="56">
        <chord/>
        <pitch>
          <step>G</step>
          <octave>4</octave>
        </pitch>
        <duration>2</duration>
        <instrument id="P1-I2"/>
        <voice>1</voice>
        <type>quarter</type>
        <stem>up</stem>
      </note>
    </measure>
    <!--=======================================================-->
    <measure number="4" width="111">
      <note default-x="28">
        <pitch>
          <step>B</step>
          <alter>-1</alter>
          <octave>3</octave>
        </pitch>
        <duration>4</duration>
        <instrument id="P1-I2"/>
        <voice>1</voice>
        <type>half</type>
        <stem default-y="2">up</stem>
        <lyric default-y="-91" number="1">
          <syllabic>single</syllabic>
          <text>shore,</text>
        </lyric>
        <lyric default-y="-111" number="2">
          <syllabic>single</syllabic>
          <text>wears</text>
        </lyric>
        <lyric default-y="-131" number="3" relative-x="-10">
          <syllabic>single</syllabic>
          <text font-size="8.25" font-style="italic" font-weight="bold">wrought!</text>
        </lyric>
        <lyric default-y="-151" number="4">
          <syllabic>single</syllabic>
          <text>word,</text>
        </lyric>
        <lyric default-y="-171" number="5">
          <syllabic>single</syllabic>
          <text font-size="8.25" font-style="italic" font-weight="bold">stall,</text>
        </lyric>
        <lyric default-y="-191" number="6">
          <syllabic>single</syllabic>
          <text>sky</text>
        </lyric>
        <lyric default-y="-211" number="7">
          <syllabic>single</syllabic>
          <text>morn</text>
        </lyric>
      </note>
      <note default-x="28">
        <chord/>
        <pitch>
          <step>D</step>
          <octave>4</octave>
        </pitch>
        <duration>4</duration>
        <instrument id="P1-I2"/>
        <voice>1</voice>
        <type>half</type>
        <stem>up</stem>
      </note>
      <note default-x="28">
        <chord/>
        <pitch>
          <step>G</step>
          <octave>4</octave>
        </pitch>
        <duration>4</duration>
        <instrument id="P1-I2"/>
        <voice>1</voice>
        <type>half</type>
        <stem>up</stem>
      </note>
      <note default-x="82">
        <pitch>
          <step>D</step>
          <octave>4</octave>
        </pitch>
        <duration>2</duration>
        <instrument id="P1-I2"/>
        <voice>1</voice>
        <type>quarter</type>
        <stem default-y="12">up</stem>
        <lyric default-y="-91" number="1" relative-x="3">
          <syllabic>single</syllabic>
          <text>Let</text>
        </lyric>
        <lyric default-y="-111" number="2" relative-x="3">
          <syllabic>single</syllabic>
          <text>The</text>
        </lyric>
        <lyric default-y="-131" number="3" relative-x="3">
          <syllabic>single</syllabic>
          <text font-size="8.25" font-style="italic" font-weight="bold">A</text>
        </lyric>
        <lyric default-y="-151" number="4" relative-x="3">
          <syllabic>begin</syllabic>
          <text>De</text>
        </lyric>
        <lyric default-y="-171" number="5" relative-x="3">
          <syllabic>single</syllabic>
          <text font-size="8.25" font-style="italic" font-weight="bold">He</text>
        </lyric>
        <lyric default-y="-191" number="6" relative-x="3">
          <syllabic>single</syllabic>
          <text>Sang</text>
        </lyric>
        <lyric default-y="-211" number="7" relative-x="3">
          <syllabic>single</syllabic>
          <text>To</text>
        </lyric>
      </note>
      <note default-x="82">
        <chord/>
        <pitch>
          <step>G</step>
          <octave>4</octave>
        </pitch>
        <duration>2</duration>
        <instrument id="P1-I2"/>
        <voice>1</voice>
        <type>quarter</type>
        <stem>up</stem>
      </note>
      <note default-x="82">
        <chord/>
        <pitch>
          <step>B</step>
          <alter>-1</alter>
          <octave>4</octave>
        </pitch>
        <duration>2</duration>
        <instrument id="P1-I2"/>
        <voice>1</voice>
        <type>quarter</type>
        <stem>up</stem>
      </note>
    </measure>
    <!--=======================================================-->
    <measure number="5" width="88">
      <note default-x="18">
        <pitch>
          <step>E</step>
          <alter>-1</alter>
          <octave>4</octave>
        </pitch>
        <duration>4</duration>
        <instrument id="P1-I2"/>
        <voice>1</voice>
        <type>half</type>
        <stem default-y="11">up</stem>
        <lyric default-y="-91" number="1">
          <syllabic>begin</syllabic>
          <text>ev</text>
        </lyric>
        <lyric default-y="-111" number="2">
          <syllabic>single</syllabic>
          <text>form</text>
        </lyric>
        <lyric default-y="-131" number="3">
          <syllabic>begin</syllabic>
          <text font-size="8.25" font-style="italic" font-weight="bold">maid</text>
        </lyric>
        <lyric default-y="-151" number="4">
          <syllabic>middle</syllabic>
          <text>clar</text>
        </lyric>
        <lyric default-y="-171" number="5">
          <syllabic>single</syllabic>
          <text font-size="8.25" font-style="italic" font-weight="bold">lay</text>
        </lyric>
        <lyric default-y="-191" number="6" relative-x="13">
          <syllabic>single</syllabic>
          <text>praise</text>
        </lyric>
        <lyric default-y="-211" number="7">
          <syllabic>single</syllabic>
          <text>God</text>
        </lyric>
      </note>
      <note default-x="18">
        <chord/>
        <pitch>
          <step>G</step>
          <octave>4</octave>
        </pitch>
        <duration>4</duration>
        <instrument id="P1-I2"/>
        <voice>1</voice>
        <type>half</type>
        <stem>up</stem>
      </note>
      <note default-x="18">
        <chord/>
        <pitch>
          <step>C</step>
          <octave>5</octave>
        </pitch>
        <duration>4</duration>
        <instrument id="P1-I2"/>
        <voice>1</voice>
        <type>half</type>
        <stem>up</stem>
      </note>
      <note default-x="59">
        <pitch>
          <step>E</step>
          <alter>-1</alter>
          <octave>4</octave>
        </pitch>
        <duration>2</duration>
        <instrument id="P1-I2"/>
        <voice>1</voice>
        <type>quarter</type>
        <stem default-y="12">up</stem>
        <lyric default-y="-91" number="1">
          <syllabic>end</syllabic>
          <text>’ry</text>
        </lyric>
        <lyric default-y="-111" number="2">
          <syllabic>single</syllabic>
          <text>and</text>
        </lyric>
        <lyric default-y="-131" number="3">
          <syllabic>end</syllabic>
          <text font-size="8.25" font-style="italic" font-weight="bold">en,</text>
        </lyric>
        <lyric default-y="-151" number="4">
          <syllabic>end</syllabic>
          <text>ing</text>
        </lyric>
        <lyric default-y="-171" number="5">
          <syllabic>begin</syllabic>
          <text font-size="8.25" font-style="italic" font-weight="bold">with</text>
        </lyric>
        <lyric default-y="-191" number="6" relative-x="8">
          <syllabic>begin</syllabic>
          <text>a</text>
        </lyric>
        <lyric default-y="-211" number="7">
          <syllabic>single</syllabic>
          <text>the</text>
        </lyric>
      </note>
      <note default-x="59">
        <chord/>
        <pitch>
          <step>G</step>
          <octave>4</octave>
        </pitch>
        <duration>2</duration>
        <instrument id="P1-I2"/>
        <voice>1</voice>
        <type>quarter</type>
        <stem>up</stem>
      </note>
      <note default-x="59">
        <chord/>
        <pitch>
          <step>B</step>
          <alter>-1</alter>
          <octave>4</octave>
        </pitch>
        <duration>2</duration>
        <instrument id="P1-I2"/>
        <voice>1</voice>
        <type>quarter</type>
        <stem>up</stem>
      </note>
    </measure>
    <!--=======================================================-->
    <measure number="6" width="94">
      <note default-x="16">
        <pitch>
          <step>C</step>
          <octave>4</octave>
        </pitch>
        <duration>4</duration>
        <instrument id="P1-I2"/>
        <voice>1</voice>
        <type>half</type>
        <stem default-y="-72">down</stem>
        <lyric default-y="-91" number="1">
          <syllabic>single</syllabic>
          <text>heart</text>
        </lyric>
        <lyric default-y="-111" number="2">
          <syllabic>begin</syllabic>
          <text>fash</text>
        </lyric>
        <lyric default-y="-131" number="3">
          <syllabic>single</syllabic>
          <text font-size="8.25" font-style="italic" font-weight="bold">in</text>
        </lyric>
        <lyric default-y="-151" number="4">
          <syllabic>single</syllabic>
          <text>what</text>
        </lyric>
        <lyric default-y="-171" number="5">
          <syllabic>end</syllabic>
          <text font-size="8.25" font-style="italic" font-weight="bold">in</text>
        </lyric>
        <lyric default-y="-191" number="6" relative-x="5">
          <syllabic>end</syllabic>
          <text>bove</text>
        </lyric>
        <lyric default-y="-211" number="7">
          <syllabic>begin</syllabic>
          <text>Fa</text>
        </lyric>
      </note>
      <note default-x="16">
        <chord/>
        <pitch>
          <step>F</step>
          <octave>4</octave>
        </pitch>
        <duration>4</duration>
        <instrument id="P1-I2"/>
        <voice>1</voice>
        <type>half</type>
        <stem>down</stem>
      </note>
      <backup>
        <duration>4</duration>
      </backup>
      <note default-x="16">
        <pitch>
          <step>A</step>
          <octave>4</octave>
        </pitch>
        <duration>2</duration>
        <instrument id="P1-I2"/>
        <voice>2</voice>
        <type>quarter</type>
        <stem default-y="7">up</stem>
        <notations>
          <slur default-x="17" default-y="-2" number="1" placement="above" type="start"/>
        </notations>
      </note>
      <note default-x="40">
        <pitch>
          <step>G</step>
          <octave>4</octave>
        </pitch>
        <duration>2</duration>
        <instrument id="P1-I2"/>
        <voice>2</voice>
        <type>quarter</type>
        <stem default-y="2">up</stem>
        <notations>
          <slur default-x="6" default-y="-2" number="1" type="stop"/>
        </notations>
      </note>
      <note default-x="63">
        <pitch>
          <step>D</step>
          <octave>4</octave>
        </pitch>
        <duration>2</duration>
        <instrument id="P1-I2"/>
        <voice>1</voice>
        <type>quarter</type>
        <stem default-y="7">up</stem>
        <lyric default-y="-91" number="1">
          <syllabic>begin</syllabic>
          <text>a</text>
        </lyric>
        <lyric default-y="-111" number="2">
          <syllabic>end</syllabic>
          <text>ion</text>
        </lyric>
        <lyric default-y="-131" number="3">
          <syllabic>single</syllabic>
          <text font-size="8.25" font-style="italic" font-weight="bold">her</text>
        </lyric>
        <lyric default-y="-151" number="4">
          <syllabic>single</syllabic>
          <text>the</text>
        </lyric>
        <lyric default-y="-171" number="5">
          <syllabic>single</syllabic>
          <text font-size="8.25" font-style="italic" font-weight="bold">the</text>
        </lyric>
        <lyric default-y="-191" number="6">
          <syllabic>single</syllabic>
          <text>the</text>
        </lyric>
        <lyric default-y="-211" number="7">
          <syllabic>end</syllabic>
          <text>ther</text>
        </lyric>
      </note>
      <note default-x="63">
        <chord/>
        <pitch>
          <step>F</step>
          <octave>4</octave>
        </pitch>
        <duration>2</duration>
        <instrument id="P1-I2"/>
        <voice>1</voice>
        <type>quarter</type>
        <stem>up</stem>
      </note>
      <note default-x="63">
        <chord/>
        <pitch>
          <step>A</step>
          <octave>4</octave>
        </pitch>
        <duration>2</duration>
        <instrument id="P1-I2"/>
        <voice>1</voice>
        <type>quarter</type>
        <stem>up</stem>
      </note>
    </measure>
    <!--=======================================================-->
    <measure number="7" width="141">
      <note default-x="17">
        <pitch>
          <step>D</step>
          <octave>4</octave>
        </pitch>
        <duration>4</duration>
        <instrument id="P1-I2"/>
        <voice>1</voice>
        <type>half</type>
        <stem default-y="-68">down</stem>
        <lyric default-y="-91" number="1">
          <syllabic>end</syllabic>
          <text>wake</text>
        </lyric>
        <lyric default-y="-111" number="2">
          <syllabic>single</syllabic>
          <text>of</text>
        </lyric>
        <lyric default-y="-131" number="3">
          <syllabic>begin</syllabic>
          <text font-size="8.25" font-style="italic" font-weight="bold">low</text>
        </lyric>
        <lyric default-y="-151" number="4" relative-x="-7">
          <syllabic>begin</syllabic>
          <text>Fa</text>
        </lyric>
        <lyric default-y="-171" number="5">
          <syllabic>begin</syllabic>
          <text font-size="8.25" font-style="italic" font-weight="bold">man</text>
        </lyric>
        <lyric default-y="-191" number="6">
          <syllabic>begin</syllabic>
          <text>si</text>
        </lyric>
        <lyric default-y="-211" number="7">
          <syllabic>begin</syllabic>
          <text>ev</text>
        </lyric>
      </note>
      <note default-x="17">
        <chord/>
        <pitch>
          <step>F</step>
          <octave>4</octave>
        </pitch>
        <duration>4</duration>
        <instrument id="P1-I2"/>
        <voice>1</voice>
        <type>half</type>
        <stem>down</stem>
      </note>
      <backup>
        <duration>4</duration>
      </backup>
      <note default-x="17">
        <pitch>
          <step>B</step>
          <alter>-1</alter>
          <octave>4</octave>
        </pitch>
        <duration>2</duration>
        <instrument id="P1-I2"/>
        <voice>2</voice>
        <type>quarter</type>
        <stem default-y="12">up</stem>
        <notations>
          <slur default-x="17" default-y="3" number="1" placement="above" type="start"/>
        </notations>
      </note>
      <note default-x="41">
        <pitch>
          <step>A</step>
          <octave>4</octave>
        </pitch>
        <duration>2</duration>
        <instrument id="P1-I2"/>
        <voice>2</voice>
        <type>quarter</type>
        <stem default-y="7">up</stem>
        <notations>
          <slur default-x="6" default-y="3" number="1" type="stop"/>
        </notations>
      </note>
      <note default-x="63">
        <pitch>
          <step>E</step>
          <octave>4</octave>
        </pitch>
        <duration>2</duration>
        <instrument id="P1-I2"/>
        <voice>1</voice>
        <type>quarter</type>
        <accidental>natural</accidental>
        <stem default-y="2">up</stem>
        <lyric default-y="-91" number="1">
          <syllabic>single</syllabic>
          <text>and</text>
        </lyric>
        <lyric default-y="-111" number="2">
          <syllabic>single</syllabic>
          <text>a</text>
        </lyric>
        <lyric default-y="-131" number="3">
          <syllabic>end</syllabic>
          <text font-size="8.25" font-style="italic" font-weight="bold">ly</text>
        </lyric>
        <lyric default-y="-151" number="4" relative-x="-15">
          <syllabic>end</syllabic>
          <text>ther</text>
        </lyric>
        <lyric default-y="-171" number="5">
          <syllabic>middle</syllabic>
          <text font-size="8.25" font-style="italic" font-weight="bold">ger</text>
        </lyric>
        <lyric default-y="-191" number="6">
          <syllabic>end</syllabic>
          <text>lent</text>
        </lyric>
        <lyric default-y="-211" number="7">
          <syllabic>end</syllabic>
          <text>er</text>
        </lyric>
      </note>
      <note default-x="63">
        <chord/>
        <pitch>
          <step>G</step>
          <octave>4</octave>
        </pitch>
        <duration>2</duration>
        <instrument id="P1-I2"/>
        <voice>1</voice>
        <type>quarter</type>
        <stem>up</stem>
      </note>
    </measure>
    <!--=======================================================-->
    <measure number="8" width="847">
      <print new-system="yes"/>
      <note default-x="818">
        <pitch>
          <step>A</step>
          <octave>3</octave>
        </pitch>
        <duration>4</duration>
        <instrument id="P1-I2"/>
        <voice>1</voice>
        <type>half</type>
        <stem default-y="-3">up</stem>
        <lyric default-y="-91" number="1">
          <syllabic>single</syllabic>
          <text>sing</text>
        </lyric>
        <lyric default-y="-111" number="2" relative-x="-3">
          <syllabic>single</syllabic>
          <text>slave,</text>
        </lyric>
        <lyric default-y="-131" number="3" relative-x="-3">
          <syllabic>single</syllabic>
          <text font-size="8.25" font-style="italic" font-weight="bold">place,</text>
        </lyric>
        <lyric default-y="-151" number="4" relative-x="-9">
          <syllabic>single</syllabic>
          <text>willed,</text>
        </lyric>
        <lyric default-y="-171" number="5">
          <syllabic>end</syllabic>
          <text font-size="8.25" font-style="italic" font-weight="bold">bed,</text>
        </lyric>
        <lyric default-y="-191" number="6">
          <syllabic>single</syllabic>
          <text>field,</text>
        </lyric>
        <lyric default-y="-211" number="7">
          <syllabic>single</syllabic>
          <text>be,</text>
        </lyric>
      </note>
      <note default-x="818">
        <chord/>
        <pitch>
          <step>C</step>
          <octave>4</octave>
        </pitch>
        <duration>4</duration>
        <instrument id="P1-I2"/>
        <voice>1</voice>
        <type>half</type>
        <stem>up</stem>
      </note>
      <note default-x="818">
        <chord/>
        <pitch>
          <step>F</step>
          <octave>4</octave>
        </pitch>
        <duration>4</duration>
        <instrument id="P1-I2"/>
        <voice>1</voice>
        <type>half</type>
        <stem>up</stem>
      </note>
      <note default-x="78">
        <pitch>
          <step>B</step>
          <alter>-1</alter>
          <octave>3</octave>
        </pitch>
        <duration>2</duration>
        <instrument id="P1-I2"/>
        <voice>1</voice>
        <type>quarter</type>
        <stem default-y="-344">up</stem>
        <lyric default-y="-90" number="1">
          <syllabic>single</syllabic>
          <text>The</text>
        </lyric>
        <lyric default-y="-110" number="2">
          <syllabic>single</syllabic>
          <text>Our</text>
        </lyric>
        <lyric default-y="-130" number="3">
          <syllabic>single</syllabic>
          <text font-size="8.25" font-style="italic" font-weight="bold">Be</text>
        </lyric>
        <lyric default-y="-150" number="4">
          <syllabic>single</syllabic>
          <text>And</text>
        </lyric>
        <lyric default-y="-170" number="5">
          <syllabic>single</syllabic>
          <text font-size="8.25" font-style="italic" font-weight="bold">And</text>
        </lyric>
        <lyric default-y="-190" number="6">
          <syllabic>single</syllabic>
          <text>To</text>
        </lyric>
        <lyric default-y="-210" number="7">
          <syllabic>single</syllabic>
          <text>All</text>
        </lyric>
      </note>
      <note default-x="78">
        <chord/>
        <pitch>
          <step>D</step>
          <octave>4</octave>
        </pitch>
        <duration>2</duration>
        <instrument id="P1-I2"/>
        <voice>1</voice>
        <type>quarter</type>
        <stem>up</stem>
      </note>
    </measure>
    <!--=======================================================-->
    <measure number="9">
      <note default-x="-726">
        <pitch>
          <step>A</step>
          <octave>3</octave>
        </pitch>
        <duration>4</duration>
        <instrument id="P1-I2"/>
        <voice>1</voice>
        <type>half</type>
        <stem default-y="-3">up</stem>
        <lyric default-y="-90" number="1">
          <syllabic>begin</syllabic>
          <text>Ho</text>
        </lyric>
        <lyric default-y="-110" number="2">
          <syllabic>begin</syllabic>
          <text>ver</text>
        </lyric>
        <lyric default-y="-130" number="3">
          <syllabic>single</syllabic>
          <text font-size="8.25" font-style="italic" font-weight="bold">came,</text>
        </lyric>
        <lyric default-y="-150" number="4">
          <syllabic>begin</syllabic>
          <text>sud</text>
        </lyric>
        <lyric default-y="-170" number="5" relative-x="-6">
          <syllabic>single</syllabic>
          <text font-size="8.25" font-style="italic" font-weight="bold">He</text>
        </lyric>
        <lyric default-y="-190" number="6" relative-x="-7">
          <syllabic>single</syllabic>
          <text>shep</text>
        </lyric>
        <lyric default-y="-210" number="7">
          <syllabic>single</syllabic>
          <text>praise</text>
        </lyric>
      </note>
      <note default-x="-726">
        <chord/>
        <pitch>
          <step>D</step>
          <octave>4</octave>
        </pitch>
        <duration>4</duration>
        <instrument id="P1-I2"/>
        <voice>1</voice>
        <type>half</type>
        <stem>up</stem>
      </note>
      <note default-x="-726">
        <chord/>
        <pitch>
          <step>F</step>
          <octave>4</octave>
        </pitch>
        <duration>4</duration>
        <instrument id="P1-I2"/>
        <voice>1</voice>
        <type>half</type>
        <stem>up</stem>
      </note>
      <note default-x="-679">
        <pitch>
          <step>B</step>
          <alter>-1</alter>
          <octave>3</octave>
        </pitch>
        <duration>2</duration>
        <instrument id="P1-I2"/>
        <voice>1</voice>
        <type>quarter</type>
        <stem default-y="-3">up</stem>
        <lyric default-y="-90" number="1" relative-x="-2">
          <syllabic>end</syllabic>
          <text>ly</text>
        </lyric>
        <lyric default-y="-110" number="2">
          <syllabic>end</syllabic>
          <text>y</text>
        </lyric>
        <lyric default-y="-130" number="3">
          <syllabic>single</syllabic>
          <text font-size="8.25" font-style="italic" font-weight="bold">in</text>
        </lyric>
        <lyric default-y="-150" number="4">
          <syllabic>middle</syllabic>
          <text>den</text>
        </lyric>
        <lyric default-y="-170" number="5" relative-x="-7">
          <syllabic>single</syllabic>
          <text font-size="8.25" font-style="italic" font-weight="bold">whose</text>
        </lyric>
        <lyric default-y="-190" number="6" relative-x="-7">
          <syllabic>single</syllabic>
          <text>herds</text>
        </lyric>
        <lyric default-y="-210" number="7">
          <syllabic>single</syllabic>
          <text>to</text>
        </lyric>
      </note>
      <note default-x="-679">
        <chord/>
        <pitch>
          <step>D</step>
          <octave>4</octave>
        </pitch>
        <duration>2</duration>
        <instrument id="P1-I2"/>
        <voice>1</voice>
        <type>quarter</type>
        <stem>up</stem>
      </note>
      <note default-x="-679">
        <chord/>
        <pitch>
          <step>F</step>
          <octave>4</octave>
        </pitch>
        <duration>2</duration>
        <instrument id="P1-I2"/>
        <voice>1</voice>
        <type>quarter</type>
        <stem>up</stem>
      </note>
    </measure>
    <!--=======================================================-->
    <measure number="10">
      <note>
        <pitch>
          <step>B</step>
          <alter>-1</alter>
          <octave>3</octave>
        </pitch>
        <duration>4</duration>
        <instrument id="P1-I2"/>
        <voice>1</voice>
        <type>half</type>
        <stem default-y="2">up</stem>
        <lyric default-y="-90" number="1" relative-x="-12">
          <syllabic>single</syllabic>
          <text>Child</text>
        </lyric>
        <lyric default-y="-110" number="2">
          <syllabic>single</syllabic>
          <text>flesh</text>
        </lyric>
        <lyric default-y="-130" number="3">
          <syllabic>single</syllabic>
          <text font-size="8.25" font-style="italic" font-weight="bold">ways</text>
        </lyric>
        <lyric default-y="-150" number="4">
          <syllabic>end</syllabic>
          <text>ly</text>
        </lyric>
        <lyric default-y="-170" number="5">
          <syllabic>begin</syllabic>
          <text font-size="8.25" font-style="italic" font-weight="bold">boun</text>
        </lyric>
        <lyric default-y="-190" number="6">
          <syllabic>single</syllabic>
          <text>poor,</text>
        </lyric>
        <lyric default-y="-210" number="7">
          <syllabic>single</syllabic>
          <text>Thee,</text>
        </lyric>
      </note>
      <note>
        <chord/>
        <pitch>
          <step>E</step>
          <alter>-1</alter>
          <octave>4</octave>
        </pitch>
        <duration>4</duration>
        <instrument id="P1-I2"/>
        <voice>1</voice>
        <type>half</type>
        <stem>up</stem>
      </note>
      <note>
        <chord/>
        <pitch>
          <step>G</step>
          <octave>4</octave>
        </pitch>
        <duration>4</duration>
        <instrument id="P1-I2"/>
        <voice>1</voice>
        <type>half</type>
        <stem>up</stem>
      </note>
      <note>
        <pitch>
          <step>D</step>
          <octave>4</octave>
        </pitch>
        <duration>2</duration>
        <instrument id="P1-I2"/>
        <voice>1</voice>
        <type>quarter</type>
        <stem default-y="-3">up</stem>
        <lyric default-y="-90" number="1">
          <syllabic>single</syllabic>
          <text>whom</text>
        </lyric>
        <lyric default-y="-110" number="2">
          <syllabic>single</syllabic>
          <text>our</text>
        </lyric>
        <lyric default-y="-130" number="3">
          <syllabic>begin</syllabic>
          <text font-size="8.25" font-style="italic" font-weight="bold">be</text>
        </lyric>
        <lyric default-y="-150" number="4">
          <syllabic>single</syllabic>
          <text>the</text>
        </lyric>
        <lyric default-y="-170" number="5">
          <syllabic>end</syllabic>
          <text font-size="8.25" font-style="italic" font-weight="bold">ty</text>
        </lyric>
        <lyric default-y="-190" number="6">
          <syllabic>single</syllabic>
          <text>the</text>
        </lyric>
        <lyric default-y="-210" number="7">
          <syllabic>single</syllabic>
          <text>O</text>
        </lyric>
      </note>
      <note>
        <chord/>
        <pitch>
          <step>F</step>
          <octave>4</octave>
        </pitch>
        <duration>2</duration>
        <instrument id="P1-I2"/>
        <voice>1</voice>
        <type>quarter</type>
        <stem>up</stem>
      </note>
    </measure>
    <!--=======================================================-->
    <measure number="11">
      <note>
        <pitch>
          <step>D</step>
          <octave>4</octave>
        </pitch>
        <duration>4</duration>
        <instrument id="P1-I2"/>
        <voice>1</voice>
        <type>half</type>
        <stem default-y="-67">down</stem>
        <lyric default-y="-90" number="1" relative-x="8">
          <syllabic>begin</syllabic>
          <text>Mar</text>
        </lyric>
        <lyric default-y="-110" number="2">
          <syllabic>begin</syllabic>
          <text>Mak</text>
        </lyric>
        <lyric default-y="-130" number="3">
          <syllabic>end</syllabic>
          <text font-size="8.25" font-style="italic" font-weight="bold">yond</text>
        </lyric>
        <lyric default-y="-150" number="4">
          <syllabic>begin</syllabic>
          <text>prom</text>
        </lyric>
        <lyric default-y="-170" number="5">
          <syllabic>begin</syllabic>
          <text font-size="8.25" font-style="italic" font-weight="bold">feed</text>
        </lyric>
        <lyric default-y="-190" number="6">
          <syllabic>single</syllabic>
          <text>Lord</text>
        </lyric>
        <lyric default-y="-210" number="7">
          <syllabic>begin</syllabic>
          <text>vir</text>
        </lyric>
      </note>
      <backup>
        <duration>4</duration>
      </backup>
      <note>
        <pitch>
          <step>B</step>
          <alter>-1</alter>
          <octave>4</octave>
        </pitch>
        <duration>2</duration>
        <instrument id="P1-I2"/>
        <voice>2</voice>
        <type>quarter</type>
        <stem default-y="12">up</stem>
        <notations>
          <slur default-x="17" default-y="-2" number="1" placement="above" type="start"/>
        </notations>
      </note>
      <note>
        <pitch>
          <step>G</step>
          <octave>4</octave>
        </pitch>
        <duration>2</duration>
        <instrument id="P1-I2"/>
        <voice>2</voice>
        <type>quarter</type>
        <stem default-y="2">up</stem>
        <notations>
          <slur default-x="6" default-y="-2" number="1" type="stop"/>
        </notations>
      </note>
      <note>
        <pitch>
          <step>C</step>
          <octave>4</octave>
        </pitch>
        <duration>2</duration>
        <instrument id="P1-I2"/>
        <voice>1</voice>
        <type>quarter</type>
        <stem default-y="7">up</stem>
        <lyric default-y="-90" number="1">
          <syllabic>end</syllabic>
          <text>y</text>
        </lyric>
        <lyric default-y="-110" number="2" relative-x="-3">
          <syllabic>end</syllabic>
          <text>er</text>
        </lyric>
        <lyric default-y="-130" number="3" relative-x="-11">
          <syllabic>single</syllabic>
          <text font-size="8.25" font-style="italic" font-weight="bold">all</text>
        </lyric>
        <lyric default-y="-150" number="4">
          <syllabic>end</syllabic>
          <text>ised</text>
        </lyric>
        <lyric default-y="-170" number="5">
          <syllabic>end</syllabic>
          <text font-size="8.25" font-style="italic" font-weight="bold">eth</text>
        </lyric>
        <lyric default-y="-190" number="6">
          <syllabic>single</syllabic>
          <text>most</text>
        </lyric>
        <lyric default-y="-210" number="7">
          <syllabic>middle</syllabic>
          <text>gin</text>
        </lyric>
      </note>
      <note>
        <chord/>
        <pitch>
          <step>F</step>
          <octave>4</octave>
        </pitch>
        <duration>2</duration>
        <instrument id="P1-I2"/>
        <voice>1</voice>
        <type>quarter</type>
        <stem>up</stem>
      </note>
      <note>
        <chord/>
        <pitch>
          <step>A</step>
          <octave>4</octave>
        </pitch>
        <duration>2</duration>
        <instrument id="P1-I2"/>
        <voice>1</voice>
        <type>quarter</type>
        <stem>up</stem>
      </note>
    </measure>
    <!--=======================================================-->
    <measure number="12">
      <note>
        <pitch>
          <step>D</step>
          <octave>4</octave>
        </pitch>
        <duration>4</duration>
        <instrument id="P1-I2"/>
        <voice>1</voice>
        <type>half</type>
        <stem default-y="12">up</stem>
        <lyric default-y="-90" number="1">
          <syllabic>single</syllabic>
          <text>bore,</text>
        </lyric>
        <lyric default-y="-110" number="2" relative-x="-7">
          <syllabic>single</syllabic>
          <text>shares,</text>
        </lyric>
        <lyric default-y="-130" number="3" relative-x="-11">
          <syllabic>single</syllabic>
          <text font-size="8.25" font-style="italic" font-weight="bold">thought,</text>
        </lyric>
        <lyric default-y="-150" number="4">
          <syllabic>single</syllabic>
          <text>Lord</text>
        </lyric>
        <lyric default-y="-170" number="5">
          <syllabic>single</syllabic>
          <text font-size="8.25" font-style="italic" font-weight="bold">all,</text>
        </lyric>
        <lyric default-y="-190" number="6">
          <syllabic>single</syllabic>
          <text>high,</text>
        </lyric>
        <lyric default-y="-210" number="7">
          <syllabic>end</syllabic>
          <text>born,</text>
        </lyric>
      </note>
      <note>
        <chord/>
        <pitch>
          <step>F</step>
          <octave>4</octave>
        </pitch>
        <duration>4</duration>
        <instrument id="P1-I2"/>
        <voice>1</voice>
        <type>half</type>
        <stem>up</stem>
      </note>
      <note>
        <chord/>
        <pitch>
          <step>B</step>
          <alter>-1</alter>
          <octave>4</octave>
        </pitch>
        <duration>4</duration>
        <instrument id="P1-I2"/>
        <voice>1</voice>
        <type>half</type>
        <stem>up</stem>
      </note>
      <note>
        <pitch>
          <step>F</step>
          <octave>4</octave>
        </pitch>
        <duration>2</duration>
        <instrument id="P1-I2"/>
        <voice>1</voice>
        <type>quarter</type>
        <stem default-y="11.5">up</stem>
        <lyric default-y="-90" number="1" relative-x="8">
          <syllabic>single</syllabic>
          <text>The</text>
        </lyric>
        <lyric default-y="-110" number="2" relative-x="8">
          <syllabic>single</syllabic>
          <text>His</text>
        </lyric>
        <lyric default-y="-130" number="3" relative-x="8">
          <syllabic>single</syllabic>
          <text font-size="8.25" font-style="italic" font-weight="bold">The</text>
        </lyric>
        <lyric default-y="-150" number="4" relative-x="8">
          <syllabic>single</syllabic>
          <text>That</text>
        </lyric>
        <lyric default-y="-170" number="5" relative-x="8">
          <syllabic>single</syllabic>
          <text font-size="8.25" font-style="italic" font-weight="bold">At</text>
        </lyric>
        <lyric default-y="-190" number="6" relative-x="8">
          <syllabic>single</syllabic>
          <text>The</text>
        </lyric>
        <lyric default-y="-210" number="7" relative-x="8">
          <syllabic>single</syllabic>
          <text>All</text>
        </lyric>
      </note>
      <note>
        <chord/>
        <pitch>
          <step>A</step>
          <octave>4</octave>
        </pitch>
        <duration>2</duration>
        <instrument id="P1-I2"/>
        <voice>1</voice>
        <type>quarter</type>
        <stem>up</stem>
      </note>
      <note>
        <chord/>
        <pitch>
          <step>C</step>
          <octave>5</octave>
        </pitch>
        <duration>2</duration>
        <instrument id="P1-I2"/>
        <voice>1</voice>
        <type>quarter</type>
        <stem>up</stem>
      </note>
    </measure>
    <!--=======================================================-->
    <measure number="13">
      <note>
        <pitch>
          <step>F</step>
          <octave>4</octave>
        </pitch>
        <duration>4</duration>
        <instrument id="P1-I2"/>
        <voice>1</voice>
        <type>half</type>
        <stem default-y="16.5">up</stem>
        <lyric default-y="-90" number="1" relative-x="10">
          <syllabic>single</syllabic>
          <text>Christ,</text>
        </lyric>
        <lyric default-y="-110" number="2">
          <syllabic>begin</syllabic>
          <text>fall</text>
        </lyric>
        <lyric default-y="-130" number="3">
          <syllabic>begin</syllabic>
          <text font-size="8.25" font-style="italic" font-weight="bold">cho</text>
        </lyric>
        <lyric default-y="-150" number="4" relative-x="8">
          <syllabic>single</syllabic>
          <text>pure</text>
        </lyric>
        <lyric default-y="-170" number="5">
          <syllabic>begin</syllabic>
          <text font-size="8.25" font-style="italic" font-weight="bold">Mar</text>
        </lyric>
        <lyric default-y="-190" number="6" relative-x="-3">
          <syllabic>single</syllabic>
          <text>one</text>
        </lyric>
        <lyric default-y="-210" number="7" relative-x="4">
          <syllabic>single</syllabic>
          <text>praise,</text>
        </lyric>
      </note>
      <note>
        <chord/>
        <pitch>
          <step>B</step>
          <alter>-1</alter>
          <octave>4</octave>
        </pitch>
        <duration>4</duration>
        <instrument id="P1-I2"/>
        <voice>1</voice>
        <type>half</type>
        <stem>up</stem>
      </note>
      <note>
        <chord/>
        <pitch>
          <step>D</step>
          <octave>5</octave>
        </pitch>
        <duration>4</duration>
        <instrument id="P1-I2"/>
        <voice>1</voice>
        <type>half</type>
        <stem>up</stem>
      </note>
      <note>
        <pitch>
          <step>F</step>
          <octave>4</octave>
        </pitch>
        <duration>2</duration>
        <instrument id="P1-I2"/>
        <voice>1</voice>
        <type>quarter</type>
        <stem default-y="11.5">up</stem>
        <lyric default-y="-90" number="1" relative-x="10">
          <syllabic>single</syllabic>
          <text>the</text>
        </lyric>
        <lyric default-y="-110" number="2">
          <syllabic>end</syllabic>
          <text>en</text>
        </lyric>
        <lyric default-y="-130" number="3">
          <syllabic>end</syllabic>
          <text font-size="8.25" font-style="italic" font-weight="bold">sen</text>
        </lyric>
        <lyric default-y="-150" number="4" relative-x="8">
          <syllabic>single</syllabic>
          <text>and</text>
        </lyric>
        <lyric default-y="-170" number="5">
          <syllabic>end</syllabic>
          <text font-size="8.25" font-style="italic" font-weight="bold">y’s</text>
        </lyric>
        <lyric default-y="-190" number="6" relative-x="-3">
          <syllabic>single</syllabic>
          <text>great</text>
        </lyric>
        <lyric default-y="-210" number="7" relative-x="3">
          <syllabic>single</syllabic>
          <text>O</text>
        </lyric>
      </note>
      <note>
        <chord/>
        <pitch>
          <step>A</step>
          <octave>4</octave>
        </pitch>
        <duration>2</duration>
        <instrument id="P1-I2"/>
        <voice>1</voice>
        <type>quarter</type>
        <stem>up</stem>
      </note>
      <note>
        <chord/>
        <pitch>
          <step>C</step>
          <octave>5</octave>
        </pitch>
        <duration>2</duration>
        <instrument id="P1-I2"/>
        <voice>1</voice>
        <type>quarter</type>
        <stem>up</stem>
      </note>
    </measure>
    <!--=======================================================-->
    <measure number="14">
      <note>
        <pitch>
          <step>D</step>
          <octave>4</octave>
        </pitch>
        <duration>4</duration>
        <instrument id="P1-I2"/>
        <voice>1</voice>
        <type>half</type>
        <stem default-y="-67">down</stem>
        <lyric default-y="-90" number="1">
          <syllabic>begin</syllabic>
          <text>ev</text>
        </lyric>
        <lyric default-y="-110" number="2">
          <syllabic>begin</syllabic>
          <text>crea</text>
        </lyric>
        <lyric default-y="-130" number="3">
          <syllabic>begin</syllabic>
          <text font-size="8.25" font-style="italic" font-weight="bold">ves</text>
        </lyric>
        <lyric default-y="-150" number="4">
          <syllabic>begin</syllabic>
          <text>hal</text>
        </lyric>
        <lyric default-y="-170" number="5">
          <syllabic>single</syllabic>
          <text font-size="8.25" font-style="italic" font-weight="bold">breast</text>
        </lyric>
        <lyric default-y="-190" number="6">
          <syllabic>begin</syllabic>
          <text>Shep</text>
        </lyric>
        <lyric default-y="-210" number="7">
          <syllabic>begin</syllabic>
          <text>Ho</text>
        </lyric>
      </note>
      <note>
        <chord/>
        <pitch>
          <step>G</step>
          <octave>4</octave>
        </pitch>
        <duration>4</duration>
        <instrument id="P1-I2"/>
        <voice>1</voice>
        <type>half</type>
        <stem>down</stem>
      </note>
      <backup>
        <duration>4</duration>
      </backup>
      <note>
        <pitch>
          <step>B</step>
          <alter>-1</alter>
          <octave>4</octave>
        </pitch>
        <duration>2</duration>
        <instrument id="P1-I2"/>
        <voice>2</voice>
        <type>quarter</type>
        <stem default-y="12">up</stem>
        <notations>
          <slur default-x="17" default-y="2" number="1" placement="above" type="start"/>
        </notations>
      </note>
      <note>
        <pitch>
          <step>A</step>
          <octave>4</octave>
        </pitch>
        <duration>2</duration>
        <instrument id="P1-I2"/>
        <voice>2</voice>
        <type>quarter</type>
        <stem default-y="7">up</stem>
        <notations>
          <slur default-x="6" default-y="2" number="1" type="stop"/>
        </notations>
      </note>
      <note>
        <pitch>
          <step>E</step>
          <alter>-1</alter>
          <octave>4</octave>
        </pitch>
        <duration>2</duration>
        <instrument id="P1-I2"/>
        <voice>1</voice>
        <type>quarter</type>
        <stem default-y="12">up</stem>
        <lyric default-y="-90" number="1">
          <syllabic>middle</syllabic>
          <text>er</text>
        </lyric>
        <lyric default-y="-110" number="2">
          <syllabic>end</syllabic>
          <text>ture,</text>
        </lyric>
        <lyric default-y="-130" number="3">
          <syllabic>end</syllabic>
          <text font-size="8.25" font-style="italic" font-weight="bold">sel</text>
        </lyric>
        <lyric default-y="-150" number="4" relative-x="-3">
          <syllabic>end</syllabic>
          <text>lowed</text>
        </lyric>
        <lyric default-y="-170" number="5">
          <syllabic>begin</syllabic>
          <text font-size="8.25" font-style="italic" font-weight="bold">Him</text>
        </lyric>
        <lyric default-y="-190" number="6">
          <syllabic>end</syllabic>
          <text>herd</text>
        </lyric>
        <lyric default-y="-210" number="7">
          <syllabic>end</syllabic>
          <text>ly</text>
        </lyric>
      </note>
      <note>
        <chord/>
        <pitch>
          <step>G</step>
          <octave>4</octave>
        </pitch>
        <duration>2</duration>
        <instrument id="P1-I2"/>
        <voice>1</voice>
        <type>quarter</type>
        <stem>up</stem>
      </note>
      <note>
        <chord/>
        <pitch>
          <step>B</step>
          <alter>-1</alter>
          <octave>4</octave>
        </pitch>
        <duration>2</duration>
        <instrument id="P1-I2"/>
        <voice>1</voice>
        <type>quarter</type>
        <stem>up</stem>
      </note>
    </measure>
    <!--=======================================================-->
    <measure number="15">
      <note>
        <pitch>
          <step>E</step>
          <alter>-1</alter>
          <octave>4</octave>
        </pitch>
        <duration>4</duration>
        <instrument id="P1-I2"/>
        <voice>1</voice>
        <type>half</type>
        <stem default-y="-66">down</stem>
        <lyric default-y="-90" number="1" relative-x="5">
          <syllabic>middle</syllabic>
          <text>last</text>
        </lyric>
        <lyric default-y="-110" number="2" relative-x="5">
          <syllabic>single</syllabic>
          <text>man,</text>
        </lyric>
        <lyric default-y="-130" number="3" relative-x="5">
          <syllabic>single</syllabic>
          <text font-size="8.25" font-style="italic" font-weight="bold">of</text>
        </lyric>
        <lyric default-y="-150" number="4" relative-x="5">
          <syllabic>begin</syllabic>
          <text>tem</text>
        </lyric>
        <lyric default-y="-170" number="5" relative-x="5">
          <syllabic>end</syllabic>
          <text font-size="8.25" font-style="italic" font-weight="bold">self</text>
        </lyric>
        <lyric default-y="-190" number="6" relative-x="5">
          <syllabic>single</syllabic>
          <text>was</text>
        </lyric>
        <lyric default-y="-210" number="7" relative-x="5">
          <syllabic>single</syllabic>
          <text>Ghost,</text>
        </lyric>
      </note>
      <note>
        <chord/>
        <pitch>
          <step>G</step>
          <octave>4</octave>
        </pitch>
        <duration>4</duration>
        <instrument id="P1-I2"/>
        <voice>1</voice>
        <type>half</type>
        <stem>down</stem>
      </note>
      <backup>
        <duration>4</duration>
      </backup>
      <note>
        <pitch>
          <step>C</step>
          <octave>5</octave>
        </pitch>
        <duration>2</duration>
        <instrument id="P1-I2"/>
        <voice>2</voice>
        <type>quarter</type>
        <stem default-y="11.5">up</stem>
        <notations>
          <slur default-x="17" default-y="7" number="1" placement="above" type="start"/>
        </notations>
      </note>
      <note>
        <pitch>
          <step>B</step>
          <alter>-1</alter>
          <octave>4</octave>
        </pitch>
        <duration>2</duration>
        <instrument id="P1-I2"/>
        <voice>2</voice>
        <type>quarter</type>
        <stem default-y="12">up</stem>
        <notations>
          <slur default-x="6" default-y="7" number="1" type="stop"/>
        </notations>
      </note>
      <note>
        <pitch>
          <step>C</step>
          <octave>4</octave>
        </pitch>
        <duration>2</duration>
        <instrument id="P1-I2"/>
        <voice>1</voice>
        <type>quarter</type>
        <stem default-y="7">up</stem>
        <lyric default-y="-90" number="1">
          <syllabic>end</syllabic>
          <text>ing</text>
        </lyric>
        <lyric default-y="-110" number="2">
          <syllabic>single</syllabic>
          <text>to</text>
        </lyric>
        <lyric default-y="-130" number="3">
          <syllabic>single</syllabic>
          <text font-size="8.25" font-style="italic" font-weight="bold">His</text>
        </lyric>
        <lyric default-y="-150" number="4">
          <syllabic>end</syllabic>
          <text>ple</text>
        </lyric>
        <lyric default-y="-170" number="5">
          <syllabic>single</syllabic>
          <text font-size="8.25" font-style="italic" font-weight="bold">was</text>
        </lyric>
        <lyric default-y="-190" number="6">
          <syllabic>begin</syllabic>
          <text>re</text>
        </lyric>
        <lyric default-y="-210" number="7">
          <syllabic>single</syllabic>
          <text>to</text>
        </lyric>
      </note>
      <note>
        <chord/>
        <pitch>
          <step>F</step>
          <octave>4</octave>
        </pitch>
        <duration>2</duration>
        <instrument id="P1-I2"/>
        <voice>1</voice>
        <type>quarter</type>
        <stem>up</stem>
      </note>
      <note>
        <chord/>
        <pitch>
          <step>A</step>
          <octave>4</octave>
        </pitch>
        <duration>2</duration>
        <instrument id="P1-I2"/>
        <voice>1</voice>
        <type>quarter</type>
        <stem>up</stem>
      </note>
    </measure>
    <!--=======================================================-->
    <measure number="16">
      <note>
        <pitch>
          <step>B</step>
          <alter>-1</alter>
          <octave>3</octave>
        </pitch>
        <duration>4</duration>
        <instrument id="P1-I2"/>
        <voice>1</voice>
        <type>half</type>
        <stem default-y="2">up</stem>
        <lyric default-y="-90" number="1">
          <syllabic>single</syllabic>
          <text>King.</text>
        </lyric>
        <lyric default-y="-110" number="2">
          <syllabic>single</syllabic>
          <text>save.</text>
        </lyric>
        <lyric default-y="-130" number="3">
          <syllabic>single</syllabic>
          <text font-size="8.25" font-style="italic" font-weight="bold">grace.</text>
        </lyric>
        <lyric default-y="-150" number="4">
          <syllabic>single</syllabic>
          <text>filled.</text>
        </lyric>
        <lyric default-y="-170" number="5">
          <syllabic>single</syllabic>
          <text font-size="8.25" font-style="italic" font-weight="bold">fed.</text>
        </lyric>
        <lyric default-y="-190" number="6">
          <syllabic>end</syllabic>
          <text>vealed.</text>
        </lyric>
        <lyric default-y="-210" number="7">
          <syllabic>single</syllabic>
          <text>Thee.</text>
        </lyric>
      </note>
      <note>
        <chord/>
        <pitch>
          <step>D</step>
          <octave>4</octave>
        </pitch>
        <duration>4</duration>
        <instrument id="P1-I2"/>
        <voice>1</voice>
        <type>half</type>
        <stem>up</stem>
      </note>
      <note>
        <chord/>
        <pitch>
          <step>G</step>
          <octave>4</octave>
        </pitch>
        <duration>4</duration>
        <instrument id="P1-I2"/>
        <voice>1</voice>
        <type>half</type>
        <stem>up</stem>
      </note>
      <barline location="right">
        <bar-style>light-heavy</bar-style>
      </barline>
    </measure>
  </part>
  <!--=========================================================-->
  <part id="P2">
    <measure implicit="yes" number="0" width="134">
      <print>
        <staff-layout number="1">
          <staff-distance>197</staff-distance>
        </staff-layout>
        <measure-numbering>none</measure-numbering>
      </print>
      <attributes>
        <divisions>2</divisions>
        <key>
          <fifths>-2</fifths>
          <mode>major</mode>
        </key>
        <time>
          <beats>3</beats>
          <beat-type>4</beat-type>
        </time>
        <clef>
          <sign>F</sign>
          <line>4</line>
        </clef>
      </attributes>
      <sound tempo="100"/>
      <note default-x="97">
        <pitch>
          <step>G</step>
          <octave>3</octave>
        </pitch>
        <duration>2</duration>
        <instrument id="P2-I3"/>
        <voice>1</voice>
        <type>quarter</type>
        <stem default-y="-36.5">down</stem>
      </note>
      <note default-x="97">
        <chord/>
        <pitch>
          <step>B</step>
          <alter>-1</alter>
          <octave>3</octave>
        </pitch>
        <duration>2</duration>
        <instrument id="P2-I3"/>
        <voice>1</voice>
        <type>quarter</type>
        <stem>down</stem>
      </note>
    </measure>
    <!--=======================================================-->
    <measure number="1" width="93">
      <note default-x="20">
        <pitch>
          <step>G</step>
          <octave>3</octave>
        </pitch>
        <duration>4</duration>
        <instrument id="P2-I3"/>
        <voice>1</voice>
        <type>half</type>
        <stem default-y="-36.5">down</stem>
      </note>
      <note default-x="65">
        <pitch>
          <step>D</step>
          <octave>3</octave>
        </pitch>
        <duration>2</duration>
        <instrument id="P2-I3"/>
        <voice>1</voice>
        <type>quarter</type>
        <stem default-y="-51.5">down</stem>
      </note>
      <note default-x="65">
        <chord/>
        <pitch>
          <step>F</step>
          <octave>3</octave>
        </pitch>
        <duration>2</duration>
        <instrument id="P2-I3"/>
        <voice>1</voice>
        <type>quarter</type>
        <stem>down</stem>
      </note>
    </measure>
    <!--=======================================================-->
    <measure number="2" width="105">
      <note default-x="22">
        <pitch>
          <step>E</step>
          <alter>-1</alter>
          <octave>3</octave>
        </pitch>
        <duration>4</duration>
        <instrument id="P2-I3"/>
        <voice>1</voice>
        <type>half</type>
        <stem default-y="-46.5">down</stem>
      </note>
      <note default-x="22">
        <chord/>
        <pitch>
          <step>B</step>
          <alter>-1</alter>
          <octave>3</octave>
        </pitch>
        <duration>4</duration>
        <instrument id="P2-I3"/>
        <voice>1</voice>
        <type>half</type>
        <stem>down</stem>
      </note>
      <note default-x="74">
        <pitch>
          <step>C</step>
          <octave>3</octave>
        </pitch>
        <duration>2</duration>
        <instrument id="P2-I3"/>
        <voice>1</voice>
        <type>quarter</type>
        <stem default-y="-51">down</stem>
      </note>
      <note default-x="74">
        <chord/>
        <pitch>
          <step>G</step>
          <octave>3</octave>
        </pitch>
        <duration>2</duration>
        <instrument id="P2-I3"/>
        <voice>1</voice>
        <type>quarter</type>
        <stem>down</stem>
      </note>
      <note default-x="74">
        <chord/>
        <pitch>
          <step>C</step>
          <octave>4</octave>
        </pitch>
        <duration>2</duration>
        <instrument id="P2-I3"/>
        <voice>1</voice>
        <type>quarter</type>
        <stem>down</stem>
      </note>
    </measure>
    <!--=======================================================-->
    <measure number="3" width="83">
      <note default-x="15">
        <pitch>
          <step>G</step>
          <octave>2</octave>
        </pitch>
        <duration>4</duration>
        <instrument id="P2-I3"/>
        <voice>1</voice>
        <type>half</type>
        <stem default-y="17">up</stem>
      </note>
      <note default-x="15">
        <chord/>
        <pitch>
          <step>D</step>
          <octave>3</octave>
        </pitch>
        <duration>4</duration>
        <instrument id="P2-I3"/>
        <voice>1</voice>
        <type>half</type>
        <stem>up</stem>
      </note>
      <note default-x="15">
        <chord/>
        <pitch>
          <step>G</step>
          <octave>3</octave>
        </pitch>
        <duration>4</duration>
        <instrument id="P2-I3"/>
        <voice>1</voice>
        <type>half</type>
        <stem>up</stem>
      </note>
      <note default-x="56">
        <pitch>
          <step>C</step>
          <octave>3</octave>
        </pitch>
        <duration>2</duration>
        <instrument id="P2-I3"/>
        <voice>1</voice>
        <type>quarter</type>
        <stem default-y="-51">down</stem>
      </note>
      <note default-x="56">
        <chord/>
        <pitch>
          <step>G</step>
          <octave>3</octave>
        </pitch>
        <duration>2</duration>
        <instrument id="P2-I3"/>
        <voice>1</voice>
        <type>quarter</type>
        <stem>down</stem>
      </note>
    </measure>
    <!--=======================================================-->
    <measure number="4" width="111">
      <note default-x="28">
        <pitch>
          <step>G</step>
          <octave>2</octave>
        </pitch>
        <duration>4</duration>
        <instrument id="P2-I3"/>
        <voice>1</voice>
        <type>half</type>
        <stem default-y="17">up</stem>
      </note>
      <note default-x="28">
        <chord/>
        <pitch>
          <step>D</step>
          <octave>3</octave>
        </pitch>
        <duration>4</duration>
        <instrument id="P2-I3"/>
        <voice>1</voice>
        <type>half</type>
        <stem>up</stem>
      </note>
      <note default-x="28">
        <chord/>
        <pitch>
          <step>G</step>
          <octave>3</octave>
        </pitch>
        <duration>4</duration>
        <instrument id="P2-I3"/>
        <voice>1</voice>
        <type>half</type>
        <stem>up</stem>
      </note>
      <note default-x="82">
        <pitch>
          <step>G</step>
          <octave>3</octave>
        </pitch>
        <duration>2</duration>
        <instrument id="P2-I3"/>
        <voice>1</voice>
        <type>quarter</type>
        <stem default-y="-36.5">down</stem>
      </note>
    </measure>
    <!--=======================================================-->
    <measure number="5" width="88">
      <note default-x="18">
        <pitch>
          <step>C</step>
          <octave>3</octave>
        </pitch>
        <duration>4</duration>
        <instrument id="P2-I3"/>
        <voice>1</voice>
        <type>half</type>
        <stem default-y="-51">down</stem>
      </note>
      <note default-x="18">
        <chord/>
        <pitch>
          <step>G</step>
          <octave>3</octave>
        </pitch>
        <duration>4</duration>
        <instrument id="P2-I3"/>
        <voice>1</voice>
        <type>half</type>
        <stem>down</stem>
      </note>
      <note default-x="59">
        <pitch>
          <step>E</step>
          <alter>-1</alter>
          <octave>3</octave>
        </pitch>
        <duration>2</duration>
        <instrument id="P2-I3"/>
        <voice>1</voice>
        <type>quarter</type>
        <stem default-y="-46.5">down</stem>
      </note>
      <note default-x="59">
        <chord/>
        <pitch>
          <step>G</step>
          <octave>3</octave>
        </pitch>
        <duration>2</duration>
        <instrument id="P2-I3"/>
        <voice>1</voice>
        <type>quarter</type>
        <stem>down</stem>
      </note>
    </measure>
    <!--=======================================================-->
    <measure number="6" width="94">
      <note default-x="16">
        <pitch>
          <step>F</step>
          <octave>3</octave>
        </pitch>
        <duration>4</duration>
        <instrument id="P2-I3"/>
        <voice>1</voice>
        <type>half</type>
        <stem default-y="-41.5">down</stem>
      </note>
      <note default-x="16">
        <chord/>
        <pitch>
          <step>A</step>
          <octave>3</octave>
        </pitch>
        <duration>4</duration>
        <instrument id="P2-I3"/>
        <voice>1</voice>
        <type>half</type>
        <stem>down</stem>
      </note>
      <note default-x="63">
        <pitch>
          <step>D</step>
          <octave>3</octave>
        </pitch>
        <duration>2</duration>
        <instrument id="P2-I3"/>
        <voice>1</voice>
        <type>quarter</type>
        <stem default-y="-51.5">down</stem>
      </note>
      <note default-x="63">
        <chord/>
        <pitch>
          <step>F</step>
          <octave>3</octave>
        </pitch>
        <duration>2</duration>
        <instrument id="P2-I3"/>
        <voice>1</voice>
        <type>quarter</type>
        <stem>down</stem>
      </note>
    </measure>
    <!--=======================================================-->
    <measure number="7" width="141">
      <note default-x="17">
        <pitch>
          <step>B</step>
          <alter>-1</alter>
          <octave>2</octave>
        </pitch>
        <duration>4</duration>
        <instrument id="P2-I3"/>
        <voice>1</voice>
        <type>half</type>
        <stem default-y="-56">down</stem>
      </note>
      <note default-x="17">
        <chord/>
        <pitch>
          <step>F</step>
          <octave>3</octave>
        </pitch>
        <duration>4</duration>
        <instrument id="P2-I3"/>
        <voice>1</voice>
        <type>half</type>
        <stem>down</stem>
      </note>
      <note default-x="63">
        <pitch>
          <step>C</step>
          <octave>3</octave>
        </pitch>
        <duration>2</duration>
        <instrument id="P2-I3"/>
        <voice>1</voice>
        <type>quarter</type>
        <stem default-y="-51">down</stem>
      </note>
      <note default-x="63">
        <chord/>
        <pitch>
          <step>G</step>
          <octave>3</octave>
        </pitch>
        <duration>2</duration>
        <instrument id="P2-I3"/>
        <voice>1</voice>
        <type>quarter</type>
        <stem>down</stem>
      </note>
      <note default-x="63">
        <chord/>
        <pitch>
          <step>C</step>
          <octave>4</octave>
        </pitch>
        <duration>2</duration>
        <instrument id="P2-I3"/>
        <voice>1</voice>
        <type>quarter</type>
        <stem>down</stem>
      </note>
    </measure>
    <!--=======================================================-->
    <measure number="8" width="847">
      <print new-system="yes">
        <staff-layout number="1">
          <staff-distance>197</staff-distance>
        </staff-layout>
      </print>
      <note default-x="818">
        <pitch>
          <step>F</step>
          <octave>2</octave>
        </pitch>
        <duration>4</duration>
        <instrument id="P2-I3"/>
        <voice>1</voice>
        <type>half</type>
        <stem default-y="16">up</stem>
      </note>
      <note default-x="818">
        <chord/>
        <pitch>
          <step>C</step>
          <octave>3</octave>
        </pitch>
        <duration>4</duration>
        <instrument id="P2-I3"/>
        <voice>1</voice>
        <type>half</type>
        <stem>up</stem>
      </note>
      <note default-x="818">
        <chord/>
        <pitch>
          <step>F</step>
          <octave>3</octave>
        </pitch>
        <duration>4</duration>
        <instrument id="P2-I3"/>
        <voice>1</voice>
        <type>half</type>
        <stem>up</stem>
      </note>
      <note default-x="78">
        <pitch>
          <step>B</step>
          <alter>-1</alter>
          <octave>2</octave>
        </pitch>
        <duration>2</duration>
        <instrument id="P2-I3"/>
        <voice>1</voice>
        <type>quarter</type>
        <stem default-y="-387">down</stem>
      </note>
      <note default-x="78">
        <chord/>
        <pitch>
          <step>F</step>
          <octave>3</octave>
        </pitch>
        <duration>2</duration>
        <instrument id="P2-I3"/>
        <voice>1</voice>
        <type>quarter</type>
        <stem>down</stem>
      </note>
    </measure>
    <!--=======================================================-->
    <measure number="9">
      <note default-x="-726">
        <pitch>
          <step>D</step>
          <octave>3</octave>
        </pitch>
        <duration>4</duration>
        <instrument id="P2-I3"/>
        <voice>1</voice>
        <type>half</type>
        <stem default-y="-51">down</stem>
      </note>
      <note default-x="-726">
        <chord/>
        <pitch>
          <step>F</step>
          <octave>3</octave>
        </pitch>
        <duration>4</duration>
        <instrument id="P2-I3"/>
        <voice>1</voice>
        <type>half</type>
        <stem>down</stem>
      </note>
      <note default-x="-679">
        <pitch>
          <step>B</step>
          <alter>-1</alter>
          <octave>2</octave>
        </pitch>
        <duration>2</duration>
        <instrument id="P2-I3"/>
        <voice>1</voice>
        <type>quarter</type>
        <stem default-y="-56">down</stem>
      </note>
      <note default-x="-679">
        <chord/>
        <pitch>
          <step>F</step>
          <octave>3</octave>
        </pitch>
        <duration>2</duration>
        <instrument id="P2-I3"/>
        <voice>1</voice>
        <type>quarter</type>
        <stem>down</stem>
      </note>
    </measure>
    <!--=======================================================-->
    <measure number="10">
      <note>
        <pitch>
          <step>E</step>
          <alter>-1</alter>
          <octave>3</octave>
        </pitch>
        <duration>4</duration>
        <instrument id="P2-I3"/>
        <voice>1</voice>
        <type>half</type>
        <stem default-y="-46">down</stem>
      </note>
      <note>
        <pitch>
          <step>B</step>
          <alter>-1</alter>
          <octave>2</octave>
        </pitch>
        <duration>2</duration>
        <instrument id="P2-I3"/>
        <voice>1</voice>
        <type>quarter</type>
        <stem default-y="-56">down</stem>
      </note>
      <note>
        <chord/>
        <pitch>
          <step>F</step>
          <octave>3</octave>
        </pitch>
        <duration>2</duration>
        <instrument id="P2-I3"/>
        <voice>1</voice>
        <type>quarter</type>
        <stem>down</stem>
      </note>
      <note>
        <chord/>
        <pitch>
          <step>B</step>
          <alter>-1</alter>
          <octave>3</octave>
        </pitch>
        <duration>2</duration>
        <instrument id="P2-I3"/>
        <voice>1</voice>
        <type>quarter</type>
        <stem>down</stem>
      </note>
    </measure>
    <!--=======================================================-->
    <measure number="11">
      <note>
        <pitch>
          <step>G</step>
          <octave>2</octave>
        </pitch>
        <duration>4</duration>
        <instrument id="P2-I3"/>
        <voice>1</voice>
        <type>half</type>
        <stem default-y="12">up</stem>
      </note>
      <note>
        <chord/>
        <pitch>
          <step>D</step>
          <octave>3</octave>
        </pitch>
        <duration>4</duration>
        <instrument id="P2-I3"/>
        <voice>1</voice>
        <type>half</type>
        <stem>up</stem>
      </note>
      <note>
        <pitch>
          <step>F</step>
          <octave>2</octave>
        </pitch>
        <duration>2</duration>
        <instrument id="P2-I3"/>
        <voice>1</voice>
        <type>quarter</type>
        <stem default-y="16.5">up</stem>
      </note>
      <note>
        <chord/>
        <pitch>
          <step>F</step>
          <octave>3</octave>
        </pitch>
        <duration>2</duration>
        <instrument id="P2-I3"/>
        <voice>1</voice>
        <type>quarter</type>
        <stem>up</stem>
      </note>
    </measure>
    <!--=======================================================-->
    <measure number="12">
      <note>
        <pitch>
          <step>B</step>
          <alter>-1</alter>
          <octave>2</octave>
        </pitch>
        <duration>4</duration>
        <instrument id="P2-I3"/>
        <voice>1</voice>
        <type>half</type>
        <stem default-y="-56">down</stem>
      </note>
      <note>
        <chord/>
        <pitch>
          <step>F</step>
          <octave>3</octave>
        </pitch>
        <duration>4</duration>
        <instrument id="P2-I3"/>
        <voice>1</voice>
        <type>half</type>
        <stem>down</stem>
      </note>
      <note>
        <chord/>
        <pitch>
          <step>B</step>
          <alter>-1</alter>
          <octave>3</octave>
        </pitch>
        <duration>4</duration>
        <instrument id="P2-I3"/>
        <voice>1</voice>
        <type>half</type>
        <stem>down</stem>
      </note>
      <note>
        <pitch>
          <step>F</step>
          <octave>3</octave>
        </pitch>
        <duration>2</duration>
        <instrument id="P2-I3"/>
        <voice>1</voice>
        <type>quarter</type>
        <stem default-y="-41">down</stem>
      </note>
      <note>
        <chord/>
        <pitch>
          <step>C</step>
          <octave>4</octave>
        </pitch>
        <duration>2</duration>
        <instrument id="P2-I3"/>
        <voice>1</voice>
        <type>quarter</type>
        <stem>down</stem>
      </note>
    </measure>
    <!--=======================================================-->
    <measure number="13">
      <note>
        <pitch>
          <step>B</step>
          <alter>-1</alter>
          <octave>3</octave>
        </pitch>
        <duration>4</duration>
        <instrument id="P2-I3"/>
        <voice>1</voice>
        <type>half</type>
        <stem default-y="-26">down</stem>
      </note>
      <note>
        <pitch>
          <step>F</step>
          <octave>3</octave>
        </pitch>
        <duration>2</duration>
        <instrument id="P2-I3"/>
        <voice>1</voice>
        <type>quarter</type>
        <stem default-y="-41">down</stem>
      </note>
      <note>
        <chord/>
        <pitch>
          <step>C</step>
          <octave>4</octave>
        </pitch>
        <duration>2</duration>
        <instrument id="P2-I3"/>
        <voice>1</voice>
        <type>quarter</type>
        <stem>down</stem>
      </note>
    </measure>
    <!--=======================================================-->
    <measure number="14">
      <note>
        <pitch>
          <step>G</step>
          <octave>3</octave>
        </pitch>
        <duration>4</duration>
        <instrument id="P2-I3"/>
        <voice>1</voice>
        <type>half</type>
        <stem default-y="-36">down</stem>
      </note>
      <note>
        <chord/>
        <pitch>
          <step>B</step>
          <alter>-1</alter>
          <octave>3</octave>
        </pitch>
        <duration>4</duration>
        <instrument id="P2-I3"/>
        <voice>1</voice>
        <type>half</type>
        <stem>down</stem>
      </note>
      <note>
        <pitch>
          <step>E</step>
          <alter>-1</alter>
          <octave>3</octave>
        </pitch>
        <duration>2</duration>
        <instrument id="P2-I3"/>
        <voice>1</voice>
        <type>quarter</type>
        <stem default-y="-46">down</stem>
      </note>
      <note>
        <chord/>
        <pitch>
          <step>G</step>
          <octave>3</octave>
        </pitch>
        <duration>2</duration>
        <instrument id="P2-I3"/>
        <voice>1</voice>
        <type>quarter</type>
        <stem>down</stem>
      </note>
    </measure>
    <!--=======================================================-->
    <measure number="15">
      <note>
        <pitch>
          <step>C</step>
          <octave>3</octave>
        </pitch>
        <duration>4</duration>
        <instrument id="P2-I3"/>
        <voice>1</voice>
        <type>half</type>
        <stem default-y="-51">down</stem>
      </note>
      <note>
        <chord/>
        <pitch>
          <step>G</step>
          <octave>3</octave>
        </pitch>
        <duration>4</duration>
        <instrument id="P2-I3"/>
        <voice>1</voice>
        <type>half</type>
        <stem>down</stem>
      </note>
      <note>
        <pitch>
          <step>F</step>
          <octave>2</octave>
        </pitch>
        <duration>2</duration>
        <instrument id="P2-I3"/>
        <voice>1</voice>
        <type>quarter</type>
        <stem default-y="14">up</stem>
      </note>
      <note>
        <chord/>
        <pitch>
          <step>F</step>
          <octave>3</octave>
        </pitch>
        <duration>2</duration>
        <instrument id="P2-I3"/>
        <voice>1</voice>
        <type>quarter</type>
        <stem>up</stem>
      </note>
    </measure>
    <!--=======================================================-->
    <measure number="16">
      <note>
        <pitch>
          <step>G</step>
          <octave>2</octave>
        </pitch>
        <duration>4</duration>
        <instrument id="P2-I3"/>
        <voice>1</voice>
        <type>half</type>
        <stem default-y="12">up</stem>
      </note>
      <note>
        <chord/>
        <pitch>
          <step>D</step>
          <octave>3</octave>
        </pitch>
        <duration>4</duration>
        <instrument id="P2-I3"/>
        <voice>1</voice>
        <type>half</type>
        <stem>up</stem>
      </note>
      <barline location="right">
        <bar-style>light-heavy</bar-style>
      </barline>
    </measure>
  </part>
  <!--=========================================================-->
</score-partwise>
