<?xml version="1.0" encoding="UTF-8" standalone="no"?>
<!DOCTYPE score-partwise PUBLIC "-//Recordare//DTD MusicXML 3.1 Partwise//EN" "http://www.musicxml.org/dtds/partwise.dtd">
<score-partwise version="3.1">
  <identification>
    <encoding>
      <software>Finale v25 for Windows</software>
      <encoding-date>2020-07-08</encoding-date>
      <supports attribute="new-system" element="print" type="yes" value="yes"/>
      <supports attribute="new-page" element="print" type="yes" value="yes"/>
      <supports element="accidental" type="yes"/>
      <supports element="beam" type="yes"/>
      <supports element="stem" type="yes"/>
    </encoding>
  </identification>
  <defaults>
    <scaling>
      <millimeters>6.35</millimeters>
      <tenths>40</tenths>
    </scaling>
    <page-layout>
      <page-height>1380</page-height>
      <page-width>852</page-width>
      <page-margins type="both">
        <left-margin>0</left-margin>
        <right-margin>0</right-margin>
        <top-margin>0</top-margin>
        <bottom-margin>182</bottom-margin>
      </page-margins>
    </page-layout>
    <system-layout>
      <system-margins>
        <left-margin>5</left-margin>
        <right-margin>0</right-margin>
      </system-margins>
      <system-distance>58</system-distance>
      <top-system-distance>58</top-system-distance>
    </system-layout>
    <staff-layout>
      <staff-distance>133</staff-distance>
    </staff-layout>
    <appearance>
      <line-width type="stem">0.8333</line-width>
      <line-width type="beam">4.1667</line-width>
      <line-width type="staff">0.7096</line-width>
      <line-width type="light barline">0.8333</line-width>
      <line-width type="heavy barline">5</line-width>
      <line-width type="leger">0.7292</line-width>
      <line-width type="ending">0.7682</line-width>
      <line-width type="wedge">0.8333</line-width>
      <line-width type="enclosure">0.8333</line-width>
      <line-width type="tuplet bracket">0.7292</line-width>
      <note-size type="grace">55</note-size>
      <note-size type="cue">55</note-size>
      <distance type="hyphen">83</distance>
      <distance type="beam">8</distance>
    </appearance>
    <music-font font-family="Petrucci2" font-size="18"/>
    <word-font font-family="Palatino Linotype" font-size="9"/>
    <lyric-font font-family="Palatino Linotype" font-size="9"/>
  </defaults>
  <credit page="1">
    <credit-words default-y="182" font-size="7.5" valign="bottom">Music: </credit-words>
    <credit-words font-size="7.5" font-style="italic">Bentzenauer Ton</credit-words>
    <credit-words font-size="7.5" font-style="normal" xml:lang="de" xml:space="preserve">, Nürnberg, 1540
Text: Felix Manz, c. 1526; tr. Marion Wenger, 1966</credit-words>
  </credit>
  <credit page="1">
    <credit-words default-x="852" default-y="182" font-size="7.5" justify="right" valign="bottom" xml:lang="de" xml:space="preserve">NUN WEND IHR HÖREN SAGEN
7 5. 7 5. 7 6. 7 6.</credit-words>
  </credit>
  <part-list>
    <part-group number="1" type="start">
      <group-symbol default-x="-2">line</group-symbol>
      <group-barline>no</group-barline>
    </part-group>
    <part-group number="2" type="start">
      <group-barline>no</group-barline>
    </part-group>
    <score-part id="P1">
      <part-name print-object="no">MusicXML Part</part-name>
      <score-instrument id="P1-I5">
        <instrument-name>None</instrument-name>
      </score-instrument>
      <midi-instrument id="P1-I5">
        <midi-channel>5</midi-channel>
        <midi-program>57</midi-program>
        <volume>80</volume>
        <pan>0</pan>
      </midi-instrument>
    </score-part>
    <score-part id="P2">
      <part-name print-object="no">MusicXML Part</part-name>
      <score-instrument id="P2-I6">
        <instrument-name>None</instrument-name>
      </score-instrument>
      <midi-instrument id="P2-I6">
        <midi-channel>6</midi-channel>
        <midi-program>58</midi-program>
        <volume>80</volume>
        <pan>0</pan>
      </midi-instrument>
    </score-part>
    <part-group number="2" type="stop"/>
    <part-group number="1" type="stop"/>
  </part-list>
  <!--=========================================================-->
  <part id="P1">
    <measure implicit="yes" number="0" width="155">
      <print>
        <system-layout>
          <top-system-distance>75</top-system-distance>
        </system-layout>
        <measure-numbering>system</measure-numbering>
      </print>
      <attributes>
        <divisions>2</divisions>
        <key>
          <fifths>2</fifths>
          <mode>major</mode>
        </key>
        <clef>
          <sign>G</sign>
          <line>2</line>
        </clef>
      </attributes>
      <sound tempo="135"/>
      <note default-x="99">
        <pitch>
          <step>D</step>
          <octave>4</octave>
        </pitch>
        <duration>4</duration>
        <voice>1</voice>
        <type>half</type>
        <stem>double</stem>
        <lyric default-y="-82" number="1">
          <syllabic>single</syllabic>
          <text>1.</text>
          <elision> </elision>
          <syllabic>single</syllabic>
          <text>I</text>
        </lyric>
        <lyric default-y="-103" number="2">
          <syllabic>single</syllabic>
          <text>2.</text>
          <elision> </elision>
          <syllabic>single</syllabic>
          <text>Whom</text>
        </lyric>
        <lyric default-y="-124" number="3">
          <syllabic>single</syllabic>
          <text>3.</text>
          <elision> </elision>
          <syllabic>single</syllabic>
          <text>Sing</text>
        </lyric>
        <lyric default-y="-145" number="4">
          <syllabic>single</syllabic>
          <text>4.</text>
          <elision> </elision>
          <syllabic>single</syllabic>
          <text>Christ</text>
        </lyric>
      </note>
    </measure>
    <!--=======================================================-->
    <measure number="1" width="237">
      <note default-x="27">
        <pitch>
          <step>E</step>
          <octave>4</octave>
        </pitch>
        <duration>2</duration>
        <voice>1</voice>
        <type>quarter</type>
        <stem default-y="7">up</stem>
        <lyric default-y="-82" number="1">
          <syllabic>single</syllabic>
          <text>sing</text>
        </lyric>
        <lyric default-y="-103" number="2">
          <syllabic>single</syllabic>
          <text>God</text>
        </lyric>
        <lyric default-y="-124" number="3">
          <syllabic>single</syllabic>
          <text>praise</text>
        </lyric>
        <lyric default-y="-145" number="4">
          <syllabic>single</syllabic>
          <text>bids</text>
        </lyric>
      </note>
      <note default-x="27">
        <chord/>
        <pitch>
          <step>A</step>
          <octave>4</octave>
        </pitch>
        <duration>2</duration>
        <voice>1</voice>
        <type>quarter</type>
        <stem>up</stem>
      </note>
      <note default-x="82">
        <pitch>
          <step>D</step>
          <octave>4</octave>
        </pitch>
        <duration>2</duration>
        <voice>1</voice>
        <type>quarter</type>
        <stem default-y="7">up</stem>
        <lyric default-y="-82" number="1">
          <syllabic>single</syllabic>
          <text>with</text>
        </lyric>
        <lyric default-y="-103" number="2">
          <syllabic>single</syllabic>
          <text>sent</text>
        </lyric>
        <lyric default-y="-124" number="3">
          <syllabic>single</syllabic>
          <text>to</text>
        </lyric>
        <lyric default-y="-145" number="4">
          <syllabic>single</syllabic>
          <text>us,</text>
        </lyric>
      </note>
      <note default-x="82">
        <chord/>
        <pitch>
          <step>A</step>
          <octave>4</octave>
        </pitch>
        <duration>2</duration>
        <voice>1</voice>
        <type>quarter</type>
        <stem>up</stem>
      </note>
      <note default-x="138">
        <pitch>
          <step>D</step>
          <octave>4</octave>
        </pitch>
        <duration>2</duration>
        <voice>1</voice>
        <type>quarter</type>
        <stem default-y="12">up</stem>
        <lyric default-y="-82" number="1">
          <syllabic>begin</syllabic>
          <text>ex</text>
        </lyric>
        <lyric default-y="-103" number="2">
          <syllabic>single</syllabic>
          <text>as</text>
        </lyric>
        <lyric default-y="-124" number="3">
          <syllabic>single</syllabic>
          <text>Christ</text>
        </lyric>
        <lyric default-y="-145" number="4">
          <syllabic>single</syllabic>
          <text>none</text>
        </lyric>
      </note>
      <note default-x="138">
        <chord/>
        <pitch>
          <step>B</step>
          <octave>4</octave>
        </pitch>
        <duration>2</duration>
        <voice>1</voice>
        <type>quarter</type>
        <stem>up</stem>
      </note>
      <note default-x="193">
        <pitch>
          <step>E</step>
          <octave>4</octave>
        </pitch>
        <duration>2</duration>
        <voice>1</voice>
        <type>quarter</type>
        <stem default-y="11">up</stem>
        <lyric default-y="-82" number="1">
          <syllabic>middle</syllabic>
          <text>ul</text>
        </lyric>
        <lyric default-y="-103" number="2">
          <syllabic>begin</syllabic>
          <text>ex</text>
        </lyric>
        <lyric default-y="-124" number="3">
          <syllabic>single</syllabic>
          <text>our</text>
        </lyric>
        <lyric default-y="-145" number="4">
          <syllabic>begin</syllabic>
          <text>com</text>
        </lyric>
      </note>
      <note default-x="193">
        <chord/>
        <pitch>
          <step>C</step>
          <alter>1</alter>
          <octave>5</octave>
        </pitch>
        <duration>2</duration>
        <voice>1</voice>
        <type>quarter</type>
        <stem>up</stem>
      </note>
    </measure>
    <!--=======================================================-->
    <measure number="2" width="121">
      <note default-x="14">
        <pitch>
          <step>F</step>
          <alter>1</alter>
          <octave>4</octave>
        </pitch>
        <duration>4</duration>
        <voice>1</voice>
        <type>half</type>
        <stem default-y="16">up</stem>
        <lyric default-y="-82" number="1">
          <syllabic>middle</syllabic>
          <text>ta</text>
        </lyric>
        <lyric default-y="-103" number="2">
          <syllabic>middle</syllabic>
          <text>am</text>
        </lyric>
        <lyric default-y="-124" number="3">
          <syllabic>begin</syllabic>
          <text>Sav</text>
        </lyric>
        <lyric default-y="-145" number="4">
          <syllabic>middle</syllabic>
          <text>pel</text>
        </lyric>
      </note>
      <note default-x="14">
        <chord/>
        <pitch>
          <step>D</step>
          <octave>5</octave>
        </pitch>
        <duration>4</duration>
        <voice>1</voice>
        <type>half</type>
        <stem>up</stem>
      </note>
      <note default-x="77">
        <pitch>
          <step>D</step>
          <octave>4</octave>
        </pitch>
        <duration>4</duration>
        <voice>1</voice>
        <type>half</type>
        <stem default-y="16">up</stem>
        <lyric default-y="-82" number="1">
          <syllabic>end</syllabic>
          <text>tion,</text>
        </lyric>
        <lyric default-y="-103" number="2">
          <syllabic>end</syllabic>
          <text>ple,</text>
        </lyric>
        <lyric default-y="-124" number="3">
          <syllabic>end</syllabic>
          <text>ior,</text>
        </lyric>
        <lyric default-y="-145" number="4">
          <syllabic>end</syllabic>
          <text>ling,</text>
        </lyric>
      </note>
      <note default-x="77">
        <chord/>
        <pitch>
          <step>D</step>
          <octave>5</octave>
        </pitch>
        <duration>4</duration>
        <voice>1</voice>
        <type>half</type>
        <stem>up</stem>
      </note>
    </measure>
    <!--=======================================================-->
    <measure number="3" width="335">
      <note default-x="24">
        <pitch>
          <step>D</step>
          <octave>4</octave>
        </pitch>
        <duration>4</duration>
        <voice>1</voice>
        <type>half</type>
        <stem default-y="16">up</stem>
        <lyric default-y="-82" number="1">
          <syllabic>single</syllabic>
          <text>All</text>
        </lyric>
        <lyric default-y="-103" number="2">
          <syllabic>single</syllabic>
          <text>Light</text>
        </lyric>
        <lyric default-y="-124" number="3">
          <syllabic>single</syllabic>
          <text>Who</text>
        </lyric>
        <lyric default-y="-145" number="4">
          <syllabic>single</syllabic>
          <text>To</text>
        </lyric>
      </note>
      <note default-x="24">
        <chord/>
        <pitch>
          <step>D</step>
          <octave>5</octave>
        </pitch>
        <duration>4</duration>
        <voice>1</voice>
        <type>half</type>
        <stem>up</stem>
      </note>
      <note default-x="74">
        <pitch>
          <step>E</step>
          <octave>4</octave>
        </pitch>
        <duration>2</duration>
        <voice>1</voice>
        <type>quarter</type>
        <stem default-y="7">up</stem>
        <lyric default-y="-82" number="1">
          <syllabic>single</syllabic>
          <text>my</text>
        </lyric>
        <lyric default-y="-103" number="2">
          <syllabic>single</syllabic>
          <text>my</text>
        </lyric>
        <lyric default-y="-124" number="3">
          <syllabic>single</syllabic>
          <text>in</text>
        </lyric>
        <lyric default-y="-145" number="4">
          <syllabic>single</syllabic>
          <text>His</text>
        </lyric>
      </note>
      <note default-x="74">
        <chord/>
        <pitch>
          <step>A</step>
          <octave>4</octave>
        </pitch>
        <duration>2</duration>
        <voice>1</voice>
        <type>quarter</type>
        <stem>up</stem>
      </note>
      <note default-x="125">
        <pitch>
          <step>F</step>
          <alter>1</alter>
          <octave>4</octave>
        </pitch>
        <duration>4</duration>
        <voice>1</voice>
        <type>half</type>
        <stem default-y="16">up</stem>
        <notations>
          <slur bezier-x="8" bezier-y="-8" default-x="131" default-y="-49" number="1" placement="below" type="start"/>
          <slur bezier-x="5" bezier-y="-10" default-x="131" default-y="-205" number="2" placement="below" type="start"/>
        </notations>
        <lyric default-y="-82" number="1">
          <syllabic>single</syllabic>
          <text>heart</text>
        </lyric>
        <lyric default-y="-103" number="2">
          <syllabic>single</syllabic>
          <text>feet</text>
        </lyric>
        <lyric default-y="-124" number="3">
          <syllabic>single</syllabic>
          <text>grace</text>
        </lyric>
        <lyric default-y="-145" number="4">
          <syllabic>begin</syllabic>
          <text>glo</text>
        </lyric>
      </note>
      <note default-x="125">
        <chord/>
        <pitch>
          <step>D</step>
          <octave>5</octave>
        </pitch>
        <duration>4</duration>
        <voice>1</voice>
        <type>half</type>
        <stem>up</stem>
      </note>
      <note default-x="179">
        <pitch>
          <step>E</step>
          <octave>4</octave>
        </pitch>
        <duration>2</duration>
        <voice>1</voice>
        <type>quarter</type>
        <stem default-y="11">up</stem>
        <notations>
          <slur bezier-x="-10" bezier-y="-5" default-x="129" default-y="-58" number="1" type="stop"/>
          <slur bezier-x="-11" bezier-y="-2" default-x="126" default-y="-228" number="2" type="stop"/>
        </notations>
        <lyric default-y="-82" number="1">
          <syllabic>begin</syllabic>
          <text>de</text>
        </lyric>
        <lyric default-y="-103" number="2">
          <syllabic>single</syllabic>
          <text>to</text>
        </lyric>
        <lyric default-y="-124" number="3">
          <syllabic>begin</syllabic>
          <text>in</text>
        </lyric>
        <lyric default-y="-145" number="4">
          <syllabic>end</syllabic>
          <text>rious</text>
        </lyric>
      </note>
      <note default-x="179">
        <chord/>
        <pitch>
          <step>C</step>
          <alter>1</alter>
          <octave>5</octave>
        </pitch>
        <duration>2</duration>
        <voice>1</voice>
        <type>quarter</type>
        <stem>up</stem>
      </note>
    </measure>
    <!--=======================================================-->
    <measure number="4" width="848">
      <print new-system="yes"/>
      <note default-x="760">
        <pitch>
          <step>E</step>
          <octave>4</octave>
        </pitch>
        <duration>4</duration>
        <voice>1</voice>
        <type>half</type>
        <stem default-y="12">up</stem>
        <lyric default-y="-82" number="1">
          <syllabic>end</syllabic>
          <text>lights</text>
        </lyric>
        <lyric default-y="-103" number="2">
          <syllabic>single</syllabic>
          <text>guide.</text>
        </lyric>
        <lyric default-y="-124" number="3">
          <syllabic>end</syllabic>
          <text>clined</text>
        </lyric>
        <lyric default-y="-145" number="4">
          <syllabic>single</syllabic>
          <text>throne.</text>
        </lyric>
      </note>
      <note default-x="760">
        <chord/>
        <pitch>
          <step>B</step>
          <octave>4</octave>
        </pitch>
        <duration>4</duration>
        <voice>1</voice>
        <type>half</type>
        <stem>up</stem>
      </note>
      <note default-x="823">
        <pitch>
          <step>C</step>
          <alter>1</alter>
          <octave>4</octave>
        </pitch>
        <duration>4</duration>
        <voice>1</voice>
        <type>half</type>
        <stem default-y="7">up</stem>
      </note>
      <note default-x="823">
        <chord/>
        <pitch>
          <step>A</step>
          <octave>4</octave>
        </pitch>
        <duration>4</duration>
        <voice>1</voice>
        <type>half</type>
        <stem>up</stem>
      </note>
      <note default-x="78">
        <pitch>
          <step>D</step>
          <octave>4</octave>
        </pitch>
        <duration>4</duration>
        <voice>1</voice>
        <type>half</type>
        <stem>double</stem>
        <lyric default-y="-82" number="1">
          <syllabic>single</syllabic>
          <text>In</text>
        </lyric>
        <lyric default-y="-103" number="2">
          <syllabic>begin</syllabic>
          <text>Be</text>
        </lyric>
        <lyric default-y="-124" number="3">
          <syllabic>single</syllabic>
          <text>To</text>
        </lyric>
        <lyric default-y="-145" number="4">
          <syllabic>single</syllabic>
          <text>He</text>
        </lyric>
      </note>
    </measure>
    <!--=======================================================-->
    <measure number="5">
      <note default-x="-714">
        <pitch>
          <step>E</step>
          <octave>4</octave>
        </pitch>
        <duration>2</duration>
        <voice>1</voice>
        <type>quarter</type>
        <stem default-y="7">up</stem>
        <lyric default-y="-82" number="1">
          <syllabic>single</syllabic>
          <text>God,</text>
        </lyric>
        <lyric default-y="-103" number="2">
          <syllabic>end</syllabic>
          <text>fore</text>
        </lyric>
        <lyric default-y="-124" number="3">
          <syllabic>single</syllabic>
          <text>us</text>
        </lyric>
        <lyric default-y="-145" number="4">
          <syllabic>begin</syllabic>
          <text>on</text>
        </lyric>
      </note>
      <note default-x="-714">
        <chord/>
        <pitch>
          <step>A</step>
          <octave>4</octave>
        </pitch>
        <duration>2</duration>
        <voice>1</voice>
        <type>quarter</type>
        <stem>up</stem>
      </note>
      <note default-x="-663">
        <pitch>
          <step>D</step>
          <octave>4</octave>
        </pitch>
        <duration>2</duration>
        <voice>1</voice>
        <type>quarter</type>
        <stem default-y="7">up</stem>
        <lyric default-y="-82" number="1">
          <syllabic>single</syllabic>
          <text>who</text>
        </lyric>
        <lyric default-y="-103" number="2">
          <syllabic>single</syllabic>
          <text>my</text>
        </lyric>
        <lyric default-y="-124" number="3">
          <syllabic>begin</syllabic>
          <text>re</text>
        </lyric>
        <lyric default-y="-145" number="4">
          <syllabic>end</syllabic>
          <text>ly</text>
        </lyric>
      </note>
      <note default-x="-663">
        <chord/>
        <pitch>
          <step>A</step>
          <octave>4</octave>
        </pitch>
        <duration>2</duration>
        <voice>1</voice>
        <type>quarter</type>
        <stem>up</stem>
      </note>
      <note default-x="-608">
        <pitch>
          <step>D</step>
          <octave>4</octave>
        </pitch>
        <duration>2</duration>
        <voice>1</voice>
        <type>quarter</type>
        <stem default-y="12">up</stem>
        <lyric default-y="-82" number="1">
          <syllabic>single</syllabic>
          <text>brings</text>
        </lyric>
        <lyric default-y="-103" number="2">
          <syllabic>single</syllabic>
          <text>end</text>
        </lyric>
        <lyric default-y="-124" number="3">
          <syllabic>end</syllabic>
          <text>veals</text>
        </lyric>
        <lyric default-y="-145" number="4">
          <syllabic>single</syllabic>
          <text>who</text>
        </lyric>
      </note>
      <note default-x="-608">
        <chord/>
        <pitch>
          <step>B</step>
          <octave>4</octave>
        </pitch>
        <duration>2</duration>
        <voice>1</voice>
        <type>quarter</type>
        <stem>up</stem>
      </note>
      <note default-x="-554">
        <pitch>
          <step>E</step>
          <octave>4</octave>
        </pitch>
        <duration>2</duration>
        <voice>1</voice>
        <type>quarter</type>
        <stem default-y="11">up</stem>
        <lyric default-y="-82" number="1">
          <syllabic>begin</syllabic>
          <text>sal</text>
        </lyric>
        <lyric default-y="-103" number="2">
          <syllabic>single</syllabic>
          <text>He</text>
        </lyric>
        <lyric default-y="-124" number="3">
          <syllabic>single</syllabic>
          <text>His</text>
        </lyric>
        <lyric default-y="-145" number="4">
          <syllabic>single</syllabic>
          <text>is</text>
        </lyric>
      </note>
      <note default-x="-554">
        <chord/>
        <pitch>
          <step>C</step>
          <alter>1</alter>
          <octave>5</octave>
        </pitch>
        <duration>2</duration>
        <voice>1</voice>
        <type>quarter</type>
        <stem>up</stem>
      </note>
    </measure>
    <!--=======================================================-->
    <measure number="6">
      <note>
        <pitch>
          <step>F</step>
          <alter>1</alter>
          <octave>4</octave>
        </pitch>
        <duration>4</duration>
        <voice>1</voice>
        <type>half</type>
        <stem default-y="16">up</stem>
        <lyric default-y="-82" number="1">
          <syllabic>middle</syllabic>
          <text>va</text>
        </lyric>
        <lyric default-y="-103" number="2">
          <syllabic>single</syllabic>
          <text>bade</text>
        </lyric>
        <lyric default-y="-124" number="3">
          <syllabic>begin</syllabic>
          <text>na</text>
        </lyric>
        <lyric default-y="-145" number="4">
          <syllabic>begin</syllabic>
          <text>will</text>
        </lyric>
      </note>
      <note>
        <chord/>
        <pitch>
          <step>D</step>
          <octave>5</octave>
        </pitch>
        <duration>4</duration>
        <voice>1</voice>
        <type>half</type>
        <stem>up</stem>
      </note>
      <note>
        <pitch>
          <step>D</step>
          <octave>4</octave>
        </pitch>
        <duration>4</duration>
        <voice>1</voice>
        <type>half</type>
        <stem default-y="16">up</stem>
        <lyric default-y="-82" number="1">
          <syllabic>end</syllabic>
          <text>tion,</text>
        </lyric>
        <lyric default-y="-103" number="2">
          <syllabic>single</syllabic>
          <text>me</text>
        </lyric>
        <lyric default-y="-124" number="3">
          <syllabic>end</syllabic>
          <text>ture,</text>
        </lyric>
        <lyric default-y="-145" number="4">
          <syllabic>end</syllabic>
          <text>ing</text>
        </lyric>
      </note>
      <note>
        <chord/>
        <pitch>
          <step>D</step>
          <octave>5</octave>
        </pitch>
        <duration>4</duration>
        <voice>1</voice>
        <type>half</type>
        <stem>up</stem>
      </note>
    </measure>
    <!--=======================================================-->
    <measure number="7">
      <note>
        <pitch>
          <step>D</step>
          <octave>4</octave>
        </pitch>
        <duration>4</duration>
        <voice>1</voice>
        <type>half</type>
        <stem default-y="16">up</stem>
        <lyric default-y="-82" number="1">
          <syllabic>single</syllabic>
          <text>Frees</text>
        </lyric>
        <lyric default-y="-103" number="2">
          <syllabic>single</syllabic>
          <text>In</text>
        </lyric>
        <lyric default-y="-124" number="3">
          <syllabic>begin</syllabic>
          <text>Pa</text>
        </lyric>
        <lyric default-y="-145" number="4">
          <syllabic>single</syllabic>
          <text>Christ</text>
        </lyric>
      </note>
      <note>
        <chord/>
        <pitch>
          <step>D</step>
          <octave>5</octave>
        </pitch>
        <duration>4</duration>
        <voice>1</voice>
        <type>half</type>
        <stem>up</stem>
      </note>
      <note>
        <pitch>
          <step>E</step>
          <octave>4</octave>
        </pitch>
        <duration>2</duration>
        <voice>1</voice>
        <type>quarter</type>
        <stem default-y="7">up</stem>
        <lyric default-y="-82" number="1">
          <syllabic>single</syllabic>
          <text>from</text>
        </lyric>
        <lyric default-y="-103" number="2">
          <syllabic>single</syllabic>
          <text>His</text>
        </lyric>
        <lyric default-y="-124" number="3">
          <syllabic>end</syllabic>
          <text>tient,</text>
        </lyric>
        <lyric default-y="-145" number="4">
          <syllabic>single</syllabic>
          <text>as</text>
        </lyric>
      </note>
      <note>
        <chord/>
        <pitch>
          <step>A</step>
          <octave>4</octave>
        </pitch>
        <duration>2</duration>
        <voice>1</voice>
        <type>quarter</type>
        <stem>up</stem>
      </note>
      <note>
        <pitch>
          <step>F</step>
          <alter>1</alter>
          <octave>4</octave>
        </pitch>
        <duration>4</duration>
        <voice>1</voice>
        <type>half</type>
        <stem default-y="16">up</stem>
        <notations>
          <slur bezier-x="9" bezier-y="-8" default-x="140" default-y="-49" number="1" placement="below" type="start"/>
          <slur bezier-x="7" bezier-y="-11" default-x="139" default-y="-207" number="2" placement="below" type="start"/>
        </notations>
        <lyric default-y="-82" number="1">
          <syllabic>single</syllabic>
          <text>death’s</text>
        </lyric>
        <lyric default-y="-103" number="2">
          <syllabic>single</syllabic>
          <text>realm</text>
        </lyric>
        <lyric default-y="-124" number="3">
          <syllabic>begin</syllabic>
          <text>lov</text>
        </lyric>
        <lyric default-y="-145" number="4">
          <syllabic>single</syllabic>
          <text>Lord</text>
        </lyric>
      </note>
      <note>
        <chord/>
        <pitch>
          <step>D</step>
          <octave>5</octave>
        </pitch>
        <duration>4</duration>
        <voice>1</voice>
        <type>half</type>
        <stem>up</stem>
      </note>
      <note>
        <pitch>
          <step>E</step>
          <octave>4</octave>
        </pitch>
        <duration>2</duration>
        <voice>1</voice>
        <type>quarter</type>
        <stem default-y="11">up</stem>
        <notations>
          <slur bezier-x="-10" bezier-y="-6" default-x="135" default-y="-57" number="1" type="stop"/>
          <slur bezier-x="-12" bezier-y="-3" default-x="133" default-y="-232" number="2" type="stop"/>
        </notations>
        <lyric default-y="-82" number="1">
          <syllabic>single</syllabic>
          <text>dread</text>
        </lyric>
        <lyric default-y="-103" number="2">
          <syllabic>begin</syllabic>
          <text>a</text>
        </lyric>
        <lyric default-y="-124" number="3">
          <syllabic>end</syllabic>
          <text>ing,</text>
        </lyric>
        <lyric default-y="-145" number="4">
          <syllabic>single</syllabic>
          <text>to</text>
        </lyric>
      </note>
      <note>
        <chord/>
        <pitch>
          <step>C</step>
          <alter>1</alter>
          <octave>5</octave>
        </pitch>
        <duration>2</duration>
        <voice>1</voice>
        <type>quarter</type>
        <stem>up</stem>
      </note>
    </measure>
    <!--=======================================================-->
    <measure number="8" width="847">
      <print new-system="yes"/>
      <note default-x="738">
        <pitch>
          <step>E</step>
          <octave>4</octave>
        </pitch>
        <duration>4</duration>
        <voice>1</voice>
        <type>half</type>
        <stem default-y="12">up</stem>
        <lyric default-y="-82" number="1">
          <syllabic>single</syllabic>
          <text>might.</text>
        </lyric>
        <lyric default-y="-103" number="2">
          <syllabic>end</syllabic>
          <text>bide.</text>
        </lyric>
        <lyric default-y="-124" number="3">
          <syllabic>single</syllabic>
          <text>kind.</text>
        </lyric>
        <lyric default-y="-145" number="4">
          <syllabic>single</syllabic>
          <text>own,</text>
        </lyric>
      </note>
      <note default-x="738">
        <chord/>
        <pitch>
          <step>B</step>
          <octave>4</octave>
        </pitch>
        <duration>4</duration>
        <voice>1</voice>
        <type>half</type>
        <stem>up</stem>
      </note>
      <note default-x="809">
        <pitch>
          <step>C</step>
          <alter>1</alter>
          <octave>4</octave>
        </pitch>
        <duration>4</duration>
        <voice>1</voice>
        <type>half</type>
        <stem default-y="7">up</stem>
      </note>
      <note default-x="809">
        <chord/>
        <pitch>
          <step>A</step>
          <octave>4</octave>
        </pitch>
        <duration>4</duration>
        <voice>1</voice>
        <type>half</type>
        <stem>up</stem>
      </note>
      <note default-x="92">
        <pitch>
          <step>D</step>
          <octave>4</octave>
        </pitch>
        <duration>4</duration>
        <voice>1</voice>
        <type>half</type>
        <stem default-y="-259">up</stem>
        <lyric default-y="-82" number="1">
          <syllabic>single</syllabic>
          <text>I</text>
        </lyric>
        <lyric default-y="-103" number="2">
          <syllabic>single</syllabic>
          <text>That</text>
        </lyric>
        <lyric default-y="-124" number="3">
          <syllabic>single</syllabic>
          <text>His</text>
        </lyric>
        <lyric default-y="-145" number="4">
          <syllabic>single</syllabic>
          <text>He</text>
        </lyric>
      </note>
      <note default-x="92">
        <chord/>
        <pitch>
          <step>D</step>
          <octave>5</octave>
        </pitch>
        <duration>4</duration>
        <voice>1</voice>
        <type>half</type>
        <stem>up</stem>
      </note>
    </measure>
    <!--=======================================================-->
    <measure number="9">
      <note default-x="-681">
        <pitch>
          <step>D</step>
          <octave>4</octave>
        </pitch>
        <duration>3</duration>
        <voice>1</voice>
        <type>quarter</type>
        <dot/>
        <stem default-y="16">up</stem>
        <lyric default-y="-82" number="1">
          <syllabic>single</syllabic>
          <text>praise</text>
        </lyric>
        <lyric default-y="-103" number="2">
          <syllabic>single</syllabic>
          <text>I</text>
        </lyric>
        <lyric default-y="-124" number="3">
          <syllabic>single</syllabic>
          <text>love</text>
        </lyric>
        <lyric default-y="-145" number="4">
          <syllabic>single</syllabic>
          <text>is</text>
        </lyric>
      </note>
      <note default-x="-681">
        <chord/>
        <pitch>
          <step>D</step>
          <octave>5</octave>
        </pitch>
        <duration>3</duration>
        <voice>1</voice>
        <type>quarter</type>
        <dot/>
        <stem>up</stem>
      </note>
      <note default-x="-623">
        <pitch>
          <step>E</step>
          <octave>4</octave>
        </pitch>
        <duration>1</duration>
        <voice>1</voice>
        <type>eighth</type>
        <stem default-y="17">up</stem>
        <lyric default-y="-82" number="1">
          <syllabic>single</syllabic>
          <text>Thee,</text>
        </lyric>
        <lyric default-y="-103" number="2">
          <syllabic>single</syllabic>
          <text>might</text>
        </lyric>
        <lyric default-y="-124" number="3">
          <syllabic>begin</syllabic>
          <text>di</text>
        </lyric>
        <lyric default-y="-145" number="4">
          <syllabic>begin</syllabic>
          <text>as</text>
        </lyric>
      </note>
      <note default-x="-623">
        <chord/>
        <pitch>
          <step>C</step>
          <alter>1</alter>
          <octave>5</octave>
        </pitch>
        <duration>1</duration>
        <voice>1</voice>
        <type>eighth</type>
        <stem>up</stem>
      </note>
      <note default-x="-564">
        <pitch>
          <step>D</step>
          <octave>4</octave>
        </pitch>
        <duration>2</duration>
        <voice>1</voice>
        <type>quarter</type>
        <stem default-y="12">up</stem>
        <lyric default-y="-82" number="1">
          <syllabic>single</syllabic>
          <text>Christ</text>
        </lyric>
        <lyric default-y="-103" number="2">
          <syllabic>single</syllabic>
          <text>love</text>
        </lyric>
        <lyric default-y="-124" number="3">
          <syllabic>end</syllabic>
          <text>vine</text>
        </lyric>
        <lyric default-y="-145" number="4">
          <syllabic>end</syllabic>
          <text>sured</text>
        </lyric>
      </note>
      <note default-x="-564">
        <chord/>
        <pitch>
          <step>B</step>
          <octave>4</octave>
        </pitch>
        <duration>2</duration>
        <voice>1</voice>
        <type>quarter</type>
        <stem>up</stem>
      </note>
      <note default-x="-514">
        <pitch>
          <step>E</step>
          <octave>4</octave>
        </pitch>
        <duration>2</duration>
        <voice>1</voice>
        <type>quarter</type>
        <stem default-y="7">up</stem>
        <lyric default-y="-82" number="1">
          <syllabic>single</syllabic>
          <text>of</text>
        </lyric>
        <lyric default-y="-103" number="2">
          <syllabic>single</syllabic>
          <text>and</text>
        </lyric>
        <lyric default-y="-124" number="3">
          <syllabic>begin</syllabic>
          <text>out</text>
        </lyric>
        <lyric default-y="-145" number="4">
          <syllabic>single</syllabic>
          <text>of</text>
        </lyric>
      </note>
      <note default-x="-514">
        <chord/>
        <pitch>
          <step>A</step>
          <octave>4</octave>
        </pitch>
        <duration>2</duration>
        <voice>1</voice>
        <type>quarter</type>
        <stem>up</stem>
      </note>
    </measure>
    <!--=======================================================-->
    <measure number="10">
      <note>
        <pitch>
          <step>D</step>
          <octave>4</octave>
        </pitch>
        <duration>4</duration>
        <voice>1</voice>
        <type>half</type>
        <stem default-y="-3">up</stem>
        <lyric default-y="-82" number="1">
          <syllabic>begin</syllabic>
          <text>Heav</text>
        </lyric>
        <lyric default-y="-103" number="2">
          <syllabic>begin</syllabic>
          <text>cher</text>
        </lyric>
        <lyric default-y="-124" number="3">
          <syllabic>middle</syllabic>
          <text>pour</text>
        </lyric>
        <lyric default-y="-145" number="4">
          <syllabic>begin</syllabic>
          <text>Heav</text>
        </lyric>
      </note>
      <note>
        <chord/>
        <pitch>
          <step>F</step>
          <alter>1</alter>
          <octave>4</octave>
        </pitch>
        <duration>4</duration>
        <voice>1</voice>
        <type>half</type>
        <stem>up</stem>
      </note>
      <note>
        <pitch>
          <step>D</step>
          <octave>4</octave>
        </pitch>
        <duration>4</duration>
        <voice>1</voice>
        <type>half</type>
        <stem>double</stem>
        <lyric default-y="-82" number="1">
          <syllabic>end</syllabic>
          <text>en,</text>
        </lyric>
        <lyric default-y="-103" number="2">
          <syllabic>end</syllabic>
          <text>ish</text>
        </lyric>
        <lyric default-y="-124" number="3">
          <syllabic>end</syllabic>
          <text>ing</text>
        </lyric>
        <lyric default-y="-145" number="4">
          <syllabic>end</syllabic>
          <text>en</text>
        </lyric>
      </note>
      <note>
        <rest/>
        <duration>2</duration>
        <voice>1</voice>
        <type>quarter</type>
      </note>
      <note>
        <pitch>
          <step>D</step>
          <octave>4</octave>
        </pitch>
        <duration>2</duration>
        <voice>1</voice>
        <type>quarter</type>
        <stem>double</stem>
        <lyric default-y="-82" number="1">
          <syllabic>single</syllabic>
          <text>Who</text>
        </lyric>
        <lyric default-y="-103" number="2">
          <syllabic>single</syllabic>
          <text>His</text>
        </lyric>
        <lyric default-y="-124" number="3">
          <syllabic>single</syllabic>
          <text>He</text>
        </lyric>
        <lyric default-y="-145" number="4">
          <syllabic>single</syllabic>
          <text>Who</text>
        </lyric>
      </note>
    </measure>
    <!--=======================================================-->
    <measure number="11">
      <note>
        <pitch>
          <step>D</step>
          <octave>4</octave>
        </pitch>
        <duration>3</duration>
        <voice>1</voice>
        <type>quarter</type>
        <dot/>
        <stem default-y="7">up</stem>
        <lyric default-y="-82" number="1">
          <syllabic>begin</syllabic>
          <text>ev</text>
        </lyric>
        <lyric default-y="-103" number="2">
          <syllabic>begin</syllabic>
          <text>right</text>
        </lyric>
        <lyric default-y="-124" number="3">
          <syllabic>single</syllabic>
          <text>shows</text>
        </lyric>
        <lyric default-y="-145" number="4">
          <syllabic>single</syllabic>
          <text>will</text>
        </lyric>
      </note>
      <note>
        <chord/>
        <pitch>
          <step>A</step>
          <octave>4</octave>
        </pitch>
        <duration>3</duration>
        <voice>1</voice>
        <type>quarter</type>
        <dot/>
        <stem>up</stem>
      </note>
      <note>
        <pitch>
          <step>D</step>
          <octave>4</octave>
        </pitch>
        <duration>1</duration>
        <voice>1</voice>
        <type>eighth</type>
        <stem default-y="12">up</stem>
        <lyric default-y="-82" number="1">
          <syllabic>end</syllabic>
          <text>er</text>
        </lyric>
        <lyric default-y="-103" number="2">
          <syllabic>middle</syllabic>
          <text>eous</text>
        </lyric>
        <lyric default-y="-124" number="3">
          <syllabic>single</syllabic>
          <text>to</text>
        </lyric>
        <lyric default-y="-145" number="4">
          <syllabic>single</syllabic>
          <text>right</text>
        </lyric>
      </note>
      <note>
        <chord/>
        <pitch>
          <step>B</step>
          <octave>4</octave>
        </pitch>
        <duration>1</duration>
        <voice>1</voice>
        <type>eighth</type>
        <stem>up</stem>
      </note>
      <note>
        <pitch>
          <step>E</step>
          <octave>4</octave>
        </pitch>
        <duration>2</duration>
        <voice>1</voice>
        <type>quarter</type>
        <stem default-y="11">up</stem>
        <notations>
          <slur bezier-x="6" bezier-y="-8" default-x="110" default-y="-50" number="1" placement="below" type="start"/>
          <slur bezier-x="4" bezier-y="-9" default-x="109" default-y="-213" number="2" placement="below" type="start"/>
        </notations>
        <lyric default-y="-82" number="1">
          <syllabic>single</syllabic>
          <text>shall</text>
        </lyric>
        <lyric default-y="-103" number="2">
          <syllabic>end</syllabic>
          <text>ness</text>
        </lyric>
        <lyric default-y="-124" number="3">
          <syllabic>begin</syllabic>
          <text>ev</text>
        </lyric>
        <lyric default-y="-145" number="4">
          <syllabic>single</syllabic>
          <text>faith</text>
        </lyric>
      </note>
      <note>
        <chord/>
        <pitch>
          <step>C</step>
          <alter>1</alter>
          <octave>5</octave>
        </pitch>
        <duration>2</duration>
        <voice>1</voice>
        <type>quarter</type>
        <stem>up</stem>
      </note>
      <note>
        <pitch>
          <step>F</step>
          <alter>1</alter>
          <octave>4</octave>
        </pitch>
        <duration>2</duration>
        <voice>1</voice>
        <type>quarter</type>
        <stem default-y="16">up</stem>
        <notations>
          <slur bezier-x="-9" bezier-y="-5" default-x="104" default-y="-58" number="1" type="stop"/>
          <slur bezier-x="-9" bezier-y="-3" default-x="100" default-y="-231" number="2" type="stop"/>
        </notations>
        <lyric default-y="-82" number="1">
          <syllabic>begin</syllabic>
          <text>en</text>
        </lyric>
        <lyric default-y="-103" number="2">
          <syllabic>begin</syllabic>
          <text>di</text>
        </lyric>
        <lyric default-y="-124" number="3">
          <syllabic>middle</syllabic>
          <text>’ry</text>
        </lyric>
        <lyric default-y="-145" number="4">
          <syllabic>begin</syllabic>
          <text>pur</text>
        </lyric>
      </note>
      <note>
        <chord/>
        <pitch>
          <step>D</step>
          <octave>5</octave>
        </pitch>
        <duration>2</duration>
        <voice>1</voice>
        <type>quarter</type>
        <stem>up</stem>
      </note>
    </measure>
    <!--=======================================================-->
    <measure number="12" width="847">
      <print new-system="yes"/>
      <note default-x="762">
        <pitch>
          <step>E</step>
          <octave>4</octave>
        </pitch>
        <duration>4</duration>
        <voice>1</voice>
        <type>half</type>
        <stem default-y="12">up</stem>
        <lyric default-y="-82" number="1">
          <syllabic>end</syllabic>
          <text>dure,</text>
        </lyric>
        <lyric default-y="-103" number="2">
          <syllabic>end</syllabic>
          <text>vine;</text>
        </lyric>
        <lyric default-y="-124" number="3">
          <syllabic>end</syllabic>
          <text>one,</text>
        </lyric>
        <lyric default-y="-145" number="4">
          <syllabic>end</syllabic>
          <text>sue,</text>
        </lyric>
      </note>
      <note default-x="762">
        <chord/>
        <pitch>
          <step>B</step>
          <octave>4</octave>
        </pitch>
        <duration>4</duration>
        <voice>1</voice>
        <type>half</type>
        <stem>up</stem>
      </note>
      <note default-x="817">
        <pitch>
          <step>C</step>
          <alter>1</alter>
          <octave>4</octave>
        </pitch>
        <duration>4</duration>
        <voice>1</voice>
        <type>half</type>
        <stem default-y="7">up</stem>
      </note>
      <note default-x="817">
        <chord/>
        <pitch>
          <step>A</step>
          <octave>4</octave>
        </pitch>
        <duration>4</duration>
        <voice>1</voice>
        <type>half</type>
        <stem>up</stem>
      </note>
      <note default-x="72">
        <rest/>
        <duration>2</duration>
        <voice>1</voice>
        <type>quarter</type>
      </note>
      <note default-x="103">
        <pitch>
          <step>D</step>
          <octave>4</octave>
        </pitch>
        <duration>2</duration>
        <voice>1</voice>
        <type>quarter</type>
        <stem default-y="-263">up</stem>
        <lyric default-y="-86" number="1">
          <syllabic>single</syllabic>
          <text>Who</text>
        </lyric>
        <lyric default-y="-107" number="2">
          <syllabic>single</syllabic>
          <text>That</text>
        </lyric>
        <lyric default-y="-127" number="3">
          <syllabic>begin</syllabic>
          <text>Un</text>
        </lyric>
        <lyric default-y="-148" number="4">
          <syllabic>single</syllabic>
          <text>With</text>
        </lyric>
      </note>
      <note default-x="103">
        <chord/>
        <pitch>
          <step>D</step>
          <octave>5</octave>
        </pitch>
        <duration>2</duration>
        <voice>1</voice>
        <type>quarter</type>
        <stem>up</stem>
      </note>
    </measure>
    <!--=======================================================-->
    <measure number="13">
      <note default-x="-677">
        <pitch>
          <step>D</step>
          <octave>4</octave>
        </pitch>
        <duration>3</duration>
        <voice>1</voice>
        <type>quarter</type>
        <dot/>
        <stem default-y="16.5">up</stem>
        <lyric default-y="-86" number="1">
          <syllabic>single</syllabic>
          <text>takes</text>
        </lyric>
        <lyric default-y="-107" number="2">
          <syllabic>single</syllabic>
          <text>I</text>
        </lyric>
        <lyric default-y="-127" number="3">
          <syllabic>end</syllabic>
          <text>feigned</text>
        </lyric>
        <lyric default-y="-148" number="4">
          <syllabic>single</syllabic>
          <text>heart</text>
        </lyric>
      </note>
      <note default-x="-677">
        <chord/>
        <pitch>
          <step>D</step>
          <octave>5</octave>
        </pitch>
        <duration>3</duration>
        <voice>1</voice>
        <type>quarter</type>
        <dot/>
        <stem>up</stem>
      </note>
      <note default-x="-620">
        <pitch>
          <step>E</step>
          <octave>4</octave>
        </pitch>
        <duration>1</duration>
        <voice>1</voice>
        <type>eighth</type>
        <stem default-y="17">up</stem>
        <lyric default-y="-86" number="1">
          <syllabic>begin</syllabic>
          <text>a</text>
        </lyric>
        <lyric default-y="-107" number="2">
          <syllabic>single</syllabic>
          <text>with</text>
        </lyric>
        <lyric default-y="-127" number="3">
          <syllabic>single</syllabic>
          <text>and</text>
        </lyric>
        <lyric default-y="-148" number="4">
          <syllabic>single</syllabic>
          <text>made</text>
        </lyric>
      </note>
      <note default-x="-620">
        <chord/>
        <pitch>
          <step>C</step>
          <alter>1</alter>
          <octave>5</octave>
        </pitch>
        <duration>1</duration>
        <voice>1</voice>
        <type>eighth</type>
        <stem>up</stem>
      </note>
      <note default-x="-567">
        <pitch>
          <step>D</step>
          <octave>4</octave>
        </pitch>
        <duration>2</duration>
        <voice>1</voice>
        <type>quarter</type>
        <stem default-y="12">up</stem>
        <lyric default-y="-86" number="1">
          <syllabic>end</syllabic>
          <text>way</text>
        </lyric>
        <lyric default-y="-107" number="2">
          <syllabic>single</syllabic>
          <text>Him</text>
        </lyric>
        <lyric default-y="-127" number="3">
          <syllabic>single</syllabic>
          <text>like</text>
        </lyric>
        <lyric default-y="-148" number="4">
          <syllabic>single</syllabic>
          <text>pure</text>
        </lyric>
      </note>
      <note default-x="-567">
        <chord/>
        <pitch>
          <step>B</step>
          <octave>4</octave>
        </pitch>
        <duration>2</duration>
        <voice>1</voice>
        <type>quarter</type>
        <stem>up</stem>
      </note>
      <note default-x="-520">
        <pitch>
          <step>E</step>
          <octave>4</octave>
        </pitch>
        <duration>2</duration>
        <voice>1</voice>
        <type>quarter</type>
        <stem default-y="7">up</stem>
        <lyric default-y="-86" number="1">
          <syllabic>single</syllabic>
          <text>my</text>
        </lyric>
        <lyric default-y="-107" number="2">
          <syllabic>begin</syllabic>
          <text>for</text>
        </lyric>
        <lyric default-y="-127" number="3">
          <syllabic>single</syllabic>
          <text>His</text>
        </lyric>
        <lyric default-y="-148" number="4">
          <syllabic>single</syllabic>
          <text>do</text>
        </lyric>
      </note>
      <note default-x="-520">
        <chord/>
        <pitch>
          <step>A</step>
          <octave>4</octave>
        </pitch>
        <duration>2</duration>
        <voice>1</voice>
        <type>quarter</type>
        <stem>up</stem>
      </note>
    </measure>
    <!--=======================================================-->
    <measure number="14">
      <note>
        <pitch>
          <step>D</step>
          <octave>4</octave>
        </pitch>
        <duration>4</duration>
        <voice>1</voice>
        <type>half</type>
        <stem default-y="-3">up</stem>
        <lyric default-y="-86" number="1" relative-x="-4">
          <syllabic>begin</syllabic>
          <text>sor</text>
        </lyric>
        <lyric default-y="-107" number="2" relative-x="-4">
          <syllabic>middle</syllabic>
          <text>ev</text>
        </lyric>
        <lyric default-y="-127" number="3" relative-x="-4">
          <syllabic>begin</syllabic>
          <text>Fa</text>
        </lyric>
        <lyric default-y="-148" number="4" relative-x="-4">
          <syllabic>begin</syllabic>
          <text>pen</text>
        </lyric>
      </note>
      <note>
        <chord/>
        <pitch>
          <step>F</step>
          <alter>1</alter>
          <octave>4</octave>
        </pitch>
        <duration>4</duration>
        <voice>1</voice>
        <type>half</type>
        <stem>up</stem>
      </note>
      <note>
        <pitch>
          <step>D</step>
          <octave>4</octave>
        </pitch>
        <duration>4</duration>
        <voice>1</voice>
        <type>half</type>
        <stem>double</stem>
        <lyric default-y="-86" number="1">
          <syllabic>end</syllabic>
          <text>row,</text>
        </lyric>
        <lyric default-y="-107" number="2">
          <syllabic>end</syllabic>
          <text>er</text>
        </lyric>
        <lyric default-y="-127" number="3">
          <syllabic>end</syllabic>
          <text>ther’s,</text>
        </lyric>
        <lyric default-y="-148" number="4">
          <syllabic>end</syllabic>
          <text>ance,</text>
        </lyric>
      </note>
    </measure>
    <!--=======================================================-->
    <measure number="15">
      <note>
        <pitch>
          <step>D</step>
          <octave>4</octave>
        </pitch>
        <duration>4</duration>
        <voice>1</voice>
        <type>half</type>
        <stem default-y="7">up</stem>
        <lyric default-y="-86" number="1">
          <syllabic>single</syllabic>
          <text>Keeps</text>
        </lyric>
        <lyric default-y="-107" number="2">
          <syllabic>single</syllabic>
          <text>Bliss</text>
        </lyric>
        <lyric default-y="-127" number="3">
          <syllabic>single</syllabic>
          <text>As</text>
        </lyric>
        <lyric default-y="-148" number="4">
          <syllabic>single</syllabic>
          <text>Sealed</text>
        </lyric>
      </note>
      <note>
        <chord/>
        <pitch>
          <step>A</step>
          <octave>4</octave>
        </pitch>
        <duration>4</duration>
        <voice>1</voice>
        <type>half</type>
        <stem>up</stem>
      </note>
      <note>
        <pitch>
          <step>D</step>
          <octave>4</octave>
        </pitch>
        <duration>2</duration>
        <voice>1</voice>
        <type>quarter</type>
        <stem default-y="12">up</stem>
        <lyric default-y="-86" number="1">
          <syllabic>single</syllabic>
          <text>me</text>
        </lyric>
        <lyric default-y="-107" number="2">
          <syllabic>begin</syllabic>
          <text>e</text>
        </lyric>
        <lyric default-y="-127" number="3">
          <syllabic>single</syllabic>
          <text>no</text>
        </lyric>
        <lyric default-y="-148" number="4">
          <syllabic>single</syllabic>
          <text>with</text>
        </lyric>
      </note>
      <note>
        <chord/>
        <pitch>
          <step>B</step>
          <octave>4</octave>
        </pitch>
        <duration>2</duration>
        <voice>1</voice>
        <type>quarter</type>
        <stem>up</stem>
      </note>
      <note>
        <pitch>
          <step>C</step>
          <alter>1</alter>
          <octave>4</octave>
        </pitch>
        <duration>3</duration>
        <voice>1</voice>
        <type>quarter</type>
        <dot/>
        <stem default-y="7">up</stem>
        <lyric default-y="-86" number="1">
          <syllabic>single</syllabic>
          <text>safe</text>
        </lyric>
        <lyric default-y="-107" number="2">
          <syllabic>middle</syllabic>
          <text>ter</text>
        </lyric>
        <lyric default-y="-127" number="3">
          <syllabic>begin</syllabic>
          <text>oth</text>
        </lyric>
        <lyric default-y="-148" number="4">
          <syllabic>begin</syllabic>
          <text>bap</text>
        </lyric>
      </note>
      <note>
        <chord/>
        <pitch>
          <step>A</step>
          <octave>4</octave>
        </pitch>
        <duration>3</duration>
        <voice>1</voice>
        <type>quarter</type>
        <dot/>
        <stem>up</stem>
      </note>
      <note>
        <pitch>
          <step>D</step>
          <octave>4</octave>
        </pitch>
        <duration>1</duration>
        <voice>1</voice>
        <type>eighth</type>
        <stem default-y="-3">up</stem>
        <notations>
          <slur bezier-x="7" bezier-y="-13" default-x="129" default-y="-65" number="1" placement="below" type="start"/>
        </notations>
        <lyric default-y="-86" number="1">
          <syllabic>single</syllabic>
          <text>and</text>
        </lyric>
        <lyric default-y="-107" number="2">
          <syllabic>end</syllabic>
          <text>nal</text>
        </lyric>
        <lyric default-y="-127" number="3">
          <syllabic>end</syllabic>
          <text>er</text>
        </lyric>
        <lyric default-y="-148" number="4">
          <syllabic>middle</syllabic>
          <text>ti</text>
        </lyric>
      </note>
      <note>
        <chord/>
        <pitch>
          <step>F</step>
          <alter>1</alter>
          <octave>4</octave>
        </pitch>
        <duration>1</duration>
        <voice>1</voice>
        <type>eighth</type>
        <stem>up</stem>
      </note>
      <note>
        <pitch>
          <step>D</step>
          <octave>4</octave>
        </pitch>
        <duration>2</duration>
        <voice>1</voice>
        <type>quarter</type>
        <stem default-y="2">up</stem>
        <notations>
          <slur bezier-x="-8" bezier-y="-13" default-x="125" default-y="-66" number="1" type="stop"/>
        </notations>
        <lyric default-y="-86" number="1">
          <syllabic>begin</syllabic>
          <text>se</text>
        </lyric>
        <lyric default-y="-107" number="2">
          <syllabic>single</syllabic>
          <text>might</text>
        </lyric>
        <lyric default-y="-127" number="3">
          <syllabic>single</syllabic>
          <text>has</text>
        </lyric>
        <lyric default-y="-148" number="4">
          <syllabic>end</syllabic>
          <text>sm</text>
        </lyric>
      </note>
      <note>
        <chord/>
        <pitch>
          <step>G</step>
          <octave>4</octave>
        </pitch>
        <duration>2</duration>
        <voice>1</voice>
        <type>quarter</type>
        <stem>up</stem>
      </note>
    </measure>
    <!--=======================================================-->
    <measure number="16">
      <note>
        <pitch>
          <step>E</step>
          <octave>4</octave>
        </pitch>
        <duration>4</duration>
        <voice>1</voice>
        <type>half</type>
        <stem default-y="-8">up</stem>
        <notations>
          <slur default-y="-17" number="1" placement="above" relative-x="16" type="start"/>
        </notations>
        <lyric default-y="-86" number="1">
          <syllabic>end</syllabic>
          <text>cure.</text>
        </lyric>
        <lyric default-y="-107" number="2">
          <syllabic>single</syllabic>
          <text>find.</text>
        </lyric>
        <lyric default-y="-127" number="3">
          <syllabic>single</syllabic>
          <text>done.</text>
        </lyric>
        <lyric default-y="-148" number="4">
          <syllabic>single</syllabic>
          <text>true.</text>
        </lyric>
      </note>
      <backup>
        <duration>4</duration>
      </backup>
      <note>
        <pitch>
          <step>D</step>
          <octave>4</octave>
        </pitch>
        <duration>2</duration>
        <voice>2</voice>
        <type>quarter</type>
        <stem default-y="-68">down</stem>
      </note>
      <note>
        <pitch>
          <step>C</step>
          <alter>1</alter>
          <octave>4</octave>
        </pitch>
        <duration>2</duration>
        <voice>2</voice>
        <type>quarter</type>
        <stem default-y="-71">down</stem>
      </note>
      <note>
        <pitch>
          <step>D</step>
          <octave>4</octave>
        </pitch>
        <duration>4</duration>
        <voice>1</voice>
        <type>half</type>
        <stem>double</stem>
        <notations>
          <slur default-y="-24" number="1" type="stop"/>
        </notations>
      </note>
      <barline location="right">
        <bar-style>light-heavy</bar-style>
      </barline>
    </measure>
  </part>
  <!--=========================================================-->
  <part id="P2">
    <measure implicit="yes" number="0" width="155">
      <print>
        <staff-layout number="1">
          <staff-distance>137</staff-distance>
        </staff-layout>
        <measure-numbering>none</measure-numbering>
      </print>
      <attributes>
        <divisions>2</divisions>
        <key>
          <fifths>2</fifths>
          <mode>major</mode>
        </key>
        <clef>
          <sign>F</sign>
          <line>4</line>
        </clef>
      </attributes>
      <sound tempo="135"/>
      <note default-x="99">
        <pitch>
          <step>D</step>
          <octave>3</octave>
        </pitch>
        <duration>4</duration>
        <voice>1</voice>
        <type>half</type>
        <stem default-y="-51.5">down</stem>
      </note>
      <note default-x="99">
        <chord/>
        <pitch>
          <step>F</step>
          <alter>1</alter>
          <octave>3</octave>
        </pitch>
        <duration>4</duration>
        <voice>1</voice>
        <type>half</type>
        <stem>down</stem>
      </note>
    </measure>
    <!--=======================================================-->
    <measure number="1" width="237">
      <note default-x="27">
        <pitch>
          <step>C</step>
          <alter>1</alter>
          <octave>3</octave>
        </pitch>
        <duration>2</duration>
        <voice>1</voice>
        <type>quarter</type>
        <stem default-y="-51">down</stem>
      </note>
      <note default-x="27">
        <chord/>
        <pitch>
          <step>A</step>
          <octave>3</octave>
        </pitch>
        <duration>2</duration>
        <voice>1</voice>
        <type>quarter</type>
        <stem>down</stem>
      </note>
      <note default-x="82">
        <pitch>
          <step>D</step>
          <octave>3</octave>
        </pitch>
        <duration>2</duration>
        <voice>1</voice>
        <type>quarter</type>
        <stem default-y="-51.5">down</stem>
      </note>
      <note default-x="82">
        <chord/>
        <pitch>
          <step>F</step>
          <alter>1</alter>
          <octave>3</octave>
        </pitch>
        <duration>2</duration>
        <voice>1</voice>
        <type>quarter</type>
        <stem>down</stem>
      </note>
      <note default-x="138">
        <pitch>
          <step>G</step>
          <octave>3</octave>
        </pitch>
        <duration>2</duration>
        <voice>1</voice>
        <type>quarter</type>
        <stem>double</stem>
      </note>
      <note default-x="193">
        <pitch>
          <step>E</step>
          <octave>3</octave>
        </pitch>
        <duration>2</duration>
        <voice>1</voice>
        <type>quarter</type>
        <stem default-y="-46.5">down</stem>
      </note>
      <note default-x="193">
        <chord/>
        <pitch>
          <step>G</step>
          <octave>3</octave>
        </pitch>
        <duration>2</duration>
        <voice>1</voice>
        <type>quarter</type>
        <stem>down</stem>
      </note>
    </measure>
    <!--=======================================================-->
    <measure number="2" width="121">
      <note default-x="14">
        <pitch>
          <step>D</step>
          <octave>3</octave>
        </pitch>
        <duration>4</duration>
        <voice>1</voice>
        <type>half</type>
        <stem default-y="-51.5">down</stem>
      </note>
      <note default-x="14">
        <chord/>
        <pitch>
          <step>A</step>
          <octave>3</octave>
        </pitch>
        <duration>4</duration>
        <voice>1</voice>
        <type>half</type>
        <stem>down</stem>
      </note>
      <note default-x="77">
        <pitch>
          <step>D</step>
          <octave>3</octave>
        </pitch>
        <duration>4</duration>
        <voice>1</voice>
        <type>half</type>
        <stem default-y="-51.5">down</stem>
      </note>
      <note default-x="77">
        <chord/>
        <pitch>
          <step>F</step>
          <alter>1</alter>
          <octave>3</octave>
        </pitch>
        <duration>4</duration>
        <voice>1</voice>
        <type>half</type>
        <stem>down</stem>
      </note>
    </measure>
    <!--=======================================================-->
    <measure number="3" width="335">
      <note default-x="24">
        <pitch>
          <step>B</step>
          <octave>2</octave>
        </pitch>
        <duration>4</duration>
        <voice>1</voice>
        <type>half</type>
        <stem default-y="-56">down</stem>
      </note>
      <note default-x="24">
        <chord/>
        <pitch>
          <step>F</step>
          <alter>1</alter>
          <octave>3</octave>
        </pitch>
        <duration>4</duration>
        <voice>1</voice>
        <type>half</type>
        <stem>down</stem>
      </note>
      <note default-x="74">
        <pitch>
          <step>C</step>
          <alter>1</alter>
          <octave>3</octave>
        </pitch>
        <duration>2</duration>
        <voice>1</voice>
        <type>quarter</type>
        <stem default-y="-51">down</stem>
      </note>
      <note default-x="74">
        <chord/>
        <pitch>
          <step>A</step>
          <octave>3</octave>
        </pitch>
        <duration>2</duration>
        <voice>1</voice>
        <type>quarter</type>
        <stem>down</stem>
      </note>
      <note default-x="125">
        <pitch>
          <step>D</step>
          <octave>3</octave>
        </pitch>
        <duration>4</duration>
        <voice>1</voice>
        <type>half</type>
        <stem default-y="-51.5">down</stem>
        <notations>
          <slur bezier-x="10" bezier-y="5" default-x="137" default-y="169" number="1" placement="above" type="start"/>
          <slur bezier-x="9" bezier-y="15" default-x="137" default-y="11" number="2" placement="above" type="start"/>
        </notations>
      </note>
      <note default-x="125">
        <chord/>
        <pitch>
          <step>A</step>
          <octave>3</octave>
        </pitch>
        <duration>4</duration>
        <voice>1</voice>
        <type>half</type>
        <stem>down</stem>
      </note>
      <note default-x="179">
        <pitch>
          <step>A</step>
          <octave>2</octave>
        </pitch>
        <duration>2</duration>
        <voice>1</voice>
        <type>quarter</type>
        <stem default-y="-61">down</stem>
        <notations>
          <slur bezier-x="-8" bezier-y="8" default-x="133" default-y="162" number="1" type="stop"/>
          <slur bezier-x="-9" bezier-y="15" default-x="137" default-y="11" number="2" type="stop"/>
        </notations>
      </note>
      <note default-x="179">
        <chord/>
        <pitch>
          <step>A</step>
          <octave>3</octave>
        </pitch>
        <duration>2</duration>
        <voice>1</voice>
        <type>quarter</type>
        <stem>down</stem>
      </note>
    </measure>
    <!--=======================================================-->
    <measure number="4" width="848">
      <print new-system="yes">
        <staff-layout number="1">
          <staff-distance>137</staff-distance>
        </staff-layout>
      </print>
      <note default-x="760">
        <pitch>
          <step>E</step>
          <octave>3</octave>
        </pitch>
        <duration>4</duration>
        <voice>1</voice>
        <type>half</type>
        <stem default-y="-46.5">down</stem>
      </note>
      <backup>
        <duration>4</duration>
      </backup>
      <note default-x="760">
        <pitch>
          <step>A</step>
          <octave>3</octave>
        </pitch>
        <duration>2</duration>
        <voice>2</voice>
        <type>quarter</type>
        <stem default-y="22">up</stem>
      </note>
      <note default-x="795">
        <pitch>
          <step>G</step>
          <alter>1</alter>
          <octave>3</octave>
        </pitch>
        <duration>2</duration>
        <voice>2</voice>
        <type>quarter</type>
        <accidental>sharp</accidental>
        <stem default-y="18">up</stem>
      </note>
      <note default-x="823">
        <pitch>
          <step>A</step>
          <octave>2</octave>
        </pitch>
        <duration>4</duration>
        <voice>1</voice>
        <type>half</type>
        <stem default-y="-61">down</stem>
      </note>
      <note default-x="823">
        <chord/>
        <pitch>
          <step>A</step>
          <octave>3</octave>
        </pitch>
        <duration>4</duration>
        <voice>1</voice>
        <type>half</type>
        <stem>down</stem>
      </note>
      <note default-x="78">
        <pitch>
          <step>D</step>
          <octave>3</octave>
        </pitch>
        <duration>4</duration>
        <voice>1</voice>
        <type>half</type>
        <stem default-y="-326.5">down</stem>
      </note>
      <note default-x="78">
        <chord/>
        <pitch>
          <step>F</step>
          <alter>1</alter>
          <octave>3</octave>
        </pitch>
        <duration>4</duration>
        <voice>1</voice>
        <type>half</type>
        <stem>down</stem>
      </note>
    </measure>
    <!--=======================================================-->
    <measure number="5">
      <note default-x="-714">
        <pitch>
          <step>C</step>
          <alter>1</alter>
          <octave>3</octave>
        </pitch>
        <duration>2</duration>
        <voice>1</voice>
        <type>quarter</type>
        <stem default-y="-51">down</stem>
      </note>
      <note default-x="-714">
        <chord/>
        <pitch>
          <step>A</step>
          <octave>3</octave>
        </pitch>
        <duration>2</duration>
        <voice>1</voice>
        <type>quarter</type>
        <stem>down</stem>
      </note>
      <note default-x="-663">
        <pitch>
          <step>D</step>
          <octave>3</octave>
        </pitch>
        <duration>2</duration>
        <voice>1</voice>
        <type>quarter</type>
        <stem default-y="-51.5">down</stem>
      </note>
      <note default-x="-663">
        <chord/>
        <pitch>
          <step>F</step>
          <alter>1</alter>
          <octave>3</octave>
        </pitch>
        <duration>2</duration>
        <voice>1</voice>
        <type>quarter</type>
        <stem>down</stem>
      </note>
      <note default-x="-608">
        <pitch>
          <step>G</step>
          <octave>3</octave>
        </pitch>
        <duration>2</duration>
        <voice>1</voice>
        <type>quarter</type>
        <stem>double</stem>
      </note>
      <note default-x="-554">
        <pitch>
          <step>E</step>
          <octave>3</octave>
        </pitch>
        <duration>2</duration>
        <voice>1</voice>
        <type>quarter</type>
        <stem default-y="-46.5">down</stem>
      </note>
      <note default-x="-554">
        <chord/>
        <pitch>
          <step>G</step>
          <octave>3</octave>
        </pitch>
        <duration>2</duration>
        <voice>1</voice>
        <type>quarter</type>
        <stem>down</stem>
      </note>
    </measure>
    <!--=======================================================-->
    <measure number="6">
      <note>
        <pitch>
          <step>D</step>
          <octave>3</octave>
        </pitch>
        <duration>4</duration>
        <voice>1</voice>
        <type>half</type>
        <stem default-y="-51.5">down</stem>
      </note>
      <note>
        <chord/>
        <pitch>
          <step>A</step>
          <octave>3</octave>
        </pitch>
        <duration>4</duration>
        <voice>1</voice>
        <type>half</type>
        <stem>down</stem>
      </note>
      <note>
        <pitch>
          <step>D</step>
          <octave>3</octave>
        </pitch>
        <duration>4</duration>
        <voice>1</voice>
        <type>half</type>
        <stem default-y="-51.5">down</stem>
      </note>
      <note>
        <chord/>
        <pitch>
          <step>F</step>
          <alter>1</alter>
          <octave>3</octave>
        </pitch>
        <duration>4</duration>
        <voice>1</voice>
        <type>half</type>
        <stem>down</stem>
      </note>
    </measure>
    <!--=======================================================-->
    <measure number="7">
      <note>
        <pitch>
          <step>B</step>
          <octave>2</octave>
        </pitch>
        <duration>4</duration>
        <voice>1</voice>
        <type>half</type>
        <stem default-y="-56">down</stem>
      </note>
      <note>
        <chord/>
        <pitch>
          <step>F</step>
          <alter>1</alter>
          <octave>3</octave>
        </pitch>
        <duration>4</duration>
        <voice>1</voice>
        <type>half</type>
        <stem>down</stem>
      </note>
      <note>
        <pitch>
          <step>C</step>
          <alter>1</alter>
          <octave>3</octave>
        </pitch>
        <duration>2</duration>
        <voice>1</voice>
        <type>quarter</type>
        <stem default-y="-51">down</stem>
      </note>
      <note>
        <chord/>
        <pitch>
          <step>A</step>
          <octave>3</octave>
        </pitch>
        <duration>2</duration>
        <voice>1</voice>
        <type>quarter</type>
        <stem>down</stem>
      </note>
      <note>
        <pitch>
          <step>D</step>
          <octave>3</octave>
        </pitch>
        <duration>4</duration>
        <voice>1</voice>
        <type>half</type>
        <stem default-y="-51.5">down</stem>
        <notations>
          <slur bezier-x="11" bezier-y="6" default-x="143" default-y="167" number="1" placement="above" type="start"/>
          <slur bezier-x="12" bezier-y="12" default-x="147" default-y="16" number="2" placement="above" type="start"/>
        </notations>
      </note>
      <note>
        <chord/>
        <pitch>
          <step>A</step>
          <octave>3</octave>
        </pitch>
        <duration>4</duration>
        <voice>1</voice>
        <type>half</type>
        <stem>down</stem>
      </note>
      <note>
        <pitch>
          <step>A</step>
          <octave>2</octave>
        </pitch>
        <duration>2</duration>
        <voice>1</voice>
        <type>quarter</type>
        <stem default-y="-61">down</stem>
        <notations>
          <slur bezier-x="-10" bezier-y="8" default-x="143" default-y="159" number="1" type="stop"/>
          <slur bezier-x="-9" bezier-y="13" default-x="148" default-y="12" number="2" type="stop"/>
        </notations>
      </note>
      <note>
        <chord/>
        <pitch>
          <step>A</step>
          <octave>3</octave>
        </pitch>
        <duration>2</duration>
        <voice>1</voice>
        <type>quarter</type>
        <stem>down</stem>
      </note>
    </measure>
    <!--=======================================================-->
    <measure number="8" width="847">
      <print new-system="yes">
        <staff-layout number="1">
          <staff-distance>141</staff-distance>
        </staff-layout>
      </print>
      <note default-x="738">
        <pitch>
          <step>E</step>
          <octave>3</octave>
        </pitch>
        <duration>4</duration>
        <voice>1</voice>
        <type>half</type>
        <stem default-y="-46.5">down</stem>
      </note>
      <backup>
        <duration>4</duration>
      </backup>
      <note default-x="738">
        <pitch>
          <step>A</step>
          <octave>3</octave>
        </pitch>
        <duration>2</duration>
        <voice>2</voice>
        <type>quarter</type>
        <stem default-y="22">up</stem>
      </note>
      <note default-x="777">
        <pitch>
          <step>G</step>
          <alter>1</alter>
          <octave>3</octave>
        </pitch>
        <duration>2</duration>
        <voice>2</voice>
        <type>quarter</type>
        <accidental>sharp</accidental>
        <stem default-y="18">up</stem>
      </note>
      <note default-x="809">
        <pitch>
          <step>A</step>
          <octave>2</octave>
        </pitch>
        <duration>4</duration>
        <voice>1</voice>
        <type>half</type>
        <stem default-y="-61">down</stem>
      </note>
      <note default-x="809">
        <chord/>
        <pitch>
          <step>A</step>
          <octave>3</octave>
        </pitch>
        <duration>4</duration>
        <voice>1</voice>
        <type>half</type>
        <stem>down</stem>
      </note>
      <note default-x="92">
        <pitch>
          <step>F</step>
          <alter>1</alter>
          <octave>2</octave>
        </pitch>
        <duration>4</duration>
        <voice>1</voice>
        <type>half</type>
        <stem default-y="-253">up</stem>
      </note>
      <note default-x="92">
        <chord/>
        <pitch>
          <step>A</step>
          <octave>3</octave>
        </pitch>
        <duration>4</duration>
        <voice>1</voice>
        <type>half</type>
        <stem>up</stem>
      </note>
    </measure>
    <!--=======================================================-->
    <measure number="9">
      <note default-x="-681">
        <pitch>
          <step>F</step>
          <alter>1</alter>
          <octave>2</octave>
        </pitch>
        <duration>3</duration>
        <voice>1</voice>
        <type>quarter</type>
        <dot/>
        <stem default-y="26.5">up</stem>
      </note>
      <note default-x="-681">
        <chord/>
        <pitch>
          <step>A</step>
          <octave>3</octave>
        </pitch>
        <duration>3</duration>
        <voice>1</voice>
        <type>quarter</type>
        <dot/>
        <stem>up</stem>
      </note>
      <note default-x="-623">
        <pitch>
          <step>A</step>
          <octave>2</octave>
        </pitch>
        <duration>1</duration>
        <voice>1</voice>
        <type>eighth</type>
        <stem default-y="-66">down</stem>
      </note>
      <note default-x="-623">
        <chord/>
        <pitch>
          <step>A</step>
          <octave>3</octave>
        </pitch>
        <duration>1</duration>
        <voice>1</voice>
        <type>eighth</type>
        <stem>down</stem>
      </note>
      <note default-x="-564">
        <pitch>
          <step>B</step>
          <octave>2</octave>
        </pitch>
        <duration>2</duration>
        <voice>1</voice>
        <type>quarter</type>
        <stem default-y="-56">down</stem>
      </note>
      <note default-x="-564">
        <chord/>
        <pitch>
          <step>F</step>
          <alter>1</alter>
          <octave>3</octave>
        </pitch>
        <duration>2</duration>
        <voice>1</voice>
        <type>quarter</type>
        <stem>down</stem>
      </note>
      <note default-x="-514">
        <pitch>
          <step>C</step>
          <alter>1</alter>
          <octave>3</octave>
        </pitch>
        <duration>2</duration>
        <voice>1</voice>
        <type>quarter</type>
        <stem default-y="-51">down</stem>
      </note>
      <note default-x="-514">
        <chord/>
        <pitch>
          <step>A</step>
          <octave>3</octave>
        </pitch>
        <duration>2</duration>
        <voice>1</voice>
        <type>quarter</type>
        <stem>down</stem>
      </note>
    </measure>
    <!--=======================================================-->
    <measure number="10">
      <note>
        <pitch>
          <step>D</step>
          <octave>3</octave>
        </pitch>
        <duration>4</duration>
        <voice>1</voice>
        <type>half</type>
        <stem default-y="-51">down</stem>
      </note>
      <note>
        <chord/>
        <pitch>
          <step>A</step>
          <octave>3</octave>
        </pitch>
        <duration>4</duration>
        <voice>1</voice>
        <type>half</type>
        <stem>down</stem>
      </note>
      <note>
        <pitch>
          <step>D</step>
          <octave>3</octave>
        </pitch>
        <duration>4</duration>
        <voice>1</voice>
        <type>half</type>
        <stem default-y="-51">down</stem>
      </note>
      <note>
        <chord/>
        <pitch>
          <step>F</step>
          <alter>1</alter>
          <octave>3</octave>
        </pitch>
        <duration>4</duration>
        <voice>1</voice>
        <type>half</type>
        <stem>down</stem>
      </note>
      <note>
        <rest/>
        <duration>2</duration>
        <voice>1</voice>
        <type>quarter</type>
      </note>
      <note>
        <pitch>
          <step>D</step>
          <octave>3</octave>
        </pitch>
        <duration>2</duration>
        <voice>1</voice>
        <type>quarter</type>
        <stem default-y="-51">down</stem>
      </note>
      <note>
        <chord/>
        <pitch>
          <step>F</step>
          <alter>1</alter>
          <octave>3</octave>
        </pitch>
        <duration>2</duration>
        <voice>1</voice>
        <type>quarter</type>
        <stem>down</stem>
      </note>
    </measure>
    <!--=======================================================-->
    <measure number="11">
      <note>
        <pitch>
          <step>F</step>
          <alter>1</alter>
          <octave>3</octave>
        </pitch>
        <duration>3</duration>
        <voice>1</voice>
        <type>quarter</type>
        <dot/>
        <stem default-y="-41">down</stem>
      </note>
      <note>
        <chord/>
        <pitch>
          <step>A</step>
          <octave>3</octave>
        </pitch>
        <duration>3</duration>
        <voice>1</voice>
        <type>quarter</type>
        <dot/>
        <stem>down</stem>
      </note>
      <note>
        <pitch>
          <step>G</step>
          <octave>3</octave>
        </pitch>
        <duration>1</duration>
        <voice>1</voice>
        <type>eighth</type>
        <stem>double</stem>
      </note>
      <note>
        <pitch>
          <step>E</step>
          <octave>3</octave>
        </pitch>
        <duration>2</duration>
        <voice>1</voice>
        <type>quarter</type>
        <stem default-y="-46">down</stem>
        <notations>
          <slur bezier-x="8" bezier-y="14" default-x="117" default-y="13" number="1" placement="above" type="start"/>
          <slur bezier-x="8" bezier-y="5" default-x="117" default-y="172" number="2" placement="above" type="start"/>
        </notations>
      </note>
      <note>
        <chord/>
        <pitch>
          <step>G</step>
          <octave>3</octave>
        </pitch>
        <duration>2</duration>
        <voice>1</voice>
        <type>quarter</type>
        <stem>down</stem>
      </note>
      <note>
        <pitch>
          <step>D</step>
          <octave>3</octave>
        </pitch>
        <duration>2</duration>
        <voice>1</voice>
        <type>quarter</type>
        <stem default-y="-51">down</stem>
        <notations>
          <slur bezier-x="-7" bezier-y="15" default-x="114" default-y="11" number="1" type="stop"/>
          <slur bezier-x="-7" bezier-y="7" default-x="110" default-y="166" number="2" type="stop"/>
        </notations>
      </note>
      <note>
        <chord/>
        <pitch>
          <step>A</step>
          <octave>3</octave>
        </pitch>
        <duration>2</duration>
        <voice>1</voice>
        <type>quarter</type>
        <stem>down</stem>
      </note>
    </measure>
    <!--=======================================================-->
    <measure number="12" width="847">
      <print new-system="yes">
        <staff-layout number="1">
          <staff-distance>137</staff-distance>
        </staff-layout>
      </print>
      <note default-x="762">
        <pitch>
          <step>E</step>
          <octave>3</octave>
        </pitch>
        <duration>4</duration>
        <voice>1</voice>
        <type>half</type>
        <stem default-y="-46">down</stem>
      </note>
      <backup>
        <duration>4</duration>
      </backup>
      <note default-x="762">
        <pitch>
          <step>A</step>
          <octave>3</octave>
        </pitch>
        <duration>2</duration>
        <voice>2</voice>
        <type>quarter</type>
        <stem default-y="22">up</stem>
      </note>
      <note default-x="790">
        <pitch>
          <step>G</step>
          <alter>1</alter>
          <octave>3</octave>
        </pitch>
        <duration>2</duration>
        <voice>2</voice>
        <type>quarter</type>
        <accidental>sharp</accidental>
        <stem default-y="19">up</stem>
      </note>
      <note default-x="817">
        <pitch>
          <step>A</step>
          <octave>2</octave>
        </pitch>
        <duration>4</duration>
        <voice>1</voice>
        <type>half</type>
        <stem default-y="-61">down</stem>
      </note>
      <note default-x="817">
        <chord/>
        <pitch>
          <step>A</step>
          <octave>3</octave>
        </pitch>
        <duration>4</duration>
        <voice>1</voice>
        <type>half</type>
        <stem>down</stem>
      </note>
      <note default-x="72">
        <rest/>
        <duration>2</duration>
        <voice>1</voice>
        <type>quarter</type>
      </note>
      <note default-x="103">
        <pitch>
          <step>F</step>
          <alter>1</alter>
          <octave>2</octave>
        </pitch>
        <duration>2</duration>
        <voice>1</voice>
        <type>quarter</type>
        <stem default-y="-253">up</stem>
      </note>
      <note default-x="103">
        <chord/>
        <pitch>
          <step>A</step>
          <octave>3</octave>
        </pitch>
        <duration>2</duration>
        <voice>1</voice>
        <type>quarter</type>
        <stem>up</stem>
      </note>
    </measure>
    <!--=======================================================-->
    <measure number="13">
      <note default-x="-677">
        <pitch>
          <step>F</step>
          <alter>1</alter>
          <octave>2</octave>
        </pitch>
        <duration>3</duration>
        <voice>1</voice>
        <type>quarter</type>
        <dot/>
        <stem default-y="23">up</stem>
      </note>
      <note default-x="-677">
        <chord/>
        <pitch>
          <step>A</step>
          <octave>3</octave>
        </pitch>
        <duration>3</duration>
        <voice>1</voice>
        <type>quarter</type>
        <dot/>
        <stem>up</stem>
      </note>
      <note default-x="-620">
        <pitch>
          <step>A</step>
          <octave>2</octave>
        </pitch>
        <duration>1</duration>
        <voice>1</voice>
        <type>eighth</type>
        <stem default-y="-66">down</stem>
      </note>
      <note default-x="-620">
        <chord/>
        <pitch>
          <step>A</step>
          <octave>3</octave>
        </pitch>
        <duration>1</duration>
        <voice>1</voice>
        <type>eighth</type>
        <stem>down</stem>
      </note>
      <note default-x="-567">
        <pitch>
          <step>B</step>
          <octave>2</octave>
        </pitch>
        <duration>2</duration>
        <voice>1</voice>
        <type>quarter</type>
        <stem default-y="-56">down</stem>
      </note>
      <note default-x="-567">
        <chord/>
        <pitch>
          <step>F</step>
          <alter>1</alter>
          <octave>3</octave>
        </pitch>
        <duration>2</duration>
        <voice>1</voice>
        <type>quarter</type>
        <stem>down</stem>
      </note>
      <note default-x="-520">
        <pitch>
          <step>C</step>
          <alter>1</alter>
          <octave>3</octave>
        </pitch>
        <duration>2</duration>
        <voice>1</voice>
        <type>quarter</type>
        <stem default-y="-51">down</stem>
      </note>
      <note default-x="-520">
        <chord/>
        <pitch>
          <step>A</step>
          <octave>3</octave>
        </pitch>
        <duration>2</duration>
        <voice>1</voice>
        <type>quarter</type>
        <stem>down</stem>
      </note>
    </measure>
    <!--=======================================================-->
    <measure number="14">
      <note>
        <pitch>
          <step>D</step>
          <octave>3</octave>
        </pitch>
        <duration>4</duration>
        <voice>1</voice>
        <type>half</type>
        <stem default-y="-51">down</stem>
      </note>
      <note>
        <chord/>
        <pitch>
          <step>A</step>
          <octave>3</octave>
        </pitch>
        <duration>4</duration>
        <voice>1</voice>
        <type>half</type>
        <stem>down</stem>
      </note>
      <note>
        <pitch>
          <step>D</step>
          <octave>3</octave>
        </pitch>
        <duration>4</duration>
        <voice>1</voice>
        <type>half</type>
        <stem default-y="-51">down</stem>
      </note>
      <note>
        <chord/>
        <pitch>
          <step>F</step>
          <alter>1</alter>
          <octave>3</octave>
        </pitch>
        <duration>4</duration>
        <voice>1</voice>
        <type>half</type>
        <stem>down</stem>
      </note>
    </measure>
    <!--=======================================================-->
    <measure number="15">
      <note>
        <pitch>
          <step>F</step>
          <alter>1</alter>
          <octave>2</octave>
        </pitch>
        <duration>4</duration>
        <voice>1</voice>
        <type>half</type>
        <stem default-y="23">up</stem>
      </note>
      <note>
        <chord/>
        <pitch>
          <step>A</step>
          <octave>3</octave>
        </pitch>
        <duration>4</duration>
        <voice>1</voice>
        <type>half</type>
        <stem>up</stem>
      </note>
      <note>
        <pitch>
          <step>G</step>
          <octave>2</octave>
        </pitch>
        <duration>2</duration>
        <voice>1</voice>
        <type>quarter</type>
        <stem default-y="21.5">up</stem>
      </note>
      <note>
        <chord/>
        <pitch>
          <step>G</step>
          <octave>3</octave>
        </pitch>
        <duration>2</duration>
        <voice>1</voice>
        <type>quarter</type>
        <stem>up</stem>
      </note>
      <note>
        <pitch>
          <step>A</step>
          <octave>2</octave>
        </pitch>
        <duration>3</duration>
        <voice>1</voice>
        <type>quarter</type>
        <dot/>
        <stem default-y="11.5">up</stem>
      </note>
      <note>
        <chord/>
        <pitch>
          <step>E</step>
          <octave>3</octave>
        </pitch>
        <duration>3</duration>
        <voice>1</voice>
        <type>quarter</type>
        <dot/>
        <stem>up</stem>
      </note>
      <note>
        <pitch>
          <step>B</step>
          <octave>2</octave>
        </pitch>
        <duration>1</duration>
        <voice>1</voice>
        <type>eighth</type>
        <stem default-y="-61">down</stem>
      </note>
      <note>
        <chord/>
        <pitch>
          <step>B</step>
          <octave>3</octave>
        </pitch>
        <duration>1</duration>
        <voice>1</voice>
        <type>eighth</type>
        <stem>down</stem>
      </note>
      <note>
        <pitch>
          <step>G</step>
          <octave>2</octave>
        </pitch>
        <duration>2</duration>
        <voice>1</voice>
        <type>quarter</type>
        <stem default-y="-66">down</stem>
      </note>
      <note>
        <chord/>
        <pitch>
          <step>B</step>
          <octave>3</octave>
        </pitch>
        <duration>2</duration>
        <voice>1</voice>
        <type>quarter</type>
        <stem>down</stem>
      </note>
    </measure>
    <!--=======================================================-->
    <measure number="16">
      <note>
        <pitch>
          <step>A</step>
          <octave>2</octave>
        </pitch>
        <duration>4</duration>
        <voice>1</voice>
        <type>half</type>
        <stem default-y="-61">down</stem>
        <notations>
          <slur default-y="-49" number="1" placement="below" relative-x="8" type="start"/>
          <slur default-y="10" number="2" placement="above" relative-x="15" type="start"/>
        </notations>
      </note>
      <note>
        <chord/>
        <pitch>
          <step>A</step>
          <octave>3</octave>
        </pitch>
        <duration>4</duration>
        <voice>1</voice>
        <type>half</type>
        <stem>down</stem>
      </note>
      <note>
        <pitch>
          <step>D</step>
          <octave>3</octave>
        </pitch>
        <duration>4</duration>
        <voice>1</voice>
        <type>half</type>
        <stem default-y="-51">down</stem>
        <notations>
          <slur default-y="-37" number="1" type="stop"/>
          <slur default-y="3" number="2" type="stop"/>
        </notations>
      </note>
      <note>
        <chord/>
        <pitch>
          <step>F</step>
          <alter>1</alter>
          <octave>3</octave>
        </pitch>
        <duration>4</duration>
        <voice>1</voice>
        <type>half</type>
        <stem>down</stem>
      </note>
      <barline location="right">
        <bar-style>light-heavy</bar-style>
      </barline>
    </measure>
  </part>
  <!--=========================================================-->
</score-partwise>
