<?xml version="1.0" encoding="UTF-8" standalone="no"?>
<!DOCTYPE score-partwise PUBLIC "-//Recordare//DTD MusicXML 3.1 Partwise//EN" "http://www.musicxml.org/dtds/partwise.dtd">
<score-partwise version="3.1">
  <identification>
    <encoding>
      <software>Finale v25 for Windows</software>
      <encoding-date>2020-07-08</encoding-date>
      <supports attribute="new-system" element="print" type="yes" value="yes"/>
      <supports attribute="new-page" element="print" type="yes" value="yes"/>
      <supports element="accidental" type="yes"/>
      <supports element="beam" type="yes"/>
      <supports element="stem" type="yes"/>
    </encoding>
  </identification>
  <defaults>
    <scaling>
      <millimeters>6.35</millimeters>
      <tenths>40</tenths>
    </scaling>
    <page-layout>
      <page-height>1380</page-height>
      <page-width>852</page-width>
      <page-margins type="both">
        <left-margin>0</left-margin>
        <right-margin>0</right-margin>
        <top-margin>0</top-margin>
        <bottom-margin>378</bottom-margin>
      </page-margins>
    </page-layout>
    <system-layout>
      <system-margins>
        <left-margin>5</left-margin>
        <right-margin>0</right-margin>
      </system-margins>
      <system-distance>44</system-distance>
      <top-system-distance>44</top-system-distance>
    </system-layout>
    <staff-layout>
      <staff-distance>191</staff-distance>
    </staff-layout>
    <appearance>
      <line-width type="stem">0.8333</line-width>
      <line-width type="beam">4.1667</line-width>
      <line-width type="staff">0.7096</line-width>
      <line-width type="light barline">0.8333</line-width>
      <line-width type="heavy barline">5</line-width>
      <line-width type="leger">0.7292</line-width>
      <line-width type="ending">0.7682</line-width>
      <line-width type="wedge">0.8333</line-width>
      <line-width type="enclosure">0.8333</line-width>
      <line-width type="tuplet bracket">0.7292</line-width>
      <note-size type="grace">55</note-size>
      <note-size type="cue">55</note-size>
      <distance type="hyphen">83</distance>
      <distance type="beam">8</distance>
    </appearance>
    <music-font font-family="Petrucci2" font-size="18"/>
    <word-font font-family="Palatino Linotype" font-size="9"/>
    <lyric-font font-family="Palatino Linotype" font-size="9"/>
  </defaults>
  <credit page="1">
    <credit-words default-x="852" default-y="378" font-size="7.5" justify="right" valign="bottom">8 8. 8 8.</credit-words>
  </credit>
  <credit page="1">
    <credit-words default-y="378" font-size="7.5" valign="bottom">Music: Gregory D. Wilbur, 2014 </credit-words>
    <credit-words font-size="6" xml:space="preserve">© 
</credit-words>
    <credit-words font-size="7.5">Text: Douglas Bond, 2007 </credit-words>
    <credit-words font-size="6">© </credit-words>
  </credit>
  <part-list>
    <part-group number="1" type="start">
      <group-symbol default-x="-2">line</group-symbol>
      <group-barline>no</group-barline>
    </part-group>
    <score-part id="P1">
      <part-name print-object="no">MusicXML Part</part-name>
      <score-instrument id="P1-I2">
        <instrument-name>Instr. 1</instrument-name>
      </score-instrument>
      <midi-instrument id="P1-I2">
        <midi-channel>1</midi-channel>
        <midi-program>1</midi-program>
        <volume>80</volume>
        <pan>0</pan>
      </midi-instrument>
    </score-part>
    <score-part id="P2">
      <part-name print-object="no">MusicXML Part</part-name>
      <score-instrument id="P2-I3">
        <instrument-name>Instr. 3</instrument-name>
      </score-instrument>
      <midi-instrument id="P2-I3">
        <midi-channel>3</midi-channel>
        <midi-program>1</midi-program>
        <volume>80</volume>
        <pan>0</pan>
      </midi-instrument>
    </score-part>
    <part-group number="1" type="stop"/>
  </part-list>
  <!--=========================================================-->
  <part id="P1">
    <measure implicit="yes" number="0" width="124">
      <print>
        <system-layout>
          <top-system-distance>58</top-system-distance>
        </system-layout>
        <measure-numbering>system</measure-numbering>
      </print>
      <attributes>
        <divisions>2</divisions>
        <key>
          <fifths>0</fifths>
          <mode>major</mode>
        </key>
        <time>
          <beats>4</beats>
          <beat-type>4</beat-type>
        </time>
        <clef>
          <sign>G</sign>
          <line>2</line>
        </clef>
      </attributes>
      <sound tempo="100"/>
      <note default-x="70">
        <pitch>
          <step>D</step>
          <octave>4</octave>
        </pitch>
        <duration>2</duration>
        <instrument id="P1-I2"/>
        <voice>1</voice>
        <type>quarter</type>
        <stem>double</stem>
        <lyric default-y="-89" number="1">
          <syllabic>single</syllabic>
          <text>1.</text>
          <elision> </elision>
          <syllabic>single</syllabic>
          <text>If</text>
        </lyric>
        <lyric default-y="-110" number="2">
          <syllabic>single</syllabic>
          <text>2.</text>
          <elision> </elision>
          <syllabic>single</syllabic>
          <text>I’m</text>
        </lyric>
        <lyric default-y="-130" number="3">
          <syllabic>single</syllabic>
          <text font-size="8.25" font-style="italic" font-weight="bold">3.</text>
          <elision> </elision>
          <syllabic>single</syllabic>
          <text font-size="8.25" font-style="italic" font-weight="bold">His</text>
        </lyric>
        <lyric default-y="-151" number="4">
          <syllabic>single</syllabic>
          <text font-size="8.25" font-style="italic" font-weight="bold">4.</text>
          <elision> </elision>
          <syllabic>single</syllabic>
          <text font-size="8.25" font-style="italic" font-weight="bold">In</text>
        </lyric>
        <lyric default-y="-172" number="5">
          <syllabic>single</syllabic>
          <text>5.</text>
          <elision> </elision>
          <syllabic>single</syllabic>
          <text>I</text>
        </lyric>
        <lyric default-y="-193" number="6">
          <syllabic>single</syllabic>
          <text>6.</text>
          <elision> </elision>
          <syllabic>begin</syllabic>
          <text>A</text>
        </lyric>
      </note>
    </measure>
    <!--=======================================================-->
    <measure number="1" width="251">
      <note default-x="20">
        <pitch>
          <step>D</step>
          <octave>4</octave>
        </pitch>
        <duration>2</duration>
        <instrument id="P1-I2"/>
        <voice>1</voice>
        <type>quarter</type>
        <stem>double</stem>
        <lyric default-y="-89" number="1">
          <syllabic>single</syllabic>
          <text>I</text>
        </lyric>
        <lyric default-y="-110" number="2">
          <syllabic>begin</syllabic>
          <text>no</text>
        </lyric>
        <lyric default-y="-130" number="3">
          <syllabic>begin</syllabic>
          <text font-size="8.25" font-style="italic" font-weight="bold">Heav’n</text>
        </lyric>
        <lyric default-y="-151" number="4">
          <syllabic>single</syllabic>
          <text font-size="8.25" font-style="italic" font-weight="bold">faith</text>
        </lyric>
        <lyric default-y="-172" number="5">
          <syllabic>single</syllabic>
          <text>see</text>
        </lyric>
        <lyric default-y="-193" number="6">
          <syllabic>end</syllabic>
          <text>bove</text>
        </lyric>
      </note>
      <note default-x="77">
        <pitch>
          <step>F</step>
          <octave>4</octave>
        </pitch>
        <duration>2</duration>
        <instrument id="P1-I2"/>
        <voice>1</voice>
        <type>quarter</type>
        <stem default-y="7">up</stem>
        <lyric default-y="-89" number="1">
          <syllabic>single</syllabic>
          <text>can</text>
        </lyric>
        <lyric default-y="-110" number="2">
          <syllabic>end</syllabic>
          <text>thing</text>
        </lyric>
        <lyric default-y="-130" number="3">
          <syllabic>end</syllabic>
          <text font-size="8.25" font-style="italic" font-weight="bold">ly</text>
        </lyric>
        <lyric default-y="-151" number="4">
          <syllabic>single</syllabic>
          <text font-size="8.25" font-style="italic" font-weight="bold">and</text>
        </lyric>
        <lyric default-y="-172" number="5">
          <syllabic>single</syllabic>
          <text>in</text>
        </lyric>
        <lyric default-y="-193" number="6">
          <syllabic>single</syllabic>
          <text>I’ll</text>
        </lyric>
      </note>
      <note default-x="77">
        <chord/>
        <pitch>
          <step>A</step>
          <octave>4</octave>
        </pitch>
        <duration>2</duration>
        <instrument id="P1-I2"/>
        <voice>1</voice>
        <type>quarter</type>
        <stem>up</stem>
      </note>
      <note default-x="135">
        <pitch>
          <step>F</step>
          <octave>4</octave>
        </pitch>
        <duration>2</duration>
        <instrument id="P1-I2"/>
        <voice>1</voice>
        <type>quarter</type>
        <stem default-y="7">up</stem>
        <lyric default-y="-89" number="1">
          <syllabic>single</syllabic>
          <text>speak</text>
        </lyric>
        <lyric default-y="-110" number="2">
          <syllabic>single</syllabic>
          <text>if</text>
        </lyric>
        <lyric default-y="-130" number="3">
          <syllabic>single</syllabic>
          <text font-size="8.25" font-style="italic" font-weight="bold">gifts</text>
        </lyric>
        <lyric default-y="-151" number="4">
          <syllabic>single</syllabic>
          <text font-size="8.25" font-style="italic" font-weight="bold">hope,</text>
        </lyric>
        <lyric default-y="-172" number="5">
          <syllabic>single</syllabic>
          <text>part</text>
        </lyric>
        <lyric default-y="-193" number="6">
          <syllabic>single</syllabic>
          <text>know,</text>
        </lyric>
      </note>
      <note default-x="135">
        <chord/>
        <pitch>
          <step>A</step>
          <octave>4</octave>
        </pitch>
        <duration>2</duration>
        <instrument id="P1-I2"/>
        <voice>1</voice>
        <type>quarter</type>
        <stem>up</stem>
      </note>
      <note default-x="192">
        <pitch>
          <step>E</step>
          <octave>4</octave>
        </pitch>
        <duration>2</duration>
        <instrument id="P1-I2"/>
        <voice>1</voice>
        <type>quarter</type>
        <stem default-y="2">up</stem>
        <lyric default-y="-89" number="1">
          <syllabic>single</syllabic>
          <text>in</text>
        </lyric>
        <lyric default-y="-110" number="2">
          <syllabic>single</syllabic>
          <text>I</text>
        </lyric>
        <lyric default-y="-130" number="3">
          <syllabic>single</syllabic>
          <text font-size="8.25" font-style="italic" font-weight="bold">God</text>
        </lyric>
        <lyric default-y="-151" number="4">
          <syllabic>single</syllabic>
          <text font-size="8.25" font-style="italic" font-weight="bold">love</text>
        </lyric>
        <lyric default-y="-172" number="5">
          <syllabic>single</syllabic>
          <text>like</text>
        </lyric>
        <lyric default-y="-193" number="6">
          <syllabic>single</syllabic>
          <text>as</text>
        </lyric>
      </note>
      <note default-x="192">
        <chord/>
        <pitch>
          <step>G</step>
          <octave>4</octave>
        </pitch>
        <duration>2</duration>
        <instrument id="P1-I2"/>
        <voice>1</voice>
        <type>quarter</type>
        <stem>up</stem>
      </note>
    </measure>
    <!--=======================================================-->
    <measure number="2" width="161">
      <attributes>
        <time>
          <beats>2</beats>
          <beat-type>4</beat-type>
        </time>
      </attributes>
      <note default-x="41">
        <pitch>
          <step>G</step>
          <octave>4</octave>
        </pitch>
        <duration>2</duration>
        <instrument id="P1-I2"/>
        <voice>1</voice>
        <type>quarter</type>
        <stem default-y="12">up</stem>
        <lyric default-y="-89" number="1">
          <syllabic>single</syllabic>
          <text>tongues</text>
        </lyric>
        <lyric default-y="-110" number="2">
          <syllabic>single</syllabic>
          <text>try</text>
        </lyric>
        <lyric default-y="-130" number="3">
          <syllabic>single</syllabic>
          <text font-size="8.25" font-style="italic" font-weight="bold">gives</text>
        </lyric>
        <lyric default-y="-151" number="4">
          <syllabic>begin</syllabic>
          <text font-size="8.25" font-style="italic" font-weight="bold">per</text>
        </lyric>
        <lyric default-y="-172" number="5">
          <syllabic>begin</syllabic>
          <text>chil</text>
        </lyric>
        <lyric default-y="-193" number="6">
          <syllabic>single</syllabic>
          <text>Christ</text>
        </lyric>
      </note>
      <note default-x="41">
        <chord/>
        <pitch>
          <step>B</step>
          <octave>4</octave>
        </pitch>
        <duration>2</duration>
        <instrument id="P1-I2"/>
        <voice>1</voice>
        <type>quarter</type>
        <stem>up</stem>
      </note>
      <note default-x="105">
        <pitch>
          <step>D</step>
          <octave>4</octave>
        </pitch>
        <duration>2</duration>
        <instrument id="P1-I2"/>
        <voice>1</voice>
        <type>quarter</type>
        <stem default-y="7">up</stem>
        <lyric default-y="-89" number="1">
          <syllabic>single</syllabic>
          <text>of</text>
        </lyric>
        <lyric default-y="-110" number="2">
          <syllabic>single</syllabic>
          <text>to</text>
        </lyric>
        <lyric default-y="-130" number="3">
          <syllabic>single</syllabic>
          <text font-size="8.25" font-style="italic" font-weight="bold">to</text>
        </lyric>
        <lyric default-y="-151" number="4">
          <syllabic>middle</syllabic>
          <text font-size="8.25" font-style="italic" font-weight="bold">se</text>
        </lyric>
        <lyric default-y="-172" number="5">
          <syllabic>end</syllabic>
          <text>dren</text>
        </lyric>
        <lyric default-y="-193" number="6">
          <syllabic>single</syllabic>
          <text>has</text>
        </lyric>
      </note>
      <note default-x="105">
        <chord/>
        <pitch>
          <step>A</step>
          <octave>4</octave>
        </pitch>
        <duration>2</duration>
        <instrument id="P1-I2"/>
        <voice>1</voice>
        <type>quarter</type>
        <stem>up</stem>
      </note>
    </measure>
    <!--=======================================================-->
    <measure number="3" width="311">
      <attributes>
        <time>
          <beats>4</beats>
          <beat-type>4</beat-type>
        </time>
      </attributes>
      <note default-x="45">
        <pitch>
          <step>F</step>
          <octave>4</octave>
        </pitch>
        <duration>6</duration>
        <instrument id="P1-I2"/>
        <voice>1</voice>
        <type>half</type>
        <dot/>
        <stem default-y="7">up</stem>
        <lyric default-y="-89" number="1">
          <syllabic>single</syllabic>
          <text>fire</text>
        </lyric>
        <lyric default-y="-110" number="2">
          <syllabic>single</syllabic>
          <text>hide</text>
        </lyric>
        <lyric default-y="-130" number="3">
          <syllabic>single</syllabic>
          <text font-size="8.25" font-style="italic" font-weight="bold">me</text>
        </lyric>
        <lyric default-y="-151" number="4">
          <syllabic>end</syllabic>
          <text font-size="8.25" font-style="italic" font-weight="bold">veres,</text>
        </lyric>
        <lyric default-y="-172" number="5">
          <syllabic>single</syllabic>
          <text>here,</text>
        </lyric>
        <lyric default-y="-193" number="6">
          <syllabic>single</syllabic>
          <text>known,</text>
        </lyric>
      </note>
      <note default-x="45">
        <chord/>
        <pitch>
          <step>A</step>
          <octave>4</octave>
        </pitch>
        <duration>6</duration>
        <instrument id="P1-I2"/>
        <voice>1</voice>
        <type>half</type>
        <dot/>
        <stem>up</stem>
      </note>
      <note default-x="127">
        <pitch>
          <step>G</step>
          <octave>4</octave>
        </pitch>
        <duration>2</duration>
        <instrument id="P1-I2"/>
        <voice>1</voice>
        <type>quarter</type>
        <stem default-y="2">up</stem>
        <lyric default-y="-89" number="1" relative-x="7">
          <syllabic>single</syllabic>
          <text>Yet</text>
        </lyric>
        <lyric default-y="-110" number="2" relative-x="7">
          <syllabic>begin</syllabic>
          <text>Re</text>
        </lyric>
        <lyric default-y="-130" number="3" relative-x="7">
          <syllabic>single</syllabic>
          <text font-size="8.25" font-style="italic" font-weight="bold">So</text>
        </lyric>
        <lyric default-y="-151" number="4" relative-x="7">
          <syllabic>single</syllabic>
          <text font-size="8.25" font-style="italic" font-weight="bold">No</text>
        </lyric>
        <lyric default-y="-172" number="5" relative-x="7">
          <syllabic>single</syllabic>
          <text>A</text>
        </lyric>
        <lyric default-y="-193" number="6" relative-x="7">
          <syllabic>single</syllabic>
          <text>How</text>
        </lyric>
      </note>
      <backup>
        <duration>2</duration>
      </backup>
      <note default-x="135">
        <pitch>
          <step>F</step>
          <octave>4</octave>
        </pitch>
        <duration>2</duration>
        <instrument id="P1-I2"/>
        <voice>2</voice>
        <type>quarter</type>
        <stem default-y="-61">down</stem>
      </note>
    </measure>
    <!--=======================================================-->
    <measure number="4" width="848">
      <print new-system="yes"/>
      <note default-x="740">
        <pitch>
          <step>E</step>
          <octave>4</octave>
        </pitch>
        <duration>2</duration>
        <instrument id="P1-I2"/>
        <voice>1</voice>
        <type>quarter</type>
        <stem default-y="2">up</stem>
        <lyric default-y="-89" number="1">
          <syllabic>single</syllabic>
          <text>fail</text>
        </lyric>
        <lyric default-y="-110" number="2">
          <syllabic>middle</syllabic>
          <text>sent</text>
        </lyric>
        <lyric default-y="-130" number="3">
          <syllabic>single</syllabic>
          <text font-size="8.25" font-style="italic" font-weight="bold">Christ’s</text>
        </lyric>
        <lyric default-y="-151" number="4">
          <syllabic>begin</syllabic>
          <text font-size="8.25" font-style="italic" font-weight="bold">an</text>
        </lyric>
        <lyric default-y="-172" number="5">
          <syllabic>single</syllabic>
          <text>poor</text>
        </lyric>
        <lyric default-y="-193" number="6">
          <syllabic>single</syllabic>
          <text>vast</text>
        </lyric>
      </note>
      <note default-x="740">
        <chord/>
        <pitch>
          <step>G</step>
          <octave>4</octave>
        </pitch>
        <duration>2</duration>
        <instrument id="P1-I2"/>
        <voice>1</voice>
        <type>quarter</type>
        <stem>up</stem>
      </note>
      <note default-x="810">
        <pitch>
          <step>C</step>
          <octave>4</octave>
        </pitch>
        <duration>2</duration>
        <instrument id="P1-I2"/>
        <voice>1</voice>
        <type>quarter</type>
        <stem>double</stem>
        <lyric default-y="-89" number="1">
          <syllabic>single</syllabic>
          <text>to</text>
        </lyric>
        <lyric default-y="-110" number="2">
          <syllabic>end</syllabic>
          <text>ment,</text>
        </lyric>
        <lyric default-y="-130" number="3">
          <syllabic>begin</syllabic>
          <text font-size="8.25" font-style="italic" font-weight="bold">per</text>
        </lyric>
        <lyric default-y="-151" number="4">
          <syllabic>end</syllabic>
          <text font-size="8.25" font-style="italic" font-weight="bold">ger</text>
        </lyric>
        <lyric default-y="-172" number="5">
          <syllabic>begin</syllabic>
          <text>re</text>
        </lyric>
        <lyric default-y="-193" number="6">
          <syllabic>single</syllabic>
          <text>His</text>
        </lyric>
      </note>
      <note default-x="55">
        <pitch>
          <step>C</step>
          <octave>4</octave>
        </pitch>
        <duration>2</duration>
        <instrument id="P1-I2"/>
        <voice>1</voice>
        <type>quarter</type>
        <stem>double</stem>
        <lyric default-y="-89" number="1">
          <syllabic>single</syllabic>
          <text>do</text>
        </lyric>
        <lyric default-y="-110" number="2">
          <syllabic>begin</syllabic>
          <text>en</text>
        </lyric>
        <lyric default-y="-130" number="3">
          <syllabic>middle</syllabic>
          <text font-size="8.25" font-style="italic" font-weight="bold">fect</text>
        </lyric>
        <lyric default-y="-151" number="4">
          <syllabic>single</syllabic>
          <text font-size="8.25" font-style="italic" font-weight="bold">and</text>
        </lyric>
        <lyric default-y="-172" number="5">
          <syllabic>middle</syllabic>
          <text>flect</text>
        </lyric>
        <lyric default-y="-193" number="6">
          <syllabic>single</syllabic>
          <text>love</text>
        </lyric>
      </note>
      <note default-x="115">
        <pitch>
          <step>C</step>
          <octave>4</octave>
        </pitch>
        <duration>2</duration>
        <instrument id="P1-I2"/>
        <voice>1</voice>
        <type>quarter</type>
        <stem default-y="-317">up</stem>
        <lyric default-y="-89" number="1">
          <syllabic>single</syllabic>
          <text>what</text>
        </lyric>
        <lyric default-y="-110" number="2">
          <syllabic>end</syllabic>
          <text>vy,</text>
        </lyric>
        <lyric default-y="-130" number="3">
          <syllabic>end</syllabic>
          <text font-size="8.25" font-style="italic" font-weight="bold">ed</text>
        </lyric>
        <lyric default-y="-151" number="4">
          <syllabic>single</syllabic>
          <text font-size="8.25" font-style="italic" font-weight="bold">no</text>
        </lyric>
        <lyric default-y="-172" number="5">
          <syllabic>end</syllabic>
          <text>ion</text>
        </lyric>
        <lyric default-y="-193" number="6">
          <syllabic>single</syllabic>
          <text>for</text>
        </lyric>
      </note>
      <note default-x="115">
        <chord/>
        <pitch>
          <step>E</step>
          <octave>4</octave>
        </pitch>
        <duration>2</duration>
        <instrument id="P1-I2"/>
        <voice>1</voice>
        <type>quarter</type>
        <stem>up</stem>
      </note>
    </measure>
    <!--=======================================================-->
    <measure number="5">
      <note default-x="-666">
        <pitch>
          <step>C</step>
          <octave>4</octave>
        </pitch>
        <duration>2</duration>
        <instrument id="P1-I2"/>
        <voice>1</voice>
        <type>quarter</type>
        <stem default-y="-8">up</stem>
        <lyric default-y="-89" number="1">
          <syllabic>single</syllabic>
          <text>love</text>
        </lyric>
        <lyric default-y="-110" number="2">
          <syllabic>single</syllabic>
          <text>lust</text>
        </lyric>
        <lyric default-y="-130" number="3">
          <syllabic>single</syllabic>
          <text font-size="8.25" font-style="italic" font-weight="bold">love</text>
        </lyric>
        <lyric default-y="-151" number="4">
          <syllabic>begin</syllabic>
          <text font-size="8.25" font-style="italic" font-weight="bold">rude</text>
        </lyric>
        <lyric default-y="-172" number="5">
          <syllabic>single</syllabic>
          <text>in</text>
        </lyric>
        <lyric default-y="-193" number="6">
          <syllabic>begin</syllabic>
          <text>sin</text>
        </lyric>
      </note>
      <note default-x="-666">
        <chord/>
        <pitch>
          <step>E</step>
          <octave>4</octave>
        </pitch>
        <duration>2</duration>
        <instrument id="P1-I2"/>
        <voice>1</voice>
        <type>quarter</type>
        <stem>up</stem>
      </note>
      <note default-x="-606">
        <pitch>
          <step>C</step>
          <octave>4</octave>
        </pitch>
        <duration>2</duration>
        <instrument id="P1-I2"/>
        <voice>1</voice>
        <type>quarter</type>
        <stem default-y="-18">up</stem>
        <lyric default-y="-89" number="1">
          <syllabic>begin</syllabic>
          <text>re</text>
        </lyric>
        <lyric default-y="-110" number="2">
          <syllabic>single</syllabic>
          <text>and</text>
        </lyric>
        <lyric default-y="-130" number="3">
          <syllabic>single</syllabic>
          <text font-size="8.25" font-style="italic" font-weight="bold">I’d</text>
        </lyric>
        <lyric default-y="-151" number="4">
          <syllabic>end</syllabic>
          <text font-size="8.25" font-style="italic" font-weight="bold">ness</text>
        </lyric>
        <lyric default-y="-172" number="5">
          <syllabic>single</syllabic>
          <text>a</text>
        </lyric>
        <lyric default-y="-193" number="6">
          <syllabic>end</syllabic>
          <text>ners</text>
        </lyric>
      </note>
      <backup>
        <duration>2</duration>
      </backup>
      <note default-x="-598">
        <pitch>
          <step>B</step>
          <octave>3</octave>
        </pitch>
        <duration>2</duration>
        <instrument id="P1-I2"/>
        <voice>2</voice>
        <type>quarter</type>
        <stem default-y="-75">down</stem>
      </note>
      <note default-x="-538">
        <pitch>
          <step>A</step>
          <octave>3</octave>
        </pitch>
        <duration>4</duration>
        <tie type="start"/>
        <instrument id="P1-I2"/>
        <voice>1</voice>
        <type>half</type>
        <stem default-y="-18">up</stem>
        <notations>
          <tied type="start"/>
          <slur default-y="-39" number="1" placement="above" relative-x="49" type="start"/>
        </notations>
        <lyric default-y="-89" number="1" relative-x="4">
          <syllabic>end</syllabic>
          <text>quires,</text>
        </lyric>
        <lyric default-y="-110" number="2" relative-x="4">
          <syllabic>single</syllabic>
          <text>pride.</text>
        </lyric>
        <lyric default-y="-130" number="3" relative-x="4">
          <syllabic>single</syllabic>
          <text font-size="8.25" font-style="italic" font-weight="bold">see</text>
        </lyric>
        <lyric default-y="-151" number="4" relative-x="4">
          <syllabic>single</syllabic>
          <text font-size="8.25" font-style="italic" font-weight="bold">hears;</text>
        </lyric>
        <lyric default-y="-172" number="5" relative-x="4">
          <syllabic>single</syllabic>
          <text>mirror.</text>
        </lyric>
        <lyric default-y="-193" number="6" relative-x="4">
          <syllabic>single</syllabic>
          <text>shown!</text>
        </lyric>
      </note>
      <note default-x="-538">
        <chord/>
        <pitch>
          <step>C</step>
          <octave>4</octave>
        </pitch>
        <duration>4</duration>
        <instrument id="P1-I2"/>
        <voice>1</voice>
        <type>half</type>
        <stem>up</stem>
      </note>
    </measure>
    <!--=======================================================-->
    <measure number="6">
      <note>
        <pitch>
          <step>A</step>
          <octave>3</octave>
        </pitch>
        <duration>6</duration>
        <tie type="stop"/>
        <instrument id="P1-I2"/>
        <voice>1</voice>
        <type>half</type>
        <dot/>
        <stem default-y="-13">up</stem>
        <notations>
          <tied type="stop"/>
          <slur default-y="-36" number="1" type="stop"/>
        </notations>
      </note>
      <note>
        <chord/>
        <pitch>
          <step>D</step>
          <octave>4</octave>
        </pitch>
        <duration>6</duration>
        <instrument id="P1-I2"/>
        <voice>1</voice>
        <type>half</type>
        <dot/>
        <stem>up</stem>
      </note>
      <note>
        <pitch>
          <step>D</step>
          <octave>4</octave>
        </pitch>
        <duration>2</duration>
        <instrument id="P1-I2"/>
        <voice>1</voice>
        <type>quarter</type>
        <stem>double</stem>
        <lyric default-y="-89" number="1">
          <syllabic>single</syllabic>
          <text>I’m</text>
        </lyric>
        <lyric default-y="-110" number="2">
          <syllabic>single</syllabic>
          <text>I’m</text>
        </lyric>
        <lyric default-y="-130" number="3">
          <syllabic>single</syllabic>
          <text font-size="8.25" font-style="italic" font-weight="bold">And</text>
        </lyric>
        <lyric default-y="-151" number="4">
          <syllabic>single</syllabic>
          <text font-size="8.25" font-style="italic" font-weight="bold">Such</text>
        </lyric>
        <lyric default-y="-172" number="5">
          <syllabic>single</syllabic>
          <text>Yet</text>
        </lyric>
        <lyric default-y="-193" number="6">
          <syllabic>single</syllabic>
          <text>With</text>
        </lyric>
      </note>
    </measure>
    <!--=======================================================-->
    <measure number="7">
      <note>
        <pitch>
          <step>D</step>
          <octave>4</octave>
        </pitch>
        <duration>2</duration>
        <instrument id="P1-I2"/>
        <voice>1</voice>
        <type>quarter</type>
        <stem>double</stem>
        <lyric default-y="-89" number="1">
          <syllabic>begin</syllabic>
          <text>no</text>
        </lyric>
        <lyric default-y="-110" number="2">
          <syllabic>begin</syllabic>
          <text>no</text>
        </lyric>
        <lyric default-y="-130" number="3">
          <syllabic>single</syllabic>
          <text font-size="8.25" font-style="italic" font-weight="bold">know,</text>
        </lyric>
        <lyric default-y="-151" number="4">
          <syllabic>begin</syllabic>
          <text font-size="8.25" font-style="italic" font-weight="bold">lov</text>
        </lyric>
        <lyric default-y="-172" number="5">
          <syllabic>single</syllabic>
          <text>in</text>
        </lyric>
        <lyric default-y="-193" number="6">
          <syllabic>single</syllabic>
          <text>eyes</text>
        </lyric>
      </note>
      <note>
        <pitch>
          <step>F</step>
          <octave>4</octave>
        </pitch>
        <duration>2</duration>
        <instrument id="P1-I2"/>
        <voice>1</voice>
        <type>quarter</type>
        <stem default-y="7">up</stem>
        <lyric default-y="-89" number="1">
          <syllabic>end</syllabic>
          <text>thing.</text>
        </lyric>
        <lyric default-y="-110" number="2">
          <syllabic>end</syllabic>
          <text>thing,</text>
        </lyric>
        <lyric default-y="-130" number="3">
          <syllabic>single</syllabic>
          <text font-size="8.25" font-style="italic" font-weight="bold">and</text>
        </lyric>
        <lyric default-y="-151" number="4">
          <syllabic>middle</syllabic>
          <text font-size="8.25" font-style="italic" font-weight="bold">ing</text>
        </lyric>
        <lyric default-y="-172" number="5">
          <syllabic>single</syllabic>
          <text>my</text>
        </lyric>
        <lyric default-y="-193" number="6">
          <syllabic>begin</syllabic>
          <text>un</text>
        </lyric>
      </note>
      <note>
        <chord/>
        <pitch>
          <step>A</step>
          <octave>4</octave>
        </pitch>
        <duration>2</duration>
        <instrument id="P1-I2"/>
        <voice>1</voice>
        <type>quarter</type>
        <stem>up</stem>
      </note>
      <note>
        <pitch>
          <step>F</step>
          <octave>4</octave>
        </pitch>
        <duration>2</duration>
        <instrument id="P1-I2"/>
        <voice>1</voice>
        <type>quarter</type>
        <stem default-y="7">up</stem>
        <lyric default-y="-89" number="1">
          <syllabic>single</syllabic>
          <text>Though</text>
        </lyric>
        <lyric default-y="-110" number="2">
          <syllabic>single</syllabic>
          <text>though</text>
        </lyric>
        <lyric default-y="-130" number="3">
          <syllabic>single</syllabic>
          <text font-size="8.25" font-style="italic" font-weight="bold">speak,</text>
        </lyric>
        <lyric default-y="-151" number="4">
          <syllabic>middle</syllabic>
          <text font-size="8.25" font-style="italic" font-weight="bold">kind</text>
        </lyric>
        <lyric default-y="-172" number="5">
          <syllabic>single</syllabic>
          <text>heart</text>
        </lyric>
        <lyric default-y="-193" number="6">
          <syllabic>end</syllabic>
          <text>dimmed</text>
        </lyric>
      </note>
      <note>
        <chord/>
        <pitch>
          <step>A</step>
          <octave>4</octave>
        </pitch>
        <duration>2</duration>
        <instrument id="P1-I2"/>
        <voice>1</voice>
        <type>quarter</type>
        <stem>up</stem>
      </note>
      <note>
        <pitch>
          <step>E</step>
          <octave>4</octave>
        </pitch>
        <duration>2</duration>
        <instrument id="P1-I2"/>
        <voice>1</voice>
        <type>quarter</type>
        <stem default-y="2">up</stem>
        <lyric default-y="-89" number="1">
          <syllabic>single</syllabic>
          <text>high</text>
        </lyric>
        <lyric default-y="-110" number="2">
          <syllabic>single</syllabic>
          <text>high</text>
        </lyric>
        <lyric default-y="-130" number="3">
          <syllabic>single</syllabic>
          <text font-size="8.25" font-style="italic" font-weight="bold">and</text>
        </lyric>
        <lyric default-y="-151" number="4" relative-x="8">
          <syllabic>end</syllabic>
          <text font-size="8.25" font-style="italic" font-weight="bold">ness—</text>
        </lyric>
        <lyric default-y="-172" number="5">
          <syllabic>single</syllabic>
          <text>I</text>
        </lyric>
        <lyric default-y="-193" number="6">
          <syllabic>single</syllabic>
          <text>I’ll</text>
        </lyric>
      </note>
      <note>
        <chord/>
        <pitch>
          <step>G</step>
          <octave>4</octave>
        </pitch>
        <duration>2</duration>
        <instrument id="P1-I2"/>
        <voice>1</voice>
        <type>quarter</type>
        <stem>up</stem>
      </note>
    </measure>
    <!--=======================================================-->
    <measure number="8" width="191">
      <print new-system="yes"/>
      <attributes>
        <time>
          <beats>2</beats>
          <beat-type>4</beat-type>
        </time>
      </attributes>
      <note default-x="72">
        <pitch>
          <step>G</step>
          <octave>4</octave>
        </pitch>
        <duration>2</duration>
        <instrument id="P1-I2"/>
        <voice>1</voice>
        <type>quarter</type>
        <stem default-y="12">up</stem>
        <lyric default-y="-89" number="1">
          <syllabic>begin</syllabic>
          <text>moun</text>
        </lyric>
        <lyric default-y="-110" number="2">
          <syllabic>begin</syllabic>
          <text>mys</text>
        </lyric>
        <lyric default-y="-130" number="3">
          <syllabic>single</syllabic>
          <text font-size="8.25" font-style="italic" font-weight="bold">serve,</text>
        </lyric>
        <lyric default-y="-151" number="4">
          <syllabic>begin</syllabic>
          <text font-size="8.25" font-style="italic" font-weight="bold">ful</text>
        </lyric>
        <lyric default-y="-172" number="5">
          <syllabic>single</syllabic>
          <text>long</text>
        </lyric>
        <lyric default-y="-193" number="6">
          <syllabic>single</syllabic>
          <text>end</text>
        </lyric>
      </note>
      <note default-x="72">
        <chord/>
        <pitch>
          <step>C</step>
          <octave>5</octave>
        </pitch>
        <duration>2</duration>
        <instrument id="P1-I2"/>
        <voice>1</voice>
        <type>quarter</type>
        <stem>up</stem>
      </note>
      <note default-x="139">
        <pitch>
          <step>G</step>
          <octave>4</octave>
        </pitch>
        <duration>2</duration>
        <instrument id="P1-I2"/>
        <voice>1</voice>
        <type>quarter</type>
        <stem default-y="12">up</stem>
        <lyric default-y="-89" number="1">
          <syllabic>end</syllabic>
          <text>tains</text>
        </lyric>
        <lyric default-y="-110" number="2">
          <syllabic>end</syllabic>
          <text>t’ries</text>
        </lyric>
        <lyric default-y="-130" number="3">
          <syllabic>single</syllabic>
          <text font-size="8.25" font-style="italic" font-weight="bold">and</text>
        </lyric>
        <lyric default-y="-151" number="4">
          <syllabic>end</syllabic>
          <text font-size="8.25" font-style="italic" font-weight="bold">ly</text>
        </lyric>
        <lyric default-y="-172" number="5">
          <syllabic>single</syllabic>
          <text>to</text>
        </lyric>
        <lyric default-y="-193" number="6">
          <syllabic>single</syllabic>
          <text>my</text>
        </lyric>
      </note>
      <note default-x="139">
        <chord/>
        <pitch>
          <step>B</step>
          <octave>4</octave>
        </pitch>
        <duration>2</duration>
        <instrument id="P1-I2"/>
        <voice>1</voice>
        <type>quarter</type>
        <stem>up</stem>
      </note>
    </measure>
    <!--=======================================================-->
    <measure number="9" width="165">
      <attributes>
        <time>
          <beats>4</beats>
          <beat-type>4</beat-type>
        </time>
      </attributes>
      <note default-x="40">
        <pitch>
          <step>E</step>
          <octave>4</octave>
        </pitch>
        <duration>6</duration>
        <instrument id="P1-I2"/>
        <voice>1</voice>
        <type>half</type>
        <dot/>
        <stem default-y="7">up</stem>
        <lyric default-y="-89" number="1">
          <syllabic>single</syllabic>
          <text>move,</text>
        </lyric>
        <lyric default-y="-110" number="2">
          <syllabic>single</syllabic>
          <text>find,</text>
        </lyric>
        <lyric default-y="-130" number="3">
          <syllabic>single</syllabic>
          <text font-size="8.25" font-style="italic" font-weight="bold">give,</text>
        </lyric>
        <lyric default-y="-151" number="4" relative-x="10">
          <syllabic>single</syllabic>
          <text font-size="8.25" font-style="italic" font-weight="bold">blest—</text>
        </lyric>
        <lyric default-y="-172" number="5">
          <syllabic>single</syllabic>
          <text>find</text>
        </lyric>
        <lyric default-y="-193" number="6">
          <syllabic>single</syllabic>
          <text>race</text>
        </lyric>
      </note>
      <note default-x="40">
        <chord/>
        <pitch>
          <step>A</step>
          <octave>4</octave>
        </pitch>
        <duration>6</duration>
        <instrument id="P1-I2"/>
        <voice>1</voice>
        <type>half</type>
        <dot/>
        <stem>up</stem>
      </note>
      <note default-x="121">
        <pitch>
          <step>E</step>
          <octave>4</octave>
        </pitch>
        <duration>2</duration>
        <instrument id="P1-I2"/>
        <voice>1</voice>
        <type>quarter</type>
        <stem default-y="2">up</stem>
        <lyric default-y="-89" number="1">
          <syllabic>single</syllabic>
          <text>I’m</text>
        </lyric>
        <lyric default-y="-110" number="2">
          <syllabic>single</syllabic>
          <text>If</text>
        </lyric>
        <lyric default-y="-130" number="3">
          <syllabic>single</syllabic>
          <text font-size="8.25" font-style="italic" font-weight="bold">And</text>
        </lyric>
        <lyric default-y="-151" number="4">
          <syllabic>single</syllabic>
          <text font-size="8.25" font-style="italic" font-weight="bold">Gives</text>
        </lyric>
        <lyric default-y="-172" number="5">
          <syllabic>single</syllabic>
          <text>Love</text>
        </lyric>
        <lyric default-y="-193" number="6">
          <syllabic>single</syllabic>
          <text>And</text>
        </lyric>
      </note>
      <note default-x="121">
        <chord/>
        <pitch>
          <step>G</step>
          <octave>4</octave>
        </pitch>
        <duration>2</duration>
        <instrument id="P1-I2"/>
        <voice>1</voice>
        <type>quarter</type>
        <stem>up</stem>
      </note>
    </measure>
    <!--=======================================================-->
    <measure number="10" width="230">
      <note default-x="19">
        <pitch>
          <step>E</step>
          <octave>4</octave>
        </pitch>
        <duration>2</duration>
        <instrument id="P1-I2"/>
        <voice>1</voice>
        <type>quarter</type>
        <stem default-y="2">up</stem>
        <lyric default-y="-89" number="1">
          <syllabic>begin</syllabic>
          <text>no</text>
        </lyric>
        <lyric default-y="-110" number="2">
          <syllabic>single</syllabic>
          <text>I’m</text>
        </lyric>
        <lyric default-y="-130" number="3">
          <syllabic>single</syllabic>
          <text font-size="8.25" font-style="italic" font-weight="bold">in</text>
        </lyric>
        <lyric default-y="-151" number="4">
          <syllabic>begin</syllabic>
          <text font-size="8.25" font-style="italic" font-weight="bold">fore</text>
        </lyric>
        <lyric default-y="-172" number="5">
          <syllabic>single</syllabic>
          <text>more</text>
        </lyric>
        <lyric default-y="-193" number="6">
          <syllabic>single</syllabic>
          <text>gaze</text>
        </lyric>
      </note>
      <note default-x="19">
        <chord/>
        <pitch>
          <step>G</step>
          <octave>4</octave>
        </pitch>
        <duration>2</duration>
        <instrument id="P1-I2"/>
        <voice>1</voice>
        <type>quarter</type>
        <stem>up</stem>
      </note>
      <note default-x="74">
        <pitch>
          <step>C</step>
          <octave>4</octave>
        </pitch>
        <duration>2</duration>
        <instrument id="P1-I2"/>
        <voice>1</voice>
        <type>quarter</type>
        <stem>double</stem>
        <lyric default-y="-89" number="1">
          <syllabic>end</syllabic>
          <text>thing</text>
        </lyric>
        <lyric default-y="-110" number="2">
          <syllabic>single</syllabic>
          <text>not</text>
        </lyric>
        <lyric default-y="-130" number="3">
          <syllabic>single</syllabic>
          <text font-size="8.25" font-style="italic" font-weight="bold">my</text>
        </lyric>
        <lyric default-y="-151" number="4">
          <syllabic>end</syllabic>
          <text font-size="8.25" font-style="italic" font-weight="bold">tastes</text>
        </lyric>
        <lyric default-y="-172" number="5">
          <syllabic>single</syllabic>
          <text>by</text>
        </lyric>
        <lyric default-y="-193" number="6">
          <syllabic>single</syllabic>
          <text>on</text>
        </lyric>
      </note>
      <note default-x="128">
        <pitch>
          <step>C</step>
          <octave>4</octave>
        </pitch>
        <duration>2</duration>
        <instrument id="P1-I2"/>
        <voice>1</voice>
        <type>quarter</type>
        <stem>double</stem>
        <lyric default-y="-89" number="1">
          <syllabic>begin</syllabic>
          <text>with</text>
        </lyric>
        <lyric default-y="-110" number="2">
          <syllabic>begin</syllabic>
          <text>pa</text>
        </lyric>
        <lyric default-y="-130" number="3">
          <syllabic>begin</syllabic>
          <text font-size="8.25" font-style="italic" font-weight="bold">ho</text>
        </lyric>
        <lyric default-y="-151" number="4">
          <syllabic>single</syllabic>
          <text font-size="8.25" font-style="italic" font-weight="bold">of</text>
        </lyric>
        <lyric default-y="-172" number="5">
          <syllabic>begin</syllabic>
          <text>Je</text>
        </lyric>
        <lyric default-y="-193" number="6">
          <syllabic>begin</syllabic>
          <text>Je</text>
        </lyric>
      </note>
      <note default-x="180">
        <pitch>
          <step>C</step>
          <octave>4</octave>
        </pitch>
        <duration>2</duration>
        <instrument id="P1-I2"/>
        <voice>1</voice>
        <type>quarter</type>
        <stem default-y="-8">up</stem>
        <lyric default-y="-89" number="1">
          <syllabic>end</syllabic>
          <text>out</text>
        </lyric>
        <lyric default-y="-110" number="2">
          <syllabic>end</syllabic>
          <text>tient,</text>
        </lyric>
        <lyric default-y="-130" number="3">
          <syllabic>end</syllabic>
          <text font-size="8.25" font-style="italic" font-weight="bold">ly</text>
        </lyric>
        <lyric default-y="-151" number="4">
          <syllabic>begin</syllabic>
          <text font-size="8.25" font-style="italic" font-weight="bold">e</text>
        </lyric>
        <lyric default-y="-172" number="5">
          <syllabic>end</syllabic>
          <text>sus’</text>
        </lyric>
        <lyric default-y="-193" number="6">
          <syllabic>end</syllabic>
          <text>sus</text>
        </lyric>
      </note>
      <note default-x="180">
        <chord/>
        <pitch>
          <step>E</step>
          <octave>4</octave>
        </pitch>
        <duration>2</duration>
        <instrument id="P1-I2"/>
        <voice>1</voice>
        <type>quarter</type>
        <stem>up</stem>
      </note>
    </measure>
    <!--=======================================================-->
    <measure number="11" width="172">
      <note default-x="23">
        <pitch>
          <step>C</step>
          <octave>4</octave>
        </pitch>
        <duration>4</duration>
        <instrument id="P1-I2"/>
        <voice>1</voice>
        <type>half</type>
        <stem default-y="-8">up</stem>
        <lyric default-y="-89" number="1">
          <syllabic>begin</syllabic>
          <text>per</text>
        </lyric>
        <lyric default-y="-110" number="2">
          <syllabic>begin</syllabic>
          <text>hum</text>
        </lyric>
        <lyric default-y="-130" number="3">
          <syllabic>begin</syllabic>
          <text font-size="8.25" font-style="italic" font-weight="bold">Bride</text>
        </lyric>
        <lyric default-y="-151" number="4">
          <syllabic>middle</syllabic>
          <text font-size="8.25" font-style="italic" font-weight="bold">ter</text>
        </lyric>
        <lyric default-y="-172" number="5">
          <syllabic>single</syllabic>
          <text>love</text>
        </lyric>
        <lyric default-y="-193" number="6">
          <syllabic>single</syllabic>
          <text>face</text>
        </lyric>
      </note>
      <note default-x="23">
        <chord/>
        <pitch>
          <step>E</step>
          <octave>4</octave>
        </pitch>
        <duration>4</duration>
        <instrument id="P1-I2"/>
        <voice>1</voice>
        <type>half</type>
        <stem>up</stem>
      </note>
      <note default-x="99">
        <pitch>
          <step>C</step>
          <octave>4</octave>
        </pitch>
        <duration>4</duration>
        <instrument id="P1-I2"/>
        <voice>1</voice>
        <type>half</type>
        <stem default-y="-18">up</stem>
        <notations>
          <slur default-y="-66" number="1" placement="below" type="start"/>
        </notations>
        <lyric default-y="-89" number="1">
          <syllabic>end</syllabic>
          <text>fect</text>
        </lyric>
        <lyric default-y="-110" number="2">
          <syllabic>end</syllabic>
          <text>ble,</text>
        </lyric>
        <lyric default-y="-130" number="3">
          <syllabic>end</syllabic>
          <text font-size="8.25" font-style="italic" font-weight="bold">groom</text>
        </lyric>
        <lyric default-y="-151" number="4">
          <syllabic>end</syllabic>
          <text font-size="8.25" font-style="italic" font-weight="bold">nal</text>
        </lyric>
        <lyric default-y="-172" number="5">
          <syllabic>begin</syllabic>
          <text>re</text>
        </lyric>
        <lyric default-y="-193" number="6">
          <syllabic>single</syllabic>
          <text>to</text>
        </lyric>
      </note>
      <backup>
        <duration>4</duration>
      </backup>
      <note default-x="111">
        <pitch>
          <step>C</step>
          <octave>4</octave>
        </pitch>
        <duration>2</duration>
        <instrument id="P1-I2"/>
        <voice>2</voice>
        <type>quarter</type>
        <stem default-y="-70">down</stem>
      </note>
      <note default-x="141">
        <pitch>
          <step>B</step>
          <octave>3</octave>
        </pitch>
        <duration>2</duration>
        <instrument id="P1-I2"/>
        <voice>2</voice>
        <type>quarter</type>
        <stem default-y="-75">down</stem>
        <notations>
          <slur default-y="-71" number="1" type="stop"/>
        </notations>
      </note>
    </measure>
    <!--=======================================================-->
    <measure number="12" width="89">
      <note default-x="22">
        <pitch>
          <step>A</step>
          <octave>3</octave>
        </pitch>
        <duration>6</duration>
        <instrument id="P1-I2"/>
        <voice>1</voice>
        <type>half</type>
        <dot/>
        <stem default-y="-13">up</stem>
        <lyric default-y="-89" number="1">
          <syllabic>single</syllabic>
          <text>love.</text>
        </lyric>
        <lyric default-y="-110" number="2">
          <syllabic>single</syllabic>
          <text>kind.</text>
        </lyric>
        <lyric default-y="-130" number="3">
          <syllabic>single</syllabic>
          <text font-size="8.25" font-style="italic" font-weight="bold">live.</text>
        </lyric>
        <lyric default-y="-151" number="4">
          <syllabic>single</syllabic>
          <text font-size="8.25" font-style="italic" font-weight="bold">rest.</text>
        </lyric>
        <lyric default-y="-172" number="5">
          <syllabic>end</syllabic>
          <text>fined.</text>
        </lyric>
        <lyric default-y="-193" number="6">
          <syllabic>single</syllabic>
          <text>face!</text>
        </lyric>
      </note>
      <note default-x="22">
        <chord/>
        <pitch>
          <step>D</step>
          <octave>4</octave>
        </pitch>
        <duration>6</duration>
        <instrument id="P1-I2"/>
        <voice>1</voice>
        <type>half</type>
        <dot/>
        <stem>up</stem>
      </note>
      <barline location="right">
        <bar-style>light-heavy</bar-style>
      </barline>
    </measure>
  </part>
  <!--=========================================================-->
  <part id="P2">
    <measure implicit="yes" number="0" width="124">
      <print>
        <staff-layout number="1">
          <staff-distance>185</staff-distance>
        </staff-layout>
        <measure-numbering>none</measure-numbering>
      </print>
      <attributes>
        <divisions>2</divisions>
        <key>
          <fifths>0</fifths>
          <mode>major</mode>
        </key>
        <time>
          <beats>4</beats>
          <beat-type>4</beat-type>
        </time>
        <clef>
          <sign>F</sign>
          <line>4</line>
        </clef>
      </attributes>
      <sound tempo="100"/>
      <note default-x="70">
        <pitch>
          <step>D</step>
          <octave>3</octave>
        </pitch>
        <duration>2</duration>
        <instrument id="P2-I3"/>
        <voice>1</voice>
        <type>quarter</type>
        <stem>double</stem>
      </note>
    </measure>
    <!--=======================================================-->
    <measure number="1" width="251">
      <note default-x="20">
        <pitch>
          <step>D</step>
          <octave>3</octave>
        </pitch>
        <duration>2</duration>
        <instrument id="P2-I3"/>
        <voice>1</voice>
        <type>quarter</type>
        <stem>double</stem>
      </note>
      <note default-x="77">
        <pitch>
          <step>D</step>
          <octave>3</octave>
        </pitch>
        <duration>2</duration>
        <instrument id="P2-I3"/>
        <voice>1</voice>
        <type>quarter</type>
        <stem default-y="-51.5">down</stem>
      </note>
      <note default-x="77">
        <chord/>
        <pitch>
          <step>D</step>
          <octave>4</octave>
        </pitch>
        <duration>2</duration>
        <instrument id="P2-I3"/>
        <voice>1</voice>
        <type>quarter</type>
        <stem>down</stem>
      </note>
      <note default-x="135">
        <pitch>
          <step>D</step>
          <octave>3</octave>
        </pitch>
        <duration>2</duration>
        <instrument id="P2-I3"/>
        <voice>1</voice>
        <type>quarter</type>
        <stem default-y="-51.5">down</stem>
      </note>
      <note default-x="135">
        <chord/>
        <pitch>
          <step>C</step>
          <octave>4</octave>
        </pitch>
        <duration>2</duration>
        <instrument id="P2-I3"/>
        <voice>1</voice>
        <type>quarter</type>
        <stem>down</stem>
      </note>
      <note default-x="192">
        <pitch>
          <step>D</step>
          <octave>3</octave>
        </pitch>
        <duration>2</duration>
        <instrument id="P2-I3"/>
        <voice>1</voice>
        <type>quarter</type>
        <stem default-y="-51.5">down</stem>
      </note>
      <note default-x="192">
        <chord/>
        <pitch>
          <step>B</step>
          <octave>3</octave>
        </pitch>
        <duration>2</duration>
        <instrument id="P2-I3"/>
        <voice>1</voice>
        <type>quarter</type>
        <stem>down</stem>
      </note>
    </measure>
    <!--=======================================================-->
    <measure number="2" width="161">
      <attributes>
        <time>
          <beats>2</beats>
          <beat-type>4</beat-type>
        </time>
      </attributes>
      <note default-x="41">
        <pitch>
          <step>G</step>
          <octave>3</octave>
        </pitch>
        <duration>2</duration>
        <instrument id="P2-I3"/>
        <voice>1</voice>
        <type>quarter</type>
        <stem default-y="-36.5">down</stem>
      </note>
      <note default-x="41">
        <chord/>
        <pitch>
          <step>D</step>
          <octave>4</octave>
        </pitch>
        <duration>2</duration>
        <instrument id="P2-I3"/>
        <voice>1</voice>
        <type>quarter</type>
        <stem>down</stem>
      </note>
      <note default-x="105">
        <pitch>
          <step>G</step>
          <octave>3</octave>
        </pitch>
        <duration>2</duration>
        <instrument id="P2-I3"/>
        <voice>1</voice>
        <type>quarter</type>
        <stem default-y="-36.5">down</stem>
      </note>
      <note default-x="105">
        <chord/>
        <pitch>
          <step>B</step>
          <octave>3</octave>
        </pitch>
        <duration>2</duration>
        <instrument id="P2-I3"/>
        <voice>1</voice>
        <type>quarter</type>
        <stem>down</stem>
      </note>
    </measure>
    <!--=======================================================-->
    <measure number="3" width="311">
      <attributes>
        <time>
          <beats>4</beats>
          <beat-type>4</beat-type>
        </time>
      </attributes>
      <note default-x="45">
        <pitch>
          <step>F</step>
          <octave>3</octave>
        </pitch>
        <duration>6</duration>
        <instrument id="P2-I3"/>
        <voice>1</voice>
        <type>half</type>
        <dot/>
        <stem default-y="-41.5">down</stem>
      </note>
      <note default-x="45">
        <chord/>
        <pitch>
          <step>C</step>
          <octave>4</octave>
        </pitch>
        <duration>6</duration>
        <instrument id="P2-I3"/>
        <voice>1</voice>
        <type>half</type>
        <dot/>
        <stem>down</stem>
      </note>
      <note default-x="127">
        <pitch>
          <step>F</step>
          <octave>3</octave>
        </pitch>
        <duration>2</duration>
        <instrument id="P2-I3"/>
        <voice>1</voice>
        <type>quarter</type>
        <stem default-y="-41.5">down</stem>
      </note>
      <note default-x="127">
        <chord/>
        <pitch>
          <step>A</step>
          <octave>3</octave>
        </pitch>
        <duration>2</duration>
        <instrument id="P2-I3"/>
        <voice>1</voice>
        <type>quarter</type>
        <stem>down</stem>
      </note>
    </measure>
    <!--=======================================================-->
    <measure number="4" width="848">
      <print new-system="yes">
        <staff-layout number="1">
          <staff-distance>181</staff-distance>
        </staff-layout>
      </print>
      <note default-x="740">
        <pitch>
          <step>C</step>
          <octave>3</octave>
        </pitch>
        <duration>2</duration>
        <instrument id="P2-I3"/>
        <voice>1</voice>
        <type>quarter</type>
        <stem default-y="-51">down</stem>
      </note>
      <note default-x="740">
        <chord/>
        <pitch>
          <step>C</step>
          <octave>4</octave>
        </pitch>
        <duration>2</duration>
        <instrument id="P2-I3"/>
        <voice>1</voice>
        <type>quarter</type>
        <stem>down</stem>
      </note>
      <note default-x="810">
        <pitch>
          <step>E</step>
          <octave>3</octave>
        </pitch>
        <duration>2</duration>
        <instrument id="P2-I3"/>
        <voice>1</voice>
        <type>quarter</type>
        <stem default-y="-46.5">down</stem>
      </note>
      <note default-x="810">
        <chord/>
        <pitch>
          <step>G</step>
          <octave>3</octave>
        </pitch>
        <duration>2</duration>
        <instrument id="P2-I3"/>
        <voice>1</voice>
        <type>quarter</type>
        <stem>down</stem>
      </note>
      <note default-x="55">
        <pitch>
          <step>E</step>
          <octave>3</octave>
        </pitch>
        <duration>2</duration>
        <instrument id="P2-I3"/>
        <voice>1</voice>
        <type>quarter</type>
        <stem default-y="-351.5">down</stem>
      </note>
      <note default-x="55">
        <chord/>
        <pitch>
          <step>G</step>
          <octave>3</octave>
        </pitch>
        <duration>2</duration>
        <instrument id="P2-I3"/>
        <voice>1</voice>
        <type>quarter</type>
        <stem>down</stem>
      </note>
      <note default-x="115">
        <pitch>
          <step>C</step>
          <octave>3</octave>
        </pitch>
        <duration>2</duration>
        <instrument id="P2-I3"/>
        <voice>1</voice>
        <type>quarter</type>
        <stem default-y="-356">down</stem>
      </note>
      <note default-x="115">
        <chord/>
        <pitch>
          <step>C</step>
          <octave>4</octave>
        </pitch>
        <duration>2</duration>
        <instrument id="P2-I3"/>
        <voice>1</voice>
        <type>quarter</type>
        <stem>down</stem>
      </note>
    </measure>
    <!--=======================================================-->
    <measure number="5">
      <note default-x="-666">
        <pitch>
          <step>C</step>
          <octave>3</octave>
        </pitch>
        <duration>2</duration>
        <instrument id="P2-I3"/>
        <voice>1</voice>
        <type>quarter</type>
        <stem default-y="-51">down</stem>
      </note>
      <note default-x="-666">
        <chord/>
        <pitch>
          <step>G</step>
          <octave>3</octave>
        </pitch>
        <duration>2</duration>
        <instrument id="P2-I3"/>
        <voice>1</voice>
        <type>quarter</type>
        <stem>down</stem>
      </note>
      <note default-x="-606">
        <pitch>
          <step>E</step>
          <octave>3</octave>
        </pitch>
        <duration>2</duration>
        <instrument id="P2-I3"/>
        <voice>1</voice>
        <type>quarter</type>
        <stem>double</stem>
      </note>
      <note default-x="-538">
        <pitch>
          <step>E</step>
          <octave>3</octave>
        </pitch>
        <duration>4</duration>
        <instrument id="P2-I3"/>
        <voice>1</voice>
        <type>half</type>
        <stem default-y="11">up</stem>
        <notations>
          <slur default-y="3" number="1" placement="above" type="start"/>
        </notations>
      </note>
      <backup>
        <duration>4</duration>
      </backup>
      <note default-x="-530">
        <pitch>
          <step>D</step>
          <octave>3</octave>
        </pitch>
        <duration>4</duration>
        <tie type="start"/>
        <instrument id="P2-I3"/>
        <voice>2</voice>
        <type>half</type>
        <stem default-y="-51.5">down</stem>
        <notations>
          <tied type="start"/>
        </notations>
      </note>
    </measure>
    <!--=======================================================-->
    <measure number="6">
      <note>
        <pitch>
          <step>D</step>
          <octave>3</octave>
        </pitch>
        <duration>6</duration>
        <tie type="stop"/>
        <instrument id="P2-I3"/>
        <voice>1</voice>
        <type>half</type>
        <dot/>
        <stem default-y="-51.5">down</stem>
        <notations>
          <tied type="stop"/>
          <slur default-y="3" number="1" relative-x="8" type="stop"/>
        </notations>
      </note>
      <note>
        <chord/>
        <pitch>
          <step>F</step>
          <octave>3</octave>
        </pitch>
        <duration>6</duration>
        <instrument id="P2-I3"/>
        <voice>1</voice>
        <type>half</type>
        <dot/>
        <stem>down</stem>
      </note>
      <note>
        <pitch>
          <step>D</step>
          <octave>3</octave>
        </pitch>
        <duration>2</duration>
        <instrument id="P2-I3"/>
        <voice>1</voice>
        <type>quarter</type>
        <stem>double</stem>
      </note>
    </measure>
    <!--=======================================================-->
    <measure number="7">
      <note>
        <pitch>
          <step>D</step>
          <octave>3</octave>
        </pitch>
        <duration>2</duration>
        <instrument id="P2-I3"/>
        <voice>1</voice>
        <type>quarter</type>
        <stem>double</stem>
      </note>
      <note>
        <pitch>
          <step>D</step>
          <octave>3</octave>
        </pitch>
        <duration>2</duration>
        <instrument id="P2-I3"/>
        <voice>1</voice>
        <type>quarter</type>
        <stem default-y="-51.5">down</stem>
      </note>
      <note>
        <chord/>
        <pitch>
          <step>D</step>
          <octave>4</octave>
        </pitch>
        <duration>2</duration>
        <instrument id="P2-I3"/>
        <voice>1</voice>
        <type>quarter</type>
        <stem>down</stem>
      </note>
      <note>
        <pitch>
          <step>F</step>
          <octave>3</octave>
        </pitch>
        <duration>2</duration>
        <instrument id="P2-I3"/>
        <voice>1</voice>
        <type>quarter</type>
        <stem default-y="-41.5">down</stem>
      </note>
      <note>
        <chord/>
        <pitch>
          <step>C</step>
          <octave>4</octave>
        </pitch>
        <duration>2</duration>
        <instrument id="P2-I3"/>
        <voice>1</voice>
        <type>quarter</type>
        <stem>down</stem>
      </note>
      <note>
        <pitch>
          <step>F</step>
          <octave>3</octave>
        </pitch>
        <duration>2</duration>
        <instrument id="P2-I3"/>
        <voice>1</voice>
        <type>quarter</type>
        <stem default-y="-41.5">down</stem>
      </note>
      <note>
        <chord/>
        <pitch>
          <step>A</step>
          <octave>3</octave>
        </pitch>
        <duration>2</duration>
        <instrument id="P2-I3"/>
        <voice>1</voice>
        <type>quarter</type>
        <stem>down</stem>
      </note>
    </measure>
    <!--=======================================================-->
    <measure number="8" width="191">
      <print new-system="yes">
        <staff-layout number="1">
          <staff-distance>189</staff-distance>
        </staff-layout>
      </print>
      <attributes>
        <time>
          <beats>2</beats>
          <beat-type>4</beat-type>
        </time>
      </attributes>
      <note default-x="72">
        <pitch>
          <step>G</step>
          <octave>3</octave>
        </pitch>
        <duration>2</duration>
        <instrument id="P2-I3"/>
        <voice>1</voice>
        <type>quarter</type>
        <stem default-y="-36">down</stem>
      </note>
      <note default-x="72">
        <chord/>
        <pitch>
          <step>E</step>
          <octave>4</octave>
        </pitch>
        <duration>2</duration>
        <instrument id="P2-I3"/>
        <voice>1</voice>
        <type>quarter</type>
        <stem>down</stem>
      </note>
      <note default-x="139">
        <pitch>
          <step>G</step>
          <octave>3</octave>
        </pitch>
        <duration>2</duration>
        <instrument id="P2-I3"/>
        <voice>1</voice>
        <type>quarter</type>
        <stem default-y="-36">down</stem>
      </note>
      <note default-x="139">
        <chord/>
        <pitch>
          <step>D</step>
          <octave>4</octave>
        </pitch>
        <duration>2</duration>
        <instrument id="P2-I3"/>
        <voice>1</voice>
        <type>quarter</type>
        <stem>down</stem>
      </note>
    </measure>
    <!--=======================================================-->
    <measure number="9" width="165">
      <attributes>
        <time>
          <beats>4</beats>
          <beat-type>4</beat-type>
        </time>
      </attributes>
      <note default-x="40">
        <pitch>
          <step>A</step>
          <octave>3</octave>
        </pitch>
        <duration>6</duration>
        <instrument id="P2-I3"/>
        <voice>1</voice>
        <type>half</type>
        <dot/>
        <stem default-y="-31">down</stem>
      </note>
      <note default-x="40">
        <chord/>
        <pitch>
          <step>C</step>
          <octave>4</octave>
        </pitch>
        <duration>6</duration>
        <instrument id="P2-I3"/>
        <voice>1</voice>
        <type>half</type>
        <dot/>
        <stem>down</stem>
      </note>
      <note default-x="121">
        <pitch>
          <step>A</step>
          <octave>2</octave>
        </pitch>
        <duration>2</duration>
        <instrument id="P2-I3"/>
        <voice>1</voice>
        <type>quarter</type>
        <stem default-y="-61">down</stem>
      </note>
      <note default-x="121">
        <chord/>
        <pitch>
          <step>C</step>
          <octave>4</octave>
        </pitch>
        <duration>2</duration>
        <instrument id="P2-I3"/>
        <voice>1</voice>
        <type>quarter</type>
        <stem>down</stem>
      </note>
    </measure>
    <!--=======================================================-->
    <measure number="10" width="230">
      <note default-x="19">
        <pitch>
          <step>C</step>
          <octave>3</octave>
        </pitch>
        <duration>2</duration>
        <instrument id="P2-I3"/>
        <voice>1</voice>
        <type>quarter</type>
        <stem default-y="-51">down</stem>
      </note>
      <note default-x="19">
        <chord/>
        <pitch>
          <step>C</step>
          <octave>4</octave>
        </pitch>
        <duration>2</duration>
        <instrument id="P2-I3"/>
        <voice>1</voice>
        <type>quarter</type>
        <stem>down</stem>
      </note>
      <note default-x="74">
        <pitch>
          <step>E</step>
          <octave>3</octave>
        </pitch>
        <duration>2</duration>
        <instrument id="P2-I3"/>
        <voice>1</voice>
        <type>quarter</type>
        <stem default-y="-46">down</stem>
      </note>
      <note default-x="74">
        <chord/>
        <pitch>
          <step>G</step>
          <octave>3</octave>
        </pitch>
        <duration>2</duration>
        <instrument id="P2-I3"/>
        <voice>1</voice>
        <type>quarter</type>
        <stem>down</stem>
      </note>
      <note default-x="128">
        <pitch>
          <step>E</step>
          <octave>3</octave>
        </pitch>
        <duration>2</duration>
        <instrument id="P2-I3"/>
        <voice>1</voice>
        <type>quarter</type>
        <stem default-y="-46">down</stem>
      </note>
      <note default-x="128">
        <chord/>
        <pitch>
          <step>G</step>
          <octave>3</octave>
        </pitch>
        <duration>2</duration>
        <instrument id="P2-I3"/>
        <voice>1</voice>
        <type>quarter</type>
        <stem>down</stem>
      </note>
      <note default-x="180">
        <pitch>
          <step>C</step>
          <octave>3</octave>
        </pitch>
        <duration>2</duration>
        <instrument id="P2-I3"/>
        <voice>1</voice>
        <type>quarter</type>
        <stem default-y="-51">down</stem>
      </note>
      <note default-x="180">
        <chord/>
        <pitch>
          <step>C</step>
          <octave>4</octave>
        </pitch>
        <duration>2</duration>
        <instrument id="P2-I3"/>
        <voice>1</voice>
        <type>quarter</type>
        <stem>down</stem>
      </note>
    </measure>
    <!--=======================================================-->
    <measure number="11" width="172">
      <note default-x="23">
        <pitch>
          <step>C</step>
          <octave>3</octave>
        </pitch>
        <duration>4</duration>
        <instrument id="P2-I3"/>
        <voice>1</voice>
        <type>half</type>
        <stem default-y="-51">down</stem>
      </note>
      <note default-x="23">
        <chord/>
        <pitch>
          <step>G</step>
          <octave>3</octave>
        </pitch>
        <duration>4</duration>
        <instrument id="P2-I3"/>
        <voice>1</voice>
        <type>half</type>
        <stem>down</stem>
      </note>
      <note default-x="99">
        <pitch>
          <step>E</step>
          <octave>3</octave>
        </pitch>
        <duration>4</duration>
        <instrument id="P2-I3"/>
        <voice>1</voice>
        <type>half</type>
        <stem default-y="-46">down</stem>
      </note>
      <note default-x="99">
        <chord/>
        <pitch>
          <step>G</step>
          <octave>3</octave>
        </pitch>
        <duration>4</duration>
        <instrument id="P2-I3"/>
        <voice>1</voice>
        <type>half</type>
        <stem>down</stem>
      </note>
    </measure>
    <!--=======================================================-->
    <measure number="12" width="89">
      <note default-x="22">
        <pitch>
          <step>D</step>
          <octave>3</octave>
        </pitch>
        <duration>6</duration>
        <instrument id="P2-I3"/>
        <voice>1</voice>
        <type>half</type>
        <dot/>
        <stem default-y="-51">down</stem>
      </note>
      <note default-x="22">
        <chord/>
        <pitch>
          <step>F</step>
          <octave>3</octave>
        </pitch>
        <duration>6</duration>
        <instrument id="P2-I3"/>
        <voice>1</voice>
        <type>half</type>
        <dot/>
        <stem>down</stem>
      </note>
      <barline location="right">
        <bar-style>light-heavy</bar-style>
      </barline>
    </measure>
  </part>
  <!--=========================================================-->
</score-partwise>
