<?xml version="1.0" encoding="UTF-8" standalone="no"?>
<!DOCTYPE score-partwise PUBLIC "-//Recordare//DTD MusicXML 3.1 Partwise//EN" "http://www.musicxml.org/dtds/partwise.dtd">
<score-partwise version="3.1">
  <identification>
    <encoding>
      <software>Finale v25 for Windows</software>
      <encoding-date>2020-07-08</encoding-date>
      <supports attribute="new-system" element="print" type="yes" value="yes"/>
      <supports attribute="new-page" element="print" type="yes" value="yes"/>
      <supports element="accidental" type="yes"/>
      <supports element="beam" type="yes"/>
      <supports element="stem" type="yes"/>
    </encoding>
  </identification>
  <defaults>
    <scaling>
      <millimeters>6.35</millimeters>
      <tenths>40</tenths>
    </scaling>
    <page-layout>
      <page-height>1380</page-height>
      <page-width>852</page-width>
      <page-margins type="both">
        <left-margin>0</left-margin>
        <right-margin>0</right-margin>
        <top-margin>0</top-margin>
        <bottom-margin>453</bottom-margin>
      </page-margins>
    </page-layout>
    <system-layout>
      <system-margins>
        <left-margin>5</left-margin>
        <right-margin>0</right-margin>
      </system-margins>
      <system-distance>46</system-distance>
      <top-system-distance>46</top-system-distance>
    </system-layout>
    <staff-layout>
      <staff-distance>108</staff-distance>
    </staff-layout>
    <appearance>
      <line-width type="stem">0.8333</line-width>
      <line-width type="beam">4.1667</line-width>
      <line-width type="staff">0.7096</line-width>
      <line-width type="light barline">0.8333</line-width>
      <line-width type="heavy barline">5</line-width>
      <line-width type="leger">0.7292</line-width>
      <line-width type="ending">0.7682</line-width>
      <line-width type="wedge">0.8333</line-width>
      <line-width type="enclosure">0.8333</line-width>
      <line-width type="tuplet bracket">0.7292</line-width>
      <note-size type="grace">55</note-size>
      <note-size type="cue">55</note-size>
      <distance type="hyphen">83</distance>
      <distance type="beam">8</distance>
    </appearance>
    <music-font font-family="Petrucci2" font-size="18"/>
    <word-font font-family="Palatino Linotype" font-size="9"/>
    <lyric-font font-family="Palatino Linotype" font-size="9"/>
  </defaults>
  <credit page="1">
    <credit-words default-y="453" font-size="7.5" valign="bottom" xml:space="preserve">Music: French traditional carol, c. 1600s; arr. Ralph Vaughan Williams, 1906
Text: </credit-words>
    <credit-words font-size="7.5" font-style="italic">Liturgy of St. James</credit-words>
    <credit-words font-size="7.5" font-style="normal">, tr. Gerard Moultrie, 1864</credit-words>
  </credit>
  <credit page="1">
    <credit-words default-x="852" default-y="453" font-size="7.5" justify="right" valign="bottom" xml:space="preserve">PICARDY
8 7. 8 7. 8 7.</credit-words>
  </credit>
  <part-list>
    <part-group number="1" type="start">
      <group-symbol default-x="-2">line</group-symbol>
      <group-barline>no</group-barline>
    </part-group>
    <score-part id="P1">
      <part-name print-object="no">MusicXML Part</part-name>
      <score-instrument id="P1-I2">
        <instrument-name>SmartMusic SoftSynth</instrument-name>
        <virtual-instrument/>
      </score-instrument>
      <midi-device>SmartMusic SoftSynth</midi-device>
      <midi-instrument id="P1-I2">
        <midi-channel>1</midi-channel>
        <midi-program>58</midi-program>
        <volume>80</volume>
        <pan>0</pan>
      </midi-instrument>
    </score-part>
    <score-part id="P2">
      <part-name print-object="no">MusicXML Part</part-name>
      <score-instrument id="P2-I1">
        <instrument-name>SmartMusic SoftSynth</instrument-name>
        <virtual-instrument/>
      </score-instrument>
      <midi-device>SmartMusic SoftSynth</midi-device>
      <midi-instrument id="P2-I1">
        <midi-channel>2</midi-channel>
        <midi-program>58</midi-program>
        <volume>80</volume>
        <pan>0</pan>
      </midi-instrument>
    </score-part>
    <part-group number="1" type="stop"/>
  </part-list>
  <!--=========================================================-->
  <part id="P1">
    <measure number="1" width="254">
      <print>
        <system-layout>
          <top-system-distance>75</top-system-distance>
        </system-layout>
        <measure-numbering>system</measure-numbering>
      </print>
      <attributes>
        <divisions>2</divisions>
        <key>
          <fifths>-1</fifths>
          <mode>major</mode>
        </key>
        <time>
          <beats>4</beats>
          <beat-type>4</beat-type>
        </time>
        <clef>
          <sign>G</sign>
          <line>2</line>
        </clef>
      </attributes>
      <sound tempo="101"/>
      <direction placement="above">
        <direction-type>
          <words default-x="90" default-y="6" font-size="7.5" font-style="italic" font-weight="bold">unison</words>
        </direction-type>
      </direction>
      <note default-x="90">
        <pitch>
          <step>D</step>
          <octave>4</octave>
        </pitch>
        <duration>2</duration>
        <voice>1</voice>
        <type>quarter</type>
        <stem default-y="-13">up</stem>
        <lyric default-y="-95" number="1">
          <syllabic>single</syllabic>
          <text>1.</text>
          <elision> </elision>
          <syllabic>single</syllabic>
          <text>Let</text>
        </lyric>
        <lyric default-y="-116" number="2">
          <syllabic>single</syllabic>
          <text>2.</text>
          <elision> </elision>
          <syllabic>single</syllabic>
          <text>King</text>
        </lyric>
        <lyric default-y="-137" number="3">
          <syllabic>single</syllabic>
          <text>3.</text>
          <elision> </elision>
          <syllabic>single</syllabic>
          <text>Rank</text>
        </lyric>
        <lyric default-y="-157" number="4">
          <syllabic>single</syllabic>
          <text>4.</text>
          <elision> </elision>
          <syllabic>single</syllabic>
          <text>At</text>
        </lyric>
      </note>
      <note default-x="139">
        <pitch>
          <step>E</step>
          <octave>4</octave>
        </pitch>
        <duration>2</duration>
        <voice>1</voice>
        <type>quarter</type>
        <stem default-y="-8">up</stem>
        <lyric default-y="-95" number="1">
          <syllabic>single</syllabic>
          <text>all</text>
        </lyric>
        <lyric default-y="-116" number="2" relative-x="-2">
          <syllabic>single</syllabic>
          <text>of</text>
        </lyric>
        <lyric default-y="-137" number="3">
          <syllabic>single</syllabic>
          <text>on</text>
        </lyric>
        <lyric default-y="-157" number="4">
          <syllabic>single</syllabic>
          <text>His</text>
        </lyric>
      </note>
      <note default-x="183">
        <pitch>
          <step>F</step>
          <octave>4</octave>
        </pitch>
        <duration>2</duration>
        <voice>1</voice>
        <type>quarter</type>
        <stem default-y="-3">up</stem>
        <lyric default-y="-95" number="1">
          <syllabic>begin</syllabic>
          <text>mor</text>
        </lyric>
        <lyric default-y="-116" number="2" relative-x="-2">
          <syllabic>single</syllabic>
          <text>kings,</text>
        </lyric>
        <lyric default-y="-137" number="3">
          <syllabic>single</syllabic>
          <text>rank,</text>
        </lyric>
        <lyric default-y="-157" number="4">
          <syllabic>single</syllabic>
          <text>feet</text>
        </lyric>
      </note>
      <note default-x="226">
        <pitch>
          <step>G</step>
          <octave>4</octave>
        </pitch>
        <duration>2</duration>
        <voice>1</voice>
        <type>quarter</type>
        <stem default-y="2">up</stem>
        <lyric default-y="-95" number="1">
          <syllabic>end</syllabic>
          <text>tal</text>
        </lyric>
        <lyric default-y="-116" number="2">
          <syllabic>single</syllabic>
          <text>yet</text>
        </lyric>
        <lyric default-y="-137" number="3">
          <syllabic>single</syllabic>
          <text>the</text>
        </lyric>
        <lyric default-y="-157" number="4">
          <syllabic>single</syllabic>
          <text>the</text>
        </lyric>
      </note>
      <backup>
        <duration>8</duration>
      </backup>
      <note default-x="100">
        <pitch>
          <step>A</step>
          <octave>3</octave>
        </pitch>
        <duration>8</duration>
        <tie type="start"/>
        <voice>2</voice>
        <type>whole</type>
        <notations>
          <tied orientation="under" type="start"/>
        </notations>
      </note>
      <note default-x="100">
        <chord/>
        <pitch>
          <step>D</step>
          <octave>4</octave>
        </pitch>
        <duration>8</duration>
        <tie type="start"/>
        <voice>2</voice>
        <type>whole</type>
        <notations>
          <tied orientation="under" type="start"/>
        </notations>
      </note>
    </measure>
    <!--=======================================================-->
    <measure number="2" width="120">
      <note default-x="17">
        <pitch>
          <step>A</step>
          <octave>4</octave>
        </pitch>
        <duration>4</duration>
        <voice>1</voice>
        <type>half</type>
        <stem default-y="7">up</stem>
        <lyric default-y="-95" number="1">
          <syllabic>single</syllabic>
          <text>flesh</text>
        </lyric>
        <lyric default-y="-116" number="2">
          <syllabic>single</syllabic>
          <text>born</text>
        </lyric>
        <lyric default-y="-137" number="3">
          <syllabic>single</syllabic>
          <text>host</text>
        </lyric>
        <lyric default-y="-157" number="4">
          <syllabic>begin</syllabic>
          <text>six</text>
        </lyric>
      </note>
      <note default-x="61">
        <pitch>
          <step>F</step>
          <octave>4</octave>
        </pitch>
        <duration>2</duration>
        <voice>1</voice>
        <type>quarter</type>
        <stem default-y="7">up</stem>
        <notations>
          <slur number="1" placement="above" type="start"/>
        </notations>
        <lyric default-y="-95" number="1" relative-x="8">
          <syllabic>single</syllabic>
          <text>keep</text>
        </lyric>
        <lyric default-y="-116" number="2" relative-x="3">
          <syllabic>single</syllabic>
          <text>of</text>
        </lyric>
        <lyric default-y="-137" number="3" relative-x="3">
          <syllabic>single</syllabic>
          <text>of</text>
        </lyric>
        <lyric default-y="-157" number="4" relative-x="13">
          <syllabic>end</syllabic>
          <text>winged</text>
        </lyric>
      </note>
      <note default-x="61">
        <chord/>
        <pitch>
          <step>A</step>
          <octave>4</octave>
        </pitch>
        <duration>2</duration>
        <voice>1</voice>
        <type>quarter</type>
        <stem>up</stem>
      </note>
      <note default-x="98">
        <pitch>
          <step>E</step>
          <octave>4</octave>
        </pitch>
        <duration>2</duration>
        <voice>1</voice>
        <type>quarter</type>
        <stem default-y="2">up</stem>
        <notations>
          <slur number="1" type="stop"/>
        </notations>
      </note>
      <note default-x="98">
        <chord/>
        <pitch>
          <step>G</step>
          <octave>4</octave>
        </pitch>
        <duration>2</duration>
        <voice>1</voice>
        <type>quarter</type>
        <stem>up</stem>
      </note>
      <backup>
        <duration>8</duration>
      </backup>
      <note default-x="17">
        <pitch>
          <step>A</step>
          <octave>3</octave>
        </pitch>
        <duration>4</duration>
        <tie type="stop"/>
        <voice>2</voice>
        <type>half</type>
        <stem default-y="-80">down</stem>
        <notations>
          <tied type="stop"/>
        </notations>
      </note>
      <note default-x="17">
        <chord/>
        <pitch>
          <step>D</step>
          <octave>4</octave>
        </pitch>
        <duration>4</duration>
        <tie type="stop"/>
        <voice>2</voice>
        <type>half</type>
        <stem>down</stem>
        <notations>
          <tied type="stop"/>
        </notations>
      </note>
      <note default-x="61">
        <pitch>
          <step>D</step>
          <octave>4</octave>
        </pitch>
        <duration>4</duration>
        <voice>2</voice>
        <type>half</type>
        <stem default-y="-71">down</stem>
      </note>
    </measure>
    <!--=======================================================-->
    <measure number="3" width="101">
      <note default-x="17">
        <pitch>
          <step>A</step>
          <octave>4</octave>
        </pitch>
        <duration>4</duration>
        <voice>1</voice>
        <type>half</type>
        <stem default-y="7">up</stem>
        <lyric default-y="-95" number="1" relative-x="-3">
          <syllabic>begin</syllabic>
          <text>si</text>
        </lyric>
        <lyric default-y="-116" number="2">
          <syllabic>begin</syllabic>
          <text>Mar</text>
        </lyric>
        <lyric default-y="-137" number="3">
          <syllabic>begin</syllabic>
          <text>Heav</text>
        </lyric>
        <lyric default-y="-157" number="4">
          <syllabic>begin</syllabic>
          <text>ser</text>
        </lyric>
      </note>
      <note default-x="64">
        <pitch>
          <step>A</step>
          <octave>4</octave>
        </pitch>
        <duration>4</duration>
        <voice>1</voice>
        <type>half</type>
        <stem default-y="7">up</stem>
        <lyric default-y="-95" number="1" relative-x="-5">
          <syllabic>end</syllabic>
          <text>lence</text>
        </lyric>
        <lyric default-y="-116" number="2">
          <syllabic>end</syllabic>
          <text>y,</text>
        </lyric>
        <lyric default-y="-137" number="3">
          <syllabic>end</syllabic>
          <text>en</text>
        </lyric>
        <lyric default-y="-157" number="4">
          <syllabic>end</syllabic>
          <text>aph,</text>
        </lyric>
      </note>
      <backup>
        <duration>8</duration>
      </backup>
      <note default-x="17">
        <pitch>
          <step>C</step>
          <octave>4</octave>
        </pitch>
        <duration>8</duration>
        <voice>2</voice>
        <type>whole</type>
      </note>
      <note default-x="17">
        <chord/>
        <pitch>
          <step>F</step>
          <octave>4</octave>
        </pitch>
        <duration>8</duration>
        <voice>2</voice>
        <type>whole</type>
      </note>
    </measure>
    <!--=======================================================-->
    <measure number="4" width="201">
      <note default-x="24">
        <pitch>
          <step>A</step>
          <octave>4</octave>
        </pitch>
        <duration>2</duration>
        <voice>1</voice>
        <type>quarter</type>
        <stem default-y="7">up</stem>
        <lyric default-y="-95" number="1" relative-x="12">
          <syllabic>single</syllabic>
          <text>And</text>
        </lyric>
        <lyric default-y="-116" number="2" relative-x="12">
          <syllabic>single</syllabic>
          <text>As</text>
        </lyric>
        <lyric default-y="-137" number="3" relative-x="12">
          <syllabic>single</syllabic>
          <text>Spreads</text>
        </lyric>
        <lyric default-y="-157" number="4" relative-x="12">
          <syllabic>begin</syllabic>
          <text>Cher</text>
        </lyric>
      </note>
      <note default-x="72">
        <pitch>
          <step>A</step>
          <octave>4</octave>
        </pitch>
        <duration>2</duration>
        <voice>1</voice>
        <type>quarter</type>
        <stem default-y="7">up</stem>
        <lyric default-y="-95" number="1">
          <syllabic>single</syllabic>
          <text>with</text>
        </lyric>
        <lyric default-y="-116" number="2">
          <syllabic>single</syllabic>
          <text>of</text>
        </lyric>
        <lyric default-y="-137" number="3" relative-x="13">
          <syllabic>single</syllabic>
          <text>its</text>
        </lyric>
        <lyric default-y="-157" number="4">
          <syllabic>middle</syllabic>
          <text>u</text>
        </lyric>
      </note>
      <note default-x="121">
        <pitch>
          <step>B</step>
          <alter>-1</alter>
          <octave>4</octave>
        </pitch>
        <duration>2</duration>
        <voice>1</voice>
        <type>quarter</type>
        <stem default-y="12">up</stem>
        <lyric default-y="-95" number="1">
          <syllabic>single</syllabic>
          <text>fear</text>
        </lyric>
        <lyric default-y="-116" number="2">
          <syllabic>single</syllabic>
          <text>old</text>
        </lyric>
        <lyric default-y="-137" number="3" relative-x="-2">
          <syllabic>begin</syllabic>
          <text>van</text>
        </lyric>
        <lyric default-y="-157" number="4">
          <syllabic>end</syllabic>
          <text>bim</text>
        </lyric>
      </note>
      <note default-x="165">
        <pitch>
          <step>C</step>
          <octave>5</octave>
        </pitch>
        <duration>2</duration>
        <voice>1</voice>
        <type>quarter</type>
        <stem default-y="11">up</stem>
        <lyric default-y="-95" number="1">
          <syllabic>single</syllabic>
          <text>and</text>
        </lyric>
        <lyric default-y="-116" number="2">
          <syllabic>single</syllabic>
          <text>on</text>
        </lyric>
        <lyric default-y="-137" number="3" relative-x="8">
          <syllabic>end</syllabic>
          <text>guard</text>
        </lyric>
        <lyric default-y="-157" number="4">
          <syllabic>single</syllabic>
          <text>with</text>
        </lyric>
      </note>
      <backup>
        <duration>8</duration>
      </backup>
      <note default-x="24">
        <pitch>
          <step>A</step>
          <octave>3</octave>
        </pitch>
        <duration>4</duration>
        <voice>2</voice>
        <type>half</type>
        <stem default-y="-78">down</stem>
      </note>
      <note default-x="24">
        <chord/>
        <pitch>
          <step>F</step>
          <octave>4</octave>
        </pitch>
        <duration>4</duration>
        <voice>2</voice>
        <type>half</type>
        <stem>down</stem>
      </note>
      <note default-x="121">
        <pitch>
          <step>E</step>
          <alter>-1</alter>
          <octave>4</octave>
        </pitch>
        <duration>4</duration>
        <voice>2</voice>
        <type>half</type>
        <accidental>flat</accidental>
        <stem default-y="-66">down</stem>
      </note>
    </measure>
    <!--=======================================================-->
    <measure number="5" width="113">
      <note default-x="19">
        <pitch>
          <step>B</step>
          <alter>-1</alter>
          <octave>4</octave>
        </pitch>
        <duration>4</duration>
        <voice>1</voice>
        <type>half</type>
        <stem default-y="12">up</stem>
        <lyric default-y="-95" number="1">
          <syllabic>begin</syllabic>
          <text>trem</text>
        </lyric>
        <lyric default-y="-116" number="2">
          <syllabic>single</syllabic>
          <text>earth</text>
        </lyric>
        <lyric default-y="-137" number="3">
          <syllabic>single</syllabic>
          <text>on</text>
        </lyric>
        <lyric default-y="-157" number="4">
          <syllabic>begin</syllabic>
          <text>sleep</text>
        </lyric>
      </note>
      <note default-x="59">
        <pitch>
          <step>A</step>
          <octave>4</octave>
        </pitch>
        <duration>2</duration>
        <voice>1</voice>
        <type>quarter</type>
        <stem default-y="7">up</stem>
        <notations>
          <slur number="1" placement="above" type="start"/>
        </notations>
        <lyric default-y="-95" number="1" relative-x="16">
          <syllabic>end</syllabic>
          <text>bling</text>
        </lyric>
        <lyric default-y="-116" number="2" relative-x="12">
          <syllabic>single</syllabic>
          <text>He</text>
        </lyric>
        <lyric default-y="-137" number="3" relative-x="12">
          <syllabic>single</syllabic>
          <text>the</text>
        </lyric>
        <lyric default-y="-157" number="4" relative-x="12">
          <syllabic>end</syllabic>
          <text>less</text>
        </lyric>
      </note>
      <note default-x="92">
        <pitch>
          <step>G</step>
          <octave>4</octave>
        </pitch>
        <duration>2</duration>
        <voice>1</voice>
        <type>quarter</type>
        <stem default-y="2">up</stem>
        <notations>
          <slur number="1" type="stop"/>
        </notations>
      </note>
      <backup>
        <duration>8</duration>
      </backup>
      <note default-x="19">
        <pitch>
          <step>D</step>
          <octave>4</octave>
        </pitch>
        <duration>6</duration>
        <voice>2</voice>
        <type>half</type>
        <dot/>
        <stem default-y="-71">down</stem>
      </note>
      <note default-x="19">
        <chord/>
        <pitch>
          <step>F</step>
          <octave>4</octave>
        </pitch>
        <duration>6</duration>
        <voice>2</voice>
        <type>half</type>
        <dot/>
        <stem>down</stem>
      </note>
      <note default-x="92">
        <pitch>
          <step>E</step>
          <octave>4</octave>
        </pitch>
        <duration>2</duration>
        <voice>2</voice>
        <type>quarter</type>
        <accidental>natural</accidental>
        <stem default-y="-66">down</stem>
      </note>
    </measure>
    <!--=======================================================-->
    <measure number="6" width="59">
      <note default-x="22">
        <pitch>
          <step>A</step>
          <octave>4</octave>
        </pitch>
        <duration>8</duration>
        <voice>1</voice>
        <type>whole</type>
        <lyric default-y="-95" number="1">
          <syllabic>single</syllabic>
          <text>stand;</text>
        </lyric>
        <lyric default-y="-116" number="2">
          <syllabic>single</syllabic>
          <text>stood,</text>
        </lyric>
        <lyric default-y="-137" number="3">
          <syllabic>single</syllabic>
          <text>way</text>
        </lyric>
        <lyric default-y="-157" number="4">
          <syllabic>single</syllabic>
          <text>eye,</text>
        </lyric>
      </note>
      <backup>
        <duration>8</duration>
      </backup>
      <note default-x="22">
        <pitch>
          <step>C</step>
          <alter>1</alter>
          <octave>4</octave>
        </pitch>
        <duration>8</duration>
        <voice>2</voice>
        <type>whole</type>
        <accidental>sharp</accidental>
      </note>
      <note default-x="22">
        <chord/>
        <pitch>
          <step>E</step>
          <octave>4</octave>
        </pitch>
        <duration>8</duration>
        <voice>2</voice>
        <type>whole</type>
      </note>
    </measure>
    <!--=======================================================-->
    <measure number="7" width="234">
      <print new-system="yes"/>
      <note default-x="64">
        <pitch>
          <step>D</step>
          <octave>4</octave>
        </pitch>
        <duration>2</duration>
        <voice>1</voice>
        <type>quarter</type>
        <stem default-y="-13">up</stem>
        <lyric default-y="-95" number="1">
          <syllabic>begin</syllabic>
          <text>Pon</text>
        </lyric>
        <lyric default-y="-116" number="2">
          <syllabic>single</syllabic>
          <text>Lord</text>
        </lyric>
        <lyric default-y="-137" number="3">
          <syllabic>single</syllabic>
          <text>As</text>
        </lyric>
        <lyric default-y="-157" number="4">
          <syllabic>single</syllabic>
          <text>Veil</text>
        </lyric>
      </note>
      <note default-x="112">
        <pitch>
          <step>E</step>
          <octave>4</octave>
        </pitch>
        <duration>2</duration>
        <voice>1</voice>
        <type>quarter</type>
        <stem default-y="-8">up</stem>
        <lyric default-y="-95" number="1">
          <syllabic>end</syllabic>
          <text>der</text>
        </lyric>
        <lyric default-y="-116" number="2">
          <syllabic>single</syllabic>
          <text>of</text>
        </lyric>
        <lyric default-y="-137" number="3">
          <syllabic>single</syllabic>
          <text>the</text>
        </lyric>
        <lyric default-y="-157" number="4">
          <syllabic>single</syllabic>
          <text>their</text>
        </lyric>
      </note>
      <note default-x="162">
        <pitch>
          <step>F</step>
          <octave>4</octave>
        </pitch>
        <duration>2</duration>
        <voice>1</voice>
        <type>quarter</type>
        <stem default-y="-3">up</stem>
        <lyric default-y="-95" number="1" relative-x="-2">
          <syllabic>begin</syllabic>
          <text>noth</text>
        </lyric>
        <lyric default-y="-116" number="2" relative-x="-2">
          <syllabic>single</syllabic>
          <text>lords,</text>
        </lyric>
        <lyric default-y="-137" number="3" relative-x="-2">
          <syllabic>single</syllabic>
          <text>Light</text>
        </lyric>
        <lyric default-y="-157" number="4">
          <syllabic>begin</syllabic>
          <text>fac</text>
        </lyric>
      </note>
      <note default-x="205">
        <pitch>
          <step>G</step>
          <octave>4</octave>
        </pitch>
        <duration>2</duration>
        <voice>1</voice>
        <type>quarter</type>
        <stem default-y="2">up</stem>
        <lyric default-y="-95" number="1">
          <syllabic>end</syllabic>
          <text>ing</text>
        </lyric>
        <lyric default-y="-116" number="2">
          <syllabic>single</syllabic>
          <text>in</text>
        </lyric>
        <lyric default-y="-137" number="3">
          <syllabic>single</syllabic>
          <text>of</text>
        </lyric>
        <lyric default-y="-157" number="4">
          <syllabic>end</syllabic>
          <text>es</text>
        </lyric>
      </note>
      <backup>
        <duration>8</duration>
      </backup>
      <note default-x="74">
        <pitch>
          <step>B</step>
          <alter>-1</alter>
          <octave>3</octave>
        </pitch>
        <duration>8</duration>
        <voice>2</voice>
        <type>whole</type>
      </note>
      <note default-x="74">
        <chord/>
        <pitch>
          <step>D</step>
          <octave>4</octave>
        </pitch>
        <duration>8</duration>
        <voice>2</voice>
        <type>whole</type>
      </note>
    </measure>
    <!--=======================================================-->
    <measure number="8" width="119">
      <note default-x="16">
        <pitch>
          <step>A</step>
          <octave>4</octave>
        </pitch>
        <duration>4</duration>
        <voice>1</voice>
        <type>half</type>
        <stem default-y="7">up</stem>
        <lyric default-y="-95" number="1">
          <syllabic>begin</syllabic>
          <text>earth</text>
        </lyric>
        <lyric default-y="-116" number="2">
          <syllabic>begin</syllabic>
          <text>hu</text>
        </lyric>
        <lyric default-y="-137" number="3">
          <syllabic>single</syllabic>
          <text>light</text>
        </lyric>
        <lyric default-y="-157" number="4">
          <syllabic>single</syllabic>
          <text>to</text>
        </lyric>
      </note>
      <note default-x="64">
        <pitch>
          <step>A</step>
          <octave>4</octave>
        </pitch>
        <duration>2</duration>
        <voice>1</voice>
        <type>quarter</type>
        <stem default-y="7">up</stem>
        <notations>
          <slur number="1" placement="above" type="start"/>
        </notations>
        <lyric default-y="-95" number="1">
          <syllabic>middle</syllabic>
          <text>ly</text>
        </lyric>
        <lyric default-y="-116" number="2">
          <syllabic>end</syllabic>
          <text>man</text>
        </lyric>
        <lyric default-y="-137" number="3">
          <syllabic>begin</syllabic>
          <text>de</text>
        </lyric>
        <lyric default-y="-157" number="4">
          <syllabic>single</syllabic>
          <text>the</text>
        </lyric>
      </note>
      <note default-x="97">
        <pitch>
          <step>G</step>
          <octave>4</octave>
        </pitch>
        <duration>2</duration>
        <voice>1</voice>
        <type>quarter</type>
        <stem default-y="2">up</stem>
        <notations>
          <slur number="1" type="stop"/>
        </notations>
      </note>
      <backup>
        <duration>8</duration>
      </backup>
      <note default-x="16">
        <pitch>
          <step>C</step>
          <octave>4</octave>
        </pitch>
        <duration>4</duration>
        <voice>2</voice>
        <type>half</type>
        <stem default-y="-75.5">down</stem>
      </note>
      <note default-x="16">
        <chord/>
        <pitch>
          <step>F</step>
          <octave>4</octave>
        </pitch>
        <duration>4</duration>
        <voice>2</voice>
        <type>half</type>
        <stem>down</stem>
      </note>
      <note default-x="64">
        <pitch>
          <step>B</step>
          <alter>-1</alter>
          <octave>3</octave>
        </pitch>
        <duration>4</duration>
        <voice>2</voice>
        <type>half</type>
        <stem default-y="-74">down</stem>
      </note>
      <note default-x="64">
        <chord/>
        <pitch>
          <step>D</step>
          <octave>4</octave>
        </pitch>
        <duration>4</duration>
        <voice>2</voice>
        <type>half</type>
        <stem>down</stem>
      </note>
    </measure>
    <!--=======================================================-->
    <measure number="9" width="113">
      <note default-x="22">
        <pitch>
          <step>A</step>
          <octave>4</octave>
        </pitch>
        <duration>4</duration>
        <voice>1</voice>
        <type>half</type>
        <stem default-y="7">up</stem>
        <lyric default-y="-95" number="1">
          <syllabic>middle</syllabic>
          <text>mind</text>
        </lyric>
        <lyric default-y="-116" number="2">
          <syllabic>begin</syllabic>
          <text>ves</text>
        </lyric>
        <lyric default-y="-137" number="3">
          <syllabic>middle</syllabic>
          <text>scend</text>
        </lyric>
        <lyric default-y="-157" number="4">
          <syllabic>begin</syllabic>
          <text>pres</text>
        </lyric>
      </note>
      <note default-x="76">
        <pitch>
          <step>A</step>
          <octave>4</octave>
        </pitch>
        <duration>4</duration>
        <voice>1</voice>
        <type>half</type>
        <stem default-y="7">up</stem>
        <lyric default-y="-95" number="1">
          <syllabic>end</syllabic>
          <text>ed,</text>
        </lyric>
        <lyric default-y="-116" number="2">
          <syllabic>end</syllabic>
          <text>ture,</text>
        </lyric>
        <lyric default-y="-137" number="3">
          <syllabic>end</syllabic>
          <text>eth</text>
        </lyric>
        <lyric default-y="-157" number="4">
          <syllabic>end</syllabic>
          <text>ence</text>
        </lyric>
      </note>
      <backup>
        <duration>8</duration>
      </backup>
      <note default-x="22">
        <pitch>
          <step>D</step>
          <octave>4</octave>
        </pitch>
        <duration>8</duration>
        <voice>2</voice>
        <type>whole</type>
      </note>
      <note default-x="22">
        <chord/>
        <pitch>
          <step>F</step>
          <octave>4</octave>
        </pitch>
        <duration>8</duration>
        <voice>2</voice>
        <type>whole</type>
      </note>
    </measure>
    <!--=======================================================-->
    <measure number="10" width="193">
      <note default-x="20">
        <pitch>
          <step>A</step>
          <octave>4</octave>
        </pitch>
        <duration>2</duration>
        <voice>1</voice>
        <type>quarter</type>
        <stem default-y="7">up</stem>
        <lyric default-y="-95" number="1">
          <syllabic>single</syllabic>
          <text>For</text>
        </lyric>
        <lyric default-y="-116" number="2">
          <syllabic>single</syllabic>
          <text>In</text>
        </lyric>
        <lyric default-y="-137" number="3">
          <syllabic>single</syllabic>
          <text>From</text>
        </lyric>
        <lyric default-y="-157" number="4">
          <syllabic>single</syllabic>
          <text>As</text>
        </lyric>
      </note>
      <note default-x="61">
        <pitch>
          <step>A</step>
          <octave>4</octave>
        </pitch>
        <duration>2</duration>
        <voice>1</voice>
        <type>quarter</type>
        <stem default-y="7">up</stem>
        <lyric default-y="-95" number="1">
          <syllabic>single</syllabic>
          <text>with</text>
        </lyric>
        <lyric default-y="-116" number="2" relative-x="3">
          <syllabic>single</syllabic>
          <text>the</text>
        </lyric>
        <lyric default-y="-137" number="3" relative-x="3">
          <syllabic>single</syllabic>
          <text>the</text>
        </lyric>
        <lyric default-y="-157" number="4">
          <syllabic>single</syllabic>
          <text>with</text>
        </lyric>
      </note>
      <note default-x="116">
        <pitch>
          <step>B</step>
          <alter>-1</alter>
          <octave>4</octave>
        </pitch>
        <duration>2</duration>
        <voice>1</voice>
        <type>quarter</type>
        <stem default-y="12">up</stem>
        <lyric default-y="-95" number="1">
          <syllabic>begin</syllabic>
          <text>bless</text>
        </lyric>
        <lyric default-y="-116" number="2">
          <syllabic>begin</syllabic>
          <text>bod</text>
        </lyric>
        <lyric default-y="-137" number="3">
          <syllabic>single</syllabic>
          <text>realms</text>
        </lyric>
        <lyric default-y="-157" number="4" relative-x="-2">
          <syllabic>begin</syllabic>
          <text>cease</text>
        </lyric>
      </note>
      <note default-x="164">
        <pitch>
          <step>C</step>
          <octave>5</octave>
        </pitch>
        <duration>2</duration>
        <voice>1</voice>
        <type>quarter</type>
        <stem default-y="11">up</stem>
        <lyric default-y="-95" number="1">
          <syllabic>end</syllabic>
          <text>ing</text>
        </lyric>
        <lyric default-y="-116" number="2">
          <syllabic>end</syllabic>
          <text>y</text>
        </lyric>
        <lyric default-y="-137" number="3">
          <syllabic>single</syllabic>
          <text>of</text>
        </lyric>
        <lyric default-y="-157" number="4">
          <syllabic>end</syllabic>
          <text>less</text>
        </lyric>
      </note>
      <backup>
        <duration>8</duration>
      </backup>
      <note default-x="20">
        <pitch>
          <step>A</step>
          <octave>3</octave>
        </pitch>
        <duration>4</duration>
        <voice>2</voice>
        <type>half</type>
        <stem default-y="-78">down</stem>
      </note>
      <note default-x="20">
        <chord/>
        <pitch>
          <step>F</step>
          <octave>4</octave>
        </pitch>
        <duration>4</duration>
        <voice>2</voice>
        <type>half</type>
        <stem>down</stem>
      </note>
      <note default-x="116">
        <pitch>
          <step>E</step>
          <alter>-1</alter>
          <octave>4</octave>
        </pitch>
        <duration>4</duration>
        <voice>2</voice>
        <type>half</type>
        <accidental>flat</accidental>
        <stem default-y="-66">down</stem>
      </note>
    </measure>
    <!--=======================================================-->
    <measure number="11" width="124">
      <note default-x="21">
        <pitch>
          <step>B</step>
          <alter>-1</alter>
          <octave>4</octave>
        </pitch>
        <duration>4</duration>
        <voice>1</voice>
        <type>half</type>
        <stem default-y="12">up</stem>
        <lyric default-y="-95" number="1">
          <syllabic>single</syllabic>
          <text>in</text>
        </lyric>
        <lyric default-y="-116" number="2">
          <syllabic>single</syllabic>
          <text>and</text>
        </lyric>
        <lyric default-y="-137" number="3">
          <syllabic>begin</syllabic>
          <text>end</text>
        </lyric>
        <lyric default-y="-157" number="4">
          <syllabic>single</syllabic>
          <text>voice</text>
        </lyric>
      </note>
      <note default-x="63">
        <pitch>
          <step>A</step>
          <octave>4</octave>
        </pitch>
        <duration>2</duration>
        <voice>1</voice>
        <type>quarter</type>
        <stem default-y="7">up</stem>
        <notations>
          <slur number="1" placement="above" type="start"/>
        </notations>
        <lyric default-y="-95" number="1" relative-x="3">
          <syllabic>single</syllabic>
          <text>His</text>
        </lyric>
        <lyric default-y="-116" number="2" relative-x="3">
          <syllabic>single</syllabic>
          <text>the</text>
        </lyric>
        <lyric default-y="-137" number="3" relative-x="3">
          <syllabic>end</syllabic>
          <text>less</text>
        </lyric>
        <lyric default-y="-157" number="4" relative-x="6">
          <syllabic>single</syllabic>
          <text>they</text>
        </lyric>
      </note>
      <note default-x="98">
        <pitch>
          <step>G</step>
          <octave>4</octave>
        </pitch>
        <duration>2</duration>
        <voice>1</voice>
        <type>quarter</type>
        <stem default-y="2">up</stem>
        <notations>
          <slur number="1" type="stop"/>
        </notations>
      </note>
      <backup>
        <duration>8</duration>
      </backup>
      <note default-x="21">
        <pitch>
          <step>D</step>
          <octave>4</octave>
        </pitch>
        <duration>6</duration>
        <voice>2</voice>
        <type>half</type>
        <dot/>
        <stem default-y="-71">down</stem>
      </note>
      <note default-x="21">
        <chord/>
        <pitch>
          <step>F</step>
          <octave>4</octave>
        </pitch>
        <duration>6</duration>
        <voice>2</voice>
        <type>half</type>
        <dot/>
        <stem>down</stem>
      </note>
      <note default-x="98">
        <pitch>
          <step>E</step>
          <octave>4</octave>
        </pitch>
        <duration>2</duration>
        <voice>2</voice>
        <type>quarter</type>
        <accidental>natural</accidental>
        <stem default-y="-66">down</stem>
      </note>
    </measure>
    <!--=======================================================-->
    <measure number="12" width="65">
      <note default-x="24">
        <pitch>
          <step>A</step>
          <octave>4</octave>
        </pitch>
        <duration>8</duration>
        <voice>1</voice>
        <type>whole</type>
        <lyric default-y="-95" number="1">
          <syllabic>single</syllabic>
          <text>hand,</text>
        </lyric>
        <lyric default-y="-116" number="2">
          <syllabic>single</syllabic>
          <text>blood,</text>
        </lyric>
        <lyric default-y="-137" number="3">
          <syllabic>single</syllabic>
          <text>day,</text>
        </lyric>
        <lyric default-y="-157" number="4">
          <syllabic>single</syllabic>
          <text>cry:</text>
        </lyric>
      </note>
      <backup>
        <duration>8</duration>
      </backup>
      <note default-x="24">
        <pitch>
          <step>C</step>
          <octave>4</octave>
        </pitch>
        <duration>8</duration>
        <voice>2</voice>
        <type>whole</type>
      </note>
      <note default-x="24">
        <chord/>
        <pitch>
          <step>F</step>
          <octave>4</octave>
        </pitch>
        <duration>8</duration>
        <voice>2</voice>
        <type>whole</type>
      </note>
    </measure>
    <!--=======================================================-->
    <measure number="13" width="228">
      <print new-system="yes"/>
      <note default-x="69">
        <pitch>
          <step>A</step>
          <octave>4</octave>
        </pitch>
        <duration>2</duration>
        <voice>1</voice>
        <type>quarter</type>
        <stem default-y="7">up</stem>
        <lyric default-y="-95" number="1">
          <syllabic>single</syllabic>
          <text>Christ</text>
        </lyric>
        <lyric default-y="-116" number="2">
          <syllabic>single</syllabic>
          <text>He</text>
        </lyric>
        <lyric default-y="-137" number="3">
          <syllabic>single</syllabic>
          <text>That</text>
        </lyric>
        <lyric default-y="-157" number="4" relative-x="-5">
          <syllabic>begin</syllabic>
          <text>“Al</text>
        </lyric>
      </note>
      <note default-x="115">
        <pitch>
          <step>A</step>
          <octave>4</octave>
        </pitch>
        <duration>2</duration>
        <voice>1</voice>
        <type>quarter</type>
        <stem default-y="7">up</stem>
        <lyric default-y="-95" number="1" relative-x="3">
          <syllabic>single</syllabic>
          <text>our</text>
        </lyric>
        <lyric default-y="-116" number="2" relative-x="-5">
          <syllabic>single</syllabic>
          <text>will</text>
        </lyric>
        <lyric default-y="-137" number="3" relative-x="-5">
          <syllabic>single</syllabic>
          <text>the</text>
        </lyric>
        <lyric default-y="-157" number="4" relative-x="-5">
          <syllabic>middle</syllabic>
          <text>le</text>
        </lyric>
      </note>
      <note default-x="162">
        <pitch>
          <step>D</step>
          <octave>5</octave>
        </pitch>
        <duration>2</duration>
        <voice>1</voice>
        <type>quarter</type>
        <stem default-y="16">up</stem>
        <lyric default-y="-95" number="1">
          <syllabic>single</syllabic>
          <text>God</text>
        </lyric>
        <lyric default-y="-116" number="2">
          <syllabic>single</syllabic>
          <text>give</text>
        </lyric>
        <lyric default-y="-137" number="3">
          <syllabic>single</syllabic>
          <text>pow’rs</text>
        </lyric>
        <lyric default-y="-157" number="4">
          <syllabic>middle</syllabic>
          <text>lu</text>
        </lyric>
      </note>
      <note default-x="203">
        <pitch>
          <step>A</step>
          <octave>4</octave>
        </pitch>
        <duration>2</duration>
        <voice>1</voice>
        <type>quarter</type>
        <stem default-y="7">up</stem>
        <lyric default-y="-95" number="1">
          <syllabic>single</syllabic>
          <text>to</text>
        </lyric>
        <lyric default-y="-116" number="2">
          <syllabic>single</syllabic>
          <text>to</text>
        </lyric>
        <lyric default-y="-137" number="3" relative-x="3">
          <syllabic>single</syllabic>
          <text>of</text>
        </lyric>
        <lyric default-y="-157" number="4">
          <syllabic>end</syllabic>
          <text>ia,</text>
        </lyric>
      </note>
      <backup>
        <duration>8</duration>
      </backup>
      <note default-x="69">
        <pitch>
          <step>A</step>
          <octave>3</octave>
        </pitch>
        <duration>8</duration>
        <voice>2</voice>
        <type>whole</type>
      </note>
      <note default-x="69">
        <chord/>
        <pitch>
          <step>D</step>
          <octave>4</octave>
        </pitch>
        <duration>8</duration>
        <tie type="start"/>
        <voice>2</voice>
        <type>whole</type>
        <notations>
          <tied orientation="under" type="start"/>
        </notations>
      </note>
    </measure>
    <!--=======================================================-->
    <measure number="14" width="93">
      <note default-x="19">
        <pitch>
          <step>G</step>
          <octave>4</octave>
        </pitch>
        <duration>6</duration>
        <voice>1</voice>
        <type>half</type>
        <dot/>
        <stem default-y="2">up</stem>
        <lyric default-y="-95" number="1">
          <syllabic>single</syllabic>
          <text>earth</text>
        </lyric>
        <lyric default-y="-116" number="2">
          <syllabic>single</syllabic>
          <text>all</text>
        </lyric>
        <lyric default-y="-137" number="3">
          <syllabic>single</syllabic>
          <text>Hell</text>
        </lyric>
        <lyric default-y="-157" number="4">
          <syllabic>begin</syllabic>
          <text>Al</text>
        </lyric>
      </note>
      <note default-x="65">
        <pitch>
          <step>F</step>
          <octave>4</octave>
        </pitch>
        <duration>2</duration>
        <voice>1</voice>
        <type>quarter</type>
        <stem default-y="-3">up</stem>
        <lyric default-y="-95" number="1">
          <syllabic>begin</syllabic>
          <text>de</text>
        </lyric>
        <lyric default-y="-116" number="2">
          <syllabic>single</syllabic>
          <text>the</text>
        </lyric>
        <lyric default-y="-137" number="3">
          <syllabic>single</syllabic>
          <text>may</text>
        </lyric>
        <lyric default-y="-157" number="4">
          <syllabic>middle</syllabic>
          <text>le</text>
        </lyric>
      </note>
      <backup>
        <duration>8</duration>
      </backup>
      <note default-x="19">
        <pitch>
          <step>B</step>
          <alter>-1</alter>
          <octave>3</octave>
        </pitch>
        <duration>8</duration>
        <voice>2</voice>
        <type>whole</type>
      </note>
      <note default-x="19">
        <chord/>
        <pitch>
          <step>D</step>
          <octave>4</octave>
        </pitch>
        <duration>8</duration>
        <tie type="stop"/>
        <voice>2</voice>
        <type>whole</type>
        <notations>
          <tied type="stop"/>
        </notations>
      </note>
    </measure>
    <!--=======================================================-->
    <measure number="15" width="110">
      <note default-x="13">
        <pitch>
          <step>D</step>
          <octave>4</octave>
        </pitch>
        <duration>2</duration>
        <voice>1</voice>
        <type>quarter</type>
        <stem default-y="-13">up</stem>
        <notations>
          <slur bezier-x="9" bezier-y="14" default-x="18" default-y="-13" number="1" placement="above" type="start"/>
        </notations>
        <lyric default-y="-95" number="1" relative-x="13">
          <syllabic>middle</syllabic>
          <text>scend</text>
        </lyric>
        <lyric default-y="-116" number="2" relative-x="8">
          <syllabic>begin</syllabic>
          <text>faith</text>
        </lyric>
        <lyric default-y="-137" number="3" relative-x="4">
          <syllabic>begin</syllabic>
          <text>van</text>
        </lyric>
        <lyric default-y="-157" number="4" relative-x="3">
          <syllabic>middle</syllabic>
          <text>lu</text>
        </lyric>
      </note>
      <note default-x="44">
        <pitch>
          <step>F</step>
          <octave>4</octave>
        </pitch>
        <duration>2</duration>
        <voice>1</voice>
        <type>quarter</type>
        <stem default-y="-3">up</stem>
      </note>
      <note default-x="68">
        <pitch>
          <step>A</step>
          <octave>4</octave>
        </pitch>
        <duration>2</duration>
        <voice>1</voice>
        <type>quarter</type>
        <stem default-y="7">up</stem>
      </note>
      <note default-x="91">
        <pitch>
          <step>F</step>
          <octave>4</octave>
        </pitch>
        <duration>2</duration>
        <voice>1</voice>
        <type>quarter</type>
        <stem default-y="-3">up</stem>
        <notations>
          <slur bezier-x="-12" bezier-y="28" default-x="7" default-y="-3" number="1" type="stop"/>
        </notations>
      </note>
      <backup>
        <duration>8</duration>
      </backup>
      <note default-x="24">
        <pitch>
          <step>D</step>
          <octave>4</octave>
        </pitch>
        <duration>8</duration>
        <voice>2</voice>
        <type>whole</type>
      </note>
    </measure>
    <!--=======================================================-->
    <measure number="16" width="45">
      <note default-x="14">
        <pitch>
          <step>E</step>
          <octave>4</octave>
        </pitch>
        <duration>8</duration>
        <voice>1</voice>
        <type>whole</type>
        <lyric default-y="-95" number="1">
          <syllabic>end</syllabic>
          <text>eth,</text>
        </lyric>
        <lyric default-y="-116" number="2">
          <syllabic>end</syllabic>
          <text>ful</text>
        </lyric>
        <lyric default-y="-137" number="3">
          <syllabic>end</syllabic>
          <text>ish</text>
        </lyric>
        <lyric default-y="-157" number="4">
          <syllabic>end</syllabic>
          <text>ia.</text>
        </lyric>
      </note>
    </measure>
    <!--=======================================================-->
    <measure number="17" width="170">
      <note default-x="14">
        <pitch>
          <step>A</step>
          <octave>4</octave>
        </pitch>
        <duration>2</duration>
        <voice>1</voice>
        <type>quarter</type>
        <stem default-y="7">up</stem>
        <lyric default-y="-95" number="1">
          <syllabic>single</syllabic>
          <text>Our</text>
        </lyric>
        <lyric default-y="-116" number="2">
          <syllabic>single</syllabic>
          <text>His</text>
        </lyric>
        <lyric default-y="-137" number="3">
          <syllabic>single</syllabic>
          <text>As</text>
        </lyric>
        <lyric default-y="-157" number="4">
          <syllabic>begin</syllabic>
          <text>Al</text>
        </lyric>
      </note>
      <note default-x="55">
        <pitch>
          <step>A</step>
          <octave>4</octave>
        </pitch>
        <duration>2</duration>
        <voice>1</voice>
        <type>quarter</type>
        <stem default-y="7">up</stem>
        <lyric default-y="-95" number="1">
          <syllabic>single</syllabic>
          <text>full</text>
        </lyric>
        <lyric default-y="-116" number="2">
          <syllabic>single</syllabic>
          <text>own</text>
        </lyric>
        <lyric default-y="-137" number="3">
          <syllabic>single</syllabic>
          <text>the</text>
        </lyric>
        <lyric default-y="-157" number="4">
          <syllabic>middle</syllabic>
          <text>le</text>
        </lyric>
      </note>
      <note default-x="99">
        <pitch>
          <step>D</step>
          <octave>5</octave>
        </pitch>
        <duration>2</duration>
        <voice>1</voice>
        <type>quarter</type>
        <stem default-y="16">up</stem>
        <lyric default-y="-95" number="1">
          <syllabic>begin</syllabic>
          <text>hom</text>
        </lyric>
        <lyric default-y="-116" number="2">
          <syllabic>single</syllabic>
          <text>self</text>
        </lyric>
        <lyric default-y="-137" number="3" relative-x="-3">
          <syllabic>begin</syllabic>
          <text>dark</text>
        </lyric>
        <lyric default-y="-157" number="4">
          <syllabic>middle</syllabic>
          <text>lu</text>
        </lyric>
      </note>
      <note default-x="144">
        <pitch>
          <step>A</step>
          <octave>4</octave>
        </pitch>
        <duration>2</duration>
        <voice>1</voice>
        <type>quarter</type>
        <stem default-y="7">up</stem>
        <lyric default-y="-95" number="1">
          <syllabic>end</syllabic>
          <text>age</text>
        </lyric>
        <lyric default-y="-116" number="2">
          <syllabic>single</syllabic>
          <text>for</text>
        </lyric>
        <lyric default-y="-137" number="3">
          <syllabic>end</syllabic>
          <text>ness</text>
        </lyric>
        <lyric default-y="-157" number="4">
          <syllabic>end</syllabic>
          <text>ia,</text>
        </lyric>
      </note>
      <backup>
        <duration>8</duration>
      </backup>
      <note default-x="14">
        <pitch>
          <step>A</step>
          <octave>3</octave>
        </pitch>
        <duration>8</duration>
        <voice>2</voice>
        <type>whole</type>
      </note>
      <note default-x="14">
        <chord/>
        <pitch>
          <step>D</step>
          <octave>4</octave>
        </pitch>
        <duration>8</duration>
        <tie type="start"/>
        <voice>2</voice>
        <type>whole</type>
        <notations>
          <tied orientation="over" type="start"/>
        </notations>
      </note>
    </measure>
    <!--=======================================================-->
    <measure number="18" width="130">
      <note default-x="24">
        <pitch>
          <step>G</step>
          <octave>4</octave>
        </pitch>
        <duration>4</duration>
        <voice>1</voice>
        <type>half</type>
        <stem default-y="2">up</stem>
        <lyric default-y="-95" number="1">
          <syllabic>single</syllabic>
          <text>to</text>
        </lyric>
        <lyric default-y="-116" number="2">
          <syllabic>begin</syllabic>
          <text>Heav’n</text>
        </lyric>
        <lyric default-y="-137" number="3">
          <syllabic>single</syllabic>
          <text>clears</text>
        </lyric>
        <lyric default-y="-157" number="4">
          <syllabic>single</syllabic>
          <text>Lord</text>
        </lyric>
      </note>
      <note default-x="75">
        <pitch>
          <step>E</step>
          <octave>4</octave>
        </pitch>
        <duration>2</duration>
        <voice>1</voice>
        <type>quarter</type>
        <stem default-y="-8">up</stem>
        <notations>
          <slur number="1" placement="above" type="start"/>
        </notations>
        <lyric default-y="-95" number="1">
          <syllabic>begin</syllabic>
          <text>de</text>
        </lyric>
        <lyric default-y="-116" number="2" relative-x="3">
          <syllabic>end</syllabic>
          <text>ly</text>
        </lyric>
        <lyric default-y="-137" number="3">
          <syllabic>begin</syllabic>
          <text>a</text>
        </lyric>
        <lyric default-y="-157" number="4" relative-x="5">
          <syllabic>single</syllabic>
          <text>Most</text>
        </lyric>
      </note>
      <note default-x="106">
        <pitch>
          <step>F</step>
          <octave>4</octave>
        </pitch>
        <duration>2</duration>
        <voice>1</voice>
        <type>quarter</type>
        <stem default-y="-3">up</stem>
        <notations>
          <slur number="1" type="stop"/>
        </notations>
      </note>
      <backup>
        <duration>8</duration>
      </backup>
      <note default-x="24">
        <pitch>
          <step>B</step>
          <alter>-1</alter>
          <octave>3</octave>
        </pitch>
        <duration>4</duration>
        <voice>2</voice>
        <type>half</type>
        <stem default-y="-77">down</stem>
      </note>
      <note default-x="24">
        <chord/>
        <pitch>
          <step>D</step>
          <octave>4</octave>
        </pitch>
        <duration>4</duration>
        <tie type="stop"/>
        <voice>2</voice>
        <type>half</type>
        <stem>down</stem>
        <notations>
          <tied type="stop"/>
        </notations>
      </note>
      <note default-x="75">
        <pitch>
          <step>C</step>
          <octave>4</octave>
        </pitch>
        <duration>4</duration>
        <voice>2</voice>
        <type>half</type>
        <stem default-y="-75.5">down</stem>
      </note>
    </measure>
    <!--=======================================================-->
    <measure number="19" width="73">
      <note default-x="23">
        <pitch>
          <step>D</step>
          <octave>4</octave>
        </pitch>
        <duration>8</duration>
        <voice>1</voice>
        <type>whole</type>
        <lyric default-y="-95" number="1">
          <syllabic>end</syllabic>
          <text>mand.</text>
        </lyric>
        <lyric default-y="-116" number="2">
          <syllabic>single</syllabic>
          <text>food.</text>
        </lyric>
        <lyric default-y="-137" number="3">
          <syllabic>end</syllabic>
          <text>way.</text>
        </lyric>
        <lyric default-y="-157" number="4">
          <syllabic>single</syllabic>
          <text>High!”</text>
        </lyric>
      </note>
      <backup>
        <duration>8</duration>
      </backup>
      <note default-x="23">
        <pitch>
          <step>A</step>
          <octave>3</octave>
        </pitch>
        <duration>8</duration>
        <voice>2</voice>
        <type>whole</type>
      </note>
      <barline location="right">
        <bar-style>light-heavy</bar-style>
      </barline>
    </measure>
  </part>
  <!--=========================================================-->
  <part id="P2">
    <measure number="1" width="254">
      <print>
        <staff-layout number="1">
          <staff-distance>144</staff-distance>
        </staff-layout>
        <measure-numbering>none</measure-numbering>
      </print>
      <attributes>
        <divisions>2</divisions>
        <key>
          <fifths>-1</fifths>
          <mode>major</mode>
        </key>
        <time>
          <beats>4</beats>
          <beat-type>4</beat-type>
        </time>
        <clef>
          <sign>F</sign>
          <line>4</line>
        </clef>
      </attributes>
      <sound tempo="101"/>
      <note default-x="90">
        <pitch>
          <step>F</step>
          <octave>3</octave>
        </pitch>
        <duration>8</duration>
        <tie type="start"/>
        <voice>1</voice>
        <type>whole</type>
        <notations>
          <tied orientation="over" type="start"/>
        </notations>
      </note>
      <backup>
        <duration>8</duration>
      </backup>
      <note default-x="90">
        <pitch>
          <step>D</step>
          <octave>3</octave>
        </pitch>
        <duration>8</duration>
        <tie type="start"/>
        <voice>2</voice>
        <type>whole</type>
        <notations>
          <tied orientation="under" type="start"/>
        </notations>
      </note>
    </measure>
    <!--=======================================================-->
    <measure number="2" width="120">
      <note default-x="17">
        <pitch>
          <step>F</step>
          <octave>3</octave>
        </pitch>
        <duration>8</duration>
        <tie type="stop"/>
        <tie type="start"/>
        <voice>1</voice>
        <type>whole</type>
        <notations>
          <tied type="stop"/>
          <tied orientation="over" type="start"/>
        </notations>
      </note>
      <backup>
        <duration>8</duration>
      </backup>
      <note default-x="17">
        <pitch>
          <step>D</step>
          <octave>3</octave>
        </pitch>
        <duration>4</duration>
        <tie type="stop"/>
        <voice>2</voice>
        <type>half</type>
        <stem default-y="-51">down</stem>
        <notations>
          <tied type="stop"/>
        </notations>
      </note>
      <note default-x="61">
        <pitch>
          <step>B</step>
          <alter>-1</alter>
          <octave>2</octave>
        </pitch>
        <duration>4</duration>
        <voice>2</voice>
        <type>half</type>
        <stem default-y="-56">down</stem>
      </note>
    </measure>
    <!--=======================================================-->
    <measure number="3" width="101">
      <note default-x="17">
        <pitch>
          <step>F</step>
          <octave>3</octave>
        </pitch>
        <duration>8</duration>
        <tie type="stop"/>
        <voice>1</voice>
        <type>whole</type>
        <notations>
          <tied type="stop"/>
        </notations>
      </note>
      <backup>
        <duration>8</duration>
      </backup>
      <note default-x="17">
        <pitch>
          <step>F</step>
          <octave>2</octave>
        </pitch>
        <duration>8</duration>
        <voice>2</voice>
        <type>whole</type>
      </note>
    </measure>
    <!--=======================================================-->
    <measure number="4" width="201">
      <note default-x="24">
        <pitch>
          <step>F</step>
          <octave>3</octave>
        </pitch>
        <duration>8</duration>
        <tie type="start"/>
        <voice>1</voice>
        <type>whole</type>
        <notations>
          <tied orientation="over" type="start"/>
        </notations>
      </note>
      <backup>
        <duration>8</duration>
      </backup>
      <note default-x="24">
        <pitch>
          <step>D</step>
          <octave>3</octave>
        </pitch>
        <duration>4</duration>
        <voice>2</voice>
        <type>half</type>
        <stem default-y="-51">down</stem>
      </note>
      <note default-x="121">
        <pitch>
          <step>C</step>
          <octave>3</octave>
        </pitch>
        <duration>2</duration>
        <voice>2</voice>
        <type>quarter</type>
        <stem default-y="-51">down</stem>
      </note>
      <note default-x="165">
        <pitch>
          <step>A</step>
          <octave>2</octave>
        </pitch>
        <duration>2</duration>
        <voice>2</voice>
        <type>quarter</type>
        <stem default-y="-61">down</stem>
      </note>
    </measure>
    <!--=======================================================-->
    <measure number="5" width="113">
      <note default-x="19">
        <pitch>
          <step>F</step>
          <octave>3</octave>
        </pitch>
        <duration>6</duration>
        <tie type="stop"/>
        <voice>1</voice>
        <type>half</type>
        <dot/>
        <stem default-y="16.5">up</stem>
        <notations>
          <tied type="stop"/>
        </notations>
      </note>
      <note default-x="92">
        <pitch>
          <step>E</step>
          <octave>3</octave>
        </pitch>
        <duration>2</duration>
        <voice>1</voice>
        <type>quarter</type>
        <stem default-y="11.5">up</stem>
      </note>
      <backup>
        <duration>8</duration>
      </backup>
      <note default-x="19">
        <pitch>
          <step>B</step>
          <alter>-1</alter>
          <octave>2</octave>
        </pitch>
        <duration>8</duration>
        <voice>2</voice>
        <type>whole</type>
      </note>
    </measure>
    <!--=======================================================-->
    <measure number="6" width="59">
      <note default-x="22">
        <pitch>
          <step>E</step>
          <octave>3</octave>
        </pitch>
        <duration>8</duration>
        <voice>1</voice>
        <type>whole</type>
      </note>
      <backup>
        <duration>8</duration>
      </backup>
      <note default-x="22">
        <pitch>
          <step>A</step>
          <octave>2</octave>
        </pitch>
        <duration>8</duration>
        <voice>2</voice>
        <type>whole</type>
      </note>
    </measure>
    <!--=======================================================-->
    <measure number="7" width="234">
      <print new-system="yes">
        <staff-layout number="1">
          <staff-distance>144</staff-distance>
        </staff-layout>
      </print>
      <note default-x="64">
        <pitch>
          <step>F</step>
          <octave>3</octave>
        </pitch>
        <duration>8</duration>
        <tie type="start"/>
        <voice>1</voice>
        <type>whole</type>
        <notations>
          <tied orientation="over" type="start"/>
        </notations>
      </note>
      <backup>
        <duration>8</duration>
      </backup>
      <note default-x="64">
        <pitch>
          <step>B</step>
          <alter>-1</alter>
          <octave>2</octave>
        </pitch>
        <duration>8</duration>
        <voice>2</voice>
        <type>whole</type>
      </note>
    </measure>
    <!--=======================================================-->
    <measure number="8" width="119">
      <note default-x="16">
        <pitch>
          <step>F</step>
          <octave>3</octave>
        </pitch>
        <duration>6</duration>
        <tie type="stop"/>
        <voice>1</voice>
        <type>half</type>
        <dot/>
        <stem default-y="16.5">up</stem>
        <notations>
          <tied type="stop"/>
        </notations>
      </note>
      <note default-x="97">
        <pitch>
          <step>E</step>
          <octave>3</octave>
        </pitch>
        <duration>2</duration>
        <voice>1</voice>
        <type>quarter</type>
        <stem default-y="11.5">up</stem>
      </note>
      <backup>
        <duration>8</duration>
      </backup>
      <note default-x="16">
        <pitch>
          <step>F</step>
          <octave>2</octave>
        </pitch>
        <duration>4</duration>
        <voice>2</voice>
        <type>half</type>
        <stem default-y="-71">down</stem>
      </note>
      <note default-x="64">
        <pitch>
          <step>G</step>
          <octave>2</octave>
        </pitch>
        <duration>4</duration>
        <voice>2</voice>
        <type>half</type>
        <stem default-y="-66">down</stem>
      </note>
    </measure>
    <!--=======================================================-->
    <measure number="9" width="113">
      <note default-x="22">
        <pitch>
          <step>D</step>
          <octave>3</octave>
        </pitch>
        <duration>8</duration>
        <voice>1</voice>
        <type>whole</type>
      </note>
      <backup>
        <duration>8</duration>
      </backup>
      <note default-x="22">
        <pitch>
          <step>D</step>
          <octave>2</octave>
        </pitch>
        <duration>8</duration>
        <voice>2</voice>
        <type>whole</type>
      </note>
    </measure>
    <!--=======================================================-->
    <measure number="10" width="193">
      <note default-x="20">
        <pitch>
          <step>F</step>
          <octave>3</octave>
        </pitch>
        <duration>8</duration>
        <tie type="start"/>
        <voice>1</voice>
        <type>whole</type>
        <notations>
          <tied orientation="over" type="start"/>
        </notations>
      </note>
      <backup>
        <duration>8</duration>
      </backup>
      <note default-x="20">
        <pitch>
          <step>D</step>
          <octave>3</octave>
        </pitch>
        <duration>4</duration>
        <voice>2</voice>
        <type>half</type>
        <stem default-y="-51">down</stem>
      </note>
      <note default-x="116">
        <pitch>
          <step>C</step>
          <octave>3</octave>
        </pitch>
        <duration>2</duration>
        <voice>2</voice>
        <type>quarter</type>
        <stem default-y="-51">down</stem>
      </note>
      <note default-x="164">
        <pitch>
          <step>A</step>
          <octave>2</octave>
        </pitch>
        <duration>2</duration>
        <voice>2</voice>
        <type>quarter</type>
        <stem default-y="-61">down</stem>
      </note>
    </measure>
    <!--=======================================================-->
    <measure number="11" width="124">
      <note default-x="21">
        <pitch>
          <step>F</step>
          <octave>3</octave>
        </pitch>
        <duration>6</duration>
        <tie type="stop"/>
        <voice>1</voice>
        <type>half</type>
        <dot/>
        <stem default-y="16.5">up</stem>
        <notations>
          <tied type="stop"/>
        </notations>
      </note>
      <note default-x="98">
        <pitch>
          <step>E</step>
          <octave>3</octave>
        </pitch>
        <duration>2</duration>
        <voice>1</voice>
        <type>quarter</type>
        <stem default-y="11.5">up</stem>
      </note>
      <backup>
        <duration>8</duration>
      </backup>
      <note default-x="21">
        <pitch>
          <step>B</step>
          <alter>-1</alter>
          <octave>2</octave>
        </pitch>
        <duration>8</duration>
        <voice>2</voice>
        <type>whole</type>
      </note>
    </measure>
    <!--=======================================================-->
    <measure number="12" width="65">
      <note default-x="24">
        <pitch>
          <step>F</step>
          <octave>3</octave>
        </pitch>
        <duration>8</duration>
        <voice>1</voice>
        <type>whole</type>
      </note>
      <backup>
        <duration>8</duration>
      </backup>
      <note default-x="24">
        <pitch>
          <step>F</step>
          <octave>2</octave>
        </pitch>
        <duration>8</duration>
        <voice>2</voice>
        <type>whole</type>
      </note>
    </measure>
    <!--=======================================================-->
    <measure number="13" width="228">
      <print new-system="yes">
        <staff-layout number="1">
          <staff-distance>150</staff-distance>
        </staff-layout>
      </print>
      <note default-x="69">
        <pitch>
          <step>D</step>
          <octave>3</octave>
        </pitch>
        <duration>8</duration>
        <tie type="start"/>
        <voice>1</voice>
        <type>whole</type>
        <notations>
          <tied orientation="over" type="start"/>
        </notations>
      </note>
      <backup>
        <duration>8</duration>
      </backup>
      <note default-x="69">
        <pitch>
          <step>F</step>
          <alter>1</alter>
          <octave>2</octave>
        </pitch>
        <duration>8</duration>
        <voice>2</voice>
        <type>whole</type>
        <accidental>sharp</accidental>
      </note>
    </measure>
    <!--=======================================================-->
    <measure number="14" width="93">
      <note default-x="19">
        <pitch>
          <step>D</step>
          <octave>3</octave>
        </pitch>
        <duration>8</duration>
        <tie type="stop"/>
        <voice>1</voice>
        <type>whole</type>
        <notations>
          <tied type="stop"/>
        </notations>
      </note>
      <backup>
        <duration>8</duration>
      </backup>
      <note default-x="19">
        <pitch>
          <step>G</step>
          <octave>2</octave>
        </pitch>
        <duration>8</duration>
        <voice>2</voice>
        <type>whole</type>
      </note>
    </measure>
    <!--=======================================================-->
    <measure number="15" width="110">
      <note default-x="13">
        <pitch>
          <step>A</step>
          <octave>3</octave>
        </pitch>
        <duration>6</duration>
        <voice>1</voice>
        <type>half</type>
        <dot/>
        <stem default-y="25">up</stem>
      </note>
      <note default-x="91">
        <pitch>
          <step>B</step>
          <alter>-1</alter>
          <octave>3</octave>
        </pitch>
        <duration>2</duration>
        <voice>1</voice>
        <type>quarter</type>
        <stem default-y="28">up</stem>
      </note>
      <backup>
        <duration>8</duration>
      </backup>
      <note default-x="13">
        <pitch>
          <step>D</step>
          <octave>3</octave>
        </pitch>
        <duration>8</duration>
        <voice>2</voice>
        <type>whole</type>
      </note>
      <note default-x="13">
        <chord/>
        <pitch>
          <step>F</step>
          <octave>3</octave>
        </pitch>
        <duration>8</duration>
        <voice>2</voice>
        <type>whole</type>
      </note>
    </measure>
    <!--=======================================================-->
    <measure number="16" width="45">
      <note default-x="14">
        <pitch>
          <step>C</step>
          <octave>4</octave>
        </pitch>
        <duration>8</duration>
        <voice>1</voice>
        <type>whole</type>
      </note>
      <backup>
        <duration>8</duration>
      </backup>
      <note default-x="14">
        <pitch>
          <step>C</step>
          <octave>3</octave>
        </pitch>
        <duration>8</duration>
        <voice>2</voice>
        <type>whole</type>
      </note>
      <note default-x="14">
        <chord/>
        <pitch>
          <step>G</step>
          <octave>3</octave>
        </pitch>
        <duration>8</duration>
        <voice>2</voice>
        <type>whole</type>
      </note>
    </measure>
    <!--=======================================================-->
    <measure number="17" width="170">
      <note default-x="14">
        <pitch>
          <step>F</step>
          <octave>2</octave>
        </pitch>
        <duration>8</duration>
        <voice>1</voice>
        <type>whole</type>
      </note>
      <note default-x="14">
        <chord/>
        <pitch>
          <step>D</step>
          <octave>3</octave>
        </pitch>
        <duration>8</duration>
        <tie type="start"/>
        <voice>1</voice>
        <type>whole</type>
        <notations>
          <tied orientation="over" type="start"/>
        </notations>
      </note>
    </measure>
    <!--=======================================================-->
    <measure number="18" width="130">
      <note default-x="24">
        <pitch>
          <step>G</step>
          <octave>2</octave>
        </pitch>
        <duration>4</duration>
        <voice>1</voice>
        <type>half</type>
        <stem default-y="-66">down</stem>
      </note>
      <note default-x="24">
        <chord/>
        <pitch>
          <step>D</step>
          <octave>3</octave>
        </pitch>
        <duration>4</duration>
        <tie type="stop"/>
        <voice>1</voice>
        <type>half</type>
        <stem>down</stem>
        <notations>
          <tied type="stop"/>
        </notations>
      </note>
      <backup>
        <duration>4</duration>
      </backup>
      <note default-x="24">
        <pitch>
          <step>G</step>
          <octave>3</octave>
        </pitch>
        <duration>6</duration>
        <voice>3</voice>
        <type>half</type>
        <dot/>
        <stem default-y="21">up</stem>
      </note>
      <backup>
        <duration>2</duration>
      </backup>
      <note default-x="75">
        <pitch>
          <step>C</step>
          <octave>3</octave>
        </pitch>
        <duration>2</duration>
        <voice>1</voice>
        <type>quarter</type>
        <stem default-y="-51">down</stem>
      </note>
      <note default-x="106">
        <pitch>
          <step>A</step>
          <octave>2</octave>
        </pitch>
        <duration>2</duration>
        <voice>1</voice>
        <type>quarter</type>
        <stem default-y="-61">down</stem>
      </note>
      <note default-x="106">
        <chord/>
        <pitch>
          <step>A</step>
          <octave>3</octave>
        </pitch>
        <duration>2</duration>
        <voice>1</voice>
        <type>quarter</type>
        <stem>down</stem>
      </note>
    </measure>
    <!--=======================================================-->
    <measure number="19" width="73">
      <note default-x="23">
        <pitch>
          <step>D</step>
          <octave>2</octave>
        </pitch>
        <duration>8</duration>
        <voice>1</voice>
        <type>whole</type>
      </note>
      <note default-x="23">
        <chord/>
        <pitch>
          <step>D</step>
          <octave>3</octave>
        </pitch>
        <duration>8</duration>
        <voice>1</voice>
        <type>whole</type>
      </note>
      <note default-x="23">
        <chord/>
        <pitch>
          <step>F</step>
          <octave>3</octave>
        </pitch>
        <duration>8</duration>
        <voice>1</voice>
        <type>whole</type>
      </note>
      <barline location="right">
        <bar-style>light-heavy</bar-style>
      </barline>
    </measure>
  </part>
  <!--=========================================================-->
</score-partwise>
