<?xml version="1.0" encoding="UTF-8" standalone="no"?>
<!DOCTYPE score-partwise PUBLIC "-//Recordare//DTD MusicXML 3.1 Partwise//EN" "http://www.musicxml.org/dtds/partwise.dtd">
<score-partwise version="3.1">
  <identification>
    <encoding>
      <software>Finale v25 for Windows</software>
      <encoding-date>2020-07-08</encoding-date>
      <supports attribute="new-system" element="print" type="yes" value="yes"/>
      <supports attribute="new-page" element="print" type="yes" value="yes"/>
      <supports element="accidental" type="yes"/>
      <supports element="beam" type="yes"/>
      <supports element="stem" type="yes"/>
    </encoding>
  </identification>
  <defaults>
    <scaling>
      <millimeters>6.35</millimeters>
      <tenths>40</tenths>
    </scaling>
    <page-layout>
      <page-height>1380</page-height>
      <page-width>852</page-width>
      <page-margins type="both">
        <left-margin>0</left-margin>
        <right-margin>0</right-margin>
        <top-margin>0</top-margin>
        <bottom-margin>392</bottom-margin>
      </page-margins>
    </page-layout>
    <system-layout>
      <system-margins>
        <left-margin>5</left-margin>
        <right-margin>0</right-margin>
      </system-margins>
      <system-distance>54</system-distance>
      <top-system-distance>54</top-system-distance>
    </system-layout>
    <staff-layout>
      <staff-distance>108</staff-distance>
    </staff-layout>
    <appearance>
      <line-width type="stem">0.8333</line-width>
      <line-width type="beam">4.1667</line-width>
      <line-width type="staff">0.7096</line-width>
      <line-width type="light barline">0.8333</line-width>
      <line-width type="heavy barline">5</line-width>
      <line-width type="leger">0.7292</line-width>
      <line-width type="ending">0.7682</line-width>
      <line-width type="wedge">0.8333</line-width>
      <line-width type="enclosure">0.8333</line-width>
      <line-width type="tuplet bracket">0.7292</line-width>
      <note-size type="grace">55</note-size>
      <note-size type="cue">55</note-size>
      <distance type="hyphen">83</distance>
      <distance type="beam">8</distance>
    </appearance>
    <music-font font-family="Petrucci2" font-size="18"/>
    <word-font font-family="Palatino Linotype" font-size="9"/>
    <lyric-font font-family="Palatino Linotype" font-size="9"/>
  </defaults>
  <credit page="1">
    <credit-words default-y="392" font-size="7.5" valign="bottom" xml:space="preserve">Music: Henry Purcell, 1680
Text: Thomas Kelly, 1809</credit-words>
  </credit>
  <credit page="1">
    <credit-words default-x="852" default-y="392" font-size="7.5" justify="right" valign="bottom" xml:space="preserve">WESTMINSTER ABBEY
8 7. 8 7. 4 7. w/ repeats</credit-words>
  </credit>
  <part-list>
    <part-group number="1" type="start">
      <group-symbol default-x="-2">line</group-symbol>
      <group-barline>no</group-barline>
    </part-group>
    <score-part id="P1">
      <part-name print-object="no">MusicXML Part</part-name>
      <score-instrument id="P1-I2">
        <instrument-name>SmartMusic SoftSynth</instrument-name>
        <virtual-instrument/>
      </score-instrument>
      <midi-device>SmartMusic SoftSynth</midi-device>
      <midi-instrument id="P1-I2">
        <midi-channel>1</midi-channel>
        <midi-program>58</midi-program>
        <volume>80</volume>
        <pan>0</pan>
      </midi-instrument>
    </score-part>
    <score-part id="P2">
      <part-name print-object="no">MusicXML Part</part-name>
      <score-instrument id="P2-I1">
        <instrument-name>SmartMusic SoftSynth</instrument-name>
        <virtual-instrument/>
      </score-instrument>
      <midi-device>SmartMusic SoftSynth</midi-device>
      <midi-instrument id="P2-I1">
        <midi-channel>2</midi-channel>
        <midi-program>58</midi-program>
        <volume>80</volume>
        <pan>0</pan>
      </midi-instrument>
    </score-part>
    <part-group number="1" type="stop"/>
  </part-list>
  <!--=========================================================-->
  <part id="P1">
    <measure number="1" width="278">
      <print>
        <system-layout>
          <top-system-distance>75</top-system-distance>
        </system-layout>
        <measure-numbering>system</measure-numbering>
      </print>
      <attributes>
        <divisions>4</divisions>
        <key>
          <fifths>1</fifths>
          <mode>major</mode>
        </key>
        <time>
          <beats>6</beats>
          <beat-type>4</beat-type>
        </time>
        <clef>
          <sign>G</sign>
          <line>2</line>
        </clef>
      </attributes>
      <sound tempo="101"/>
      <note default-x="93">
        <pitch>
          <step>D</step>
          <octave>4</octave>
        </pitch>
        <duration>8</duration>
        <voice>1</voice>
        <type>half</type>
        <stem default-y="12">up</stem>
        <lyric default-y="-99" number="1" relative-x="-7">
          <syllabic>single</syllabic>
          <text>1.</text>
          <elision> </elision>
          <syllabic>single</syllabic>
          <text>Look,</text>
        </lyric>
        <lyric default-y="-120" number="2" relative-x="-7">
          <syllabic>single</syllabic>
          <text>2.</text>
          <elision> </elision>
          <syllabic>single</syllabic>
          <text>Crown</text>
        </lyric>
        <lyric default-y="-141" number="3" relative-x="-7">
          <syllabic>single</syllabic>
          <text>3.</text>
          <elision> </elision>
          <syllabic>begin</syllabic>
          <text>Sin</text>
        </lyric>
        <lyric default-y="-162" number="4" relative-x="-7">
          <syllabic>single</syllabic>
          <text>4.</text>
          <elision> </elision>
          <syllabic>single</syllabic>
          <text>Hark!</text>
        </lyric>
      </note>
      <note default-x="93">
        <chord/>
        <pitch>
          <step>B</step>
          <octave>4</octave>
        </pitch>
        <duration>8</duration>
        <voice>1</voice>
        <type>half</type>
        <stem>up</stem>
      </note>
      <note default-x="139">
        <pitch>
          <step>D</step>
          <octave>4</octave>
        </pitch>
        <duration>4</duration>
        <voice>1</voice>
        <type>quarter</type>
        <stem default-y="16">up</stem>
        <lyric default-y="-99" number="1">
          <syllabic>single</syllabic>
          <text>ye</text>
        </lyric>
        <lyric default-y="-120" number="2" relative-x="10">
          <syllabic>single</syllabic>
          <text>the</text>
        </lyric>
        <lyric default-y="-141" number="3" relative-x="3">
          <syllabic>end</syllabic>
          <text>ners</text>
        </lyric>
        <lyric default-y="-162" number="4" relative-x="6">
          <syllabic>single</syllabic>
          <text>those</text>
        </lyric>
      </note>
      <note default-x="139">
        <chord/>
        <pitch>
          <step>D</step>
          <octave>5</octave>
        </pitch>
        <duration>4</duration>
        <voice>1</voice>
        <type>quarter</type>
        <stem>up</stem>
      </note>
      <note default-x="182">
        <pitch>
          <step>D</step>
          <octave>4</octave>
        </pitch>
        <duration>8</duration>
        <voice>1</voice>
        <type>half</type>
        <stem default-y="12">up</stem>
        <lyric default-y="-99" number="1" relative-x="5">
          <syllabic>single</syllabic>
          <text>saints,</text>
        </lyric>
        <lyric default-y="-120" number="2" relative-x="8">
          <syllabic>begin</syllabic>
          <text>Sav</text>
        </lyric>
        <lyric default-y="-141" number="3" relative-x="5">
          <syllabic>single</syllabic>
          <text>in</text>
        </lyric>
        <lyric default-y="-162" number="4" relative-x="20">
          <syllabic>single</syllabic>
          <text>bursts</text>
        </lyric>
      </note>
      <note default-x="182">
        <chord/>
        <pitch>
          <step>B</step>
          <octave>4</octave>
        </pitch>
        <duration>8</duration>
        <voice>1</voice>
        <type>half</type>
        <stem>up</stem>
      </note>
      <note default-x="227">
        <pitch>
          <step>D</step>
          <octave>4</octave>
        </pitch>
        <duration>4</duration>
        <voice>1</voice>
        <type>quarter</type>
        <stem default-y="2">up</stem>
        <lyric default-y="-99" number="1" relative-x="8">
          <syllabic>single</syllabic>
          <text>the</text>
        </lyric>
        <lyric default-y="-120" number="2" relative-x="8">
          <syllabic>end</syllabic>
          <text>ior,</text>
        </lyric>
        <lyric default-y="-141" number="3" relative-x="8">
          <syllabic>begin</syllabic>
          <text>de</text>
        </lyric>
        <lyric default-y="-162" number="4" relative-x="25">
          <syllabic>single</syllabic>
          <text>of</text>
        </lyric>
      </note>
      <note default-x="227">
        <chord/>
        <pitch>
          <step>G</step>
          <octave>4</octave>
        </pitch>
        <duration>4</duration>
        <voice>1</voice>
        <type>quarter</type>
        <stem>up</stem>
      </note>
    </measure>
    <!--=======================================================-->
    <measure number="2" width="198">
      <note default-x="20">
        <pitch>
          <step>E</step>
          <octave>4</octave>
        </pitch>
        <duration>8</duration>
        <voice>1</voice>
        <type>half</type>
        <stem default-y="11">up</stem>
        <lyric default-y="-99" number="1">
          <syllabic>single</syllabic>
          <text>sight</text>
        </lyric>
        <lyric default-y="-120" number="2" relative-x="-17">
          <syllabic>begin</syllabic>
          <text>an</text>
        </lyric>
        <lyric default-y="-141" number="3" relative-x="-25">
          <syllabic>middle</syllabic>
          <text>ri</text>
        </lyric>
        <lyric default-y="-162" number="4" relative-x="-5">
          <syllabic>begin</syllabic>
          <text>ac</text>
        </lyric>
      </note>
      <note default-x="20">
        <chord/>
        <pitch>
          <step>C</step>
          <octave>5</octave>
        </pitch>
        <duration>8</duration>
        <voice>1</voice>
        <type>half</type>
        <stem>up</stem>
      </note>
      <note default-x="62">
        <pitch>
          <step>E</step>
          <octave>4</octave>
        </pitch>
        <duration>4</duration>
        <voice>1</voice>
        <type>quarter</type>
        <stem default-y="7">up</stem>
        <lyric default-y="-99" number="1">
          <syllabic>single</syllabic>
          <text>is</text>
        </lyric>
        <lyric default-y="-120" number="2" relative-x="-13">
          <syllabic>end</syllabic>
          <text>gels,</text>
        </lyric>
        <lyric default-y="-141" number="3" relative-x="-34">
          <syllabic>end</syllabic>
          <text>sion</text>
        </lyric>
        <lyric default-y="-162" number="4" relative-x="-5">
          <syllabic>middle</syllabic>
          <text>cla</text>
        </lyric>
      </note>
      <note default-x="62">
        <chord/>
        <pitch>
          <step>A</step>
          <octave>4</octave>
        </pitch>
        <duration>4</duration>
        <voice>1</voice>
        <type>quarter</type>
        <stem>up</stem>
      </note>
      <note default-x="105">
        <pitch>
          <step>D</step>
          <octave>4</octave>
        </pitch>
        <duration>8</duration>
        <voice>1</voice>
        <type>half</type>
        <stem default-y="-3">up</stem>
        <lyric default-y="-99" number="1">
          <syllabic>begin</syllabic>
          <text>glo</text>
        </lyric>
        <lyric default-y="-120" number="2" relative-x="-3">
          <syllabic>single</syllabic>
          <text>crown</text>
        </lyric>
        <lyric default-y="-141" number="3" relative-x="-13">
          <syllabic>single</syllabic>
          <text>crowned</text>
        </lyric>
        <lyric default-y="-162" number="4" relative-x="-5">
          <syllabic>middle</syllabic>
          <text>ma</text>
        </lyric>
      </note>
      <note default-x="105">
        <chord/>
        <pitch>
          <step>F</step>
          <alter>1</alter>
          <octave>4</octave>
        </pitch>
        <duration>8</duration>
        <voice>1</voice>
        <type>half</type>
        <stem>up</stem>
      </note>
      <note default-x="147">
        <pitch>
          <step>A</step>
          <octave>3</octave>
        </pitch>
        <duration>4</duration>
        <voice>1</voice>
        <type>quarter</type>
        <stem default-y="-13">up</stem>
        <lyric default-y="-99" number="1" relative-x="8">
          <syllabic>end</syllabic>
          <text>rious:</text>
        </lyric>
        <lyric default-y="-120" number="2" relative-x="12">
          <syllabic>single</syllabic>
          <text>Him;</text>
        </lyric>
        <lyric default-y="-141" number="3" relative-x="12">
          <syllabic>single</syllabic>
          <text>Him,</text>
        </lyric>
        <lyric default-y="-162" number="4" relative-x="8">
          <syllabic>end</syllabic>
          <text>tion!</text>
        </lyric>
      </note>
      <note default-x="147">
        <chord/>
        <pitch>
          <step>D</step>
          <octave>4</octave>
        </pitch>
        <duration>4</duration>
        <voice>1</voice>
        <type>quarter</type>
        <stem>up</stem>
      </note>
    </measure>
    <!--=======================================================-->
    <measure number="3" width="212">
      <note default-x="15">
        <pitch>
          <step>D</step>
          <octave>4</octave>
        </pitch>
        <duration>8</duration>
        <voice>1</voice>
        <type>half</type>
        <stem default-y="2">up</stem>
        <lyric default-y="-99" number="1" relative-x="4">
          <syllabic>single</syllabic>
          <text>See</text>
        </lyric>
        <lyric default-y="-120" number="2" relative-x="4">
          <syllabic>single</syllabic>
          <text>Rich</text>
        </lyric>
        <lyric default-y="-141" number="3" relative-x="4">
          <syllabic>begin</syllabic>
          <text>Mock</text>
        </lyric>
        <lyric default-y="-162" number="4" relative-x="4">
          <syllabic>single</syllabic>
          <text>Hark!</text>
        </lyric>
      </note>
      <note default-x="15">
        <chord/>
        <pitch>
          <step>G</step>
          <octave>4</octave>
        </pitch>
        <duration>8</duration>
        <voice>1</voice>
        <type>half</type>
        <stem>up</stem>
      </note>
      <note default-x="60">
        <pitch>
          <step>C</step>
          <octave>4</octave>
        </pitch>
        <duration>4</duration>
        <voice>1</voice>
        <type>quarter</type>
        <stem default-y="7">up</stem>
        <lyric default-y="-99" number="1" relative-x="4">
          <syllabic>single</syllabic>
          <text>the</text>
        </lyric>
        <lyric default-y="-120" number="2" relative-x="4">
          <syllabic>single</syllabic>
          <text>the</text>
        </lyric>
        <lyric default-y="-141" number="3" relative-x="9">
          <syllabic>end</syllabic>
          <text>ing</text>
        </lyric>
        <lyric default-y="-162" number="4" relative-x="14">
          <syllabic>single</syllabic>
          <text>those</text>
        </lyric>
      </note>
      <note default-x="60">
        <chord/>
        <pitch>
          <step>A</step>
          <octave>4</octave>
        </pitch>
        <duration>4</duration>
        <voice>1</voice>
        <type>quarter</type>
        <stem>up</stem>
      </note>
      <note default-x="100">
        <pitch>
          <step>B</step>
          <octave>4</octave>
        </pitch>
        <duration>6</duration>
        <voice>1</voice>
        <type>quarter</type>
        <dot/>
        <stem default-y="12">up</stem>
        <notations>
          <slur default-y="-2" number="1" placement="above" type="start"/>
          <slur default-y="-71" number="2" placement="below" type="start"/>
        </notations>
        <lyric default-y="-99" number="1" relative-x="5">
          <syllabic>single</syllabic>
          <text>Man</text>
        </lyric>
        <lyric default-y="-120" number="2" relative-x="5">
          <syllabic>begin</syllabic>
          <text>tro</text>
        </lyric>
        <lyric default-y="-141" number="3" relative-x="8">
          <syllabic>single</syllabic>
          <text>thus</text>
        </lyric>
        <lyric default-y="-162" number="4" relative-x="23">
          <syllabic>single</syllabic>
          <text>loud</text>
        </lyric>
      </note>
      <backup>
        <duration>6</duration>
      </backup>
      <note default-x="100">
        <pitch>
          <step>B</step>
          <octave>3</octave>
        </pitch>
        <duration>4</duration>
        <voice>2</voice>
        <type>quarter</type>
        <stem default-y="-77">down</stem>
      </note>
      <note default-x="134">
        <pitch>
          <step>D</step>
          <octave>4</octave>
        </pitch>
        <duration>4</duration>
        <voice>2</voice>
        <type>quarter</type>
        <stem default-y="-71">down</stem>
        <notations>
          <slur default-y="-64" number="2" type="stop"/>
        </notations>
      </note>
      <backup>
        <duration>2</duration>
      </backup>
      <note default-x="152">
        <pitch>
          <step>A</step>
          <octave>4</octave>
        </pitch>
        <duration>2</duration>
        <voice>1</voice>
        <type>eighth</type>
        <stem default-y="7">up</stem>
        <notations>
          <slur default-y="-5" number="1" type="stop"/>
        </notations>
      </note>
      <note default-x="180">
        <pitch>
          <step>C</step>
          <alter>1</alter>
          <octave>4</octave>
        </pitch>
        <duration>4</duration>
        <voice>1</voice>
        <type>quarter</type>
        <accidental>sharp</accidental>
        <stem default-y="2">up</stem>
        <lyric default-y="-99" number="1">
          <syllabic>single</syllabic>
          <text>of</text>
        </lyric>
        <lyric default-y="-120" number="2">
          <syllabic>end</syllabic>
          <text>phies</text>
        </lyric>
        <lyric default-y="-141" number="3">
          <syllabic>single</syllabic>
          <text>the</text>
        </lyric>
        <lyric default-y="-162" number="4">
          <syllabic>begin</syllabic>
          <text>tri</text>
        </lyric>
      </note>
      <note default-x="180">
        <chord/>
        <pitch>
          <step>G</step>
          <octave>4</octave>
        </pitch>
        <duration>4</duration>
        <voice>1</voice>
        <type>quarter</type>
        <stem>up</stem>
      </note>
    </measure>
    <!--=======================================================-->
    <measure number="4" width="159">
      <note default-x="13">
        <pitch>
          <step>F</step>
          <alter>1</alter>
          <octave>4</octave>
        </pitch>
        <duration>4</duration>
        <voice>1</voice>
        <type>quarter</type>
        <stem default-y="-3">up</stem>
        <lyric default-y="-99" number="1">
          <syllabic>begin</syllabic>
          <text>Sor</text>
        </lyric>
        <lyric default-y="-120" number="2">
          <syllabic>begin</syllabic>
          <text>Je</text>
        </lyric>
        <lyric default-y="-141" number="3">
          <syllabic>begin</syllabic>
          <text>Sav</text>
        </lyric>
        <lyric default-y="-162" number="4" relative-x="-10">
          <syllabic>middle</syllabic>
          <text>um</text>
        </lyric>
      </note>
      <backup>
        <duration>4</duration>
      </backup>
      <note default-x="13">
        <pitch>
          <step>D</step>
          <octave>4</octave>
        </pitch>
        <duration>8</duration>
        <voice>2</voice>
        <type>half</type>
        <stem default-y="-71">down</stem>
      </note>
      <note default-x="87">
        <pitch>
          <step>C</step>
          <alter>1</alter>
          <octave>4</octave>
        </pitch>
        <duration>4</duration>
        <voice>2</voice>
        <type>quarter</type>
        <accidental>sharp</accidental>
        <stem default-y="-76">down</stem>
      </note>
      <backup>
        <duration>8</duration>
      </backup>
      <note default-x="59">
        <pitch>
          <step>E</step>
          <octave>4</octave>
        </pitch>
        <duration>8</duration>
        <voice>1</voice>
        <type>half</type>
        <stem default-y="-8">up</stem>
        <lyric default-y="-99" number="1" relative-x="3">
          <syllabic>end</syllabic>
          <text>rows</text>
        </lyric>
        <lyric default-y="-120" number="2">
          <syllabic>end</syllabic>
          <text>sus</text>
        </lyric>
        <lyric default-y="-141" number="3">
          <syllabic>end</syllabic>
          <text>ior’s</text>
        </lyric>
        <lyric default-y="-162" number="4" relative-x="-7">
          <syllabic>end</syllabic>
          <text>phant</text>
        </lyric>
      </note>
      <note default-x="115">
        <pitch>
          <step>D</step>
          <octave>4</octave>
        </pitch>
        <duration>12</duration>
        <voice>1</voice>
        <type>half</type>
        <dot/>
        <stem>double</stem>
        <lyric default-y="-99" number="1">
          <syllabic>single</syllabic>
          <text>now;</text>
        </lyric>
        <lyric default-y="-120" number="2">
          <syllabic>single</syllabic>
          <text>brings;</text>
        </lyric>
        <lyric default-y="-141" number="3">
          <syllabic>single</syllabic>
          <text>claim;</text>
        </lyric>
        <lyric default-y="-162" number="4">
          <syllabic>single</syllabic>
          <text>chords!</text>
        </lyric>
      </note>
    </measure>
    <!--=======================================================-->
    <measure number="5" width="246">
      <print new-system="yes"/>
      <note default-x="62">
        <pitch>
          <step>D</step>
          <octave>4</octave>
        </pitch>
        <duration>8</duration>
        <voice>1</voice>
        <type>half</type>
        <stem default-y="-3">up</stem>
        <lyric default-y="-99" number="1">
          <syllabic>single</syllabic>
          <text>From</text>
        </lyric>
        <lyric default-y="-120" number="2">
          <syllabic>single</syllabic>
          <text>In</text>
        </lyric>
        <lyric default-y="-141" number="3">
          <syllabic>single</syllabic>
          <text>Saints</text>
        </lyric>
        <lyric default-y="-162" number="4">
          <syllabic>begin</syllabic>
          <text>Je</text>
        </lyric>
      </note>
      <note default-x="62">
        <chord/>
        <pitch>
          <step>F</step>
          <alter>1</alter>
          <octave>4</octave>
        </pitch>
        <duration>8</duration>
        <voice>1</voice>
        <type>half</type>
        <stem>up</stem>
      </note>
      <note default-x="112">
        <pitch>
          <step>E</step>
          <octave>4</octave>
        </pitch>
        <duration>4</duration>
        <voice>1</voice>
        <type>quarter</type>
        <stem default-y="7">up</stem>
        <lyric default-y="-99" number="1">
          <syllabic>single</syllabic>
          <text>the</text>
        </lyric>
        <lyric default-y="-120" number="2">
          <syllabic>single</syllabic>
          <text>the</text>
        </lyric>
        <lyric default-y="-141" number="3">
          <syllabic>single</syllabic>
          <text>and</text>
        </lyric>
        <lyric default-y="-162" number="4">
          <syllabic>end</syllabic>
          <text>sus</text>
        </lyric>
      </note>
      <note default-x="112">
        <chord/>
        <pitch>
          <step>A</step>
          <octave>4</octave>
        </pitch>
        <duration>4</duration>
        <voice>1</voice>
        <type>quarter</type>
        <stem>up</stem>
      </note>
      <note default-x="152">
        <pitch>
          <step>D</step>
          <octave>4</octave>
        </pitch>
        <duration>8</duration>
        <voice>1</voice>
        <type>half</type>
        <stem default-y="-3">up</stem>
        <lyric default-y="-99" number="1">
          <syllabic>single</syllabic>
          <text>fight</text>
        </lyric>
        <lyric default-y="-120" number="2">
          <syllabic>single</syllabic>
          <text>seat</text>
        </lyric>
        <lyric default-y="-141" number="3">
          <syllabic>begin</syllabic>
          <text>an</text>
        </lyric>
        <lyric default-y="-162" number="4">
          <syllabic>single</syllabic>
          <text>takes</text>
        </lyric>
      </note>
      <note default-x="152">
        <chord/>
        <pitch>
          <step>F</step>
          <alter>1</alter>
          <octave>4</octave>
        </pitch>
        <duration>8</duration>
        <voice>1</voice>
        <type>half</type>
        <stem>up</stem>
      </note>
      <note default-x="195">
        <pitch>
          <step>A</step>
          <octave>3</octave>
        </pitch>
        <duration>4</duration>
        <voice>1</voice>
        <type>quarter</type>
        <stem default-y="-13">up</stem>
        <lyric default-y="-99" number="1">
          <syllabic>begin</syllabic>
          <text>re</text>
        </lyric>
        <lyric default-y="-120" number="2">
          <syllabic>single</syllabic>
          <text>of</text>
        </lyric>
        <lyric default-y="-141" number="3">
          <syllabic>end</syllabic>
          <text>gels</text>
        </lyric>
        <lyric default-y="-162" number="4">
          <syllabic>single</syllabic>
          <text>the</text>
        </lyric>
      </note>
      <note default-x="195">
        <chord/>
        <pitch>
          <step>D</step>
          <octave>4</octave>
        </pitch>
        <duration>4</duration>
        <voice>1</voice>
        <type>quarter</type>
        <stem>up</stem>
      </note>
    </measure>
    <!--=======================================================-->
    <measure number="6" width="188">
      <note default-x="17">
        <pitch>
          <step>B</step>
          <octave>3</octave>
        </pitch>
        <duration>8</duration>
        <voice>1</voice>
        <type>half</type>
        <stem default-y="2">up</stem>
        <lyric default-y="-99" number="1">
          <syllabic>end</syllabic>
          <text>turned</text>
        </lyric>
        <lyric default-y="-120" number="2">
          <syllabic>single</syllabic>
          <text>pow’r</text>
        </lyric>
        <lyric default-y="-141" number="3">
          <syllabic>single</syllabic>
          <text>crowd</text>
        </lyric>
        <lyric default-y="-162" number="4">
          <syllabic>begin</syllabic>
          <text>high</text>
        </lyric>
      </note>
      <note default-x="17">
        <chord/>
        <pitch>
          <step>G</step>
          <octave>4</octave>
        </pitch>
        <duration>8</duration>
        <voice>1</voice>
        <type>half</type>
        <stem>up</stem>
      </note>
      <note default-x="75">
        <pitch>
          <step>C</step>
          <octave>4</octave>
        </pitch>
        <duration>4</duration>
        <voice>1</voice>
        <type>quarter</type>
        <stem default-y="7">up</stem>
        <lyric default-y="-99" number="1">
          <syllabic>begin</syllabic>
          <text>vic</text>
        </lyric>
        <lyric default-y="-120" number="2" relative-x="-13">
          <syllabic>single</syllabic>
          <text>en</text>
        </lyric>
        <lyric default-y="-141" number="3" relative-x="-10">
          <syllabic>single</syllabic>
          <text>a</text>
        </lyric>
        <lyric default-y="-162" number="4">
          <syllabic>end</syllabic>
          <text>est</text>
        </lyric>
      </note>
      <note default-x="75">
        <chord/>
        <pitch>
          <step>A</step>
          <octave>4</octave>
        </pitch>
        <duration>4</duration>
        <voice>1</voice>
        <type>quarter</type>
        <stem>up</stem>
      </note>
      <note default-x="112">
        <pitch>
          <step>D</step>
          <octave>4</octave>
        </pitch>
        <duration>8</duration>
        <voice>1</voice>
        <type>half</type>
        <stem default-y="12">up</stem>
        <lyric default-y="-99" number="1">
          <syllabic>middle</syllabic>
          <text>to</text>
        </lyric>
        <lyric default-y="-120" number="2" relative-x="-12">
          <syllabic>single</syllabic>
          <text>throne</text>
        </lyric>
        <lyric default-y="-141" number="3" relative-x="-14">
          <syllabic>single</syllabic>
          <text>round</text>
        </lyric>
        <lyric default-y="-162" number="4">
          <syllabic>begin</syllabic>
          <text>sta</text>
        </lyric>
      </note>
      <note default-x="112">
        <chord/>
        <pitch>
          <step>B</step>
          <octave>4</octave>
        </pitch>
        <duration>8</duration>
        <voice>1</voice>
        <type>half</type>
        <stem>up</stem>
      </note>
      <note default-x="155">
        <pitch>
          <step>D</step>
          <octave>4</octave>
        </pitch>
        <duration>4</duration>
        <voice>1</voice>
        <type>quarter</type>
        <stem default-y="2">up</stem>
        <lyric default-y="-99" number="1">
          <syllabic>end</syllabic>
          <text>rious,</text>
        </lyric>
        <lyric default-y="-120" number="2">
          <syllabic>single</syllabic>
          <text>Him,</text>
        </lyric>
        <lyric default-y="-141" number="3">
          <syllabic>single</syllabic>
          <text>Him,</text>
        </lyric>
        <lyric default-y="-162" number="4">
          <syllabic>end</syllabic>
          <text>tion;</text>
        </lyric>
      </note>
      <note default-x="155">
        <chord/>
        <pitch>
          <step>G</step>
          <octave>4</octave>
        </pitch>
        <duration>4</duration>
        <voice>1</voice>
        <type>quarter</type>
        <stem>up</stem>
      </note>
    </measure>
    <!--=======================================================-->
    <measure number="7" width="256">
      <note default-x="13">
        <pitch>
          <step>C</step>
          <octave>5</octave>
        </pitch>
        <duration>8</duration>
        <voice>1</voice>
        <type>half</type>
        <stem default-y="11">up</stem>
        <notations>
          <slur default-y="-66" number="1" placement="below" relative-x="9" type="start"/>
        </notations>
        <lyric default-y="-99" number="1" relative-x="14">
          <syllabic>begin</syllabic>
          <text>Ev</text>
        </lyric>
        <lyric default-y="-120" number="2" relative-x="14">
          <syllabic>single</syllabic>
          <text>While</text>
        </lyric>
        <lyric default-y="-141" number="3" relative-x="14">
          <syllabic>single</syllabic>
          <text>Own</text>
        </lyric>
        <lyric default-y="-162" number="4" relative-x="14">
          <syllabic>single</syllabic>
          <text>Oh,</text>
        </lyric>
      </note>
      <backup>
        <duration>8</duration>
      </backup>
      <note default-x="13">
        <pitch>
          <step>E</step>
          <octave>4</octave>
        </pitch>
        <duration>4</duration>
        <voice>2</voice>
        <type>quarter</type>
        <stem default-y="-66">down</stem>
      </note>
      <note default-x="39">
        <pitch>
          <step>F</step>
          <alter>1</alter>
          <octave>4</octave>
        </pitch>
        <duration>2</duration>
        <voice>2</voice>
        <type>eighth</type>
        <stem default-y="-66">down</stem>
        <beam number="1">begin</beam>
      </note>
      <note default-x="62">
        <pitch>
          <step>G</step>
          <octave>4</octave>
        </pitch>
        <duration>2</duration>
        <voice>2</voice>
        <type>eighth</type>
        <stem default-y="-61">down</stem>
        <beam number="1">end</beam>
        <notations>
          <slur default-y="-68" number="1" type="stop"/>
        </notations>
      </note>
      <note default-x="82">
        <pitch>
          <step>F</step>
          <alter>1</alter>
          <octave>4</octave>
        </pitch>
        <duration>4</duration>
        <voice>1</voice>
        <type>quarter</type>
        <stem default-y="12">up</stem>
        <lyric default-y="-99" number="1">
          <syllabic>end</syllabic>
          <text>’ry</text>
        </lyric>
        <lyric default-y="-120" number="2">
          <syllabic>single</syllabic>
          <text>the</text>
        </lyric>
        <lyric default-y="-141" number="3">
          <syllabic>single</syllabic>
          <text>His</text>
        </lyric>
        <lyric default-y="-162" number="4">
          <syllabic>single</syllabic>
          <text>what</text>
        </lyric>
      </note>
      <note default-x="82">
        <chord/>
        <pitch>
          <step>B</step>
          <octave>4</octave>
        </pitch>
        <duration>4</duration>
        <voice>1</voice>
        <type>quarter</type>
        <stem>up</stem>
      </note>
      <note default-x="131">
        <pitch>
          <step>A</step>
          <octave>4</octave>
        </pitch>
        <duration>6</duration>
        <voice>1</voice>
        <type>quarter</type>
        <dot/>
        <stem default-y="7">up</stem>
        <notations>
          <slur default-y="-76" number="2" placement="below" type="start"/>
        </notations>
        <lyric default-y="-99" number="1">
          <syllabic>single</syllabic>
          <text>knee</text>
        </lyric>
        <lyric default-y="-120" number="2">
          <syllabic>single</syllabic>
          <text>vault</text>
        </lyric>
        <lyric default-y="-141" number="3">
          <syllabic>begin</syllabic>
          <text>ti</text>
        </lyric>
        <lyric default-y="-162" number="4">
          <syllabic>single</syllabic>
          <text>joy</text>
        </lyric>
      </note>
      <backup>
        <duration>6</duration>
      </backup>
      <note default-x="131">
        <pitch>
          <step>E</step>
          <octave>4</octave>
        </pitch>
        <duration>2</duration>
        <voice>2</voice>
        <type>eighth</type>
        <stem default-y="-71">down</stem>
        <beam number="1">begin</beam>
      </note>
      <note default-x="157">
        <pitch>
          <step>D</step>
          <octave>4</octave>
        </pitch>
        <duration>2</duration>
        <voice>2</voice>
        <type>eighth</type>
        <stem default-y="-76">down</stem>
        <beam number="1">end</beam>
        <notations>
          <slur default-y="-5" number="3" placement="above" type="start"/>
        </notations>
      </note>
      <note default-x="179">
        <pitch>
          <step>E</step>
          <octave>4</octave>
        </pitch>
        <duration>4</duration>
        <voice>2</voice>
        <type>quarter</type>
        <stem default-y="-66">down</stem>
        <notations>
          <slur default-y="-70" number="2" type="stop"/>
        </notations>
      </note>
      <backup>
        <duration>2</duration>
      </backup>
      <note default-x="199">
        <pitch>
          <step>B</step>
          <octave>4</octave>
        </pitch>
        <duration>2</duration>
        <voice>1</voice>
        <type>eighth</type>
        <stem default-y="12">up</stem>
        <notations>
          <slur default-y="0" number="3" type="stop"/>
        </notations>
      </note>
      <note default-x="226">
        <pitch>
          <step>B</step>
          <octave>3</octave>
        </pitch>
        <duration>4</duration>
        <voice>1</voice>
        <type>quarter</type>
        <stem default-y="2">up</stem>
        <lyric default-y="-99" number="1">
          <syllabic>single</syllabic>
          <text>to</text>
        </lyric>
        <lyric default-y="-120" number="2">
          <syllabic>single</syllabic>
          <text>of</text>
        </lyric>
        <lyric default-y="-141" number="3">
          <syllabic>end</syllabic>
          <text>tle,</text>
        </lyric>
        <lyric default-y="-162" number="4">
          <syllabic>single</syllabic>
          <text>the</text>
        </lyric>
      </note>
      <note default-x="226">
        <chord/>
        <pitch>
          <step>G</step>
          <octave>4</octave>
        </pitch>
        <duration>4</duration>
        <voice>1</voice>
        <type>quarter</type>
        <stem>up</stem>
      </note>
    </measure>
    <!--=======================================================-->
    <measure number="8" width="158">
      <note default-x="14">
        <pitch>
          <step>C</step>
          <octave>4</octave>
        </pitch>
        <duration>4</duration>
        <voice>1</voice>
        <type>quarter</type>
        <stem default-y="-76">down</stem>
        <lyric default-y="-99" number="1">
          <syllabic>single</syllabic>
          <text>Him</text>
        </lyric>
        <lyric default-y="-120" number="2">
          <syllabic>begin</syllabic>
          <text>heav</text>
        </lyric>
        <lyric default-y="-141" number="3" relative-x="3">
          <syllabic>single</syllabic>
          <text>praise</text>
        </lyric>
        <lyric default-y="-162" number="4" relative-x="4">
          <syllabic>single</syllabic>
          <text>sight</text>
        </lyric>
      </note>
      <backup>
        <duration>4</duration>
      </backup>
      <note default-x="14">
        <pitch>
          <step>G</step>
          <octave>4</octave>
        </pitch>
        <duration>2</duration>
        <voice>2</voice>
        <type>eighth</type>
        <stem default-y="1">up</stem>
        <beam number="1">begin</beam>
      </note>
      <note default-x="40">
        <pitch>
          <step>F</step>
          <alter>1</alter>
          <octave>4</octave>
        </pitch>
        <duration>2</duration>
        <voice>2</voice>
        <type>eighth</type>
        <stem default-y="-4">up</stem>
        <beam number="1">end</beam>
      </note>
      <note default-x="65">
        <pitch>
          <step>B</step>
          <octave>3</octave>
        </pitch>
        <duration>8</duration>
        <voice>1</voice>
        <type>half</type>
        <stem default-y="-3">up</stem>
        <lyric default-y="-99" number="1">
          <syllabic>single</syllabic>
          <text>shall</text>
        </lyric>
        <lyric default-y="-120" number="2">
          <syllabic>end</syllabic>
          <text>en</text>
        </lyric>
        <lyric default-y="-141" number="3">
          <syllabic>single</syllabic>
          <text>His</text>
        </lyric>
        <lyric default-y="-162" number="4">
          <syllabic>begin</syllabic>
          <text>af</text>
        </lyric>
      </note>
      <note default-x="65">
        <chord/>
        <pitch>
          <step>F</step>
          <alter>1</alter>
          <octave>4</octave>
        </pitch>
        <duration>8</duration>
        <voice>1</voice>
        <type>half</type>
        <stem>up</stem>
      </note>
      <note default-x="116">
        <pitch>
          <step>B</step>
          <octave>3</octave>
        </pitch>
        <duration>12</duration>
        <voice>1</voice>
        <type>half</type>
        <dot/>
        <stem default-y="-8">up</stem>
        <lyric default-y="-99" number="1">
          <syllabic>single</syllabic>
          <text>bow.</text>
        </lyric>
        <lyric default-y="-120" number="2">
          <syllabic>single</syllabic>
          <text>rings.</text>
        </lyric>
        <lyric default-y="-141" number="3">
          <syllabic>single</syllabic>
          <text>name.</text>
        </lyric>
        <lyric default-y="-162" number="4">
          <syllabic>end</syllabic>
          <text>fords!</text>
        </lyric>
      </note>
      <note default-x="116">
        <chord/>
        <pitch>
          <step>E</step>
          <octave>4</octave>
        </pitch>
        <duration>12</duration>
        <voice>1</voice>
        <type>half</type>
        <dot/>
        <stem>up</stem>
      </note>
    </measure>
    <!--=======================================================-->
    <measure number="9" width="263">
      <print new-system="yes"/>
      <note default-x="62">
        <pitch>
          <step>E</step>
          <octave>4</octave>
        </pitch>
        <duration>8</duration>
        <voice>1</voice>
        <type>half</type>
        <stem default-y="2">up</stem>
      </note>
      <note default-x="62">
        <chord/>
        <pitch>
          <step>G</step>
          <alter>1</alter>
          <octave>4</octave>
        </pitch>
        <duration>8</duration>
        <voice>1</voice>
        <type>half</type>
        <accidental>sharp</accidental>
        <stem>up</stem>
      </note>
      <note default-x="112">
        <pitch>
          <step>E</step>
          <octave>4</octave>
        </pitch>
        <duration>4</duration>
        <voice>1</voice>
        <type>quarter</type>
        <stem default-y="2">up</stem>
      </note>
      <note default-x="112">
        <chord/>
        <pitch>
          <step>G</step>
          <alter>1</alter>
          <octave>4</octave>
        </pitch>
        <duration>4</duration>
        <voice>1</voice>
        <type>quarter</type>
        <stem>up</stem>
      </note>
      <note default-x="162">
        <pitch>
          <step>E</step>
          <octave>4</octave>
        </pitch>
        <duration>8</duration>
        <voice>1</voice>
        <type>half</type>
        <stem default-y="7">up</stem>
      </note>
      <note default-x="162">
        <chord/>
        <pitch>
          <step>A</step>
          <octave>4</octave>
        </pitch>
        <duration>8</duration>
        <voice>1</voice>
        <type>half</type>
        <stem>up</stem>
      </note>
      <note default-x="218">
        <pitch>
          <step>E</step>
          <octave>4</octave>
        </pitch>
        <duration>4</duration>
        <voice>1</voice>
        <type>quarter</type>
        <stem default-y="7">up</stem>
      </note>
      <note default-x="218">
        <chord/>
        <pitch>
          <step>A</step>
          <octave>4</octave>
        </pitch>
        <duration>4</duration>
        <voice>1</voice>
        <type>quarter</type>
        <stem>up</stem>
      </note>
    </measure>
    <!--=======================================================-->
    <measure number="10" width="238">
      <note default-x="10">
        <pitch>
          <step>D</step>
          <octave>4</octave>
        </pitch>
        <duration>8</duration>
        <voice>1</voice>
        <type>half</type>
        <stem default-y="-3">up</stem>
      </note>
      <note default-x="10">
        <chord/>
        <pitch>
          <step>F</step>
          <alter>1</alter>
          <octave>4</octave>
        </pitch>
        <duration>8</duration>
        <voice>1</voice>
        <type>half</type>
        <stem>up</stem>
      </note>
      <note default-x="67">
        <pitch>
          <step>D</step>
          <octave>4</octave>
        </pitch>
        <duration>4</duration>
        <voice>1</voice>
        <type>quarter</type>
        <stem default-y="-3">up</stem>
      </note>
      <note default-x="67">
        <chord/>
        <pitch>
          <step>F</step>
          <alter>1</alter>
          <octave>4</octave>
        </pitch>
        <duration>4</duration>
        <voice>1</voice>
        <type>quarter</type>
        <stem>up</stem>
      </note>
      <note default-x="123">
        <pitch>
          <step>D</step>
          <octave>4</octave>
        </pitch>
        <duration>8</duration>
        <voice>1</voice>
        <type>half</type>
        <stem default-y="2">up</stem>
      </note>
      <note default-x="123">
        <chord/>
        <pitch>
          <step>G</step>
          <octave>4</octave>
        </pitch>
        <duration>8</duration>
        <voice>1</voice>
        <type>half</type>
        <stem>up</stem>
      </note>
      <note default-x="180">
        <pitch>
          <step>D</step>
          <octave>4</octave>
        </pitch>
        <duration>4</duration>
        <voice>1</voice>
        <type>quarter</type>
        <stem default-y="2">up</stem>
      </note>
      <note default-x="180">
        <chord/>
        <pitch>
          <step>G</step>
          <octave>4</octave>
        </pitch>
        <duration>4</duration>
        <voice>1</voice>
        <type>quarter</type>
        <stem>up</stem>
      </note>
    </measure>
    <!--=======================================================-->
    <measure number="11" width="166">
      <note default-x="12">
        <pitch>
          <step>C</step>
          <octave>4</octave>
        </pitch>
        <duration>8</duration>
        <voice>1</voice>
        <type>half</type>
        <stem default-y="-8">up</stem>
        <lyric default-y="-104" number="1" relative-x="9">
          <syllabic>single</syllabic>
          <text>Crowns</text>
        </lyric>
        <lyric default-y="-125" number="2" relative-x="9">
          <syllabic>single</syllabic>
          <text>Crown</text>
        </lyric>
        <lyric default-y="-146" number="3" relative-x="9">
          <syllabic>single</syllabic>
          <text>Spread</text>
        </lyric>
        <lyric default-y="-167" number="4" relative-x="9">
          <syllabic>single</syllabic>
          <text>King</text>
        </lyric>
      </note>
      <note default-x="12">
        <chord/>
        <pitch>
          <step>E</step>
          <octave>4</octave>
        </pitch>
        <duration>8</duration>
        <voice>1</voice>
        <type>half</type>
        <stem>up</stem>
      </note>
      <note default-x="53">
        <pitch>
          <step>C</step>
          <octave>4</octave>
        </pitch>
        <duration>4</duration>
        <voice>1</voice>
        <type>quarter</type>
        <stem default-y="-8">up</stem>
        <lyric default-y="-104" number="1" relative-x="18">
          <syllabic>single</syllabic>
          <text>be</text>
        </lyric>
        <lyric default-y="-125" number="2" relative-x="16">
          <syllabic>single</syllabic>
          <text>the</text>
        </lyric>
        <lyric default-y="-146" number="3" relative-x="11">
          <syllabic>begin</syllabic>
          <text>a</text>
        </lyric>
        <lyric default-y="-167" number="4" relative-x="8">
          <syllabic>single</syllabic>
          <text>of</text>
        </lyric>
      </note>
      <note default-x="53">
        <chord/>
        <pitch>
          <step>E</step>
          <octave>4</octave>
        </pitch>
        <duration>4</duration>
        <voice>1</voice>
        <type>quarter</type>
        <stem>up</stem>
      </note>
      <note default-x="86">
        <pitch>
          <step>F</step>
          <alter>1</alter>
          <octave>4</octave>
        </pitch>
        <duration>8</duration>
        <voice>1</voice>
        <type>half</type>
        <stem default-y="-3">up</stem>
        <notations>
          <slur default-y="-65" number="1" placement="below" type="start"/>
        </notations>
        <lyric default-y="-104" number="1" relative-x="19">
          <syllabic>single</syllabic>
          <text>come</text>
        </lyric>
        <lyric default-y="-125" number="2" relative-x="18">
          <syllabic>begin</syllabic>
          <text>Sav</text>
        </lyric>
        <lyric default-y="-146" number="3" relative-x="17">
          <syllabic>end</syllabic>
          <text>broad</text>
        </lyric>
        <lyric default-y="-167" number="4" relative-x="14">
          <syllabic>single</syllabic>
          <text>kings</text>
        </lyric>
      </note>
      <backup>
        <duration>8</duration>
      </backup>
      <note default-x="86">
        <pitch>
          <step>D</step>
          <octave>4</octave>
        </pitch>
        <duration>4</duration>
        <voice>2</voice>
        <type>quarter</type>
        <stem default-y="-71">down</stem>
      </note>
      <note default-x="112">
        <pitch>
          <step>C</step>
          <octave>4</octave>
        </pitch>
        <duration>4</duration>
        <voice>2</voice>
        <type>quarter</type>
        <stem default-y="-76">down</stem>
        <notations>
          <slur default-y="-69" number="1" type="stop"/>
        </notations>
      </note>
      <note default-x="138">
        <pitch>
          <step>B</step>
          <octave>3</octave>
        </pitch>
        <duration>4</duration>
        <voice>1</voice>
        <type>quarter</type>
        <stem default-y="2">up</stem>
        <lyric default-y="-104" number="1" relative-x="11">
          <syllabic>single</syllabic>
          <text>the</text>
        </lyric>
        <lyric default-y="-125" number="2" relative-x="11">
          <syllabic>end</syllabic>
          <text>ior</text>
        </lyric>
        <lyric default-y="-146" number="3" relative-x="11">
          <syllabic>single</syllabic>
          <text>the</text>
        </lyric>
        <lyric default-y="-167" number="4" relative-x="11">
          <syllabic>single</syllabic>
          <text>and</text>
        </lyric>
      </note>
      <note default-x="138">
        <chord/>
        <pitch>
          <step>G</step>
          <octave>4</octave>
        </pitch>
        <duration>4</duration>
        <voice>1</voice>
        <type>quarter</type>
        <stem>up</stem>
      </note>
    </measure>
    <!--=======================================================-->
    <measure number="12" width="181">
      <note default-x="16">
        <pitch>
          <step>A</step>
          <octave>3</octave>
        </pitch>
        <duration>8</duration>
        <voice>1</voice>
        <type>half</type>
        <stem default-y="2">up</stem>
        <lyric default-y="-104" number="1" relative-x="11">
          <syllabic>begin</syllabic>
          <text>Vic</text>
        </lyric>
        <lyric default-y="-125" number="2" relative-x="11">
          <syllabic>single</syllabic>
          <text>King</text>
        </lyric>
        <lyric default-y="-146" number="3" relative-x="11">
          <syllabic>begin</syllabic>
          <text>Vic</text>
        </lyric>
        <lyric default-y="-167" number="4" relative-x="11">
          <syllabic>single</syllabic>
          <text>Lord</text>
        </lyric>
      </note>
      <note default-x="16">
        <chord/>
        <pitch>
          <step>G</step>
          <octave>4</octave>
        </pitch>
        <duration>8</duration>
        <voice>1</voice>
        <type>half</type>
        <stem>up</stem>
      </note>
      <note default-x="81">
        <pitch>
          <step>F</step>
          <alter>1</alter>
          <octave>4</octave>
        </pitch>
        <duration>4</duration>
        <voice>1</voice>
        <type>quarter</type>
        <stem default-y="-3">up</stem>
        <lyric default-y="-104" number="1">
          <syllabic>end</syllabic>
          <text>tor’s</text>
        </lyric>
        <lyric default-y="-125" number="2">
          <syllabic>single</syllabic>
          <text>of</text>
        </lyric>
        <lyric default-y="-146" number="3">
          <syllabic>end</syllabic>
          <text>tor’s</text>
        </lyric>
        <lyric default-y="-167" number="4">
          <syllabic>single</syllabic>
          <text>of</text>
        </lyric>
      </note>
      <backup>
        <duration>4</duration>
      </backup>
      <note default-x="81">
        <pitch>
          <step>A</step>
          <octave>3</octave>
        </pitch>
        <duration>2</duration>
        <voice>2</voice>
        <type>eighth</type>
        <stem default-y="-85">down</stem>
        <beam number="1">begin</beam>
      </note>
      <note default-x="101">
        <pitch>
          <step>B</step>
          <octave>3</octave>
        </pitch>
        <duration>1</duration>
        <voice>2</voice>
        <type>16th</type>
        <stem default-y="-81">down</stem>
        <beam number="1">continue</beam>
        <beam number="2">begin</beam>
      </note>
      <note default-x="121">
        <pitch>
          <step>C</step>
          <octave>4</octave>
        </pitch>
        <duration>1</duration>
        <voice>2</voice>
        <type>16th</type>
        <stem default-y="-78">down</stem>
        <beam number="1">end</beam>
        <beam number="2">end</beam>
      </note>
      <note default-x="142">
        <pitch>
          <step>B</step>
          <octave>3</octave>
        </pitch>
        <duration>12</duration>
        <voice>1</voice>
        <type>half</type>
        <dot/>
        <stem default-y="2">up</stem>
        <lyric default-y="-104" number="1">
          <syllabic>single</syllabic>
          <text>brow.</text>
        </lyric>
        <lyric default-y="-125" number="2">
          <syllabic>single</syllabic>
          <text>kings.</text>
        </lyric>
        <lyric default-y="-146" number="3">
          <syllabic>single</syllabic>
          <text>fame!</text>
        </lyric>
        <lyric default-y="-167" number="4">
          <syllabic>single</syllabic>
          <text>lords.</text>
        </lyric>
      </note>
      <note default-x="142">
        <chord/>
        <pitch>
          <step>G</step>
          <octave>4</octave>
        </pitch>
        <duration>12</duration>
        <voice>1</voice>
        <type>half</type>
        <dot/>
        <stem>up</stem>
      </note>
      <barline location="right">
        <bar-style>light-heavy</bar-style>
      </barline>
    </measure>
  </part>
  <!--=========================================================-->
  <part id="P2">
    <measure number="1" width="278">
      <print>
        <staff-layout number="1">
          <staff-distance>161</staff-distance>
        </staff-layout>
        <measure-numbering>none</measure-numbering>
      </print>
      <attributes>
        <divisions>2</divisions>
        <key>
          <fifths>1</fifths>
          <mode>major</mode>
        </key>
        <time>
          <beats>6</beats>
          <beat-type>4</beat-type>
        </time>
        <clef>
          <sign>F</sign>
          <line>4</line>
        </clef>
      </attributes>
      <sound tempo="101"/>
      <note default-x="93">
        <pitch>
          <step>G</step>
          <octave>3</octave>
        </pitch>
        <duration>4</duration>
        <voice>1</voice>
        <type>half</type>
        <stem>double</stem>
      </note>
      <note default-x="139">
        <pitch>
          <step>F</step>
          <alter>1</alter>
          <octave>3</octave>
        </pitch>
        <duration>2</duration>
        <voice>1</voice>
        <type>quarter</type>
        <stem default-y="-41">down</stem>
      </note>
      <note default-x="139">
        <chord/>
        <pitch>
          <step>A</step>
          <octave>3</octave>
        </pitch>
        <duration>2</duration>
        <voice>1</voice>
        <type>quarter</type>
        <stem>down</stem>
      </note>
      <note default-x="182">
        <pitch>
          <step>G</step>
          <octave>3</octave>
        </pitch>
        <duration>4</duration>
        <voice>1</voice>
        <type>half</type>
        <stem default-y="-36">down</stem>
      </note>
      <note default-x="182">
        <chord/>
        <pitch>
          <step>B</step>
          <octave>3</octave>
        </pitch>
        <duration>4</duration>
        <voice>1</voice>
        <type>half</type>
        <stem>down</stem>
      </note>
      <note default-x="227">
        <pitch>
          <step>G</step>
          <octave>3</octave>
        </pitch>
        <duration>1</duration>
        <voice>1</voice>
        <type>eighth</type>
        <stem default-y="-36">down</stem>
        <beam number="1">begin</beam>
      </note>
      <note default-x="227">
        <chord/>
        <pitch>
          <step>B</step>
          <octave>3</octave>
        </pitch>
        <duration>1</duration>
        <voice>1</voice>
        <type>eighth</type>
        <stem>down</stem>
      </note>
      <note default-x="255">
        <pitch>
          <step>F</step>
          <alter>1</alter>
          <octave>3</octave>
        </pitch>
        <duration>1</duration>
        <voice>1</voice>
        <type>eighth</type>
        <stem default-y="-41">down</stem>
        <beam number="1">end</beam>
      </note>
      <note default-x="255">
        <chord/>
        <pitch>
          <step>A</step>
          <octave>3</octave>
        </pitch>
        <duration>1</duration>
        <voice>1</voice>
        <type>eighth</type>
        <stem>down</stem>
      </note>
    </measure>
    <!--=======================================================-->
    <measure number="2" width="198">
      <note default-x="20">
        <pitch>
          <step>E</step>
          <octave>3</octave>
        </pitch>
        <duration>4</duration>
        <voice>1</voice>
        <type>half</type>
        <stem default-y="-46">down</stem>
      </note>
      <note default-x="20">
        <chord/>
        <pitch>
          <step>G</step>
          <octave>3</octave>
        </pitch>
        <duration>4</duration>
        <voice>1</voice>
        <type>half</type>
        <stem>down</stem>
      </note>
      <note default-x="62">
        <pitch>
          <step>C</step>
          <octave>3</octave>
        </pitch>
        <duration>2</duration>
        <voice>1</voice>
        <type>quarter</type>
        <stem default-y="-51">down</stem>
      </note>
      <note default-x="62">
        <chord/>
        <pitch>
          <step>A</step>
          <octave>3</octave>
        </pitch>
        <duration>2</duration>
        <voice>1</voice>
        <type>quarter</type>
        <stem>down</stem>
      </note>
      <note default-x="105">
        <pitch>
          <step>D</step>
          <octave>3</octave>
        </pitch>
        <duration>4</duration>
        <voice>1</voice>
        <type>half</type>
        <stem default-y="-51">down</stem>
      </note>
      <note default-x="105">
        <chord/>
        <pitch>
          <step>A</step>
          <octave>3</octave>
        </pitch>
        <duration>4</duration>
        <voice>1</voice>
        <type>half</type>
        <stem>down</stem>
      </note>
      <note default-x="147">
        <pitch>
          <step>F</step>
          <alter>1</alter>
          <octave>3</octave>
        </pitch>
        <duration>2</duration>
        <voice>1</voice>
        <type>quarter</type>
        <stem default-y="16.5">up</stem>
      </note>
      <backup>
        <duration>2</duration>
      </backup>
      <note default-x="147">
        <pitch>
          <step>D</step>
          <octave>3</octave>
        </pitch>
        <duration>1</duration>
        <voice>2</voice>
        <type>eighth</type>
        <stem default-y="-51">down</stem>
        <beam number="1">begin</beam>
      </note>
      <note default-x="177">
        <pitch>
          <step>C</step>
          <octave>3</octave>
        </pitch>
        <duration>1</duration>
        <voice>2</voice>
        <type>eighth</type>
        <stem default-y="-56">down</stem>
        <beam number="1">end</beam>
      </note>
    </measure>
    <!--=======================================================-->
    <measure number="3" width="212">
      <note default-x="15">
        <pitch>
          <step>B</step>
          <octave>2</octave>
        </pitch>
        <duration>4</duration>
        <voice>1</voice>
        <type>half</type>
        <stem default-y="-56">down</stem>
      </note>
      <note default-x="15">
        <chord/>
        <pitch>
          <step>B</step>
          <octave>3</octave>
        </pitch>
        <duration>4</duration>
        <voice>1</voice>
        <type>half</type>
        <stem>down</stem>
      </note>
      <note default-x="60">
        <pitch>
          <step>A</step>
          <octave>2</octave>
        </pitch>
        <duration>2</duration>
        <voice>1</voice>
        <type>quarter</type>
        <stem default-y="16.5">up</stem>
      </note>
      <note default-x="60">
        <chord/>
        <pitch>
          <step>F</step>
          <alter>1</alter>
          <octave>3</octave>
        </pitch>
        <duration>2</duration>
        <voice>1</voice>
        <type>quarter</type>
        <stem>up</stem>
      </note>
      <note default-x="100">
        <pitch>
          <step>G</step>
          <octave>2</octave>
        </pitch>
        <duration>3</duration>
        <voice>1</voice>
        <type>quarter</type>
        <dot/>
        <stem default-y="21.5">up</stem>
        <notations>
          <slur default-y="-51" number="1" placement="below" type="start"/>
        </notations>
      </note>
      <note default-x="100">
        <chord/>
        <pitch>
          <step>G</step>
          <octave>3</octave>
        </pitch>
        <duration>3</duration>
        <voice>1</voice>
        <type>quarter</type>
        <dot/>
        <stem>up</stem>
      </note>
      <note default-x="152">
        <pitch>
          <step>D</step>
          <octave>3</octave>
        </pitch>
        <duration>1</duration>
        <voice>1</voice>
        <type>eighth</type>
        <stem default-y="-51">down</stem>
        <notations>
          <slur default-y="9" number="2" placement="above" relative-x="-17" type="start"/>
          <slur default-y="3" number="2" type="stop"/>
          <slur default-y="-38" number="1" type="stop"/>
        </notations>
      </note>
      <note default-x="152">
        <chord/>
        <pitch>
          <step>F</step>
          <alter>1</alter>
          <octave>3</octave>
        </pitch>
        <duration>1</duration>
        <voice>1</voice>
        <type>eighth</type>
        <stem>down</stem>
      </note>
      <note default-x="180">
        <pitch>
          <step>E</step>
          <octave>3</octave>
        </pitch>
        <duration>2</duration>
        <voice>1</voice>
        <type>quarter</type>
        <stem>double</stem>
      </note>
    </measure>
    <!--=======================================================-->
    <measure number="4" width="159">
      <note default-x="13">
        <pitch>
          <step>D</step>
          <octave>3</octave>
        </pitch>
        <duration>2</duration>
        <voice>1</voice>
        <type>quarter</type>
        <stem default-y="-51">down</stem>
      </note>
      <backup>
        <duration>2</duration>
      </backup>
      <note default-x="13">
        <pitch>
          <step>F</step>
          <alter>1</alter>
          <octave>3</octave>
        </pitch>
        <duration>1</duration>
        <voice>2</voice>
        <type>eighth</type>
        <stem default-y="21.5">up</stem>
        <beam number="1">begin</beam>
      </note>
      <note default-x="36">
        <pitch>
          <step>G</step>
          <octave>3</octave>
        </pitch>
        <duration>1</duration>
        <voice>2</voice>
        <type>eighth</type>
        <stem default-y="26.5">up</stem>
        <beam number="1">end</beam>
        <notations>
          <slur default-y="28" number="1" placement="above" type="start"/>
        </notations>
      </note>
      <note default-x="59">
        <pitch>
          <step>A</step>
          <octave>2</octave>
        </pitch>
        <duration>4</duration>
        <voice>1</voice>
        <type>half</type>
        <stem default-y="-61">down</stem>
        <notations>
          <slur default-y="25" number="1" type="stop"/>
        </notations>
      </note>
      <backup>
        <duration>4</duration>
      </backup>
      <note default-x="59">
        <pitch>
          <step>A</step>
          <octave>3</octave>
        </pitch>
        <duration>2</duration>
        <voice>2</voice>
        <type>quarter</type>
        <stem default-y="26.5">up</stem>
      </note>
      <note default-x="87">
        <pitch>
          <step>G</step>
          <octave>3</octave>
        </pitch>
        <duration>2</duration>
        <voice>2</voice>
        <type>quarter</type>
        <stem default-y="21.5">up</stem>
      </note>
      <note default-x="115">
        <pitch>
          <step>D</step>
          <octave>3</octave>
        </pitch>
        <duration>6</duration>
        <voice>1</voice>
        <type>half</type>
        <dot/>
        <stem default-y="-51">down</stem>
      </note>
      <note default-x="115">
        <chord/>
        <pitch>
          <step>F</step>
          <alter>1</alter>
          <octave>3</octave>
        </pitch>
        <duration>6</duration>
        <voice>1</voice>
        <type>half</type>
        <dot/>
        <stem>down</stem>
      </note>
    </measure>
    <!--=======================================================-->
    <measure number="5" width="246">
      <print new-system="yes">
        <staff-layout number="1">
          <staff-distance>168</staff-distance>
        </staff-layout>
      </print>
      <note default-x="62">
        <pitch>
          <step>D</step>
          <octave>3</octave>
        </pitch>
        <duration>4</duration>
        <voice>1</voice>
        <type>half</type>
        <stem default-y="-51.5">down</stem>
      </note>
      <note default-x="62">
        <chord/>
        <pitch>
          <step>A</step>
          <octave>3</octave>
        </pitch>
        <duration>4</duration>
        <voice>1</voice>
        <type>half</type>
        <stem>down</stem>
      </note>
      <note default-x="112">
        <pitch>
          <step>C</step>
          <alter>1</alter>
          <octave>3</octave>
        </pitch>
        <duration>2</duration>
        <voice>1</voice>
        <type>quarter</type>
        <accidental>sharp</accidental>
        <stem default-y="-51">down</stem>
      </note>
      <note default-x="112">
        <chord/>
        <pitch>
          <step>A</step>
          <octave>3</octave>
        </pitch>
        <duration>2</duration>
        <voice>1</voice>
        <type>quarter</type>
        <stem>down</stem>
      </note>
      <note default-x="152">
        <pitch>
          <step>D</step>
          <octave>3</octave>
        </pitch>
        <duration>4</duration>
        <voice>1</voice>
        <type>half</type>
        <stem default-y="-51.5">down</stem>
      </note>
      <note default-x="152">
        <chord/>
        <pitch>
          <step>A</step>
          <octave>3</octave>
        </pitch>
        <duration>4</duration>
        <voice>1</voice>
        <type>half</type>
        <stem>down</stem>
      </note>
      <note default-x="195">
        <pitch>
          <step>F</step>
          <alter>1</alter>
          <octave>3</octave>
        </pitch>
        <duration>2</duration>
        <voice>1</voice>
        <type>quarter</type>
        <stem default-y="16">up</stem>
      </note>
      <backup>
        <duration>2</duration>
      </backup>
      <note default-x="195">
        <pitch>
          <step>D</step>
          <octave>3</octave>
        </pitch>
        <duration>1</duration>
        <voice>2</voice>
        <type>eighth</type>
        <stem default-y="-51">down</stem>
        <beam number="1">begin</beam>
      </note>
      <note default-x="223">
        <pitch>
          <step>C</step>
          <octave>3</octave>
        </pitch>
        <duration>1</duration>
        <voice>2</voice>
        <type>eighth</type>
        <accidental>natural</accidental>
        <stem default-y="-56">down</stem>
        <beam number="1">end</beam>
      </note>
    </measure>
    <!--=======================================================-->
    <measure number="6" width="188">
      <note default-x="17">
        <pitch>
          <step>B</step>
          <octave>2</octave>
        </pitch>
        <duration>4</duration>
        <voice>1</voice>
        <type>half</type>
        <stem default-y="-56">down</stem>
      </note>
      <backup>
        <duration>4</duration>
      </backup>
      <note default-x="17">
        <pitch>
          <step>D</step>
          <octave>3</octave>
        </pitch>
        <duration>3</duration>
        <voice>2</voice>
        <type>quarter</type>
        <dot/>
        <stem default-y="12">up</stem>
      </note>
      <note default-x="51">
        <pitch>
          <step>G</step>
          <octave>3</octave>
        </pitch>
        <duration>1</duration>
        <voice>2</voice>
        <type>eighth</type>
        <stem default-y="27">up</stem>
        <notations>
          <slur default-y="9" number="1" placement="above" relative-x="-11" type="start"/>
          <slur default-y="15" number="1" type="stop"/>
        </notations>
      </note>
      <note default-x="75">
        <pitch>
          <step>A</step>
          <octave>2</octave>
        </pitch>
        <duration>2</duration>
        <voice>1</voice>
        <type>quarter</type>
        <stem default-y="16">up</stem>
      </note>
      <note default-x="75">
        <chord/>
        <pitch>
          <step>F</step>
          <alter>1</alter>
          <octave>3</octave>
        </pitch>
        <duration>2</duration>
        <voice>1</voice>
        <type>quarter</type>
        <stem>up</stem>
      </note>
      <note default-x="112">
        <pitch>
          <step>G</step>
          <octave>2</octave>
        </pitch>
        <duration>4</duration>
        <voice>1</voice>
        <type>half</type>
        <stem default-y="21">up</stem>
      </note>
      <note default-x="112">
        <chord/>
        <pitch>
          <step>G</step>
          <octave>3</octave>
        </pitch>
        <duration>4</duration>
        <voice>1</voice>
        <type>half</type>
        <stem>up</stem>
      </note>
      <note default-x="155">
        <pitch>
          <step>G</step>
          <octave>3</octave>
        </pitch>
        <duration>2</duration>
        <voice>1</voice>
        <type>quarter</type>
        <stem default-y="-36.5">down</stem>
      </note>
      <note default-x="155">
        <chord/>
        <pitch>
          <step>B</step>
          <octave>3</octave>
        </pitch>
        <duration>2</duration>
        <voice>1</voice>
        <type>quarter</type>
        <stem>down</stem>
      </note>
    </measure>
    <!--=======================================================-->
    <measure number="7" width="256">
      <note default-x="13">
        <pitch>
          <step>E</step>
          <octave>3</octave>
        </pitch>
        <duration>4</duration>
        <voice>1</voice>
        <type>half</type>
        <stem default-y="-46.5">down</stem>
      </note>
      <note default-x="13">
        <chord/>
        <pitch>
          <step>G</step>
          <octave>3</octave>
        </pitch>
        <duration>4</duration>
        <voice>1</voice>
        <type>half</type>
        <stem>down</stem>
      </note>
      <note default-x="82">
        <pitch>
          <step>D</step>
          <octave>3</octave>
        </pitch>
        <duration>2</duration>
        <voice>1</voice>
        <type>quarter</type>
        <stem default-y="-51.5">down</stem>
      </note>
      <backup>
        <duration>2</duration>
      </backup>
      <note default-x="82">
        <pitch>
          <step>A</step>
          <octave>3</octave>
        </pitch>
        <duration>1</duration>
        <voice>2</voice>
        <type>eighth</type>
        <stem default-y="31">up</stem>
        <beam number="1">begin</beam>
      </note>
      <note default-x="108">
        <pitch>
          <step>B</step>
          <octave>3</octave>
        </pitch>
        <duration>1</duration>
        <voice>2</voice>
        <type>eighth</type>
        <stem default-y="36">up</stem>
        <beam number="1">end</beam>
      </note>
      <note default-x="131">
        <pitch>
          <step>C</step>
          <octave>3</octave>
        </pitch>
        <duration>4</duration>
        <voice>1</voice>
        <type>half</type>
        <stem default-y="-51">down</stem>
        <notations>
          <slur default-y="27" number="1" placement="above" type="start"/>
        </notations>
      </note>
      <backup>
        <duration>4</duration>
      </backup>
      <note default-x="131">
        <pitch>
          <step>C</step>
          <octave>4</octave>
        </pitch>
        <duration>2</duration>
        <voice>2</voice>
        <type>quarter</type>
        <stem default-y="36">up</stem>
      </note>
      <note default-x="179">
        <pitch>
          <step>E</step>
          <octave>3</octave>
        </pitch>
        <duration>2</duration>
        <voice>2</voice>
        <type>quarter</type>
        <stem default-y="11">up</stem>
        <notations>
          <slur default-y="10" number="1" type="stop"/>
        </notations>
      </note>
      <note default-x="226">
        <pitch>
          <step>B</step>
          <octave>2</octave>
        </pitch>
        <duration>2</duration>
        <voice>1</voice>
        <type>quarter</type>
        <stem default-y="12">up</stem>
      </note>
      <note default-x="226">
        <chord/>
        <pitch>
          <step>D</step>
          <alter>1</alter>
          <octave>3</octave>
        </pitch>
        <duration>2</duration>
        <voice>1</voice>
        <type>quarter</type>
        <accidental>sharp</accidental>
        <stem>up</stem>
      </note>
    </measure>
    <!--=======================================================-->
    <measure number="8" width="158">
      <note default-x="14">
        <pitch>
          <step>A</step>
          <octave>2</octave>
        </pitch>
        <duration>2</duration>
        <voice>1</voice>
        <type>quarter</type>
        <stem default-y="-61">down</stem>
      </note>
      <backup>
        <duration>2</duration>
      </backup>
      <note default-x="14">
        <pitch>
          <step>E</step>
          <octave>3</octave>
        </pitch>
        <duration>4</duration>
        <voice>2</voice>
        <type>half</type>
        <stem default-y="11">up</stem>
      </note>
      <note default-x="90">
        <pitch>
          <step>D</step>
          <alter>1</alter>
          <octave>3</octave>
        </pitch>
        <duration>2</duration>
        <voice>2</voice>
        <type>quarter</type>
        <accidental>sharp</accidental>
        <stem default-y="12">up</stem>
      </note>
      <backup>
        <duration>4</duration>
      </backup>
      <note default-x="65">
        <pitch>
          <step>B</step>
          <octave>2</octave>
        </pitch>
        <duration>4</duration>
        <voice>1</voice>
        <type>half</type>
        <stem default-y="-56">down</stem>
      </note>
      <note default-x="116">
        <pitch>
          <step>E</step>
          <octave>3</octave>
        </pitch>
        <duration>6</duration>
        <voice>1</voice>
        <type>half</type>
        <dot/>
        <stem>double</stem>
      </note>
    </measure>
    <!--=======================================================-->
    <measure number="9" width="263">
      <print new-system="yes">
        <staff-layout number="1">
          <staff-distance>163</staff-distance>
        </staff-layout>
      </print>
      <direction>
        <direction-type>
          <words default-x="23" default-y="92" valign="top">Crown Him! Crown Him! Crown Him! Crown Him!</words>
        </direction-type>
      </direction>
      <note default-x="62">
        <pitch>
          <step>E</step>
          <octave>3</octave>
        </pitch>
        <duration>4</duration>
        <voice>1</voice>
        <type>half</type>
        <stem default-y="-46">down</stem>
      </note>
      <note default-x="62">
        <chord/>
        <pitch>
          <step>B</step>
          <octave>3</octave>
        </pitch>
        <duration>4</duration>
        <voice>1</voice>
        <type>half</type>
        <stem>down</stem>
      </note>
      <note default-x="112">
        <pitch>
          <step>D</step>
          <octave>3</octave>
        </pitch>
        <duration>2</duration>
        <voice>1</voice>
        <type>quarter</type>
        <stem default-y="-51">down</stem>
      </note>
      <note default-x="112">
        <chord/>
        <pitch>
          <step>B</step>
          <octave>3</octave>
        </pitch>
        <duration>2</duration>
        <voice>1</voice>
        <type>quarter</type>
        <stem>down</stem>
      </note>
      <note default-x="162">
        <pitch>
          <step>C</step>
          <alter>1</alter>
          <octave>3</octave>
        </pitch>
        <duration>4</duration>
        <voice>1</voice>
        <type>half</type>
        <accidental>sharp</accidental>
        <stem default-y="-51">down</stem>
      </note>
      <note default-x="162">
        <chord/>
        <pitch>
          <step>A</step>
          <octave>3</octave>
        </pitch>
        <duration>4</duration>
        <voice>1</voice>
        <type>half</type>
        <stem>down</stem>
      </note>
      <note default-x="218">
        <pitch>
          <step>C</step>
          <alter>1</alter>
          <octave>3</octave>
        </pitch>
        <duration>2</duration>
        <voice>1</voice>
        <type>quarter</type>
        <stem default-y="-51">down</stem>
      </note>
      <note default-x="218">
        <chord/>
        <pitch>
          <step>A</step>
          <octave>3</octave>
        </pitch>
        <duration>2</duration>
        <voice>1</voice>
        <type>quarter</type>
        <stem>down</stem>
      </note>
    </measure>
    <!--=======================================================-->
    <measure number="10" width="238">
      <note default-x="10">
        <pitch>
          <step>D</step>
          <octave>3</octave>
        </pitch>
        <duration>4</duration>
        <voice>1</voice>
        <type>half</type>
        <stem default-y="-51">down</stem>
      </note>
      <note default-x="10">
        <chord/>
        <pitch>
          <step>A</step>
          <octave>3</octave>
        </pitch>
        <duration>4</duration>
        <voice>1</voice>
        <type>half</type>
        <stem>down</stem>
      </note>
      <note default-x="67">
        <pitch>
          <step>C</step>
          <octave>3</octave>
        </pitch>
        <duration>2</duration>
        <voice>1</voice>
        <type>quarter</type>
        <stem default-y="-51">down</stem>
      </note>
      <note default-x="67">
        <chord/>
        <pitch>
          <step>A</step>
          <octave>3</octave>
        </pitch>
        <duration>2</duration>
        <voice>1</voice>
        <type>quarter</type>
        <stem>down</stem>
      </note>
      <note default-x="123">
        <pitch>
          <step>B</step>
          <octave>2</octave>
        </pitch>
        <duration>4</duration>
        <voice>1</voice>
        <type>half</type>
        <stem default-y="-56">down</stem>
      </note>
      <note default-x="123">
        <chord/>
        <pitch>
          <step>G</step>
          <octave>3</octave>
        </pitch>
        <duration>4</duration>
        <voice>1</voice>
        <type>half</type>
        <stem>down</stem>
      </note>
      <note default-x="180">
        <pitch>
          <step>B</step>
          <octave>2</octave>
        </pitch>
        <duration>2</duration>
        <voice>1</voice>
        <type>quarter</type>
        <stem default-y="-56">down</stem>
      </note>
      <note default-x="180">
        <chord/>
        <pitch>
          <step>G</step>
          <octave>3</octave>
        </pitch>
        <duration>2</duration>
        <voice>1</voice>
        <type>quarter</type>
        <stem>down</stem>
      </note>
    </measure>
    <!--=======================================================-->
    <measure number="11" width="166">
      <note default-x="12">
        <pitch>
          <step>C</step>
          <octave>3</octave>
        </pitch>
        <duration>4</duration>
        <voice>1</voice>
        <type>half</type>
        <stem default-y="-51">down</stem>
      </note>
      <note default-x="12">
        <chord/>
        <pitch>
          <step>G</step>
          <octave>3</octave>
        </pitch>
        <duration>4</duration>
        <voice>1</voice>
        <type>half</type>
        <stem>down</stem>
      </note>
      <note default-x="53">
        <pitch>
          <step>A</step>
          <octave>2</octave>
        </pitch>
        <duration>2</duration>
        <voice>1</voice>
        <type>quarter</type>
        <stem default-y="-61">down</stem>
      </note>
      <note default-x="53">
        <chord/>
        <pitch>
          <step>A</step>
          <octave>3</octave>
        </pitch>
        <duration>2</duration>
        <voice>1</voice>
        <type>quarter</type>
        <stem>down</stem>
      </note>
      <note default-x="86">
        <pitch>
          <step>D</step>
          <octave>3</octave>
        </pitch>
        <duration>4</duration>
        <voice>1</voice>
        <type>half</type>
        <stem default-y="-51">down</stem>
      </note>
      <note default-x="86">
        <chord/>
        <pitch>
          <step>A</step>
          <octave>3</octave>
        </pitch>
        <duration>4</duration>
        <voice>1</voice>
        <type>half</type>
        <stem>down</stem>
      </note>
      <note default-x="138">
        <pitch>
          <step>G</step>
          <octave>3</octave>
        </pitch>
        <duration>2</duration>
        <voice>1</voice>
        <type>quarter</type>
        <stem>double</stem>
      </note>
    </measure>
    <!--=======================================================-->
    <measure number="12" width="181">
      <note default-x="16">
        <pitch>
          <step>D</step>
          <octave>3</octave>
        </pitch>
        <duration>4</duration>
        <voice>1</voice>
        <type>half</type>
        <stem default-y="-51">down</stem>
      </note>
      <backup>
        <duration>4</duration>
      </backup>
      <note default-x="16">
        <pitch>
          <step>F</step>
          <alter>1</alter>
          <octave>3</octave>
        </pitch>
        <duration>1</duration>
        <voice>2</voice>
        <type>eighth</type>
        <stem default-y="21.5">up</stem>
        <beam number="1">begin</beam>
      </note>
      <note default-x="37">
        <pitch>
          <step>E</step>
          <octave>3</octave>
        </pitch>
        <duration>1</duration>
        <voice>2</voice>
        <type>eighth</type>
        <stem default-y="16.5">up</stem>
        <beam number="1">end</beam>
        <notations>
          <slur default-y="24" number="1" placement="above" type="start"/>
        </notations>
      </note>
      <note default-x="56">
        <pitch>
          <step>D</step>
          <octave>3</octave>
        </pitch>
        <duration>2</duration>
        <voice>2</voice>
        <type>quarter</type>
        <stem default-y="12">up</stem>
        <notations>
          <slur default-y="13" number="1" type="stop"/>
        </notations>
      </note>
      <note default-x="81">
        <pitch>
          <step>D</step>
          <octave>3</octave>
        </pitch>
        <duration>2</duration>
        <voice>1</voice>
        <type>quarter</type>
        <stem>double</stem>
      </note>
      <note default-x="142">
        <pitch>
          <step>G</step>
          <octave>2</octave>
        </pitch>
        <duration>6</duration>
        <voice>1</voice>
        <type>half</type>
        <dot/>
        <stem default-y="12">up</stem>
      </note>
      <note default-x="142">
        <chord/>
        <pitch>
          <step>D</step>
          <octave>3</octave>
        </pitch>
        <duration>6</duration>
        <voice>1</voice>
        <type>half</type>
        <dot/>
        <stem>up</stem>
      </note>
      <barline location="right">
        <bar-style>light-heavy</bar-style>
      </barline>
    </measure>
  </part>
  <!--=========================================================-->
</score-partwise>
