<?xml version="1.0" encoding="UTF-8" standalone="no"?>
<!DOCTYPE score-partwise PUBLIC "-//Recordare//DTD MusicXML 3.1 Partwise//EN" "http://www.musicxml.org/dtds/partwise.dtd">
<score-partwise version="3.1">
  <identification>
    <encoding>
      <software>Finale v25 for Windows</software>
      <encoding-date>2020-07-08</encoding-date>
      <supports attribute="new-system" element="print" type="yes" value="yes"/>
      <supports attribute="new-page" element="print" type="yes" value="yes"/>
      <supports element="accidental" type="yes"/>
      <supports element="beam" type="yes"/>
      <supports element="stem" type="yes"/>
    </encoding>
  </identification>
  <defaults>
    <scaling>
      <millimeters>6.35</millimeters>
      <tenths>40</tenths>
    </scaling>
    <page-layout>
      <page-height>1380</page-height>
      <page-width>852</page-width>
      <page-margins type="both">
        <left-margin>0</left-margin>
        <right-margin>0</right-margin>
        <top-margin>0</top-margin>
        <bottom-margin>387</bottom-margin>
      </page-margins>
    </page-layout>
    <system-layout>
      <system-margins>
        <left-margin>5</left-margin>
        <right-margin>0</right-margin>
      </system-margins>
      <system-distance>42</system-distance>
      <top-system-distance>42</top-system-distance>
    </system-layout>
    <staff-layout>
      <staff-distance>108</staff-distance>
    </staff-layout>
    <appearance>
      <line-width type="stem">0.8333</line-width>
      <line-width type="beam">4.1667</line-width>
      <line-width type="staff">0.7096</line-width>
      <line-width type="light barline">0.8333</line-width>
      <line-width type="heavy barline">5</line-width>
      <line-width type="leger">0.7292</line-width>
      <line-width type="ending">0.7682</line-width>
      <line-width type="wedge">0.8333</line-width>
      <line-width type="enclosure">0.8333</line-width>
      <line-width type="tuplet bracket">0.7292</line-width>
      <note-size type="grace">55</note-size>
      <note-size type="cue">55</note-size>
      <distance type="hyphen">83</distance>
      <distance type="beam">8</distance>
    </appearance>
    <music-font font-family="Petrucci2" font-size="18"/>
    <word-font font-family="Palatino Linotype" font-size="9"/>
    <lyric-font font-family="Palatino Linotype" font-size="9"/>
  </defaults>
  <credit page="1">
    <credit-words default-y="387" font-size="7.5" valign="bottom" xml:space="preserve">Music: Joseph Martin Kraus (1756–1792); arr. William Gardiner, 1815
Text: Robert Grant, 1833; alt.</credit-words>
  </credit>
  <credit page="1">
    <credit-words default-x="852" default-y="387" font-size="7.5" justify="right" valign="bottom" xml:space="preserve">LYONS
5 5. 5 5. 6 5. 6 5.</credit-words>
  </credit>
  <part-list>
    <part-group number="1" type="start">
      <group-symbol default-x="-2">line</group-symbol>
      <group-barline>no</group-barline>
    </part-group>
    <score-part id="P1">
      <part-name print-object="no">MusicXML Part</part-name>
      <score-instrument id="P1-I2">
        <instrument-name>SmartMusic SoftSynth</instrument-name>
        <virtual-instrument/>
      </score-instrument>
      <midi-device>SmartMusic SoftSynth</midi-device>
      <midi-instrument id="P1-I2">
        <midi-channel>1</midi-channel>
        <midi-program>58</midi-program>
        <volume>80</volume>
        <pan>0</pan>
      </midi-instrument>
    </score-part>
    <score-part id="P2">
      <part-name print-object="no">MusicXML Part</part-name>
      <score-instrument id="P2-I1">
        <instrument-name>SmartMusic SoftSynth</instrument-name>
        <virtual-instrument/>
      </score-instrument>
      <midi-device>SmartMusic SoftSynth</midi-device>
      <midi-instrument id="P2-I1">
        <midi-channel>2</midi-channel>
        <midi-program>58</midi-program>
        <volume>80</volume>
        <pan>0</pan>
      </midi-instrument>
    </score-part>
    <part-group number="1" type="stop"/>
  </part-list>
  <!--=========================================================-->
  <part id="P1">
    <measure implicit="yes" number="0" width="158">
      <print>
        <system-layout>
          <top-system-distance>58</top-system-distance>
        </system-layout>
        <measure-numbering>system</measure-numbering>
      </print>
      <attributes>
        <divisions>4</divisions>
        <key>
          <fifths>-4</fifths>
          <mode>major</mode>
        </key>
        <time>
          <beats>3</beats>
          <beat-type>4</beat-type>
        </time>
        <clef>
          <sign>G</sign>
          <line>2</line>
        </clef>
      </attributes>
      <sound tempo="101"/>
      <note default-x="120">
        <pitch>
          <step>C</step>
          <octave>4</octave>
        </pitch>
        <duration>4</duration>
        <voice>1</voice>
        <type>quarter</type>
        <stem default-y="-8">up</stem>
        <lyric default-y="-87" number="1">
          <syllabic>single</syllabic>
          <text>1.</text>
          <elision> </elision>
          <syllabic>single</syllabic>
          <text>O</text>
        </lyric>
        <lyric default-y="-107" number="2">
          <syllabic>single</syllabic>
          <text>2.</text>
          <elision> </elision>
          <syllabic>single</syllabic>
          <text>O</text>
        </lyric>
        <lyric default-y="-128" number="3">
          <syllabic>single</syllabic>
          <text font-size="8.25" font-style="italic" font-weight="bold">3.</text>
          <elision> </elision>
          <syllabic>single</syllabic>
          <text font-size="8.25" font-style="italic" font-weight="bold">This</text>
        </lyric>
        <lyric default-y="-149" number="4">
          <syllabic>single</syllabic>
          <text font-size="8.25" font-style="italic" font-weight="bold">4.</text>
          <elision> </elision>
          <syllabic>single</syllabic>
          <text font-size="8.25" font-style="italic" font-weight="bold">Thy</text>
        </lyric>
        <lyric default-y="-170" number="5">
          <syllabic>single</syllabic>
          <text>5.</text>
          <elision> </elision>
          <syllabic>single</syllabic>
          <text>Frail</text>
        </lyric>
        <lyric default-y="-191" number="6">
          <syllabic>single</syllabic>
          <text>6.</text>
          <elision> </elision>
          <syllabic>single</syllabic>
          <text>Oh,</text>
        </lyric>
      </note>
      <note default-x="120">
        <chord/>
        <pitch>
          <step>E</step>
          <alter>-1</alter>
          <octave>4</octave>
        </pitch>
        <duration>4</duration>
        <voice>1</voice>
        <type>quarter</type>
        <stem>up</stem>
      </note>
    </measure>
    <!--=======================================================-->
    <measure number="1" width="147">
      <note default-x="24">
        <pitch>
          <step>E</step>
          <alter>-1</alter>
          <octave>4</octave>
        </pitch>
        <duration>4</duration>
        <voice>1</voice>
        <type>quarter</type>
        <stem default-y="7">up</stem>
        <lyric default-y="-87" number="1">
          <syllabic>begin</syllabic>
          <text>wor</text>
        </lyric>
        <lyric default-y="-107" number="2">
          <syllabic>single</syllabic>
          <text>tell</text>
        </lyric>
        <lyric default-y="-128" number="3">
          <syllabic>single</syllabic>
          <text font-size="8.25" font-style="italic" font-weight="bold">earth,</text>
        </lyric>
        <lyric default-y="-149" number="4">
          <syllabic>begin</syllabic>
          <text font-size="8.25" font-style="italic" font-weight="bold">boun</text>
        </lyric>
        <lyric default-y="-170" number="5">
          <syllabic>begin</syllabic>
          <text>chil</text>
        </lyric>
        <lyric default-y="-191" number="6">
          <syllabic>begin</syllabic>
          <text>meas</text>
        </lyric>
      </note>
      <note default-x="24">
        <chord/>
        <pitch>
          <step>A</step>
          <alter>-1</alter>
          <octave>4</octave>
        </pitch>
        <duration>4</duration>
        <voice>1</voice>
        <type>quarter</type>
        <stem>up</stem>
      </note>
      <note default-x="74">
        <pitch>
          <step>E</step>
          <alter>-1</alter>
          <octave>4</octave>
        </pitch>
        <duration>4</duration>
        <voice>1</voice>
        <type>quarter</type>
        <stem default-y="7">up</stem>
        <lyric default-y="-87" number="1">
          <syllabic>end</syllabic>
          <text>ship</text>
        </lyric>
        <lyric default-y="-107" number="2">
          <syllabic>single</syllabic>
          <text>of</text>
        </lyric>
        <lyric default-y="-128" number="3">
          <syllabic>single</syllabic>
          <text font-size="8.25" font-style="italic" font-weight="bold">with</text>
        </lyric>
        <lyric default-y="-149" number="4">
          <syllabic>middle</syllabic>
          <text font-size="8.25" font-style="italic" font-weight="bold">ti</text>
        </lyric>
        <lyric default-y="-170" number="5">
          <syllabic>end</syllabic>
          <text>dren</text>
        </lyric>
        <lyric default-y="-191" number="6">
          <syllabic>middle</syllabic>
          <text>ure</text>
        </lyric>
      </note>
      <note default-x="74">
        <chord/>
        <pitch>
          <step>A</step>
          <alter>-1</alter>
          <octave>4</octave>
        </pitch>
        <duration>4</duration>
        <voice>1</voice>
        <type>quarter</type>
        <stem>up</stem>
      </note>
      <note default-x="116">
        <pitch>
          <step>E</step>
          <alter>-1</alter>
          <octave>4</octave>
        </pitch>
        <duration>4</duration>
        <voice>1</voice>
        <type>quarter</type>
        <stem default-y="12">up</stem>
        <lyric default-y="-87" number="1">
          <syllabic>single</syllabic>
          <text>the</text>
        </lyric>
        <lyric default-y="-107" number="2">
          <syllabic>single</syllabic>
          <text>His</text>
        </lyric>
        <lyric default-y="-128" number="3">
          <syllabic>single</syllabic>
          <text font-size="8.25" font-style="italic" font-weight="bold">its</text>
        </lyric>
        <lyric default-y="-149" number="4">
          <syllabic>end</syllabic>
          <text font-size="8.25" font-style="italic" font-weight="bold">ful</text>
        </lyric>
        <lyric default-y="-170" number="5">
          <syllabic>single</syllabic>
          <text>of</text>
        </lyric>
        <lyric default-y="-191" number="6">
          <syllabic>end</syllabic>
          <text>less</text>
        </lyric>
      </note>
      <note default-x="116">
        <chord/>
        <pitch>
          <step>B</step>
          <alter>-1</alter>
          <octave>4</octave>
        </pitch>
        <duration>4</duration>
        <voice>1</voice>
        <type>quarter</type>
        <stem>up</stem>
      </note>
    </measure>
    <!--=======================================================-->
    <measure number="2" width="104">
      <note default-x="23">
        <pitch>
          <step>E</step>
          <alter>-1</alter>
          <octave>4</octave>
        </pitch>
        <duration>8</duration>
        <voice>1</voice>
        <type>half</type>
        <stem default-y="11">up</stem>
        <lyric default-y="-87" number="1">
          <syllabic>single</syllabic>
          <text>King</text>
        </lyric>
        <lyric default-y="-107" number="2">
          <syllabic>single</syllabic>
          <text>might,</text>
        </lyric>
        <lyric default-y="-128" number="3">
          <syllabic>single</syllabic>
          <text font-size="8.25" font-style="italic" font-weight="bold">store</text>
        </lyric>
        <lyric default-y="-149" number="4">
          <syllabic>single</syllabic>
          <text font-size="8.25" font-style="italic" font-weight="bold">care</text>
        </lyric>
        <lyric default-y="-170" number="5">
          <syllabic>single</syllabic>
          <text>dust,</text>
        </lyric>
        <lyric default-y="-191" number="6">
          <syllabic>single</syllabic>
          <text>might!</text>
        </lyric>
      </note>
      <note default-x="23">
        <chord/>
        <pitch>
          <step>C</step>
          <octave>5</octave>
        </pitch>
        <duration>8</duration>
        <voice>1</voice>
        <type>half</type>
        <stem>up</stem>
      </note>
      <note default-x="73">
        <pitch>
          <step>E</step>
          <alter>-1</alter>
          <octave>4</octave>
        </pitch>
        <duration>4</duration>
        <voice>1</voice>
        <type>quarter</type>
        <stem default-y="7">up</stem>
        <lyric default-y="-87" number="1" relative-x="8">
          <syllabic>single</syllabic>
          <text>all</text>
        </lyric>
        <lyric default-y="-107" number="2" relative-x="8">
          <syllabic>single</syllabic>
          <text>O</text>
        </lyric>
        <lyric default-y="-128" number="3" relative-x="8">
          <syllabic>single</syllabic>
          <text font-size="8.25" font-style="italic" font-weight="bold">of</text>
        </lyric>
        <lyric default-y="-149" number="4" relative-x="8">
          <syllabic>single</syllabic>
          <text font-size="8.25" font-style="italic" font-weight="bold">what</text>
        </lyric>
        <lyric default-y="-170" number="5" relative-x="8">
          <syllabic>single</syllabic>
          <text>and</text>
        </lyric>
        <lyric default-y="-191" number="6" relative-x="8">
          <syllabic>begin</syllabic>
          <text>In</text>
        </lyric>
      </note>
      <note default-x="73">
        <chord/>
        <pitch>
          <step>A</step>
          <alter>-1</alter>
          <octave>4</octave>
        </pitch>
        <duration>4</duration>
        <voice>1</voice>
        <type>quarter</type>
        <stem>up</stem>
      </note>
    </measure>
    <!--=======================================================-->
    <measure number="3" width="160">
      <note default-x="27">
        <pitch>
          <step>F</step>
          <octave>4</octave>
        </pitch>
        <duration>4</duration>
        <voice>1</voice>
        <type>quarter</type>
        <stem default-y="13">up</stem>
        <lyric default-y="-87" number="1">
          <syllabic>begin</syllabic>
          <text>glo</text>
        </lyric>
        <lyric default-y="-107" number="2">
          <syllabic>single</syllabic>
          <text>sing</text>
        </lyric>
        <lyric default-y="-128" number="3">
          <syllabic>begin</syllabic>
          <text font-size="8.25" font-style="italic" font-weight="bold">won</text>
        </lyric>
        <lyric default-y="-149" number="4" relative-x="5">
          <syllabic>single</syllabic>
          <text font-size="8.25" font-style="italic" font-weight="bold">tongue</text>
        </lyric>
        <lyric default-y="-170" number="5">
          <syllabic>begin</syllabic>
          <text>fee</text>
        </lyric>
        <lyric default-y="-191" number="6">
          <syllabic>middle</syllabic>
          <text>ef</text>
        </lyric>
      </note>
      <note default-x="27">
        <chord/>
        <pitch>
          <step>D</step>
          <alter>-1</alter>
          <octave>5</octave>
        </pitch>
        <duration>4</duration>
        <voice>1</voice>
        <type>quarter</type>
        <stem>up</stem>
      </note>
      <note default-x="82">
        <pitch>
          <step>E</step>
          <alter>-1</alter>
          <octave>4</octave>
        </pitch>
        <duration>4</duration>
        <voice>1</voice>
        <type>quarter</type>
        <stem default-y="13">up</stem>
        <lyric default-y="-87" number="1">
          <syllabic>end</syllabic>
          <text>rious</text>
        </lyric>
        <lyric default-y="-107" number="2">
          <syllabic>single</syllabic>
          <text>of</text>
        </lyric>
        <lyric default-y="-128" number="3">
          <syllabic>end</syllabic>
          <text font-size="8.25" font-style="italic" font-weight="bold">ders</text>
        </lyric>
        <lyric default-y="-149" number="4">
          <syllabic>single</syllabic>
          <text font-size="8.25" font-style="italic" font-weight="bold">can</text>
        </lyric>
        <lyric default-y="-170" number="5">
          <syllabic>end</syllabic>
          <text>ble</text>
        </lyric>
        <lyric default-y="-191" number="6">
          <syllabic>middle</syllabic>
          <text>fa</text>
        </lyric>
      </note>
      <note default-x="82">
        <chord/>
        <pitch>
          <step>D</step>
          <alter>-1</alter>
          <octave>5</octave>
        </pitch>
        <duration>4</duration>
        <voice>1</voice>
        <type>quarter</type>
        <stem>up</stem>
      </note>
      <note default-x="129">
        <pitch>
          <step>E</step>
          <alter>-1</alter>
          <octave>4</octave>
        </pitch>
        <duration>4</duration>
        <voice>1</voice>
        <type>quarter</type>
        <stem default-y="11">up</stem>
        <lyric default-y="-87" number="1">
          <syllabic>begin</syllabic>
          <text>a</text>
        </lyric>
        <lyric default-y="-107" number="2">
          <syllabic>single</syllabic>
          <text>His</text>
        </lyric>
        <lyric default-y="-128" number="3">
          <syllabic>begin</syllabic>
          <text font-size="8.25" font-style="italic" font-weight="bold">un</text>
        </lyric>
        <lyric default-y="-149" number="4">
          <syllabic>begin</syllabic>
          <text font-size="8.25" font-style="italic" font-weight="bold">re</text>
        </lyric>
        <lyric default-y="-170" number="5">
          <syllabic>single</syllabic>
          <text>as</text>
        </lyric>
        <lyric default-y="-191" number="6">
          <syllabic>end</syllabic>
          <text>ble</text>
        </lyric>
      </note>
      <note default-x="129">
        <chord/>
        <pitch>
          <step>C</step>
          <octave>5</octave>
        </pitch>
        <duration>4</duration>
        <voice>1</voice>
        <type>quarter</type>
        <stem>up</stem>
      </note>
    </measure>
    <!--=======================================================-->
    <measure number="4" width="117">
      <note default-x="21">
        <pitch>
          <step>E</step>
          <alter>-1</alter>
          <octave>4</octave>
        </pitch>
        <duration>8</duration>
        <voice>1</voice>
        <type>half</type>
        <stem default-y="12">up</stem>
        <lyric default-y="-87" number="1">
          <syllabic>end</syllabic>
          <text>bove;</text>
        </lyric>
        <lyric default-y="-107" number="2">
          <syllabic>single</syllabic>
          <text>grace,</text>
        </lyric>
        <lyric default-y="-128" number="3">
          <syllabic>end</syllabic>
          <text font-size="8.25" font-style="italic" font-weight="bold">told,</text>
        </lyric>
        <lyric default-y="-149" number="4">
          <syllabic>end</syllabic>
          <text font-size="8.25" font-style="italic" font-weight="bold">cite?</text>
        </lyric>
        <lyric default-y="-170" number="5">
          <syllabic>single</syllabic>
          <text>frail,</text>
        </lyric>
        <lyric default-y="-191" number="6">
          <syllabic>single</syllabic>
          <text>love!</text>
        </lyric>
      </note>
      <note default-x="21">
        <chord/>
        <pitch>
          <step>B</step>
          <alter>-1</alter>
          <octave>4</octave>
        </pitch>
        <duration>8</duration>
        <voice>1</voice>
        <type>half</type>
        <stem>up</stem>
      </note>
      <note default-x="67">
        <pitch>
          <step>E</step>
          <alter>-1</alter>
          <octave>4</octave>
        </pitch>
        <duration>4</duration>
        <voice>1</voice>
        <type>quarter</type>
        <stem default-y="-8">up</stem>
        <lyric default-y="-87" number="1" relative-x="19">
          <syllabic>single</syllabic>
          <text>O</text>
        </lyric>
        <lyric default-y="-107" number="2" relative-x="19">
          <syllabic>single</syllabic>
          <text>Whose</text>
        </lyric>
        <lyric default-y="-128" number="3" relative-x="19">
          <syllabic>begin</syllabic>
          <text font-size="8.25" font-style="italic" font-weight="bold">Al</text>
        </lyric>
        <lyric default-y="-149" number="4" relative-x="19">
          <syllabic>single</syllabic>
          <text font-size="8.25" font-style="italic" font-weight="bold">It</text>
        </lyric>
        <lyric default-y="-170" number="5" relative-x="19">
          <syllabic>single</syllabic>
          <text>In</text>
        </lyric>
        <lyric default-y="-191" number="6" relative-x="19">
          <syllabic>single</syllabic>
          <text>While</text>
        </lyric>
      </note>
      <backup>
        <duration>4</duration>
      </backup>
      <note default-x="67">
        <pitch>
          <step>E</step>
          <alter>-1</alter>
          <octave>4</octave>
        </pitch>
        <duration>2</duration>
        <voice>2</voice>
        <type>eighth</type>
        <stem default-y="-67">down</stem>
        <beam number="1">begin</beam>
      </note>
      <note default-x="91">
        <pitch>
          <step>D</step>
          <alter>-1</alter>
          <octave>4</octave>
        </pitch>
        <duration>2</duration>
        <voice>2</voice>
        <type>eighth</type>
        <stem default-y="-72">down</stem>
        <beam number="1">end</beam>
      </note>
    </measure>
    <!--=======================================================-->
    <measure number="5" width="162">
      <note default-x="27">
        <pitch>
          <step>C</step>
          <octave>4</octave>
        </pitch>
        <duration>4</duration>
        <voice>1</voice>
        <type>quarter</type>
        <stem default-y="7">up</stem>
        <lyric default-y="-87" number="1">
          <syllabic>begin</syllabic>
          <text>grate</text>
        </lyric>
        <lyric default-y="-107" number="2" relative-x="4">
          <syllabic>single</syllabic>
          <text>robe</text>
        </lyric>
        <lyric default-y="-128" number="3">
          <syllabic>middle</syllabic>
          <text font-size="8.25" font-style="italic" font-weight="bold">might</text>
        </lyric>
        <lyric default-y="-149" number="4">
          <syllabic>single</syllabic>
          <text font-size="8.25" font-style="italic" font-weight="bold">breathes</text>
        </lyric>
        <lyric default-y="-170" number="5">
          <syllabic>single</syllabic>
          <text>Thee</text>
        </lyric>
        <lyric default-y="-191" number="6">
          <syllabic>begin</syllabic>
          <text>an</text>
        </lyric>
      </note>
      <note default-x="27">
        <chord/>
        <pitch>
          <step>A</step>
          <alter>-1</alter>
          <octave>4</octave>
        </pitch>
        <duration>4</duration>
        <voice>1</voice>
        <type>quarter</type>
        <stem>up</stem>
      </note>
      <note default-x="84">
        <pitch>
          <step>E</step>
          <alter>-1</alter>
          <octave>4</octave>
        </pitch>
        <duration>4</duration>
        <voice>1</voice>
        <type>quarter</type>
        <stem default-y="7">up</stem>
        <lyric default-y="-87" number="1">
          <syllabic>middle</syllabic>
          <text>ful</text>
        </lyric>
        <lyric default-y="-107" number="2">
          <syllabic>single</syllabic>
          <text>is</text>
        </lyric>
        <lyric default-y="-128" number="3">
          <syllabic>end</syllabic>
          <text font-size="8.25" font-style="italic" font-weight="bold">y,</text>
        </lyric>
        <lyric default-y="-149" number="4">
          <syllabic>single</syllabic>
          <text font-size="8.25" font-style="italic" font-weight="bold">in</text>
        </lyric>
        <lyric default-y="-170" number="5">
          <syllabic>single</syllabic>
          <text>do</text>
        </lyric>
        <lyric default-y="-191" number="6">
          <syllabic>end</syllabic>
          <text>gels</text>
        </lyric>
      </note>
      <note default-x="84">
        <chord/>
        <pitch>
          <step>A</step>
          <alter>-1</alter>
          <octave>4</octave>
        </pitch>
        <duration>4</duration>
        <voice>1</voice>
        <type>quarter</type>
        <stem>up</stem>
      </note>
      <note default-x="132">
        <pitch>
          <step>E</step>
          <alter>-1</alter>
          <octave>4</octave>
        </pitch>
        <duration>4</duration>
        <voice>1</voice>
        <type>quarter</type>
        <stem default-y="12">up</stem>
        <lyric default-y="-87" number="1">
          <syllabic>end</syllabic>
          <text>ly</text>
        </lyric>
        <lyric default-y="-107" number="2">
          <syllabic>single</syllabic>
          <text>the</text>
        </lyric>
        <lyric default-y="-128" number="3">
          <syllabic>single</syllabic>
          <text font-size="8.25" font-style="italic" font-weight="bold">Thy</text>
        </lyric>
        <lyric default-y="-149" number="4">
          <syllabic>single</syllabic>
          <text font-size="8.25" font-style="italic" font-weight="bold">the</text>
        </lyric>
        <lyric default-y="-170" number="5">
          <syllabic>single</syllabic>
          <text>we</text>
        </lyric>
        <lyric default-y="-191" number="6">
          <syllabic>begin</syllabic>
          <text>de</text>
        </lyric>
      </note>
      <note default-x="132">
        <chord/>
        <pitch>
          <step>B</step>
          <alter>-1</alter>
          <octave>4</octave>
        </pitch>
        <duration>4</duration>
        <voice>1</voice>
        <type>quarter</type>
        <stem>up</stem>
      </note>
    </measure>
    <!--=======================================================-->
    <measure number="6" width="196">
      <print new-system="yes"/>
      <note default-x="99">
        <pitch>
          <step>E</step>
          <alter>-1</alter>
          <octave>4</octave>
        </pitch>
        <duration>8</duration>
        <voice>1</voice>
        <type>half</type>
        <stem default-y="11">up</stem>
        <lyric default-y="-82" number="1">
          <syllabic>single</syllabic>
          <text>sing</text>
        </lyric>
        <lyric default-y="-103" number="2">
          <syllabic>single</syllabic>
          <text>light,</text>
        </lyric>
        <lyric default-y="-124" number="3">
          <syllabic>single</syllabic>
          <text font-size="8.25" font-style="italic" font-weight="bold">pow’r</text>
        </lyric>
        <lyric default-y="-145" number="4">
          <syllabic>single</syllabic>
          <text font-size="8.25" font-style="italic" font-weight="bold">air,</text>
        </lyric>
        <lyric default-y="-166" number="5">
          <syllabic>single</syllabic>
          <text>trust,</text>
        </lyric>
        <lyric default-y="-187" number="6">
          <syllabic>end</syllabic>
          <text>light</text>
        </lyric>
      </note>
      <note default-x="99">
        <chord/>
        <pitch>
          <step>C</step>
          <octave>5</octave>
        </pitch>
        <duration>8</duration>
        <voice>1</voice>
        <type>half</type>
        <stem>up</stem>
      </note>
      <note default-x="157">
        <pitch>
          <step>F</step>
          <octave>4</octave>
        </pitch>
        <duration>4</duration>
        <voice>1</voice>
        <type>quarter</type>
        <stem default-y="16">up</stem>
        <lyric default-y="-82" number="1" relative-x="6">
          <syllabic>single</syllabic>
          <text>His</text>
        </lyric>
        <lyric default-y="-103" number="2" relative-x="6">
          <syllabic>single</syllabic>
          <text>whose</text>
        </lyric>
        <lyric default-y="-124" number="3" relative-x="6">
          <syllabic>single</syllabic>
          <text font-size="8.25" font-style="italic" font-weight="bold">hath</text>
        </lyric>
        <lyric default-y="-145" number="4" relative-x="6">
          <syllabic>single</syllabic>
          <text font-size="8.25" font-style="italic" font-weight="bold">it</text>
        </lyric>
        <lyric default-y="-166" number="5" relative-x="6">
          <syllabic>single</syllabic>
          <text>nor</text>
        </lyric>
        <lyric default-y="-187" number="6" relative-x="6">
          <syllabic>single</syllabic>
          <text>to</text>
        </lyric>
      </note>
      <note default-x="157">
        <chord/>
        <pitch>
          <step>D</step>
          <alter>-1</alter>
          <octave>5</octave>
        </pitch>
        <duration>4</duration>
        <voice>1</voice>
        <type>quarter</type>
        <stem>up</stem>
      </note>
    </measure>
    <!--=======================================================-->
    <measure number="7" width="165">
      <note default-x="24">
        <pitch>
          <step>E</step>
          <alter>-1</alter>
          <octave>4</octave>
        </pitch>
        <duration>3</duration>
        <voice>1</voice>
        <type>eighth</type>
        <dot/>
        <stem default-y="26">up</stem>
        <beam number="1">begin</beam>
        <lyric default-y="-82" number="1">
          <syllabic>single</syllabic>
          <text>pow’r</text>
        </lyric>
        <lyric default-y="-103" number="2">
          <syllabic>begin</syllabic>
          <text>can</text>
        </lyric>
        <lyric default-y="-124" number="3">
          <syllabic>begin</syllabic>
          <text font-size="8.25" font-style="italic" font-weight="bold">found</text>
        </lyric>
        <lyric default-y="-145" number="4">
          <syllabic>single</syllabic>
          <text font-size="8.25" font-style="italic" font-weight="bold">shines</text>
        </lyric>
        <lyric default-y="-166" number="5">
          <syllabic>single</syllabic>
          <text>find</text>
        </lyric>
        <lyric default-y="-187" number="6">
          <syllabic>single</syllabic>
          <text>hymn</text>
        </lyric>
      </note>
      <note default-x="24">
        <chord/>
        <pitch>
          <step>E</step>
          <alter>-1</alter>
          <octave>5</octave>
        </pitch>
        <duration>3</duration>
        <voice>1</voice>
        <type>eighth</type>
        <dot/>
        <stem>up</stem>
      </note>
      <note default-x="62">
        <pitch>
          <step>F</step>
          <octave>4</octave>
        </pitch>
        <duration>1</duration>
        <voice>1</voice>
        <type>16th</type>
        <stem default-y="21">up</stem>
        <beam number="1">end</beam>
        <beam number="2">backward hook</beam>
      </note>
      <note default-x="62">
        <chord/>
        <pitch>
          <step>D</step>
          <alter>-1</alter>
          <octave>5</octave>
        </pitch>
        <duration>1</duration>
        <voice>1</voice>
        <type>16th</type>
        <stem>up</stem>
      </note>
      <note default-x="92">
        <pitch>
          <step>E</step>
          <alter>-1</alter>
          <octave>4</octave>
        </pitch>
        <duration>4</duration>
        <voice>1</voice>
        <type>quarter</type>
        <stem default-y="11">up</stem>
        <lyric default-y="-82" number="1">
          <syllabic>single</syllabic>
          <text>and</text>
        </lyric>
        <lyric default-y="-103" number="2">
          <syllabic>middle</syllabic>
          <text>o</text>
        </lyric>
        <lyric default-y="-124" number="3">
          <syllabic>end</syllabic>
          <text font-size="8.25" font-style="italic" font-weight="bold">ed</text>
        </lyric>
        <lyric default-y="-145" number="4">
          <syllabic>single</syllabic>
          <text font-size="8.25" font-style="italic" font-weight="bold">in</text>
        </lyric>
        <lyric default-y="-166" number="5">
          <syllabic>single</syllabic>
          <text>Thee</text>
        </lyric>
        <lyric default-y="-187" number="6">
          <syllabic>single</syllabic>
          <text>Thee</text>
        </lyric>
      </note>
      <note default-x="92">
        <chord/>
        <pitch>
          <step>C</step>
          <octave>5</octave>
        </pitch>
        <duration>4</duration>
        <voice>1</voice>
        <type>quarter</type>
        <stem>up</stem>
      </note>
      <note default-x="135">
        <pitch>
          <step>D</step>
          <alter>-1</alter>
          <octave>4</octave>
        </pitch>
        <duration>4</duration>
        <voice>1</voice>
        <type>quarter</type>
        <stem default-y="12">up</stem>
        <lyric default-y="-82" number="1">
          <syllabic>single</syllabic>
          <text>His</text>
        </lyric>
        <lyric default-y="-103" number="2">
          <syllabic>end</syllabic>
          <text>py</text>
        </lyric>
        <lyric default-y="-124" number="3">
          <syllabic>single</syllabic>
          <text font-size="8.25" font-style="italic" font-weight="bold">of</text>
        </lyric>
        <lyric default-y="-145" number="4">
          <syllabic>single</syllabic>
          <text font-size="8.25" font-style="italic" font-weight="bold">the</text>
        </lyric>
        <lyric default-y="-166" number="5">
          <syllabic>single</syllabic>
          <text>to</text>
        </lyric>
        <lyric default-y="-187" number="6">
          <syllabic>begin</syllabic>
          <text>a</text>
        </lyric>
      </note>
      <note default-x="135">
        <chord/>
        <pitch>
          <step>B</step>
          <alter>-1</alter>
          <octave>4</octave>
        </pitch>
        <duration>4</duration>
        <voice>1</voice>
        <type>quarter</type>
        <stem>up</stem>
      </note>
    </measure>
    <!--=======================================================-->
    <measure number="8" width="123">
      <note default-x="24">
        <pitch>
          <step>C</step>
          <octave>4</octave>
        </pitch>
        <duration>8</duration>
        <voice>1</voice>
        <type>half</type>
        <stem default-y="7">up</stem>
        <lyric default-y="-82" number="1" relative-x="5">
          <syllabic>single</syllabic>
          <text>love—</text>
        </lyric>
        <lyric default-y="-103" number="2">
          <syllabic>single</syllabic>
          <text>space.</text>
        </lyric>
        <lyric default-y="-124" number="3">
          <syllabic>single</syllabic>
          <text font-size="8.25" font-style="italic" font-weight="bold">old,</text>
        </lyric>
        <lyric default-y="-145" number="4">
          <syllabic>single</syllabic>
          <text font-size="8.25" font-style="italic" font-weight="bold">light,</text>
        </lyric>
        <lyric default-y="-166" number="5">
          <syllabic>single</syllabic>
          <text>fail;</text>
        </lyric>
        <lyric default-y="-187" number="6">
          <syllabic>end</syllabic>
          <text>bove,</text>
        </lyric>
      </note>
      <note default-x="24">
        <chord/>
        <pitch>
          <step>A</step>
          <alter>-1</alter>
          <octave>4</octave>
        </pitch>
        <duration>8</duration>
        <voice>1</voice>
        <type>half</type>
        <stem>up</stem>
      </note>
      <note default-x="84">
        <pitch>
          <step>E</step>
          <alter>-1</alter>
          <octave>4</octave>
        </pitch>
        <duration>4</duration>
        <voice>1</voice>
        <type>quarter</type>
        <stem>double</stem>
        <lyric default-y="-82" number="1">
          <syllabic>single</syllabic>
          <text>Our</text>
        </lyric>
        <lyric default-y="-103" number="2">
          <syllabic>single</syllabic>
          <text>His</text>
        </lyric>
        <lyric default-y="-124" number="3">
          <syllabic>single</syllabic>
          <text font-size="8.25" font-style="italic" font-weight="bold">Hath</text>
        </lyric>
        <lyric default-y="-145" number="4">
          <syllabic>single</syllabic>
          <text font-size="8.25" font-style="italic" font-weight="bold">It</text>
        </lyric>
        <lyric default-y="-166" number="5">
          <syllabic>single</syllabic>
          <text>Thy</text>
        </lyric>
        <lyric default-y="-187" number="6">
          <syllabic>single</syllabic>
          <text>The</text>
        </lyric>
      </note>
    </measure>
    <!--=======================================================-->
    <measure number="9" width="170">
      <note default-x="30">
        <pitch>
          <step>E</step>
          <alter>-1</alter>
          <octave>4</octave>
        </pitch>
        <duration>4</duration>
        <voice>1</voice>
        <type>quarter</type>
        <stem>double</stem>
        <lyric default-y="-82" number="1">
          <syllabic>single</syllabic>
          <text>Shield</text>
        </lyric>
        <lyric default-y="-103" number="2">
          <syllabic>begin</syllabic>
          <text>char</text>
        </lyric>
        <lyric default-y="-124" number="3">
          <syllabic>begin</syllabic>
          <text font-size="8.25" font-style="italic" font-weight="bold">stab</text>
        </lyric>
        <lyric default-y="-145" number="4">
          <syllabic>single</syllabic>
          <text font-size="8.25" font-style="italic" font-weight="bold">streams</text>
        </lyric>
        <lyric default-y="-166" number="5">
          <syllabic>begin</syllabic>
          <text>mer</text>
        </lyric>
        <lyric default-y="-187" number="6">
          <syllabic>begin</syllabic>
          <text>hum</text>
        </lyric>
      </note>
      <note default-x="90">
        <pitch>
          <step>E</step>
          <alter>-1</alter>
          <octave>4</octave>
        </pitch>
        <duration>4</duration>
        <voice>1</voice>
        <type>quarter</type>
        <stem>double</stem>
        <lyric default-y="-82" number="1">
          <syllabic>single</syllabic>
          <text>and</text>
        </lyric>
        <lyric default-y="-103" number="2">
          <syllabic>end</syllabic>
          <text>iots</text>
        </lyric>
        <lyric default-y="-124" number="3">
          <syllabic>end</syllabic>
          <text font-size="8.25" font-style="italic" font-weight="bold">lished</text>
        </lyric>
        <lyric default-y="-145" number="4">
          <syllabic>single</syllabic>
          <text font-size="8.25" font-style="italic" font-weight="bold">from</text>
        </lyric>
        <lyric default-y="-166" number="5">
          <syllabic>end</syllabic>
          <text>cies</text>
        </lyric>
        <lyric default-y="-187" number="6">
          <syllabic>end</syllabic>
          <text>bler</text>
        </lyric>
      </note>
      <note default-x="138">
        <pitch>
          <step>D</step>
          <octave>4</octave>
        </pitch>
        <duration>4</duration>
        <voice>1</voice>
        <type>quarter</type>
        <accidental>natural</accidental>
        <stem default-y="-3">up</stem>
        <lyric default-y="-82" number="1">
          <syllabic>begin</syllabic>
          <text>De</text>
        </lyric>
        <lyric default-y="-103" number="2">
          <syllabic>single</syllabic>
          <text>of</text>
        </lyric>
        <lyric default-y="-124" number="3">
          <syllabic>single</syllabic>
          <text font-size="8.25" font-style="italic" font-weight="bold">it</text>
        </lyric>
        <lyric default-y="-145" number="4">
          <syllabic>single</syllabic>
          <text font-size="8.25" font-style="italic" font-weight="bold">the</text>
        </lyric>
        <lyric default-y="-166" number="5">
          <syllabic>single</syllabic>
          <text>how</text>
        </lyric>
        <lyric default-y="-187" number="6">
          <syllabic>begin</syllabic>
          <text>cre</text>
        </lyric>
      </note>
      <note default-x="138">
        <chord/>
        <pitch>
          <step>F</step>
          <octave>4</octave>
        </pitch>
        <duration>4</duration>
        <voice>1</voice>
        <type>quarter</type>
        <stem>up</stem>
      </note>
    </measure>
    <!--=======================================================-->
    <measure number="10" width="195">
      <note default-x="24">
        <pitch>
          <step>D</step>
          <alter>-1</alter>
          <octave>4</octave>
        </pitch>
        <duration>4</duration>
        <voice>1</voice>
        <type>quarter</type>
        <accidental>flat</accidental>
        <stem default-y="2">up</stem>
        <lyric default-y="-82" number="1">
          <syllabic>middle</syllabic>
          <text>fen</text>
        </lyric>
        <lyric default-y="-103" number="2">
          <syllabic>single</syllabic>
          <text>wrath</text>
        </lyric>
        <lyric default-y="-124" number="3">
          <syllabic>single</syllabic>
          <text font-size="8.25" font-style="italic" font-weight="bold">fast</text>
        </lyric>
        <lyric default-y="-145" number="4">
          <syllabic>single</syllabic>
          <text font-size="8.25" font-style="italic" font-weight="bold">hills,</text>
        </lyric>
        <lyric default-y="-166" number="5">
          <syllabic>begin</syllabic>
          <text>ten</text>
        </lyric>
        <lyric default-y="-187" number="6">
          <syllabic>middle</syllabic>
          <text>a</text>
        </lyric>
      </note>
      <note default-x="24">
        <chord/>
        <pitch>
          <step>G</step>
          <octave>4</octave>
        </pitch>
        <duration>4</duration>
        <voice>1</voice>
        <type>quarter</type>
        <stem>up</stem>
      </note>
      <note default-x="81">
        <pitch>
          <step>D</step>
          <alter>-1</alter>
          <octave>4</octave>
        </pitch>
        <duration>4</duration>
        <voice>1</voice>
        <type>quarter</type>
        <stem default-y="2">up</stem>
        <lyric default-y="-82" number="1">
          <syllabic>end</syllabic>
          <text>der,</text>
        </lyric>
        <lyric default-y="-103" number="2">
          <syllabic>single</syllabic>
          <text>the</text>
        </lyric>
        <lyric default-y="-124" number="3">
          <syllabic>single</syllabic>
          <text font-size="8.25" font-style="italic" font-weight="bold">by</text>
        </lyric>
        <lyric default-y="-145" number="4">
          <syllabic>single</syllabic>
          <text font-size="8.25" font-style="italic" font-weight="bold">it</text>
        </lyric>
        <lyric default-y="-166" number="5">
          <syllabic>end</syllabic>
          <text>der!</text>
        </lyric>
        <lyric default-y="-187" number="6">
          <syllabic>end</syllabic>
          <text>tion,</text>
        </lyric>
      </note>
      <note default-x="81">
        <chord/>
        <pitch>
          <step>G</step>
          <octave>4</octave>
        </pitch>
        <duration>4</duration>
        <voice>1</voice>
        <type>quarter</type>
        <stem>up</stem>
      </note>
      <note default-x="142">
        <pitch>
          <step>C</step>
          <octave>4</octave>
        </pitch>
        <duration>4</duration>
        <voice>1</voice>
        <type>quarter</type>
        <stem default-y="7">up</stem>
        <lyric default-y="-82" number="1" relative-x="8">
          <syllabic>single</syllabic>
          <text>the</text>
        </lyric>
        <lyric default-y="-103" number="2" relative-x="8">
          <syllabic>single</syllabic>
          <text>deep</text>
        </lyric>
        <lyric default-y="-124" number="3" relative-x="8">
          <syllabic>single</syllabic>
          <text font-size="8.25" font-style="italic" font-weight="bold">a</text>
        </lyric>
        <lyric default-y="-145" number="4" relative-x="8">
          <syllabic>begin</syllabic>
          <text font-size="8.25" font-style="italic" font-weight="bold">de</text>
        </lyric>
        <lyric default-y="-166" number="5" relative-x="8">
          <syllabic>single</syllabic>
          <text>how</text>
        </lyric>
        <lyric default-y="-187" number="6" relative-x="8">
          <syllabic>single</syllabic>
          <text>though</text>
        </lyric>
      </note>
      <note default-x="142">
        <chord/>
        <pitch>
          <step>A</step>
          <alter>-1</alter>
          <octave>4</octave>
        </pitch>
        <duration>4</duration>
        <voice>1</voice>
        <type>quarter</type>
        <stem>up</stem>
      </note>
    </measure>
    <!--=======================================================-->
    <measure number="11" width="235">
      <print new-system="yes"/>
      <note default-x="100">
        <pitch>
          <step>E</step>
          <alter>-1</alter>
          <octave>4</octave>
        </pitch>
        <duration>4</duration>
        <voice>1</voice>
        <type>quarter</type>
        <stem default-y="12">up</stem>
        <lyric default-y="-89" number="1">
          <syllabic>begin</syllabic>
          <text>An</text>
        </lyric>
        <lyric default-y="-110" number="2">
          <syllabic>begin</syllabic>
          <text>thun</text>
        </lyric>
        <lyric default-y="-131" number="3">
          <syllabic>begin</syllabic>
          <text font-size="8.25" font-style="italic" font-weight="bold">change</text>
        </lyric>
        <lyric default-y="-152" number="4">
          <syllabic>end</syllabic>
          <text font-size="8.25" font-style="italic" font-weight="bold">scends</text>
        </lyric>
        <lyric default-y="-172" number="5">
          <syllabic>single</syllabic>
          <text>firm</text>
        </lyric>
        <lyric default-y="-193" number="6">
          <syllabic>begin</syllabic>
          <text>fee</text>
        </lyric>
      </note>
      <note default-x="100">
        <chord/>
        <pitch>
          <step>B</step>
          <alter>-1</alter>
          <octave>4</octave>
        </pitch>
        <duration>4</duration>
        <voice>1</voice>
        <type>quarter</type>
        <stem>up</stem>
      </note>
      <note default-x="149">
        <pitch>
          <step>E</step>
          <alter>-1</alter>
          <octave>4</octave>
        </pitch>
        <duration>4</duration>
        <voice>1</voice>
        <type>quarter</type>
        <stem default-y="12">up</stem>
        <lyric default-y="-89" number="1">
          <syllabic>end</syllabic>
          <text>cient</text>
        </lyric>
        <lyric default-y="-110" number="2" relative-x="-8">
          <syllabic>middle</syllabic>
          <text>der</text>
        </lyric>
        <lyric default-y="-131" number="3" relative-x="9">
          <syllabic>end</syllabic>
          <text font-size="8.25" font-style="italic" font-weight="bold">less</text>
        </lyric>
        <lyric default-y="-152" number="4">
          <syllabic>single</syllabic>
          <text font-size="8.25" font-style="italic" font-weight="bold">to</text>
        </lyric>
        <lyric default-y="-172" number="5">
          <syllabic>single</syllabic>
          <text>to</text>
        </lyric>
        <lyric default-y="-193" number="6">
          <syllabic>end</syllabic>
          <text>ble</text>
        </lyric>
      </note>
      <note default-x="149">
        <chord/>
        <pitch>
          <step>B</step>
          <alter>-1</alter>
          <octave>4</octave>
        </pitch>
        <duration>4</duration>
        <voice>1</voice>
        <type>quarter</type>
        <stem>up</stem>
      </note>
      <note default-x="200">
        <pitch>
          <step>A</step>
          <alter>-1</alter>
          <octave>4</octave>
        </pitch>
        <duration>4</duration>
        <voice>1</voice>
        <type>quarter</type>
        <stem default-y="-51">down</stem>
        <lyric default-y="-89" number="1">
          <syllabic>single</syllabic>
          <text>of</text>
        </lyric>
        <lyric default-y="-110" number="2" relative-x="-2">
          <syllabic>end</syllabic>
          <text>clouds</text>
        </lyric>
        <lyric default-y="-131" number="3">
          <syllabic>begin</syllabic>
          <text font-size="8.25" font-style="italic" font-weight="bold">de</text>
        </lyric>
        <lyric default-y="-152" number="4">
          <syllabic>single</syllabic>
          <text font-size="8.25" font-style="italic" font-weight="bold">the</text>
        </lyric>
        <lyric default-y="-172" number="5">
          <syllabic>single</syllabic>
          <text>the</text>
        </lyric>
        <lyric default-y="-193" number="6">
          <syllabic>single</syllabic>
          <text>their</text>
        </lyric>
      </note>
      <note default-x="200">
        <chord/>
        <pitch>
          <step>C</step>
          <octave>5</octave>
        </pitch>
        <duration>4</duration>
        <voice>1</voice>
        <type>quarter</type>
        <stem>down</stem>
      </note>
    </measure>
    <!--=======================================================-->
    <measure number="12" width="112">
      <note default-x="22">
        <pitch>
          <step>G</step>
          <octave>4</octave>
        </pitch>
        <duration>8</duration>
        <voice>1</voice>
        <type>half</type>
        <stem default-y="-56">down</stem>
        <lyric default-y="-89" number="1" relative-x="-2">
          <syllabic>single</syllabic>
          <text>Days,</text>
        </lyric>
        <lyric default-y="-110" number="2">
          <syllabic>single</syllabic>
          <text>form,</text>
        </lyric>
        <lyric default-y="-131" number="3" relative-x="-2">
          <syllabic>end</syllabic>
          <text font-size="8.25" font-style="italic" font-weight="bold">cree,</text>
        </lyric>
        <lyric default-y="-152" number="4" relative-x="-2">
          <syllabic>single</syllabic>
          <text font-size="8.25" font-style="italic" font-weight="bold">plain,</text>
        </lyric>
        <lyric default-y="-172" number="5" relative-x="-2">
          <syllabic>single</syllabic>
          <text>end!</text>
        </lyric>
        <lyric default-y="-193" number="6" relative-x="-2">
          <syllabic>single</syllabic>
          <text>lays,</text>
        </lyric>
      </note>
      <note default-x="22">
        <chord/>
        <pitch>
          <step>D</step>
          <alter>-1</alter>
          <octave>5</octave>
        </pitch>
        <duration>8</duration>
        <voice>1</voice>
        <type>half</type>
        <stem>down</stem>
      </note>
      <note default-x="67">
        <pitch>
          <step>E</step>
          <alter>-1</alter>
          <octave>4</octave>
        </pitch>
        <duration>4</duration>
        <voice>1</voice>
        <type>quarter</type>
        <stem default-y="-8">up</stem>
        <lyric default-y="-89" number="1" relative-x="6">
          <syllabic>begin</syllabic>
          <text>Pa</text>
        </lyric>
        <lyric default-y="-110" number="2" relative-x="6">
          <syllabic>single</syllabic>
          <text>And</text>
        </lyric>
        <lyric default-y="-131" number="3" relative-x="6">
          <syllabic>single</syllabic>
          <text font-size="8.25" font-style="italic" font-weight="bold">And</text>
        </lyric>
        <lyric default-y="-152" number="4" relative-x="6">
          <syllabic>single</syllabic>
          <text font-size="8.25" font-style="italic" font-weight="bold">And</text>
        </lyric>
        <lyric default-y="-172" number="5" relative-x="6">
          <syllabic>single</syllabic>
          <text>Our</text>
        </lyric>
        <lyric default-y="-193" number="6" relative-x="6">
          <syllabic>single</syllabic>
          <text>With</text>
        </lyric>
      </note>
      <backup>
        <duration>4</duration>
      </backup>
      <note default-x="67">
        <pitch>
          <step>E</step>
          <alter>-1</alter>
          <octave>4</octave>
        </pitch>
        <duration>2</duration>
        <voice>2</voice>
        <type>eighth</type>
        <stem default-y="-68.5">down</stem>
        <beam number="1">begin</beam>
      </note>
      <note default-x="88">
        <pitch>
          <step>D</step>
          <alter>-1</alter>
          <octave>4</octave>
        </pitch>
        <duration>2</duration>
        <voice>2</voice>
        <type>eighth</type>
        <stem default-y="-73.5">down</stem>
        <beam number="1">end</beam>
      </note>
    </measure>
    <!--=======================================================-->
    <measure number="13" width="139">
      <note default-x="20">
        <pitch>
          <step>C</step>
          <octave>4</octave>
        </pitch>
        <duration>4</duration>
        <voice>1</voice>
        <type>quarter</type>
        <stem default-y="7">up</stem>
        <lyric default-y="-89" number="1" relative-x="-4">
          <syllabic>middle</syllabic>
          <text>vil</text>
        </lyric>
        <lyric default-y="-110" number="2">
          <syllabic>single</syllabic>
          <text>dark</text>
        </lyric>
        <lyric default-y="-131" number="3">
          <syllabic>single</syllabic>
          <text font-size="8.25" font-style="italic" font-weight="bold">round</text>
        </lyric>
        <lyric default-y="-152" number="4">
          <syllabic>begin</syllabic>
          <text font-size="8.25" font-style="italic" font-weight="bold">sweet</text>
        </lyric>
        <lyric default-y="-172" number="5">
          <syllabic>begin</syllabic>
          <text>Mak</text>
        </lyric>
        <lyric default-y="-193" number="6">
          <syllabic>single</syllabic>
          <text>true</text>
        </lyric>
      </note>
      <note default-x="20">
        <chord/>
        <pitch>
          <step>A</step>
          <alter>-1</alter>
          <octave>4</octave>
        </pitch>
        <duration>4</duration>
        <voice>1</voice>
        <type>quarter</type>
        <stem>up</stem>
      </note>
      <note default-x="67">
        <pitch>
          <step>E</step>
          <alter>-1</alter>
          <octave>4</octave>
        </pitch>
        <duration>4</duration>
        <voice>1</voice>
        <type>quarter</type>
        <stem default-y="7">up</stem>
        <lyric default-y="-89" number="1">
          <syllabic>end</syllabic>
          <text>ioned</text>
        </lyric>
        <lyric default-y="-110" number="2">
          <syllabic>single</syllabic>
          <text>is</text>
        </lyric>
        <lyric default-y="-131" number="3">
          <syllabic>single</syllabic>
          <text font-size="8.25" font-style="italic" font-weight="bold">it</text>
        </lyric>
        <lyric default-y="-152" number="4">
          <syllabic>end</syllabic>
          <text font-size="8.25" font-style="italic" font-weight="bold">ly</text>
        </lyric>
        <lyric default-y="-172" number="5">
          <syllabic>end</syllabic>
          <text>er,</text>
        </lyric>
        <lyric default-y="-193" number="6">
          <syllabic>begin</syllabic>
          <text>a</text>
        </lyric>
      </note>
      <note default-x="67">
        <chord/>
        <pitch>
          <step>A</step>
          <alter>-1</alter>
          <octave>4</octave>
        </pitch>
        <duration>4</duration>
        <voice>1</voice>
        <type>quarter</type>
        <stem>up</stem>
      </note>
      <note default-x="109">
        <pitch>
          <step>E</step>
          <alter>-1</alter>
          <octave>4</octave>
        </pitch>
        <duration>4</duration>
        <voice>1</voice>
        <type>quarter</type>
        <stem default-y="12">up</stem>
        <lyric default-y="-89" number="1">
          <syllabic>single</syllabic>
          <text>in</text>
        </lyric>
        <lyric default-y="-110" number="2">
          <syllabic>single</syllabic>
          <text>His</text>
        </lyric>
        <lyric default-y="-131" number="3">
          <syllabic>single</syllabic>
          <text font-size="8.25" font-style="italic" font-weight="bold">hath</text>
        </lyric>
        <lyric default-y="-152" number="4">
          <syllabic>begin</syllabic>
          <text font-size="8.25" font-style="italic" font-weight="bold">dis</text>
        </lyric>
        <lyric default-y="-172" number="5">
          <syllabic>begin</syllabic>
          <text>De</text>
        </lyric>
        <lyric default-y="-193" number="6">
          <syllabic>middle</syllabic>
          <text>do</text>
        </lyric>
      </note>
      <note default-x="109">
        <chord/>
        <pitch>
          <step>B</step>
          <alter>-1</alter>
          <octave>4</octave>
        </pitch>
        <duration>4</duration>
        <voice>1</voice>
        <type>quarter</type>
        <stem>up</stem>
      </note>
    </measure>
    <!--=======================================================-->
    <measure number="14" width="141">
      <note default-x="19">
        <pitch>
          <step>E</step>
          <alter>-1</alter>
          <octave>4</octave>
        </pitch>
        <duration>4</duration>
        <voice>1</voice>
        <type>quarter</type>
        <stem default-y="11.5">up</stem>
        <lyric default-y="-89" number="1">
          <syllabic>begin</syllabic>
          <text>splen</text>
        </lyric>
        <lyric default-y="-110" number="2">
          <syllabic>single</syllabic>
          <text>path</text>
        </lyric>
        <lyric default-y="-131" number="3">
          <syllabic>single</syllabic>
          <text font-size="8.25" font-style="italic" font-weight="bold">cast,</text>
        </lyric>
        <lyric default-y="-152" number="4">
          <syllabic>end</syllabic>
          <text font-size="8.25" font-style="italic" font-weight="bold">tills</text>
        </lyric>
        <lyric default-y="-172" number="5">
          <syllabic>middle</syllabic>
          <text>fend</text>
        </lyric>
        <lyric default-y="-193" number="6">
          <syllabic>middle</syllabic>
          <text>ra</text>
        </lyric>
      </note>
      <note default-x="19">
        <chord/>
        <pitch>
          <step>C</step>
          <octave>5</octave>
        </pitch>
        <duration>4</duration>
        <voice>1</voice>
        <type>quarter</type>
        <stem>up</stem>
      </note>
      <note default-x="66">
        <pitch>
          <step>E</step>
          <alter>-1</alter>
          <octave>4</octave>
        </pitch>
        <duration>4</duration>
        <voice>1</voice>
        <type>quarter</type>
        <stem default-y="11.5">up</stem>
        <lyric default-y="-89" number="1" relative-x="4">
          <syllabic>end</syllabic>
          <text>dor</text>
        </lyric>
        <lyric default-y="-110" number="2">
          <syllabic>single</syllabic>
          <text>on</text>
        </lyric>
        <lyric default-y="-131" number="3">
          <syllabic>single</syllabic>
          <text font-size="8.25" font-style="italic" font-weight="bold">like</text>
        </lyric>
        <lyric default-y="-152" number="4">
          <syllabic>single</syllabic>
          <text font-size="8.25" font-style="italic" font-weight="bold">in</text>
        </lyric>
        <lyric default-y="-172" number="5">
          <syllabic>end</syllabic>
          <text>er,</text>
        </lyric>
        <lyric default-y="-193" number="6">
          <syllabic>end</syllabic>
          <text>tion</text>
        </lyric>
      </note>
      <note default-x="66">
        <chord/>
        <pitch>
          <step>C</step>
          <octave>5</octave>
        </pitch>
        <duration>4</duration>
        <voice>1</voice>
        <type>quarter</type>
        <stem>up</stem>
      </note>
      <note default-x="108">
        <pitch>
          <step>F</step>
          <octave>4</octave>
        </pitch>
        <duration>4</duration>
        <voice>1</voice>
        <type>quarter</type>
        <stem default-y="16.5">up</stem>
        <lyric default-y="-89" number="1" relative-x="7">
          <syllabic>single</syllabic>
          <text>and</text>
        </lyric>
        <lyric default-y="-110" number="2" relative-x="6">
          <syllabic>single</syllabic>
          <text>the</text>
        </lyric>
        <lyric default-y="-131" number="3" relative-x="6">
          <syllabic>single</syllabic>
          <text font-size="8.25" font-style="italic" font-weight="bold">a</text>
        </lyric>
        <lyric default-y="-152" number="4" relative-x="6">
          <syllabic>single</syllabic>
          <text font-size="8.25" font-style="italic" font-weight="bold">the</text>
        </lyric>
        <lyric default-y="-172" number="5" relative-x="6">
          <syllabic>begin</syllabic>
          <text>Re</text>
        </lyric>
        <lyric default-y="-193" number="6" relative-x="6">
          <syllabic>single</syllabic>
          <text>shall</text>
        </lyric>
      </note>
      <note default-x="108">
        <chord/>
        <pitch>
          <step>D</step>
          <alter>-1</alter>
          <octave>5</octave>
        </pitch>
        <duration>4</duration>
        <voice>1</voice>
        <type>quarter</type>
        <stem>up</stem>
      </note>
    </measure>
    <!--=======================================================-->
    <measure number="15" width="148">
      <note default-x="20">
        <pitch>
          <step>E</step>
          <alter>-1</alter>
          <octave>4</octave>
        </pitch>
        <duration>3</duration>
        <voice>1</voice>
        <type>eighth</type>
        <dot/>
        <stem default-y="26.5">up</stem>
        <beam number="1">begin</beam>
        <lyric default-y="-89" number="1">
          <syllabic>begin</syllabic>
          <text>gird</text>
        </lyric>
        <lyric default-y="-110" number="2">
          <syllabic>single</syllabic>
          <text>wings</text>
        </lyric>
        <lyric default-y="-131" number="3">
          <syllabic>begin</syllabic>
          <text font-size="8.25" font-style="italic" font-weight="bold">man</text>
        </lyric>
        <lyric default-y="-152" number="4">
          <syllabic>single</syllabic>
          <text font-size="8.25" font-style="italic" font-weight="bold">dew</text>
        </lyric>
        <lyric default-y="-172" number="5" relative-x="3">
          <syllabic>middle</syllabic>
          <text>deem</text>
        </lyric>
        <lyric default-y="-193" number="6" relative-x="-3">
          <syllabic>single</syllabic>
          <text>all</text>
        </lyric>
      </note>
      <note default-x="20">
        <chord/>
        <pitch>
          <step>E</step>
          <alter>-1</alter>
          <octave>5</octave>
        </pitch>
        <duration>3</duration>
        <voice>1</voice>
        <type>eighth</type>
        <dot/>
        <stem>up</stem>
      </note>
      <note default-x="55">
        <pitch>
          <step>F</step>
          <octave>4</octave>
        </pitch>
        <duration>1</duration>
        <voice>1</voice>
        <type>16th</type>
        <stem default-y="21.5">up</stem>
        <beam number="1">end</beam>
        <beam number="2">backward hook</beam>
      </note>
      <note default-x="55">
        <chord/>
        <pitch>
          <step>D</step>
          <alter>-1</alter>
          <octave>5</octave>
        </pitch>
        <duration>1</duration>
        <voice>1</voice>
        <type>16th</type>
        <stem>up</stem>
      </note>
      <note default-x="78">
        <pitch>
          <step>E</step>
          <alter>-1</alter>
          <octave>4</octave>
        </pitch>
        <duration>4</duration>
        <voice>1</voice>
        <type>quarter</type>
        <stem default-y="11.5">up</stem>
        <lyric default-y="-89" number="1">
          <syllabic>end</syllabic>
          <text>ed</text>
        </lyric>
        <lyric default-y="-110" number="2">
          <syllabic>single</syllabic>
          <text>of</text>
        </lyric>
        <lyric default-y="-131" number="3">
          <syllabic>end</syllabic>
          <text font-size="8.25" font-style="italic" font-weight="bold">tle,</text>
        </lyric>
        <lyric default-y="-152" number="4" relative-x="-2">
          <syllabic>single</syllabic>
          <text font-size="8.25" font-style="italic" font-weight="bold">and</text>
        </lyric>
        <lyric default-y="-172" number="5" relative-x="-4">
          <syllabic>end</syllabic>
          <text>er,</text>
        </lyric>
        <lyric default-y="-193" number="6" relative-x="-11">
          <syllabic>single</syllabic>
          <text>sing</text>
        </lyric>
      </note>
      <note default-x="78">
        <chord/>
        <pitch>
          <step>C</step>
          <octave>5</octave>
        </pitch>
        <duration>4</duration>
        <voice>1</voice>
        <type>quarter</type>
        <stem>up</stem>
      </note>
      <note default-x="117">
        <pitch>
          <step>D</step>
          <alter>-1</alter>
          <octave>4</octave>
        </pitch>
        <duration>4</duration>
        <voice>1</voice>
        <type>quarter</type>
        <stem default-y="12">up</stem>
        <lyric default-y="-89" number="1" relative-x="-2">
          <syllabic>single</syllabic>
          <text>with</text>
        </lyric>
        <lyric default-y="-110" number="2">
          <syllabic>single</syllabic>
          <text>the</text>
        </lyric>
        <lyric default-y="-131" number="3">
          <syllabic>single</syllabic>
          <text font-size="8.25" font-style="italic" font-weight="bold">the</text>
        </lyric>
        <lyric default-y="-152" number="4">
          <syllabic>single</syllabic>
          <text font-size="8.25" font-style="italic" font-weight="bold">the</text>
        </lyric>
        <lyric default-y="-172" number="5" relative-x="-4">
          <syllabic>single</syllabic>
          <text>and</text>
        </lyric>
        <lyric default-y="-193" number="6" relative-x="-4">
          <syllabic>single</syllabic>
          <text>Thy</text>
        </lyric>
      </note>
      <note default-x="117">
        <chord/>
        <pitch>
          <step>B</step>
          <alter>-1</alter>
          <octave>4</octave>
        </pitch>
        <duration>4</duration>
        <voice>1</voice>
        <type>quarter</type>
        <stem>up</stem>
      </note>
    </measure>
    <!--=======================================================-->
    <measure number="16" width="73">
      <note default-x="24">
        <pitch>
          <step>C</step>
          <octave>4</octave>
        </pitch>
        <duration>8</duration>
        <voice>1</voice>
        <type>half</type>
        <stem default-y="7">up</stem>
        <lyric default-y="-89" number="1">
          <syllabic>single</syllabic>
          <text>praise.</text>
        </lyric>
        <lyric default-y="-110" number="2">
          <syllabic>single</syllabic>
          <text>storm.</text>
        </lyric>
        <lyric default-y="-131" number="3">
          <syllabic>single</syllabic>
          <text font-size="8.25" font-style="italic" font-weight="bold">sea.</text>
        </lyric>
        <lyric default-y="-152" number="4">
          <syllabic>single</syllabic>
          <text font-size="8.25" font-style="italic" font-weight="bold">rain.</text>
        </lyric>
        <lyric default-y="-172" number="5">
          <syllabic>single</syllabic>
          <text>Friend.</text>
        </lyric>
        <lyric default-y="-193" number="6">
          <syllabic>single</syllabic>
          <text>praise.</text>
        </lyric>
      </note>
      <note default-x="24">
        <chord/>
        <pitch>
          <step>A</step>
          <alter>-1</alter>
          <octave>4</octave>
        </pitch>
        <duration>8</duration>
        <voice>1</voice>
        <type>half</type>
        <stem>up</stem>
      </note>
      <barline location="right">
        <bar-style>light-heavy</bar-style>
      </barline>
    </measure>
  </part>
  <!--=========================================================-->
  <part id="P2">
    <measure implicit="yes" number="0" width="158">
      <print>
        <staff-layout number="1">
          <staff-distance>178</staff-distance>
        </staff-layout>
        <measure-numbering>none</measure-numbering>
      </print>
      <attributes>
        <divisions>4</divisions>
        <key>
          <fifths>-4</fifths>
          <mode>major</mode>
        </key>
        <time>
          <beats>3</beats>
          <beat-type>4</beat-type>
        </time>
        <clef>
          <sign>F</sign>
          <line>4</line>
        </clef>
      </attributes>
      <sound tempo="101"/>
      <note default-x="120">
        <pitch>
          <step>A</step>
          <alter>-1</alter>
          <octave>2</octave>
        </pitch>
        <duration>4</duration>
        <voice>1</voice>
        <type>quarter</type>
        <stem default-y="-61">down</stem>
      </note>
      <note default-x="120">
        <chord/>
        <pitch>
          <step>A</step>
          <alter>-1</alter>
          <octave>3</octave>
        </pitch>
        <duration>4</duration>
        <voice>1</voice>
        <type>quarter</type>
        <stem>down</stem>
      </note>
    </measure>
    <!--=======================================================-->
    <measure number="1" width="147">
      <note default-x="24">
        <pitch>
          <step>A</step>
          <alter>-1</alter>
          <octave>2</octave>
        </pitch>
        <duration>4</duration>
        <voice>1</voice>
        <type>quarter</type>
        <stem default-y="-61">down</stem>
      </note>
      <note default-x="24">
        <chord/>
        <pitch>
          <step>C</step>
          <octave>4</octave>
        </pitch>
        <duration>4</duration>
        <voice>1</voice>
        <type>quarter</type>
        <stem>down</stem>
      </note>
      <note default-x="74">
        <pitch>
          <step>C</step>
          <octave>3</octave>
        </pitch>
        <duration>4</duration>
        <voice>1</voice>
        <type>quarter</type>
        <stem default-y="-51">down</stem>
      </note>
      <note default-x="74">
        <chord/>
        <pitch>
          <step>A</step>
          <alter>-1</alter>
          <octave>3</octave>
        </pitch>
        <duration>4</duration>
        <voice>1</voice>
        <type>quarter</type>
        <stem>down</stem>
      </note>
      <note default-x="116">
        <pitch>
          <step>E</step>
          <alter>-1</alter>
          <octave>3</octave>
        </pitch>
        <duration>4</duration>
        <voice>1</voice>
        <type>quarter</type>
        <stem default-y="-46.5">down</stem>
      </note>
      <note default-x="116">
        <chord/>
        <pitch>
          <step>G</step>
          <octave>3</octave>
        </pitch>
        <duration>4</duration>
        <voice>1</voice>
        <type>quarter</type>
        <stem>down</stem>
      </note>
    </measure>
    <!--=======================================================-->
    <measure number="2" width="104">
      <note default-x="23">
        <pitch>
          <step>A</step>
          <alter>-1</alter>
          <octave>3</octave>
        </pitch>
        <duration>8</duration>
        <voice>1</voice>
        <type>half</type>
        <stem>double</stem>
      </note>
      <note default-x="73">
        <pitch>
          <step>C</step>
          <octave>3</octave>
        </pitch>
        <duration>4</duration>
        <voice>1</voice>
        <type>quarter</type>
        <stem default-y="-51">down</stem>
      </note>
      <note default-x="73">
        <chord/>
        <pitch>
          <step>A</step>
          <alter>-1</alter>
          <octave>3</octave>
        </pitch>
        <duration>4</duration>
        <voice>1</voice>
        <type>quarter</type>
        <stem>down</stem>
      </note>
    </measure>
    <!--=======================================================-->
    <measure number="3" width="160">
      <note default-x="27">
        <pitch>
          <step>F</step>
          <octave>3</octave>
        </pitch>
        <duration>4</duration>
        <voice>1</voice>
        <type>quarter</type>
        <stem default-y="-41.5">down</stem>
      </note>
      <note default-x="27">
        <chord/>
        <pitch>
          <step>A</step>
          <alter>-1</alter>
          <octave>3</octave>
        </pitch>
        <duration>4</duration>
        <voice>1</voice>
        <type>quarter</type>
        <stem>down</stem>
      </note>
      <note default-x="82">
        <pitch>
          <step>G</step>
          <octave>3</octave>
        </pitch>
        <duration>4</duration>
        <voice>1</voice>
        <type>quarter</type>
        <stem default-y="-36.5">down</stem>
      </note>
      <note default-x="82">
        <chord/>
        <pitch>
          <step>B</step>
          <alter>-1</alter>
          <octave>3</octave>
        </pitch>
        <duration>4</duration>
        <voice>1</voice>
        <type>quarter</type>
        <stem>down</stem>
      </note>
      <note default-x="129">
        <pitch>
          <step>A</step>
          <alter>-1</alter>
          <octave>3</octave>
        </pitch>
        <duration>4</duration>
        <voice>1</voice>
        <type>quarter</type>
        <stem>double</stem>
      </note>
    </measure>
    <!--=======================================================-->
    <measure number="4" width="117">
      <note default-x="21">
        <pitch>
          <step>E</step>
          <alter>-1</alter>
          <octave>3</octave>
        </pitch>
        <duration>8</duration>
        <voice>1</voice>
        <type>half</type>
        <stem default-y="-46.5">down</stem>
      </note>
      <note default-x="21">
        <chord/>
        <pitch>
          <step>G</step>
          <octave>3</octave>
        </pitch>
        <duration>8</duration>
        <voice>1</voice>
        <type>half</type>
        <stem>down</stem>
      </note>
      <note default-x="67">
        <pitch>
          <step>E</step>
          <alter>-1</alter>
          <octave>3</octave>
        </pitch>
        <duration>4</duration>
        <voice>1</voice>
        <type>quarter</type>
        <stem default-y="-46.5">down</stem>
      </note>
      <note default-x="67">
        <chord/>
        <pitch>
          <step>G</step>
          <octave>3</octave>
        </pitch>
        <duration>4</duration>
        <voice>1</voice>
        <type>quarter</type>
        <stem>down</stem>
      </note>
    </measure>
    <!--=======================================================-->
    <measure number="5" width="162">
      <note default-x="27">
        <pitch>
          <step>A</step>
          <alter>-1</alter>
          <octave>2</octave>
        </pitch>
        <duration>4</duration>
        <voice>1</voice>
        <type>quarter</type>
        <stem default-y="-61">down</stem>
      </note>
      <note default-x="27">
        <chord/>
        <pitch>
          <step>A</step>
          <alter>-1</alter>
          <octave>3</octave>
        </pitch>
        <duration>4</duration>
        <voice>1</voice>
        <type>quarter</type>
        <stem>down</stem>
      </note>
      <note default-x="84">
        <pitch>
          <step>C</step>
          <octave>3</octave>
        </pitch>
        <duration>4</duration>
        <voice>1</voice>
        <type>quarter</type>
        <stem default-y="-51">down</stem>
      </note>
      <note default-x="84">
        <chord/>
        <pitch>
          <step>A</step>
          <alter>-1</alter>
          <octave>3</octave>
        </pitch>
        <duration>4</duration>
        <voice>1</voice>
        <type>quarter</type>
        <stem>down</stem>
      </note>
      <note default-x="132">
        <pitch>
          <step>E</step>
          <alter>-1</alter>
          <octave>3</octave>
        </pitch>
        <duration>4</duration>
        <voice>1</voice>
        <type>quarter</type>
        <stem default-y="-46.5">down</stem>
      </note>
      <note default-x="132">
        <chord/>
        <pitch>
          <step>G</step>
          <octave>3</octave>
        </pitch>
        <duration>4</duration>
        <voice>1</voice>
        <type>quarter</type>
        <stem>down</stem>
      </note>
    </measure>
    <!--=======================================================-->
    <measure number="6" width="196">
      <print new-system="yes">
        <staff-layout number="1">
          <staff-distance>178</staff-distance>
        </staff-layout>
      </print>
      <note default-x="99">
        <pitch>
          <step>A</step>
          <alter>-1</alter>
          <octave>3</octave>
        </pitch>
        <duration>8</duration>
        <voice>1</voice>
        <type>half</type>
        <stem>double</stem>
      </note>
      <note default-x="157">
        <pitch>
          <step>F</step>
          <octave>3</octave>
        </pitch>
        <duration>4</duration>
        <voice>1</voice>
        <type>quarter</type>
        <stem default-y="-41">down</stem>
      </note>
      <note default-x="157">
        <chord/>
        <pitch>
          <step>A</step>
          <alter>-1</alter>
          <octave>3</octave>
        </pitch>
        <duration>4</duration>
        <voice>1</voice>
        <type>quarter</type>
        <stem>down</stem>
      </note>
    </measure>
    <!--=======================================================-->
    <measure number="7" width="165">
      <note default-x="24">
        <pitch>
          <step>C</step>
          <octave>3</octave>
        </pitch>
        <duration>3</duration>
        <voice>1</voice>
        <type>eighth</type>
        <dot/>
        <stem default-y="-56">down</stem>
        <beam number="1">begin</beam>
      </note>
      <backup>
        <duration>3</duration>
      </backup>
      <note default-x="24">
        <pitch>
          <step>A</step>
          <alter>-1</alter>
          <octave>3</octave>
        </pitch>
        <duration>4</duration>
        <voice>2</voice>
        <type>quarter</type>
        <stem default-y="24">up</stem>
      </note>
      <backup>
        <duration>1</duration>
      </backup>
      <note default-x="62">
        <pitch>
          <step>D</step>
          <alter>-1</alter>
          <octave>3</octave>
        </pitch>
        <duration>1</duration>
        <voice>1</voice>
        <type>16th</type>
        <stem default-y="-51">down</stem>
        <beam number="1">end</beam>
        <beam number="2">backward hook</beam>
      </note>
      <note default-x="92">
        <pitch>
          <step>E</step>
          <alter>-1</alter>
          <octave>3</octave>
        </pitch>
        <duration>4</duration>
        <voice>1</voice>
        <type>quarter</type>
        <stem default-y="-46">down</stem>
      </note>
      <note default-x="92">
        <chord/>
        <pitch>
          <step>A</step>
          <alter>-1</alter>
          <octave>3</octave>
        </pitch>
        <duration>4</duration>
        <voice>1</voice>
        <type>quarter</type>
        <stem>down</stem>
      </note>
      <note default-x="135">
        <pitch>
          <step>E</step>
          <alter>-1</alter>
          <octave>3</octave>
        </pitch>
        <duration>4</duration>
        <voice>1</voice>
        <type>quarter</type>
        <stem default-y="-46">down</stem>
      </note>
      <note default-x="135">
        <chord/>
        <pitch>
          <step>G</step>
          <octave>3</octave>
        </pitch>
        <duration>4</duration>
        <voice>1</voice>
        <type>quarter</type>
        <stem>down</stem>
      </note>
    </measure>
    <!--=======================================================-->
    <measure number="8" width="123">
      <note default-x="24">
        <pitch>
          <step>A</step>
          <alter>-1</alter>
          <octave>2</octave>
        </pitch>
        <duration>8</duration>
        <voice>1</voice>
        <type>half</type>
        <stem default-y="-61">down</stem>
      </note>
      <note default-x="24">
        <chord/>
        <pitch>
          <step>A</step>
          <alter>-1</alter>
          <octave>3</octave>
        </pitch>
        <duration>8</duration>
        <voice>1</voice>
        <type>half</type>
        <stem>down</stem>
      </note>
      <note default-x="84">
        <pitch>
          <step>E</step>
          <alter>-1</alter>
          <octave>3</octave>
        </pitch>
        <duration>4</duration>
        <voice>1</voice>
        <type>quarter</type>
        <stem default-y="-46">down</stem>
      </note>
      <note default-x="84">
        <chord/>
        <pitch>
          <step>G</step>
          <octave>3</octave>
        </pitch>
        <duration>4</duration>
        <voice>1</voice>
        <type>quarter</type>
        <stem>down</stem>
      </note>
    </measure>
    <!--=======================================================-->
    <measure number="9" width="170">
      <note default-x="30">
        <pitch>
          <step>E</step>
          <alter>-1</alter>
          <octave>3</octave>
        </pitch>
        <duration>4</duration>
        <voice>1</voice>
        <type>quarter</type>
        <stem default-y="-46">down</stem>
      </note>
      <note default-x="30">
        <chord/>
        <pitch>
          <step>G</step>
          <octave>3</octave>
        </pitch>
        <duration>4</duration>
        <voice>1</voice>
        <type>quarter</type>
        <stem>down</stem>
      </note>
      <note default-x="90">
        <pitch>
          <step>E</step>
          <alter>-1</alter>
          <octave>3</octave>
        </pitch>
        <duration>4</duration>
        <voice>1</voice>
        <type>quarter</type>
        <stem default-y="-46">down</stem>
      </note>
      <note default-x="90">
        <chord/>
        <pitch>
          <step>G</step>
          <octave>3</octave>
        </pitch>
        <duration>4</duration>
        <voice>1</voice>
        <type>quarter</type>
        <stem>down</stem>
      </note>
      <note default-x="138">
        <pitch>
          <step>E</step>
          <alter>-1</alter>
          <octave>3</octave>
        </pitch>
        <duration>4</duration>
        <voice>1</voice>
        <type>quarter</type>
        <stem default-y="-46">down</stem>
      </note>
      <note default-x="138">
        <chord/>
        <pitch>
          <step>A</step>
          <alter>-1</alter>
          <octave>3</octave>
        </pitch>
        <duration>4</duration>
        <voice>1</voice>
        <type>quarter</type>
        <stem>down</stem>
      </note>
    </measure>
    <!--=======================================================-->
    <measure number="10" width="195">
      <note default-x="24">
        <pitch>
          <step>E</step>
          <alter>-1</alter>
          <octave>3</octave>
        </pitch>
        <duration>4</duration>
        <voice>1</voice>
        <type>quarter</type>
        <stem default-y="-46">down</stem>
      </note>
      <note default-x="24">
        <chord/>
        <pitch>
          <step>B</step>
          <alter>-1</alter>
          <octave>3</octave>
        </pitch>
        <duration>4</duration>
        <voice>1</voice>
        <type>quarter</type>
        <stem>down</stem>
      </note>
      <note default-x="81">
        <pitch>
          <step>E</step>
          <alter>-1</alter>
          <octave>3</octave>
        </pitch>
        <duration>4</duration>
        <voice>1</voice>
        <type>quarter</type>
        <stem default-y="-46">down</stem>
      </note>
      <note default-x="81">
        <chord/>
        <pitch>
          <step>B</step>
          <alter>-1</alter>
          <octave>3</octave>
        </pitch>
        <duration>4</duration>
        <voice>1</voice>
        <type>quarter</type>
        <stem>down</stem>
      </note>
      <note default-x="142">
        <pitch>
          <step>E</step>
          <alter>-1</alter>
          <octave>3</octave>
        </pitch>
        <duration>4</duration>
        <voice>1</voice>
        <type>quarter</type>
        <stem default-y="-46">down</stem>
      </note>
      <note default-x="142">
        <chord/>
        <pitch>
          <step>A</step>
          <alter>-1</alter>
          <octave>3</octave>
        </pitch>
        <duration>4</duration>
        <voice>1</voice>
        <type>quarter</type>
        <stem>down</stem>
      </note>
    </measure>
    <!--=======================================================-->
    <measure number="11" width="235">
      <print new-system="yes">
        <staff-layout number="1">
          <staff-distance>184</staff-distance>
        </staff-layout>
      </print>
      <note default-x="100">
        <pitch>
          <step>E</step>
          <alter>-1</alter>
          <octave>3</octave>
        </pitch>
        <duration>4</duration>
        <voice>1</voice>
        <type>quarter</type>
        <stem default-y="-46.5">down</stem>
      </note>
      <note default-x="100">
        <chord/>
        <pitch>
          <step>G</step>
          <octave>3</octave>
        </pitch>
        <duration>4</duration>
        <voice>1</voice>
        <type>quarter</type>
        <stem>down</stem>
      </note>
      <note default-x="149">
        <pitch>
          <step>E</step>
          <alter>-1</alter>
          <octave>3</octave>
        </pitch>
        <duration>4</duration>
        <voice>1</voice>
        <type>quarter</type>
        <stem default-y="-46.5">down</stem>
      </note>
      <note default-x="149">
        <chord/>
        <pitch>
          <step>G</step>
          <octave>3</octave>
        </pitch>
        <duration>4</duration>
        <voice>1</voice>
        <type>quarter</type>
        <stem>down</stem>
      </note>
      <note default-x="200">
        <pitch>
          <step>E</step>
          <alter>-1</alter>
          <octave>3</octave>
        </pitch>
        <duration>4</duration>
        <voice>1</voice>
        <type>quarter</type>
        <stem default-y="-46.5">down</stem>
      </note>
      <note default-x="200">
        <chord/>
        <pitch>
          <step>A</step>
          <alter>-1</alter>
          <octave>3</octave>
        </pitch>
        <duration>4</duration>
        <voice>1</voice>
        <type>quarter</type>
        <stem>down</stem>
      </note>
    </measure>
    <!--=======================================================-->
    <measure number="12" width="112">
      <note default-x="22">
        <pitch>
          <step>E</step>
          <alter>-1</alter>
          <octave>3</octave>
        </pitch>
        <duration>8</duration>
        <voice>1</voice>
        <type>half</type>
        <stem default-y="-46.5">down</stem>
      </note>
      <note default-x="22">
        <chord/>
        <pitch>
          <step>B</step>
          <alter>-1</alter>
          <octave>3</octave>
        </pitch>
        <duration>8</duration>
        <voice>1</voice>
        <type>half</type>
        <stem>down</stem>
      </note>
      <note default-x="67">
        <pitch>
          <step>E</step>
          <alter>-1</alter>
          <octave>3</octave>
        </pitch>
        <duration>4</duration>
        <voice>1</voice>
        <type>quarter</type>
        <stem default-y="-46.5">down</stem>
      </note>
      <note default-x="67">
        <chord/>
        <pitch>
          <step>G</step>
          <octave>3</octave>
        </pitch>
        <duration>4</duration>
        <voice>1</voice>
        <type>quarter</type>
        <stem>down</stem>
      </note>
    </measure>
    <!--=======================================================-->
    <measure number="13" width="139">
      <note default-x="20">
        <pitch>
          <step>A</step>
          <alter>-1</alter>
          <octave>2</octave>
        </pitch>
        <duration>4</duration>
        <voice>1</voice>
        <type>quarter</type>
        <stem default-y="-61">down</stem>
      </note>
      <note default-x="20">
        <chord/>
        <pitch>
          <step>A</step>
          <alter>-1</alter>
          <octave>3</octave>
        </pitch>
        <duration>4</duration>
        <voice>1</voice>
        <type>quarter</type>
        <stem>down</stem>
      </note>
      <note default-x="67">
        <pitch>
          <step>C</step>
          <octave>3</octave>
        </pitch>
        <duration>4</duration>
        <voice>1</voice>
        <type>quarter</type>
        <stem default-y="-51">down</stem>
      </note>
      <note default-x="67">
        <chord/>
        <pitch>
          <step>A</step>
          <alter>-1</alter>
          <octave>3</octave>
        </pitch>
        <duration>4</duration>
        <voice>1</voice>
        <type>quarter</type>
        <stem>down</stem>
      </note>
      <note default-x="109">
        <pitch>
          <step>E</step>
          <alter>-1</alter>
          <octave>3</octave>
        </pitch>
        <duration>4</duration>
        <voice>1</voice>
        <type>quarter</type>
        <stem default-y="-46.5">down</stem>
      </note>
      <note default-x="109">
        <chord/>
        <pitch>
          <step>G</step>
          <octave>3</octave>
        </pitch>
        <duration>4</duration>
        <voice>1</voice>
        <type>quarter</type>
        <stem>down</stem>
      </note>
    </measure>
    <!--=======================================================-->
    <measure number="14" width="141">
      <note default-x="19">
        <pitch>
          <step>A</step>
          <alter>-1</alter>
          <octave>3</octave>
        </pitch>
        <duration>4</duration>
        <voice>1</voice>
        <type>quarter</type>
        <stem>double</stem>
      </note>
      <note default-x="66">
        <pitch>
          <step>A</step>
          <alter>-1</alter>
          <octave>3</octave>
        </pitch>
        <duration>4</duration>
        <voice>1</voice>
        <type>quarter</type>
        <stem>double</stem>
      </note>
      <note default-x="108">
        <pitch>
          <step>F</step>
          <octave>3</octave>
        </pitch>
        <duration>4</duration>
        <voice>1</voice>
        <type>quarter</type>
        <stem default-y="-41.5">down</stem>
      </note>
      <note default-x="108">
        <chord/>
        <pitch>
          <step>A</step>
          <alter>-1</alter>
          <octave>3</octave>
        </pitch>
        <duration>4</duration>
        <voice>1</voice>
        <type>quarter</type>
        <stem>down</stem>
      </note>
    </measure>
    <!--=======================================================-->
    <measure number="15" width="148">
      <note default-x="20">
        <pitch>
          <step>C</step>
          <octave>3</octave>
        </pitch>
        <duration>3</duration>
        <voice>1</voice>
        <type>eighth</type>
        <dot/>
        <stem default-y="-56">down</stem>
        <beam number="1">begin</beam>
      </note>
      <backup>
        <duration>3</duration>
      </backup>
      <note default-x="20">
        <pitch>
          <step>A</step>
          <alter>-1</alter>
          <octave>3</octave>
        </pitch>
        <duration>4</duration>
        <voice>2</voice>
        <type>quarter</type>
        <stem default-y="21">up</stem>
      </note>
      <backup>
        <duration>1</duration>
      </backup>
      <note default-x="55">
        <pitch>
          <step>D</step>
          <alter>-1</alter>
          <octave>3</octave>
        </pitch>
        <duration>1</duration>
        <voice>1</voice>
        <type>16th</type>
        <stem default-y="-51">down</stem>
        <beam number="1">end</beam>
        <beam number="2">backward hook</beam>
      </note>
      <note default-x="78">
        <pitch>
          <step>E</step>
          <alter>-1</alter>
          <octave>3</octave>
        </pitch>
        <duration>4</duration>
        <voice>1</voice>
        <type>quarter</type>
        <stem default-y="-46.5">down</stem>
      </note>
      <note default-x="78">
        <chord/>
        <pitch>
          <step>A</step>
          <alter>-1</alter>
          <octave>3</octave>
        </pitch>
        <duration>4</duration>
        <voice>1</voice>
        <type>quarter</type>
        <stem>down</stem>
      </note>
      <note default-x="117">
        <pitch>
          <step>E</step>
          <alter>-1</alter>
          <octave>3</octave>
        </pitch>
        <duration>4</duration>
        <voice>1</voice>
        <type>quarter</type>
        <stem default-y="-46.5">down</stem>
      </note>
      <note default-x="117">
        <chord/>
        <pitch>
          <step>G</step>
          <octave>3</octave>
        </pitch>
        <duration>4</duration>
        <voice>1</voice>
        <type>quarter</type>
        <stem>down</stem>
      </note>
    </measure>
    <!--=======================================================-->
    <measure number="16" width="73">
      <note default-x="24">
        <pitch>
          <step>A</step>
          <alter>-1</alter>
          <octave>2</octave>
        </pitch>
        <duration>8</duration>
        <voice>1</voice>
        <type>half</type>
        <stem default-y="-61">down</stem>
      </note>
      <note default-x="24">
        <chord/>
        <pitch>
          <step>A</step>
          <alter>-1</alter>
          <octave>3</octave>
        </pitch>
        <duration>8</duration>
        <voice>1</voice>
        <type>half</type>
        <stem>down</stem>
      </note>
      <barline location="right">
        <bar-style>light-heavy</bar-style>
      </barline>
    </measure>
  </part>
  <!--=========================================================-->
</score-partwise>
