<?xml version="1.0" encoding="UTF-8" standalone="no"?>
<!DOCTYPE score-partwise PUBLIC "-//Recordare//DTD MusicXML 3.1 Partwise//EN" "http://www.musicxml.org/dtds/partwise.dtd">
<score-partwise version="3.1">
  <identification>
    <encoding>
      <software>Finale v25 for Windows</software>
      <encoding-date>2020-07-08</encoding-date>
      <supports attribute="new-system" element="print" type="yes" value="yes"/>
      <supports attribute="new-page" element="print" type="yes" value="yes"/>
      <supports element="accidental" type="yes"/>
      <supports element="beam" type="yes"/>
      <supports element="stem" type="yes"/>
    </encoding>
  </identification>
  <defaults>
    <scaling>
      <millimeters>6.35</millimeters>
      <tenths>40</tenths>
    </scaling>
    <page-layout>
      <page-height>1380</page-height>
      <page-width>852</page-width>
      <page-margins type="both">
        <left-margin>0</left-margin>
        <right-margin>0</right-margin>
        <top-margin>0</top-margin>
        <bottom-margin>384</bottom-margin>
      </page-margins>
    </page-layout>
    <system-layout>
      <system-margins>
        <left-margin>5</left-margin>
        <right-margin>0</right-margin>
      </system-margins>
      <system-distance>46</system-distance>
      <top-system-distance>46</top-system-distance>
    </system-layout>
    <staff-layout>
      <staff-distance>108</staff-distance>
    </staff-layout>
    <appearance>
      <line-width type="stem">0.8333</line-width>
      <line-width type="beam">4.1667</line-width>
      <line-width type="staff">0.7096</line-width>
      <line-width type="light barline">0.8333</line-width>
      <line-width type="heavy barline">5</line-width>
      <line-width type="leger">0.7292</line-width>
      <line-width type="ending">0.7682</line-width>
      <line-width type="wedge">0.8333</line-width>
      <line-width type="enclosure">0.8333</line-width>
      <line-width type="tuplet bracket">0.7292</line-width>
      <note-size type="grace">55</note-size>
      <note-size type="cue">55</note-size>
      <distance type="hyphen">83</distance>
      <distance type="beam">8</distance>
    </appearance>
    <music-font font-family="Petrucci2" font-size="18"/>
    <word-font font-family="Palatino Linotype" font-size="9"/>
    <lyric-font font-family="Palatino Linotype" font-size="9" name="verse"/>
    <lyric-font font-family="Palatino Linotype" font-size="9" name="chorus"/>
  </defaults>
  <credit page="1">
    <credit-words default-y="384" font-size="7.5" valign="bottom" xml:space="preserve">Music: Joachim Neander, 1680
Text: </credit-words>
    <credit-words font-size="7.5" font-style="italic">The Book of Psalms for Singing</credit-words>
    <credit-words font-size="7.5" font-style="normal">, 1973; alt. </credit-words>
    <credit-words font-size="6">©</credit-words>
  </credit>
  <credit page="1">
    <credit-words default-x="852" default-y="384" font-size="7.5" justify="right" valign="bottom" xml:space="preserve">UNSCHER HERSCHER [NEANDER]
8 7. 8 7. 8 7.</credit-words>
  </credit>
  <part-list>
    <part-group number="1" type="start">
      <group-symbol default-x="-2">line</group-symbol>
      <group-barline>no</group-barline>
    </part-group>
    <score-part id="P1">
      <part-name print-object="no">MusicXML Part</part-name>
      <score-instrument id="P1-I2">
        <instrument-name>SmartMusic SoftSynth</instrument-name>
        <virtual-instrument/>
      </score-instrument>
      <midi-device>SmartMusic SoftSynth</midi-device>
      <midi-instrument id="P1-I2">
        <midi-channel>1</midi-channel>
        <midi-program>58</midi-program>
        <volume>80</volume>
        <pan>0</pan>
      </midi-instrument>
    </score-part>
    <score-part id="P2">
      <part-name print-object="no">MusicXML Part</part-name>
      <score-instrument id="P2-I1">
        <instrument-name>SmartMusic SoftSynth</instrument-name>
        <virtual-instrument/>
      </score-instrument>
      <midi-device>SmartMusic SoftSynth</midi-device>
      <midi-instrument id="P2-I1">
        <midi-channel>2</midi-channel>
        <midi-program>58</midi-program>
        <volume>80</volume>
        <pan>0</pan>
      </midi-instrument>
    </score-part>
    <part-group number="1" type="stop"/>
  </part-list>
  <!--=========================================================-->
  <part id="P1">
    <measure number="1" width="288">
      <print>
        <system-layout>
          <top-system-distance>92</top-system-distance>
        </system-layout>
        <measure-numbering>system</measure-numbering>
      </print>
      <attributes>
        <divisions>2</divisions>
        <key>
          <fifths>0</fifths>
          <mode>major</mode>
        </key>
        <time>
          <beats>4</beats>
          <beat-type>4</beat-type>
        </time>
        <clef>
          <sign>G</sign>
          <line>2</line>
        </clef>
      </attributes>
      <sound tempo="101"/>
      <note default-x="80">
        <pitch>
          <step>G</step>
          <octave>3</octave>
        </pitch>
        <duration>3</duration>
        <voice>1</voice>
        <type>quarter</type>
        <dot/>
        <stem default-y="-18">up</stem>
        <lyric default-y="-91" name="verse" number="1">
          <syllabic>single</syllabic>
          <text>1.</text>
          <elision> </elision>
          <syllabic>single</syllabic>
          <text>1</text>
          <elision> </elision>
          <syllabic>single</syllabic>
          <text>God</text>
        </lyric>
        <lyric default-y="-112" name="verse" number="2">
          <syllabic>single</syllabic>
          <text>2.</text>
          <elision> </elision>
          <syllabic>single</syllabic>
          <text>4</text>
          <elision> </elision>
          <syllabic>begin</syllabic>
          <text>Ex</text>
        </lyric>
        <lyric default-y="-132" name="verse" number="3">
          <syllabic>single</syllabic>
          <text font-size="8.25" font-style="italic" font-weight="bold">3.</text>
          <elision> </elision>
          <syllabic>single</syllabic>
          <text font-size="8.25" font-style="italic" font-weight="bold">6</text>
          <elision> </elision>
          <syllabic>single</syllabic>
          <text font-size="8.25" font-style="italic" font-weight="bold">Horse</text>
        </lyric>
        <lyric default-y="-153" name="verse" number="4">
          <syllabic>single</syllabic>
          <text>4.</text>
          <elision> </elision>
          <syllabic>single</syllabic>
          <text>8</text>
          <elision> </elision>
          <syllabic>single</syllabic>
          <text>When</text>
        </lyric>
        <lyric default-y="-174" name="verse" number="5">
          <syllabic>single</syllabic>
          <text>5.</text>
          <elision> </elision>
          <syllabic>single</syllabic>
          <text>11</text>
          <elision> </elision>
          <syllabic>single</syllabic>
          <text>Make</text>
        </lyric>
      </note>
      <note default-x="80">
        <chord/>
        <pitch>
          <step>C</step>
          <octave>4</octave>
        </pitch>
        <duration>3</duration>
        <voice>1</voice>
        <type>quarter</type>
        <dot/>
        <stem>up</stem>
      </note>
      <note default-x="150">
        <pitch>
          <step>B</step>
          <octave>3</octave>
        </pitch>
        <duration>1</duration>
        <voice>1</voice>
        <type>eighth</type>
        <stem default-y="-13">up</stem>
        <lyric default-y="-91" name="verse" number="1" relative-x="-3">
          <syllabic>single</syllabic>
          <text>the</text>
        </lyric>
        <lyric default-y="-112" name="verse" number="2" relative-x="-3">
          <syllabic>middle</syllabic>
          <text>cel</text>
        </lyric>
        <lyric default-y="-132" name="verse" number="3" relative-x="-3">
          <syllabic>single</syllabic>
          <text font-size="8.25" font-style="italic" font-weight="bold">and</text>
        </lyric>
        <lyric default-y="-153" name="verse" number="4" relative-x="-5">
          <syllabic>single</syllabic>
          <text>from</text>
        </lyric>
        <lyric default-y="-174" name="verse" number="5">
          <syllabic>single</syllabic>
          <text>your</text>
        </lyric>
      </note>
      <note default-x="150">
        <chord/>
        <pitch>
          <step>D</step>
          <octave>4</octave>
        </pitch>
        <duration>1</duration>
        <voice>1</voice>
        <type>eighth</type>
        <stem>up</stem>
      </note>
      <note default-x="204">
        <pitch>
          <step>C</step>
          <octave>4</octave>
        </pitch>
        <duration>2</duration>
        <voice>1</voice>
        <type>quarter</type>
        <stem default-y="-8">up</stem>
        <lyric default-y="-91" name="verse" number="1">
          <syllabic>single</syllabic>
          <text>Lord</text>
        </lyric>
        <lyric default-y="-112" name="verse" number="2">
          <syllabic>end</syllabic>
          <text>lent</text>
        </lyric>
        <lyric default-y="-132" name="verse" number="3">
          <syllabic>begin</syllabic>
          <text font-size="8.25" font-style="italic" font-weight="bold">char</text>
        </lyric>
        <lyric default-y="-153" name="verse" number="4">
          <syllabic>single</syllabic>
          <text>Heav’n</text>
        </lyric>
        <lyric default-y="-174" name="verse" number="5" relative-x="3">
          <syllabic>single</syllabic>
          <text>vows</text>
        </lyric>
      </note>
      <note default-x="204">
        <chord/>
        <pitch>
          <step>E</step>
          <octave>4</octave>
        </pitch>
        <duration>2</duration>
        <voice>1</voice>
        <type>quarter</type>
        <stem>up</stem>
      </note>
      <note default-x="255">
        <pitch>
          <step>C</step>
          <octave>4</octave>
        </pitch>
        <duration>2</duration>
        <voice>1</voice>
        <type>quarter</type>
        <stem>double</stem>
        <lyric default-y="-91" name="verse" number="1">
          <syllabic>single</syllabic>
          <text>is</text>
        </lyric>
        <lyric default-y="-112" name="verse" number="2">
          <syllabic>single</syllabic>
          <text>art</text>
        </lyric>
        <lyric default-y="-132" name="verse" number="3">
          <syllabic>end</syllabic>
          <text font-size="8.25" font-style="italic" font-weight="bold">iot</text>
        </lyric>
        <lyric default-y="-153" name="verse" number="4" relative-x="4">
          <syllabic>single</syllabic>
          <text>Thy</text>
        </lyric>
        <lyric default-y="-174" name="verse" number="5" relative-x="6">
          <syllabic>single</syllabic>
          <text>now</text>
        </lyric>
      </note>
    </measure>
    <!--=======================================================-->
    <measure number="2" width="206">
      <note default-x="19">
        <pitch>
          <step>C</step>
          <octave>4</octave>
        </pitch>
        <duration>2</duration>
        <voice>1</voice>
        <type>quarter</type>
        <stem default-y="-8">up</stem>
        <lyric default-y="-91" name="verse" number="1" relative-x="7">
          <syllabic>single</syllabic>
          <text>known</text>
        </lyric>
        <lyric default-y="-112" name="verse" number="2">
          <syllabic>single</syllabic>
          <text>Thou</text>
        </lyric>
        <lyric default-y="-132" name="verse" number="3">
          <syllabic>single</syllabic>
          <text font-size="8.25" font-style="italic" font-weight="bold">low</text>
        </lyric>
        <lyric default-y="-153" name="verse" number="4">
          <syllabic>begin</syllabic>
          <text>sen</text>
        </lyric>
        <lyric default-y="-174" name="verse" number="5">
          <syllabic>single</syllabic>
          <text>to</text>
        </lyric>
      </note>
      <note default-x="19">
        <chord/>
        <pitch>
          <step>E</step>
          <octave>4</octave>
        </pitch>
        <duration>2</duration>
        <voice>1</voice>
        <type>quarter</type>
        <stem>up</stem>
      </note>
      <note default-x="70">
        <pitch>
          <step>C</step>
          <octave>4</octave>
        </pitch>
        <duration>2</duration>
        <voice>1</voice>
        <type>quarter</type>
        <stem default-y="-3">up</stem>
        <lyric default-y="-91" name="verse" number="1">
          <syllabic>single</syllabic>
          <text>in</text>
        </lyric>
        <lyric default-y="-112" name="verse" number="2">
          <syllabic>single</syllabic>
          <text>and</text>
        </lyric>
        <lyric default-y="-132" name="verse" number="3">
          <syllabic>single</syllabic>
          <text font-size="8.25" font-style="italic" font-weight="bold">are</text>
        </lyric>
        <lyric default-y="-153" name="verse" number="4">
          <syllabic>end</syllabic>
          <text>tence</text>
        </lyric>
        <lyric default-y="-174" name="verse" number="5">
          <syllabic>begin</syllabic>
          <text>Je</text>
        </lyric>
      </note>
      <note default-x="70">
        <chord/>
        <pitch>
          <step>F</step>
          <octave>4</octave>
        </pitch>
        <duration>2</duration>
        <voice>1</voice>
        <type>quarter</type>
        <stem>up</stem>
      </note>
      <note default-x="123">
        <pitch>
          <step>D</step>
          <octave>4</octave>
        </pitch>
        <duration>2</duration>
        <voice>1</voice>
        <type>quarter</type>
        <stem default-y="2">up</stem>
        <lyric default-y="-91" name="verse" number="1">
          <syllabic>begin</syllabic>
          <text>Ju</text>
        </lyric>
        <lyric default-y="-112" name="verse" number="2">
          <syllabic>begin</syllabic>
          <text>glo</text>
        </lyric>
        <lyric default-y="-132" name="verse" number="3">
          <syllabic>begin</syllabic>
          <text font-size="8.25" font-style="italic" font-weight="bold">ly</text>
        </lyric>
        <lyric default-y="-153" name="verse" number="4" relative-x="4">
          <syllabic>begin</syllabic>
          <text>sound</text>
        </lyric>
        <lyric default-y="-174" name="verse" number="5">
          <syllabic>middle</syllabic>
          <text>ho</text>
        </lyric>
      </note>
      <note default-x="123">
        <chord/>
        <pitch>
          <step>G</step>
          <octave>4</octave>
        </pitch>
        <duration>2</duration>
        <voice>1</voice>
        <type>quarter</type>
        <stem>up</stem>
      </note>
      <note default-x="173">
        <pitch>
          <step>D</step>
          <octave>4</octave>
        </pitch>
        <duration>2</duration>
        <voice>1</voice>
        <type>quarter</type>
        <stem default-y="2">up</stem>
        <lyric default-y="-91" name="verse" number="1">
          <syllabic>end</syllabic>
          <text>dah;</text>
        </lyric>
        <lyric default-y="-112" name="verse" number="2">
          <syllabic>end</syllabic>
          <text>rious</text>
        </lyric>
        <lyric default-y="-132" name="verse" number="3">
          <syllabic>end</syllabic>
          <text font-size="8.25" font-style="italic" font-weight="bold">ing</text>
        </lyric>
        <lyric default-y="-153" name="verse" number="4" relative-x="7">
          <syllabic>end</syllabic>
          <text>ed,</text>
        </lyric>
        <lyric default-y="-174" name="verse" number="5">
          <syllabic>end</syllabic>
          <text>vah;</text>
        </lyric>
      </note>
      <note default-x="173">
        <chord/>
        <pitch>
          <step>G</step>
          <octave>4</octave>
        </pitch>
        <duration>2</duration>
        <voice>1</voice>
        <type>quarter</type>
        <stem>up</stem>
      </note>
    </measure>
    <!--=======================================================-->
    <measure number="3" width="194">
      <note default-x="20">
        <pitch>
          <step>E</step>
          <octave>4</octave>
        </pitch>
        <duration>2</duration>
        <voice>1</voice>
        <type>quarter</type>
        <stem default-y="11">up</stem>
        <lyric default-y="-91" name="verse" number="1" relative-x="10">
          <syllabic>single</syllabic>
          <text>Great</text>
        </lyric>
        <lyric default-y="-112" name="verse" number="2" relative-x="10">
          <syllabic>begin</syllabic>
          <text>Com</text>
        </lyric>
        <lyric default-y="-132" name="verse" number="3" relative-x="10">
          <syllabic>single</syllabic>
          <text font-size="8.25" font-style="italic" font-weight="bold">In</text>
        </lyric>
        <lyric default-y="-153" name="verse" number="4" relative-x="10">
          <syllabic>single</syllabic>
          <text>All</text>
        </lyric>
        <lyric default-y="-174" name="verse" number="5" relative-x="10">
          <syllabic>single</syllabic>
          <text>Pay</text>
        </lyric>
      </note>
      <note default-x="20">
        <chord/>
        <pitch>
          <step>C</step>
          <octave>5</octave>
        </pitch>
        <duration>2</duration>
        <voice>1</voice>
        <type>quarter</type>
        <stem>up</stem>
      </note>
      <note default-x="66">
        <pitch>
          <step>F</step>
          <octave>4</octave>
        </pitch>
        <duration>2</duration>
        <voice>1</voice>
        <type>quarter</type>
        <stem default-y="-61">down</stem>
        <lyric default-y="-91" name="verse" number="1" relative-x="8">
          <syllabic>single</syllabic>
          <text>His</text>
        </lyric>
        <lyric default-y="-112" name="verse" number="2" relative-x="4">
          <syllabic>end</syllabic>
          <text>ing</text>
        </lyric>
        <lyric default-y="-132" name="verse" number="3">
          <syllabic>single</syllabic>
          <text font-size="8.25" font-style="italic" font-weight="bold">the</text>
        </lyric>
        <lyric default-y="-153" name="verse" number="4">
          <syllabic>single</syllabic>
          <text>the</text>
        </lyric>
        <lyric default-y="-174" name="verse" number="5">
          <syllabic>single</syllabic>
          <text>your</text>
        </lyric>
      </note>
      <backup>
        <duration>2</duration>
      </backup>
      <note default-x="66">
        <pitch>
          <step>B</step>
          <octave>4</octave>
        </pitch>
        <duration>1</duration>
        <voice>2</voice>
        <type>eighth</type>
        <stem default-y="11">up</stem>
        <beam number="1">begin</beam>
      </note>
      <note default-x="90">
        <pitch>
          <step>A</step>
          <octave>4</octave>
        </pitch>
        <duration>1</duration>
        <voice>2</voice>
        <type>eighth</type>
        <stem default-y="6">up</stem>
        <beam number="1">end</beam>
      </note>
      <note default-x="112">
        <pitch>
          <step>D</step>
          <octave>4</octave>
        </pitch>
        <duration>2</duration>
        <voice>1</voice>
        <type>quarter</type>
        <stem default-y="2">up</stem>
        <lyric default-y="-91" name="verse" number="1" relative-x="8">
          <syllabic>single</syllabic>
          <text>name</text>
        </lyric>
        <lyric default-y="-112" name="verse" number="2" relative-x="3">
          <syllabic>single</syllabic>
          <text>from</text>
        </lyric>
        <lyric default-y="-132" name="verse" number="3" relative-x="3">
          <syllabic>single</syllabic>
          <text font-size="8.25" font-style="italic" font-weight="bold">sleep</text>
        </lyric>
        <lyric default-y="-153" name="verse" number="4" relative-x="3">
          <syllabic>single</syllabic>
          <text>earth</text>
        </lyric>
        <lyric default-y="-174" name="verse" number="5" relative-x="3">
          <syllabic>single</syllabic>
          <text>God</text>
        </lyric>
      </note>
      <note default-x="112">
        <chord/>
        <pitch>
          <step>G</step>
          <octave>4</octave>
        </pitch>
        <duration>2</duration>
        <voice>1</voice>
        <type>quarter</type>
        <stem>up</stem>
      </note>
      <note default-x="161">
        <pitch>
          <step>G</step>
          <octave>4</octave>
        </pitch>
        <duration>2</duration>
        <voice>1</voice>
        <type>quarter</type>
        <stem default-y="-56">down</stem>
        <lyric default-y="-91" name="verse" number="1">
          <syllabic>single</syllabic>
          <text>in</text>
        </lyric>
        <lyric default-y="-112" name="verse" number="2">
          <syllabic>single</syllabic>
          <text>the</text>
        </lyric>
        <lyric default-y="-132" name="verse" number="3">
          <syllabic>single</syllabic>
          <text font-size="8.25" font-style="italic" font-weight="bold">of</text>
        </lyric>
        <lyric default-y="-153" name="verse" number="4">
          <syllabic>single</syllabic>
          <text>in</text>
        </lyric>
        <lyric default-y="-174" name="verse" number="5">
          <syllabic>single</syllabic>
          <text>what</text>
        </lyric>
      </note>
      <note default-x="161">
        <chord/>
        <pitch>
          <step>E</step>
          <octave>5</octave>
        </pitch>
        <duration>2</duration>
        <voice>1</voice>
        <type>quarter</type>
        <stem>down</stem>
      </note>
    </measure>
    <!--=======================================================-->
    <measure number="4" width="159">
      <note default-x="23">
        <pitch>
          <step>A</step>
          <octave>4</octave>
        </pitch>
        <duration>2</duration>
        <voice>1</voice>
        <type>quarter</type>
        <stem default-y="-51">down</stem>
        <lyric default-y="-91" name="verse" number="1">
          <syllabic>begin</syllabic>
          <text>Is</text>
        </lyric>
        <lyric default-y="-112" name="verse" number="2">
          <syllabic>single</syllabic>
          <text>hills</text>
        </lyric>
        <lyric default-y="-132" name="verse" number="3">
          <syllabic>single</syllabic>
          <text font-size="8.25" font-style="italic" font-weight="bold">death’s</text>
        </lyric>
        <lyric default-y="-153" name="verse" number="4">
          <syllabic>single</syllabic>
          <text>fear</text>
        </lyric>
        <lyric default-y="-174" name="verse" number="5">
          <syllabic>single</syllabic>
          <text>is</text>
        </lyric>
      </note>
      <note default-x="23">
        <chord/>
        <pitch>
          <step>D</step>
          <octave>5</octave>
        </pitch>
        <duration>2</duration>
        <voice>1</voice>
        <type>quarter</type>
        <stem>down</stem>
      </note>
      <note default-x="75">
        <pitch>
          <step>G</step>
          <octave>4</octave>
        </pitch>
        <duration>2</duration>
        <voice>1</voice>
        <type>quarter</type>
        <stem default-y="-56">down</stem>
        <lyric default-y="-91" name="verse" number="1">
          <syllabic>middle</syllabic>
          <text>ra</text>
        </lyric>
        <lyric default-y="-112" name="verse" number="2">
          <syllabic>single</syllabic>
          <text>of</text>
        </lyric>
        <lyric default-y="-132" name="verse" number="3">
          <syllabic>single</syllabic>
          <text font-size="8.25" font-style="italic" font-weight="bold">dark</text>
        </lyric>
        <lyric default-y="-153" name="verse" number="4">
          <syllabic>single</syllabic>
          <text>was</text>
        </lyric>
        <lyric default-y="-174" name="verse" number="5">
          <syllabic>single</syllabic>
          <text>His</text>
        </lyric>
      </note>
      <note default-x="75">
        <chord/>
        <pitch>
          <step>D</step>
          <octave>5</octave>
        </pitch>
        <duration>2</duration>
        <voice>1</voice>
        <type>quarter</type>
        <stem>down</stem>
      </note>
      <note default-x="123">
        <pitch>
          <step>E</step>
          <octave>4</octave>
        </pitch>
        <duration>4</duration>
        <voice>1</voice>
        <type>half</type>
        <stem default-y="11">up</stem>
        <lyric default-y="-91" name="verse" number="1">
          <syllabic>end</syllabic>
          <text>el;</text>
        </lyric>
        <lyric default-y="-112" name="verse" number="2">
          <syllabic>single</syllabic>
          <text>prey.</text>
        </lyric>
        <lyric default-y="-132" name="verse" number="3">
          <syllabic>single</syllabic>
          <text font-size="8.25" font-style="italic" font-weight="bold">night.</text>
        </lyric>
        <lyric default-y="-153" name="verse" number="4">
          <syllabic>single</syllabic>
          <text>still,</text>
        </lyric>
        <lyric default-y="-174" name="verse" number="5">
          <syllabic>single</syllabic>
          <text>own,</text>
        </lyric>
      </note>
      <note default-x="123">
        <chord/>
        <pitch>
          <step>C</step>
          <octave>5</octave>
        </pitch>
        <duration>4</duration>
        <voice>1</voice>
        <type>half</type>
        <stem>up</stem>
      </note>
    </measure>
    <!--=======================================================-->
    <measure number="5" width="246">
      <print new-system="yes"/>
      <note default-x="54">
        <pitch>
          <step>G</step>
          <octave>3</octave>
        </pitch>
        <duration>3</duration>
        <voice>1</voice>
        <type>quarter</type>
        <dot/>
        <stem default-y="-18">up</stem>
        <lyric default-y="-91" name="verse" number="1" relative-x="3">
          <syllabic>single</syllabic>
          <text font-size="4.5">2</text>
          <elision> </elision>
          <syllabic>single</syllabic>
          <text font-size="4.5">His</text>
        </lyric>
        <lyric default-y="-112" name="verse" number="2" relative-x="3">
          <syllabic>single</syllabic>
          <text font-size="4.5">5</text>
          <elision> </elision>
          <syllabic>single</syllabic>
          <text font-size="4.5">Thou</text>
        </lyric>
        <lyric default-y="-132" name="verse" number="3" relative-x="11">
          <syllabic>begin</syllabic>
          <text font-size="8.25" font-style="italic" font-weight="bold">Ja</text>
        </lyric>
        <lyric default-y="-153" name="verse" number="4" relative-x="3">
          <syllabic>single</syllabic>
          <text font-size="4.5">9</text>
          <elision> </elision>
          <syllabic>single</syllabic>
          <text font-size="4.5">While</text>
        </lyric>
        <lyric default-y="-174" name="verse" number="5" relative-x="10">
          <syllabic>single</syllabic>
          <text>All</text>
        </lyric>
      </note>
      <note default-x="54">
        <chord/>
        <pitch>
          <step>C</step>
          <octave>4</octave>
        </pitch>
        <duration>3</duration>
        <voice>1</voice>
        <type>quarter</type>
        <dot/>
        <stem>up</stem>
      </note>
      <note default-x="109">
        <pitch>
          <step>B</step>
          <octave>3</octave>
        </pitch>
        <duration>1</duration>
        <voice>1</voice>
        <type>eighth</type>
        <stem default-y="-13">up</stem>
        <lyric default-y="-91" name="verse" number="1">
          <syllabic>begin</syllabic>
          <text>pa</text>
        </lyric>
        <lyric default-y="-112" name="verse" number="2" relative-x="-4">
          <syllabic>single</syllabic>
          <text>hast</text>
        </lyric>
        <lyric default-y="-132" name="verse" number="3">
          <syllabic>end</syllabic>
          <text font-size="8.25" font-style="italic" font-weight="bold">cob’s</text>
        </lyric>
        <lyric default-y="-153" name="verse" number="4">
          <syllabic>single</syllabic>
          <text>to</text>
        </lyric>
        <lyric default-y="-174" name="verse" number="5">
          <syllabic>single</syllabic>
          <text>men,</text>
        </lyric>
      </note>
      <note default-x="109">
        <chord/>
        <pitch>
          <step>D</step>
          <octave>4</octave>
        </pitch>
        <duration>1</duration>
        <voice>1</voice>
        <type>eighth</type>
        <stem>up</stem>
      </note>
      <note default-x="161">
        <pitch>
          <step>C</step>
          <octave>4</octave>
        </pitch>
        <duration>2</duration>
        <voice>1</voice>
        <type>quarter</type>
        <stem default-y="-8">up</stem>
        <lyric default-y="-91" name="verse" number="1">
          <syllabic>middle</syllabic>
          <text>vil</text>
        </lyric>
        <lyric default-y="-112" name="verse" number="2">
          <syllabic>single</syllabic>
          <text>spoiled</text>
        </lyric>
        <lyric default-y="-132" name="verse" number="3">
          <syllabic>single</syllabic>
          <text font-size="8.25" font-style="italic" font-weight="bold">God,</text>
        </lyric>
        <lyric default-y="-153" name="verse" number="4">
          <syllabic>single</syllabic>
          <text>save</text>
        </lyric>
        <lyric default-y="-174" name="verse" number="5">
          <syllabic>single</syllabic>
          <text>bring</text>
        </lyric>
      </note>
      <note default-x="161">
        <chord/>
        <pitch>
          <step>E</step>
          <octave>4</octave>
        </pitch>
        <duration>2</duration>
        <voice>1</voice>
        <type>quarter</type>
        <stem>up</stem>
      </note>
      <note default-x="213">
        <pitch>
          <step>C</step>
          <octave>4</octave>
        </pitch>
        <duration>2</duration>
        <voice>1</voice>
        <type>quarter</type>
        <stem>double</stem>
        <lyric default-y="-91" name="verse" number="1">
          <syllabic>end</syllabic>
          <text>ion</text>
        </lyric>
        <lyric default-y="-112" name="verse" number="2">
          <syllabic>single</syllabic>
          <text>the</text>
        </lyric>
        <lyric default-y="-132" name="verse" number="3">
          <syllabic>single</syllabic>
          <text font-size="8.25" font-style="italic" font-weight="bold">Thou</text>
        </lyric>
        <lyric default-y="-153" name="verse" number="4">
          <syllabic>single</syllabic>
          <text>the</text>
        </lyric>
        <lyric default-y="-174" name="verse" number="5">
          <syllabic>single</syllabic>
          <text>your</text>
        </lyric>
      </note>
    </measure>
    <!--=======================================================-->
    <measure number="6" width="208">
      <note default-x="20">
        <pitch>
          <step>C</step>
          <octave>4</octave>
        </pitch>
        <duration>2</duration>
        <voice>1</voice>
        <type>quarter</type>
        <stem default-y="-8">up</stem>
        <lyric default-y="-91" name="verse" number="1">
          <syllabic>single</syllabic>
          <text>is</text>
        </lyric>
        <lyric default-y="-112" name="verse" number="2">
          <syllabic>begin</syllabic>
          <text>val</text>
        </lyric>
        <lyric default-y="-132" name="verse" number="3">
          <syllabic>single</syllabic>
          <text font-size="8.25" font-style="italic" font-weight="bold">didst</text>
        </lyric>
        <lyric default-y="-153" name="verse" number="4">
          <syllabic>single</syllabic>
          <text>meek</text>
        </lyric>
        <lyric default-y="-174" name="verse" number="5">
          <syllabic>single</syllabic>
          <text>gifts</text>
        </lyric>
      </note>
      <note default-x="20">
        <chord/>
        <pitch>
          <step>E</step>
          <octave>4</octave>
        </pitch>
        <duration>2</duration>
        <voice>1</voice>
        <type>quarter</type>
        <stem>up</stem>
      </note>
      <note default-x="68">
        <pitch>
          <step>C</step>
          <octave>4</octave>
        </pitch>
        <duration>2</duration>
        <voice>1</voice>
        <type>quarter</type>
        <stem default-y="-3">up</stem>
        <lyric default-y="-91" name="verse" number="1">
          <syllabic>single</syllabic>
          <text>in</text>
        </lyric>
        <lyric default-y="-112" name="verse" number="2" relative-x="-4">
          <syllabic>middle</syllabic>
          <text>iant</text>
        </lyric>
        <lyric default-y="-132" name="verse" number="3">
          <syllabic>begin</syllabic>
          <text font-size="8.25" font-style="italic" font-weight="bold">re</text>
        </lyric>
        <lyric default-y="-153" name="verse" number="4">
          <syllabic>single</syllabic>
          <text>and</text>
        </lyric>
        <lyric default-y="-174" name="verse" number="5">
          <syllabic>begin</syllabic>
          <text>be</text>
        </lyric>
      </note>
      <note default-x="68">
        <chord/>
        <pitch>
          <step>F</step>
          <octave>4</octave>
        </pitch>
        <duration>2</duration>
        <voice>1</voice>
        <type>quarter</type>
        <stem>up</stem>
      </note>
      <note default-x="115">
        <pitch>
          <step>D</step>
          <octave>4</octave>
        </pitch>
        <duration>2</duration>
        <voice>1</voice>
        <type>quarter</type>
        <stem default-y="2">up</stem>
        <lyric default-y="-91" name="verse" number="1">
          <syllabic>begin</syllabic>
          <text>Sa</text>
        </lyric>
        <lyric default-y="-112" name="verse" number="2">
          <syllabic>middle</syllabic>
          <text>heart</text>
        </lyric>
        <lyric default-y="-132" name="verse" number="3">
          <syllabic>end</syllabic>
          <text font-size="8.25" font-style="italic" font-weight="bold">buke</text>
        </lyric>
        <lyric default-y="-153" name="verse" number="4">
          <syllabic>begin</syllabic>
          <text>low</text>
        </lyric>
        <lyric default-y="-174" name="verse" number="5">
          <syllabic>end</syllabic>
          <text>fore</text>
        </lyric>
      </note>
      <note default-x="115">
        <chord/>
        <pitch>
          <step>G</step>
          <octave>4</octave>
        </pitch>
        <duration>2</duration>
        <voice>1</voice>
        <type>quarter</type>
        <stem>up</stem>
      </note>
      <note default-x="170">
        <pitch>
          <step>D</step>
          <octave>4</octave>
        </pitch>
        <duration>2</duration>
        <voice>1</voice>
        <type>quarter</type>
        <stem default-y="2">up</stem>
        <lyric default-y="-91" name="verse" number="1">
          <syllabic>end</syllabic>
          <text>lem;</text>
        </lyric>
        <lyric default-y="-112" name="verse" number="2">
          <syllabic>end</syllabic>
          <text>ed;</text>
        </lyric>
        <lyric default-y="-132" name="verse" number="3">
          <syllabic>single</syllabic>
          <text font-size="8.25" font-style="italic" font-weight="bold">them;</text>
        </lyric>
        <lyric default-y="-153" name="verse" number="4">
          <syllabic>end</syllabic>
          <text>ly</text>
        </lyric>
        <lyric default-y="-174" name="verse" number="5">
          <syllabic>single</syllabic>
          <text>Him;</text>
        </lyric>
      </note>
      <note default-x="170">
        <chord/>
        <pitch>
          <step>G</step>
          <octave>4</octave>
        </pitch>
        <duration>2</duration>
        <voice>1</voice>
        <type>quarter</type>
        <stem>up</stem>
      </note>
    </measure>
    <!--=======================================================-->
    <measure number="7" width="219">
      <note default-x="24">
        <pitch>
          <step>E</step>
          <octave>4</octave>
        </pitch>
        <duration>2</duration>
        <voice>1</voice>
        <type>quarter</type>
        <stem default-y="11">up</stem>
        <lyric default-y="-91" name="verse" number="1" relative-x="20">
          <syllabic>single</syllabic>
          <text>His</text>
        </lyric>
        <lyric default-y="-112" name="verse" number="2" relative-x="17">
          <syllabic>single</syllabic>
          <text>Wrapped</text>
        </lyric>
        <lyric default-y="-132" name="verse" number="3" relative-x="10">
          <syllabic>single</syllabic>
          <text font-size="4.5">7</text>
          <elision> </elision>
          <syllabic>single</syllabic>
          <text font-size="4.5">Thou</text>
        </lyric>
        <lyric default-y="-153" name="verse" number="4" relative-x="20">
          <syllabic>single</syllabic>
          <text>God</text>
        </lyric>
        <lyric default-y="-174" name="verse" number="5" relative-x="20">
          <syllabic>single</syllabic>
          <text>Fear</text>
        </lyric>
      </note>
      <note default-x="24">
        <chord/>
        <pitch>
          <step>C</step>
          <octave>5</octave>
        </pitch>
        <duration>2</duration>
        <voice>1</voice>
        <type>quarter</type>
        <stem>up</stem>
      </note>
      <note default-x="80">
        <pitch>
          <step>F</step>
          <octave>4</octave>
        </pitch>
        <duration>2</duration>
        <voice>1</voice>
        <type>quarter</type>
        <stem default-y="-61">down</stem>
        <lyric default-y="-91" name="verse" number="1">
          <syllabic>begin</syllabic>
          <text>a</text>
        </lyric>
        <lyric default-y="-112" name="verse" number="2" relative-x="18">
          <syllabic>single</syllabic>
          <text>in</text>
        </lyric>
        <lyric default-y="-132" name="verse" number="3">
          <syllabic>single</syllabic>
          <text font-size="8.25" font-style="italic" font-weight="bold">art</text>
        </lyric>
        <lyric default-y="-153" name="verse" number="4">
          <syllabic>single</syllabic>
          <text>in</text>
        </lyric>
        <lyric default-y="-174" name="verse" number="5">
          <syllabic>single</syllabic>
          <text>is</text>
        </lyric>
      </note>
      <backup>
        <duration>2</duration>
      </backup>
      <note default-x="80">
        <pitch>
          <step>B</step>
          <octave>4</octave>
        </pitch>
        <duration>1</duration>
        <voice>2</voice>
        <type>eighth</type>
        <stem default-y="11">up</stem>
        <beam number="1">begin</beam>
      </note>
      <note default-x="110">
        <pitch>
          <step>A</step>
          <octave>4</octave>
        </pitch>
        <duration>1</duration>
        <voice>2</voice>
        <type>eighth</type>
        <stem default-y="6">up</stem>
        <beam number="1">end</beam>
      </note>
      <note default-x="136">
        <pitch>
          <step>D</step>
          <octave>4</octave>
        </pitch>
        <duration>2</duration>
        <voice>1</voice>
        <type>quarter</type>
        <stem default-y="2">up</stem>
        <lyric default-y="-91" name="verse" number="1">
          <syllabic>end</syllabic>
          <text>bode</text>
        </lyric>
        <lyric default-y="-112" name="verse" number="2">
          <syllabic>single</syllabic>
          <text>sleep</text>
        </lyric>
        <lyric default-y="-132" name="verse" number="3">
          <syllabic>begin</syllabic>
          <text font-size="8.25" font-style="italic" font-weight="bold">fear</text>
        </lyric>
        <lyric default-y="-153" name="verse" number="4" relative-x="-5">
          <syllabic>begin</syllabic>
          <text>judg</text>
        </lyric>
        <lyric default-y="-174" name="verse" number="5">
          <syllabic>single</syllabic>
          <text>due</text>
        </lyric>
      </note>
      <note default-x="136">
        <chord/>
        <pitch>
          <step>G</step>
          <octave>4</octave>
        </pitch>
        <duration>2</duration>
        <voice>1</voice>
        <type>quarter</type>
        <stem>up</stem>
      </note>
      <note default-x="188">
        <pitch>
          <step>G</step>
          <octave>4</octave>
        </pitch>
        <duration>2</duration>
        <voice>1</voice>
        <type>quarter</type>
        <stem default-y="-56">down</stem>
        <lyric default-y="-91" name="verse" number="1">
          <syllabic>single</syllabic>
          <text>on</text>
        </lyric>
        <lyric default-y="-112" name="verse" number="2">
          <syllabic>single</syllabic>
          <text>of</text>
        </lyric>
        <lyric default-y="-132" name="verse" number="3">
          <syllabic>end</syllabic>
          <text font-size="8.25" font-style="italic" font-weight="bold">ful</text>
        </lyric>
        <lyric default-y="-153" name="verse" number="4" relative-x="-3">
          <syllabic>end</syllabic>
          <text>ment</text>
        </lyric>
        <lyric default-y="-174" name="verse" number="5">
          <syllabic>single</syllabic>
          <text>to</text>
        </lyric>
      </note>
      <note default-x="188">
        <chord/>
        <pitch>
          <step>E</step>
          <octave>5</octave>
        </pitch>
        <duration>2</duration>
        <voice>1</voice>
        <type>quarter</type>
        <stem>down</stem>
      </note>
    </measure>
    <!--=======================================================-->
    <measure number="8" width="174">
      <note default-x="31">
        <pitch>
          <step>A</step>
          <octave>4</octave>
        </pitch>
        <duration>2</duration>
        <voice>1</voice>
        <type>quarter</type>
        <stem default-y="-51">down</stem>
        <lyric default-y="-91" name="verse" number="1">
          <syllabic>begin</syllabic>
          <text>Zi</text>
        </lyric>
        <lyric default-y="-112" name="verse" number="2">
          <syllabic>single</syllabic>
          <text>death</text>
        </lyric>
        <lyric default-y="-132" name="verse" number="3">
          <syllabic>single</syllabic>
          <text font-size="8.25" font-style="italic" font-weight="bold">in</text>
        </lyric>
        <lyric default-y="-153" name="verse" number="4" relative-x="3">
          <syllabic>single</syllabic>
          <text>wrought</text>
        </lyric>
        <lyric default-y="-174" name="verse" number="5">
          <syllabic>single</syllabic>
          <text>Him</text>
        </lyric>
      </note>
      <note default-x="31">
        <chord/>
        <pitch>
          <step>D</step>
          <octave>5</octave>
        </pitch>
        <duration>2</duration>
        <voice>1</voice>
        <type>quarter</type>
        <stem>down</stem>
      </note>
      <note default-x="87">
        <pitch>
          <step>G</step>
          <octave>4</octave>
        </pitch>
        <duration>2</duration>
        <voice>1</voice>
        <type>quarter</type>
        <stem default-y="-56">down</stem>
        <lyric default-y="-91" name="verse" number="1">
          <syllabic>end</syllabic>
          <text>on’s</text>
        </lyric>
        <lyric default-y="-112" name="verse" number="2">
          <syllabic>single</syllabic>
          <text>are</text>
        </lyric>
        <lyric default-y="-132" name="verse" number="3">
          <syllabic>single</syllabic>
          <text font-size="8.25" font-style="italic" font-weight="bold">Thy</text>
        </lyric>
        <lyric default-y="-153" name="verse" number="4" relative-x="8">
          <syllabic>single</syllabic>
          <text>His</text>
        </lyric>
        <lyric default-y="-174" name="verse" number="5">
          <syllabic>begin</syllabic>
          <text>a</text>
        </lyric>
      </note>
      <note default-x="87">
        <chord/>
        <pitch>
          <step>D</step>
          <octave>5</octave>
        </pitch>
        <duration>2</duration>
        <voice>1</voice>
        <type>quarter</type>
        <stem>down</stem>
      </note>
      <note default-x="135">
        <pitch>
          <step>E</step>
          <octave>4</octave>
        </pitch>
        <duration>4</duration>
        <voice>1</voice>
        <type>half</type>
        <stem default-y="11">up</stem>
        <lyric default-y="-91" name="verse" number="1">
          <syllabic>single</syllabic>
          <text>hill.</text>
        </lyric>
        <lyric default-y="-112" name="verse" number="2">
          <syllabic>single</syllabic>
          <text>they.</text>
        </lyric>
        <lyric default-y="-132" name="verse" number="3">
          <syllabic>single</syllabic>
          <text font-size="8.25" font-style="italic" font-weight="bold">might.</text>
        </lyric>
        <lyric default-y="-153" name="verse" number="4">
          <syllabic>single</syllabic>
          <text>will.</text>
        </lyric>
        <lyric default-y="-174" name="verse" number="5">
          <syllabic>end</syllabic>
          <text>lone,</text>
        </lyric>
      </note>
      <note default-x="135">
        <chord/>
        <pitch>
          <step>C</step>
          <octave>5</octave>
        </pitch>
        <duration>4</duration>
        <voice>1</voice>
        <type>half</type>
        <stem>up</stem>
      </note>
    </measure>
    <!--=======================================================-->
    <measure number="9" width="253">
      <print new-system="yes"/>
      <note default-x="57">
        <pitch>
          <step>G</step>
          <octave>4</octave>
        </pitch>
        <duration>3</duration>
        <voice>1</voice>
        <type>quarter</type>
        <dot/>
        <stem default-y="-56">down</stem>
        <lyric default-y="-82" name="verse" number="1">
          <syllabic>single</syllabic>
          <text font-size="4.5">3</text>
          <elision> </elision>
          <syllabic>single</syllabic>
          <text font-size="4.5">There</text>
        </lyric>
        <lyric default-y="-103" name="verse" number="2" relative-x="9">
          <syllabic>begin</syllabic>
          <text>Might</text>
        </lyric>
        <lyric default-y="-124" name="verse" number="3" relative-x="9">
          <syllabic>single</syllabic>
          <text font-size="8.25" font-style="italic" font-weight="bold">When</text>
        </lyric>
        <lyric default-y="-145" name="verse" number="4" relative-x="-2">
          <syllabic>single</syllabic>
          <text font-size="4.5">10</text>
          <elision> </elision>
          <syllabic>single</syllabic>
          <text font-size="4.5">Ev’n</text>
        </lyric>
        <lyric default-y="-166" name="verse" number="5" relative-x="-2">
          <syllabic>single</syllabic>
          <text font-size="4.5">12</text>
          <elision> </elision>
          <syllabic>single</syllabic>
          <text font-size="4.5">He</text>
        </lyric>
      </note>
      <note default-x="57">
        <chord/>
        <pitch>
          <step>E</step>
          <octave>5</octave>
        </pitch>
        <duration>3</duration>
        <voice>1</voice>
        <type>quarter</type>
        <dot/>
        <stem>down</stem>
      </note>
      <note default-x="119">
        <pitch>
          <step>G</step>
          <octave>4</octave>
        </pitch>
        <duration>1</duration>
        <voice>1</voice>
        <type>eighth</type>
        <stem default-y="-61">down</stem>
        <lyric default-y="-82" name="verse" number="1">
          <syllabic>single</syllabic>
          <text>He</text>
        </lyric>
        <lyric default-y="-103" name="verse" number="2">
          <syllabic>end</syllabic>
          <text>y</text>
        </lyric>
        <lyric default-y="-124" name="verse" number="3">
          <syllabic>single</syllabic>
          <text font-size="8.25" font-style="italic" font-weight="bold">Thine</text>
        </lyric>
        <lyric default-y="-145" name="verse" number="4">
          <syllabic>single</syllabic>
          <text>the</text>
        </lyric>
        <lyric default-y="-166" name="verse" number="5">
          <syllabic>single</syllabic>
          <text>brings</text>
        </lyric>
      </note>
      <note default-x="119">
        <chord/>
        <pitch>
          <step>E</step>
          <octave>5</octave>
        </pitch>
        <duration>1</duration>
        <voice>1</voice>
        <type>eighth</type>
        <stem>down</stem>
      </note>
      <note default-x="173">
        <pitch>
          <step>G</step>
          <octave>4</octave>
        </pitch>
        <duration>2</duration>
        <voice>1</voice>
        <type>quarter</type>
        <stem default-y="-56">down</stem>
        <lyric default-y="-82" name="verse" number="1">
          <syllabic>single</syllabic>
          <text>broke</text>
        </lyric>
        <lyric default-y="-103" name="verse" number="2">
          <syllabic>single</syllabic>
          <text>men</text>
        </lyric>
        <lyric default-y="-124" name="verse" number="3">
          <syllabic>begin</syllabic>
          <text font-size="8.25" font-style="italic" font-weight="bold">an</text>
        </lyric>
        <lyric default-y="-145" name="verse" number="4">
          <syllabic>single</syllabic>
          <text>wrath</text>
        </lyric>
        <lyric default-y="-166" name="verse" number="5">
          <syllabic>single</syllabic>
          <text>low</text>
        </lyric>
      </note>
      <note default-x="173">
        <chord/>
        <pitch>
          <step>D</step>
          <octave>5</octave>
        </pitch>
        <duration>2</duration>
        <voice>1</voice>
        <type>quarter</type>
        <stem>down</stem>
      </note>
      <note default-x="220">
        <pitch>
          <step>G</step>
          <octave>4</octave>
        </pitch>
        <duration>2</duration>
        <voice>1</voice>
        <type>quarter</type>
        <stem default-y="-56">down</stem>
        <lyric default-y="-82" name="verse" number="1">
          <syllabic>single</syllabic>
          <text>the</text>
        </lyric>
        <lyric default-y="-103" name="verse" number="2">
          <syllabic>single</syllabic>
          <text>have</text>
        </lyric>
        <lyric default-y="-124" name="verse" number="3">
          <syllabic>end</syllabic>
          <text font-size="8.25" font-style="italic" font-weight="bold">ger</text>
        </lyric>
        <lyric default-y="-145" name="verse" number="4">
          <syllabic>single</syllabic>
          <text>of</text>
        </lyric>
        <lyric default-y="-166" name="verse" number="5">
          <syllabic>single</syllabic>
          <text>the</text>
        </lyric>
      </note>
      <note default-x="220">
        <chord/>
        <pitch>
          <step>D</step>
          <octave>5</octave>
        </pitch>
        <duration>2</duration>
        <voice>1</voice>
        <type>quarter</type>
        <stem>down</stem>
      </note>
    </measure>
    <!--=======================================================-->
    <measure number="10" width="218">
      <note default-x="23">
        <pitch>
          <step>E</step>
          <octave>4</octave>
        </pitch>
        <duration>2</duration>
        <voice>1</voice>
        <type>quarter</type>
        <stem default-y="11.5">up</stem>
        <lyric default-y="-82" name="verse" number="1" relative-x="-3">
          <syllabic>single</syllabic>
          <text>bow</text>
        </lyric>
        <lyric default-y="-103" name="verse" number="2" relative-x="-3">
          <syllabic>single</syllabic>
          <text>lost</text>
        </lyric>
        <lyric default-y="-124" name="verse" number="3" relative-x="-3">
          <syllabic>single</syllabic>
          <text font-size="8.25" font-style="italic" font-weight="bold">once</text>
        </lyric>
        <lyric default-y="-145" name="verse" number="4" relative-x="-3">
          <syllabic>single</syllabic>
          <text>man</text>
        </lyric>
        <lyric default-y="-166" name="verse" number="5" relative-x="-3">
          <syllabic>single</syllabic>
          <text>pride</text>
        </lyric>
      </note>
      <note default-x="23">
        <chord/>
        <pitch>
          <step>C</step>
          <octave>5</octave>
        </pitch>
        <duration>2</duration>
        <voice>1</voice>
        <type>quarter</type>
        <stem>up</stem>
      </note>
      <note default-x="70">
        <pitch>
          <step>E</step>
          <octave>4</octave>
        </pitch>
        <duration>2</duration>
        <voice>1</voice>
        <type>quarter</type>
        <stem default-y="11.5">up</stem>
        <lyric default-y="-82" name="verse" number="1">
          <syllabic>single</syllabic>
          <text>and</text>
        </lyric>
        <lyric default-y="-103" name="verse" number="2">
          <syllabic>single</syllabic>
          <text>their</text>
        </lyric>
        <lyric default-y="-124" name="verse" number="3">
          <syllabic>single</syllabic>
          <text font-size="8.25" font-style="italic" font-weight="bold">is</text>
        </lyric>
        <lyric default-y="-145" name="verse" number="4">
          <syllabic>single</syllabic>
          <text>shall</text>
        </lyric>
        <lyric default-y="-166" name="verse" number="5">
          <syllabic>single</syllabic>
          <text>of</text>
        </lyric>
      </note>
      <note default-x="70">
        <chord/>
        <pitch>
          <step>C</step>
          <octave>5</octave>
        </pitch>
        <duration>2</duration>
        <voice>1</voice>
        <type>quarter</type>
        <stem>up</stem>
      </note>
      <note default-x="123">
        <pitch>
          <step>E</step>
          <octave>4</octave>
        </pitch>
        <duration>2</duration>
        <voice>1</voice>
        <type>quarter</type>
        <stem default-y="12">up</stem>
        <lyric default-y="-82" name="verse" number="1">
          <syllabic>begin</syllabic>
          <text>ar</text>
        </lyric>
        <lyric default-y="-103" name="verse" number="2">
          <syllabic>begin</syllabic>
          <text>cun</text>
        </lyric>
        <lyric default-y="-124" name="verse" number="3">
          <syllabic>begin</syllabic>
          <text font-size="8.25" font-style="italic" font-weight="bold">ris</text>
        </lyric>
        <lyric default-y="-145" name="verse" number="4">
          <syllabic>single</syllabic>
          <text>praise</text>
        </lyric>
        <lyric default-y="-166" name="verse" number="5">
          <syllabic>begin</syllabic>
          <text>princ</text>
        </lyric>
      </note>
      <note default-x="123">
        <chord/>
        <pitch>
          <step>B</step>
          <octave>4</octave>
        </pitch>
        <duration>2</duration>
        <voice>1</voice>
        <type>quarter</type>
        <stem>up</stem>
      </note>
      <note default-x="178">
        <pitch>
          <step>E</step>
          <octave>4</octave>
        </pitch>
        <duration>2</duration>
        <voice>1</voice>
        <type>quarter</type>
        <stem default-y="12">up</stem>
        <lyric default-y="-82" name="verse" number="1">
          <syllabic>end</syllabic>
          <text>rows,</text>
        </lyric>
        <lyric default-y="-103" name="verse" number="2">
          <syllabic>end</syllabic>
          <text>ning;</text>
        </lyric>
        <lyric default-y="-124" name="verse" number="3">
          <syllabic>end</syllabic>
          <text font-size="8.25" font-style="italic" font-weight="bold">en,</text>
        </lyric>
        <lyric default-y="-145" name="verse" number="4">
          <syllabic>single</syllabic>
          <text>Thee;</text>
        </lyric>
        <lyric default-y="-166" name="verse" number="5">
          <syllabic>end</syllabic>
          <text>es;</text>
        </lyric>
      </note>
      <note default-x="178">
        <chord/>
        <pitch>
          <step>B</step>
          <octave>4</octave>
        </pitch>
        <duration>2</duration>
        <voice>1</voice>
        <type>quarter</type>
        <stem>up</stem>
      </note>
    </measure>
    <!--=======================================================-->
    <measure number="11" width="199">
      <note default-x="18">
        <pitch>
          <step>C</step>
          <octave>4</octave>
        </pitch>
        <duration>3</duration>
        <voice>1</voice>
        <type>quarter</type>
        <dot/>
        <stem default-y="7">up</stem>
        <lyric default-y="-82" name="verse" number="1" relative-x="3">
          <syllabic>single</syllabic>
          <text>Made</text>
        </lyric>
        <lyric default-y="-103" name="verse" number="2" relative-x="3">
          <syllabic>single</syllabic>
          <text>None</text>
        </lyric>
        <lyric default-y="-124" name="verse" number="3" relative-x="3">
          <syllabic>single</syllabic>
          <text font-size="8.25" font-style="italic" font-weight="bold">Who</text>
        </lyric>
        <lyric default-y="-145" name="verse" number="4" relative-x="3">
          <syllabic>single</syllabic>
          <text>What</text>
        </lyric>
        <lyric default-y="-166" name="verse" number="5" relative-x="3">
          <syllabic>single</syllabic>
          <text>Kings</text>
        </lyric>
      </note>
      <note default-x="18">
        <chord/>
        <pitch>
          <step>A</step>
          <octave>4</octave>
        </pitch>
        <duration>3</duration>
        <voice>1</voice>
        <type>quarter</type>
        <dot/>
        <stem>up</stem>
      </note>
      <note default-x="71">
        <pitch>
          <step>F</step>
          <octave>4</octave>
        </pitch>
        <duration>1</duration>
        <voice>1</voice>
        <type>eighth</type>
        <stem default-y="7">up</stem>
        <lyric default-y="-82" name="verse" number="1">
          <syllabic>single</syllabic>
          <text>the</text>
        </lyric>
        <lyric default-y="-103" name="verse" number="2">
          <syllabic>single</syllabic>
          <text>are</text>
        </lyric>
        <lyric default-y="-124" name="verse" number="3">
          <syllabic>single</syllabic>
          <text font-size="8.25" font-style="italic" font-weight="bold">may</text>
        </lyric>
        <lyric default-y="-145" name="verse" number="4">
          <syllabic>begin</syllabic>
          <text>re</text>
        </lyric>
        <lyric default-y="-166" name="verse" number="5" relative-x="4">
          <syllabic>single</syllabic>
          <text>shall</text>
        </lyric>
      </note>
      <note default-x="71">
        <chord/>
        <pitch>
          <step>A</step>
          <octave>4</octave>
        </pitch>
        <duration>1</duration>
        <voice>1</voice>
        <type>eighth</type>
        <stem>up</stem>
      </note>
      <note default-x="121">
        <pitch>
          <step>E</step>
          <octave>4</octave>
        </pitch>
        <duration>2</duration>
        <voice>1</voice>
        <type>quarter</type>
        <stem default-y="2">up</stem>
        <lyric default-y="-82" name="verse" number="1">
          <syllabic>single</syllabic>
          <text>sword</text>
        </lyric>
        <lyric default-y="-103" name="verse" number="2">
          <syllabic>begin</syllabic>
          <text>read</text>
        </lyric>
        <lyric default-y="-124" name="verse" number="3">
          <syllabic>single</syllabic>
          <text font-size="8.25" font-style="italic" font-weight="bold">stand</text>
        </lyric>
        <lyric default-y="-145" name="verse" number="4">
          <syllabic>end</syllabic>
          <text>mains</text>
        </lyric>
        <lyric default-y="-166" name="verse" number="5">
          <syllabic>begin</syllabic>
          <text>trem</text>
        </lyric>
      </note>
      <note default-x="121">
        <chord/>
        <pitch>
          <step>G</step>
          <octave>4</octave>
        </pitch>
        <duration>2</duration>
        <voice>1</voice>
        <type>quarter</type>
        <stem>up</stem>
      </note>
      <note default-x="169">
        <pitch>
          <step>G</step>
          <octave>4</octave>
        </pitch>
        <duration>2</duration>
        <voice>1</voice>
        <type>quarter</type>
        <stem default-y="11.5">up</stem>
        <lyric default-y="-82" name="verse" number="1">
          <syllabic>single</syllabic>
          <text>and</text>
        </lyric>
        <lyric default-y="-103" name="verse" number="2">
          <syllabic>end</syllabic>
          <text>y</text>
        </lyric>
        <lyric default-y="-124" name="verse" number="3">
          <syllabic>begin</syllabic>
          <text font-size="8.25" font-style="italic" font-weight="bold">be</text>
        </lyric>
        <lyric default-y="-145" name="verse" number="4">
          <syllabic>single</syllabic>
          <text>will</text>
        </lyric>
        <lyric default-y="-166" name="verse" number="5">
          <syllabic>end</syllabic>
          <text>ble</text>
        </lyric>
      </note>
      <note default-x="169">
        <chord/>
        <pitch>
          <step>C</step>
          <octave>5</octave>
        </pitch>
        <duration>2</duration>
        <voice>1</voice>
        <type>quarter</type>
        <stem>up</stem>
      </note>
    </measure>
    <!--=======================================================-->
    <measure number="12" width="178">
      <note default-x="23">
        <pitch>
          <step>F</step>
          <octave>4</octave>
        </pitch>
        <duration>2</duration>
        <voice>1</voice>
        <type>quarter</type>
        <stem default-y="16.5">up</stem>
        <lyric default-y="-82" name="verse" number="1">
          <syllabic>single</syllabic>
          <text>shield</text>
        </lyric>
        <lyric default-y="-103" name="verse" number="2">
          <syllabic>single</syllabic>
          <text>for</text>
        </lyric>
        <lyric default-y="-124" name="verse" number="3">
          <syllabic>end</syllabic>
          <text font-size="8.25" font-style="italic" font-weight="bold">fore</text>
        </lyric>
        <lyric default-y="-145" name="verse" number="4">
          <syllabic>single</syllabic>
          <text>come</text>
        </lyric>
        <lyric default-y="-166" name="verse" number="5">
          <syllabic>single</syllabic>
          <text>at</text>
        </lyric>
      </note>
      <note default-x="23">
        <chord/>
        <pitch>
          <step>D</step>
          <octave>5</octave>
        </pitch>
        <duration>2</duration>
        <voice>1</voice>
        <type>quarter</type>
        <stem>up</stem>
      </note>
      <note default-x="74">
        <pitch>
          <step>D</step>
          <octave>4</octave>
        </pitch>
        <duration>2</duration>
        <voice>1</voice>
        <type>quarter</type>
        <stem default-y="12">up</stem>
        <lyric default-y="-82" name="verse" number="1">
          <syllabic>single</syllabic>
          <text>be</text>
        </lyric>
        <lyric default-y="-103" name="verse" number="2">
          <syllabic>single</syllabic>
          <text>the</text>
        </lyric>
        <lyric default-y="-124" name="verse" number="3">
          <syllabic>single</syllabic>
          <text font-size="8.25" font-style="italic" font-weight="bold">Thy</text>
        </lyric>
        <lyric default-y="-145" name="verse" number="4">
          <syllabic>single</syllabic>
          <text>to</text>
        </lyric>
        <lyric default-y="-166" name="verse" number="5">
          <syllabic>single</syllabic>
          <text>His</text>
        </lyric>
      </note>
      <note default-x="74">
        <chord/>
        <pitch>
          <step>B</step>
          <octave>4</octave>
        </pitch>
        <duration>2</duration>
        <voice>1</voice>
        <type>quarter</type>
        <stem>up</stem>
      </note>
      <note default-x="127">
        <pitch>
          <step>E</step>
          <octave>4</octave>
        </pitch>
        <duration>4</duration>
        <voice>1</voice>
        <type>half</type>
        <stem default-y="11.5">up</stem>
        <lyric default-y="-82" name="verse" number="1">
          <syllabic>single</syllabic>
          <text>still.</text>
        </lyric>
        <lyric default-y="-103" name="verse" number="2">
          <syllabic>single</syllabic>
          <text>fray.</text>
        </lyric>
        <lyric default-y="-124" name="verse" number="3">
          <syllabic>single</syllabic>
          <text font-size="8.25" font-style="italic" font-weight="bold">sight?</text>
        </lyric>
        <lyric default-y="-145" name="verse" number="4">
          <syllabic>single</syllabic>
          <text>nil.</text>
        </lyric>
        <lyric default-y="-166" name="verse" number="5">
          <syllabic>single</syllabic>
          <text>frown.</text>
        </lyric>
      </note>
      <note default-x="127">
        <chord/>
        <pitch>
          <step>C</step>
          <octave>5</octave>
        </pitch>
        <duration>4</duration>
        <voice>1</voice>
        <type>half</type>
        <stem>up</stem>
      </note>
      <barline location="right">
        <bar-style>light-heavy</bar-style>
      </barline>
    </measure>
  </part>
  <!--=========================================================-->
  <part id="P2">
    <measure number="1" width="288">
      <print>
        <staff-layout number="1">
          <staff-distance>170</staff-distance>
        </staff-layout>
        <measure-numbering>none</measure-numbering>
      </print>
      <attributes>
        <divisions>2</divisions>
        <key>
          <fifths>0</fifths>
          <mode>major</mode>
        </key>
        <time>
          <beats>4</beats>
          <beat-type>4</beat-type>
        </time>
        <clef>
          <sign>F</sign>
          <line>4</line>
        </clef>
      </attributes>
      <sound tempo="101"/>
      <note default-x="80">
        <pitch>
          <step>C</step>
          <octave>3</octave>
        </pitch>
        <duration>3</duration>
        <voice>1</voice>
        <type>quarter</type>
        <dot/>
        <stem default-y="-51">down</stem>
      </note>
      <note default-x="80">
        <chord/>
        <pitch>
          <step>E</step>
          <octave>3</octave>
        </pitch>
        <duration>3</duration>
        <voice>1</voice>
        <type>quarter</type>
        <dot/>
        <stem>down</stem>
      </note>
      <note default-x="150">
        <pitch>
          <step>G</step>
          <octave>2</octave>
        </pitch>
        <duration>1</duration>
        <voice>1</voice>
        <type>eighth</type>
        <stem default-y="27">up</stem>
      </note>
      <note default-x="150">
        <chord/>
        <pitch>
          <step>G</step>
          <octave>3</octave>
        </pitch>
        <duration>1</duration>
        <voice>1</voice>
        <type>eighth</type>
        <stem>up</stem>
      </note>
      <note default-x="204">
        <pitch>
          <step>C</step>
          <octave>3</octave>
        </pitch>
        <duration>2</duration>
        <voice>1</voice>
        <type>quarter</type>
        <stem default-y="-51">down</stem>
      </note>
      <note default-x="204">
        <chord/>
        <pitch>
          <step>G</step>
          <octave>3</octave>
        </pitch>
        <duration>2</duration>
        <voice>1</voice>
        <type>quarter</type>
        <stem>down</stem>
      </note>
      <note default-x="255">
        <pitch>
          <step>E</step>
          <octave>3</octave>
        </pitch>
        <duration>2</duration>
        <voice>1</voice>
        <type>quarter</type>
        <stem default-y="-47">down</stem>
      </note>
      <note default-x="255">
        <chord/>
        <pitch>
          <step>G</step>
          <octave>3</octave>
        </pitch>
        <duration>2</duration>
        <voice>1</voice>
        <type>quarter</type>
        <stem>down</stem>
      </note>
    </measure>
    <!--=======================================================-->
    <measure number="2" width="206">
      <note default-x="19">
        <pitch>
          <step>C</step>
          <octave>3</octave>
        </pitch>
        <duration>2</duration>
        <voice>1</voice>
        <type>quarter</type>
        <stem default-y="-51">down</stem>
      </note>
      <note default-x="19">
        <chord/>
        <pitch>
          <step>G</step>
          <octave>3</octave>
        </pitch>
        <duration>2</duration>
        <voice>1</voice>
        <type>quarter</type>
        <stem>down</stem>
      </note>
      <note default-x="70">
        <pitch>
          <step>A</step>
          <octave>2</octave>
        </pitch>
        <duration>2</duration>
        <voice>1</voice>
        <type>quarter</type>
        <stem default-y="-61">down</stem>
      </note>
      <note default-x="70">
        <chord/>
        <pitch>
          <step>A</step>
          <octave>3</octave>
        </pitch>
        <duration>2</duration>
        <voice>1</voice>
        <type>quarter</type>
        <stem>down</stem>
      </note>
      <note default-x="123">
        <pitch>
          <step>G</step>
          <octave>2</octave>
        </pitch>
        <duration>2</duration>
        <voice>1</voice>
        <type>quarter</type>
        <stem default-y="-66">down</stem>
      </note>
      <note default-x="123">
        <chord/>
        <pitch>
          <step>C</step>
          <octave>4</octave>
        </pitch>
        <duration>2</duration>
        <voice>1</voice>
        <type>quarter</type>
        <stem>down</stem>
      </note>
      <note default-x="173">
        <pitch>
          <step>G</step>
          <octave>3</octave>
        </pitch>
        <duration>2</duration>
        <voice>1</voice>
        <type>quarter</type>
        <stem default-y="-37">down</stem>
      </note>
      <note default-x="173">
        <chord/>
        <pitch>
          <step>B</step>
          <octave>3</octave>
        </pitch>
        <duration>2</duration>
        <voice>1</voice>
        <type>quarter</type>
        <stem>down</stem>
      </note>
    </measure>
    <!--=======================================================-->
    <measure number="3" width="194">
      <note default-x="20">
        <pitch>
          <step>C</step>
          <octave>3</octave>
        </pitch>
        <duration>2</duration>
        <voice>1</voice>
        <type>quarter</type>
        <stem default-y="-51">down</stem>
      </note>
      <note default-x="20">
        <chord/>
        <pitch>
          <step>C</step>
          <octave>4</octave>
        </pitch>
        <duration>2</duration>
        <voice>1</voice>
        <type>quarter</type>
        <stem>down</stem>
      </note>
      <note default-x="66">
        <pitch>
          <step>F</step>
          <octave>3</octave>
        </pitch>
        <duration>2</duration>
        <voice>1</voice>
        <type>quarter</type>
        <stem default-y="-42">down</stem>
      </note>
      <note default-x="66">
        <chord/>
        <pitch>
          <step>C</step>
          <octave>4</octave>
        </pitch>
        <duration>2</duration>
        <voice>1</voice>
        <type>quarter</type>
        <stem>down</stem>
      </note>
      <note default-x="112">
        <pitch>
          <step>G</step>
          <octave>3</octave>
        </pitch>
        <duration>2</duration>
        <voice>1</voice>
        <type>quarter</type>
        <stem default-y="-37">down</stem>
      </note>
      <note default-x="112">
        <chord/>
        <pitch>
          <step>B</step>
          <octave>3</octave>
        </pitch>
        <duration>2</duration>
        <voice>1</voice>
        <type>quarter</type>
        <stem>down</stem>
      </note>
      <note default-x="161">
        <pitch>
          <step>E</step>
          <octave>3</octave>
        </pitch>
        <duration>2</duration>
        <voice>1</voice>
        <type>quarter</type>
        <stem default-y="-47">down</stem>
      </note>
      <note default-x="161">
        <chord/>
        <pitch>
          <step>C</step>
          <octave>4</octave>
        </pitch>
        <duration>2</duration>
        <voice>1</voice>
        <type>quarter</type>
        <stem>down</stem>
      </note>
    </measure>
    <!--=======================================================-->
    <measure number="4" width="159">
      <note default-x="23">
        <pitch>
          <step>F</step>
          <octave>3</octave>
        </pitch>
        <duration>2</duration>
        <voice>1</voice>
        <type>quarter</type>
        <stem default-y="-42">down</stem>
      </note>
      <note default-x="23">
        <chord/>
        <pitch>
          <step>C</step>
          <octave>4</octave>
        </pitch>
        <duration>2</duration>
        <voice>1</voice>
        <type>quarter</type>
        <stem>down</stem>
      </note>
      <note default-x="75">
        <pitch>
          <step>G</step>
          <octave>3</octave>
        </pitch>
        <duration>2</duration>
        <voice>1</voice>
        <type>quarter</type>
        <stem default-y="-37">down</stem>
      </note>
      <note default-x="75">
        <chord/>
        <pitch>
          <step>B</step>
          <octave>3</octave>
        </pitch>
        <duration>2</duration>
        <voice>1</voice>
        <type>quarter</type>
        <stem>down</stem>
      </note>
      <note default-x="123">
        <pitch>
          <step>C</step>
          <octave>3</octave>
        </pitch>
        <duration>4</duration>
        <voice>1</voice>
        <type>half</type>
        <stem default-y="-51">down</stem>
      </note>
      <note default-x="123">
        <chord/>
        <pitch>
          <step>C</step>
          <octave>4</octave>
        </pitch>
        <duration>4</duration>
        <voice>1</voice>
        <type>half</type>
        <stem>down</stem>
      </note>
    </measure>
    <!--=======================================================-->
    <measure number="5" width="246">
      <print new-system="yes">
        <staff-layout number="1">
          <staff-distance>170</staff-distance>
        </staff-layout>
      </print>
      <note default-x="54">
        <pitch>
          <step>C</step>
          <octave>3</octave>
        </pitch>
        <duration>3</duration>
        <voice>1</voice>
        <type>quarter</type>
        <dot/>
        <stem default-y="-51">down</stem>
      </note>
      <note default-x="54">
        <chord/>
        <pitch>
          <step>E</step>
          <octave>3</octave>
        </pitch>
        <duration>3</duration>
        <voice>1</voice>
        <type>quarter</type>
        <dot/>
        <stem>down</stem>
      </note>
      <note default-x="109">
        <pitch>
          <step>G</step>
          <octave>2</octave>
        </pitch>
        <duration>1</duration>
        <voice>1</voice>
        <type>eighth</type>
        <stem default-y="27">up</stem>
      </note>
      <note default-x="109">
        <chord/>
        <pitch>
          <step>G</step>
          <octave>3</octave>
        </pitch>
        <duration>1</duration>
        <voice>1</voice>
        <type>eighth</type>
        <stem>up</stem>
      </note>
      <note default-x="161">
        <pitch>
          <step>C</step>
          <octave>3</octave>
        </pitch>
        <duration>2</duration>
        <voice>1</voice>
        <type>quarter</type>
        <stem default-y="-51">down</stem>
      </note>
      <note default-x="161">
        <chord/>
        <pitch>
          <step>G</step>
          <octave>3</octave>
        </pitch>
        <duration>2</duration>
        <voice>1</voice>
        <type>quarter</type>
        <stem>down</stem>
      </note>
      <note default-x="213">
        <pitch>
          <step>E</step>
          <octave>3</octave>
        </pitch>
        <duration>2</duration>
        <voice>1</voice>
        <type>quarter</type>
        <stem default-y="-46.5">down</stem>
      </note>
      <note default-x="213">
        <chord/>
        <pitch>
          <step>G</step>
          <octave>3</octave>
        </pitch>
        <duration>2</duration>
        <voice>1</voice>
        <type>quarter</type>
        <stem>down</stem>
      </note>
    </measure>
    <!--=======================================================-->
    <measure number="6" width="208">
      <note default-x="20">
        <pitch>
          <step>C</step>
          <octave>3</octave>
        </pitch>
        <duration>2</duration>
        <voice>1</voice>
        <type>quarter</type>
        <stem default-y="-51">down</stem>
      </note>
      <note default-x="20">
        <chord/>
        <pitch>
          <step>G</step>
          <octave>3</octave>
        </pitch>
        <duration>2</duration>
        <voice>1</voice>
        <type>quarter</type>
        <stem>down</stem>
      </note>
      <note default-x="68">
        <pitch>
          <step>A</step>
          <octave>2</octave>
        </pitch>
        <duration>2</duration>
        <voice>1</voice>
        <type>quarter</type>
        <stem default-y="-61">down</stem>
      </note>
      <note default-x="68">
        <chord/>
        <pitch>
          <step>A</step>
          <octave>3</octave>
        </pitch>
        <duration>2</duration>
        <voice>1</voice>
        <type>quarter</type>
        <stem>down</stem>
      </note>
      <note default-x="115">
        <pitch>
          <step>G</step>
          <octave>2</octave>
        </pitch>
        <duration>2</duration>
        <voice>1</voice>
        <type>quarter</type>
        <stem default-y="-66">down</stem>
      </note>
      <note default-x="115">
        <chord/>
        <pitch>
          <step>C</step>
          <octave>4</octave>
        </pitch>
        <duration>2</duration>
        <voice>1</voice>
        <type>quarter</type>
        <stem>down</stem>
      </note>
      <note default-x="170">
        <pitch>
          <step>G</step>
          <octave>3</octave>
        </pitch>
        <duration>2</duration>
        <voice>1</voice>
        <type>quarter</type>
        <stem default-y="-36.5">down</stem>
      </note>
      <note default-x="170">
        <chord/>
        <pitch>
          <step>B</step>
          <octave>3</octave>
        </pitch>
        <duration>2</duration>
        <voice>1</voice>
        <type>quarter</type>
        <stem>down</stem>
      </note>
    </measure>
    <!--=======================================================-->
    <measure number="7" width="219">
      <note default-x="24">
        <pitch>
          <step>C</step>
          <octave>3</octave>
        </pitch>
        <duration>2</duration>
        <voice>1</voice>
        <type>quarter</type>
        <stem default-y="-51">down</stem>
      </note>
      <note default-x="24">
        <chord/>
        <pitch>
          <step>C</step>
          <octave>4</octave>
        </pitch>
        <duration>2</duration>
        <voice>1</voice>
        <type>quarter</type>
        <stem>down</stem>
      </note>
      <note default-x="80">
        <pitch>
          <step>F</step>
          <octave>3</octave>
        </pitch>
        <duration>2</duration>
        <voice>1</voice>
        <type>quarter</type>
        <stem default-y="-41.5">down</stem>
      </note>
      <note default-x="80">
        <chord/>
        <pitch>
          <step>C</step>
          <octave>4</octave>
        </pitch>
        <duration>2</duration>
        <voice>1</voice>
        <type>quarter</type>
        <stem>down</stem>
      </note>
      <note default-x="136">
        <pitch>
          <step>G</step>
          <octave>3</octave>
        </pitch>
        <duration>2</duration>
        <voice>1</voice>
        <type>quarter</type>
        <stem default-y="-36.5">down</stem>
      </note>
      <note default-x="136">
        <chord/>
        <pitch>
          <step>B</step>
          <octave>3</octave>
        </pitch>
        <duration>2</duration>
        <voice>1</voice>
        <type>quarter</type>
        <stem>down</stem>
      </note>
      <note default-x="188">
        <pitch>
          <step>E</step>
          <octave>3</octave>
        </pitch>
        <duration>2</duration>
        <voice>1</voice>
        <type>quarter</type>
        <stem default-y="-46.5">down</stem>
      </note>
      <note default-x="188">
        <chord/>
        <pitch>
          <step>C</step>
          <octave>4</octave>
        </pitch>
        <duration>2</duration>
        <voice>1</voice>
        <type>quarter</type>
        <stem>down</stem>
      </note>
    </measure>
    <!--=======================================================-->
    <measure number="8" width="174">
      <note default-x="31">
        <pitch>
          <step>F</step>
          <octave>3</octave>
        </pitch>
        <duration>2</duration>
        <voice>1</voice>
        <type>quarter</type>
        <stem default-y="-41.5">down</stem>
      </note>
      <note default-x="31">
        <chord/>
        <pitch>
          <step>C</step>
          <octave>4</octave>
        </pitch>
        <duration>2</duration>
        <voice>1</voice>
        <type>quarter</type>
        <stem>down</stem>
      </note>
      <note default-x="87">
        <pitch>
          <step>G</step>
          <octave>3</octave>
        </pitch>
        <duration>2</duration>
        <voice>1</voice>
        <type>quarter</type>
        <stem default-y="-36.5">down</stem>
      </note>
      <note default-x="87">
        <chord/>
        <pitch>
          <step>B</step>
          <octave>3</octave>
        </pitch>
        <duration>2</duration>
        <voice>1</voice>
        <type>quarter</type>
        <stem>down</stem>
      </note>
      <note default-x="135">
        <pitch>
          <step>C</step>
          <octave>3</octave>
        </pitch>
        <duration>4</duration>
        <voice>1</voice>
        <type>half</type>
        <stem default-y="-51">down</stem>
      </note>
      <note default-x="135">
        <chord/>
        <pitch>
          <step>C</step>
          <octave>4</octave>
        </pitch>
        <duration>4</duration>
        <voice>1</voice>
        <type>half</type>
        <stem>down</stem>
      </note>
    </measure>
    <!--=======================================================-->
    <measure number="9" width="253">
      <print new-system="yes">
        <staff-layout number="1">
          <staff-distance>160</staff-distance>
        </staff-layout>
      </print>
      <note default-x="57">
        <pitch>
          <step>C</step>
          <octave>3</octave>
        </pitch>
        <duration>3</duration>
        <voice>1</voice>
        <type>quarter</type>
        <dot/>
        <stem default-y="-51">down</stem>
      </note>
      <note default-x="57">
        <chord/>
        <pitch>
          <step>C</step>
          <octave>4</octave>
        </pitch>
        <duration>3</duration>
        <voice>1</voice>
        <type>quarter</type>
        <dot/>
        <stem>down</stem>
      </note>
      <note default-x="119">
        <pitch>
          <step>E</step>
          <octave>3</octave>
        </pitch>
        <duration>1</duration>
        <voice>1</voice>
        <type>eighth</type>
        <stem default-y="-46">down</stem>
      </note>
      <note default-x="119">
        <chord/>
        <pitch>
          <step>C</step>
          <octave>4</octave>
        </pitch>
        <duration>1</duration>
        <voice>1</voice>
        <type>eighth</type>
        <stem>down</stem>
      </note>
      <note default-x="173">
        <pitch>
          <step>G</step>
          <octave>3</octave>
        </pitch>
        <duration>2</duration>
        <voice>1</voice>
        <type>quarter</type>
        <stem default-y="-36">down</stem>
      </note>
      <note default-x="173">
        <chord/>
        <pitch>
          <step>C</step>
          <octave>4</octave>
        </pitch>
        <duration>2</duration>
        <voice>1</voice>
        <type>quarter</type>
        <stem>down</stem>
      </note>
      <note default-x="220">
        <pitch>
          <step>G</step>
          <octave>3</octave>
        </pitch>
        <duration>2</duration>
        <voice>1</voice>
        <type>quarter</type>
        <stem default-y="-36">down</stem>
      </note>
      <note default-x="220">
        <chord/>
        <pitch>
          <step>B</step>
          <octave>3</octave>
        </pitch>
        <duration>2</duration>
        <voice>1</voice>
        <type>quarter</type>
        <stem>down</stem>
      </note>
    </measure>
    <!--=======================================================-->
    <measure number="10" width="218">
      <note default-x="23">
        <pitch>
          <step>A</step>
          <octave>3</octave>
        </pitch>
        <duration>2</duration>
        <voice>1</voice>
        <type>quarter</type>
        <stem>double</stem>
      </note>
      <note default-x="70">
        <pitch>
          <step>C</step>
          <octave>3</octave>
        </pitch>
        <duration>1</duration>
        <voice>1</voice>
        <type>eighth</type>
        <stem default-y="-56">down</stem>
        <beam number="1">begin</beam>
      </note>
      <backup>
        <duration>1</duration>
      </backup>
      <note default-x="70">
        <pitch>
          <step>A</step>
          <octave>3</octave>
        </pitch>
        <duration>2</duration>
        <voice>2</voice>
        <type>quarter</type>
        <stem default-y="24">up</stem>
      </note>
      <backup>
        <duration>1</duration>
      </backup>
      <note default-x="97">
        <pitch>
          <step>D</step>
          <octave>3</octave>
        </pitch>
        <duration>1</duration>
        <voice>1</voice>
        <type>eighth</type>
        <stem default-y="-51">down</stem>
        <beam number="1">end</beam>
      </note>
      <note default-x="123">
        <pitch>
          <step>E</step>
          <octave>3</octave>
        </pitch>
        <duration>2</duration>
        <voice>1</voice>
        <type>quarter</type>
        <stem default-y="-46">down</stem>
      </note>
      <note default-x="123">
        <chord/>
        <pitch>
          <step>G</step>
          <alter>1</alter>
          <octave>3</octave>
        </pitch>
        <duration>2</duration>
        <voice>1</voice>
        <type>quarter</type>
        <accidental>sharp</accidental>
        <stem>down</stem>
      </note>
      <note default-x="178">
        <pitch>
          <step>E</step>
          <octave>3</octave>
        </pitch>
        <duration>2</duration>
        <voice>1</voice>
        <type>quarter</type>
        <stem default-y="-46">down</stem>
      </note>
      <note default-x="178">
        <chord/>
        <pitch>
          <step>G</step>
          <alter>1</alter>
          <octave>3</octave>
        </pitch>
        <duration>2</duration>
        <voice>1</voice>
        <type>quarter</type>
        <stem>down</stem>
      </note>
    </measure>
    <!--=======================================================-->
    <measure number="11" width="199">
      <note default-x="18">
        <pitch>
          <step>F</step>
          <octave>3</octave>
        </pitch>
        <duration>3</duration>
        <voice>1</voice>
        <type>quarter</type>
        <dot/>
        <stem default-y="-41">down</stem>
      </note>
      <note default-x="18">
        <chord/>
        <pitch>
          <step>A</step>
          <octave>3</octave>
        </pitch>
        <duration>3</duration>
        <voice>1</voice>
        <type>quarter</type>
        <dot/>
        <stem>down</stem>
      </note>
      <note default-x="71">
        <pitch>
          <step>F</step>
          <octave>3</octave>
        </pitch>
        <duration>1</duration>
        <voice>1</voice>
        <type>eighth</type>
        <stem default-y="-41">down</stem>
      </note>
      <note default-x="71">
        <chord/>
        <pitch>
          <step>C</step>
          <octave>4</octave>
        </pitch>
        <duration>1</duration>
        <voice>1</voice>
        <type>eighth</type>
        <stem>down</stem>
      </note>
      <note default-x="121">
        <pitch>
          <step>C</step>
          <octave>3</octave>
        </pitch>
        <duration>2</duration>
        <voice>1</voice>
        <type>quarter</type>
        <stem default-y="-51">down</stem>
      </note>
      <note default-x="121">
        <chord/>
        <pitch>
          <step>C</step>
          <octave>4</octave>
        </pitch>
        <duration>2</duration>
        <voice>1</voice>
        <type>quarter</type>
        <stem>down</stem>
      </note>
      <note default-x="169">
        <pitch>
          <step>E</step>
          <octave>3</octave>
        </pitch>
        <duration>2</duration>
        <voice>1</voice>
        <type>quarter</type>
        <stem default-y="-46">down</stem>
      </note>
      <note default-x="169">
        <chord/>
        <pitch>
          <step>C</step>
          <octave>4</octave>
        </pitch>
        <duration>2</duration>
        <voice>1</voice>
        <type>quarter</type>
        <stem>down</stem>
      </note>
    </measure>
    <!--=======================================================-->
    <measure number="12" width="178">
      <note default-x="23">
        <pitch>
          <step>F</step>
          <octave>3</octave>
        </pitch>
        <duration>2</duration>
        <voice>1</voice>
        <type>quarter</type>
        <stem default-y="-41">down</stem>
      </note>
      <note default-x="23">
        <chord/>
        <pitch>
          <step>A</step>
          <octave>3</octave>
        </pitch>
        <duration>2</duration>
        <voice>1</voice>
        <type>quarter</type>
        <stem>down</stem>
      </note>
      <note default-x="74">
        <pitch>
          <step>G</step>
          <octave>3</octave>
        </pitch>
        <duration>2</duration>
        <voice>1</voice>
        <type>quarter</type>
        <stem>double</stem>
      </note>
      <note default-x="127">
        <pitch>
          <step>C</step>
          <octave>3</octave>
        </pitch>
        <duration>4</duration>
        <voice>1</voice>
        <type>half</type>
        <stem default-y="-51">down</stem>
      </note>
      <note default-x="127">
        <chord/>
        <pitch>
          <step>G</step>
          <octave>3</octave>
        </pitch>
        <duration>4</duration>
        <voice>1</voice>
        <type>half</type>
        <stem>down</stem>
      </note>
      <barline location="right">
        <bar-style>light-heavy</bar-style>
      </barline>
    </measure>
  </part>
  <!--=========================================================-->
</score-partwise>
