<?xml version="1.0" encoding="UTF-8" standalone="no"?>
<!DOCTYPE score-partwise PUBLIC "-//Recordare//DTD MusicXML 3.1 Partwise//EN" "http://www.musicxml.org/dtds/partwise.dtd">
<score-partwise version="3.1">
  <identification>
    <encoding>
      <software>Finale v25 for Windows</software>
      <encoding-date>2020-07-07</encoding-date>
      <supports attribute="new-system" element="print" type="yes" value="yes"/>
      <supports attribute="new-page" element="print" type="yes" value="yes"/>
      <supports element="accidental" type="yes"/>
      <supports element="beam" type="yes"/>
      <supports element="stem" type="yes"/>
    </encoding>
  </identification>
  <defaults>
    <scaling>
      <millimeters>6.35</millimeters>
      <tenths>40</tenths>
    </scaling>
    <page-layout>
      <page-height>1380</page-height>
      <page-width>852</page-width>
      <page-margins type="both">
        <left-margin>0</left-margin>
        <right-margin>0</right-margin>
        <top-margin>0</top-margin>
        <bottom-margin>224</bottom-margin>
      </page-margins>
    </page-layout>
    <system-layout>
      <system-margins>
        <left-margin>5</left-margin>
        <right-margin>0</right-margin>
      </system-margins>
      <system-distance>92</system-distance>
      <top-system-distance>92</top-system-distance>
    </system-layout>
    <appearance>
      <line-width type="stem">0.8333</line-width>
      <line-width type="beam">4.1667</line-width>
      <line-width type="staff">0.7096</line-width>
      <line-width type="light barline">0.8333</line-width>
      <line-width type="heavy barline">5</line-width>
      <line-width type="leger">0.7292</line-width>
      <line-width type="ending">0.7682</line-width>
      <line-width type="wedge">0.8333</line-width>
      <line-width type="enclosure">0.8333</line-width>
      <line-width type="tuplet bracket">0.7292</line-width>
      <note-size type="grace">55</note-size>
      <note-size type="cue">55</note-size>
      <distance type="hyphen">83</distance>
      <distance type="beam">8</distance>
    </appearance>
    <music-font font-family="Petrucci2" font-size="18"/>
    <word-font font-family="Palatino Linotype" font-size="9"/>
    <lyric-font font-family="Palatino Linotype" font-size="9"/>
  </defaults>
  <credit page="1">
    <credit-words default-y="224" font-size="7.5" valign="bottom">Music: David R. Erb, 2007</credit-words>
    <credit-words font-size="6"> ©</credit-words>
    <credit-words font-size="7.5" xml:space="preserve">
Text: </credit-words>
    <credit-words font-size="7.5" font-style="italic">Holy Bible, New King James Version</credit-words>
    <credit-words font-size="7.5" font-style="normal">, 1982 </credit-words>
    <credit-words font-size="6">©</credit-words>
  </credit>
  <part-list>
    <part-group number="1" type="start">
      <group-symbol default-x="-2">line</group-symbol>
      <group-barline>yes</group-barline>
    </part-group>
    <score-part id="P1">
      <part-name print-object="no">MusicXML Part</part-name>
      <score-instrument id="P1-I2">
        <instrument-name>Instr. 1</instrument-name>
      </score-instrument>
      <midi-instrument id="P1-I2">
        <midi-channel>1</midi-channel>
        <midi-program>53</midi-program>
        <volume>80</volume>
        <pan>0</pan>
      </midi-instrument>
    </score-part>
    <part-group number="1" type="stop"/>
  </part-list>
  <!--=========================================================-->
  <part id="P1">
    <measure number="1" width="488">
      <print>
        <measure-numbering>system</measure-numbering>
      </print>
      <attributes>
        <divisions>24</divisions>
        <key>
          <fifths>-1</fifths>
          <mode>major</mode>
        </key>
        <clef>
          <sign>G</sign>
          <line>2</line>
        </clef>
        <staff-details>
          <staff-size>90</staff-size>
        </staff-details>
      </attributes>
      <sound tempo="100"/>
      <harmony default-y="8" font-size="6.75">
        <root>
          <root-step>D</root-step>
        </root>
        <kind halign="center" text="5">power</kind>
      </harmony>
      <note default-x="64">
        <pitch>
          <step>F</step>
          <octave>4</octave>
        </pitch>
        <duration>24</duration>
        <instrument id="P1-I2"/>
        <voice>1</voice>
        <type>quarter</type>
        <stem default-y="-30.5">down</stem>
        <lyric default-y="-72" number="1">
          <syllabic>single</syllabic>
          <text font-size="4">1</text>
          <elision> </elision>
          <syllabic>single</syllabic>
          <text font-size="4">LORD,</text>
        </lyric>
      </note>
      <note default-x="110">
        <pitch>
          <step>G</step>
          <octave>4</octave>
        </pitch>
        <duration>24</duration>
        <instrument id="P1-I2"/>
        <voice>1</voice>
        <type>quarter</type>
        <stem default-y="-26">down</stem>
        <notations>
          <slur number="1" placement="above" type="start"/>
        </notations>
        <lyric default-y="-72" number="1" relative-x="7">
          <syllabic>single</syllabic>
          <text font-size="8.1">who</text>
        </lyric>
      </note>
      <note default-x="148">
        <pitch>
          <step>A</step>
          <octave>4</octave>
        </pitch>
        <duration>24</duration>
        <instrument id="P1-I2"/>
        <voice>1</voice>
        <type>quarter</type>
        <stem default-y="-22">down</stem>
        <notations>
          <slur number="1" type="stop"/>
        </notations>
      </note>
      <note default-x="176">
        <pitch>
          <step>A</step>
          <octave>4</octave>
        </pitch>
        <duration>24</duration>
        <instrument id="P1-I2"/>
        <voice>1</voice>
        <type>quarter</type>
        <stem default-y="-23">down</stem>
        <?DoletFinale Unknown notehead 87 from font Petrucci2 at entry 4, note ID 1?>
        <lyric default-y="-72" justify="left" number="1" relative-x="-10">
          <syllabic>single</syllabic>
          <text font-size="8.1">may</text>
          <elision> </elision>
          <syllabic>single</syllabic>
          <text font-size="8.1"/>
          <elision> </elision>
          <syllabic>single</syllabic>
          <text font-size="8.1">abide</text>
          <elision> </elision>
          <syllabic>single</syllabic>
          <text font-size="8.1"/>
          <elision> </elision>
          <syllabic>single</syllabic>
          <text font-size="8.1">in</text>
          <elision> </elision>
          <syllabic>single</syllabic>
          <text font-size="8.1"/>
          <elision> </elision>
          <syllabic>single</syllabic>
          <text font-size="8.1">Your</text>
        </lyric>
      </note>
      <note default-x="183">
        <pitch>
          <step>A</step>
          <octave>4</octave>
        </pitch>
        <duration>24</duration>
        <instrument id="P1-I2"/>
        <voice>1</voice>
        <type size="cue">quarter</type>
        <stem default-y="-23">down</stem>
        <?DoletFinale Unknown notehead 8221 from font Petrucci2 at entry 121, note ID 1?>
      </note>
      <note default-x="195">
        <pitch>
          <step>A</step>
          <octave>4</octave>
        </pitch>
        <duration>24</duration>
        <instrument id="P1-I2"/>
        <voice>1</voice>
        <type size="cue">quarter</type>
        <stem default-y="-23">down</stem>
        <?DoletFinale Unknown notehead 8221 from font Petrucci2 at entry 122, note ID 1?>
      </note>
      <note default-x="357">
        <pitch>
          <step>B</step>
          <alter>-1</alter>
          <octave>4</octave>
        </pitch>
        <duration>24</duration>
        <instrument id="P1-I2"/>
        <voice>1</voice>
        <type>quarter</type>
        <stem default-y="-17">down</stem>
        <lyric default-y="-72" number="1">
          <syllabic>begin</syllabic>
          <text font-size="8.1">tab</text>
        </lyric>
      </note>
      <note default-x="389">
        <pitch>
          <step>A</step>
          <octave>4</octave>
        </pitch>
        <duration>24</duration>
        <instrument id="P1-I2"/>
        <voice>1</voice>
        <type>quarter</type>
        <stem default-y="-22">down</stem>
        <lyric default-y="-72" number="1">
          <syllabic>middle</syllabic>
          <text font-size="8.1">er</text>
        </lyric>
      </note>
      <note default-x="419">
        <pitch>
          <step>G</step>
          <octave>4</octave>
        </pitch>
        <duration>24</duration>
        <instrument id="P1-I2"/>
        <voice>1</voice>
        <type>quarter</type>
        <stem default-y="-26">down</stem>
        <lyric default-y="-72" number="1">
          <syllabic>middle</syllabic>
          <text font-size="8.1">na</text>
        </lyric>
      </note>
      <note default-x="456">
        <pitch>
          <step>A</step>
          <octave>4</octave>
        </pitch>
        <duration>48</duration>
        <instrument id="P1-I2"/>
        <voice>1</voice>
        <type>half</type>
        <stem default-y="-22">down</stem>
        <lyric default-y="-72" number="1">
          <syllabic>end</syllabic>
          <text font-size="8.1">cle?</text>
        </lyric>
      </note>
      <barline location="right">
        <bar-style>tick</bar-style>
      </barline>
    </measure>
    <!--=======================================================-->
    <measure number="2" width="360">
      <harmony default-y="8" font-size="6.75">
        <root>
          <root-step>D</root-step>
        </root>
        <kind halign="center" text="m">minor</kind>
      </harmony>
      <note default-x="29">
        <pitch>
          <step>A</step>
          <octave>4</octave>
        </pitch>
        <duration>24</duration>
        <instrument id="P1-I2"/>
        <voice>1</voice>
        <type>quarter</type>
        <stem default-y="-23">down</stem>
        <?DoletFinale Unknown notehead 87 from font Petrucci2 at entry 9, note ID 1?>
        <lyric default-y="-72" justify="left" number="1" relative-x="-18">
          <syllabic>single</syllabic>
          <text font-size="8.1">Who</text>
          <elision> </elision>
          <syllabic>single</syllabic>
          <text font-size="8.1"/>
          <elision> </elision>
          <syllabic>single</syllabic>
          <text font-size="8.1">may</text>
          <elision> </elision>
          <syllabic>single</syllabic>
          <text font-size="8.1"/>
          <elision> </elision>
          <syllabic>single</syllabic>
          <text font-size="8.1">dwell</text>
        </lyric>
      </note>
      <note default-x="36">
        <pitch>
          <step>A</step>
          <octave>4</octave>
        </pitch>
        <duration>24</duration>
        <instrument id="P1-I2"/>
        <voice>1</voice>
        <type size="cue">quarter</type>
        <stem default-y="-23">down</stem>
        <?DoletFinale Unknown notehead 8221 from font Petrucci2 at entry 123, note ID 1?>
      </note>
      <note default-x="48">
        <pitch>
          <step>A</step>
          <octave>4</octave>
        </pitch>
        <duration>24</duration>
        <instrument id="P1-I2"/>
        <voice>1</voice>
        <type size="cue">quarter</type>
        <stem default-y="-23">down</stem>
        <?DoletFinale Unknown notehead 8221 from font Petrucci2 at entry 124, note ID 1?>
      </note>
      <note default-x="161">
        <pitch>
          <step>G</step>
          <octave>4</octave>
        </pitch>
        <duration>24</duration>
        <instrument id="P1-I2"/>
        <voice>1</voice>
        <type>quarter</type>
        <stem default-y="-26">down</stem>
        <lyric default-y="-72" number="1">
          <syllabic>single</syllabic>
          <text font-size="8.1">in</text>
        </lyric>
      </note>
      <note default-x="199">
        <pitch>
          <step>F</step>
          <octave>4</octave>
        </pitch>
        <duration>24</duration>
        <instrument id="P1-I2"/>
        <voice>1</voice>
        <type>quarter</type>
        <stem default-y="-30.5">down</stem>
        <lyric default-y="-72" number="1">
          <syllabic>single</syllabic>
          <text font-size="8.1">Your</text>
        </lyric>
      </note>
      <harmony default-y="8" font-size="6.75">
        <root>
          <root-step>C</root-step>
        </root>
        <kind halign="center" text="">major</kind>
      </harmony>
      <note default-x="236">
        <pitch>
          <step>G</step>
          <octave>4</octave>
        </pitch>
        <duration>24</duration>
        <instrument id="P1-I2"/>
        <voice>1</voice>
        <type>quarter</type>
        <stem default-y="-26">down</stem>
        <notations>
          <slur number="1" placement="above" type="start"/>
        </notations>
        <lyric default-y="-72" number="1">
          <syllabic>begin</syllabic>
          <text font-size="8.1">ho</text>
        </lyric>
      </note>
      <note default-x="265">
        <pitch>
          <step>A</step>
          <octave>4</octave>
        </pitch>
        <duration>24</duration>
        <instrument id="P1-I2"/>
        <voice>1</voice>
        <type>quarter</type>
        <stem default-y="-22">down</stem>
        <notations>
          <slur number="1" type="stop"/>
        </notations>
      </note>
      <note default-x="295">
        <pitch>
          <step>G</step>
          <octave>4</octave>
        </pitch>
        <duration>24</duration>
        <instrument id="P1-I2"/>
        <voice>1</voice>
        <type>quarter</type>
        <stem default-y="-26">down</stem>
        <lyric default-y="-72" number="1">
          <syllabic>end</syllabic>
          <text font-size="8.1">ly</text>
        </lyric>
      </note>
      <note default-x="326">
        <pitch>
          <step>G</step>
          <octave>4</octave>
        </pitch>
        <duration>48</duration>
        <instrument id="P1-I2"/>
        <voice>1</voice>
        <type>half</type>
        <stem default-y="-27">down</stem>
        <lyric default-y="-72" number="1">
          <syllabic>single</syllabic>
          <text font-size="8.1">hill?</text>
        </lyric>
      </note>
    </measure>
    <!--=======================================================-->
    <measure number="3" width="326">
      <print new-system="yes">
        <system-layout>
          <system-distance>96</system-distance>
        </system-layout>
      </print>
      <attributes>
        <time symbol="cut">
          <beats>2</beats>
          <beat-type>2</beat-type>
        </time>
      </attributes>
      <harmony default-y="10" font-size="6.75">
        <root>
          <root-step>D</root-step>
        </root>
        <kind halign="center" text="m">minor</kind>
      </harmony>
      <note default-x="70">
        <pitch>
          <step>A</step>
          <octave>4</octave>
        </pitch>
        <duration>12</duration>
        <instrument id="P1-I2"/>
        <voice>1</voice>
        <type>eighth</type>
        <stem default-y="6">up</stem>
        <beam number="1">begin</beam>
        <lyric default-y="-72" number="1">
          <syllabic>single</syllabic>
          <text font-size="4">2</text>
          <elision> </elision>
          <syllabic>single</syllabic>
          <text font-size="4">He</text>
        </lyric>
      </note>
      <note default-x="108">
        <pitch>
          <step>A</step>
          <octave>4</octave>
        </pitch>
        <duration>12</duration>
        <instrument id="P1-I2"/>
        <voice>1</voice>
        <type>eighth</type>
        <stem default-y="6">up</stem>
        <beam number="1">continue</beam>
        <lyric default-y="-72" number="1">
          <syllabic>single</syllabic>
          <text font-size="8.1">who</text>
        </lyric>
      </note>
      <note default-x="152">
        <pitch>
          <step>A</step>
          <octave>4</octave>
        </pitch>
        <duration>12</duration>
        <instrument id="P1-I2"/>
        <voice>1</voice>
        <type>eighth</type>
        <stem default-y="6">up</stem>
        <beam number="1">continue</beam>
        <lyric default-y="-72" number="1">
          <syllabic>single</syllabic>
          <text font-size="8.1">walks</text>
        </lyric>
      </note>
      <note default-x="190">
        <pitch>
          <step>A</step>
          <octave>4</octave>
        </pitch>
        <duration>12</duration>
        <instrument id="P1-I2"/>
        <voice>1</voice>
        <type>eighth</type>
        <stem default-y="6">up</stem>
        <beam number="1">end</beam>
        <lyric default-y="-72" number="1">
          <syllabic>begin</syllabic>
          <text font-size="8.1">up</text>
        </lyric>
      </note>
      <harmony default-y="10" font-size="6.75">
        <root>
          <root-step>C</root-step>
        </root>
        <kind halign="center" text="">major</kind>
      </harmony>
      <note default-x="227">
        <pitch>
          <step>A</step>
          <octave>4</octave>
        </pitch>
        <duration>12</duration>
        <instrument id="P1-I2"/>
        <voice>1</voice>
        <type>eighth</type>
        <stem default-y="11">up</stem>
        <lyric default-y="-72" number="1">
          <syllabic>middle</syllabic>
          <text font-size="8.1">right</text>
        </lyric>
      </note>
      <note default-x="263">
        <pitch>
          <step>G</step>
          <octave>4</octave>
        </pitch>
        <duration>24</duration>
        <instrument id="P1-I2"/>
        <voice>1</voice>
        <type>quarter</type>
        <stem default-y="1.5">up</stem>
        <lyric default-y="-72" number="1">
          <syllabic>end</syllabic>
          <text font-size="8.1">ly,</text>
        </lyric>
      </note>
      <note default-x="294">
        <pitch>
          <step>A</step>
          <octave>4</octave>
        </pitch>
        <duration>12</duration>
        <instrument id="P1-I2"/>
        <voice>1</voice>
        <type>eighth</type>
        <stem default-y="11">up</stem>
        <lyric default-y="-72" number="1" relative-x="3">
          <syllabic>single</syllabic>
          <text font-size="8.1">And</text>
        </lyric>
      </note>
    </measure>
    <!--=======================================================-->
    <measure number="4" width="256">
      <harmony default-y="10" font-size="6.75">
        <root>
          <root-step>B</root-step>
          <root-alter>-1</root-alter>
        </root>
        <kind halign="center" text="">major</kind>
      </harmony>
      <note default-x="20">
        <pitch>
          <step>B</step>
          <alter>-1</alter>
          <octave>4</octave>
        </pitch>
        <duration>12</duration>
        <instrument id="P1-I2"/>
        <voice>1</voice>
        <type>eighth</type>
        <stem default-y="8">up</stem>
        <beam number="1">begin</beam>
        <lyric default-y="-72" number="1">
          <syllabic>single</syllabic>
          <text font-size="8.1">works</text>
        </lyric>
      </note>
      <note default-x="66">
        <pitch>
          <step>A</step>
          <octave>4</octave>
        </pitch>
        <duration>12</duration>
        <instrument id="P1-I2"/>
        <voice>1</voice>
        <type>eighth</type>
        <stem default-y="5">up</stem>
        <beam number="1">end</beam>
        <lyric default-y="-72" number="1">
          <syllabic>begin</syllabic>
          <text font-size="8.1">right</text>
        </lyric>
      </note>
      <note default-x="111">
        <pitch>
          <step>G</step>
          <octave>4</octave>
        </pitch>
        <duration>12</duration>
        <instrument id="P1-I2"/>
        <voice>1</voice>
        <type>eighth</type>
        <stem default-y="1.5">up</stem>
        <beam number="1">begin</beam>
        <lyric default-y="-72" number="1" relative-x="3">
          <syllabic>middle</syllabic>
          <text font-size="8.1">eous</text>
        </lyric>
      </note>
      <note default-x="153">
        <pitch>
          <step>A</step>
          <octave>4</octave>
        </pitch>
        <duration>12</duration>
        <tie type="start"/>
        <instrument id="P1-I2"/>
        <voice>1</voice>
        <type>eighth</type>
        <stem default-y="6">up</stem>
        <beam number="1">end</beam>
        <notations>
          <tied type="start"/>
        </notations>
        <lyric default-y="-72" number="1" relative-x="5">
          <syllabic>end</syllabic>
          <text font-size="8.1">ness,</text>
        </lyric>
      </note>
      <harmony default-y="18" font-size="6.75">
        <root>
          <root-step>A</root-step>
        </root>
        <kind halign="center" text="">major</kind>
      </harmony>
      <note default-x="183">
        <pitch>
          <step>A</step>
          <octave>4</octave>
        </pitch>
        <duration>24</duration>
        <tie type="stop"/>
        <instrument id="P1-I2"/>
        <voice>1</voice>
        <type>quarter</type>
        <stem default-y="6.5">up</stem>
        <notations>
          <tied type="stop"/>
        </notations>
      </note>
      <note default-x="220">
        <pitch>
          <step>A</step>
          <octave>4</octave>
        </pitch>
        <duration>24</duration>
        <instrument id="P1-I2"/>
        <voice>1</voice>
        <type>quarter</type>
        <stem default-y="6.5">up</stem>
        <lyric default-y="-72" number="1" relative-x="6">
          <syllabic>single</syllabic>
          <text font-size="8.1">And</text>
        </lyric>
      </note>
    </measure>
    <!--=======================================================-->
    <measure number="5" width="208">
      <harmony default-y="10" font-size="6.75">
        <root>
          <root-step>D</root-step>
        </root>
        <kind halign="center" text="m">minor</kind>
      </harmony>
      <note default-x="18">
        <pitch>
          <step>A</step>
          <octave>4</octave>
        </pitch>
        <duration>24</duration>
        <instrument id="P1-I2"/>
        <voice>1</voice>
        <type>quarter</type>
        <stem default-y="6.5">up</stem>
        <lyric default-y="-72" number="1">
          <syllabic>single</syllabic>
          <text font-size="8.1">speaks</text>
        </lyric>
      </note>
      <note default-x="64">
        <pitch>
          <step>A</step>
          <octave>4</octave>
        </pitch>
        <duration>24</duration>
        <instrument id="P1-I2"/>
        <voice>1</voice>
        <type>quarter</type>
        <stem default-y="6.5">up</stem>
        <lyric default-y="-72" number="1">
          <syllabic>single</syllabic>
          <text font-size="8.1">the</text>
        </lyric>
      </note>
      <harmony default-y="10" font-size="6.75">
        <root>
          <root-step>G</root-step>
        </root>
        <kind halign="center" text="m">minor</kind>
      </harmony>
      <note default-x="103">
        <pitch>
          <step>G</step>
          <octave>4</octave>
        </pitch>
        <duration>12</duration>
        <instrument id="P1-I2"/>
        <voice>1</voice>
        <type>eighth</type>
        <stem default-y="1.5">up</stem>
        <beam number="1">begin</beam>
        <lyric default-y="-72" number="1">
          <syllabic>single</syllabic>
          <text font-size="8.1">truth</text>
        </lyric>
      </note>
      <note default-x="132">
        <pitch>
          <step>F</step>
          <octave>4</octave>
        </pitch>
        <duration>12</duration>
        <instrument id="P1-I2"/>
        <voice>1</voice>
        <type>eighth</type>
        <stem default-y="3">up</stem>
        <beam number="1">continue</beam>
        <lyric default-y="-72" number="1" relative-x="4">
          <syllabic>single</syllabic>
          <text font-size="8.1">in</text>
        </lyric>
      </note>
      <note default-x="162">
        <pitch>
          <step>G</step>
          <octave>4</octave>
        </pitch>
        <duration>12</duration>
        <instrument id="P1-I2"/>
        <voice>1</voice>
        <type>eighth</type>
        <stem default-y="4">up</stem>
        <beam number="1">continue</beam>
        <notations>
          <slur bezier-x="5" bezier-y="-4" default-x="5" default-y="-36" number="1" placement="below" type="start"/>
        </notations>
        <lyric default-y="-72" number="1" relative-x="4">
          <syllabic>single</syllabic>
          <text font-size="8.1">his</text>
        </lyric>
      </note>
      <harmony default-y="-117" font-size="6.75">
        <root>
          <root-step>A</root-step>
        </root>
        <kind halign="center" text="">major</kind>
      </harmony>
      <note default-x="188">
        <pitch>
          <step>A</step>
          <octave>4</octave>
        </pitch>
        <duration>12</duration>
        <instrument id="P1-I2"/>
        <voice>1</voice>
        <type>eighth</type>
        <stem default-y="6">up</stem>
        <beam number="1">end</beam>
        <notations>
          <slur bezier-x="-4" bezier-y="-5" default-x="6" default-y="-32" number="1" type="stop"/>
        </notations>
      </note>
    </measure>
    <!--=======================================================-->
    <measure number="6" width="58">
      <harmony default-y="10" font-size="6.75">
        <root>
          <root-step>C</root-step>
        </root>
        <kind halign="center" text="sus">suspended-fourth</kind>
      </harmony>
      <direction>
        <direction-type>
          <words default-x="41" default-y="-234" font-size="7.5" valign="top">C</words>
        </direction-type>
        <offset>96</offset>
      </direction>
      <note default-x="21">
        <pitch>
          <step>G</step>
          <octave>4</octave>
        </pitch>
        <duration>96</duration>
        <instrument id="P1-I2"/>
        <voice>1</voice>
        <type>whole</type>
        <lyric default-y="-72" number="1">
          <syllabic>single</syllabic>
          <text font-size="8.1">heart;</text>
        </lyric>
      </note>
      <harmony default-y="10" font-size="6.75">
        <root>
          <root-step>C</root-step>
        </root>
        <kind halign="center" text="">major</kind>
        <offset>-24</offset>
      </harmony>
    </measure>
    <!--=======================================================-->
    <measure number="7" width="433">
      <print new-system="yes">
        <system-layout>
          <system-distance>96</system-distance>
        </system-layout>
      </print>
      <harmony default-y="10" font-size="6.75">
        <root>
          <root-step>D</root-step>
        </root>
        <kind halign="center" text="m">minor</kind>
      </harmony>
      <note default-x="44">
        <pitch>
          <step>A</step>
          <octave>4</octave>
        </pitch>
        <duration>12</duration>
        <instrument id="P1-I2"/>
        <voice>1</voice>
        <type>eighth</type>
        <stem default-y="6">up</stem>
        <beam number="1">begin</beam>
        <lyric default-y="-72" number="1">
          <syllabic>single</syllabic>
          <text font-size="4">3</text>
          <elision> </elision>
          <syllabic>single</syllabic>
          <text font-size="4">He</text>
        </lyric>
      </note>
      <note default-x="93">
        <pitch>
          <step>A</step>
          <octave>4</octave>
        </pitch>
        <duration>12</duration>
        <instrument id="P1-I2"/>
        <voice>1</voice>
        <type>eighth</type>
        <stem default-y="6">up</stem>
        <beam number="1">continue</beam>
        <lyric default-y="-72" number="1">
          <syllabic>single</syllabic>
          <text font-size="8.1">who</text>
        </lyric>
      </note>
      <note default-x="141">
        <pitch>
          <step>A</step>
          <octave>4</octave>
        </pitch>
        <duration>12</duration>
        <instrument id="P1-I2"/>
        <voice>1</voice>
        <type>eighth</type>
        <stem default-y="6">up</stem>
        <beam number="1">continue</beam>
        <lyric default-y="-72" number="1">
          <syllabic>single</syllabic>
          <text font-size="8.1">does</text>
        </lyric>
      </note>
      <note default-x="190">
        <pitch>
          <step>A</step>
          <octave>4</octave>
        </pitch>
        <duration>12</duration>
        <instrument id="P1-I2"/>
        <voice>1</voice>
        <type>eighth</type>
        <stem default-y="6">up</stem>
        <beam number="1">end</beam>
        <lyric default-y="-72" number="1">
          <syllabic>single</syllabic>
          <text font-size="8.1">not</text>
        </lyric>
      </note>
      <harmony default-y="17" font-size="6.75">
        <root>
          <root-step>D</root-step>
        </root>
        <kind halign="center" text="m">minor</kind>
        <bass>
          <bass-step>C</bass-step>
          <bass-alter>1</bass-alter>
        </bass>
      </harmony>
      <note default-x="238">
        <pitch>
          <step>A</step>
          <octave>4</octave>
        </pitch>
        <duration>12</duration>
        <instrument id="P1-I2"/>
        <voice>1</voice>
        <type>eighth</type>
        <stem default-y="6">up</stem>
        <beam number="1">begin</beam>
        <lyric default-y="-72" number="1">
          <syllabic>begin</syllabic>
          <text font-size="8.1">back</text>
        </lyric>
      </note>
      <note default-x="287">
        <pitch>
          <step>G</step>
          <octave>4</octave>
        </pitch>
        <duration>12</duration>
        <instrument id="P1-I2"/>
        <voice>1</voice>
        <type>eighth</type>
        <stem default-y="7.5">up</stem>
        <beam number="1">continue</beam>
        <lyric default-y="-72" number="1">
          <syllabic>end</syllabic>
          <text font-size="8.1">bite</text>
        </lyric>
      </note>
      <note default-x="335">
        <pitch>
          <step>A</step>
          <octave>4</octave>
        </pitch>
        <duration>12</duration>
        <instrument id="P1-I2"/>
        <voice>1</voice>
        <type>eighth</type>
        <stem default-y="8.5">up</stem>
        <beam number="1">continue</beam>
        <lyric default-y="-72" number="1">
          <syllabic>single</syllabic>
          <text font-size="8.1">with</text>
        </lyric>
      </note>
      <note default-x="383">
        <pitch>
          <step>B</step>
          <alter>-1</alter>
          <octave>4</octave>
        </pitch>
        <duration>12</duration>
        <instrument id="P1-I2"/>
        <voice>1</voice>
        <type>eighth</type>
        <stem default-y="10">up</stem>
        <beam number="1">end</beam>
        <lyric default-y="-72" number="1">
          <syllabic>single</syllabic>
          <text font-size="8.1">his</text>
        </lyric>
      </note>
    </measure>
    <!--=======================================================-->
    <measure number="8" width="414">
      <harmony default-y="14" font-size="6.75">
        <root>
          <root-step>D</root-step>
        </root>
        <kind halign="center" text="m">minor</kind>
        <bass>
          <bass-step>C</bass-step>
        </bass>
      </harmony>
      <note default-x="4">
        <pitch>
          <step>A</step>
          <octave>4</octave>
        </pitch>
        <duration>24</duration>
        <instrument id="P1-I2"/>
        <voice>1</voice>
        <type>quarter</type>
        <stem default-y="6">up</stem>
        <lyric default-y="-72" number="1">
          <syllabic>single</syllabic>
          <text font-size="8.1">tongue,</text>
        </lyric>
      </note>
      <note default-x="82">
        <pitch>
          <step>A</step>
          <octave>4</octave>
        </pitch>
        <duration>12</duration>
        <instrument id="P1-I2"/>
        <voice>1</voice>
        <type>eighth</type>
        <stem default-y="6">up</stem>
        <beam number="1">begin</beam>
        <lyric default-y="-72" number="1">
          <syllabic>single</syllabic>
          <text font-size="8.1">Nor</text>
        </lyric>
      </note>
      <note default-x="120">
        <pitch>
          <step>A</step>
          <octave>4</octave>
        </pitch>
        <duration>12</duration>
        <instrument id="P1-I2"/>
        <voice>1</voice>
        <type>eighth</type>
        <stem default-y="6">up</stem>
        <beam number="1">end</beam>
        <lyric default-y="-72" number="1">
          <syllabic>single</syllabic>
          <text font-size="8.1">does</text>
        </lyric>
      </note>
      <harmony default-y="13" font-size="6.75">
        <root>
          <root-step>B</root-step>
          <root-alter>-1</root-alter>
        </root>
        <kind halign="center" text="">major</kind>
      </harmony>
      <note default-x="158">
        <pitch>
          <step>B</step>
          <alter>-1</alter>
          <octave>4</octave>
        </pitch>
        <duration>12</duration>
        <instrument id="P1-I2"/>
        <voice>1</voice>
        <type>eighth</type>
        <stem default-y="8">up</stem>
        <beam number="1">begin</beam>
        <lyric default-y="-72" number="1">
          <syllabic>begin</syllabic>
          <text font-size="8.1">e</text>
        </lyric>
      </note>
      <note default-x="197">
        <pitch>
          <step>A</step>
          <octave>4</octave>
        </pitch>
        <duration>12</duration>
        <instrument id="P1-I2"/>
        <voice>1</voice>
        <type>eighth</type>
        <stem default-y="5">up</stem>
        <beam number="1">continue</beam>
        <lyric default-y="-72" number="1">
          <syllabic>end</syllabic>
          <text font-size="8.1">vil</text>
        </lyric>
      </note>
      <note default-x="235">
        <pitch>
          <step>G</step>
          <octave>4</octave>
        </pitch>
        <duration>12</duration>
        <instrument id="P1-I2"/>
        <voice>1</voice>
        <type>eighth</type>
        <stem default-y="1">up</stem>
        <beam number="1">continue</beam>
        <lyric default-y="-72" number="1">
          <syllabic>single</syllabic>
          <text font-size="8.1">to</text>
        </lyric>
      </note>
      <note default-x="274">
        <pitch>
          <step>F</step>
          <octave>4</octave>
        </pitch>
        <duration>12</duration>
        <instrument id="P1-I2"/>
        <voice>1</voice>
        <type>eighth</type>
        <stem default-y="-2">up</stem>
        <beam number="1">end</beam>
        <lyric default-y="-72" number="1">
          <syllabic>single</syllabic>
          <text font-size="8.1">his</text>
        </lyric>
      </note>
      <harmony default-y="-120" font-size="6.75" relative-x="69">
        <root>
          <root-step>C</root-step>
        </root>
        <kind halign="center" text="sus">suspended-fourth</kind>
        <offset>-12</offset>
      </harmony>
    </measure>
    <!--=======================================================-->
    <measure number="9" width="244">
      <print new-system="yes">
        <system-layout>
          <system-distance>96</system-distance>
        </system-layout>
      </print>
      <note default-x="769">
        <pitch>
          <step>A</step>
          <octave>4</octave>
        </pitch>
        <duration>24</duration>
        <instrument id="P1-I2"/>
        <voice>1</voice>
        <type>quarter</type>
        <stem default-y="138">up</stem>
        <lyric default-y="-72" number="1">
          <syllabic>begin</syllabic>
          <text font-size="8.1">neigh</text>
        </lyric>
      </note>
      <note default-x="822">
        <pitch>
          <step>A</step>
          <octave>4</octave>
        </pitch>
        <duration>36</duration>
        <instrument id="P1-I2"/>
        <voice>1</voice>
        <type>quarter</type>
        <dot/>
        <stem default-y="138">up</stem>
        <lyric default-y="-72" number="1">
          <syllabic>end</syllabic>
          <text font-size="8.1">bor,</text>
        </lyric>
      </note>
      <note default-x="54">
        <pitch>
          <step>A</step>
          <octave>4</octave>
        </pitch>
        <duration>12</duration>
        <instrument id="P1-I2"/>
        <voice>1</voice>
        <type>eighth</type>
        <stem default-y="11">up</stem>
        <lyric default-y="-72" number="1">
          <syllabic>single</syllabic>
          <text font-size="8.1">Nor</text>
        </lyric>
      </note>
      <note default-x="117">
        <pitch>
          <step>A</step>
          <octave>4</octave>
        </pitch>
        <duration>12</duration>
        <instrument id="P1-I2"/>
        <voice>1</voice>
        <type>eighth</type>
        <stem default-y="6">up</stem>
        <beam number="1">begin</beam>
        <lyric default-y="-72" number="1">
          <syllabic>single</syllabic>
          <text font-size="8.1">does</text>
        </lyric>
      </note>
      <note default-x="179">
        <pitch>
          <step>A</step>
          <octave>4</octave>
        </pitch>
        <duration>12</duration>
        <instrument id="P1-I2"/>
        <voice>1</voice>
        <type>eighth</type>
        <stem default-y="6">up</stem>
        <beam number="1">end</beam>
        <lyric default-y="-72" number="1">
          <syllabic>single</syllabic>
          <text font-size="8.1">he</text>
        </lyric>
      </note>
    </measure>
    <!--=======================================================-->
    <measure number="10" width="193">
      <harmony default-y="10" font-size="6.75">
        <root>
          <root-step>D</root-step>
        </root>
        <kind halign="center" text="m">minor</kind>
      </harmony>
      <note default-x="17">
        <pitch>
          <step>A</step>
          <octave>4</octave>
        </pitch>
        <duration>24</duration>
        <instrument id="P1-I2"/>
        <voice>1</voice>
        <type>quarter</type>
        <stem default-y="6">up</stem>
        <lyric default-y="-72" number="1">
          <syllabic>single</syllabic>
          <text font-size="8.1">take</text>
        </lyric>
      </note>
      <note default-x="61">
        <pitch>
          <step>A</step>
          <octave>4</octave>
        </pitch>
        <duration>24</duration>
        <instrument id="P1-I2"/>
        <voice>1</voice>
        <type>quarter</type>
        <stem default-y="6">up</stem>
        <lyric default-y="-72" number="1" relative-x="3">
          <syllabic>single</syllabic>
          <text font-size="8.1">up</text>
        </lyric>
      </note>
      <harmony default-y="11" font-size="6.75">
        <root>
          <root-step>F</root-step>
        </root>
        <kind halign="center" text="">major</kind>
        <bass>
          <bass-step>C</bass-step>
        </bass>
      </harmony>
      <note default-x="104">
        <pitch>
          <step>A</step>
          <octave>4</octave>
        </pitch>
        <duration>24</duration>
        <instrument id="P1-I2"/>
        <voice>1</voice>
        <type>quarter</type>
        <stem default-y="6">up</stem>
        <lyric default-y="-72" number="1">
          <syllabic>single</syllabic>
          <text font-size="8.1">a</text>
        </lyric>
      </note>
      <note default-x="147">
        <pitch>
          <step>A</step>
          <octave>4</octave>
        </pitch>
        <duration>24</duration>
        <instrument id="P1-I2"/>
        <voice>1</voice>
        <type>quarter</type>
        <stem default-y="6">up</stem>
        <lyric default-y="-72" number="1" relative-x="-2">
          <syllabic>begin</syllabic>
          <text font-size="8.1">re</text>
        </lyric>
      </note>
    </measure>
    <!--=======================================================-->
    <measure number="11" width="411">
      <harmony default-y="10" font-size="6.75">
        <root>
          <root-step>B</root-step>
          <root-alter>-1</root-alter>
        </root>
        <kind halign="center" text="M7">major-seventh</kind>
      </harmony>
      <note default-x="30">
        <pitch>
          <step>A</step>
          <octave>4</octave>
        </pitch>
        <duration>24</duration>
        <instrument id="P1-I2"/>
        <voice>1</voice>
        <type>quarter</type>
        <stem default-y="6">up</stem>
        <lyric default-y="-72" number="1">
          <syllabic>end</syllabic>
          <text font-size="8.1">proach</text>
        </lyric>
      </note>
      <note default-x="87">
        <pitch>
          <step>G</step>
          <octave>4</octave>
        </pitch>
        <duration>24</duration>
        <instrument id="P1-I2"/>
        <voice>1</voice>
        <type>quarter</type>
        <stem default-y="2">up</stem>
        <lyric default-y="-72" number="1">
          <syllabic>begin</syllabic>
          <text font-size="8.1">a</text>
        </lyric>
      </note>
      <note default-x="143">
        <pitch>
          <step>F</step>
          <octave>4</octave>
        </pitch>
        <duration>16</duration>
        <instrument id="P1-I2"/>
        <voice>1</voice>
        <type>quarter</type>
        <time-modification>
          <actual-notes>3</actual-notes>
          <normal-notes>2</normal-notes>
        </time-modification>
        <stem default-y="-3">up</stem>
        <notations>
          <tuplet bracket="yes" number="1" placement="above" type="start"/>
        </notations>
        <lyric default-y="-72" number="1" relative-x="3">
          <syllabic>end</syllabic>
          <text font-size="8.1">gainst</text>
        </lyric>
      </note>
      <note default-x="201">
        <pitch>
          <step>G</step>
          <octave>4</octave>
        </pitch>
        <duration>16</duration>
        <instrument id="P1-I2"/>
        <voice>1</voice>
        <type>quarter</type>
        <time-modification>
          <actual-notes>3</actual-notes>
          <normal-notes>2</normal-notes>
        </time-modification>
        <stem default-y="2">up</stem>
        <notations>
          <slur bezier-x="10" bezier-y="-4" default-x="5" default-y="-36" number="1" placement="below" type="start"/>
        </notations>
        <lyric default-y="-72" number="1" relative-x="7">
          <syllabic>single</syllabic>
          <text font-size="8.1">his</text>
        </lyric>
      </note>
      <note default-x="258">
        <pitch>
          <step>A</step>
          <octave>4</octave>
        </pitch>
        <duration>16</duration>
        <instrument id="P1-I2"/>
        <voice>1</voice>
        <type>quarter</type>
        <time-modification>
          <actual-notes>3</actual-notes>
          <normal-notes>2</normal-notes>
        </time-modification>
        <stem default-y="6">up</stem>
        <notations>
          <tuplet number="1" type="stop"/>
          <slur bezier-x="-9" bezier-y="-6" default-x="5" default-y="-32" number="1" type="stop"/>
        </notations>
      </note>
    </measure>
    <!--=======================================================-->
    <measure number="12" width="145">
      <print new-system="yes">
        <system-layout>
          <system-distance>96</system-distance>
        </system-layout>
      </print>
      <note default-x="782">
        <pitch>
          <step>G</step>
          <octave>4</octave>
        </pitch>
        <duration>72</duration>
        <instrument id="P1-I2"/>
        <voice>1</voice>
        <type>half</type>
        <dot/>
        <stem default-y="133.5">up</stem>
        <lyric default-y="-72" number="1" relative-x="-2">
          <syllabic>single</syllabic>
          <text font-size="8.1">friend;</text>
        </lyric>
      </note>
      <note default-x="54">
        <pitch>
          <step>F</step>
          <octave>4</octave>
        </pitch>
        <duration>12</duration>
        <instrument id="P1-I2"/>
        <voice>1</voice>
        <type>eighth</type>
        <stem default-y="-3">up</stem>
        <beam number="1">begin</beam>
        <lyric default-y="-72" number="1">
          <syllabic>single</syllabic>
          <text font-size="4">4</text>
          <elision> </elision>
          <syllabic>single</syllabic>
          <text font-size="4">In</text>
        </lyric>
      </note>
      <note default-x="99">
        <pitch>
          <step>E</step>
          <octave>4</octave>
        </pitch>
        <duration>12</duration>
        <instrument id="P1-I2"/>
        <voice>1</voice>
        <type>eighth</type>
        <stem default-y="-7.5">up</stem>
        <beam number="1">end</beam>
        <lyric default-y="-72" number="1" relative-x="3">
          <syllabic>single</syllabic>
          <text font-size="8.1">whose</text>
        </lyric>
      </note>
    </measure>
    <!--=======================================================-->
    <measure number="13" width="248">
      <harmony default-y="10" font-size="6.75">
        <root>
          <root-step>D</root-step>
        </root>
        <kind halign="center" text="5">power</kind>
      </harmony>
      <note default-x="5">
        <pitch>
          <step>D</step>
          <octave>4</octave>
        </pitch>
        <duration>24</duration>
        <instrument id="P1-I2"/>
        <voice>1</voice>
        <type>quarter</type>
        <stem default-y="-12">up</stem>
        <lyric default-y="-72" number="1" relative-x="12">
          <syllabic>single</syllabic>
          <text font-size="8.1">eyes</text>
        </lyric>
      </note>
      <note default-x="49">
        <pitch>
          <step>D</step>
          <octave>4</octave>
        </pitch>
        <duration>12</duration>
        <instrument id="P1-I2"/>
        <voice>1</voice>
        <type>eighth</type>
        <stem default-y="-12">up</stem>
        <beam number="1">begin</beam>
        <lyric default-y="-72" number="1" relative-x="7">
          <syllabic>single</syllabic>
          <text font-size="8.1">a</text>
        </lyric>
      </note>
      <note default-x="82">
        <pitch>
          <step>D</step>
          <octave>4</octave>
        </pitch>
        <duration>12</duration>
        <instrument id="P1-I2"/>
        <voice>1</voice>
        <type>eighth</type>
        <stem default-y="-12">up</stem>
        <beam number="1">end</beam>
        <lyric default-y="-72" number="1" relative-x="3">
          <syllabic>single</syllabic>
          <text font-size="8.1">vile</text>
        </lyric>
      </note>
      <harmony default-y="10" font-size="6.75">
        <root>
          <root-step>G</root-step>
        </root>
        <kind halign="center" text="m">minor</kind>
      </harmony>
      <note default-x="114">
        <pitch>
          <step>D</step>
          <octave>4</octave>
        </pitch>
        <duration>12</duration>
        <instrument id="P1-I2"/>
        <voice>1</voice>
        <type>eighth</type>
        <stem default-y="-12">up</stem>
        <beam number="1">begin</beam>
        <lyric default-y="-72" number="1" relative-x="8">
          <syllabic>begin</syllabic>
          <text font-size="8.1">per</text>
        </lyric>
      </note>
      <note default-x="159">
        <pitch>
          <step>D</step>
          <octave>4</octave>
        </pitch>
        <duration>12</duration>
        <instrument id="P1-I2"/>
        <voice>1</voice>
        <type>eighth</type>
        <stem default-y="-14">up</stem>
        <beam number="1">continue</beam>
        <lyric default-y="-72" number="1" relative-x="3">
          <syllabic>end</syllabic>
          <text font-size="8.1">son</text>
        </lyric>
      </note>
      <note default-x="193">
        <pitch>
          <step>D</step>
          <octave>4</octave>
        </pitch>
        <duration>12</duration>
        <instrument id="P1-I2"/>
        <voice>1</voice>
        <type>eighth</type>
        <stem default-y="-15.5">up</stem>
        <beam number="1">continue</beam>
        <lyric default-y="-72" number="1">
          <syllabic>single</syllabic>
          <text font-size="8.1">is</text>
        </lyric>
      </note>
      <note default-x="219">
        <pitch>
          <step>C</step>
          <octave>4</octave>
        </pitch>
        <duration>12</duration>
        <instrument id="P1-I2"/>
        <voice>1</voice>
        <type>eighth</type>
        <stem default-y="-16.5">up</stem>
        <beam number="1">end</beam>
        <lyric default-y="-72" number="1">
          <syllabic>begin</syllabic>
          <text font-size="8.1">de</text>
        </lyric>
      </note>
    </measure>
    <!--=======================================================-->
    <measure number="14" width="141">
      <harmony default-y="10" font-size="6.75">
        <root>
          <root-step>D</root-step>
        </root>
        <kind halign="center" text="5">power</kind>
      </harmony>
      <note default-x="27">
        <pitch>
          <step>D</step>
          <octave>4</octave>
        </pitch>
        <duration>72</duration>
        <instrument id="P1-I2"/>
        <voice>1</voice>
        <type>half</type>
        <dot/>
        <stem default-y="-12">up</stem>
        <lyric default-y="-72" number="1">
          <syllabic>end</syllabic>
          <text font-size="8.1">spised,</text>
        </lyric>
      </note>
      <note default-x="79">
        <pitch>
          <step>D</step>
          <octave>4</octave>
        </pitch>
        <duration>12</duration>
        <instrument id="P1-I2"/>
        <voice>1</voice>
        <type>eighth</type>
        <stem default-y="-12">up</stem>
        <beam number="1">begin</beam>
        <lyric default-y="-72" number="1">
          <syllabic>single</syllabic>
          <text font-size="8.1">But</text>
        </lyric>
      </note>
      <note default-x="113">
        <pitch>
          <step>D</step>
          <octave>4</octave>
        </pitch>
        <duration>12</duration>
        <instrument id="P1-I2"/>
        <voice>1</voice>
        <type>eighth</type>
        <stem default-y="-12">up</stem>
        <beam number="1">end</beam>
        <lyric default-y="-72" number="1">
          <syllabic>single</syllabic>
          <text font-size="8.1">he</text>
        </lyric>
      </note>
    </measure>
    <!--=======================================================-->
    <measure number="15" width="313">
      <harmony default-y="10" font-size="6.75">
        <root>
          <root-step>B</root-step>
          <root-alter>-1</root-alter>
        </root>
        <kind halign="center" text="">major</kind>
      </harmony>
      <note default-x="11">
        <pitch>
          <step>D</step>
          <octave>4</octave>
        </pitch>
        <duration>24</duration>
        <instrument id="P1-I2"/>
        <voice>1</voice>
        <type>quarter</type>
        <stem default-y="-12">up</stem>
        <lyric default-y="-72" number="1">
          <syllabic>begin</syllabic>
          <text font-size="8.1">ho</text>
        </lyric>
      </note>
      <note default-x="54">
        <pitch>
          <step>E</step>
          <octave>4</octave>
        </pitch>
        <duration>24</duration>
        <instrument id="P1-I2"/>
        <voice>1</voice>
        <type>quarter</type>
        <stem default-y="-7.5">up</stem>
        <lyric default-y="-72" number="1" relative-x="-3">
          <syllabic>end</syllabic>
          <text font-size="8.1">nors</text>
        </lyric>
      </note>
      <note default-x="102">
        <pitch>
          <step>F</step>
          <octave>4</octave>
        </pitch>
        <duration>12</duration>
        <instrument id="P1-I2"/>
        <voice>1</voice>
        <type>eighth</type>
        <stem default-y="-3">up</stem>
        <beam number="1">begin</beam>
        <lyric default-y="-72" number="1">
          <syllabic>single</syllabic>
          <text font-size="8.1">those</text>
        </lyric>
      </note>
      <note default-x="147">
        <pitch>
          <step>E</step>
          <octave>4</octave>
        </pitch>
        <duration>12</duration>
        <instrument id="P1-I2"/>
        <voice>1</voice>
        <type>eighth</type>
        <stem default-y="-1.5">up</stem>
        <beam number="1">continue</beam>
        <lyric default-y="-72" number="1" relative-x="4">
          <syllabic>single</syllabic>
          <text font-size="8.1">who</text>
        </lyric>
      </note>
      <note default-x="187">
        <pitch>
          <step>F</step>
          <octave>4</octave>
        </pitch>
        <duration>12</duration>
        <instrument id="P1-I2"/>
        <voice>1</voice>
        <type>eighth</type>
        <stem default-y="-0.5">up</stem>
        <beam number="1">continue</beam>
        <lyric default-y="-72" number="1" relative-x="7">
          <syllabic>single</syllabic>
          <text font-size="8.1">fear</text>
        </lyric>
      </note>
      <note default-x="230">
        <pitch>
          <step>G</step>
          <octave>4</octave>
        </pitch>
        <duration>12</duration>
        <instrument id="P1-I2"/>
        <voice>1</voice>
        <type>eighth</type>
        <stem default-y="1">up</stem>
        <beam number="1">end</beam>
        <lyric default-y="-72" number="1" relative-x="3">
          <syllabic>single</syllabic>
          <text font-size="8.1">the</text>
        </lyric>
      </note>
    </measure>
    <!--=======================================================-->
    <measure number="16" width="174">
      <print new-system="yes">
        <system-layout>
          <system-distance>96</system-distance>
        </system-layout>
      </print>
      <harmony default-y="10" font-size="6.75">
        <root>
          <root-step>F</root-step>
        </root>
        <kind halign="center" text="">major</kind>
      </harmony>
      <note default-x="817">
        <pitch>
          <step>A</step>
          <octave>4</octave>
        </pitch>
        <duration>72</duration>
        <instrument id="P1-I2"/>
        <voice>1</voice>
        <type>half</type>
        <dot/>
        <stem default-y="138">up</stem>
        <lyric default-y="-72" number="1" relative-x="3">
          <syllabic>single</syllabic>
          <text font-size="8.1">LORD;</text>
        </lyric>
      </note>
      <note default-x="50">
        <pitch>
          <step>F</step>
          <octave>4</octave>
        </pitch>
        <duration>12</duration>
        <instrument id="P1-I2"/>
        <voice>1</voice>
        <type>eighth</type>
        <stem default-y="-3">up</stem>
        <beam number="1">begin</beam>
        <lyric default-y="-72" number="1">
          <syllabic>single</syllabic>
          <text font-size="8.1">He</text>
        </lyric>
      </note>
      <note default-x="111">
        <pitch>
          <step>F</step>
          <octave>4</octave>
        </pitch>
        <duration>12</duration>
        <instrument id="P1-I2"/>
        <voice>1</voice>
        <type>eighth</type>
        <stem default-y="-3">up</stem>
        <beam number="1">end</beam>
        <lyric default-y="-72" number="1">
          <syllabic>single</syllabic>
          <text font-size="8.1">who</text>
        </lyric>
      </note>
    </measure>
    <!--=======================================================-->
    <measure number="17" width="331">
      <harmony default-y="10" font-size="6.75">
        <root>
          <root-step>D</root-step>
          <root-alter>-1</root-alter>
        </root>
        <kind halign="center" text="">major</kind>
      </harmony>
      <note default-x="31">
        <pitch>
          <step>F</step>
          <octave>4</octave>
        </pitch>
        <duration>24</duration>
        <instrument id="P1-I2"/>
        <voice>1</voice>
        <type>quarter</type>
        <stem default-y="-3">up</stem>
        <lyric default-y="-72" number="1" relative-x="-3">
          <syllabic>single</syllabic>
          <text font-size="8.1">swears</text>
        </lyric>
      </note>
      <note default-x="90">
        <pitch>
          <step>F</step>
          <octave>4</octave>
        </pitch>
        <duration>12</duration>
        <instrument id="P1-I2"/>
        <voice>1</voice>
        <type>eighth</type>
        <stem default-y="-3">up</stem>
        <beam number="1">begin</beam>
        <lyric default-y="-72" number="1">
          <syllabic>single</syllabic>
          <text font-size="8.1">to</text>
        </lyric>
      </note>
      <note default-x="150">
        <pitch>
          <step>F</step>
          <octave>4</octave>
        </pitch>
        <duration>12</duration>
        <instrument id="P1-I2"/>
        <voice>1</voice>
        <type>eighth</type>
        <stem default-y="-3">up</stem>
        <beam number="1">end</beam>
        <lyric default-y="-72" number="1">
          <syllabic>single</syllabic>
          <text font-size="8.1">his</text>
        </lyric>
      </note>
      <harmony default-y="11" font-size="6.75">
        <root>
          <root-step>F</root-step>
        </root>
        <kind halign="center" text="m">minor</kind>
        <bass>
          <bass-step>D</bass-step>
          <bass-alter>-1</bass-alter>
        </bass>
      </harmony>
      <note default-x="210">
        <pitch>
          <step>F</step>
          <octave>4</octave>
        </pitch>
        <duration>24</duration>
        <instrument id="P1-I2"/>
        <voice>1</voice>
        <type>quarter</type>
        <stem default-y="-3">up</stem>
        <lyric default-y="-72" number="1">
          <syllabic>single</syllabic>
          <text font-size="8.1">own</text>
        </lyric>
      </note>
      <note default-x="270">
        <pitch>
          <step>F</step>
          <octave>4</octave>
        </pitch>
        <duration>24</duration>
        <tie type="start"/>
        <instrument id="P1-I2"/>
        <voice>1</voice>
        <type>quarter</type>
        <stem default-y="-3">up</stem>
        <notations>
          <tied type="start"/>
        </notations>
        <lyric default-y="-72" number="1">
          <syllabic>single</syllabic>
          <text font-size="8.1">hurt</text>
        </lyric>
      </note>
    </measure>
    <!--=======================================================-->
    <measure number="18" width="228">
      <direction>
        <direction-type>
          <?DoletFinale Unrecognized chord suffix " 7" exported as text in part P1, measure 18?>
          <words default-y="11" font-family="Palatino Linotype" justify="center">G 7/Db</words>
        </direction-type>
      </direction>
      <direction>
        <direction-type>
          <symbol font-size="15">csymHalfDiminished</symbol>
        </direction-type>
      </direction>
      <note default-x="14">
        <pitch>
          <step>F</step>
          <octave>4</octave>
        </pitch>
        <duration>24</duration>
        <tie type="stop"/>
        <instrument id="P1-I2"/>
        <voice>1</voice>
        <type>quarter</type>
        <stem default-y="-3">up</stem>
        <notations>
          <tied type="stop"/>
        </notations>
      </note>
      <note default-x="70">
        <pitch>
          <step>F</step>
          <octave>4</octave>
        </pitch>
        <duration>24</duration>
        <instrument id="P1-I2"/>
        <voice>1</voice>
        <type>quarter</type>
        <stem default-y="-3">up</stem>
        <lyric default-y="-72" number="1" relative-x="-12">
          <syllabic>single</syllabic>
          <text font-size="8.1">and</text>
        </lyric>
      </note>
      <note default-x="125">
        <pitch>
          <step>F</step>
          <octave>4</octave>
        </pitch>
        <duration>24</duration>
        <instrument id="P1-I2"/>
        <voice>1</voice>
        <type>quarter</type>
        <stem default-y="-3">up</stem>
        <lyric default-y="-72" number="1" relative-x="-4">
          <syllabic>single</syllabic>
          <text font-size="8.1">does</text>
        </lyric>
      </note>
      <note default-x="181">
        <pitch>
          <step>E</step>
          <alter>-1</alter>
          <octave>4</octave>
        </pitch>
        <duration>24</duration>
        <instrument id="P1-I2"/>
        <voice>1</voice>
        <type>quarter</type>
        <accidental>flat</accidental>
        <stem default-y="-7">up</stem>
        <lyric default-y="-72" number="1">
          <syllabic>single</syllabic>
          <text font-size="8.1">not</text>
        </lyric>
      </note>
    </measure>
    <!--=======================================================-->
    <measure number="19" width="115">
      <harmony default-y="10" font-size="6.75">
        <root>
          <root-step>F</root-step>
        </root>
        <kind halign="center" text="">major</kind>
      </harmony>
      <note default-x="32">
        <pitch>
          <step>F</step>
          <octave>4</octave>
        </pitch>
        <duration>96</duration>
        <instrument id="P1-I2"/>
        <voice>1</voice>
        <type>whole</type>
        <lyric default-y="-72" number="1">
          <syllabic>single</syllabic>
          <text font-size="8.1">change;</text>
        </lyric>
      </note>
    </measure>
    <!--=======================================================-->
    <measure number="20" width="443">
      <print new-system="yes">
        <system-layout>
          <system-distance>96</system-distance>
        </system-layout>
      </print>
      <note default-x="56">
        <pitch>
          <step>A</step>
          <octave>4</octave>
        </pitch>
        <duration>24</duration>
        <instrument id="P1-I2"/>
        <voice>1</voice>
        <type>quarter</type>
        <stem default-y="-22">down</stem>
        <?DoletFinale Unknown notehead 87 from font Petrucci2 at entry 96, note ID 1?>
        <lyric default-y="-72" number="1" relative-x="95">
          <syllabic>single</syllabic>
          <text font-size="4">5</text>
          <elision> </elision>
          <syllabic>single</syllabic>
          <text font-size="4">He</text>
          <elision> </elision>
          <syllabic>single</syllabic>
          <text font-size="4">who</text>
          <elision> </elision>
          <syllabic>single</syllabic>
          <text font-size="4">does</text>
          <elision> </elision>
          <syllabic>single</syllabic>
          <text font-size="4">not</text>
          <elision> </elision>
          <syllabic>single</syllabic>
          <text font-size="4">put</text>
          <elision> </elision>
          <syllabic>single</syllabic>
          <text font-size="4">out</text>
          <elision> </elision>
          <syllabic>single</syllabic>
          <text font-size="4">his</text>
        </lyric>
      </note>
      <note default-x="62">
        <pitch>
          <step>A</step>
          <octave>4</octave>
        </pitch>
        <duration>24</duration>
        <instrument id="P1-I2"/>
        <voice>1</voice>
        <type size="cue">quarter</type>
        <stem>up</stem>
        <?DoletFinale Unknown notehead 8221 from font Petrucci2 at entry 125, note ID 1?>
      </note>
      <note default-x="77">
        <pitch>
          <step>A</step>
          <octave>4</octave>
        </pitch>
        <duration>24</duration>
        <instrument id="P1-I2"/>
        <voice>1</voice>
        <type size="cue">quarter</type>
        <stem default-y="-23">down</stem>
        <?DoletFinale Unknown notehead 8221 from font Petrucci2 at entry 126, note ID 1?>
      </note>
      <harmony default-y="10" font-size="6.75">
        <root>
          <root-step>G</root-step>
        </root>
        <kind halign="center" text="m">minor</kind>
      </harmony>
      <note default-x="277">
        <pitch>
          <step>B</step>
          <alter>-1</alter>
          <octave>4</octave>
        </pitch>
        <duration>24</duration>
        <instrument id="P1-I2"/>
        <voice>1</voice>
        <type>quarter</type>
        <stem default-y="-17">down</stem>
        <lyric default-y="-72" number="1" relative-x="4">
          <syllabic>begin</syllabic>
          <text font-size="8.1">mon</text>
        </lyric>
      </note>
      <note default-x="314">
        <pitch>
          <step>A</step>
          <octave>4</octave>
        </pitch>
        <duration>24</duration>
        <instrument id="P1-I2"/>
        <voice>1</voice>
        <type>quarter</type>
        <stem default-y="-21.5">down</stem>
        <lyric default-y="-72" number="1" relative-x="5">
          <syllabic>end</syllabic>
          <text font-size="8.1">ey</text>
        </lyric>
      </note>
      <note default-x="344">
        <pitch>
          <step>A</step>
          <octave>4</octave>
        </pitch>
        <duration>24</duration>
        <instrument id="P1-I2"/>
        <voice>1</voice>
        <type>quarter</type>
        <stem default-y="-21.5">down</stem>
        <lyric default-y="-72" number="1" relative-x="-2">
          <syllabic>single</syllabic>
          <text font-size="8.1">at</text>
        </lyric>
      </note>
      <harmony default-y="10" font-size="6.75">
        <root>
          <root-step>C</root-step>
        </root>
        <kind halign="center" text="">major</kind>
      </harmony>
      <note default-x="367">
        <pitch>
          <step>G</step>
          <octave>4</octave>
        </pitch>
        <duration>24</duration>
        <instrument id="P1-I2"/>
        <voice>1</voice>
        <type>quarter</type>
        <stem default-y="-26">down</stem>
        <lyric default-y="-72" number="1">
          <syllabic>begin</syllabic>
          <text font-size="8.1">u</text>
        </lyric>
      </note>
      <note default-x="390">
        <pitch>
          <step>A</step>
          <octave>4</octave>
        </pitch>
        <duration>24</duration>
        <instrument id="P1-I2"/>
        <voice>1</voice>
        <type>quarter</type>
        <stem default-y="-21.5">down</stem>
        <lyric default-y="-72" number="1">
          <syllabic>middle</syllabic>
          <text font-size="8.1">su</text>
        </lyric>
      </note>
      <harmony default-y="10" font-size="6.75">
        <root>
          <root-step>A</root-step>
        </root>
        <kind halign="center" text="5">power</kind>
      </harmony>
      <note default-x="420">
        <pitch>
          <step>A</step>
          <octave>4</octave>
        </pitch>
        <duration>48</duration>
        <instrument id="P1-I2"/>
        <voice>1</voice>
        <type>half</type>
        <stem default-y="-22">down</stem>
        <lyric default-y="-72" number="1">
          <syllabic>end</syllabic>
          <text font-size="8.1">ry,</text>
        </lyric>
      </note>
      <barline location="right">
        <bar-style>tick</bar-style>
      </barline>
    </measure>
    <!--=======================================================-->
    <measure number="21" width="405">
      <harmony default-y="10" font-size="6.75">
        <root>
          <root-step>D</root-step>
        </root>
        <kind halign="center" text="m">minor</kind>
      </harmony>
      <note default-x="18">
        <pitch>
          <step>A</step>
          <octave>4</octave>
        </pitch>
        <duration>24</duration>
        <instrument id="P1-I2"/>
        <voice>1</voice>
        <type>quarter</type>
        <stem default-y="-23">down</stem>
        <?DoletFinale Unknown notehead 87 from font Petrucci2 at entry 103, note ID 1?>
        <lyric default-y="-72" justify="left" number="1" relative-x="-17">
          <syllabic>single</syllabic>
          <text font-size="8.1">Nor</text>
          <elision> </elision>
          <syllabic>single</syllabic>
          <text font-size="8.1">does</text>
          <elision> </elision>
          <syllabic>single</syllabic>
          <text font-size="8.1">he</text>
          <elision> </elision>
          <syllabic>single</syllabic>
          <text font-size="8.1">take</text>
          <elision> </elision>
          <syllabic>single</syllabic>
          <text font-size="8.1">a</text>
          <elision> </elision>
          <syllabic>single</syllabic>
          <text font-size="8.1">bribe</text>
          <elision> </elision>
          <syllabic>begin</syllabic>
          <text font-size="8.1">a</text>
        </lyric>
      </note>
      <note default-x="36">
        <pitch>
          <step>A</step>
          <octave>4</octave>
        </pitch>
        <duration>24</duration>
        <instrument id="P1-I2"/>
        <voice>1</voice>
        <type size="cue">quarter</type>
        <stem default-y="-23">down</stem>
        <?DoletFinale Unknown notehead 8221 from font Petrucci2 at entry 127, note ID 1?>
      </note>
      <note default-x="34">
        <pitch>
          <step>A</step>
          <octave>4</octave>
        </pitch>
        <duration>24</duration>
        <instrument id="P1-I2"/>
        <voice>1</voice>
        <type size="cue">quarter</type>
        <stem default-y="-23">down</stem>
        <?DoletFinale Unknown notehead 8221 from font Petrucci2 at entry 128, note ID 1?>
      </note>
      <note default-x="229">
        <pitch>
          <step>G</step>
          <octave>4</octave>
        </pitch>
        <duration>24</duration>
        <instrument id="P1-I2"/>
        <voice>1</voice>
        <type>quarter</type>
        <stem default-y="-26">down</stem>
        <lyric default-y="-72" number="1" relative-x="9">
          <syllabic>end</syllabic>
          <text font-size="8.1">gainst</text>
        </lyric>
      </note>
      <note default-x="265">
        <pitch>
          <step>F</step>
          <octave>4</octave>
        </pitch>
        <duration>24</duration>
        <instrument id="P1-I2"/>
        <voice>1</voice>
        <type>quarter</type>
        <stem default-y="-30.5">down</stem>
        <lyric default-y="-72" number="1" relative-x="15">
          <syllabic>single</syllabic>
          <text font-size="8.1">the</text>
        </lyric>
      </note>
      <harmony default-y="10" font-size="6.75">
        <root>
          <root-step>C</root-step>
        </root>
        <kind halign="center" text="">major</kind>
      </harmony>
      <note default-x="297">
        <pitch>
          <step>G</step>
          <octave>4</octave>
        </pitch>
        <duration>24</duration>
        <instrument id="P1-I2"/>
        <voice>1</voice>
        <type>quarter</type>
        <stem default-y="-26">down</stem>
        <notations>
          <slur default-y="-15" number="1" placement="above" type="start"/>
        </notations>
        <lyric default-y="-72" number="1" relative-x="12">
          <syllabic>begin</syllabic>
          <text font-size="8.1">in</text>
        </lyric>
      </note>
      <note default-x="324">
        <pitch>
          <step>A</step>
          <octave>4</octave>
        </pitch>
        <duration>24</duration>
        <instrument id="P1-I2"/>
        <voice>1</voice>
        <type>quarter</type>
        <stem default-y="-21.5">down</stem>
        <notations>
          <slur default-y="-13" number="1" type="stop"/>
        </notations>
      </note>
      <note default-x="346">
        <pitch>
          <step>G</step>
          <octave>4</octave>
        </pitch>
        <duration>24</duration>
        <instrument id="P1-I2"/>
        <voice>1</voice>
        <type>quarter</type>
        <stem default-y="-26">down</stem>
        <lyric default-y="-72" number="1" relative-x="-8">
          <syllabic>middle</syllabic>
          <text font-size="8.1">no</text>
        </lyric>
      </note>
      <note default-x="375">
        <pitch>
          <step>G</step>
          <octave>4</octave>
        </pitch>
        <duration>48</duration>
        <instrument id="P1-I2"/>
        <voice>1</voice>
        <type>half</type>
        <stem default-y="-26.5">down</stem>
        <lyric default-y="-72" number="1">
          <syllabic>end</syllabic>
          <text font-size="8.1">cent.</text>
        </lyric>
      </note>
    </measure>
    <!--=======================================================-->
    <measure number="22" width="188">
      <print new-system="yes">
        <system-layout>
          <system-distance>96</system-distance>
        </system-layout>
      </print>
      <attributes>
        <time symbol="cut">
          <beats>2</beats>
          <beat-type>2</beat-type>
        </time>
      </attributes>
      <note default-x="61">
        <pitch>
          <step>F</step>
          <octave>4</octave>
        </pitch>
        <duration>12</duration>
        <instrument id="P1-I2"/>
        <voice>1</voice>
        <type>eighth</type>
        <stem default-y="-3">up</stem>
        <beam number="1">begin</beam>
        <lyric default-y="-72" number="1">
          <syllabic>single</syllabic>
          <text font-size="8.1">He</text>
        </lyric>
      </note>
      <note default-x="124">
        <pitch>
          <step>E</step>
          <octave>4</octave>
        </pitch>
        <duration>12</duration>
        <instrument id="P1-I2"/>
        <voice>1</voice>
        <type>eighth</type>
        <stem default-y="-8">up</stem>
        <beam number="1">end</beam>
        <lyric default-y="-72" number="1">
          <syllabic>single</syllabic>
          <text font-size="8.1">who</text>
        </lyric>
      </note>
    </measure>
    <!--=======================================================-->
    <measure number="23" width="313">
      <harmony default-y="10" font-size="6.75">
        <root>
          <root-step>B</root-step>
          <root-alter>-1</root-alter>
        </root>
        <kind halign="center" text="">major</kind>
      </harmony>
      <note default-x="4">
        <pitch>
          <step>D</step>
          <octave>4</octave>
        </pitch>
        <duration>24</duration>
        <instrument id="P1-I2"/>
        <voice>1</voice>
        <type>quarter</type>
        <stem default-y="-12">up</stem>
        <lyric default-y="-72" number="1">
          <syllabic>single</syllabic>
          <text font-size="8.1">does</text>
        </lyric>
      </note>
      <note default-x="81">
        <pitch>
          <step>D</step>
          <octave>4</octave>
        </pitch>
        <duration>24</duration>
        <instrument id="P1-I2"/>
        <voice>1</voice>
        <type>quarter</type>
        <stem default-y="-12">up</stem>
        <lyric default-y="-72" number="1">
          <syllabic>single</syllabic>
          <text font-size="8.1">these</text>
        </lyric>
      </note>
      <harmony default-y="11" font-size="6.75">
        <root>
          <root-step>D</root-step>
        </root>
        <kind halign="center" text="m">minor</kind>
        <bass>
          <bass-step>B</bass-step>
          <bass-alter>-1</bass-alter>
        </bass>
      </harmony>
      <note default-x="159">
        <pitch>
          <step>D</step>
          <octave>4</octave>
        </pitch>
        <duration>24</duration>
        <instrument id="P1-I2"/>
        <voice>1</voice>
        <type>quarter</type>
        <stem default-y="-12">up</stem>
        <lyric default-y="-72" number="1">
          <syllabic>single</syllabic>
          <text font-size="8.1">things</text>
        </lyric>
      </note>
      <note default-x="235">
        <pitch>
          <step>D</step>
          <octave>4</octave>
        </pitch>
        <duration>24</duration>
        <instrument id="P1-I2"/>
        <voice>1</voice>
        <type>quarter</type>
        <stem default-y="-12">up</stem>
        <lyric default-y="-72" number="1">
          <syllabic>single</syllabic>
          <text font-size="8.1">shall</text>
        </lyric>
      </note>
    </measure>
    <!--=======================================================-->
    <measure number="24" width="218">
      <direction>
        <direction-type>
          <?DoletFinale Unrecognized chord suffix " 7" exported as text in part P1, measure 24?>
          <words default-y="12" font-family="Palatino Linotype" justify="center">E 7/Bb</words>
        </direction-type>
      </direction>
      <direction>
        <direction-type>
          <symbol font-size="15">csymHalfDiminished</symbol>
        </direction-type>
      </direction>
      <note default-x="4">
        <pitch>
          <step>D</step>
          <octave>4</octave>
        </pitch>
        <duration>24</duration>
        <instrument id="P1-I2"/>
        <voice>1</voice>
        <type>quarter</type>
        <stem default-y="-12">up</stem>
        <lyric default-y="-72" number="1">
          <syllabic>begin</syllabic>
          <text font-size="8.1">nev</text>
        </lyric>
      </note>
      <note default-x="58">
        <pitch>
          <step>D</step>
          <octave>4</octave>
        </pitch>
        <duration>24</duration>
        <instrument id="P1-I2"/>
        <voice>1</voice>
        <type>quarter</type>
        <stem default-y="-12">up</stem>
        <lyric default-y="-72" number="1">
          <syllabic>end</syllabic>
          <text font-size="8.1">er</text>
        </lyric>
      </note>
      <note default-x="111">
        <pitch>
          <step>D</step>
          <octave>4</octave>
        </pitch>
        <duration>24</duration>
        <instrument id="P1-I2"/>
        <voice>1</voice>
        <type>quarter</type>
        <stem default-y="-12">up</stem>
        <notations>
          <slur bezier-x="8" bezier-y="-6" default-x="6" default-y="-48" number="1" placement="below" type="start"/>
        </notations>
        <lyric default-y="-72" number="1">
          <syllabic>single</syllabic>
          <text font-size="8.1">be</text>
        </lyric>
      </note>
      <note default-x="164">
        <pitch>
          <step>C</step>
          <octave>4</octave>
        </pitch>
        <duration>24</duration>
        <instrument id="P1-I2"/>
        <voice>1</voice>
        <type>quarter</type>
        <stem default-y="-17">up</stem>
        <notations>
          <slur bezier-x="-9" bezier-y="-5" default-x="5" default-y="-53" number="1" type="stop"/>
        </notations>
      </note>
    </measure>
    <!--=======================================================-->
    <measure number="25" width="128">
      <harmony default-y="10" font-size="6.75">
        <root>
          <root-step>D</root-step>
        </root>
        <kind halign="center" text="">major</kind>
      </harmony>
      <note default-x="30">
        <pitch>
          <step>D</step>
          <octave>4</octave>
        </pitch>
        <duration>96</duration>
        <instrument id="P1-I2"/>
        <voice>1</voice>
        <type>whole</type>
        <lyric default-y="-72" number="1">
          <syllabic>single</syllabic>
          <text font-size="8.1">moved.</text>
        </lyric>
      </note>
      <barline location="right">
        <bar-style>light-heavy</bar-style>
      </barline>
    </measure>
  </part>
  <!--=========================================================-->
</score-partwise>
