<?xml version="1.0" encoding="UTF-8" standalone="no"?>
<!DOCTYPE score-partwise PUBLIC "-//Recordare//DTD MusicXML 3.1 Partwise//EN" "http://www.musicxml.org/dtds/partwise.dtd">
<score-partwise version="3.1">
  <identification>
    <encoding>
      <software>Finale v25 for Windows</software>
      <encoding-date>2020-07-08</encoding-date>
      <supports attribute="new-system" element="print" type="yes" value="yes"/>
      <supports attribute="new-page" element="print" type="yes" value="yes"/>
      <supports element="accidental" type="yes"/>
      <supports element="beam" type="yes"/>
      <supports element="stem" type="yes"/>
    </encoding>
  </identification>
  <defaults>
    <scaling>
      <millimeters>6.35</millimeters>
      <tenths>40</tenths>
    </scaling>
    <page-layout>
      <page-height>1380</page-height>
      <page-width>852</page-width>
      <page-margins type="both">
        <left-margin>0</left-margin>
        <right-margin>0</right-margin>
        <top-margin>0</top-margin>
        <bottom-margin>0</bottom-margin>
      </page-margins>
    </page-layout>
    <system-layout>
      <system-margins>
        <left-margin>5</left-margin>
        <right-margin>0</right-margin>
      </system-margins>
      <system-distance>92</system-distance>
      <top-system-distance>92</top-system-distance>
    </system-layout>
    <appearance>
      <line-width type="stem">0.8333</line-width>
      <line-width type="beam">4.1667</line-width>
      <line-width type="staff">0.7096</line-width>
      <line-width type="light barline">0.8333</line-width>
      <line-width type="heavy barline">5</line-width>
      <line-width type="leger">0.7292</line-width>
      <line-width type="ending">0.7682</line-width>
      <line-width type="wedge">0.8333</line-width>
      <line-width type="enclosure">0.8333</line-width>
      <line-width type="tuplet bracket">0.7292</line-width>
      <note-size type="grace">55</note-size>
      <note-size type="cue">55</note-size>
      <distance type="hyphen">83</distance>
      <distance type="beam">8</distance>
    </appearance>
    <music-font font-family="Petrucci2" font-size="18"/>
    <word-font font-family="Palatino Linotype" font-size="9"/>
    <lyric-font font-family="Palatino Linotype" font-size="8.2"/>
  </defaults>
  <credit page="1">
    <credit-words font-size="7.5" valign="bottom">Music: David R. Erb, 2014 </credit-words>
    <credit-words font-size="6">©</credit-words>
    <credit-words font-size="7.5" xml:space="preserve">
Text: </credit-words>
    <credit-words font-size="7.5" font-style="italic">Holy Bible, New King James Version</credit-words>
    <credit-words font-size="7.5" font-style="normal">, 1982 </credit-words>
    <credit-words font-size="6">©</credit-words>
  </credit>
  <part-list>
    <part-group number="1" type="start">
      <group-symbol default-x="-2">line</group-symbol>
      <group-barline>yes</group-barline>
    </part-group>
    <score-part id="P1">
      <part-name print-object="no">MusicXML Part</part-name>
      <score-instrument id="P1-I2">
        <instrument-name>Instr. 1</instrument-name>
      </score-instrument>
      <midi-instrument id="P1-I2">
        <midi-channel>1</midi-channel>
        <midi-program>53</midi-program>
        <volume>80</volume>
        <pan>0</pan>
      </midi-instrument>
    </score-part>
    <part-group number="1" type="stop"/>
  </part-list>
  <!--=========================================================-->
  <part id="P1">
    <measure implicit="yes" number="0" width="129">
      <print>
        <measure-numbering>system</measure-numbering>
      </print>
      <attributes>
        <divisions>4</divisions>
        <key>
          <fifths>0</fifths>
          <mode>major</mode>
        </key>
        <time>
          <beats>3</beats>
          <beat-type>8</beat-type>
        </time>
        <clef>
          <sign>G</sign>
          <line>2</line>
        </clef>
        <staff-details>
          <staff-size>91</staff-size>
        </staff-details>
      </attributes>
      <sound tempo="100"/>
      <note default-x="62">
        <pitch>
          <step>A</step>
          <octave>4</octave>
        </pitch>
        <duration>2</duration>
        <instrument id="P1-I2"/>
        <voice>1</voice>
        <type>eighth</type>
        <stem default-y="9">up</stem>
        <lyric default-y="-73" number="1">
          <syllabic>single</syllabic>
          <text font-size="4.1">1</text>
          <elision> </elision>
          <syllabic>single</syllabic>
          <text font-size="4.1">The</text>
        </lyric>
      </note>
    </measure>
    <!--=======================================================-->
    <measure number="1" width="91">
      <harmony default-y="10" font-size="6.8">
        <root>
          <root-step>A</root-step>
        </root>
        <kind halign="center" text="m">minor</kind>
      </harmony>
      <note default-x="21">
        <pitch>
          <step>C</step>
          <octave>5</octave>
        </pitch>
        <duration>6</duration>
        <instrument id="P1-I2"/>
        <voice>1</voice>
        <type>quarter</type>
        <dot/>
        <stem default-y="-42">down</stem>
        <lyric default-y="-73" number="1">
          <syllabic>single</syllabic>
          <text>LORD</text>
        </lyric>
      </note>
    </measure>
    <!--=======================================================-->
    <measure number="2" width="204">
      <harmony default-y="10" font-size="6.8">
        <root>
          <root-step>G</root-step>
        </root>
        <kind halign="center" text="">major</kind>
      </harmony>
      <note default-x="27">
        <pitch>
          <step>B</step>
          <octave>4</octave>
        </pitch>
        <duration>3</duration>
        <instrument id="P1-I2"/>
        <voice>1</voice>
        <type>eighth</type>
        <dot/>
        <stem default-y="-46.5">down</stem>
        <beam number="1">begin</beam>
        <lyric default-y="-73" number="1">
          <syllabic>single</syllabic>
          <text>reigns,</text>
        </lyric>
      </note>
      <note default-x="85">
        <pitch>
          <step>C</step>
          <octave>5</octave>
        </pitch>
        <duration>1</duration>
        <instrument id="P1-I2"/>
        <voice>1</voice>
        <type>16th</type>
        <stem default-y="-46.5">down</stem>
        <beam number="1">continue</beam>
        <beam number="2">backward hook</beam>
        <lyric default-y="-73" number="1">
          <syllabic>single</syllabic>
          <text>He</text>
        </lyric>
      </note>
      <note default-x="143">
        <pitch>
          <step>B</step>
          <octave>4</octave>
        </pitch>
        <duration>2</duration>
        <instrument id="P1-I2"/>
        <voice>1</voice>
        <type>eighth</type>
        <stem default-y="-46.5">down</stem>
        <beam number="1">end</beam>
        <lyric default-y="-73" number="1">
          <syllabic>single</syllabic>
          <text>is</text>
        </lyric>
      </note>
    </measure>
    <!--=======================================================-->
    <measure number="3" width="228">
      <harmony default-y="10" font-size="6.8">
        <root>
          <root-step>F</root-step>
        </root>
        <kind halign="center" text="">major</kind>
      </harmony>
      <note default-x="31">
        <pitch>
          <step>A</step>
          <octave>4</octave>
        </pitch>
        <duration>2</duration>
        <instrument id="P1-I2"/>
        <voice>1</voice>
        <type>eighth</type>
        <stem default-y="-51">down</stem>
        <beam number="1">begin</beam>
        <notations>
          <slur bezier-x="10" bezier-y="7" default-x="6" default-y="-12" number="1" placement="above" type="start"/>
        </notations>
        <lyric default-y="-73" number="1">
          <syllabic>single</syllabic>
          <text>clothed</text>
        </lyric>
      </note>
      <note default-x="96">
        <pitch>
          <step>C</step>
          <octave>5</octave>
        </pitch>
        <duration>2</duration>
        <instrument id="P1-I2"/>
        <voice>1</voice>
        <type>eighth</type>
        <stem default-y="-45.5">down</stem>
        <beam number="1">continue</beam>
        <notations>
          <slur bezier-x="-12" bezier-y="4" default-x="6" default-y="-4" number="1" type="stop"/>
        </notations>
      </note>
      <note default-x="161">
        <pitch>
          <step>E</step>
          <octave>5</octave>
        </pitch>
        <duration>2</duration>
        <instrument id="P1-I2"/>
        <voice>1</voice>
        <type>eighth</type>
        <stem default-y="-40">down</stem>
        <beam number="1">end</beam>
        <lyric default-y="-73" number="1">
          <syllabic>single</syllabic>
          <text>with</text>
        </lyric>
      </note>
    </measure>
    <!--=======================================================-->
    <measure number="4" width="196">
      <harmony default-y="10" font-size="6.8">
        <root>
          <root-step>G</root-step>
        </root>
        <kind halign="center" text="">major</kind>
      </harmony>
      <note default-x="13">
        <pitch>
          <step>D</step>
          <octave>5</octave>
        </pitch>
        <duration>2</duration>
        <instrument id="P1-I2"/>
        <voice>1</voice>
        <type>eighth</type>
        <stem default-y="-37">down</stem>
        <beam number="1">begin</beam>
        <notations>
          <slur bezier-x="8" bezier-y="4" default-x="5" default-y="1" number="1" placement="above" type="start"/>
        </notations>
        <lyric default-y="-73" number="1">
          <syllabic>begin</syllabic>
          <text>ma</text>
        </lyric>
      </note>
      <note default-x="57">
        <pitch>
          <step>C</step>
          <octave>5</octave>
        </pitch>
        <duration>2</duration>
        <instrument id="P1-I2"/>
        <voice>1</voice>
        <type>eighth</type>
        <stem default-y="-42">down</stem>
        <beam number="1">continue</beam>
        <notations>
          <slur bezier-x="-7" bezier-y="6" default-x="6" default-y="-4" number="1" type="stop"/>
        </notations>
      </note>
      <note default-x="102">
        <pitch>
          <step>B</step>
          <octave>4</octave>
        </pitch>
        <duration>2</duration>
        <instrument id="P1-I2"/>
        <voice>1</voice>
        <type>eighth</type>
        <stem default-y="-46.5">down</stem>
        <beam number="1">end</beam>
        <lyric default-y="-73" number="1">
          <syllabic>middle</syllabic>
          <text>jes</text>
        </lyric>
      </note>
    </measure>
    <!--=======================================================-->
    <measure number="5" width="847">
      <print new-system="yes">
        <system-layout>
          <system-distance>95</system-distance>
        </system-layout>
      </print>
      <harmony default-y="10" font-size="6.8">
        <root>
          <root-step>A</root-step>
        </root>
        <kind halign="center" text="m">minor</kind>
      </harmony>
      <note default-x="808">
        <pitch>
          <step>C</step>
          <octave>5</octave>
        </pitch>
        <duration>4</duration>
        <instrument id="P1-I2"/>
        <voice>1</voice>
        <type>quarter</type>
        <stem default-y="-42">down</stem>
        <lyric default-y="-73" number="1">
          <syllabic>end</syllabic>
          <text>ty;</text>
        </lyric>
      </note>
      <note default-x="44">
        <pitch>
          <step>A</step>
          <octave>4</octave>
        </pitch>
        <duration>2</duration>
        <instrument id="P1-I2"/>
        <voice>1</voice>
        <type>eighth</type>
        <stem default-y="-120">up</stem>
        <lyric default-y="-73" number="1">
          <syllabic>single</syllabic>
          <text>The</text>
        </lyric>
      </note>
    </measure>
    <!--=======================================================-->
    <measure number="6">
      <harmony default-y="10" font-size="6.8">
        <root>
          <root-step>E</root-step>
        </root>
        <kind halign="center" text="m">minor</kind>
      </harmony>
      <note default-x="-734">
        <pitch>
          <step>G</step>
          <octave>4</octave>
        </pitch>
        <duration>3</duration>
        <instrument id="P1-I2"/>
        <voice>1</voice>
        <type>eighth</type>
        <dot/>
        <stem default-y="1">up</stem>
        <beam number="1">begin</beam>
        <notations>
          <slur bezier-x="7" bezier-y="-4" default-x="6" default-y="-36" number="1" placement="below" type="start"/>
        </notations>
        <lyric default-y="-73" number="1">
          <syllabic>single</syllabic>
          <text>LORD</text>
        </lyric>
      </note>
      <note default-x="-698">
        <pitch>
          <step>A</step>
          <octave>4</octave>
        </pitch>
        <duration>1</duration>
        <instrument id="P1-I2"/>
        <voice>1</voice>
        <type>16th</type>
        <stem default-y="6">up</stem>
        <beam number="1">continue</beam>
        <beam number="2">backward hook</beam>
        <notations>
          <slur bezier-x="-5" bezier-y="-6" default-x="6" default-y="-31" number="1" type="stop"/>
        </notations>
      </note>
      <note default-x="-663">
        <pitch>
          <step>B</step>
          <octave>4</octave>
        </pitch>
        <duration>2</duration>
        <instrument id="P1-I2"/>
        <voice>1</voice>
        <type>eighth</type>
        <stem default-y="10.5">up</stem>
        <beam number="1">end</beam>
        <lyric default-y="-73" number="1">
          <syllabic>single</syllabic>
          <text>is</text>
        </lyric>
      </note>
    </measure>
    <!--=======================================================-->
    <measure number="7">
      <harmony default-y="10" font-size="6.8">
        <root>
          <root-step>F</root-step>
        </root>
        <kind halign="center" text="">major</kind>
      </harmony>
      <note>
        <pitch>
          <step>A</step>
          <octave>4</octave>
        </pitch>
        <duration>2</duration>
        <instrument id="P1-I2"/>
        <voice>1</voice>
        <type>eighth</type>
        <stem default-y="-51">down</stem>
        <beam number="1">begin</beam>
        <lyric default-y="-73" number="1">
          <syllabic>single</syllabic>
          <text>clothed,</text>
        </lyric>
      </note>
      <note>
        <pitch>
          <step>C</step>
          <octave>5</octave>
        </pitch>
        <duration>2</duration>
        <instrument id="P1-I2"/>
        <voice>1</voice>
        <type>eighth</type>
        <stem default-y="-45">down</stem>
        <beam number="1">continue</beam>
        <lyric default-y="-73" number="1">
          <syllabic>single</syllabic>
          <text>He</text>
        </lyric>
      </note>
      <note>
        <pitch>
          <step>E</step>
          <octave>5</octave>
        </pitch>
        <duration>2</duration>
        <instrument id="P1-I2"/>
        <voice>1</voice>
        <type>eighth</type>
        <stem default-y="-39.5">down</stem>
        <beam number="1">end</beam>
        <lyric default-y="-73" number="1">
          <syllabic>single</syllabic>
          <text>has</text>
        </lyric>
      </note>
    </measure>
    <!--=======================================================-->
    <measure number="8">
      <harmony default-y="10" font-size="6.8">
        <root>
          <root-step>G</root-step>
        </root>
        <kind halign="center" text="">major</kind>
      </harmony>
      <note>
        <pitch>
          <step>D</step>
          <octave>5</octave>
        </pitch>
        <duration>2</duration>
        <instrument id="P1-I2"/>
        <voice>1</voice>
        <type>eighth</type>
        <stem default-y="-37">down</stem>
        <beam number="1">begin</beam>
        <lyric default-y="-73" number="1">
          <syllabic>begin</syllabic>
          <text>gird</text>
        </lyric>
      </note>
      <note>
        <pitch>
          <step>C</step>
          <octave>5</octave>
        </pitch>
        <duration>2</duration>
        <instrument id="P1-I2"/>
        <voice>1</voice>
        <type>eighth</type>
        <stem default-y="-42">down</stem>
        <beam number="1">continue</beam>
        <lyric default-y="-73" number="1">
          <syllabic>end</syllabic>
          <text>ed</text>
        </lyric>
      </note>
      <note>
        <pitch>
          <step>B</step>
          <octave>4</octave>
        </pitch>
        <duration>2</duration>
        <instrument id="P1-I2"/>
        <voice>1</voice>
        <type>eighth</type>
        <stem default-y="-47">down</stem>
        <beam number="1">end</beam>
        <lyric default-y="-73" number="1">
          <syllabic>begin</syllabic>
          <text>Him</text>
        </lyric>
      </note>
    </measure>
    <!--=======================================================-->
    <measure number="9">
      <harmony default-y="10" font-size="6.8">
        <root>
          <root-step>A</root-step>
        </root>
        <kind halign="center" text="m">minor</kind>
      </harmony>
      <note>
        <pitch>
          <step>C</step>
          <octave>5</octave>
        </pitch>
        <duration>2</duration>
        <instrument id="P1-I2"/>
        <voice>1</voice>
        <type>eighth</type>
        <stem default-y="-44.5">down</stem>
        <lyric default-y="-73" number="1">
          <syllabic>end</syllabic>
          <text>self</text>
        </lyric>
      </note>
      <note>
        <pitch>
          <step>A</step>
          <octave>4</octave>
        </pitch>
        <duration>4</duration>
        <instrument id="P1-I2"/>
        <voice>1</voice>
        <type>quarter</type>
        <stem default-y="6">up</stem>
        <lyric default-y="-73" number="1">
          <syllabic>single</syllabic>
          <text>with</text>
        </lyric>
      </note>
    </measure>
    <!--=======================================================-->
    <measure number="10">
      <harmony default-y="10" font-size="6.8">
        <root>
          <root-step>E</root-step>
        </root>
        <kind halign="center" text="">major</kind>
      </harmony>
      <note>
        <pitch>
          <step>B</step>
          <octave>4</octave>
        </pitch>
        <duration>6</duration>
        <instrument id="P1-I2"/>
        <voice>1</voice>
        <type>quarter</type>
        <dot/>
        <stem default-y="-47">down</stem>
        <lyric default-y="-73" number="1">
          <syllabic>single</syllabic>
          <text>strength.</text>
        </lyric>
      </note>
    </measure>
    <!--=======================================================-->
    <measure number="11" width="177">
      <print new-system="yes">
        <system-layout>
          <system-distance>95</system-distance>
        </system-layout>
      </print>
      <harmony default-y="10" font-size="6.8">
        <root>
          <root-step>A</root-step>
        </root>
        <kind halign="center" text="m">minor</kind>
      </harmony>
      <note default-x="46">
        <pitch>
          <step>C</step>
          <octave>5</octave>
        </pitch>
        <duration>2</duration>
        <instrument id="P1-I2"/>
        <voice>1</voice>
        <type>eighth</type>
        <stem default-y="-42">down</stem>
        <beam number="1">begin</beam>
        <lyric default-y="-73" number="1">
          <syllabic>begin</syllabic>
          <text>Sure</text>
        </lyric>
      </note>
      <note default-x="89">
        <pitch>
          <step>B</step>
          <octave>4</octave>
        </pitch>
        <duration>2</duration>
        <instrument id="P1-I2"/>
        <voice>1</voice>
        <type>eighth</type>
        <stem default-y="-46.5">down</stem>
        <beam number="1">continue</beam>
        <lyric default-y="-73" number="1">
          <syllabic>end</syllabic>
          <text>ly</text>
        </lyric>
      </note>
      <note default-x="132">
        <pitch>
          <step>A</step>
          <octave>4</octave>
        </pitch>
        <duration>2</duration>
        <instrument id="P1-I2"/>
        <voice>1</voice>
        <type>eighth</type>
        <stem default-y="-51">down</stem>
        <beam number="1">end</beam>
        <lyric default-y="-73" number="1">
          <syllabic>single</syllabic>
          <text>the</text>
        </lyric>
      </note>
    </measure>
    <!--=======================================================-->
    <measure number="12" width="140">
      <harmony default-y="10" font-size="6.8">
        <root>
          <root-step>G</root-step>
        </root>
        <kind halign="center" text="">major</kind>
      </harmony>
      <note default-x="24">
        <pitch>
          <step>B</step>
          <octave>4</octave>
        </pitch>
        <duration>2</duration>
        <instrument id="P1-I2"/>
        <voice>1</voice>
        <type>eighth</type>
        <stem default-y="10">up</stem>
        <beam number="1">begin</beam>
        <lyric default-y="-73" number="1">
          <syllabic>single</syllabic>
          <text>world</text>
        </lyric>
      </note>
      <note default-x="65">
        <pitch>
          <step>A</step>
          <octave>4</octave>
        </pitch>
        <duration>2</duration>
        <instrument id="P1-I2"/>
        <voice>1</voice>
        <type>eighth</type>
        <stem default-y="5">up</stem>
        <beam number="1">continue</beam>
        <lyric default-y="-73" number="1">
          <syllabic>single</syllabic>
          <text>is</text>
        </lyric>
      </note>
      <note default-x="102">
        <pitch>
          <step>G</step>
          <octave>4</octave>
        </pitch>
        <duration>2</duration>
        <instrument id="P1-I2"/>
        <voice>1</voice>
        <type>eighth</type>
        <stem default-y="1">up</stem>
        <beam number="1">end</beam>
        <lyric default-y="-73" number="1">
          <syllabic>begin</syllabic>
          <text>es</text>
        </lyric>
      </note>
    </measure>
    <!--=======================================================-->
    <measure number="13" width="163">
      <harmony default-y="10" font-size="6.8">
        <root>
          <root-step>F</root-step>
        </root>
        <kind halign="center" text="">major</kind>
      </harmony>
      <note default-x="12">
        <pitch>
          <step>A</step>
          <octave>4</octave>
        </pitch>
        <duration>2</duration>
        <instrument id="P1-I2"/>
        <voice>1</voice>
        <type>eighth</type>
        <stem default-y="-51">down</stem>
        <beam number="1">begin</beam>
        <lyric default-y="-73" number="1">
          <syllabic>middle</syllabic>
          <text>tab</text>
        </lyric>
      </note>
      <note default-x="71">
        <pitch>
          <step>B</step>
          <octave>4</octave>
        </pitch>
        <duration>2</duration>
        <instrument id="P1-I2"/>
        <voice>1</voice>
        <type>eighth</type>
        <stem default-y="-46.5">down</stem>
        <beam number="1">continue</beam>
        <lyric default-y="-73" number="1">
          <syllabic>end</syllabic>
          <text>lished,</text>
        </lyric>
      </note>
      <note default-x="121">
        <pitch>
          <step>C</step>
          <octave>5</octave>
        </pitch>
        <duration>2</duration>
        <instrument id="P1-I2"/>
        <voice>1</voice>
        <type>eighth</type>
        <stem default-y="-42">down</stem>
        <beam number="1">end</beam>
        <lyric default-y="-73" number="1">
          <syllabic>single</syllabic>
          <text>so</text>
        </lyric>
      </note>
    </measure>
    <!--=======================================================-->
    <measure number="14" width="142">
      <harmony default-y="10" font-size="6.8">
        <root>
          <root-step>D</root-step>
        </root>
        <kind halign="center" text="m">minor</kind>
      </harmony>
      <note default-x="17">
        <pitch>
          <step>D</step>
          <octave>5</octave>
        </pitch>
        <duration>2</duration>
        <instrument id="P1-I2"/>
        <voice>1</voice>
        <type>eighth</type>
        <stem default-y="-37.5">down</stem>
        <beam number="1">begin</beam>
        <lyric default-y="-73" number="1">
          <syllabic>single</syllabic>
          <text>that</text>
        </lyric>
      </note>
      <note default-x="58">
        <pitch>
          <step>C</step>
          <octave>5</octave>
        </pitch>
        <duration>2</duration>
        <instrument id="P1-I2"/>
        <voice>1</voice>
        <type>eighth</type>
        <stem default-y="-42">down</stem>
        <beam number="1">continue</beam>
        <lyric default-y="-73" number="1">
          <syllabic>single</syllabic>
          <text>it</text>
        </lyric>
      </note>
      <note default-x="99">
        <pitch>
          <step>B</step>
          <octave>4</octave>
        </pitch>
        <duration>2</duration>
        <instrument id="P1-I2"/>
        <voice>1</voice>
        <type>eighth</type>
        <stem default-y="-46.5">down</stem>
        <beam number="1">end</beam>
        <lyric default-y="-73" number="1">
          <syllabic>begin</syllabic>
          <text>can</text>
        </lyric>
      </note>
    </measure>
    <!--=======================================================-->
    <measure number="15" width="62">
      <harmony default-y="10" font-size="6.8">
        <root>
          <root-step>E</root-step>
        </root>
        <kind halign="center" text="sus">suspended-fourth</kind>
      </harmony>
      <note default-x="13">
        <pitch>
          <step>A</step>
          <octave>4</octave>
        </pitch>
        <duration>6</duration>
        <instrument id="P1-I2"/>
        <voice>1</voice>
        <type>quarter</type>
        <dot/>
        <stem default-y="6">up</stem>
        <lyric default-y="-73" number="1">
          <syllabic>end</syllabic>
          <text>not</text>
        </lyric>
      </note>
    </measure>
    <!--=======================================================-->
    <measure number="16" width="54">
      <harmony default-y="10" font-size="6.8">
        <root>
          <root-step>E</root-step>
        </root>
        <kind halign="center" text="m">minor</kind>
      </harmony>
      <note default-x="12">
        <pitch>
          <step>G</step>
          <octave>4</octave>
        </pitch>
        <duration>6</duration>
        <instrument id="P1-I2"/>
        <voice>1</voice>
        <type>quarter</type>
        <dot/>
        <stem default-y="2">up</stem>
        <lyric default-y="-73" number="1">
          <syllabic>single</syllabic>
          <text>be</text>
        </lyric>
      </note>
    </measure>
    <!--=======================================================-->
    <measure number="17" width="109">
      <harmony default-y="10" font-size="6.8">
        <root>
          <root-step>A</root-step>
        </root>
        <kind halign="center" text="5">power</kind>
      </harmony>
      <note default-x="26">
        <pitch>
          <step>A</step>
          <octave>4</octave>
        </pitch>
        <duration>6</duration>
        <tie type="start"/>
        <instrument id="P1-I2"/>
        <voice>1</voice>
        <type>quarter</type>
        <dot/>
        <stem default-y="6">up</stem>
        <notations>
          <tied type="start"/>
        </notations>
        <lyric default-y="-73" number="1">
          <syllabic>single</syllabic>
          <text>moved.</text>
        </lyric>
      </note>
    </measure>
    <!--=======================================================-->
    <measure number="18" width="88">
      <print new-system="yes">
        <system-layout>
          <system-distance>95</system-distance>
        </system-layout>
      </print>
      <note default-x="823">
        <pitch>
          <step>A</step>
          <octave>4</octave>
        </pitch>
        <duration>4</duration>
        <tie type="stop"/>
        <instrument id="P1-I2"/>
        <voice>1</voice>
        <type>quarter</type>
        <stem default-y="138">up</stem>
        <notations>
          <tied type="stop"/>
        </notations>
      </note>
      <note default-x="46">
        <pitch>
          <step>A</step>
          <octave>4</octave>
        </pitch>
        <duration>2</duration>
        <instrument id="P1-I2"/>
        <voice>1</voice>
        <type>eighth</type>
        <stem default-y="12">up</stem>
        <lyric default-y="-77" number="1">
          <syllabic>single</syllabic>
          <text font-size="4.1">2</text>
          <elision> </elision>
          <syllabic>single</syllabic>
          <text font-size="4.1">Your</text>
        </lyric>
      </note>
    </measure>
    <!--=======================================================-->
    <measure number="19" width="140">
      <harmony default-y="10" font-size="6.8">
        <root>
          <root-step>F</root-step>
        </root>
        <kind halign="center" text="">major</kind>
      </harmony>
      <note default-x="28">
        <pitch>
          <step>A</step>
          <octave>4</octave>
        </pitch>
        <duration>2</duration>
        <instrument id="P1-I2"/>
        <voice>1</voice>
        <type>eighth</type>
        <stem default-y="6">up</stem>
        <beam number="1">begin</beam>
        <lyric default-y="-77" number="1">
          <syllabic>single</syllabic>
          <text>throne</text>
        </lyric>
      </note>
      <note default-x="74">
        <pitch>
          <step>G</step>
          <octave>4</octave>
        </pitch>
        <duration>2</duration>
        <instrument id="P1-I2"/>
        <voice>1</voice>
        <type>eighth</type>
        <stem default-y="0">up</stem>
        <beam number="1">continue</beam>
        <lyric default-y="-77" number="1">
          <syllabic>single</syllabic>
          <text>is</text>
        </lyric>
      </note>
      <note default-x="105">
        <pitch>
          <step>F</step>
          <octave>4</octave>
        </pitch>
        <duration>2</duration>
        <instrument id="P1-I2"/>
        <voice>1</voice>
        <type>eighth</type>
        <stem default-y="-3">up</stem>
        <beam number="1">end</beam>
        <lyric default-y="-77" number="1">
          <syllabic>begin</syllabic>
          <text>es</text>
        </lyric>
      </note>
    </measure>
    <!--=======================================================-->
    <measure number="20" width="135">
      <harmony default-y="10" font-size="6.8">
        <root>
          <root-step>C</root-step>
        </root>
        <kind halign="center" text="">major</kind>
      </harmony>
      <note default-x="13">
        <pitch>
          <step>E</step>
          <octave>4</octave>
        </pitch>
        <duration>2</duration>
        <instrument id="P1-I2"/>
        <voice>1</voice>
        <type>eighth</type>
        <stem default-y="-8">up</stem>
        <beam number="1">begin</beam>
        <notations>
          <slur bezier-x="7" bezier-y="-5" default-x="6" default-y="-45" number="1" placement="below" type="start"/>
        </notations>
        <lyric default-y="-77" number="1">
          <syllabic>middle</syllabic>
          <text>tab</text>
        </lyric>
      </note>
      <note default-x="51">
        <pitch>
          <step>F</step>
          <octave>4</octave>
        </pitch>
        <duration>2</duration>
        <instrument id="P1-I2"/>
        <voice>1</voice>
        <type>eighth</type>
        <stem default-y="-3">up</stem>
        <beam number="1">continue</beam>
        <notations>
          <slur bezier-x="-6" bezier-y="-6" default-x="6" default-y="-40" number="1" type="stop"/>
        </notations>
      </note>
      <note default-x="92">
        <pitch>
          <step>G</step>
          <octave>4</octave>
        </pitch>
        <duration>2</duration>
        <instrument id="P1-I2"/>
        <voice>1</voice>
        <type>eighth</type>
        <stem default-y="1">up</stem>
        <beam number="1">end</beam>
        <lyric default-y="-77" number="1">
          <syllabic>end</syllabic>
          <text>lished</text>
        </lyric>
      </note>
    </measure>
    <!--=======================================================-->
    <measure number="21" width="93">
      <harmony default-y="10" font-size="6.8">
        <root>
          <root-step>D</root-step>
        </root>
        <kind halign="center" text="m">minor</kind>
      </harmony>
      <note default-x="20">
        <pitch>
          <step>F</step>
          <octave>4</octave>
        </pitch>
        <duration>2</duration>
        <instrument id="P1-I2"/>
        <voice>1</voice>
        <type>eighth</type>
        <stem default-y="2">up</stem>
        <lyric default-y="-77" number="1">
          <syllabic>single</syllabic>
          <text>from</text>
        </lyric>
      </note>
      <note default-x="60">
        <pitch>
          <step>D</step>
          <octave>4</octave>
        </pitch>
        <duration>4</duration>
        <instrument id="P1-I2"/>
        <voice>1</voice>
        <type>quarter</type>
        <stem default-y="-12">up</stem>
        <lyric default-y="-77" number="1">
          <syllabic>single</syllabic>
          <text>of</text>
        </lyric>
      </note>
    </measure>
    <!--=======================================================-->
    <measure number="22" width="52">
      <harmony default-y="10" font-size="6.8">
        <root>
          <root-step>A</root-step>
        </root>
        <kind halign="center" text="">major</kind>
      </harmony>
      <note default-x="15">
        <pitch>
          <step>C</step>
          <alter>1</alter>
          <octave>4</octave>
        </pitch>
        <duration>6</duration>
        <instrument id="P1-I2"/>
        <voice>1</voice>
        <type>quarter</type>
        <dot/>
        <accidental>sharp</accidental>
        <stem default-y="-16.5">up</stem>
        <lyric default-y="-77" number="1">
          <syllabic>single</syllabic>
          <text>old;</text>
        </lyric>
      </note>
    </measure>
    <!--=======================================================-->
    <measure number="23" width="137">
      <harmony default-y="10" font-size="6.8">
        <root>
          <root-step>F</root-step>
        </root>
        <kind halign="center" text="">major</kind>
      </harmony>
      <note default-x="15">
        <pitch>
          <step>A</step>
          <octave>4</octave>
        </pitch>
        <duration>2</duration>
        <instrument id="P1-I2"/>
        <voice>1</voice>
        <type>eighth</type>
        <stem default-y="6">up</stem>
        <beam number="1">begin</beam>
        <lyric default-y="-77" number="1">
          <syllabic>single</syllabic>
          <text>You</text>
        </lyric>
      </note>
      <note default-x="55">
        <pitch>
          <step>G</step>
          <octave>4</octave>
        </pitch>
        <duration>2</duration>
        <instrument id="P1-I2"/>
        <voice>1</voice>
        <type>eighth</type>
        <stem default-y="6">up</stem>
        <beam number="1">continue</beam>
        <lyric default-y="-77" number="1">
          <syllabic>single</syllabic>
          <text>are</text>
        </lyric>
      </note>
      <note default-x="98">
        <pitch>
          <step>A</step>
          <octave>4</octave>
        </pitch>
        <duration>2</duration>
        <instrument id="P1-I2"/>
        <voice>1</voice>
        <type>eighth</type>
        <stem default-y="6">up</stem>
        <beam number="1">end</beam>
        <lyric default-y="-77" number="1">
          <syllabic>single</syllabic>
          <text>from</text>
        </lyric>
      </note>
    </measure>
    <!--=======================================================-->
    <measure number="24" width="105">
      <harmony default-y="10" font-size="6.8">
        <root>
          <root-step>G</root-step>
        </root>
        <kind halign="center" text="">major</kind>
      </harmony>
      <note default-x="8">
        <pitch>
          <step>B</step>
          <octave>4</octave>
        </pitch>
        <duration>2</duration>
        <instrument id="P1-I2"/>
        <voice>1</voice>
        <type>eighth</type>
        <stem default-y="-46.5">down</stem>
        <beam number="1">begin</beam>
        <notations>
          <slur bezier-x="4" bezier-y="6" default-x="5" default-y="-8" number="1" placement="above" type="start"/>
        </notations>
        <lyric default-y="-77" number="1">
          <syllabic>begin</syllabic>
          <text>ev</text>
        </lyric>
      </note>
      <note default-x="40">
        <pitch>
          <step>C</step>
          <octave>5</octave>
        </pitch>
        <duration>2</duration>
        <instrument id="P1-I2"/>
        <voice>1</voice>
        <type>eighth</type>
        <stem default-y="-46.5">down</stem>
        <beam number="1">continue</beam>
        <notations>
          <slur bezier-x="-6" bezier-y="4" default-x="6" default-y="-3" number="1" type="stop"/>
        </notations>
      </note>
      <note default-x="71">
        <pitch>
          <step>B</step>
          <octave>4</octave>
        </pitch>
        <duration>2</duration>
        <instrument id="P1-I2"/>
        <voice>1</voice>
        <type>eighth</type>
        <stem default-y="-46.5">down</stem>
        <beam number="1">end</beam>
        <lyric default-y="-77" number="1">
          <syllabic>middle</syllabic>
          <text>er</text>
        </lyric>
      </note>
    </measure>
    <!--=======================================================-->
    <measure number="25" width="99">
      <harmony default-y="10" font-size="6.8">
        <root>
          <root-step>E</root-step>
        </root>
        <kind halign="center" text="sus">suspended-fourth</kind>
      </harmony>
      <note default-x="10">
        <pitch>
          <step>A</step>
          <octave>4</octave>
        </pitch>
        <duration>6</duration>
        <instrument id="P1-I2"/>
        <voice>1</voice>
        <type>quarter</type>
        <dot/>
        <stem default-y="6">up</stem>
        <lyric default-y="-77" number="1">
          <syllabic>middle</syllabic>
          <text>last</text>
        </lyric>
      </note>
    </measure>
    <!--=======================================================-->
    <measure number="26" width="90">
      <print new-system="yes">
        <system-layout>
          <system-distance>95</system-distance>
        </system-layout>
      </print>
      <harmony default-y="10" font-size="6.8">
        <root>
          <root-step>E</root-step>
        </root>
        <kind halign="center" text="">major</kind>
      </harmony>
      <note default-x="814">
        <pitch>
          <step>G</step>
          <alter>1</alter>
          <octave>4</octave>
        </pitch>
        <duration>4</duration>
        <instrument id="P1-I2"/>
        <voice>1</voice>
        <type>quarter</type>
        <accidental>sharp</accidental>
        <stem default-y="133.5">up</stem>
        <lyric default-y="-73" number="1">
          <syllabic>end</syllabic>
          <text>ing.</text>
        </lyric>
      </note>
      <note default-x="46">
        <pitch>
          <step>E</step>
          <octave>4</octave>
        </pitch>
        <duration>2</duration>
        <instrument id="P1-I2"/>
        <voice>1</voice>
        <type>eighth</type>
        <stem default-y="-3">up</stem>
        <lyric default-y="-73" number="1">
          <syllabic>single</syllabic>
          <text font-size="4.1">3</text>
          <elision> </elision>
          <syllabic>single</syllabic>
          <text font-size="4.1">The</text>
        </lyric>
      </note>
    </measure>
    <!--=======================================================-->
    <measure number="27" width="115">
      <harmony default-y="10" font-size="6.8">
        <root>
          <root-step>A</root-step>
        </root>
        <kind halign="center" text="m">minor</kind>
      </harmony>
      <note default-x="23">
        <pitch>
          <step>A</step>
          <octave>4</octave>
        </pitch>
        <duration>4</duration>
        <instrument id="P1-I2"/>
        <voice>1</voice>
        <type>quarter</type>
        <stem default-y="6">up</stem>
        <lyric default-y="-73" number="1">
          <syllabic>single</syllabic>
          <text>floods</text>
        </lyric>
      </note>
      <note default-x="74">
        <pitch>
          <step>C</step>
          <octave>5</octave>
        </pitch>
        <duration>2</duration>
        <instrument id="P1-I2"/>
        <voice>1</voice>
        <type>eighth</type>
        <stem default-y="-46.5">down</stem>
        <lyric default-y="-73" number="1">
          <syllabic>single</syllabic>
          <text>have</text>
        </lyric>
      </note>
    </measure>
    <!--=======================================================-->
    <measure number="28" width="93">
      <harmony default-y="10" font-size="6.8">
        <root>
          <root-step>G</root-step>
        </root>
        <kind halign="center" text="">major</kind>
      </harmony>
      <note default-x="11">
        <pitch>
          <step>B</step>
          <octave>4</octave>
        </pitch>
        <duration>2</duration>
        <instrument id="P1-I2"/>
        <voice>1</voice>
        <type>eighth</type>
        <stem default-y="-46.5">down</stem>
        <beam number="1">begin</beam>
        <notations>
          <slur bezier-x="4" bezier-y="6" default-x="5" default-y="-8" number="1" placement="above" type="start"/>
        </notations>
        <lyric default-y="-73" number="1">
          <syllabic>begin</syllabic>
          <text>lift</text>
        </lyric>
      </note>
      <note default-x="41">
        <pitch>
          <step>C</step>
          <octave>5</octave>
        </pitch>
        <duration>2</duration>
        <instrument id="P1-I2"/>
        <voice>1</voice>
        <type>eighth</type>
        <stem default-y="-41.5">down</stem>
        <beam number="1">continue</beam>
        <notations>
          <slur bezier-x="-6" bezier-y="4" default-x="6" default-y="-4" number="1" type="stop"/>
        </notations>
      </note>
      <note default-x="64">
        <pitch>
          <step>D</step>
          <octave>5</octave>
        </pitch>
        <duration>2</duration>
        <instrument id="P1-I2"/>
        <voice>1</voice>
        <type>eighth</type>
        <stem default-y="-37">down</stem>
        <beam number="1">end</beam>
        <lyric default-y="-73" number="1">
          <syllabic>end</syllabic>
          <text>ed</text>
        </lyric>
      </note>
    </measure>
    <!--=======================================================-->
    <measure number="29" width="72">
      <harmony default-y="10" font-size="6.8">
        <root>
          <root-step>F</root-step>
        </root>
        <kind halign="center" text="">major</kind>
      </harmony>
      <note default-x="12">
        <pitch>
          <step>C</step>
          <octave>5</octave>
        </pitch>
        <duration>2</duration>
        <instrument id="P1-I2"/>
        <voice>1</voice>
        <type>eighth</type>
        <stem default-y="-46.5">down</stem>
        <lyric default-y="-73" number="1">
          <syllabic>single</syllabic>
          <text>up,</text>
        </lyric>
      </note>
      <note default-x="44">
        <pitch>
          <step>A</step>
          <octave>4</octave>
        </pitch>
        <duration>4</duration>
        <instrument id="P1-I2"/>
        <voice>1</voice>
        <type>quarter</type>
        <stem default-y="6">up</stem>
        <lyric default-y="-73" number="1">
          <syllabic>single</syllabic>
          <text>O</text>
        </lyric>
      </note>
    </measure>
    <!--=======================================================-->
    <measure number="30" width="114">
      <harmony default-y="10" font-size="6.8">
        <root>
          <root-step>E</root-step>
        </root>
        <kind halign="center" text="">major</kind>
      </harmony>
      <note default-x="21">
        <pitch>
          <step>G</step>
          <alter>1</alter>
          <octave>4</octave>
        </pitch>
        <duration>4</duration>
        <instrument id="P1-I2"/>
        <voice>1</voice>
        <type>quarter</type>
        <accidental>sharp</accidental>
        <stem default-y="2">up</stem>
        <lyric default-y="-73" number="1">
          <syllabic>single</syllabic>
          <text>LORD,</text>
        </lyric>
      </note>
      <note default-x="71">
        <pitch>
          <step>E</step>
          <octave>4</octave>
        </pitch>
        <duration>2</duration>
        <instrument id="P1-I2"/>
        <voice>1</voice>
        <type>eighth</type>
        <stem default-y="-3">up</stem>
        <lyric default-y="-73" number="1">
          <syllabic>single</syllabic>
          <text>The</text>
        </lyric>
      </note>
    </measure>
    <!--=======================================================-->
    <measure number="31" width="119">
      <harmony default-y="10" font-size="6.8">
        <root>
          <root-step>A</root-step>
        </root>
        <kind halign="center" text="m">minor</kind>
      </harmony>
      <note default-x="25">
        <pitch>
          <step>A</step>
          <octave>4</octave>
        </pitch>
        <duration>4</duration>
        <instrument id="P1-I2"/>
        <voice>1</voice>
        <type>quarter</type>
        <stem default-y="6">up</stem>
        <lyric default-y="-73" number="1">
          <syllabic>single</syllabic>
          <text>floods</text>
        </lyric>
      </note>
      <note default-x="82">
        <pitch>
          <step>C</step>
          <octave>5</octave>
        </pitch>
        <duration>2</duration>
        <instrument id="P1-I2"/>
        <voice>1</voice>
        <type>eighth</type>
        <stem default-y="-48">down</stem>
        <lyric default-y="-73" number="1">
          <syllabic>single</syllabic>
          <text>have</text>
        </lyric>
      </note>
    </measure>
    <!--=======================================================-->
    <measure number="32" width="93">
      <harmony default-y="10" font-size="6.8">
        <root>
          <root-step>G</root-step>
        </root>
        <kind halign="center" text="">major</kind>
      </harmony>
      <note default-x="11">
        <pitch>
          <step>B</step>
          <octave>4</octave>
        </pitch>
        <duration>2</duration>
        <instrument id="P1-I2"/>
        <voice>1</voice>
        <type>eighth</type>
        <stem default-y="-46.5">down</stem>
        <beam number="1">begin</beam>
        <notations>
          <slur bezier-x="4" bezier-y="6" default-x="6" default-y="-8" number="1" placement="above" type="start"/>
        </notations>
        <lyric default-y="-73" number="1">
          <syllabic>begin</syllabic>
          <text>lift</text>
        </lyric>
      </note>
      <note default-x="41">
        <pitch>
          <step>C</step>
          <octave>5</octave>
        </pitch>
        <duration>2</duration>
        <instrument id="P1-I2"/>
        <voice>1</voice>
        <type>eighth</type>
        <stem default-y="-41.5">down</stem>
        <beam number="1">continue</beam>
        <notations>
          <slur bezier-x="-6" bezier-y="4" default-x="5" default-y="-4" number="1" type="stop"/>
        </notations>
      </note>
      <note default-x="64">
        <pitch>
          <step>D</step>
          <octave>5</octave>
        </pitch>
        <duration>2</duration>
        <instrument id="P1-I2"/>
        <voice>1</voice>
        <type>eighth</type>
        <stem default-y="-37">down</stem>
        <beam number="1">end</beam>
        <lyric default-y="-73" number="1">
          <syllabic>end</syllabic>
          <text>ed</text>
        </lyric>
      </note>
    </measure>
    <!--=======================================================-->
    <measure number="33" width="152">
      <harmony default-y="10" font-size="6.8">
        <root>
          <root-step>F</root-step>
        </root>
        <kind halign="center" text="">major</kind>
      </harmony>
      <note default-x="12">
        <pitch>
          <step>C</step>
          <octave>5</octave>
        </pitch>
        <duration>2</duration>
        <instrument id="P1-I2"/>
        <voice>1</voice>
        <type>eighth</type>
        <stem default-y="-45.5">down</stem>
        <lyric default-y="-73" number="1">
          <syllabic>single</syllabic>
          <text>up</text>
        </lyric>
      </note>
      <note default-x="58">
        <pitch>
          <step>D</step>
          <octave>5</octave>
        </pitch>
        <duration>4</duration>
        <instrument id="P1-I2"/>
        <voice>1</voice>
        <type>quarter</type>
        <stem default-y="-38">down</stem>
        <lyric default-y="-73" number="1">
          <syllabic>single</syllabic>
          <text>their</text>
        </lyric>
      </note>
    </measure>
    <!--=======================================================-->
    <measure number="34" width="114">
      <print new-system="yes">
        <system-layout>
          <system-distance>95</system-distance>
        </system-layout>
      </print>
      <harmony default-y="10" font-size="6.8" relative-x="10">
        <root>
          <root-step>E</root-step>
        </root>
        <kind halign="center" text="">major</kind>
      </harmony>
      <note default-x="813">
        <pitch>
          <step>E</step>
          <octave>5</octave>
        </pitch>
        <duration>4</duration>
        <instrument id="P1-I2"/>
        <voice>1</voice>
        <type>quarter</type>
        <stem default-y="98">down</stem>
        <lyric default-y="-73" number="1">
          <syllabic>single</syllabic>
          <text>voice;</text>
        </lyric>
      </note>
      <note default-x="65">
        <pitch>
          <step>E</step>
          <octave>4</octave>
        </pitch>
        <duration>2</duration>
        <instrument id="P1-I2"/>
        <voice>1</voice>
        <type>eighth</type>
        <stem default-y="-3">up</stem>
        <lyric default-y="-73" number="1">
          <syllabic>single</syllabic>
          <text>The</text>
        </lyric>
      </note>
    </measure>
    <!--=======================================================-->
    <measure number="35" width="170">
      <harmony default-y="10" font-size="6.8">
        <root>
          <root-step>A</root-step>
        </root>
        <kind halign="center" text="m">minor</kind>
      </harmony>
      <note default-x="26">
        <pitch>
          <step>A</step>
          <octave>4</octave>
        </pitch>
        <duration>4</duration>
        <instrument id="P1-I2"/>
        <voice>1</voice>
        <type>quarter</type>
        <stem default-y="6">up</stem>
        <lyric default-y="-73" number="1">
          <syllabic>single</syllabic>
          <text>floods</text>
        </lyric>
      </note>
      <note default-x="97">
        <pitch>
          <step>C</step>
          <octave>5</octave>
        </pitch>
        <duration>2</duration>
        <instrument id="P1-I2"/>
        <voice>1</voice>
        <type>eighth</type>
        <stem default-y="-47">down</stem>
        <lyric default-y="-73" number="1">
          <syllabic>single</syllabic>
          <text>lift</text>
        </lyric>
      </note>
    </measure>
    <!--=======================================================-->
    <measure number="36" width="172">
      <harmony default-y="10" font-size="6.8">
        <root>
          <root-step>G</root-step>
        </root>
        <kind halign="center" text="">major</kind>
      </harmony>
      <note default-x="9">
        <pitch>
          <step>B</step>
          <octave>4</octave>
        </pitch>
        <duration>2</duration>
        <instrument id="P1-I2"/>
        <voice>1</voice>
        <type>eighth</type>
        <stem default-y="-47">down</stem>
        <beam number="1">begin</beam>
        <notations>
          <slur bezier-x="8" bezier-y="6" default-x="6" default-y="-8" number="1" placement="above" type="start"/>
        </notations>
        <lyric default-y="-73" number="1">
          <syllabic>single</syllabic>
          <text>up</text>
        </lyric>
      </note>
      <note default-x="63">
        <pitch>
          <step>C</step>
          <octave>5</octave>
        </pitch>
        <duration>2</duration>
        <instrument id="P1-I2"/>
        <voice>1</voice>
        <type>eighth</type>
        <stem default-y="-42">down</stem>
        <beam number="1">continue</beam>
        <notations>
          <slur bezier-x="-9" bezier-y="5" default-x="5" default-y="-4" number="1" type="stop"/>
        </notations>
      </note>
      <note default-x="117">
        <pitch>
          <step>D</step>
          <octave>5</octave>
        </pitch>
        <duration>2</duration>
        <instrument id="P1-I2"/>
        <voice>1</voice>
        <type>eighth</type>
        <stem default-y="-37">down</stem>
        <beam number="1">end</beam>
        <lyric default-y="-73" number="1">
          <syllabic>single</syllabic>
          <text>their</text>
        </lyric>
      </note>
    </measure>
    <!--=======================================================-->
    <measure number="37" width="155">
      <harmony default-y="10" font-size="6.8">
        <root>
          <root-step>F</root-step>
        </root>
        <kind halign="center" text="">major</kind>
      </harmony>
      <note default-x="33">
        <pitch>
          <step>C</step>
          <octave>5</octave>
        </pitch>
        <duration>2</duration>
        <instrument id="P1-I2"/>
        <voice>1</voice>
        <type>eighth</type>
        <stem default-y="-42">down</stem>
        <beam number="1">begin</beam>
        <notations>
          <slur default-x="8" default-y="1" number="1" placement="above" type="start"/>
        </notations>
        <lyric default-y="-73" number="1">
          <syllabic>single</syllabic>
          <text>waves.</text>
        </lyric>
      </note>
      <note default-x="81">
        <pitch>
          <step>B</step>
          <octave>4</octave>
        </pitch>
        <duration>2</duration>
        <instrument id="P1-I2"/>
        <voice>1</voice>
        <type>eighth</type>
        <stem default-y="-47">down</stem>
        <beam number="1">continue</beam>
      </note>
      <note default-x="121">
        <pitch>
          <step>A</step>
          <octave>4</octave>
        </pitch>
        <duration>2</duration>
        <instrument id="P1-I2"/>
        <voice>1</voice>
        <type>eighth</type>
        <stem default-y="-51">down</stem>
        <beam number="1">end</beam>
      </note>
    </measure>
    <!--=======================================================-->
    <measure number="38" width="131">
      <harmony default-y="10" font-size="6.8">
        <root>
          <root-step>E</root-step>
        </root>
        <kind halign="center" text="">major</kind>
      </harmony>
      <note default-x="13">
        <pitch>
          <step>G</step>
          <alter>1</alter>
          <octave>4</octave>
        </pitch>
        <duration>2</duration>
        <instrument id="P1-I2"/>
        <voice>1</voice>
        <type>eighth</type>
        <accidental>sharp</accidental>
        <stem default-y="1">up</stem>
        <beam number="1">begin</beam>
      </note>
      <note default-x="53">
        <pitch>
          <step>A</step>
          <octave>4</octave>
        </pitch>
        <duration>2</duration>
        <instrument id="P1-I2"/>
        <voice>1</voice>
        <type>eighth</type>
        <stem default-y="6">up</stem>
        <beam number="1">continue</beam>
      </note>
      <note default-x="91">
        <pitch>
          <step>B</step>
          <octave>4</octave>
        </pitch>
        <duration>2</duration>
        <instrument id="P1-I2"/>
        <voice>1</voice>
        <type>eighth</type>
        <stem default-y="10.5">up</stem>
        <beam number="1">end</beam>
      </note>
    </measure>
    <!--=======================================================-->
    <measure number="39" width="105">
      <harmony default-y="10" font-size="6.8">
        <root>
          <root-step>A</root-step>
        </root>
        <kind halign="center" text="5">power</kind>
      </harmony>
      <note default-x="10">
        <pitch>
          <step>A</step>
          <octave>4</octave>
        </pitch>
        <duration>6</duration>
        <tie type="start"/>
        <instrument id="P1-I2"/>
        <voice>1</voice>
        <type>quarter</type>
        <dot/>
        <stem default-y="6">up</stem>
        <notations>
          <tied type="start"/>
        </notations>
      </note>
    </measure>
    <!--=======================================================-->
    <measure number="40" width="848">
      <print new-system="yes">
        <system-layout>
          <system-distance>95</system-distance>
        </system-layout>
      </print>
      <note default-x="826">
        <pitch>
          <step>A</step>
          <octave>4</octave>
        </pitch>
        <duration>4</duration>
        <tie type="stop"/>
        <instrument id="P1-I2"/>
        <voice>1</voice>
        <type>quarter</type>
        <stem default-y="6">up</stem>
        <notations>
          <tied type="stop"/>
          <slur default-x="0" default-y="-2" number="1" type="stop"/>
        </notations>
      </note>
      <note default-x="42">
        <pitch>
          <step>A</step>
          <octave>4</octave>
        </pitch>
        <duration>2</duration>
        <instrument id="P1-I2"/>
        <voice>1</voice>
        <type>eighth</type>
        <stem default-y="-121">up</stem>
        <lyric default-y="-73" number="1">
          <syllabic>single</syllabic>
          <text font-size="4.1">4</text>
          <elision> </elision>
          <syllabic>single</syllabic>
          <text font-size="4.1">The</text>
        </lyric>
      </note>
    </measure>
    <!--=======================================================-->
    <measure number="41">
      <harmony default-y="10" font-size="6.8">
        <root>
          <root-step>C</root-step>
        </root>
        <kind halign="center" text="">major</kind>
      </harmony>
      <note default-x="-743">
        <pitch>
          <step>E</step>
          <octave>5</octave>
        </pitch>
        <duration>4</duration>
        <instrument id="P1-I2"/>
        <voice>1</voice>
        <type>quarter</type>
        <stem default-y="-33">down</stem>
        <lyric default-y="-73" number="1">
          <syllabic>single</syllabic>
          <text>LORD</text>
        </lyric>
      </note>
      <note default-x="-701">
        <pitch>
          <step>C</step>
          <octave>5</octave>
        </pitch>
        <duration>2</duration>
        <instrument id="P1-I2"/>
        <voice>1</voice>
        <type>eighth</type>
        <stem default-y="-46">down</stem>
        <lyric default-y="-73" number="1">
          <syllabic>single</syllabic>
          <text>on</text>
        </lyric>
      </note>
    </measure>
    <!--=======================================================-->
    <measure number="42">
      <harmony default-y="10" font-size="6.8">
        <root>
          <root-step>G</root-step>
        </root>
        <kind halign="center" text="">major</kind>
      </harmony>
      <note>
        <pitch>
          <step>D</step>
          <octave>5</octave>
        </pitch>
        <duration>3</duration>
        <instrument id="P1-I2"/>
        <voice>1</voice>
        <type>eighth</type>
        <dot/>
        <stem default-y="-37.5">down</stem>
        <beam number="1">begin</beam>
        <notations>
          <slur bezier-x="7" bezier-y="4" default-x="5" default-y="1" number="1" placement="above" type="start"/>
        </notations>
        <lyric default-y="-73" number="1">
          <syllabic>single</syllabic>
          <text>high</text>
        </lyric>
      </note>
      <note>
        <pitch>
          <step>C</step>
          <octave>5</octave>
        </pitch>
        <duration>1</duration>
        <instrument id="P1-I2"/>
        <voice>1</voice>
        <type>16th</type>
        <stem default-y="-43">down</stem>
        <beam number="1">continue</beam>
        <beam number="2">backward hook</beam>
        <notations>
          <slur bezier-x="-5" bezier-y="6" default-x="6" default-y="-3" number="1" type="stop"/>
        </notations>
      </note>
      <note>
        <pitch>
          <step>B</step>
          <octave>4</octave>
        </pitch>
        <duration>2</duration>
        <instrument id="P1-I2"/>
        <voice>1</voice>
        <type>eighth</type>
        <stem default-y="-46.5">down</stem>
        <beam number="1">end</beam>
        <lyric default-y="-73" number="1">
          <syllabic>single</syllabic>
          <text>is</text>
        </lyric>
      </note>
    </measure>
    <!--=======================================================-->
    <measure number="43">
      <harmony default-y="10" font-size="6.8">
        <root>
          <root-step>F</root-step>
        </root>
        <kind halign="center" text="">major</kind>
      </harmony>
      <note>
        <pitch>
          <step>A</step>
          <octave>4</octave>
        </pitch>
        <duration>2</duration>
        <instrument id="P1-I2"/>
        <voice>1</voice>
        <type>eighth</type>
        <stem default-y="-51">down</stem>
        <beam number="1">begin</beam>
        <lyric default-y="-73" number="1">
          <syllabic>begin</syllabic>
          <text>might</text>
        </lyric>
      </note>
      <note>
        <pitch>
          <step>C</step>
          <octave>5</octave>
        </pitch>
        <duration>2</duration>
        <instrument id="P1-I2"/>
        <voice>1</voice>
        <type>eighth</type>
        <stem default-y="-44">down</stem>
        <beam number="1">continue</beam>
        <lyric default-y="-73" number="1">
          <syllabic>middle</syllabic>
          <text>i</text>
        </lyric>
      </note>
      <note>
        <pitch>
          <step>E</step>
          <octave>5</octave>
        </pitch>
        <duration>2</duration>
        <instrument id="P1-I2"/>
        <voice>1</voice>
        <type>eighth</type>
        <stem default-y="-40">down</stem>
        <beam number="1">end</beam>
        <lyric default-y="-73" number="1">
          <syllabic>end</syllabic>
          <text>er</text>
        </lyric>
      </note>
    </measure>
    <!--=======================================================-->
    <measure number="44">
      <harmony default-y="10" font-size="6.8">
        <root>
          <root-step>G</root-step>
        </root>
        <kind halign="center" text="">major</kind>
      </harmony>
      <note>
        <pitch>
          <step>D</step>
          <octave>5</octave>
        </pitch>
        <duration>2</duration>
        <instrument id="P1-I2"/>
        <voice>1</voice>
        <type>eighth</type>
        <stem default-y="-37.5">down</stem>
        <beam number="1">begin</beam>
        <notations>
          <slur default-x="5" default-y="1" number="1" placement="above" type="start"/>
        </notations>
        <lyric default-y="-73" number="1">
          <syllabic>single</syllabic>
          <text>than</text>
        </lyric>
      </note>
      <note>
        <pitch>
          <step>C</step>
          <octave>5</octave>
        </pitch>
        <duration>2</duration>
        <instrument id="P1-I2"/>
        <voice>1</voice>
        <type>eighth</type>
        <stem default-y="-42.5">down</stem>
        <beam number="1">continue</beam>
        <notations>
          <slur default-x="6" default-y="-3" number="1" type="stop"/>
        </notations>
      </note>
      <note>
        <pitch>
          <step>B</step>
          <octave>4</octave>
        </pitch>
        <duration>2</duration>
        <instrument id="P1-I2"/>
        <voice>1</voice>
        <type>eighth</type>
        <stem default-y="-46.5">down</stem>
        <beam number="1">end</beam>
        <lyric default-y="-73" number="1">
          <syllabic>single</syllabic>
          <text>the</text>
        </lyric>
      </note>
    </measure>
    <!--=======================================================-->
    <measure number="45">
      <harmony default-y="10" font-size="6.8">
        <root>
          <root-step>A</root-step>
        </root>
        <kind halign="center" text="m">minor</kind>
      </harmony>
      <note>
        <pitch>
          <step>C</step>
          <octave>5</octave>
        </pitch>
        <duration>4</duration>
        <instrument id="P1-I2"/>
        <voice>1</voice>
        <type>quarter</type>
        <stem default-y="-42.5">down</stem>
        <lyric default-y="-73" number="1">
          <syllabic>single</syllabic>
          <text>noise</text>
        </lyric>
      </note>
      <note>
        <pitch>
          <step>A</step>
          <octave>4</octave>
        </pitch>
        <duration>2</duration>
        <instrument id="P1-I2"/>
        <voice>1</voice>
        <type>eighth</type>
        <stem default-y="6">up</stem>
        <lyric default-y="-73" number="1">
          <syllabic>single</syllabic>
          <text>of</text>
        </lyric>
      </note>
    </measure>
    <!--=======================================================-->
    <measure number="46">
      <harmony default-y="10" font-size="6.8">
        <root>
          <root-step>E</root-step>
        </root>
        <kind halign="center" text="m">minor</kind>
      </harmony>
      <note>
        <pitch>
          <step>G</step>
          <octave>4</octave>
        </pitch>
        <duration>2</duration>
        <instrument id="P1-I2"/>
        <voice>1</voice>
        <type>eighth</type>
        <stem default-y="1">up</stem>
        <beam number="1">begin</beam>
        <notations>
          <slur bezier-x="6" bezier-y="-4" default-x="6" default-y="-35" number="1" placement="below" type="start"/>
        </notations>
        <lyric default-y="-73" number="1">
          <syllabic>begin</syllabic>
          <text>man</text>
        </lyric>
      </note>
      <note>
        <pitch>
          <step>A</step>
          <octave>4</octave>
        </pitch>
        <duration>2</duration>
        <instrument id="P1-I2"/>
        <voice>1</voice>
        <type>eighth</type>
        <stem default-y="6">up</stem>
        <beam number="1">continue</beam>
        <notations>
          <slur bezier-x="-4" bezier-y="-6" default-x="6" default-y="-30" number="1" type="stop"/>
        </notations>
      </note>
      <note>
        <pitch>
          <step>B</step>
          <octave>4</octave>
        </pitch>
        <duration>2</duration>
        <instrument id="P1-I2"/>
        <voice>1</voice>
        <type>eighth</type>
        <stem default-y="10">up</stem>
        <beam number="1">end</beam>
        <lyric default-y="-73" number="1">
          <syllabic>end</syllabic>
          <text>y</text>
        </lyric>
      </note>
    </measure>
    <!--=======================================================-->
    <measure number="47">
      <harmony default-y="10" font-size="6.8">
        <root>
          <root-step>F</root-step>
        </root>
        <kind halign="center" text="">major</kind>
      </harmony>
      <note>
        <pitch>
          <step>C</step>
          <octave>5</octave>
        </pitch>
        <duration>2</duration>
        <instrument id="P1-I2"/>
        <voice>1</voice>
        <type>eighth</type>
        <stem default-y="-42">down</stem>
        <beam number="1">begin</beam>
        <notations>
          <slur bezier-x="6" bezier-y="4" default-x="5" default-y="-3" number="1" placement="above" type="start"/>
        </notations>
        <lyric default-y="-73" number="1">
          <syllabic>begin</syllabic>
          <text>wa</text>
        </lyric>
      </note>
      <note>
        <pitch>
          <step>B</step>
          <octave>4</octave>
        </pitch>
        <duration>2</duration>
        <instrument id="P1-I2"/>
        <voice>1</voice>
        <type>eighth</type>
        <stem default-y="-46.5">down</stem>
        <beam number="1">continue</beam>
        <notations>
          <slur bezier-x="-5" bezier-y="6" default-x="5" default-y="-8" number="1" type="stop"/>
        </notations>
      </note>
      <note>
        <pitch>
          <step>A</step>
          <octave>4</octave>
        </pitch>
        <duration>2</duration>
        <instrument id="P1-I2"/>
        <voice>1</voice>
        <type>eighth</type>
        <stem default-y="-51">down</stem>
        <beam number="1">end</beam>
        <lyric default-y="-73" number="1">
          <syllabic>end</syllabic>
          <text>ters,</text>
        </lyric>
      </note>
    </measure>
    <!--=======================================================-->
    <measure number="48" width="142">
      <print new-system="yes">
        <system-layout>
          <system-distance>95</system-distance>
        </system-layout>
      </print>
      <harmony default-y="10" font-size="6.8">
        <root>
          <root-step>G</root-step>
        </root>
        <kind halign="center" text="">major</kind>
      </harmony>
      <note default-x="49">
        <pitch>
          <step>G</step>
          <octave>4</octave>
        </pitch>
        <duration>2</duration>
        <instrument id="P1-I2"/>
        <voice>1</voice>
        <type>eighth</type>
        <stem default-y="1">up</stem>
        <beam number="1">begin</beam>
        <notations>
          <slur bezier-x="6" bezier-y="-4" default-x="6" default-y="-38" number="1" placement="below" type="start"/>
        </notations>
        <lyric default-y="-73" number="1">
          <syllabic>single</syllabic>
          <text>Than</text>
        </lyric>
      </note>
      <note default-x="82">
        <pitch>
          <step>A</step>
          <octave>4</octave>
        </pitch>
        <duration>2</duration>
        <instrument id="P1-I2"/>
        <voice>1</voice>
        <type>eighth</type>
        <stem default-y="6">up</stem>
        <beam number="1">continue</beam>
        <notations>
          <slur bezier-x="-5" bezier-y="-6" default-x="6" default-y="-33" number="1" type="stop"/>
        </notations>
      </note>
      <note default-x="110">
        <pitch>
          <step>B</step>
          <octave>4</octave>
        </pitch>
        <duration>2</duration>
        <instrument id="P1-I2"/>
        <voice>1</voice>
        <type>eighth</type>
        <stem default-y="10">up</stem>
        <beam number="1">end</beam>
        <lyric default-y="-73" number="1">
          <syllabic>single</syllabic>
          <text>the</text>
        </lyric>
      </note>
    </measure>
    <!--=======================================================-->
    <measure number="49" width="105">
      <harmony default-y="10" font-size="6.8">
        <root>
          <root-step>A</root-step>
        </root>
        <kind halign="center" text="m">minor</kind>
      </harmony>
      <note default-x="22">
        <pitch>
          <step>C</step>
          <octave>5</octave>
        </pitch>
        <duration>2</duration>
        <instrument id="P1-I2"/>
        <voice>1</voice>
        <type>eighth</type>
        <stem default-y="-42">down</stem>
        <beam number="1">begin</beam>
        <notations>
          <slur bezier-x="6" bezier-y="4" default-x="5" default-y="-3" number="1" placement="above" type="start"/>
        </notations>
        <lyric default-y="-73" number="1">
          <syllabic>begin</syllabic>
          <text>might</text>
        </lyric>
      </note>
      <note default-x="52">
        <pitch>
          <step>B</step>
          <octave>4</octave>
        </pitch>
        <duration>2</duration>
        <instrument id="P1-I2"/>
        <voice>1</voice>
        <type>eighth</type>
        <stem default-y="-46.5">down</stem>
        <beam number="1">continue</beam>
        <notations>
          <slur bezier-x="-4" bezier-y="6" default-x="5" default-y="-8" number="1" type="stop"/>
        </notations>
      </note>
      <note default-x="80">
        <pitch>
          <step>A</step>
          <octave>4</octave>
        </pitch>
        <duration>2</duration>
        <instrument id="P1-I2"/>
        <voice>1</voice>
        <type>eighth</type>
        <stem default-y="-51">down</stem>
        <beam number="1">end</beam>
        <lyric default-y="-73" number="1">
          <syllabic>end</syllabic>
          <text>y</text>
        </lyric>
      </note>
    </measure>
    <!--=======================================================-->
    <measure number="50" width="125">
      <harmony default-y="10" font-size="6.8">
        <root>
          <root-step>E</root-step>
        </root>
        <kind halign="center" text="">major</kind>
      </harmony>
      <note default-x="22">
        <pitch>
          <step>G</step>
          <alter>1</alter>
          <octave>4</octave>
        </pitch>
        <duration>2</duration>
        <instrument id="P1-I2"/>
        <voice>1</voice>
        <type>eighth</type>
        <accidental>sharp</accidental>
        <stem default-y="1">up</stem>
        <beam number="1">begin</beam>
        <lyric default-y="-73" number="1">
          <syllabic>single</syllabic>
          <text>waves</text>
        </lyric>
      </note>
      <note default-x="64">
        <pitch>
          <step>A</step>
          <octave>4</octave>
        </pitch>
        <duration>2</duration>
        <instrument id="P1-I2"/>
        <voice>1</voice>
        <type>eighth</type>
        <stem default-y="6">up</stem>
        <beam number="1">continue</beam>
        <lyric default-y="-73" number="1">
          <syllabic>single</syllabic>
          <text>of</text>
        </lyric>
      </note>
      <note default-x="94">
        <pitch>
          <step>B</step>
          <octave>4</octave>
        </pitch>
        <duration>2</duration>
        <instrument id="P1-I2"/>
        <voice>1</voice>
        <type>eighth</type>
        <stem default-y="10">up</stem>
        <beam number="1">end</beam>
        <lyric default-y="-73" number="1">
          <syllabic>single</syllabic>
          <text>the</text>
        </lyric>
      </note>
    </measure>
    <!--=======================================================-->
    <measure number="51" width="61">
      <harmony default-y="10" font-size="6.8">
        <root>
          <root-step>A</root-step>
        </root>
        <kind halign="center" text="5">power</kind>
      </harmony>
      <note default-x="14">
        <pitch>
          <step>A</step>
          <octave>4</octave>
        </pitch>
        <duration>6</duration>
        <tie type="start"/>
        <instrument id="P1-I2"/>
        <voice>1</voice>
        <type>quarter</type>
        <dot/>
        <stem default-y="6">up</stem>
        <notations>
          <tied type="start"/>
        </notations>
        <lyric default-y="-73" number="1">
          <syllabic>single</syllabic>
          <text>sea.</text>
        </lyric>
      </note>
    </measure>
    <!--=======================================================-->
    <measure number="52" width="73">
      <note default-x="4">
        <pitch>
          <step>A</step>
          <octave>4</octave>
        </pitch>
        <duration>4</duration>
        <tie type="stop"/>
        <instrument id="P1-I2"/>
        <voice>1</voice>
        <type>quarter</type>
        <stem default-y="6">up</stem>
        <notations>
          <tied type="stop"/>
        </notations>
      </note>
      <note default-x="41">
        <pitch>
          <step>A</step>
          <octave>4</octave>
        </pitch>
        <duration>2</duration>
        <instrument id="P1-I2"/>
        <voice>1</voice>
        <type>eighth</type>
        <stem default-y="11">up</stem>
        <lyric default-y="-73" number="1">
          <syllabic>single</syllabic>
          <text font-size="4.1">5</text>
          <elision> </elision>
          <syllabic>single</syllabic>
          <text font-size="4.1">Your</text>
        </lyric>
      </note>
    </measure>
    <!--=======================================================-->
    <measure number="53" width="98">
      <harmony default-y="10" font-size="6.8">
        <root>
          <root-step>F</root-step>
        </root>
        <kind halign="center" text="">major</kind>
      </harmony>
      <note default-x="16">
        <pitch>
          <step>A</step>
          <octave>4</octave>
        </pitch>
        <duration>2</duration>
        <instrument id="P1-I2"/>
        <voice>1</voice>
        <type>eighth</type>
        <stem default-y="6">up</stem>
        <beam number="1">begin</beam>
        <notations>
          <slur bezier-x="4" bezier-y="-6" default-x="6" default-y="-33" number="1" placement="below" type="start"/>
        </notations>
        <lyric default-y="-73" number="1">
          <syllabic>begin</syllabic>
          <text>test</text>
        </lyric>
      </note>
      <note default-x="45">
        <pitch>
          <step>G</step>
          <octave>4</octave>
        </pitch>
        <duration>2</duration>
        <instrument id="P1-I2"/>
        <voice>1</voice>
        <type>eighth</type>
        <stem default-y="1">up</stem>
        <beam number="1">continue</beam>
        <notations>
          <slur bezier-x="-6" bezier-y="-4" default-x="5" default-y="-38" number="1" type="stop"/>
        </notations>
      </note>
      <note default-x="72">
        <pitch>
          <step>F</step>
          <octave>4</octave>
        </pitch>
        <duration>2</duration>
        <instrument id="P1-I2"/>
        <voice>1</voice>
        <type>eighth</type>
        <stem default-y="-3">up</stem>
        <beam number="1">end</beam>
        <lyric default-y="-73" number="1">
          <syllabic>middle</syllabic>
          <text>i</text>
        </lyric>
      </note>
    </measure>
    <!--=======================================================-->
    <measure number="54" width="115">
      <harmony default-y="10" font-size="6.8">
        <root>
          <root-step>C</root-step>
        </root>
        <kind halign="center" text="">major</kind>
      </harmony>
      <note default-x="17">
        <pitch>
          <step>E</step>
          <octave>4</octave>
        </pitch>
        <duration>2</duration>
        <instrument id="P1-I2"/>
        <voice>1</voice>
        <type>eighth</type>
        <stem default-y="-8">up</stem>
        <beam number="1">begin</beam>
        <lyric default-y="-73" number="1">
          <syllabic>middle</syllabic>
          <text>mon</text>
        </lyric>
      </note>
      <note default-x="55">
        <pitch>
          <step>F</step>
          <octave>4</octave>
        </pitch>
        <duration>2</duration>
        <instrument id="P1-I2"/>
        <voice>1</voice>
        <type>eighth</type>
        <stem default-y="-3">up</stem>
        <beam number="1">continue</beam>
        <lyric default-y="-73" number="1">
          <syllabic>end</syllabic>
          <text>ies</text>
        </lyric>
      </note>
      <note default-x="87">
        <pitch>
          <step>G</step>
          <octave>4</octave>
        </pitch>
        <duration>2</duration>
        <instrument id="P1-I2"/>
        <voice>1</voice>
        <type>eighth</type>
        <stem default-y="1">up</stem>
        <beam number="1">end</beam>
        <lyric default-y="-73" number="1">
          <syllabic>single</syllabic>
          <text>are</text>
        </lyric>
      </note>
    </measure>
    <!--=======================================================-->
    <measure number="55" width="74">
      <harmony default-y="10" font-size="6.8">
        <root>
          <root-step>D</root-step>
        </root>
        <kind halign="center" text="m">minor</kind>
      </harmony>
      <note default-x="8">
        <pitch>
          <step>F</step>
          <octave>4</octave>
        </pitch>
        <duration>2</duration>
        <instrument id="P1-I2"/>
        <voice>1</voice>
        <type>eighth</type>
        <stem default-y="2">up</stem>
        <lyric default-y="-73" number="1">
          <syllabic>begin</syllabic>
          <text>ver</text>
        </lyric>
      </note>
      <note default-x="43">
        <pitch>
          <step>D</step>
          <octave>4</octave>
        </pitch>
        <duration>4</duration>
        <instrument id="P1-I2"/>
        <voice>1</voice>
        <type>quarter</type>
        <stem default-y="-12">up</stem>
        <lyric default-y="-73" number="1">
          <syllabic>end</syllabic>
          <text>y</text>
        </lyric>
      </note>
    </measure>
    <!--=======================================================-->
    <measure number="56" width="56">
      <harmony default-y="10" font-size="6.8">
        <root>
          <root-step>A</root-step>
        </root>
        <kind halign="center" text="">major</kind>
      </harmony>
      <note default-x="19">
        <pitch>
          <step>C</step>
          <alter>1</alter>
          <octave>4</octave>
        </pitch>
        <duration>6</duration>
        <instrument id="P1-I2"/>
        <voice>1</voice>
        <type>quarter</type>
        <dot/>
        <accidental>sharp</accidental>
        <stem default-y="-16.5">up</stem>
        <lyric default-y="-73" number="1">
          <syllabic>single</syllabic>
          <text>sure;</text>
        </lyric>
      </note>
    </measure>
    <!--=======================================================-->
    <measure number="57" width="150">
      <print new-system="yes">
        <system-layout>
          <system-distance>95</system-distance>
        </system-layout>
      </print>
      <harmony default-y="10" font-size="6.8">
        <root>
          <root-step>F</root-step>
        </root>
        <kind halign="center" text="">major</kind>
      </harmony>
      <note default-x="40">
        <pitch>
          <step>A</step>
          <octave>4</octave>
        </pitch>
        <duration>2</duration>
        <instrument id="P1-I2"/>
        <voice>1</voice>
        <type>eighth</type>
        <stem default-y="5.5">up</stem>
        <beam number="1">begin</beam>
        <notations>
          <slur bezier-x="6" bezier-y="-5" default-x="6" default-y="-34" number="1" placement="below" type="start"/>
        </notations>
        <lyric default-y="-77" number="1">
          <syllabic>begin</syllabic>
          <text>Ho</text>
        </lyric>
      </note>
      <note default-x="78">
        <pitch>
          <step>G</step>
          <octave>4</octave>
        </pitch>
        <duration>2</duration>
        <instrument id="P1-I2"/>
        <voice>1</voice>
        <type>eighth</type>
        <stem default-y="5.5">up</stem>
        <beam number="1">continue</beam>
        <notations>
          <slur bezier-x="-7" bezier-y="-4" default-x="6" default-y="-38" number="1" type="stop"/>
        </notations>
      </note>
      <note default-x="114">
        <pitch>
          <step>A</step>
          <octave>4</octave>
        </pitch>
        <duration>2</duration>
        <instrument id="P1-I2"/>
        <voice>1</voice>
        <type>eighth</type>
        <stem default-y="5.5">up</stem>
        <beam number="1">end</beam>
        <lyric default-y="-77" number="1">
          <syllabic>middle</syllabic>
          <text>li</text>
        </lyric>
      </note>
    </measure>
    <!--=======================================================-->
    <measure number="58" width="125">
      <harmony default-y="10" font-size="6.8">
        <root>
          <root-step>G</root-step>
        </root>
        <kind halign="center" text="">major</kind>
      </harmony>
      <note default-x="17">
        <pitch>
          <step>B</step>
          <octave>4</octave>
        </pitch>
        <duration>2</duration>
        <instrument id="P1-I2"/>
        <voice>1</voice>
        <type>eighth</type>
        <stem default-y="-47">down</stem>
        <beam number="1">begin</beam>
        <notations>
          <slur bezier-x="5" bezier-y="6" default-x="5" default-y="-8" number="1" placement="above" type="start"/>
        </notations>
        <lyric default-y="-77" number="1">
          <syllabic>end</syllabic>
          <text>ness</text>
        </lyric>
      </note>
      <note default-x="53">
        <pitch>
          <step>C</step>
          <octave>5</octave>
        </pitch>
        <duration>2</duration>
        <instrument id="P1-I2"/>
        <voice>1</voice>
        <type>eighth</type>
        <stem default-y="-47">down</stem>
        <beam number="1">continue</beam>
        <notations>
          <slur bezier-x="-7" bezier-y="4" default-x="5" default-y="-4" number="1" type="stop"/>
        </notations>
      </note>
      <note default-x="88">
        <pitch>
          <step>B</step>
          <octave>4</octave>
        </pitch>
        <duration>2</duration>
        <instrument id="P1-I2"/>
        <voice>1</voice>
        <type>eighth</type>
        <stem default-y="-47">down</stem>
        <beam number="1">end</beam>
        <lyric default-y="-77" number="1">
          <syllabic>begin</syllabic>
          <text>a</text>
        </lyric>
      </note>
    </measure>
    <!--=======================================================-->
    <measure number="59" width="160">
      <harmony default-y="10" font-size="6.8">
        <root>
          <root-step>A</root-step>
        </root>
        <kind halign="center" text="m">minor</kind>
      </harmony>
      <note default-x="23">
        <pitch>
          <step>A</step>
          <octave>4</octave>
        </pitch>
        <duration>2</duration>
        <instrument id="P1-I2"/>
        <voice>1</voice>
        <type>eighth</type>
        <stem default-y="-51">down</stem>
        <beam number="1">begin</beam>
        <notations>
          <slur bezier-x="6" bezier-y="7" default-x="5" default-y="-12" number="1" placement="above" type="start"/>
        </notations>
        <lyric default-y="-77" number="1">
          <syllabic>end</syllabic>
          <text>dorns</text>
        </lyric>
      </note>
      <note default-x="68">
        <pitch>
          <step>C</step>
          <octave>5</octave>
        </pitch>
        <duration>2</duration>
        <instrument id="P1-I2"/>
        <voice>1</voice>
        <type>eighth</type>
        <stem default-y="-45.5">down</stem>
        <beam number="1">continue</beam>
        <notations>
          <slur bezier-x="-9" bezier-y="4" default-x="5" default-y="-4" number="1" type="stop"/>
        </notations>
      </note>
      <note default-x="113">
        <pitch>
          <step>E</step>
          <octave>5</octave>
        </pitch>
        <duration>2</duration>
        <instrument id="P1-I2"/>
        <voice>1</voice>
        <type>eighth</type>
        <stem default-y="-40">down</stem>
        <beam number="1">end</beam>
        <lyric default-y="-77" number="1">
          <syllabic>single</syllabic>
          <text>Your</text>
        </lyric>
      </note>
    </measure>
    <!--=======================================================-->
    <measure number="60" width="154">
      <harmony default-y="10" font-size="6.8">
        <root>
          <root-step>D</root-step>
        </root>
        <kind halign="center" text="m">minor</kind>
      </harmony>
      <note default-x="26">
        <pitch>
          <step>D</step>
          <octave>5</octave>
        </pitch>
        <duration>2</duration>
        <instrument id="P1-I2"/>
        <voice>1</voice>
        <type>eighth</type>
        <stem default-y="-37">down</stem>
        <beam number="1">begin</beam>
        <notations>
          <slur bezier-x="8" bezier-y="5" default-x="6" default-y="1" number="1" placement="above" type="start"/>
        </notations>
        <lyric default-y="-77" number="1">
          <syllabic>single</syllabic>
          <text>house,</text>
        </lyric>
      </note>
      <note default-x="71">
        <pitch>
          <step>C</step>
          <octave>5</octave>
        </pitch>
        <duration>2</duration>
        <instrument id="P1-I2"/>
        <voice>1</voice>
        <type>eighth</type>
        <stem default-y="-42">down</stem>
        <beam number="1">continue</beam>
        <notations>
          <slur bezier-x="-7" bezier-y="6" default-x="5" default-y="-4" number="1" type="stop"/>
        </notations>
      </note>
      <note default-x="111">
        <pitch>
          <step>B</step>
          <octave>4</octave>
        </pitch>
        <duration>2</duration>
        <instrument id="P1-I2"/>
        <voice>1</voice>
        <type>eighth</type>
        <stem default-y="-47">down</stem>
        <beam number="1">end</beam>
        <lyric default-y="-77" number="1">
          <syllabic>single</syllabic>
          <text>O</text>
        </lyric>
      </note>
    </measure>
    <!--=======================================================-->
    <measure number="61" width="133">
      <harmony default-y="13" font-size="6.8">
        <root>
          <root-step>A</root-step>
        </root>
        <kind halign="center" text="m">minor</kind>
        <bass>
          <bass-step>E</bass-step>
        </bass>
      </harmony>
      <note default-x="24">
        <pitch>
          <step>C</step>
          <octave>5</octave>
        </pitch>
        <duration>4</duration>
        <instrument id="P1-I2"/>
        <voice>1</voice>
        <type>quarter</type>
        <stem default-y="-42">down</stem>
        <lyric default-y="-77" number="1">
          <syllabic>single</syllabic>
          <text>LORD,</text>
        </lyric>
      </note>
      <note default-x="77">
        <pitch>
          <step>A</step>
          <octave>4</octave>
        </pitch>
        <duration>2</duration>
        <instrument id="P1-I2"/>
        <voice>1</voice>
        <type>eighth</type>
        <stem default-y="10.5">up</stem>
        <lyric default-y="-77" number="1">
          <syllabic>begin</syllabic>
          <text>for</text>
        </lyric>
      </note>
    </measure>
    <!--=======================================================-->
    <measure number="62" width="58">
      <harmony default-y="10" font-size="6.8">
        <root>
          <root-step>E</root-step>
        </root>
        <kind halign="center" text="">major</kind>
      </harmony>
      <note default-x="13">
        <pitch>
          <step>G</step>
          <alter>1</alter>
          <octave>4</octave>
        </pitch>
        <duration>6</duration>
        <instrument id="P1-I2"/>
        <voice>1</voice>
        <type>quarter</type>
        <dot/>
        <accidental>sharp</accidental>
        <stem default-y="2">up</stem>
        <lyric default-y="-77" number="1">
          <syllabic>middle</syllabic>
          <text>ev</text>
        </lyric>
      </note>
    </measure>
    <!--=======================================================-->
    <measure number="63" width="67">
      <harmony default-y="10" font-size="6.8">
        <root>
          <root-step>A</root-step>
        </root>
        <kind halign="center" text="5">power</kind>
      </harmony>
      <note default-x="10">
        <pitch>
          <step>A</step>
          <octave>4</octave>
        </pitch>
        <duration>4</duration>
        <instrument id="P1-I2"/>
        <voice>1</voice>
        <type>quarter</type>
        <stem default-y="6">up</stem>
        <lyric default-y="-77" number="1">
          <syllabic>end</syllabic>
          <text>er.</text>
        </lyric>
      </note>
      <barline location="right">
        <bar-style>light-heavy</bar-style>
      </barline>
    </measure>
  </part>
  <!--=========================================================-->
</score-partwise>
