<?xml version="1.0" encoding="UTF-8" standalone="no"?>
<!DOCTYPE score-partwise PUBLIC "-//Recordare//DTD MusicXML 3.1 Partwise//EN" "http://www.musicxml.org/dtds/partwise.dtd">
<score-partwise version="3.1">
  <identification>
    <encoding>
      <software>Finale v25 for Windows</software>
      <encoding-date>2020-07-07</encoding-date>
      <supports attribute="new-system" element="print" type="yes" value="yes"/>
      <supports attribute="new-page" element="print" type="yes" value="yes"/>
      <supports element="accidental" type="yes"/>
      <supports element="beam" type="yes"/>
      <supports element="stem" type="yes"/>
    </encoding>
  </identification>
  <defaults>
    <scaling>
      <millimeters>6.35</millimeters>
      <tenths>40</tenths>
    </scaling>
    <page-layout>
      <page-height>1380</page-height>
      <page-width>852</page-width>
      <page-margins type="both">
        <left-margin>0</left-margin>
        <right-margin>0</right-margin>
        <top-margin>0</top-margin>
        <bottom-margin>588</bottom-margin>
      </page-margins>
    </page-layout>
    <system-layout>
      <system-margins>
        <left-margin>5</left-margin>
        <right-margin>0</right-margin>
      </system-margins>
      <system-distance>54</system-distance>
      <top-system-distance>54</top-system-distance>
    </system-layout>
    <staff-layout>
      <staff-distance>180</staff-distance>
    </staff-layout>
    <appearance>
      <line-width type="stem">0.8333</line-width>
      <line-width type="beam">4.1667</line-width>
      <line-width type="staff">0.7096</line-width>
      <line-width type="light barline">0.8333</line-width>
      <line-width type="heavy barline">5</line-width>
      <line-width type="leger">0.7292</line-width>
      <line-width type="ending">0.7682</line-width>
      <line-width type="wedge">0.8333</line-width>
      <line-width type="enclosure">0.8333</line-width>
      <line-width type="tuplet bracket">0.7292</line-width>
      <note-size type="grace">55</note-size>
      <note-size type="cue">55</note-size>
      <distance type="hyphen">83</distance>
      <distance type="beam">8</distance>
    </appearance>
    <music-font font-family="Petrucci2" font-size="18"/>
    <word-font font-family="Palatino Linotype" font-size="9"/>
    <lyric-font font-family="Palatino Linotype" font-size="9" name="verse"/>
    <lyric-font font-family="Palatino Linotype" font-size="9" name="chorus"/>
    <lyric-font font-family="Palatino Linotype" font-size="9" name="section"/>
  </defaults>
  <credit page="1">
    <credit-words default-y="588" font-size="7.5" valign="bottom" xml:space="preserve">Music: Arthur Lyon, 1917; University of Wales; 1917, alt.
Text: Fred R. Anderson, 1986; </credit-words>
    <credit-words font-size="6">©</credit-words>
    <credit-words font-size="7.5"> alt.</credit-words>
  </credit>
  <credit page="1">
    <credit-words default-x="852" default-y="588" font-size="7.5" justify="right" valign="bottom" xml:space="preserve">HAWARDEN (Lyon)
8 6. 8 6.</credit-words>
  </credit>
  <part-list>
    <part-group number="1" type="start">
      <group-symbol default-x="-2">line</group-symbol>
      <group-barline>no</group-barline>
    </part-group>
    <score-part id="P1">
      <part-name print-object="no">MusicXML Part</part-name>
      <score-instrument id="P1-I1">
        <instrument-name>MIDIOUT2 (USB2.0-MIDI)</instrument-name>
      </score-instrument>
      <midi-instrument id="P1-I1">
        <midi-channel>1</midi-channel>
        <midi-program>57</midi-program>
        <volume>80</volume>
        <pan>0</pan>
      </midi-instrument>
    </score-part>
    <score-part id="P2">
      <part-name print-object="no">MusicXML Part</part-name>
      <score-instrument id="P2-I2">
        <instrument-name>MIDIOUT2 (USB2.0-MIDI)</instrument-name>
      </score-instrument>
      <midi-instrument id="P2-I2">
        <midi-channel>2</midi-channel>
        <midi-program>58</midi-program>
        <volume>80</volume>
        <pan>0</pan>
      </midi-instrument>
    </score-part>
    <part-group number="1" type="stop"/>
  </part-list>
  <!--=========================================================-->
  <part id="P1">
    <measure implicit="yes" number="0" width="138">
      <print>
        <system-layout>
          <top-system-distance>92</top-system-distance>
        </system-layout>
        <measure-numbering>system</measure-numbering>
      </print>
      <attributes>
        <divisions>2</divisions>
        <key>
          <fifths>1</fifths>
          <mode>major</mode>
        </key>
        <time>
          <beats>4</beats>
          <beat-type>4</beat-type>
        </time>
        <clef>
          <sign>G</sign>
          <line>2</line>
        </clef>
      </attributes>
      <sound tempo="101"/>
      <note default-x="92">
        <pitch>
          <step>D</step>
          <octave>4</octave>
        </pitch>
        <duration>2</duration>
        <voice>1</voice>
        <type>quarter</type>
        <stem default-y="2">up</stem>
        <lyric default-y="-91" name="verse" number="1">
          <syllabic>single</syllabic>
          <text>1.</text>
          <elision> </elision>
          <syllabic>single</syllabic>
          <text>12</text>
          <elision> </elision>
          <syllabic>begin</syllabic>
          <text>A</text>
        </lyric>
        <lyric default-y="-112" name="verse" number="2">
          <syllabic>single</syllabic>
          <text>2.</text>
          <elision> </elision>
          <syllabic>single</syllabic>
          <text>13</text>
          <elision> </elision>
          <syllabic>single</syllabic>
          <text>Why</text>
        </lyric>
        <lyric default-y="-132" name="verse" number="3">
          <syllabic>single</syllabic>
          <text font-size="8.25" font-style="italic" font-weight="bold">3.</text>
          <elision> </elision>
          <syllabic>single</syllabic>
          <text font-size="8.25" font-style="italic" font-weight="bold">14</text>
          <elision> </elision>
          <syllabic>single</syllabic>
          <text font-size="8.25" font-style="italic" font-weight="bold">But</text>
        </lyric>
        <lyric default-y="-153" name="verse" number="4">
          <syllabic>single</syllabic>
          <text font-size="8.25" font-style="italic" font-weight="bold">4.</text>
          <elision> </elision>
          <syllabic>single</syllabic>
          <text font-size="8.25" font-style="italic" font-weight="bold"/>
          <elision> </elision>
          <syllabic>single</syllabic>
          <text font-size="8.25" font-style="italic" font-weight="bold"/>
          <elision> </elision>
          <syllabic>single</syllabic>
          <text font-size="8.25" font-style="italic" font-weight="bold">The</text>
        </lyric>
        <lyric default-y="-174" name="verse" number="5">
          <syllabic>single</syllabic>
          <text>5.</text>
          <elision> </elision>
          <syllabic>single</syllabic>
          <text>16</text>
          <elision> </elision>
          <syllabic>single</syllabic>
          <text>You,</text>
        </lyric>
        <lyric default-y="-195" name="verse" number="6">
          <syllabic>single</syllabic>
          <text>6.</text>
          <elision> </elision>
          <syllabic>single</syllabic>
          <text>17</text>
          <elision> </elision>
          <syllabic>single</syllabic>
          <text>O</text>
        </lyric>
      </note>
      <note default-x="92">
        <chord/>
        <pitch>
          <step>G</step>
          <octave>4</octave>
        </pitch>
        <duration>2</duration>
        <voice>1</voice>
        <type>quarter</type>
        <stem>up</stem>
      </note>
    </measure>
    <!--=======================================================-->
    <measure number="1" width="213">
      <note default-x="20">
        <pitch>
          <step>G</step>
          <octave>4</octave>
        </pitch>
        <duration>3</duration>
        <voice>1</voice>
        <type>quarter</type>
        <dot/>
        <stem default-y="11">up</stem>
        <lyric default-y="-91" name="verse" number="1">
          <syllabic>end</syllabic>
          <text>rise,</text>
        </lyric>
        <lyric default-y="-112" name="verse" number="2">
          <syllabic>single</syllabic>
          <text>do</text>
        </lyric>
        <lyric default-y="-132" name="verse" number="3">
          <syllabic>single</syllabic>
          <text font-size="8.25" font-style="italic" font-weight="bold">You</text>
        </lyric>
        <lyric default-y="-153" name="verse" number="4">
          <syllabic>begin</syllabic>
          <text font-size="8.25" font-style="italic" font-weight="bold">help</text>
        </lyric>
        <lyric default-y="-174" name="verse" number="5">
          <syllabic>single</syllabic>
          <text>LORD,</text>
        </lyric>
        <lyric default-y="-195" name="verse" number="6">
          <syllabic>single</syllabic>
          <text>LORD,</text>
        </lyric>
      </note>
      <note default-x="20">
        <chord/>
        <pitch>
          <step>C</step>
          <octave>5</octave>
        </pitch>
        <duration>3</duration>
        <voice>1</voice>
        <type>quarter</type>
        <dot/>
        <stem>up</stem>
      </note>
      <note default-x="68">
        <pitch>
          <step>G</step>
          <octave>4</octave>
        </pitch>
        <duration>1</duration>
        <voice>1</voice>
        <type>eighth</type>
        <stem default-y="12">up</stem>
        <lyric default-y="-91" name="verse" number="1">
          <syllabic>single</syllabic>
          <text>O</text>
        </lyric>
        <lyric default-y="-112" name="verse" number="2">
          <syllabic>single</syllabic>
          <text>the</text>
        </lyric>
        <lyric default-y="-132" name="verse" number="3">
          <syllabic>begin</syllabic>
          <text font-size="8.25" font-style="italic" font-weight="bold">ob</text>
        </lyric>
        <lyric default-y="-153" name="verse" number="4">
          <syllabic>end</syllabic>
          <text font-size="8.25" font-style="italic" font-weight="bold">less</text>
        </lyric>
        <lyric default-y="-174" name="verse" number="5">
          <syllabic>single</syllabic>
          <text>are</text>
        </lyric>
        <lyric default-y="-195" name="verse" number="6">
          <syllabic>single</syllabic>
          <text>You</text>
        </lyric>
      </note>
      <note default-x="68">
        <chord/>
        <pitch>
          <step>B</step>
          <octave>4</octave>
        </pitch>
        <duration>1</duration>
        <voice>1</voice>
        <type>eighth</type>
        <stem>up</stem>
      </note>
      <note default-x="117">
        <pitch>
          <step>E</step>
          <octave>4</octave>
        </pitch>
        <duration>2</duration>
        <voice>1</voice>
        <type>quarter</type>
        <stem default-y="7">up</stem>
        <lyric default-y="-91" name="verse" number="1">
          <syllabic>single</syllabic>
          <text>LORD!</text>
        </lyric>
        <lyric default-y="-112" name="verse" number="2">
          <syllabic>begin</syllabic>
          <text>wick</text>
        </lyric>
        <lyric default-y="-132" name="verse" number="3">
          <syllabic>end</syllabic>
          <text font-size="8.25" font-style="italic" font-weight="bold">serve,</text>
        </lyric>
        <lyric default-y="-153" name="verse" number="4">
          <syllabic>single</syllabic>
          <text font-size="8.25" font-style="italic" font-weight="bold">look</text>
        </lyric>
        <lyric default-y="-174" name="verse" number="5">
          <syllabic>begin</syllabic>
          <text>sov</text>
        </lyric>
        <lyric default-y="-195" name="verse" number="6">
          <syllabic>single</syllabic>
          <text>hear</text>
        </lyric>
      </note>
      <note default-x="117">
        <chord/>
        <pitch>
          <step>A</step>
          <octave>4</octave>
        </pitch>
        <duration>2</duration>
        <voice>1</voice>
        <type>quarter</type>
        <stem>up</stem>
      </note>
      <note default-x="170">
        <pitch>
          <step>E</step>
          <octave>4</octave>
        </pitch>
        <duration>2</duration>
        <voice>1</voice>
        <type>quarter</type>
        <stem default-y="-66">down</stem>
        <lyric default-y="-91" name="verse" number="1">
          <syllabic>single</syllabic>
          <text>Lift</text>
        </lyric>
        <lyric default-y="-112" name="verse" number="2">
          <syllabic>end</syllabic>
          <text>ed</text>
        </lyric>
        <lyric default-y="-132" name="verse" number="3">
          <syllabic>single</syllabic>
          <text font-size="8.25" font-style="italic" font-weight="bold">and</text>
        </lyric>
        <lyric default-y="-153" name="verse" number="4">
          <syllabic>single</syllabic>
          <text font-size="8.25" font-style="italic" font-weight="bold">to</text>
        </lyric>
        <lyric default-y="-174" name="verse" number="5">
          <syllabic>end</syllabic>
          <text>’reign</text>
        </lyric>
        <lyric default-y="-195" name="verse" number="6">
          <syllabic>single</syllabic>
          <text>our</text>
        </lyric>
      </note>
      <backup>
        <duration>2</duration>
      </backup>
      <note default-x="170">
        <pitch>
          <step>B</step>
          <octave>4</octave>
        </pitch>
        <duration>1</duration>
        <voice>2</voice>
        <type>eighth</type>
        <stem default-y="11">up</stem>
        <beam number="1">begin</beam>
      </note>
      <note default-x="193">
        <pitch>
          <step>C</step>
          <octave>5</octave>
        </pitch>
        <duration>1</duration>
        <voice>2</voice>
        <type>eighth</type>
        <stem default-y="16">up</stem>
        <beam number="1">end</beam>
      </note>
    </measure>
    <!--=======================================================-->
    <measure number="2" width="219">
      <note default-x="21">
        <pitch>
          <step>A</step>
          <octave>4</octave>
        </pitch>
        <duration>2</duration>
        <voice>1</voice>
        <type>quarter</type>
        <stem default-y="-51">down</stem>
        <lyric default-y="-91" name="verse" number="1">
          <syllabic>single</syllabic>
          <text>up</text>
        </lyric>
        <lyric default-y="-112" name="verse" number="2">
          <syllabic>single</syllabic>
          <text>mock</text>
        </lyric>
        <lyric default-y="-132" name="verse" number="3">
          <syllabic>single</syllabic>
          <text font-size="8.25" font-style="italic" font-weight="bold">You</text>
        </lyric>
        <lyric default-y="-153" name="verse" number="4">
          <syllabic>single</syllabic>
          <text font-size="8.25" font-style="italic" font-weight="bold">You</text>
        </lyric>
        <lyric default-y="-174" name="verse" number="5">
          <syllabic>begin</syllabic>
          <text>o</text>
        </lyric>
        <lyric default-y="-195" name="verse" number="6">
          <syllabic>single</syllabic>
          <text>cry</text>
        </lyric>
      </note>
      <backup>
        <duration>2</duration>
      </backup>
      <note default-x="21">
        <pitch>
          <step>D</step>
          <octave>5</octave>
        </pitch>
        <duration>1</duration>
        <voice>2</voice>
        <type>eighth</type>
        <stem default-y="18">up</stem>
        <beam number="1">begin</beam>
      </note>
      <note default-x="46">
        <pitch>
          <step>C</step>
          <octave>5</octave>
        </pitch>
        <duration>1</duration>
        <voice>2</voice>
        <type>eighth</type>
        <stem default-y="13">up</stem>
        <beam number="1">end</beam>
      </note>
      <note default-x="70">
        <pitch>
          <step>F</step>
          <alter>1</alter>
          <octave>4</octave>
        </pitch>
        <duration>2</duration>
        <voice>1</voice>
        <type>quarter</type>
        <stem default-y="-61">down</stem>
        <lyric default-y="-91" name="verse" number="1">
          <syllabic>single</syllabic>
          <text>Your</text>
        </lyric>
        <lyric default-y="-112" name="verse" number="2">
          <syllabic>single</syllabic>
          <text>Your</text>
        </lyric>
        <lyric default-y="-132" name="verse" number="3">
          <syllabic>single</syllabic>
          <text font-size="8.25" font-style="italic" font-weight="bold">do</text>
        </lyric>
        <lyric default-y="-153" name="verse" number="4">
          <syllabic>single</syllabic>
          <text font-size="8.25" font-style="italic" font-weight="bold">for</text>
        </lyric>
        <lyric default-y="-174" name="verse" number="5">
          <syllabic>end</syllabic>
          <text>ver</text>
        </lyric>
        <lyric default-y="-195" name="verse" number="6">
          <syllabic>single</syllabic>
          <text>for</text>
        </lyric>
      </note>
      <backup>
        <duration>2</duration>
      </backup>
      <note default-x="70">
        <pitch>
          <step>B</step>
          <octave>4</octave>
        </pitch>
        <duration>1</duration>
        <voice>2</voice>
        <type>eighth</type>
        <stem default-y="10">up</stem>
        <beam number="1">begin</beam>
      </note>
      <note default-x="100">
        <pitch>
          <step>A</step>
          <octave>4</octave>
        </pitch>
        <duration>1</duration>
        <voice>2</voice>
        <type>eighth</type>
        <stem default-y="5">up</stem>
        <beam number="1">end</beam>
      </note>
      <note default-x="129">
        <pitch>
          <step>D</step>
          <octave>4</octave>
        </pitch>
        <duration>2</duration>
        <voice>1</voice>
        <type>quarter</type>
        <stem default-y="2">up</stem>
        <lyric default-y="-91" name="verse" number="1">
          <syllabic>single</syllabic>
          <text>hand.</text>
        </lyric>
        <lyric default-y="-112" name="verse" number="2">
          <syllabic>single</syllabic>
          <text>name</text>
        </lyric>
        <lyric default-y="-132" name="verse" number="3">
          <syllabic>single</syllabic>
          <text font-size="8.25" font-style="italic" font-weight="bold">see</text>
        </lyric>
        <lyric default-y="-153" name="verse" number="4">
          <syllabic>single</syllabic>
          <text font-size="8.25" font-style="italic" font-weight="bold">strength</text>
        </lyric>
        <lyric default-y="-174" name="verse" number="5">
          <syllabic>single</syllabic>
          <text>all;</text>
        </lyric>
        <lyric default-y="-195" name="verse" number="6">
          <syllabic>single</syllabic>
          <text>help,</text>
        </lyric>
      </note>
      <note default-x="129">
        <chord/>
        <pitch>
          <step>G</step>
          <octave>4</octave>
        </pitch>
        <duration>2</duration>
        <voice>1</voice>
        <type>quarter</type>
        <stem>up</stem>
      </note>
      <note default-x="187">
        <pitch>
          <step>D</step>
          <octave>4</octave>
        </pitch>
        <duration>2</duration>
        <voice>1</voice>
        <type>quarter</type>
        <stem default-y="12">up</stem>
        <lyric default-y="-91" name="verse" number="1" relative-x="5">
          <syllabic>single</syllabic>
          <text>Our</text>
        </lyric>
        <lyric default-y="-112" name="verse" number="2" relative-x="5">
          <syllabic>single</syllabic>
          <text>And</text>
        </lyric>
        <lyric default-y="-132" name="verse" number="3" relative-x="5">
          <syllabic>single</syllabic>
          <text font-size="8.25" font-style="italic" font-weight="bold">Our</text>
        </lyric>
        <lyric default-y="-153" name="verse" number="4" relative-x="5">
          <syllabic>single</syllabic>
          <text font-size="8.25" font-style="italic" font-weight="bold">To</text>
        </lyric>
        <lyric default-y="-174" name="verse" number="5" relative-x="5">
          <syllabic>single</syllabic>
          <text>Just</text>
        </lyric>
        <lyric default-y="-195" name="verse" number="6" relative-x="5">
          <syllabic>single</syllabic>
          <text>On</text>
        </lyric>
      </note>
      <note default-x="187">
        <chord/>
        <pitch>
          <step>B</step>
          <octave>4</octave>
        </pitch>
        <duration>2</duration>
        <voice>1</voice>
        <type>quarter</type>
        <stem>up</stem>
      </note>
    </measure>
    <!--=======================================================-->
    <measure number="3" width="277">
      <note default-x="22">
        <pitch>
          <step>C</step>
          <octave>4</octave>
        </pitch>
        <duration>2</duration>
        <voice>1</voice>
        <type>quarter</type>
        <stem default-y="-8">up</stem>
        <lyric default-y="-91" name="verse" number="1">
          <syllabic>single</syllabic>
          <text>pain</text>
        </lyric>
        <lyric default-y="-112" name="verse" number="2">
          <syllabic>single</syllabic>
          <text>claim</text>
        </lyric>
        <lyric default-y="-132" name="verse" number="3">
          <syllabic>begin</syllabic>
          <text font-size="8.25" font-style="italic" font-weight="bold">trou</text>
        </lyric>
        <lyric default-y="-153" name="verse" number="4">
          <syllabic>begin</syllabic>
          <text font-size="8.25" font-style="italic" font-weight="bold">shat</text>
        </lyric>
        <lyric default-y="-174" name="verse" number="5">
          <syllabic>single</syllabic>
          <text>rule</text>
        </lyric>
        <lyric default-y="-195" name="verse" number="6">
          <syllabic>single</syllabic>
          <text>You</text>
        </lyric>
      </note>
      <note default-x="22">
        <chord/>
        <pitch>
          <step>E</step>
          <octave>4</octave>
        </pitch>
        <duration>2</duration>
        <voice>1</voice>
        <type>quarter</type>
        <stem>up</stem>
      </note>
      <note default-x="71">
        <pitch>
          <step>E</step>
          <octave>4</octave>
        </pitch>
        <duration>2</duration>
        <voice>1</voice>
        <type>quarter</type>
        <stem default-y="-66">down</stem>
        <lyric default-y="-91" name="verse" number="1">
          <syllabic>single</syllabic>
          <text>and</text>
        </lyric>
        <lyric default-y="-112" name="verse" number="2">
          <syllabic>single</syllabic>
          <text>You</text>
        </lyric>
        <lyric default-y="-132" name="verse" number="3">
          <syllabic>end</syllabic>
          <text font-size="8.25" font-style="italic" font-weight="bold">ble</text>
        </lyric>
        <lyric default-y="-153" name="verse" number="4">
          <syllabic>end</syllabic>
          <text font-size="8.25" font-style="italic" font-weight="bold">ter</text>
        </lyric>
        <lyric default-y="-174" name="verse" number="5">
          <syllabic>single</syllabic>
          <text>is</text>
        </lyric>
        <lyric default-y="-195" name="verse" number="6">
          <syllabic>single</syllabic>
          <text>we</text>
        </lyric>
      </note>
      <backup>
        <duration>2</duration>
      </backup>
      <note default-x="62">
        <pitch>
          <step>F</step>
          <alter>1</alter>
          <octave>4</octave>
        </pitch>
        <duration>1</duration>
        <voice>2</voice>
        <type>eighth</type>
        <stem default-y="-4">up</stem>
        <beam number="1">begin</beam>
      </note>
      <note default-x="94">
        <pitch>
          <step>G</step>
          <octave>4</octave>
        </pitch>
        <duration>1</duration>
        <voice>2</voice>
        <type>eighth</type>
        <stem default-y="1">up</stem>
        <beam number="1">end</beam>
      </note>
      <note default-x="120">
        <pitch>
          <step>E</step>
          <octave>4</octave>
        </pitch>
        <duration>2</duration>
        <voice>1</voice>
        <type>quarter</type>
        <stem default-y="7">up</stem>
        <lyric default-y="-91" name="verse" number="1">
          <syllabic>single</syllabic>
          <text>hurt</text>
        </lyric>
        <lyric default-y="-112" name="verse" number="2">
          <syllabic>single</syllabic>
          <text>have</text>
        </lyric>
        <lyric default-y="-132" name="verse" number="3">
          <syllabic>single</syllabic>
          <text font-size="8.25" font-style="italic" font-weight="bold">and</text>
        </lyric>
        <lyric default-y="-153" name="verse" number="4">
          <syllabic>begin</syllabic>
          <text font-size="8.25" font-style="italic" font-weight="bold">e</text>
        </lyric>
        <lyric default-y="-174" name="verse" number="5" relative-x="-2">
          <syllabic>single</syllabic>
          <text>Your</text>
        </lyric>
        <lyric default-y="-195" name="verse" number="6">
          <syllabic>single</syllabic>
          <text>can</text>
        </lyric>
      </note>
      <note default-x="120">
        <chord/>
        <pitch>
          <step>A</step>
          <octave>4</octave>
        </pitch>
        <duration>2</duration>
        <voice>1</voice>
        <type>quarter</type>
        <stem>up</stem>
      </note>
      <note default-x="158">
        <pitch>
          <step>D</step>
          <alter>1</alter>
          <octave>4</octave>
        </pitch>
        <duration>2</duration>
        <voice>1</voice>
        <type>quarter</type>
        <accidental>sharp</accidental>
        <stem default-y="-71">down</stem>
        <lyric default-y="-91" name="verse" number="1">
          <syllabic>begin</syllabic>
          <text>re</text>
        </lyric>
        <lyric default-y="-112" name="verse" number="2">
          <syllabic>single</syllabic>
          <text>no</text>
        </lyric>
        <lyric default-y="-132" name="verse" number="3">
          <syllabic>single</syllabic>
          <text font-size="8.25" font-style="italic" font-weight="bold">our</text>
        </lyric>
        <lyric default-y="-153" name="verse" number="4">
          <syllabic>end</syllabic>
          <text font-size="8.25" font-style="italic" font-weight="bold">vil’s</text>
        </lyric>
        <lyric default-y="-174" name="verse" number="5" relative-x="5">
          <syllabic>begin</syllabic>
          <text>com</text>
        </lyric>
        <lyric default-y="-195" name="verse" number="6">
          <syllabic>begin</syllabic>
          <text>re</text>
        </lyric>
      </note>
      <backup>
        <duration>2</duration>
      </backup>
      <note default-x="158">
        <pitch>
          <step>G</step>
          <octave>4</octave>
        </pitch>
        <duration>1</duration>
        <voice>2</voice>
        <type>eighth</type>
        <stem default-y="1">up</stem>
        <beam number="1">begin</beam>
      </note>
      <note default-x="180">
        <pitch>
          <step>F</step>
          <alter>1</alter>
          <octave>4</octave>
        </pitch>
        <duration>1</duration>
        <voice>2</voice>
        <type>eighth</type>
        <stem default-y="-4">up</stem>
        <beam number="1">end</beam>
      </note>
    </measure>
    <!--=======================================================-->
    <measure number="4" width="848">
      <print new-system="yes"/>
      <note default-x="798">
        <pitch>
          <step>B</step>
          <octave>3</octave>
        </pitch>
        <duration>6</duration>
        <voice>1</voice>
        <type>half</type>
        <dot/>
        <stem default-y="-8">up</stem>
        <lyric default-y="-91" name="verse" number="1">
          <syllabic>end</syllabic>
          <text>dress.</text>
        </lyric>
        <lyric default-y="-112" name="verse" number="2">
          <syllabic>single</syllabic>
          <text>pow’r?</text>
        </lyric>
        <lyric default-y="-132" name="verse" number="3">
          <syllabic>single</syllabic>
          <text font-size="8.25" font-style="italic" font-weight="bold">grief.</text>
        </lyric>
        <lyric default-y="-153" name="verse" number="4">
          <syllabic>single</syllabic>
          <text font-size="8.25" font-style="italic" font-weight="bold">wrong.</text>
        </lyric>
        <lyric default-y="-174" name="verse" number="5">
          <syllabic>end</syllabic>
          <text>mand.</text>
        </lyric>
        <lyric default-y="-195" name="verse" number="6">
          <syllabic>end</syllabic>
          <text>ly.</text>
        </lyric>
      </note>
      <note default-x="798">
        <chord/>
        <pitch>
          <step>E</step>
          <octave>4</octave>
        </pitch>
        <duration>6</duration>
        <voice>1</voice>
        <type>half</type>
        <dot/>
        <stem>up</stem>
      </note>
      <note default-x="58">
        <pitch>
          <step>B</step>
          <octave>3</octave>
        </pitch>
        <duration>2</duration>
        <voice>1</voice>
        <type>quarter</type>
        <stem default-y="-350.5">up</stem>
        <lyric default-y="-91" name="verse" number="1">
          <syllabic>single</syllabic>
          <text>Your</text>
        </lyric>
        <lyric default-y="-112" name="verse" number="2">
          <syllabic>single</syllabic>
          <text>They</text>
        </lyric>
        <lyric default-y="-132" name="verse" number="3">
          <syllabic>single</syllabic>
          <text font-size="8.25" font-style="italic" font-weight="bold">You</text>
        </lyric>
        <lyric default-y="-153" name="verse" number="4" relative-x="-10">
          <syllabic>single</syllabic>
          <text font-size="4.5">15</text>
          <elision> </elision>
          <syllabic>single</syllabic>
          <text font-size="4.5">Oh,</text>
        </lyric>
        <lyric default-y="-174" name="verse" number="5">
          <syllabic>single</syllabic>
          <text>All</text>
        </lyric>
        <lyric default-y="-195" name="verse" number="6" relative-x="-10">
          <syllabic>single</syllabic>
          <text font-size="4.5">18</text>
          <elision> </elision>
          <syllabic>single</syllabic>
          <text font-size="4.5">You</text>
        </lyric>
      </note>
      <note default-x="58">
        <chord/>
        <pitch>
          <step>D</step>
          <octave>4</octave>
        </pitch>
        <duration>2</duration>
        <voice>1</voice>
        <type>quarter</type>
        <stem>up</stem>
      </note>
    </measure>
    <!--=======================================================-->
    <measure number="5">
      <note default-x="-731">
        <pitch>
          <step>E</step>
          <octave>4</octave>
        </pitch>
        <duration>3</duration>
        <voice>1</voice>
        <type>quarter</type>
        <dot/>
        <stem default-y="2">up</stem>
        <lyric default-y="-91" name="verse" number="1">
          <syllabic>begin</syllabic>
          <text>faith</text>
        </lyric>
        <lyric default-y="-112" name="verse" number="2">
          <syllabic>single</syllabic>
          <text>tell</text>
        </lyric>
        <lyric default-y="-132" name="verse" number="3">
          <syllabic>single</syllabic>
          <text font-size="8.25" font-style="italic" font-weight="bold">take</text>
        </lyric>
        <lyric default-y="-153" name="verse" number="4">
          <syllabic>single</syllabic>
          <text font-size="8.25" font-style="italic" font-weight="bold">break</text>
        </lyric>
        <lyric default-y="-174" name="verse" number="5">
          <syllabic>begin</syllabic>
          <text>god</text>
        </lyric>
        <lyric default-y="-195" name="verse" number="6">
          <syllabic>single</syllabic>
          <text>give</text>
        </lyric>
      </note>
      <note default-x="-731">
        <chord/>
        <pitch>
          <step>G</step>
          <octave>4</octave>
        </pitch>
        <duration>3</duration>
        <voice>1</voice>
        <type>quarter</type>
        <dot/>
        <stem>up</stem>
      </note>
      <note default-x="-679">
        <pitch>
          <step>E</step>
          <octave>4</octave>
        </pitch>
        <duration>1</duration>
        <voice>1</voice>
        <type>eighth</type>
        <stem default-y="2">up</stem>
        <lyric default-y="-91" name="verse" number="1">
          <syllabic>end</syllabic>
          <text>ful</text>
        </lyric>
        <lyric default-y="-112" name="verse" number="2">
          <syllabic>begin</syllabic>
          <text>them</text>
        </lyric>
        <lyric default-y="-132" name="verse" number="3">
          <syllabic>single</syllabic>
          <text font-size="8.25" font-style="italic" font-weight="bold">it</text>
        </lyric>
        <lyric default-y="-153" name="verse" number="4">
          <syllabic>single</syllabic>
          <text font-size="8.25" font-style="italic" font-weight="bold">the</text>
        </lyric>
        <lyric default-y="-174" name="verse" number="5">
          <syllabic>end</syllabic>
          <text>less</text>
        </lyric>
        <lyric default-y="-195" name="verse" number="6">
          <syllabic>single</syllabic>
          <text>us</text>
        </lyric>
      </note>
      <note default-x="-679">
        <chord/>
        <pitch>
          <step>G</step>
          <octave>4</octave>
        </pitch>
        <duration>1</duration>
        <voice>1</voice>
        <type>eighth</type>
        <stem>up</stem>
      </note>
      <note default-x="-625">
        <pitch>
          <step>E</step>
          <octave>4</octave>
        </pitch>
        <duration>2</duration>
        <voice>1</voice>
        <type>quarter</type>
        <stem default-y="2">up</stem>
        <lyric default-y="-91" name="verse" number="1">
          <syllabic>single</syllabic>
          <text>look</text>
        </lyric>
        <lyric default-y="-112" name="verse" number="2" relative-x="4">
          <syllabic>end</syllabic>
          <text>selves</text>
        </lyric>
        <lyric default-y="-132" name="verse" number="3">
          <syllabic>single</syllabic>
          <text font-size="8.25" font-style="italic" font-weight="bold">well</text>
        </lyric>
        <lyric default-y="-153" name="verse" number="4">
          <syllabic>single</syllabic>
          <text font-size="8.25" font-style="italic" font-weight="bold">grip</text>
        </lyric>
        <lyric default-y="-174" name="verse" number="5">
          <syllabic>begin</syllabic>
          <text>peo</text>
        </lyric>
        <lyric default-y="-195" name="verse" number="6">
          <syllabic>single</syllabic>
          <text>strength</text>
        </lyric>
      </note>
      <note default-x="-625">
        <chord/>
        <pitch>
          <step>G</step>
          <octave>4</octave>
        </pitch>
        <duration>2</duration>
        <voice>1</voice>
        <type>quarter</type>
        <stem>up</stem>
      </note>
      <note default-x="-570">
        <pitch>
          <step>E</step>
          <octave>4</octave>
        </pitch>
        <duration>2</duration>
        <voice>1</voice>
        <type>quarter</type>
        <stem default-y="-66">down</stem>
        <lyric default-y="-91" name="verse" number="1">
          <syllabic>single</syllabic>
          <text>to</text>
        </lyric>
        <lyric default-y="-112" name="verse" number="2">
          <syllabic>single</syllabic>
          <text>You</text>
        </lyric>
        <lyric default-y="-132" name="verse" number="3">
          <syllabic>single</syllabic>
          <text font-size="8.25" font-style="italic" font-weight="bold">in</text>
        </lyric>
        <lyric default-y="-153" name="verse" number="4">
          <syllabic>single</syllabic>
          <text font-size="8.25" font-style="italic" font-weight="bold">of</text>
        </lyric>
        <lyric default-y="-174" name="verse" number="5">
          <syllabic>end</syllabic>
          <text>ple</text>
        </lyric>
        <lyric default-y="-195" name="verse" number="6">
          <syllabic>single</syllabic>
          <text>so</text>
        </lyric>
      </note>
      <backup>
        <duration>2</duration>
      </backup>
      <note default-x="-570">
        <pitch>
          <step>A</step>
          <octave>4</octave>
        </pitch>
        <duration>1</duration>
        <voice>2</voice>
        <type>eighth</type>
        <stem default-y="7">up</stem>
        <beam number="1">begin</beam>
      </note>
      <note default-x="-544">
        <pitch>
          <step>B</step>
          <octave>4</octave>
        </pitch>
        <duration>1</duration>
        <voice>2</voice>
        <type>eighth</type>
        <stem default-y="12">up</stem>
        <beam number="1">end</beam>
      </note>
    </measure>
    <!--=======================================================-->
    <measure number="6">
      <note>
        <pitch>
          <step>A</step>
          <octave>4</octave>
        </pitch>
        <duration>2</duration>
        <voice>1</voice>
        <type>quarter</type>
        <stem default-y="-51">down</stem>
        <lyric default-y="-91" name="verse" number="1">
          <syllabic>single</syllabic>
          <text>You</text>
        </lyric>
        <lyric default-y="-112" name="verse" number="2">
          <syllabic>single</syllabic>
          <text>take</text>
        </lyric>
        <lyric default-y="-132" name="verse" number="3">
          <syllabic>single</syllabic>
          <text font-size="8.25" font-style="italic" font-weight="bold">hand,</text>
        </lyric>
        <lyric default-y="-153" name="verse" number="4">
          <syllabic>begin</syllabic>
          <text font-size="8.25" font-style="italic" font-weight="bold">wick</text>
        </lyric>
        <lyric default-y="-174" name="verse" number="5">
          <syllabic>single</syllabic>
          <text>here</text>
        </lyric>
        <lyric default-y="-195" name="verse" number="6">
          <syllabic>single</syllabic>
          <text>none</text>
        </lyric>
      </note>
      <backup>
        <duration>2</duration>
      </backup>
      <note>
        <pitch>
          <step>C</step>
          <octave>5</octave>
        </pitch>
        <duration>1</duration>
        <voice>2</voice>
        <type>eighth</type>
        <stem default-y="14">up</stem>
        <beam number="1">begin</beam>
      </note>
      <note>
        <pitch>
          <step>B</step>
          <octave>4</octave>
        </pitch>
        <duration>1</duration>
        <voice>2</voice>
        <type>eighth</type>
        <stem default-y="9">up</stem>
        <beam number="1">end</beam>
      </note>
      <note>
        <pitch>
          <step>E</step>
          <octave>4</octave>
        </pitch>
        <duration>2</duration>
        <voice>1</voice>
        <type>quarter</type>
        <stem default-y="-66">down</stem>
        <lyric default-y="-91" name="verse" number="1">
          <syllabic>single</syllabic>
          <text>for</text>
        </lyric>
        <lyric default-y="-112" name="verse" number="2">
          <syllabic>single</syllabic>
          <text>no</text>
        </lyric>
        <lyric default-y="-132" name="verse" number="3">
          <syllabic>single</syllabic>
          <text font-size="8.25" font-style="italic" font-weight="bold">O</text>
        </lyric>
        <lyric default-y="-153" name="verse" number="4">
          <syllabic>end</syllabic>
          <text font-size="8.25" font-style="italic" font-weight="bold">ed</text>
        </lyric>
        <lyric default-y="-174" name="verse" number="5">
          <syllabic>single</syllabic>
          <text>on</text>
        </lyric>
        <lyric default-y="-195" name="verse" number="6">
          <syllabic>single</syllabic>
          <text>on</text>
        </lyric>
      </note>
      <backup>
        <duration>2</duration>
      </backup>
      <note>
        <pitch>
          <step>A</step>
          <octave>4</octave>
        </pitch>
        <duration>1</duration>
        <voice>2</voice>
        <type>eighth</type>
        <stem default-y="4">up</stem>
        <beam number="1">begin</beam>
      </note>
      <note>
        <pitch>
          <step>G</step>
          <octave>4</octave>
        </pitch>
        <duration>1</duration>
        <voice>2</voice>
        <type>eighth</type>
        <stem default-y="-1">up</stem>
        <beam number="1">end</beam>
      </note>
      <note>
        <pitch>
          <step>D</step>
          <octave>4</octave>
        </pitch>
        <duration>2</duration>
        <voice>1</voice>
        <type>quarter</type>
        <stem default-y="-3">up</stem>
        <lyric default-y="-91" name="verse" number="1">
          <syllabic>single</syllabic>
          <text>help;</text>
        </lyric>
        <lyric default-y="-112" name="verse" number="2">
          <syllabic>single</syllabic>
          <text>count</text>
        </lyric>
        <lyric default-y="-132" name="verse" number="3">
          <syllabic>single</syllabic>
          <text font-size="8.25" font-style="italic" font-weight="bold">Lord,</text>
        </lyric>
        <lyric default-y="-153" name="verse" number="4">
          <syllabic>single</syllabic>
          <text font-size="8.25" font-style="italic" font-weight="bold">ones</text>
        </lyric>
        <lyric default-y="-174" name="verse" number="5">
          <syllabic>single</syllabic>
          <text>earth</text>
        </lyric>
        <lyric default-y="-195" name="verse" number="6">
          <syllabic>single</syllabic>
          <text>earth</text>
        </lyric>
      </note>
      <note>
        <chord/>
        <pitch>
          <step>F</step>
          <alter>1</alter>
          <octave>4</octave>
        </pitch>
        <duration>2</duration>
        <voice>1</voice>
        <type>quarter</type>
        <stem>up</stem>
      </note>
      <note>
        <pitch>
          <step>D</step>
          <octave>4</octave>
        </pitch>
        <duration>2</duration>
        <voice>1</voice>
        <type>quarter</type>
        <stem>double</stem>
        <lyric default-y="-91" name="verse" number="1" relative-x="10">
          <syllabic>single</syllabic>
          <text>Come</text>
        </lyric>
        <lyric default-y="-112" name="verse" number="2" relative-x="10">
          <syllabic>single</syllabic>
          <text>Of</text>
        </lyric>
        <lyric default-y="-132" name="verse" number="3" relative-x="10">
          <syllabic>single</syllabic>
          <text font-size="8.25" font-style="italic" font-weight="bold">To</text>
        </lyric>
        <lyric default-y="-153" name="verse" number="4" relative-x="10">
          <syllabic>single</syllabic>
          <text font-size="8.25" font-style="italic" font-weight="bold">Till</text>
        </lyric>
        <lyric default-y="-174" name="verse" number="5" relative-x="10">
          <syllabic>single</syllabic>
          <text>Will</text>
        </lyric>
        <lyric default-y="-195" name="verse" number="6" relative-x="10">
          <syllabic>single</syllabic>
          <text>Shall</text>
        </lyric>
      </note>
    </measure>
    <!--=======================================================-->
    <measure number="7">
      <note>
        <pitch>
          <step>E</step>
          <octave>5</octave>
        </pitch>
        <duration>2</duration>
        <voice>1</voice>
        <type>quarter</type>
        <stem default-y="22">up</stem>
        <lyric default-y="-91" name="verse" number="1">
          <syllabic>single</syllabic>
          <text>heal</text>
        </lyric>
        <lyric default-y="-112" name="verse" number="2">
          <syllabic>begin</syllabic>
          <text>e</text>
        </lyric>
        <lyric default-y="-132" name="verse" number="3">
          <syllabic>single</syllabic>
          <text font-size="8.25" font-style="italic" font-weight="bold">give</text>
        </lyric>
        <lyric default-y="-153" name="verse" number="4">
          <syllabic>single</syllabic>
          <text font-size="8.25" font-style="italic" font-weight="bold">all</text>
        </lyric>
        <lyric default-y="-174" name="verse" number="5">
          <syllabic>begin</syllabic>
          <text>per</text>
        </lyric>
        <lyric default-y="-195" name="verse" number="6">
          <syllabic>single</syllabic>
          <text>harm</text>
        </lyric>
      </note>
      <backup>
        <duration>2</duration>
      </backup>
      <note>
        <pitch>
          <step>E</step>
          <octave>4</octave>
        </pitch>
        <duration>1</duration>
        <voice>2</voice>
        <type>eighth</type>
        <stem default-y="-67">down</stem>
        <beam number="1">begin</beam>
      </note>
      <note>
        <pitch>
          <step>F</step>
          <alter>1</alter>
          <octave>4</octave>
        </pitch>
        <duration>1</duration>
        <voice>2</voice>
        <type>eighth</type>
        <stem default-y="-62">down</stem>
        <beam number="1">end</beam>
      </note>
      <note>
        <pitch>
          <step>G</step>
          <octave>4</octave>
        </pitch>
        <duration>2</duration>
        <voice>1</voice>
        <type>quarter</type>
        <stem default-y="-56">down</stem>
        <lyric default-y="-91" name="verse" number="1">
          <syllabic>single</syllabic>
          <text>our</text>
        </lyric>
        <lyric default-y="-112" name="verse" number="2">
          <syllabic>end</syllabic>
          <text>vil</text>
        </lyric>
        <lyric default-y="-132" name="verse" number="3">
          <syllabic>single</syllabic>
          <text font-size="8.25" font-style="italic" font-weight="bold">Your</text>
        </lyric>
        <lyric default-y="-153" name="verse" number="4">
          <syllabic>single</syllabic>
          <text font-size="8.25" font-style="italic" font-weight="bold">their</text>
        </lyric>
        <lyric default-y="-174" name="verse" number="5">
          <syllabic>end</syllabic>
          <text>ish</text>
        </lyric>
        <lyric default-y="-195" name="verse" number="6">
          <syllabic>single</syllabic>
          <text>or</text>
        </lyric>
      </note>
      <note>
        <chord/>
        <pitch>
          <step>D</step>
          <octave>5</octave>
        </pitch>
        <duration>2</duration>
        <voice>1</voice>
        <type>quarter</type>
        <stem>down</stem>
      </note>
      <note>
        <pitch>
          <step>G</step>
          <octave>4</octave>
        </pitch>
        <duration>2</duration>
        <voice>1</voice>
        <type>quarter</type>
        <stem>double</stem>
        <lyric default-y="-91" name="verse" number="1">
          <syllabic>begin</syllabic>
          <text>pres</text>
        </lyric>
        <lyric default-y="-112" name="verse" number="2">
          <syllabic>single</syllabic>
          <text>in</text>
        </lyric>
        <lyric default-y="-132" name="verse" number="3">
          <syllabic>single</syllabic>
          <text font-size="8.25" font-style="italic" font-weight="bold">saints</text>
        </lyric>
        <lyric default-y="-153" name="verse" number="4">
          <syllabic>single</syllabic>
          <text font-size="8.25" font-style="italic" font-weight="bold">work</text>
        </lyric>
        <lyric default-y="-174" name="verse" number="5">
          <syllabic>single</syllabic>
          <text>from</text>
        </lyric>
        <lyric default-y="-195" name="verse" number="6">
          <syllabic>begin</syllabic>
          <text>ter</text>
        </lyric>
      </note>
      <note>
        <pitch>
          <step>F</step>
          <alter>1</alter>
          <octave>4</octave>
        </pitch>
        <duration>2</duration>
        <voice>1</voice>
        <type>quarter</type>
        <stem default-y="-61">down</stem>
        <lyric default-y="-91" name="verse" number="1">
          <syllabic>end</syllabic>
          <text>ent</text>
        </lyric>
        <lyric default-y="-112" name="verse" number="2">
          <syllabic>single</syllabic>
          <text>this</text>
        </lyric>
        <lyric default-y="-132" name="verse" number="3">
          <syllabic>begin</syllabic>
          <text font-size="8.25" font-style="italic" font-weight="bold">re</text>
        </lyric>
        <lyric default-y="-153" name="verse" number="4">
          <syllabic>single</syllabic>
          <text font-size="8.25" font-style="italic" font-weight="bold">is</text>
        </lyric>
        <lyric default-y="-174" name="verse" number="5">
          <syllabic>single</syllabic>
          <text>the</text>
        </lyric>
        <lyric default-y="-195" name="verse" number="6">
          <syllabic>middle</syllabic>
          <text>ri</text>
        </lyric>
      </note>
      <backup>
        <duration>2</duration>
      </backup>
      <note>
        <pitch>
          <step>B</step>
          <octave>4</octave>
        </pitch>
        <duration>1</duration>
        <voice>2</voice>
        <type>eighth</type>
        <stem default-y="12">up</stem>
        <beam number="1">begin</beam>
      </note>
      <note>
        <pitch>
          <step>A</step>
          <octave>4</octave>
        </pitch>
        <duration>1</duration>
        <voice>2</voice>
        <type>eighth</type>
        <stem default-y="7">up</stem>
        <beam number="1">end</beam>
      </note>
    </measure>
    <!--=======================================================-->
    <measure number="8">
      <note>
        <pitch>
          <step>G</step>
          <octave>4</octave>
        </pitch>
        <duration>6</duration>
        <voice>1</voice>
        <type>half</type>
        <dot/>
        <stem>double</stem>
        <lyric default-y="-91" name="verse" number="1">
          <syllabic>single</syllabic>
          <text>stress.</text>
        </lyric>
        <lyric default-y="-112" name="verse" number="2">
          <syllabic>single</syllabic>
          <text>hour.</text>
        </lyric>
        <lyric default-y="-132" name="verse" number="3">
          <syllabic>end</syllabic>
          <text font-size="8.25" font-style="italic" font-weight="bold">lief.</text>
        </lyric>
        <lyric default-y="-153" name="verse" number="4">
          <syllabic>single</syllabic>
          <text font-size="8.25" font-style="italic" font-weight="bold">gone.</text>
        </lyric>
        <lyric default-y="-174" name="verse" number="5">
          <syllabic>single</syllabic>
          <text>land.</text>
        </lyric>
        <lyric default-y="-195" name="verse" number="6">
          <syllabic>end</syllabic>
          <text>fy.</text>
        </lyric>
      </note>
      <barline location="right">
        <bar-style>light-heavy</bar-style>
      </barline>
    </measure>
  </part>
  <!--=========================================================-->
  <part id="P2">
    <measure implicit="yes" number="0" width="138">
      <print>
        <staff-layout number="1">
          <staff-distance>203</staff-distance>
        </staff-layout>
        <measure-numbering>none</measure-numbering>
      </print>
      <attributes>
        <divisions>2</divisions>
        <key>
          <fifths>1</fifths>
          <mode>major</mode>
        </key>
        <time>
          <beats>4</beats>
          <beat-type>4</beat-type>
        </time>
        <clef>
          <sign>F</sign>
          <line>4</line>
        </clef>
      </attributes>
      <sound tempo="101"/>
      <note default-x="92">
        <pitch>
          <step>G</step>
          <octave>3</octave>
        </pitch>
        <duration>2</duration>
        <voice>1</voice>
        <type>quarter</type>
        <stem default-y="-36.5">down</stem>
      </note>
      <note default-x="92">
        <chord/>
        <pitch>
          <step>B</step>
          <octave>3</octave>
        </pitch>
        <duration>2</duration>
        <voice>1</voice>
        <type>quarter</type>
        <stem>down</stem>
      </note>
    </measure>
    <!--=======================================================-->
    <measure number="1" width="213">
      <note default-x="20">
        <pitch>
          <step>E</step>
          <octave>3</octave>
        </pitch>
        <duration>3</duration>
        <voice>1</voice>
        <type>quarter</type>
        <dot/>
        <stem default-y="-46.5">down</stem>
      </note>
      <note default-x="20">
        <chord/>
        <pitch>
          <step>C</step>
          <octave>4</octave>
        </pitch>
        <duration>3</duration>
        <voice>1</voice>
        <type>quarter</type>
        <dot/>
        <stem>down</stem>
      </note>
      <note default-x="68">
        <pitch>
          <step>G</step>
          <octave>3</octave>
        </pitch>
        <duration>1</duration>
        <voice>1</voice>
        <type>eighth</type>
        <stem default-y="-36.5">down</stem>
      </note>
      <note default-x="68">
        <chord/>
        <pitch>
          <step>D</step>
          <octave>4</octave>
        </pitch>
        <duration>1</duration>
        <voice>1</voice>
        <type>eighth</type>
        <stem>down</stem>
      </note>
      <note default-x="117">
        <pitch>
          <step>C</step>
          <octave>4</octave>
        </pitch>
        <duration>2</duration>
        <voice>1</voice>
        <type>quarter</type>
        <stem default-y="-21.5">down</stem>
      </note>
      <note default-x="117">
        <chord/>
        <pitch>
          <step>E</step>
          <octave>4</octave>
        </pitch>
        <duration>2</duration>
        <voice>1</voice>
        <type>quarter</type>
        <stem>down</stem>
      </note>
      <note default-x="170">
        <pitch>
          <step>A</step>
          <octave>3</octave>
        </pitch>
        <duration>2</duration>
        <voice>1</voice>
        <type>quarter</type>
        <stem default-y="-31.5">down</stem>
      </note>
      <note default-x="170">
        <chord/>
        <pitch>
          <step>C</step>
          <octave>4</octave>
        </pitch>
        <duration>2</duration>
        <voice>1</voice>
        <type>quarter</type>
        <stem>down</stem>
      </note>
    </measure>
    <!--=======================================================-->
    <measure number="2" width="219">
      <note default-x="21">
        <pitch>
          <step>F</step>
          <alter>1</alter>
          <octave>3</octave>
        </pitch>
        <duration>2</duration>
        <voice>1</voice>
        <type>quarter</type>
        <stem default-y="-41.5">down</stem>
      </note>
      <note default-x="21">
        <chord/>
        <pitch>
          <step>A</step>
          <octave>3</octave>
        </pitch>
        <duration>2</duration>
        <voice>1</voice>
        <type>quarter</type>
        <stem>down</stem>
      </note>
      <note default-x="70">
        <pitch>
          <step>D</step>
          <octave>3</octave>
        </pitch>
        <duration>2</duration>
        <voice>1</voice>
        <type>quarter</type>
        <stem default-y="-51.5">down</stem>
      </note>
      <backup>
        <duration>2</duration>
      </backup>
      <note default-x="70">
        <pitch>
          <step>D</step>
          <octave>4</octave>
        </pitch>
        <duration>1</duration>
        <voice>2</voice>
        <type>eighth</type>
        <stem default-y="41">up</stem>
        <beam number="1">begin</beam>
      </note>
      <note default-x="100">
        <pitch>
          <step>C</step>
          <octave>4</octave>
        </pitch>
        <duration>1</duration>
        <voice>2</voice>
        <type>eighth</type>
        <stem default-y="36">up</stem>
        <beam number="1">end</beam>
      </note>
      <note default-x="129">
        <pitch>
          <step>G</step>
          <octave>3</octave>
        </pitch>
        <duration>2</duration>
        <voice>1</voice>
        <type>quarter</type>
        <stem default-y="-36.5">down</stem>
      </note>
      <note default-x="129">
        <chord/>
        <pitch>
          <step>B</step>
          <octave>3</octave>
        </pitch>
        <duration>2</duration>
        <voice>1</voice>
        <type>quarter</type>
        <stem>down</stem>
      </note>
      <note default-x="187">
        <pitch>
          <step>G</step>
          <octave>2</octave>
        </pitch>
        <duration>2</duration>
        <voice>1</voice>
        <type>quarter</type>
        <stem default-y="21">up</stem>
      </note>
      <note default-x="187">
        <chord/>
        <pitch>
          <step>G</step>
          <octave>3</octave>
        </pitch>
        <duration>2</duration>
        <voice>1</voice>
        <type>quarter</type>
        <stem>up</stem>
      </note>
    </measure>
    <!--=======================================================-->
    <measure number="3" width="277">
      <note default-x="22">
        <pitch>
          <step>C</step>
          <octave>3</octave>
        </pitch>
        <duration>2</duration>
        <voice>1</voice>
        <type>quarter</type>
        <stem default-y="-51">down</stem>
      </note>
      <note default-x="22">
        <chord/>
        <pitch>
          <step>G</step>
          <octave>3</octave>
        </pitch>
        <duration>2</duration>
        <voice>1</voice>
        <type>quarter</type>
        <stem>down</stem>
      </note>
      <note default-x="66">
        <pitch>
          <step>C</step>
          <octave>3</octave>
        </pitch>
        <duration>1</duration>
        <voice>1</voice>
        <type>eighth</type>
        <stem default-y="-56">down</stem>
        <beam number="1">begin</beam>
      </note>
      <note default-x="66">
        <chord/>
        <pitch>
          <step>A</step>
          <octave>3</octave>
        </pitch>
        <duration>1</duration>
        <voice>1</voice>
        <type>eighth</type>
        <stem>down</stem>
      </note>
      <note default-x="94">
        <pitch>
          <step>B</step>
          <octave>2</octave>
        </pitch>
        <duration>1</duration>
        <voice>1</voice>
        <type>eighth</type>
        <stem default-y="-61">down</stem>
        <beam number="1">end</beam>
      </note>
      <note default-x="94">
        <chord/>
        <pitch>
          <step>D</step>
          <octave>4</octave>
        </pitch>
        <duration>1</duration>
        <voice>1</voice>
        <type>eighth</type>
        <stem>down</stem>
      </note>
      <note default-x="120">
        <pitch>
          <step>A</step>
          <octave>2</octave>
        </pitch>
        <duration>2</duration>
        <voice>1</voice>
        <type>quarter</type>
        <stem default-y="-61">down</stem>
      </note>
      <note default-x="120">
        <chord/>
        <pitch>
          <step>C</step>
          <octave>4</octave>
        </pitch>
        <duration>2</duration>
        <voice>1</voice>
        <type>quarter</type>
        <stem>down</stem>
      </note>
      <note default-x="158">
        <pitch>
          <step>B</step>
          <octave>2</octave>
        </pitch>
        <duration>2</duration>
        <voice>1</voice>
        <type>quarter</type>
        <stem default-y="-56">down</stem>
      </note>
      <note default-x="158">
        <chord/>
        <pitch>
          <step>B</step>
          <octave>3</octave>
        </pitch>
        <duration>2</duration>
        <voice>1</voice>
        <type>quarter</type>
        <stem>down</stem>
      </note>
    </measure>
    <!--=======================================================-->
    <measure number="4" width="848">
      <print new-system="yes">
        <staff-layout number="1">
          <staff-distance>203</staff-distance>
        </staff-layout>
      </print>
      <note default-x="798">
        <pitch>
          <step>E</step>
          <octave>3</octave>
        </pitch>
        <duration>6</duration>
        <voice>1</voice>
        <type>half</type>
        <dot/>
        <stem default-y="-46.5">down</stem>
      </note>
      <note default-x="798">
        <chord/>
        <pitch>
          <step>G</step>
          <octave>3</octave>
        </pitch>
        <duration>6</duration>
        <voice>1</voice>
        <type>half</type>
        <dot/>
        <stem>down</stem>
      </note>
      <note default-x="58">
        <pitch>
          <step>G</step>
          <octave>3</octave>
        </pitch>
        <duration>2</duration>
        <voice>1</voice>
        <type>quarter</type>
        <stem>double</stem>
      </note>
    </measure>
    <!--=======================================================-->
    <measure number="5">
      <note default-x="-731">
        <pitch>
          <step>E</step>
          <octave>3</octave>
        </pitch>
        <duration>3</duration>
        <voice>1</voice>
        <type>quarter</type>
        <dot/>
        <stem default-y="-46.5">down</stem>
      </note>
      <note default-x="-731">
        <chord/>
        <pitch>
          <step>B</step>
          <octave>3</octave>
        </pitch>
        <duration>3</duration>
        <voice>1</voice>
        <type>quarter</type>
        <dot/>
        <stem>down</stem>
      </note>
      <note default-x="-679">
        <pitch>
          <step>D</step>
          <octave>3</octave>
        </pitch>
        <duration>1</duration>
        <voice>1</voice>
        <type>eighth</type>
        <stem default-y="-51.5">down</stem>
      </note>
      <note default-x="-679">
        <chord/>
        <pitch>
          <step>B</step>
          <octave>3</octave>
        </pitch>
        <duration>1</duration>
        <voice>1</voice>
        <type>eighth</type>
        <stem>down</stem>
      </note>
      <note default-x="-625">
        <pitch>
          <step>C</step>
          <octave>3</octave>
        </pitch>
        <duration>2</duration>
        <voice>1</voice>
        <type>quarter</type>
        <stem default-y="-51">down</stem>
      </note>
      <note default-x="-625">
        <chord/>
        <pitch>
          <step>C</step>
          <octave>4</octave>
        </pitch>
        <duration>2</duration>
        <voice>1</voice>
        <type>quarter</type>
        <stem>down</stem>
      </note>
      <note default-x="-570">
        <pitch>
          <step>C</step>
          <octave>3</octave>
        </pitch>
        <duration>1</duration>
        <voice>1</voice>
        <type>eighth</type>
        <stem default-y="-56">down</stem>
        <beam number="1">begin</beam>
      </note>
      <note default-x="-570">
        <chord/>
        <pitch>
          <step>C</step>
          <octave>4</octave>
        </pitch>
        <duration>1</duration>
        <voice>1</voice>
        <type>eighth</type>
        <stem>down</stem>
      </note>
      <note default-x="-544">
        <pitch>
          <step>B</step>
          <octave>2</octave>
        </pitch>
        <duration>1</duration>
        <voice>1</voice>
        <type>eighth</type>
        <stem default-y="-61">down</stem>
        <beam number="1">end</beam>
      </note>
      <note default-x="-544">
        <chord/>
        <pitch>
          <step>D</step>
          <octave>4</octave>
        </pitch>
        <duration>1</duration>
        <voice>1</voice>
        <type>eighth</type>
        <stem>down</stem>
      </note>
    </measure>
    <!--=======================================================-->
    <measure number="6">
      <note>
        <pitch>
          <step>A</step>
          <octave>2</octave>
        </pitch>
        <duration>1</duration>
        <voice>1</voice>
        <type>eighth</type>
        <stem default-y="-66">down</stem>
        <beam number="1">begin</beam>
      </note>
      <backup>
        <duration>1</duration>
      </backup>
      <note>
        <pitch>
          <step>E</step>
          <octave>4</octave>
        </pitch>
        <duration>2</duration>
        <voice>2</voice>
        <type>quarter</type>
        <stem default-y="41">up</stem>
      </note>
      <backup>
        <duration>1</duration>
      </backup>
      <note>
        <pitch>
          <step>B</step>
          <octave>2</octave>
        </pitch>
        <duration>1</duration>
        <voice>1</voice>
        <type>eighth</type>
        <stem default-y="-61">down</stem>
        <beam number="1">end</beam>
      </note>
      <note>
        <pitch>
          <step>C</step>
          <octave>3</octave>
        </pitch>
        <duration>1</duration>
        <voice>1</voice>
        <type>eighth</type>
        <stem default-y="-56">down</stem>
        <beam number="1">begin</beam>
      </note>
      <backup>
        <duration>1</duration>
      </backup>
      <note>
        <pitch>
          <step>C</step>
          <octave>4</octave>
        </pitch>
        <duration>2</duration>
        <voice>2</voice>
        <type>quarter</type>
        <stem default-y="36">up</stem>
      </note>
      <backup>
        <duration>1</duration>
      </backup>
      <note>
        <pitch>
          <step>A</step>
          <octave>2</octave>
        </pitch>
        <duration>1</duration>
        <voice>1</voice>
        <type>eighth</type>
        <stem default-y="-66">down</stem>
        <beam number="1">end</beam>
      </note>
      <note>
        <pitch>
          <step>D</step>
          <octave>3</octave>
        </pitch>
        <duration>2</duration>
        <voice>1</voice>
        <type>quarter</type>
        <stem default-y="-51.5">down</stem>
      </note>
      <note>
        <chord/>
        <pitch>
          <step>A</step>
          <octave>3</octave>
        </pitch>
        <duration>2</duration>
        <voice>1</voice>
        <type>quarter</type>
        <stem>down</stem>
      </note>
      <note>
        <pitch>
          <step>D</step>
          <octave>3</octave>
        </pitch>
        <duration>2</duration>
        <voice>1</voice>
        <type>quarter</type>
        <stem default-y="-51.5">down</stem>
      </note>
      <note>
        <chord/>
        <pitch>
          <step>F</step>
          <alter>1</alter>
          <octave>3</octave>
        </pitch>
        <duration>2</duration>
        <voice>1</voice>
        <type>quarter</type>
        <stem>down</stem>
      </note>
    </measure>
    <!--=======================================================-->
    <measure number="7">
      <note>
        <pitch>
          <step>C</step>
          <octave>3</octave>
        </pitch>
        <duration>2</duration>
        <voice>1</voice>
        <type>quarter</type>
        <stem default-y="-51">down</stem>
      </note>
      <backup>
        <duration>2</duration>
      </backup>
      <note>
        <pitch>
          <step>G</step>
          <octave>3</octave>
        </pitch>
        <duration>1</duration>
        <voice>2</voice>
        <type>eighth</type>
        <stem default-y="24">up</stem>
        <beam number="1">begin</beam>
      </note>
      <note>
        <pitch>
          <step>A</step>
          <octave>3</octave>
        </pitch>
        <duration>1</duration>
        <voice>2</voice>
        <type>eighth</type>
        <stem default-y="29">up</stem>
        <beam number="1">end</beam>
      </note>
      <note>
        <pitch>
          <step>B</step>
          <octave>2</octave>
        </pitch>
        <duration>2</duration>
        <voice>1</voice>
        <type>quarter</type>
        <stem default-y="-56">down</stem>
      </note>
      <note>
        <chord/>
        <pitch>
          <step>B</step>
          <octave>3</octave>
        </pitch>
        <duration>2</duration>
        <voice>1</voice>
        <type>quarter</type>
        <stem>down</stem>
      </note>
      <note>
        <pitch>
          <step>E</step>
          <octave>3</octave>
        </pitch>
        <duration>2</duration>
        <voice>1</voice>
        <type>quarter</type>
        <stem default-y="-46.5">down</stem>
      </note>
      <note>
        <chord/>
        <pitch>
          <step>B</step>
          <octave>3</octave>
        </pitch>
        <duration>2</duration>
        <voice>1</voice>
        <type>quarter</type>
        <stem>down</stem>
      </note>
      <note>
        <pitch>
          <step>D</step>
          <octave>3</octave>
        </pitch>
        <duration>2</duration>
        <voice>1</voice>
        <type>quarter</type>
        <stem default-y="-51.5">down</stem>
      </note>
      <backup>
        <duration>2</duration>
      </backup>
      <note>
        <pitch>
          <step>D</step>
          <octave>4</octave>
        </pitch>
        <duration>1</duration>
        <voice>2</voice>
        <type>eighth</type>
        <stem default-y="39.5">up</stem>
        <beam number="1">begin</beam>
      </note>
      <note>
        <pitch>
          <step>C</step>
          <octave>4</octave>
        </pitch>
        <duration>1</duration>
        <voice>2</voice>
        <type>eighth</type>
        <stem default-y="34.5">up</stem>
        <beam number="1">end</beam>
      </note>
    </measure>
    <!--=======================================================-->
    <measure number="8">
      <note>
        <pitch>
          <step>G</step>
          <octave>3</octave>
        </pitch>
        <duration>6</duration>
        <voice>1</voice>
        <type>half</type>
        <dot/>
        <stem default-y="-36.5">down</stem>
      </note>
      <note>
        <chord/>
        <pitch>
          <step>B</step>
          <octave>3</octave>
        </pitch>
        <duration>6</duration>
        <voice>1</voice>
        <type>half</type>
        <dot/>
        <stem>down</stem>
      </note>
      <barline location="right">
        <bar-style>light-heavy</bar-style>
      </barline>
    </measure>
  </part>
  <!--=========================================================-->
</score-partwise>
