<?xml version="1.0" encoding="UTF-8" standalone="no"?>
<!DOCTYPE score-partwise PUBLIC "-//Recordare//DTD MusicXML 3.1 Partwise//EN" "http://www.musicxml.org/dtds/partwise.dtd">
<score-partwise version="3.1">
  <identification>
    <encoding>
      <software>Finale v25 for Windows</software>
      <encoding-date>2020-07-08</encoding-date>
      <supports attribute="new-system" element="print" type="yes" value="yes"/>
      <supports attribute="new-page" element="print" type="yes" value="yes"/>
      <supports element="accidental" type="yes"/>
      <supports element="beam" type="yes"/>
      <supports element="stem" type="yes"/>
    </encoding>
  </identification>
  <defaults>
    <scaling>
      <millimeters>6.35</millimeters>
      <tenths>40</tenths>
    </scaling>
    <page-layout>
      <page-height>1380</page-height>
      <page-width>852</page-width>
      <page-margins type="both">
        <left-margin>0</left-margin>
        <right-margin>0</right-margin>
        <top-margin>0</top-margin>
        <bottom-margin>712</bottom-margin>
      </page-margins>
    </page-layout>
    <system-layout>
      <system-margins>
        <left-margin>5</left-margin>
        <right-margin>0</right-margin>
      </system-margins>
      <system-distance>50</system-distance>
      <top-system-distance>50</top-system-distance>
    </system-layout>
    <staff-layout>
      <staff-distance>108</staff-distance>
    </staff-layout>
    <appearance>
      <line-width type="stem">0.8333</line-width>
      <line-width type="beam">4.1667</line-width>
      <line-width type="staff">0.7096</line-width>
      <line-width type="light barline">0.8333</line-width>
      <line-width type="heavy barline">5</line-width>
      <line-width type="leger">0.7292</line-width>
      <line-width type="ending">0.7682</line-width>
      <line-width type="wedge">0.8333</line-width>
      <line-width type="enclosure">0.8333</line-width>
      <line-width type="tuplet bracket">0.7292</line-width>
      <note-size type="grace">55</note-size>
      <note-size type="cue">55</note-size>
      <distance type="hyphen">83</distance>
      <distance type="beam">8</distance>
    </appearance>
    <music-font font-family="Petrucci2" font-size="18"/>
    <word-font font-family="Palatino Linotype" font-size="9"/>
    <lyric-font font-family="Palatino Linotype" font-size="9"/>
  </defaults>
  <credit page="1">
    <credit-words default-y="712" font-size="7.5" valign="bottom" xml:space="preserve">Music: Aaron Williams, 1770
Text: </credit-words>
    <credit-words font-size="7.5" font-style="italic">The Psalter</credit-words>
    <credit-words font-size="7.5" font-style="normal">, 1912</credit-words>
  </credit>
  <credit page="1">
    <credit-words default-x="852" default-y="712" font-size="7.5" justify="right" valign="bottom" xml:space="preserve">HAMPTON
6 6. 8 6.</credit-words>
  </credit>
  <part-list>
    <part-group number="1" type="start">
      <group-symbol default-x="-2">line</group-symbol>
      <group-barline>no</group-barline>
    </part-group>
    <score-part id="P1">
      <part-name print-object="no">MusicXML Part</part-name>
      <score-instrument id="P1-I2">
        <instrument-name>SmartMusic SoftSynth 1</instrument-name>
      </score-instrument>
      <midi-instrument id="P1-I2">
        <midi-channel>1</midi-channel>
        <midi-program>58</midi-program>
        <volume>80</volume>
        <pan>0</pan>
      </midi-instrument>
    </score-part>
    <score-part id="P2">
      <part-name print-object="no">MusicXML Part</part-name>
      <score-instrument id="P2-I1">
        <instrument-name>SmartMusic SoftSynth 1</instrument-name>
      </score-instrument>
      <midi-instrument id="P2-I1">
        <midi-channel>2</midi-channel>
        <midi-program>58</midi-program>
        <volume>80</volume>
        <pan>0</pan>
      </midi-instrument>
    </score-part>
    <part-group number="1" type="stop"/>
  </part-list>
  <!--=========================================================-->
  <part id="P1">
    <measure implicit="yes" number="0" width="165">
      <print>
        <system-layout>
          <top-system-distance>92</top-system-distance>
        </system-layout>
        <measure-numbering>system</measure-numbering>
      </print>
      <attributes>
        <divisions>2</divisions>
        <key>
          <fifths>2</fifths>
          <mode>major</mode>
        </key>
        <time>
          <beats>3</beats>
          <beat-type>4</beat-type>
        </time>
        <clef>
          <sign>G</sign>
          <line>2</line>
        </clef>
      </attributes>
      <sound tempo="101"/>
      <note default-x="105">
        <pitch>
          <step>D</step>
          <octave>4</octave>
        </pitch>
        <duration>2</duration>
        <voice>1</voice>
        <type>quarter</type>
        <stem default-y="7">up</stem>
        <lyric default-y="-87" number="1">
          <syllabic>single</syllabic>
          <text>1.</text>
          <elision> </elision>
          <syllabic>single</syllabic>
          <text>1</text>
          <elision> </elision>
          <syllabic>single</syllabic>
          <text>God,</text>
        </lyric>
        <lyric default-y="-107" number="2">
          <syllabic>single</syllabic>
          <text>2.</text>
          <elision> </elision>
          <syllabic>single</syllabic>
          <text>3</text>
          <elision> </elision>
          <syllabic>single</syllabic>
          <text>Thy</text>
        </lyric>
        <lyric default-y="-128" number="3">
          <syllabic>single</syllabic>
          <text>3.</text>
          <elision> </elision>
          <syllabic>single</syllabic>
          <text>5</text>
          <elision> </elision>
          <syllabic>single</syllabic>
          <text>The</text>
        </lyric>
        <lyric default-y="-149" number="4">
          <syllabic>single</syllabic>
          <text>4.</text>
          <elision> </elision>
          <syllabic>single</syllabic>
          <text>6</text>
          <elision> </elision>
          <syllabic>single</syllabic>
          <text/>
          <elision> </elision>
          <syllabic>single</syllabic>
          <text>The</text>
        </lyric>
      </note>
      <note default-x="105">
        <chord/>
        <pitch>
          <step>A</step>
          <octave>4</octave>
        </pitch>
        <duration>2</duration>
        <voice>1</voice>
        <type>quarter</type>
        <stem>up</stem>
      </note>
    </measure>
    <!--=======================================================-->
    <measure number="1" width="259">
      <note default-x="24">
        <pitch>
          <step>D</step>
          <octave>4</octave>
        </pitch>
        <duration>1</duration>
        <voice>1</voice>
        <type>eighth</type>
        <stem default-y="-3">up</stem>
        <lyric default-y="-87" number="1">
          <syllabic>single</syllabic>
          <text>bless</text>
        </lyric>
        <lyric default-y="-107" number="2">
          <syllabic>single</syllabic>
          <text>praise,</text>
        </lyric>
        <lyric default-y="-128" number="3">
          <syllabic>begin</syllabic>
          <text>na</text>
        </lyric>
        <lyric default-y="-149" number="4">
          <syllabic>single</syllabic>
          <text>earth</text>
        </lyric>
      </note>
      <note default-x="24">
        <chord/>
        <pitch>
          <step>F</step>
          <alter>1</alter>
          <octave>4</octave>
        </pitch>
        <duration>1</duration>
        <voice>1</voice>
        <type>eighth</type>
        <stem>up</stem>
      </note>
      <note default-x="85">
        <pitch>
          <step>D</step>
          <octave>4</octave>
        </pitch>
        <duration>1</duration>
        <voice>1</voice>
        <type>eighth</type>
        <stem default-y="12">up</stem>
        <lyric default-y="-87" number="1">
          <syllabic>single</syllabic>
          <text>and</text>
        </lyric>
        <lyric default-y="-107" number="2">
          <syllabic>single</syllabic>
          <text>O</text>
        </lyric>
        <lyric default-y="-128" number="3">
          <syllabic>end</syllabic>
          <text>tions</text>
        </lyric>
        <lyric default-y="-149" number="4">
          <syllabic>single</syllabic>
          <text>her</text>
        </lyric>
      </note>
      <note default-x="85">
        <chord/>
        <pitch>
          <step>B</step>
          <octave>4</octave>
        </pitch>
        <duration>1</duration>
        <voice>1</voice>
        <type>eighth</type>
        <stem>up</stem>
      </note>
      <note default-x="144">
        <pitch>
          <step>D</step>
          <octave>4</octave>
        </pitch>
        <duration>2</duration>
        <voice>1</voice>
        <type>quarter</type>
        <stem default-y="7">up</stem>
        <lyric default-y="-87" number="1">
          <syllabic>begin</syllabic>
          <text>pit</text>
        </lyric>
        <lyric default-y="-107" number="2">
          <syllabic>begin</syllabic>
          <text>gra</text>
        </lyric>
        <lyric default-y="-128" number="3">
          <syllabic>single</syllabic>
          <text>Thou</text>
        </lyric>
        <lyric default-y="-149" number="4">
          <syllabic>single</syllabic>
          <text>fruit</text>
        </lyric>
      </note>
      <note default-x="144">
        <chord/>
        <pitch>
          <step>A</step>
          <octave>4</octave>
        </pitch>
        <duration>2</duration>
        <voice>1</voice>
        <type>quarter</type>
        <stem>up</stem>
      </note>
      <note default-x="204">
        <pitch>
          <step>G</step>
          <octave>4</octave>
        </pitch>
        <duration>2</duration>
        <voice>1</voice>
        <type>quarter</type>
        <stem default-y="11">up</stem>
        <lyric default-y="-87" number="1">
          <syllabic>end</syllabic>
          <text>y</text>
        </lyric>
        <lyric default-y="-107" number="2">
          <syllabic>end</syllabic>
          <text>cious</text>
        </lyric>
        <lyric default-y="-128" number="3">
          <syllabic>single</syllabic>
          <text>wilt</text>
        </lyric>
        <lyric default-y="-149" number="4">
          <syllabic>single</syllabic>
          <text>shall</text>
        </lyric>
      </note>
      <note default-x="204">
        <chord/>
        <pitch>
          <step>C</step>
          <alter>1</alter>
          <octave>5</octave>
        </pitch>
        <duration>2</duration>
        <voice>1</voice>
        <type>quarter</type>
        <stem>up</stem>
      </note>
    </measure>
    <!--=======================================================-->
    <measure number="2" width="123">
      <note default-x="19">
        <pitch>
          <step>F</step>
          <alter>1</alter>
          <octave>4</octave>
        </pitch>
        <duration>4</duration>
        <voice>1</voice>
        <type>half</type>
        <stem default-y="16">up</stem>
        <lyric default-y="-87" number="1">
          <syllabic>single</syllabic>
          <text>us,</text>
        </lyric>
        <lyric default-y="-107" number="2">
          <syllabic>single</syllabic>
          <text>God,</text>
        </lyric>
        <lyric default-y="-128" number="3">
          <syllabic>single</syllabic>
          <text>judge</text>
        </lyric>
        <lyric default-y="-149" number="4">
          <syllabic>single</syllabic>
          <text>yield,</text>
        </lyric>
      </note>
      <note default-x="19">
        <chord/>
        <pitch>
          <step>D</step>
          <octave>5</octave>
        </pitch>
        <duration>4</duration>
        <voice>1</voice>
        <type>half</type>
        <stem>up</stem>
      </note>
      <note default-x="79">
        <pitch>
          <step>F</step>
          <alter>1</alter>
          <octave>4</octave>
        </pitch>
        <duration>2</duration>
        <voice>1</voice>
        <type>quarter</type>
        <stem default-y="16">up</stem>
        <lyric default-y="-87" number="1">
          <syllabic>single</syllabic>
          <text>Shine</text>
        </lyric>
        <lyric default-y="-107" number="2">
          <syllabic>single</syllabic>
          <text>Let</text>
        </lyric>
        <lyric default-y="-128" number="3">
          <syllabic>single</syllabic>
          <text>And</text>
        </lyric>
        <lyric default-y="-149" number="4">
          <syllabic>single</syllabic>
          <text>For</text>
        </lyric>
      </note>
      <note default-x="79">
        <chord/>
        <pitch>
          <step>D</step>
          <octave>5</octave>
        </pitch>
        <duration>2</duration>
        <voice>1</voice>
        <type>quarter</type>
        <stem>up</stem>
      </note>
    </measure>
    <!--=======================================================-->
    <measure number="3" width="301">
      <note default-x="17">
        <pitch>
          <step>E</step>
          <octave>4</octave>
        </pitch>
        <duration>1</duration>
        <voice>1</voice>
        <type>eighth</type>
        <stem default-y="17">up</stem>
        <lyric default-y="-87" number="1">
          <syllabic>single</syllabic>
          <text>on</text>
        </lyric>
        <lyric default-y="-107" number="2">
          <syllabic>single</syllabic>
          <text>all</text>
        </lyric>
        <lyric default-y="-128" number="3">
          <syllabic>single</syllabic>
          <text>lead</text>
        </lyric>
        <lyric default-y="-149" number="4">
          <syllabic>single</syllabic>
          <text>God,</text>
        </lyric>
      </note>
      <note default-x="17">
        <chord/>
        <pitch>
          <step>C</step>
          <alter>1</alter>
          <octave>5</octave>
        </pitch>
        <duration>1</duration>
        <voice>1</voice>
        <type>eighth</type>
        <stem>up</stem>
      </note>
      <note default-x="71">
        <pitch>
          <step>F</step>
          <alter>1</alter>
          <octave>4</octave>
        </pitch>
        <duration>1</duration>
        <voice>1</voice>
        <type>eighth</type>
        <stem default-y="22">up</stem>
        <lyric default-y="-87" number="1">
          <syllabic>single</syllabic>
          <text>us</text>
        </lyric>
        <lyric default-y="-107" number="2">
          <syllabic>single</syllabic>
          <text>the</text>
        </lyric>
        <lyric default-y="-128" number="3">
          <syllabic>single</syllabic>
          <text>them</text>
        </lyric>
        <lyric default-y="-149" number="4">
          <syllabic>single</syllabic>
          <text>our</text>
        </lyric>
      </note>
      <note default-x="71">
        <chord/>
        <pitch>
          <step>D</step>
          <octave>5</octave>
        </pitch>
        <duration>1</duration>
        <voice>1</voice>
        <type>eighth</type>
        <stem>up</stem>
      </note>
      <note default-x="124">
        <pitch>
          <step>E</step>
          <octave>4</octave>
        </pitch>
        <duration>2</duration>
        <voice>1</voice>
        <type>quarter</type>
        <stem default-y="11">up</stem>
        <lyric default-y="-87" number="1">
          <syllabic>single</syllabic>
          <text>with</text>
        </lyric>
        <lyric default-y="-107" number="2">
          <syllabic>begin</syllabic>
          <text>na</text>
        </lyric>
        <lyric default-y="-128" number="3">
          <syllabic>single</syllabic>
          <text>in</text>
        </lyric>
        <lyric default-y="-149" number="4">
          <syllabic>single</syllabic>
          <text>God</text>
        </lyric>
      </note>
      <note default-x="124">
        <chord/>
        <pitch>
          <step>C</step>
          <alter>1</alter>
          <octave>5</octave>
        </pitch>
        <duration>2</duration>
        <voice>1</voice>
        <type>quarter</type>
        <stem>up</stem>
      </note>
      <note default-x="178">
        <pitch>
          <step>B</step>
          <octave>4</octave>
        </pitch>
        <duration>2</duration>
        <voice>1</voice>
        <type>quarter</type>
        <stem default-y="12">up</stem>
        <lyric default-y="-87" number="1">
          <syllabic>single</syllabic>
          <text>Thy</text>
        </lyric>
        <lyric default-y="-107" number="2">
          <syllabic>end</syllabic>
          <text>tions</text>
        </lyric>
        <lyric default-y="-128" number="3">
          <syllabic>single</syllabic>
          <text>Thy</text>
        </lyric>
        <lyric default-y="-149" number="4">
          <syllabic>single</syllabic>
          <text>will</text>
        </lyric>
      </note>
      <backup>
        <duration>2</duration>
      </backup>
      <note default-x="178">
        <pitch>
          <step>E</step>
          <octave>4</octave>
        </pitch>
        <duration>1</duration>
        <voice>2</voice>
        <type>eighth</type>
        <stem default-y="-67">down</stem>
        <beam number="1">begin</beam>
      </note>
      <note default-x="209">
        <pitch>
          <step>D</step>
          <octave>4</octave>
        </pitch>
        <duration>1</duration>
        <voice>2</voice>
        <type>eighth</type>
        <stem default-y="-72">down</stem>
        <beam number="1">end</beam>
      </note>
    </measure>
    <!--=======================================================-->
    <measure number="4" width="847">
      <print new-system="yes"/>
      <note default-x="807">
        <pitch>
          <step>C</step>
          <alter>1</alter>
          <octave>4</octave>
        </pitch>
        <duration>4</duration>
        <voice>1</voice>
        <type>half</type>
        <stem default-y="7">up</stem>
        <lyric default-y="-87" number="1">
          <syllabic>single</syllabic>
          <text>face,</text>
        </lyric>
        <lyric default-y="-107" number="2">
          <syllabic>single</syllabic>
          <text>sing;</text>
        </lyric>
        <lyric default-y="-128" number="3">
          <syllabic>single</syllabic>
          <text>ways;</text>
        </lyric>
        <lyric default-y="-149" number="4">
          <syllabic>single</syllabic>
          <text>bless;</text>
        </lyric>
      </note>
      <note default-x="807">
        <chord/>
        <pitch>
          <step>A</step>
          <octave>4</octave>
        </pitch>
        <duration>4</duration>
        <voice>1</voice>
        <type>half</type>
        <stem>up</stem>
      </note>
      <note default-x="84">
        <pitch>
          <step>D</step>
          <octave>4</octave>
        </pitch>
        <duration>2</duration>
        <voice>1</voice>
        <type>quarter</type>
        <stem default-y="-276.5">up</stem>
        <lyric default-y="-82" number="1">
          <syllabic>single</syllabic>
          <text font-size="4.5">2</text>
          <elision> </elision>
          <syllabic>single</syllabic>
          <text font-size="4.5">That</text>
        </lyric>
        <lyric default-y="-103" number="2">
          <syllabic>single</syllabic>
          <text font-size="4.5">4</text>
          <elision> </elision>
          <syllabic>single</syllabic>
          <text font-size="4.5">Let</text>
        </lyric>
        <lyric default-y="-124" number="3" relative-x="8">
          <syllabic>single</syllabic>
          <text>Let</text>
        </lyric>
        <lyric default-y="-145" number="4">
          <syllabic>single</syllabic>
          <text font-size="4.5">7</text>
          <elision> </elision>
          <syllabic>single</syllabic>
          <text font-size="4.5">We</text>
        </lyric>
      </note>
      <note default-x="84">
        <chord/>
        <pitch>
          <step>F</step>
          <alter>1</alter>
          <octave>4</octave>
        </pitch>
        <duration>2</duration>
        <voice>1</voice>
        <type>quarter</type>
        <stem>up</stem>
      </note>
    </measure>
    <!--=======================================================-->
    <measure number="5">
      <note default-x="-706">
        <pitch>
          <step>D</step>
          <octave>4</octave>
        </pitch>
        <duration>1</duration>
        <voice>1</voice>
        <type>eighth</type>
        <stem default-y="2">up</stem>
        <lyric default-y="-82" number="1">
          <syllabic>single</syllabic>
          <text>all</text>
        </lyric>
        <lyric default-y="-103" number="2">
          <syllabic>single</syllabic>
          <text>all</text>
        </lyric>
        <lyric default-y="-124" number="3">
          <syllabic>single</syllabic>
          <text>all</text>
        </lyric>
        <lyric default-y="-145" number="4">
          <syllabic>single</syllabic>
          <text>shall</text>
        </lyric>
      </note>
      <note default-x="-706">
        <chord/>
        <pitch>
          <step>G</step>
          <octave>4</octave>
        </pitch>
        <duration>1</duration>
        <voice>1</voice>
        <type>eighth</type>
        <stem>up</stem>
      </note>
      <note default-x="-656">
        <pitch>
          <step>D</step>
          <octave>4</octave>
        </pitch>
        <duration>1</duration>
        <voice>1</voice>
        <type>eighth</type>
        <stem default-y="7">up</stem>
        <lyric default-y="-82" number="1">
          <syllabic>single</syllabic>
          <text>the</text>
        </lyric>
        <lyric default-y="-103" number="2">
          <syllabic>single</syllabic>
          <text>men</text>
        </lyric>
        <lyric default-y="-124" number="3">
          <syllabic>single</syllabic>
          <text>men</text>
        </lyric>
        <lyric default-y="-145" number="4">
          <syllabic>single</syllabic>
          <text>be</text>
        </lyric>
      </note>
      <note default-x="-656">
        <chord/>
        <pitch>
          <step>A</step>
          <octave>4</octave>
        </pitch>
        <duration>1</duration>
        <voice>1</voice>
        <type>eighth</type>
        <stem>up</stem>
      </note>
      <note default-x="-602">
        <pitch>
          <step>D</step>
          <octave>4</octave>
        </pitch>
        <duration>2</duration>
        <voice>1</voice>
        <type>quarter</type>
        <stem default-y="12">up</stem>
        <lyric default-y="-82" number="1">
          <syllabic>single</syllabic>
          <text>earth</text>
        </lyric>
        <lyric default-y="-103" number="2">
          <syllabic>begin</syllabic>
          <text>wor</text>
        </lyric>
        <lyric default-y="-124" number="3">
          <syllabic>single</syllabic>
          <text>praise</text>
        </lyric>
        <lyric default-y="-145" number="4">
          <syllabic>single</syllabic>
          <text>blest,</text>
        </lyric>
      </note>
      <note default-x="-602">
        <chord/>
        <pitch>
          <step>B</step>
          <octave>4</octave>
        </pitch>
        <duration>2</duration>
        <voice>1</voice>
        <type>quarter</type>
        <stem>up</stem>
      </note>
      <note default-x="-547">
        <pitch>
          <step>C</step>
          <alter>1</alter>
          <octave>4</octave>
        </pitch>
        <duration>2</duration>
        <voice>1</voice>
        <type>quarter</type>
        <stem default-y="7">up</stem>
        <lyric default-y="-82" number="1">
          <syllabic>single</syllabic>
          <text>Thy</text>
        </lyric>
        <lyric default-y="-103" number="2">
          <syllabic>end</syllabic>
          <text>ship</text>
        </lyric>
        <lyric default-y="-124" number="3">
          <syllabic>single</syllabic>
          <text>Thy</text>
        </lyric>
        <lyric default-y="-145" number="4">
          <syllabic>single</syllabic>
          <text>and</text>
        </lyric>
      </note>
      <note default-x="-547">
        <chord/>
        <pitch>
          <step>A</step>
          <octave>4</octave>
        </pitch>
        <duration>2</duration>
        <voice>1</voice>
        <type>quarter</type>
        <stem>up</stem>
      </note>
    </measure>
    <!--=======================================================-->
    <measure number="6">
      <note>
        <pitch>
          <step>D</step>
          <octave>4</octave>
        </pitch>
        <duration>1</duration>
        <voice>1</voice>
        <type>eighth</type>
        <stem default-y="2">up</stem>
        <lyric default-y="-82" number="1">
          <syllabic>single</syllabic>
          <text>way</text>
        </lyric>
        <lyric default-y="-103" number="2">
          <syllabic>single</syllabic>
          <text>Thee</text>
        </lyric>
        <lyric default-y="-124" number="3">
          <syllabic>single</syllabic>
          <text>name,</text>
        </lyric>
        <lyric default-y="-145" number="4">
          <syllabic>single</syllabic>
          <text>all</text>
        </lyric>
      </note>
      <note>
        <chord/>
        <pitch>
          <step>G</step>
          <octave>4</octave>
        </pitch>
        <duration>1</duration>
        <voice>1</voice>
        <type>eighth</type>
        <stem>up</stem>
      </note>
      <note>
        <pitch>
          <step>D</step>
          <octave>4</octave>
        </pitch>
        <duration>1</duration>
        <voice>1</voice>
        <type>eighth</type>
        <stem default-y="-3">up</stem>
        <lyric default-y="-82" number="1">
          <syllabic>single</syllabic>
          <text>may</text>
        </lyric>
        <lyric default-y="-103" number="2">
          <syllabic>single</syllabic>
          <text>with</text>
        </lyric>
        <lyric default-y="-124" number="3">
          <syllabic>single</syllabic>
          <text>O</text>
        </lyric>
        <lyric default-y="-145" number="4">
          <syllabic>single</syllabic>
          <text>the</text>
        </lyric>
      </note>
      <note>
        <chord/>
        <pitch>
          <step>F</step>
          <alter>1</alter>
          <octave>4</octave>
        </pitch>
        <duration>1</duration>
        <voice>1</voice>
        <type>eighth</type>
        <stem>up</stem>
      </note>
      <note>
        <pitch>
          <step>C</step>
          <alter>1</alter>
          <octave>4</octave>
        </pitch>
        <duration>2</duration>
        <voice>1</voice>
        <type>quarter</type>
        <stem default-y="-8">up</stem>
        <lyric default-y="-82" number="1">
          <syllabic>single</syllabic>
          <text>know</text>
        </lyric>
        <lyric default-y="-103" number="2">
          <syllabic>single</syllabic>
          <text>joy</text>
        </lyric>
        <lyric default-y="-124" number="3">
          <syllabic>single</syllabic>
          <text>God,</text>
        </lyric>
        <lyric default-y="-145" number="4" relative-x="-3">
          <syllabic>single</syllabic>
          <text>world</text>
        </lyric>
      </note>
      <note>
        <chord/>
        <pitch>
          <step>E</step>
          <octave>4</octave>
        </pitch>
        <duration>2</duration>
        <voice>1</voice>
        <type>quarter</type>
        <stem>up</stem>
      </note>
      <note>
        <pitch>
          <step>E</step>
          <octave>4</octave>
        </pitch>
        <duration>2</duration>
        <voice>1</voice>
        <type>quarter</type>
        <stem default-y="7">up</stem>
        <lyric default-y="-82" number="1">
          <syllabic>single</syllabic>
          <text>And</text>
        </lyric>
        <lyric default-y="-103" number="2">
          <syllabic>single</syllabic>
          <text>And</text>
        </lyric>
        <lyric default-y="-124" number="3">
          <syllabic>single</syllabic>
          <text>Let</text>
        </lyric>
        <lyric default-y="-145" number="4">
          <syllabic>single</syllabic>
          <text>His</text>
        </lyric>
      </note>
      <note>
        <chord/>
        <pitch>
          <step>A</step>
          <octave>4</octave>
        </pitch>
        <duration>2</duration>
        <voice>1</voice>
        <type>quarter</type>
        <stem>up</stem>
      </note>
    </measure>
    <!--=======================================================-->
    <measure number="7">
      <note>
        <pitch>
          <step>A</step>
          <octave>3</octave>
        </pitch>
        <duration>1</duration>
        <voice>1</voice>
        <type>eighth</type>
        <stem default-y="22">up</stem>
        <lyric default-y="-82" number="1">
          <syllabic>single</syllabic>
          <text>men</text>
        </lyric>
        <lyric default-y="-103" number="2">
          <syllabic>single</syllabic>
          <text>songs</text>
        </lyric>
        <lyric default-y="-124" number="3">
          <syllabic>single</syllabic>
          <text>all</text>
        </lyric>
        <lyric default-y="-145" number="4">
          <syllabic>begin</syllabic>
          <text>glo</text>
        </lyric>
      </note>
      <note>
        <chord/>
        <pitch>
          <step>D</step>
          <octave>5</octave>
        </pitch>
        <duration>1</duration>
        <voice>1</voice>
        <type>eighth</type>
        <stem>up</stem>
      </note>
      <note>
        <pitch>
          <step>D</step>
          <octave>4</octave>
        </pitch>
        <duration>1</duration>
        <voice>1</voice>
        <type>eighth</type>
        <stem default-y="2">up</stem>
        <lyric default-y="-82" number="1">
          <syllabic>single</syllabic>
          <text>may</text>
        </lyric>
        <lyric default-y="-103" number="2">
          <syllabic>single</syllabic>
          <text>of</text>
        </lyric>
        <lyric default-y="-124" number="3">
          <syllabic>single</syllabic>
          <text>the</text>
        </lyric>
        <lyric default-y="-145" number="4">
          <syllabic>end</syllabic>
          <text>ry</text>
        </lyric>
      </note>
      <note>
        <chord/>
        <pitch>
          <step>G</step>
          <octave>4</octave>
        </pitch>
        <duration>1</duration>
        <voice>1</voice>
        <type>eighth</type>
        <stem>up</stem>
      </note>
      <note>
        <pitch>
          <step>D</step>
          <octave>4</octave>
        </pitch>
        <duration>2</duration>
        <voice>1</voice>
        <type>quarter</type>
        <stem default-y="-3">up</stem>
        <lyric default-y="-82" number="1">
          <syllabic>single</syllabic>
          <text>see</text>
        </lyric>
        <lyric default-y="-103" number="2">
          <syllabic>begin</syllabic>
          <text>glad</text>
        </lyric>
        <lyric default-y="-124" number="3">
          <syllabic>begin</syllabic>
          <text>peo</text>
        </lyric>
        <lyric default-y="-145" number="4">
          <syllabic>single</syllabic>
          <text>shall</text>
        </lyric>
      </note>
      <note>
        <chord/>
        <pitch>
          <step>F</step>
          <alter>1</alter>
          <octave>4</octave>
        </pitch>
        <duration>2</duration>
        <voice>1</voice>
        <type>quarter</type>
        <stem>up</stem>
      </note>
      <note>
        <pitch>
          <step>C</step>
          <alter>1</alter>
          <octave>4</octave>
        </pitch>
        <duration>2</duration>
        <voice>1</voice>
        <type>quarter</type>
        <stem default-y="-8">up</stem>
        <lyric default-y="-82" number="1">
          <syllabic>single</syllabic>
          <text>Thy</text>
        </lyric>
        <lyric default-y="-103" number="2">
          <syllabic>end</syllabic>
          <text>ness</text>
        </lyric>
        <lyric default-y="-124" number="3">
          <syllabic>end</syllabic>
          <text>ple</text>
        </lyric>
        <lyric default-y="-145" number="4">
          <syllabic>begin</syllabic>
          <text>con</text>
        </lyric>
      </note>
      <note>
        <chord/>
        <pitch>
          <step>E</step>
          <octave>4</octave>
        </pitch>
        <duration>2</duration>
        <voice>1</voice>
        <type>quarter</type>
        <stem>up</stem>
      </note>
    </measure>
    <!--=======================================================-->
    <measure number="8">
      <note>
        <pitch>
          <step>D</step>
          <octave>4</octave>
        </pitch>
        <duration>4</duration>
        <voice>1</voice>
        <type>half</type>
        <stem>double</stem>
        <lyric default-y="-82" number="1">
          <syllabic>single</syllabic>
          <text>grace.</text>
        </lyric>
        <lyric default-y="-103" number="2">
          <syllabic>single</syllabic>
          <text>bring.</text>
        </lyric>
        <lyric default-y="-124" number="3">
          <syllabic>single</syllabic>
          <text>praise.</text>
        </lyric>
        <lyric default-y="-145" number="4">
          <syllabic>end</syllabic>
          <text>fess.</text>
        </lyric>
      </note>
      <barline location="right">
        <bar-style>light-heavy</bar-style>
      </barline>
    </measure>
  </part>
  <!--=========================================================-->
  <part id="P2">
    <measure implicit="yes" number="0" width="165">
      <print>
        <staff-layout number="1">
          <staff-distance>143</staff-distance>
        </staff-layout>
        <measure-numbering>none</measure-numbering>
      </print>
      <attributes>
        <divisions>2</divisions>
        <key>
          <fifths>2</fifths>
          <mode>major</mode>
        </key>
        <time>
          <beats>3</beats>
          <beat-type>4</beat-type>
        </time>
        <clef>
          <sign>F</sign>
          <line>4</line>
        </clef>
      </attributes>
      <sound tempo="101"/>
      <note default-x="105">
        <pitch>
          <step>D</step>
          <octave>3</octave>
        </pitch>
        <duration>2</duration>
        <voice>1</voice>
        <type>quarter</type>
        <stem default-y="-51.5">down</stem>
      </note>
      <note default-x="105">
        <chord/>
        <pitch>
          <step>F</step>
          <alter>1</alter>
          <octave>3</octave>
        </pitch>
        <duration>2</duration>
        <voice>1</voice>
        <type>quarter</type>
        <stem>down</stem>
      </note>
    </measure>
    <!--=======================================================-->
    <measure number="1" width="259">
      <note default-x="24">
        <pitch>
          <step>D</step>
          <octave>3</octave>
        </pitch>
        <duration>1</duration>
        <voice>1</voice>
        <type>eighth</type>
        <stem default-y="-51.5">down</stem>
      </note>
      <note default-x="24">
        <chord/>
        <pitch>
          <step>A</step>
          <octave>3</octave>
        </pitch>
        <duration>1</duration>
        <voice>1</voice>
        <type>eighth</type>
        <stem>down</stem>
      </note>
      <note default-x="85">
        <pitch>
          <step>G</step>
          <octave>3</octave>
        </pitch>
        <duration>1</duration>
        <voice>1</voice>
        <type>eighth</type>
        <stem>double</stem>
      </note>
      <note default-x="144">
        <pitch>
          <step>F</step>
          <alter>1</alter>
          <octave>3</octave>
        </pitch>
        <duration>2</duration>
        <voice>1</voice>
        <type>quarter</type>
        <stem default-y="-41.5">down</stem>
      </note>
      <note default-x="144">
        <chord/>
        <pitch>
          <step>A</step>
          <octave>3</octave>
        </pitch>
        <duration>2</duration>
        <voice>1</voice>
        <type>quarter</type>
        <stem>down</stem>
      </note>
      <note default-x="204">
        <pitch>
          <step>E</step>
          <octave>3</octave>
        </pitch>
        <duration>2</duration>
        <voice>1</voice>
        <type>quarter</type>
        <stem default-y="-46.5">down</stem>
      </note>
      <note default-x="204">
        <chord/>
        <pitch>
          <step>A</step>
          <octave>3</octave>
        </pitch>
        <duration>2</duration>
        <voice>1</voice>
        <type>quarter</type>
        <stem>down</stem>
      </note>
    </measure>
    <!--=======================================================-->
    <measure number="2" width="123">
      <note default-x="19">
        <pitch>
          <step>D</step>
          <octave>3</octave>
        </pitch>
        <duration>4</duration>
        <voice>1</voice>
        <type>half</type>
        <stem default-y="-51.5">down</stem>
      </note>
      <note default-x="19">
        <chord/>
        <pitch>
          <step>A</step>
          <octave>3</octave>
        </pitch>
        <duration>4</duration>
        <voice>1</voice>
        <type>half</type>
        <stem>down</stem>
      </note>
      <note default-x="79">
        <pitch>
          <step>D</step>
          <octave>3</octave>
        </pitch>
        <duration>2</duration>
        <voice>1</voice>
        <type>quarter</type>
        <stem default-y="-51.5">down</stem>
      </note>
      <note default-x="79">
        <chord/>
        <pitch>
          <step>A</step>
          <octave>3</octave>
        </pitch>
        <duration>2</duration>
        <voice>1</voice>
        <type>quarter</type>
        <stem>down</stem>
      </note>
    </measure>
    <!--=======================================================-->
    <measure number="3" width="301">
      <note default-x="17">
        <pitch>
          <step>A</step>
          <octave>3</octave>
        </pitch>
        <duration>1</duration>
        <voice>1</voice>
        <type>eighth</type>
        <stem>double</stem>
      </note>
      <note default-x="71">
        <pitch>
          <step>D</step>
          <octave>3</octave>
        </pitch>
        <duration>1</duration>
        <voice>1</voice>
        <type>eighth</type>
        <stem default-y="-51.5">down</stem>
      </note>
      <note default-x="71">
        <chord/>
        <pitch>
          <step>A</step>
          <octave>3</octave>
        </pitch>
        <duration>1</duration>
        <voice>1</voice>
        <type>eighth</type>
        <stem>down</stem>
      </note>
      <note default-x="124">
        <pitch>
          <step>E</step>
          <octave>3</octave>
        </pitch>
        <duration>2</duration>
        <voice>1</voice>
        <type>quarter</type>
        <stem default-y="-46.5">down</stem>
      </note>
      <note default-x="124">
        <chord/>
        <pitch>
          <step>A</step>
          <octave>3</octave>
        </pitch>
        <duration>2</duration>
        <voice>1</voice>
        <type>quarter</type>
        <stem>down</stem>
      </note>
      <note default-x="178">
        <pitch>
          <step>E</step>
          <octave>3</octave>
        </pitch>
        <duration>2</duration>
        <voice>1</voice>
        <type>quarter</type>
        <stem default-y="-46.5">down</stem>
      </note>
      <note default-x="178">
        <chord/>
        <pitch>
          <step>G</step>
          <alter>1</alter>
          <octave>3</octave>
        </pitch>
        <duration>2</duration>
        <voice>1</voice>
        <type>quarter</type>
        <accidental>sharp</accidental>
        <stem>down</stem>
      </note>
    </measure>
    <!--=======================================================-->
    <measure number="4" width="847">
      <print new-system="yes">
        <staff-layout number="1">
          <staff-distance>143</staff-distance>
        </staff-layout>
      </print>
      <note default-x="807">
        <pitch>
          <step>A</step>
          <octave>2</octave>
        </pitch>
        <duration>4</duration>
        <voice>1</voice>
        <type>half</type>
        <stem default-y="-61">down</stem>
      </note>
      <note default-x="807">
        <chord/>
        <pitch>
          <step>A</step>
          <octave>3</octave>
        </pitch>
        <duration>4</duration>
        <voice>1</voice>
        <type>half</type>
        <stem>down</stem>
      </note>
      <note default-x="84">
        <pitch>
          <step>D</step>
          <octave>3</octave>
        </pitch>
        <duration>2</duration>
        <voice>1</voice>
        <type>quarter</type>
        <stem default-y="-325">down</stem>
      </note>
      <note default-x="84">
        <chord/>
        <pitch>
          <step>A</step>
          <octave>3</octave>
        </pitch>
        <duration>2</duration>
        <voice>1</voice>
        <type>quarter</type>
        <stem>down</stem>
      </note>
    </measure>
    <!--=======================================================-->
    <measure number="5">
      <note default-x="-706">
        <pitch>
          <step>B</step>
          <octave>2</octave>
        </pitch>
        <duration>1</duration>
        <voice>1</voice>
        <type>eighth</type>
        <stem default-y="-61.5">down</stem>
      </note>
      <note default-x="-706">
        <chord/>
        <pitch>
          <step>G</step>
          <octave>3</octave>
        </pitch>
        <duration>1</duration>
        <voice>1</voice>
        <type>eighth</type>
        <stem>down</stem>
      </note>
      <note default-x="-656">
        <pitch>
          <step>D</step>
          <octave>3</octave>
        </pitch>
        <duration>1</duration>
        <voice>1</voice>
        <type>eighth</type>
        <stem default-y="-51.5">down</stem>
      </note>
      <note default-x="-656">
        <chord/>
        <pitch>
          <step>F</step>
          <alter>1</alter>
          <octave>3</octave>
        </pitch>
        <duration>1</duration>
        <voice>1</voice>
        <type>eighth</type>
        <stem>down</stem>
      </note>
      <note default-x="-602">
        <pitch>
          <step>G</step>
          <octave>2</octave>
        </pitch>
        <duration>2</duration>
        <voice>1</voice>
        <type>quarter</type>
        <stem default-y="21">up</stem>
      </note>
      <note default-x="-602">
        <chord/>
        <pitch>
          <step>G</step>
          <octave>3</octave>
        </pitch>
        <duration>2</duration>
        <voice>1</voice>
        <type>quarter</type>
        <stem>up</stem>
      </note>
      <note default-x="-547">
        <pitch>
          <step>A</step>
          <octave>2</octave>
        </pitch>
        <duration>2</duration>
        <voice>1</voice>
        <type>quarter</type>
        <stem default-y="11">up</stem>
      </note>
      <note default-x="-547">
        <chord/>
        <pitch>
          <step>E</step>
          <octave>3</octave>
        </pitch>
        <duration>2</duration>
        <voice>1</voice>
        <type>quarter</type>
        <stem>up</stem>
      </note>
    </measure>
    <!--=======================================================-->
    <measure number="6">
      <note>
        <pitch>
          <step>B</step>
          <octave>2</octave>
        </pitch>
        <duration>1</duration>
        <voice>1</voice>
        <type>eighth</type>
        <stem default-y="-61.5">down</stem>
      </note>
      <note>
        <chord/>
        <pitch>
          <step>B</step>
          <octave>3</octave>
        </pitch>
        <duration>1</duration>
        <voice>1</voice>
        <type>eighth</type>
        <stem>down</stem>
      </note>
      <note>
        <pitch>
          <step>D</step>
          <octave>3</octave>
        </pitch>
        <duration>1</duration>
        <voice>1</voice>
        <type>eighth</type>
        <stem default-y="-51.5">down</stem>
      </note>
      <note>
        <chord/>
        <pitch>
          <step>A</step>
          <octave>3</octave>
        </pitch>
        <duration>1</duration>
        <voice>1</voice>
        <type>eighth</type>
        <stem>down</stem>
      </note>
      <note>
        <pitch>
          <step>A</step>
          <octave>2</octave>
        </pitch>
        <duration>2</duration>
        <voice>1</voice>
        <type>quarter</type>
        <stem default-y="-61">down</stem>
      </note>
      <note>
        <chord/>
        <pitch>
          <step>A</step>
          <octave>3</octave>
        </pitch>
        <duration>2</duration>
        <voice>1</voice>
        <type>quarter</type>
        <stem>down</stem>
      </note>
      <note>
        <pitch>
          <step>C</step>
          <alter>1</alter>
          <octave>4</octave>
        </pitch>
        <duration>2</duration>
        <voice>1</voice>
        <type>quarter</type>
        <stem default-y="33">up</stem>
      </note>
      <backup>
        <duration>2</duration>
      </backup>
      <note>
        <pitch>
          <step>A</step>
          <octave>3</octave>
        </pitch>
        <duration>1</duration>
        <voice>2</voice>
        <type>eighth</type>
        <stem default-y="-31">down</stem>
        <beam number="1">begin</beam>
      </note>
      <note>
        <pitch>
          <step>G</step>
          <octave>3</octave>
        </pitch>
        <duration>1</duration>
        <voice>2</voice>
        <type>eighth</type>
        <stem default-y="-36">down</stem>
        <beam number="1">end</beam>
      </note>
    </measure>
    <!--=======================================================-->
    <measure number="7">
      <note>
        <pitch>
          <step>F</step>
          <alter>1</alter>
          <octave>3</octave>
        </pitch>
        <duration>1</duration>
        <voice>1</voice>
        <type>eighth</type>
        <stem default-y="-41.5">down</stem>
      </note>
      <note>
        <chord/>
        <pitch>
          <step>D</step>
          <octave>4</octave>
        </pitch>
        <duration>1</duration>
        <voice>1</voice>
        <type>eighth</type>
        <stem>down</stem>
      </note>
      <note>
        <pitch>
          <step>G</step>
          <octave>3</octave>
        </pitch>
        <duration>1</duration>
        <voice>1</voice>
        <type>eighth</type>
        <stem default-y="-36.5">down</stem>
      </note>
      <note>
        <chord/>
        <pitch>
          <step>B</step>
          <octave>3</octave>
        </pitch>
        <duration>1</duration>
        <voice>1</voice>
        <type>eighth</type>
        <stem>down</stem>
      </note>
      <note>
        <pitch>
          <step>A</step>
          <octave>3</octave>
        </pitch>
        <duration>2</duration>
        <voice>1</voice>
        <type>quarter</type>
        <stem>double</stem>
      </note>
      <note>
        <pitch>
          <step>A</step>
          <octave>3</octave>
        </pitch>
        <duration>1</duration>
        <voice>1</voice>
        <type>eighth</type>
        <stem default-y="31">up</stem>
        <beam number="1">begin</beam>
      </note>
      <backup>
        <duration>1</duration>
      </backup>
      <note>
        <pitch>
          <step>A</step>
          <octave>2</octave>
        </pitch>
        <duration>2</duration>
        <voice>2</voice>
        <type>quarter</type>
        <stem default-y="-61">down</stem>
      </note>
      <backup>
        <duration>1</duration>
      </backup>
      <note>
        <pitch>
          <step>G</step>
          <octave>3</octave>
        </pitch>
        <duration>1</duration>
        <voice>1</voice>
        <type>eighth</type>
        <stem default-y="26">up</stem>
        <beam number="1">end</beam>
      </note>
    </measure>
    <!--=======================================================-->
    <measure number="8">
      <note>
        <pitch>
          <step>D</step>
          <octave>3</octave>
        </pitch>
        <duration>4</duration>
        <voice>1</voice>
        <type>half</type>
        <stem default-y="-51.5">down</stem>
      </note>
      <note>
        <chord/>
        <pitch>
          <step>F</step>
          <alter>1</alter>
          <octave>3</octave>
        </pitch>
        <duration>4</duration>
        <voice>1</voice>
        <type>half</type>
        <stem>down</stem>
      </note>
      <barline location="right">
        <bar-style>light-heavy</bar-style>
      </barline>
    </measure>
  </part>
  <!--=========================================================-->
</score-partwise>
