<?xml version="1.0" encoding="UTF-8" standalone="no"?>
<!DOCTYPE score-partwise PUBLIC "-//Recordare//DTD MusicXML 3.1 Partwise//EN" "http://www.musicxml.org/dtds/partwise.dtd">
<score-partwise version="3.1">
  <identification>
    <encoding>
      <software>Finale v25 for Windows</software>
      <encoding-date>2020-07-07</encoding-date>
      <supports attribute="new-system" element="print" type="yes" value="yes"/>
      <supports attribute="new-page" element="print" type="yes" value="yes"/>
      <supports element="accidental" type="yes"/>
      <supports element="beam" type="yes"/>
      <supports element="stem" type="yes"/>
    </encoding>
  </identification>
  <defaults>
    <scaling>
      <millimeters>6.35</millimeters>
      <tenths>40</tenths>
    </scaling>
    <page-layout>
      <page-height>1380</page-height>
      <page-width>852</page-width>
      <page-margins type="both">
        <left-margin>0</left-margin>
        <right-margin>0</right-margin>
        <top-margin>0</top-margin>
        <bottom-margin>600</bottom-margin>
      </page-margins>
    </page-layout>
    <system-layout>
      <system-margins>
        <left-margin>5</left-margin>
        <right-margin>0</right-margin>
      </system-margins>
      <system-distance>50</system-distance>
      <top-system-distance>50</top-system-distance>
    </system-layout>
    <staff-layout>
      <staff-distance>108</staff-distance>
    </staff-layout>
    <appearance>
      <line-width type="stem">0.8333</line-width>
      <line-width type="beam">4.1667</line-width>
      <line-width type="staff">0.7096</line-width>
      <line-width type="light barline">0.8333</line-width>
      <line-width type="heavy barline">5</line-width>
      <line-width type="leger">0.7292</line-width>
      <line-width type="ending">0.7682</line-width>
      <line-width type="wedge">0.8333</line-width>
      <line-width type="enclosure">0.8333</line-width>
      <line-width type="tuplet bracket">0.7292</line-width>
      <note-size type="grace">55</note-size>
      <note-size type="cue">55</note-size>
      <distance type="hyphen">83</distance>
      <distance type="beam">8</distance>
    </appearance>
    <music-font font-family="Petrucci2" font-size="18"/>
    <word-font font-family="Palatino Linotype" font-size="9"/>
    <lyric-font font-family="Palatino Linotype" font-size="9"/>
  </defaults>
  <credit page="1">
    <credit-words default-y="600" font-size="7.5" valign="bottom" xml:space="preserve">Music: Swiss melody
Text: Isaac Watts (1674–1748)</credit-words>
  </credit>
  <credit page="1">
    <credit-words default-x="852" default-y="600" font-size="7.5" justify="right" valign="bottom" xml:space="preserve">SOLOTHURN
8 8. 8 8.</credit-words>
  </credit>
  <part-list>
    <part-group number="1" type="start">
      <group-symbol default-x="-2">line</group-symbol>
      <group-barline>no</group-barline>
    </part-group>
    <score-part id="P1">
      <part-name print-object="no">MusicXML Part</part-name>
      <score-instrument id="P1-I2">
        <instrument-name>SmartMusic SoftSynth</instrument-name>
        <virtual-instrument/>
      </score-instrument>
      <midi-device>SmartMusic SoftSynth</midi-device>
      <midi-instrument id="P1-I2">
        <midi-channel>1</midi-channel>
        <midi-program>58</midi-program>
        <volume>80</volume>
        <pan>0</pan>
      </midi-instrument>
    </score-part>
    <score-part id="P2">
      <part-name print-object="no">MusicXML Part</part-name>
      <score-instrument id="P2-I1">
        <instrument-name>SmartMusic SoftSynth</instrument-name>
        <virtual-instrument/>
      </score-instrument>
      <midi-device>SmartMusic SoftSynth</midi-device>
      <midi-instrument id="P2-I1">
        <midi-channel>2</midi-channel>
        <midi-program>58</midi-program>
        <volume>80</volume>
        <pan>0</pan>
      </midi-instrument>
    </score-part>
    <part-group number="1" type="stop"/>
  </part-list>
  <!--=========================================================-->
  <part id="P1">
    <measure implicit="yes" number="0" width="128">
      <print>
        <system-layout>
          <top-system-distance>92</top-system-distance>
        </system-layout>
        <measure-numbering>system</measure-numbering>
      </print>
      <attributes>
        <divisions>2</divisions>
        <key>
          <fifths>2</fifths>
          <mode>major</mode>
        </key>
        <time>
          <beats>4</beats>
          <beat-type>4</beat-type>
        </time>
        <clef>
          <sign>G</sign>
          <line>2</line>
        </clef>
      </attributes>
      <sound tempo="101"/>
      <note default-x="95">
        <pitch>
          <step>A</step>
          <octave>3</octave>
        </pitch>
        <duration>2</duration>
        <voice>1</voice>
        <type>quarter</type>
        <stem default-y="-13">up</stem>
        <lyric default-y="-85" number="1" relative-x="-10">
          <syllabic>single</syllabic>
          <text>1.</text>
          <elision> </elision>
          <syllabic>single</syllabic>
          <text>1</text>
          <elision> </elision>
          <syllabic>single</syllabic>
          <text>With</text>
        </lyric>
        <lyric default-y="-105" number="2" relative-x="-10">
          <syllabic>single</syllabic>
          <text>2.</text>
          <elision> </elision>
          <syllabic>single</syllabic>
          <text>2</text>
          <elision> </elision>
          <syllabic>begin</syllabic>
          <text>An</text>
        </lyric>
        <lyric default-y="-126" number="3" relative-x="-10">
          <syllabic>single</syllabic>
          <text font-size="8.25" font-style="italic" font-weight="bold">3.</text>
          <elision> </elision>
          <syllabic>single</syllabic>
          <text font-size="8.25" font-style="italic" font-weight="bold"/>
          <elision> </elision>
          <syllabic>single</syllabic>
          <text font-size="8.25" font-style="italic" font-weight="bold"/>
          <elision> </elision>
          <syllabic>single</syllabic>
          <text font-size="8.25" font-style="italic" font-weight="bold">I’ll</text>
        </lyric>
        <lyric default-y="-147" number="4" relative-x="-10">
          <syllabic>single</syllabic>
          <text>4.</text>
          <elision> </elision>
          <syllabic>single</syllabic>
          <text>3</text>
          <elision> </elision>
          <syllabic>single</syllabic>
          <text>To</text>
        </lyric>
        <lyric default-y="-168" number="5" relative-x="-10">
          <syllabic>single</syllabic>
          <text font-size="8.25" font-style="italic" font-weight="bold">5.</text>
          <elision> </elision>
          <syllabic>single</syllabic>
          <text font-size="8.25" font-style="italic" font-weight="bold">6</text>
          <elision> </elision>
          <syllabic>single</syllabic>
          <text font-size="8.25" font-style="italic" font-weight="bold">The</text>
        </lyric>
        <lyric default-y="-189" number="6" relative-x="-10">
          <syllabic>single</syllabic>
          <text>6.</text>
          <elision> </elision>
          <syllabic>single</syllabic>
          <text>7</text>
          <elision> </elision>
          <syllabic>begin</syllabic>
          <text>A</text>
        </lyric>
        <lyric default-y="-210" number="7" relative-x="-10">
          <syllabic>single</syllabic>
          <text>7.</text>
          <elision> </elision>
          <syllabic>single</syllabic>
          <text>8</text>
          <elision> </elision>
          <syllabic>single</syllabic>
          <text>Grace</text>
        </lyric>
      </note>
      <note default-x="95">
        <chord/>
        <pitch>
          <step>D</step>
          <octave>4</octave>
        </pitch>
        <duration>2</duration>
        <voice>1</voice>
        <type>quarter</type>
        <stem>up</stem>
      </note>
    </measure>
    <!--=======================================================-->
    <measure number="1" width="189">
      <note default-x="16">
        <pitch>
          <step>A</step>
          <octave>3</octave>
        </pitch>
        <duration>2</duration>
        <voice>1</voice>
        <type>quarter</type>
        <stem default-y="-13">up</stem>
        <lyric default-y="-85" number="1" relative-x="-5">
          <syllabic>single</syllabic>
          <text>all</text>
        </lyric>
        <lyric default-y="-105" number="2" relative-x="-5">
          <syllabic>end</syllabic>
          <text>gels</text>
        </lyric>
        <lyric default-y="-126" number="3" relative-x="-3">
          <syllabic>single</syllabic>
          <text font-size="8.25" font-style="italic" font-weight="bold">sing</text>
        </lyric>
        <lyric default-y="-147" number="4" relative-x="-3">
          <syllabic>single</syllabic>
          <text>God</text>
        </lyric>
        <lyric default-y="-168" number="5" relative-x="-3">
          <syllabic>single</syllabic>
          <text font-size="8.25" font-style="italic" font-weight="bold">God</text>
        </lyric>
        <lyric default-y="-189" number="6" relative-x="-3">
          <syllabic>end</syllabic>
          <text>mid</text>
        </lyric>
        <lyric default-y="-210" number="7" relative-x="5">
          <syllabic>single</syllabic>
          <text>will</text>
        </lyric>
      </note>
      <note default-x="16">
        <chord/>
        <pitch>
          <step>D</step>
          <octave>4</octave>
        </pitch>
        <duration>2</duration>
        <voice>1</voice>
        <type>quarter</type>
        <stem>up</stem>
      </note>
      <note default-x="62">
        <pitch>
          <step>A</step>
          <octave>3</octave>
        </pitch>
        <duration>2</duration>
        <voice>1</voice>
        <type>quarter</type>
        <stem default-y="-8">up</stem>
        <lyric default-y="-85" number="1" relative-x="-10">
          <syllabic>single</syllabic>
          <text>my</text>
        </lyric>
        <lyric default-y="-105" number="2" relative-x="-10">
          <syllabic>single</syllabic>
          <text>that</text>
        </lyric>
        <lyric default-y="-126" number="3" relative-x="-5">
          <syllabic>single</syllabic>
          <text font-size="8.25" font-style="italic" font-weight="bold">Thy</text>
        </lyric>
        <lyric default-y="-147" number="4" relative-x="-5">
          <syllabic>single</syllabic>
          <text>I</text>
        </lyric>
        <lyric default-y="-168" number="5" relative-x="-9">
          <syllabic>single</syllabic>
          <text font-size="8.25" font-style="italic" font-weight="bold">of</text>
        </lyric>
        <lyric default-y="-189" number="6" relative-x="-5">
          <syllabic>single</syllabic>
          <text>a</text>
        </lyric>
        <lyric default-y="-210" number="7">
          <syllabic>begin</syllabic>
          <text>com</text>
        </lyric>
      </note>
      <note default-x="62">
        <chord/>
        <pitch>
          <step>E</step>
          <octave>4</octave>
        </pitch>
        <duration>2</duration>
        <voice>1</voice>
        <type>quarter</type>
        <stem>up</stem>
      </note>
      <note default-x="110">
        <pitch>
          <step>D</step>
          <octave>4</octave>
        </pitch>
        <duration>2</duration>
        <voice>1</voice>
        <type>quarter</type>
        <stem default-y="-3">up</stem>
        <lyric default-y="-85" number="1" relative-x="-7">
          <syllabic>single</syllabic>
          <text>pow’rs</text>
        </lyric>
        <lyric default-y="-105" number="2" relative-x="-7">
          <syllabic>single</syllabic>
          <text>make</text>
        </lyric>
        <lyric default-y="-126" number="3" relative-x="-5">
          <syllabic>single</syllabic>
          <text font-size="8.25" font-style="italic" font-weight="bold">truth</text>
        </lyric>
        <lyric default-y="-147" number="4" relative-x="-10">
          <syllabic>single</syllabic>
          <text>cried</text>
        </lyric>
        <lyric default-y="-168" number="5" relative-x="-12">
          <syllabic>single</syllabic>
          <text font-size="8.25" font-style="italic" font-weight="bold">Heav’n</text>
        </lyric>
        <lyric default-y="-189" number="6" relative-x="-7">
          <syllabic>begin</syllabic>
          <text>thou</text>
        </lyric>
        <lyric default-y="-210" number="7">
          <syllabic>end</syllabic>
          <text>plete</text>
        </lyric>
      </note>
      <note default-x="110">
        <chord/>
        <pitch>
          <step>F</step>
          <alter>1</alter>
          <octave>4</octave>
        </pitch>
        <duration>2</duration>
        <voice>1</voice>
        <type>quarter</type>
        <stem>up</stem>
      </note>
      <note default-x="156">
        <pitch>
          <step>B</step>
          <octave>3</octave>
        </pitch>
        <duration>2</duration>
        <voice>1</voice>
        <type>quarter</type>
        <stem default-y="-13">up</stem>
        <lyric default-y="-85" number="1" relative-x="-6">
          <syllabic>single</syllabic>
          <text>of</text>
        </lyric>
        <lyric default-y="-105" number="2" relative-x="-7">
          <syllabic>single</syllabic>
          <text>Thy</text>
        </lyric>
        <lyric default-y="-126" number="3" relative-x="-3">
          <syllabic>single</syllabic>
          <text font-size="8.25" font-style="italic" font-weight="bold">and</text>
        </lyric>
        <lyric default-y="-147" number="4" relative-x="-3">
          <syllabic>single</syllabic>
          <text>when</text>
        </lyric>
        <lyric default-y="-168" number="5">
          <syllabic>begin</syllabic>
          <text font-size="8.25" font-style="italic" font-weight="bold">main</text>
        </lyric>
        <lyric default-y="-189" number="6">
          <syllabic>end</syllabic>
          <text>sand</text>
        </lyric>
        <lyric default-y="-210" number="7" relative-x="3">
          <syllabic>single</syllabic>
          <text>what</text>
        </lyric>
      </note>
      <note default-x="156">
        <chord/>
        <pitch>
          <step>D</step>
          <octave>4</octave>
        </pitch>
        <duration>2</duration>
        <voice>1</voice>
        <type>quarter</type>
        <stem>up</stem>
      </note>
    </measure>
    <!--=======================================================-->
    <measure number="2" width="96">
      <note default-x="20">
        <pitch>
          <step>A</step>
          <octave>3</octave>
        </pitch>
        <duration>4</duration>
        <voice>1</voice>
        <type>half</type>
        <stem default-y="7">up</stem>
        <lyric default-y="-85" number="1" relative-x="-14">
          <syllabic>single</syllabic>
          <text>heart</text>
        </lyric>
        <lyric default-y="-105" number="2" relative-x="-8">
          <syllabic>single</syllabic>
          <text>church</text>
        </lyric>
        <lyric default-y="-126" number="3">
          <syllabic>begin</syllabic>
          <text font-size="8.25" font-style="italic" font-weight="bold">mer</text>
        </lyric>
        <lyric default-y="-147" number="4">
          <syllabic>begin</syllabic>
          <text>trou</text>
        </lyric>
        <lyric default-y="-168" number="5">
          <syllabic>end</syllabic>
          <text font-size="8.25" font-style="italic" font-weight="bold">tains</text>
        </lyric>
        <lyric default-y="-189" number="6">
          <syllabic>single</syllabic>
          <text>snares</text>
        </lyric>
        <lyric default-y="-210" number="7">
          <syllabic>single</syllabic>
          <text>grace</text>
        </lyric>
      </note>
      <note default-x="20">
        <chord/>
        <pitch>
          <step>A</step>
          <octave>4</octave>
        </pitch>
        <duration>4</duration>
        <voice>1</voice>
        <type>half</type>
        <stem>up</stem>
      </note>
      <note default-x="67">
        <pitch>
          <step>C</step>
          <alter>1</alter>
          <octave>4</octave>
        </pitch>
        <duration>4</duration>
        <voice>1</voice>
        <type>half</type>
        <stem default-y="-8">up</stem>
        <lyric default-y="-85" number="1" relative-x="-12">
          <syllabic>single</syllabic>
          <text>and</text>
        </lyric>
        <lyric default-y="-105" number="2" relative-x="4">
          <syllabic>single</syllabic>
          <text>their</text>
        </lyric>
        <lyric default-y="-126" number="3">
          <syllabic>end</syllabic>
          <text font-size="8.25" font-style="italic" font-weight="bold">cy,</text>
        </lyric>
        <lyric default-y="-147" number="4">
          <syllabic>end</syllabic>
          <text>bles</text>
        </lyric>
        <lyric default-y="-168" number="5">
          <syllabic>single</syllabic>
          <text font-size="8.25" font-style="italic" font-weight="bold">His</text>
        </lyric>
        <lyric default-y="-189" number="6">
          <syllabic>single</syllabic>
          <text>I</text>
        </lyric>
        <lyric default-y="-210" number="7">
          <syllabic>begin</syllabic>
          <text>be</text>
        </lyric>
      </note>
      <note default-x="67">
        <chord/>
        <pitch>
          <step>E</step>
          <octave>4</octave>
        </pitch>
        <duration>4</duration>
        <voice>1</voice>
        <type>half</type>
        <stem>up</stem>
      </note>
    </measure>
    <!--=======================================================-->
    <measure number="3" width="100">
      <note default-x="19">
        <pitch>
          <step>A</step>
          <octave>3</octave>
        </pitch>
        <duration>6</duration>
        <voice>1</voice>
        <type>half</type>
        <dot/>
        <stem default-y="-13">up</stem>
        <lyric default-y="-85" number="1" relative-x="-7">
          <syllabic>single</syllabic>
          <text>tongue</text>
        </lyric>
        <lyric default-y="-105" number="2">
          <syllabic>single</syllabic>
          <text>care</text>
        </lyric>
        <lyric default-y="-126" number="3">
          <syllabic>single</syllabic>
          <text font-size="8.25" font-style="italic" font-weight="bold">Lord.</text>
        </lyric>
        <lyric default-y="-147" number="4">
          <syllabic>single</syllabic>
          <text>rose;</text>
        </lyric>
        <lyric default-y="-168" number="5">
          <syllabic>single</syllabic>
          <text font-size="8.25" font-style="italic" font-weight="bold">state,</text>
        </lyric>
        <lyric default-y="-189" number="6">
          <syllabic>single</syllabic>
          <text>stand,</text>
        </lyric>
        <lyric default-y="-210" number="7">
          <syllabic>end</syllabic>
          <text>gins</text>
        </lyric>
      </note>
      <note default-x="19">
        <chord/>
        <pitch>
          <step>D</step>
          <octave>4</octave>
        </pitch>
        <duration>6</duration>
        <voice>1</voice>
        <type>half</type>
        <dot/>
        <stem>up</stem>
      </note>
      <note default-x="68">
        <pitch>
          <step>D</step>
          <octave>4</octave>
        </pitch>
        <duration>2</duration>
        <voice>1</voice>
        <type>quarter</type>
        <stem default-y="7">up</stem>
        <lyric default-y="-85" number="1" relative-x="12">
          <syllabic>single</syllabic>
          <text>I’ll</text>
        </lyric>
        <lyric default-y="-105" number="2" relative-x="12">
          <syllabic>single</syllabic>
          <text>Shall</text>
        </lyric>
        <lyric default-y="-126" number="3" relative-x="12">
          <syllabic>single</syllabic>
          <text font-size="8.25" font-style="italic" font-weight="bold">I’ll</text>
        </lyric>
        <lyric default-y="-147" number="4" relative-x="12">
          <syllabic>single</syllabic>
          <text>He</text>
        </lyric>
        <lyric default-y="-168" number="5" relative-x="12">
          <syllabic>single</syllabic>
          <text font-size="8.25" font-style="italic" font-weight="bold">Frowns</text>
        </lyric>
        <lyric default-y="-189" number="6" relative-x="12">
          <syllabic>begin</syllabic>
          <text>Up</text>
        </lyric>
        <lyric default-y="-210" number="7" relative-x="12">
          <syllabic>single</syllabic>
          <text>To</text>
        </lyric>
      </note>
      <note default-x="68">
        <chord/>
        <pitch>
          <step>A</step>
          <octave>4</octave>
        </pitch>
        <duration>2</duration>
        <voice>1</voice>
        <type>quarter</type>
        <stem>up</stem>
      </note>
    </measure>
    <!--=======================================================-->
    <measure number="4" width="171">
      <note default-x="17">
        <pitch>
          <step>C</step>
          <alter>1</alter>
          <octave>4</octave>
        </pitch>
        <duration>2</duration>
        <voice>1</voice>
        <type>quarter</type>
        <stem default-y="7">up</stem>
        <lyric default-y="-85" number="1" relative-x="4">
          <syllabic>single</syllabic>
          <text>praise</text>
        </lyric>
        <lyric default-y="-105" number="2">
          <syllabic>begin</syllabic>
          <text>wit</text>
        </lyric>
        <lyric default-y="-126" number="3">
          <syllabic>single</syllabic>
          <text font-size="8.25" font-style="italic" font-weight="bold">sing</text>
        </lyric>
        <lyric default-y="-147" number="4">
          <syllabic>single</syllabic>
          <text>heard</text>
        </lyric>
        <lyric default-y="-168" number="5" relative-x="8">
          <syllabic>single</syllabic>
          <text font-size="8.25" font-style="italic" font-weight="bold">on</text>
        </lyric>
        <lyric default-y="-189" number="6" relative-x="-6">
          <syllabic>end</syllabic>
          <text>held</text>
        </lyric>
        <lyric default-y="-210" number="7" relative-x="-5">
          <syllabic>single</syllabic>
          <text>save</text>
        </lyric>
      </note>
      <note default-x="17">
        <chord/>
        <pitch>
          <step>A</step>
          <octave>4</octave>
        </pitch>
        <duration>2</duration>
        <voice>1</voice>
        <type>quarter</type>
        <stem>up</stem>
      </note>
      <note default-x="60">
        <pitch>
          <step>C</step>
          <alter>1</alter>
          <octave>4</octave>
        </pitch>
        <duration>2</duration>
        <voice>1</voice>
        <type>quarter</type>
        <stem default-y="12">up</stem>
        <lyric default-y="-85" number="1" relative-x="8">
          <syllabic>single</syllabic>
          <text>my</text>
        </lyric>
        <lyric default-y="-105" number="2">
          <syllabic>end</syllabic>
          <text>ness</text>
        </lyric>
        <lyric default-y="-126" number="3">
          <syllabic>single</syllabic>
          <text font-size="8.25" font-style="italic" font-weight="bold">the</text>
        </lyric>
        <lyric default-y="-147" number="4" relative-x="3">
          <syllabic>single</syllabic>
          <text>me,</text>
        </lyric>
        <lyric default-y="-168" number="5" relative-x="-6">
          <syllabic>single</syllabic>
          <text font-size="8.25" font-style="italic" font-weight="bold">the</text>
        </lyric>
        <lyric default-y="-189" number="6" relative-x="-6">
          <syllabic>single</syllabic>
          <text>and</text>
        </lyric>
        <lyric default-y="-210" number="7">
          <syllabic>single</syllabic>
          <text>from</text>
        </lyric>
      </note>
      <note default-x="60">
        <chord/>
        <pitch>
          <step>B</step>
          <octave>4</octave>
        </pitch>
        <duration>2</duration>
        <voice>1</voice>
        <type>quarter</type>
        <stem>up</stem>
      </note>
      <note default-x="100">
        <pitch>
          <step>C</step>
          <alter>1</alter>
          <octave>4</octave>
        </pitch>
        <duration>2</duration>
        <voice>1</voice>
        <type>quarter</type>
        <stem default-y="11">up</stem>
        <lyric default-y="-85" number="1" relative-x="6">
          <syllabic>begin</syllabic>
          <text>Mak</text>
        </lyric>
        <lyric default-y="-105" number="2">
          <syllabic>single</syllabic>
          <text>my</text>
        </lyric>
        <lyric default-y="-126" number="3">
          <syllabic>begin</syllabic>
          <text font-size="8.25" font-style="italic" font-weight="bold">won</text>
        </lyric>
        <lyric default-y="-147" number="4">
          <syllabic>single</syllabic>
          <text>and</text>
        </lyric>
        <lyric default-y="-168" number="5">
          <syllabic>single</syllabic>
          <text font-size="8.25" font-style="italic" font-weight="bold">proud,</text>
        </lyric>
        <lyric default-y="-189" number="6" relative-x="3">
          <syllabic>begin</syllabic>
          <text>guard</text>
        </lyric>
        <lyric default-y="-210" number="7">
          <syllabic>begin</syllabic>
          <text>sor</text>
        </lyric>
      </note>
      <note default-x="100">
        <chord/>
        <pitch>
          <step>C</step>
          <alter>1</alter>
          <octave>5</octave>
        </pitch>
        <duration>2</duration>
        <voice>1</voice>
        <type>quarter</type>
        <stem>up</stem>
      </note>
      <note default-x="143">
        <pitch>
          <step>C</step>
          <alter>1</alter>
          <octave>4</octave>
        </pitch>
        <duration>2</duration>
        <voice>1</voice>
        <type>quarter</type>
        <stem default-y="7">up</stem>
        <lyric default-y="-85" number="1">
          <syllabic>end</syllabic>
          <text>er</text>
        </lyric>
        <lyric default-y="-105" number="2">
          <syllabic>begin</syllabic>
          <text>de</text>
        </lyric>
        <lyric default-y="-126" number="3">
          <syllabic>end</syllabic>
          <text font-size="8.25" font-style="italic" font-weight="bold">ders</text>
        </lyric>
        <lyric default-y="-147" number="4" relative-x="-4">
          <syllabic>begin</syllabic>
          <text>sub</text>
        </lyric>
        <lyric default-y="-168" number="5">
          <syllabic>single</syllabic>
          <text font-size="8.25" font-style="italic" font-weight="bold">and</text>
        </lyric>
        <lyric default-y="-189" number="6" relative-x="6">
          <syllabic>end</syllabic>
          <text>ed</text>
        </lyric>
        <lyric default-y="-210" number="7">
          <syllabic>end</syllabic>
          <text>rows</text>
        </lyric>
      </note>
      <note default-x="143">
        <chord/>
        <pitch>
          <step>A</step>
          <octave>4</octave>
        </pitch>
        <duration>2</duration>
        <voice>1</voice>
        <type>quarter</type>
        <stem>up</stem>
      </note>
    </measure>
    <!--=======================================================-->
    <measure number="5" width="163">
      <note default-x="13">
        <pitch>
          <step>D</step>
          <octave>5</octave>
        </pitch>
        <duration>4</duration>
        <voice>1</voice>
        <type>half</type>
        <stem default-y="16">up</stem>
        <notations>
          <slur default-y="-61" number="1" placement="below" relative-x="5" type="start"/>
        </notations>
        <lyric default-y="-85" number="1">
          <syllabic>single</syllabic>
          <text>in</text>
        </lyric>
        <lyric default-y="-105" number="2">
          <syllabic>middle</syllabic>
          <text>vo</text>
        </lyric>
        <lyric default-y="-126" number="3">
          <syllabic>single</syllabic>
          <text font-size="8.25" font-style="italic" font-weight="bold">of</text>
        </lyric>
        <lyric default-y="-147" number="4">
          <syllabic>end</syllabic>
          <text>dued</text>
        </lyric>
        <lyric default-y="-168" number="5" relative-x="8">
          <syllabic>single</syllabic>
          <text font-size="8.25" font-style="italic" font-weight="bold">scorns</text>
        </lyric>
        <lyric default-y="-189" number="6">
          <syllabic>single</syllabic>
          <text>by</text>
        </lyric>
        <lyric default-y="-210" number="7">
          <syllabic>single</syllabic>
          <text>or</text>
        </lyric>
      </note>
      <backup>
        <duration>4</duration>
      </backup>
      <note default-x="13">
        <pitch>
          <step>D</step>
          <octave>4</octave>
        </pitch>
        <duration>2</duration>
        <voice>2</voice>
        <type>quarter</type>
        <stem default-y="-67">down</stem>
      </note>
      <note default-x="42">
        <pitch>
          <step>F</step>
          <alter>1</alter>
          <octave>4</octave>
        </pitch>
        <duration>2</duration>
        <voice>2</voice>
        <type>quarter</type>
        <stem default-y="-59">down</stem>
        <notations>
          <slur default-y="-57" number="1" type="stop"/>
        </notations>
      </note>
      <note default-x="70">
        <pitch>
          <step>B</step>
          <octave>4</octave>
        </pitch>
        <duration>4</duration>
        <voice>1</voice>
        <type>half</type>
        <stem default-y="12">up</stem>
        <notations>
          <slur default-y="-58" number="2" placement="below" type="start"/>
        </notations>
        <lyric default-y="-85" number="1">
          <syllabic>single</syllabic>
          <text>my</text>
        </lyric>
        <lyric default-y="-105" number="2">
          <syllabic>end</syllabic>
          <text>tion</text>
        </lyric>
        <lyric default-y="-126" number="3">
          <syllabic>single</syllabic>
          <text font-size="8.25" font-style="italic" font-weight="bold">Thy</text>
        </lyric>
        <lyric default-y="-147" number="4">
          <syllabic>single</syllabic>
          <text>my</text>
        </lyric>
        <lyric default-y="-168" number="5">
          <syllabic>single</syllabic>
          <text font-size="8.25" font-style="italic" font-weight="bold">the</text>
        </lyric>
        <lyric default-y="-189" number="6">
          <syllabic>single</syllabic>
          <text>Thy</text>
        </lyric>
        <lyric default-y="-210" number="7">
          <syllabic>single</syllabic>
          <text>from</text>
        </lyric>
      </note>
      <backup>
        <duration>4</duration>
      </backup>
      <note default-x="70">
        <pitch>
          <step>E</step>
          <octave>4</octave>
        </pitch>
        <duration>2</duration>
        <voice>2</voice>
        <type>quarter</type>
        <stem default-y="-63">down</stem>
      </note>
      <note default-x="99">
        <pitch>
          <step>D</step>
          <octave>4</octave>
        </pitch>
        <duration>2</duration>
        <voice>2</voice>
        <type>quarter</type>
        <stem default-y="-67">down</stem>
        <notations>
          <slur default-y="-61" number="2" type="stop"/>
        </notations>
      </note>
    </measure>
    <!--=======================================================-->
    <measure number="6" width="848">
      <print new-system="yes"/>
      <note default-x="819">
        <pitch>
          <step>C</step>
          <alter>1</alter>
          <octave>4</octave>
        </pitch>
        <duration>6</duration>
        <voice>1</voice>
        <type>half</type>
        <dot/>
        <stem default-y="7">up</stem>
        <lyric default-y="-85" number="1" relative-x="-3">
          <syllabic>single</syllabic>
          <text>song,</text>
        </lyric>
        <lyric default-y="-105" number="2" relative-x="-3">
          <syllabic>single</syllabic>
          <text>there,</text>
        </lyric>
        <lyric default-y="-126" number="3" relative-x="-3">
          <syllabic>single</syllabic>
          <text font-size="8.25" font-style="italic" font-weight="bold">Word;</text>
        </lyric>
        <lyric default-y="-147" number="4" relative-x="-3">
          <syllabic>single</syllabic>
          <text>foes,</text>
        </lyric>
        <lyric default-y="-168" number="5" relative-x="-3">
          <syllabic>single</syllabic>
          <text font-size="8.25" font-style="italic" font-weight="bold">great;</text>
        </lyric>
        <lyric default-y="-189" number="6" relative-x="-3">
          <syllabic>single</syllabic>
          <text>hand;</text>
        </lyric>
        <lyric default-y="-210" number="7" relative-x="-3">
          <syllabic>single</syllabic>
          <text>sins;</text>
        </lyric>
      </note>
      <note default-x="819">
        <chord/>
        <pitch>
          <step>A</step>
          <octave>4</octave>
        </pitch>
        <duration>6</duration>
        <voice>1</voice>
        <type>half</type>
        <dot/>
        <stem>up</stem>
      </note>
      <note default-x="79">
        <pitch>
          <step>C</step>
          <alter>1</alter>
          <octave>4</octave>
        </pitch>
        <duration>2</duration>
        <voice>1</voice>
        <type>quarter</type>
        <stem default-y="-322">up</stem>
        <lyric default-y="-85" number="1">
          <syllabic>begin</syllabic>
          <text>An</text>
        </lyric>
        <lyric default-y="-105" number="2">
          <syllabic>single</syllabic>
          <text>While</text>
        </lyric>
        <lyric default-y="-126" number="3">
          <syllabic>single</syllabic>
          <text font-size="8.25" font-style="italic" font-weight="bold">Not</text>
        </lyric>
        <lyric default-y="-147" number="4">
          <syllabic>single</syllabic>
          <text>He</text>
        </lyric>
        <lyric default-y="-168" number="5">
          <syllabic>single</syllabic>
          <text font-size="8.25" font-style="italic" font-weight="bold">But</text>
        </lyric>
        <lyric default-y="-189" number="6">
          <syllabic>single</syllabic>
          <text>Thy</text>
        </lyric>
        <lyric default-y="-210" number="7">
          <syllabic>single</syllabic>
          <text>The</text>
        </lyric>
      </note>
      <note default-x="79">
        <chord/>
        <pitch>
          <step>A</step>
          <octave>4</octave>
        </pitch>
        <duration>2</duration>
        <voice>1</voice>
        <type>quarter</type>
        <stem>up</stem>
      </note>
    </measure>
    <!--=======================================================-->
    <measure number="7">
      <note default-x="-714">
        <pitch>
          <step>D</step>
          <octave>4</octave>
        </pitch>
        <duration>2</duration>
        <voice>1</voice>
        <type>quarter</type>
        <stem default-y="16.5">up</stem>
        <lyric default-y="-85" number="1">
          <syllabic>end</syllabic>
          <text>gels</text>
        </lyric>
        <lyric default-y="-105" number="2">
          <syllabic>begin</syllabic>
          <text>ho</text>
        </lyric>
        <lyric default-y="-126" number="3">
          <syllabic>single</syllabic>
          <text font-size="8.25" font-style="italic" font-weight="bold">all</text>
        </lyric>
        <lyric default-y="-147" number="4">
          <syllabic>single</syllabic>
          <text>did</text>
        </lyric>
        <lyric default-y="-168" number="5">
          <syllabic>single</syllabic>
          <text font-size="8.25" font-style="italic" font-weight="bold">from</text>
        </lyric>
        <lyric default-y="-189" number="6">
          <syllabic>single</syllabic>
          <text>words</text>
        </lyric>
        <lyric default-y="-210" number="7">
          <syllabic>single</syllabic>
          <text>work</text>
        </lyric>
      </note>
      <note default-x="-714">
        <chord/>
        <pitch>
          <step>D</step>
          <octave>5</octave>
        </pitch>
        <duration>2</duration>
        <voice>1</voice>
        <type>quarter</type>
        <stem>up</stem>
      </note>
      <note default-x="-667">
        <pitch>
          <step>D</step>
          <octave>4</octave>
        </pitch>
        <duration>2</duration>
        <voice>1</voice>
        <type>quarter</type>
        <stem default-y="11.5">up</stem>
        <lyric default-y="-85" number="1">
          <syllabic>single</syllabic>
          <text>shall</text>
        </lyric>
        <lyric default-y="-105" number="2" relative-x="-3">
          <syllabic>end</syllabic>
          <text>ly</text>
        </lyric>
        <lyric default-y="-126" number="3" relative-x="-3">
          <syllabic>single</syllabic>
          <text font-size="8.25" font-style="italic" font-weight="bold">Thy</text>
        </lyric>
        <lyric default-y="-147" number="4" relative-x="-3">
          <syllabic>single</syllabic>
          <text>my</text>
        </lyric>
        <lyric default-y="-168" number="5">
          <syllabic>single</syllabic>
          <text font-size="8.25" font-style="italic" font-weight="bold">His</text>
        </lyric>
        <lyric default-y="-189" number="6">
          <syllabic>single</syllabic>
          <text>my</text>
        </lyric>
        <lyric default-y="-210" number="7">
          <syllabic>single</syllabic>
          <text>that</text>
        </lyric>
      </note>
      <note default-x="-667">
        <chord/>
        <pitch>
          <step>C</step>
          <alter>1</alter>
          <octave>5</octave>
        </pitch>
        <duration>2</duration>
        <voice>1</voice>
        <type>quarter</type>
        <stem>up</stem>
      </note>
      <note default-x="-620">
        <pitch>
          <step>G</step>
          <octave>4</octave>
        </pitch>
        <duration>2</duration>
        <voice>1</voice>
        <type>quarter</type>
        <stem default-y="12">up</stem>
        <lyric default-y="-85" number="1">
          <syllabic>single</syllabic>
          <text>hear</text>
        </lyric>
        <lyric default-y="-105" number="2">
          <syllabic>single</syllabic>
          <text>zeal</text>
        </lyric>
        <lyric default-y="-126" number="3">
          <syllabic>single</syllabic>
          <text font-size="8.25" font-style="italic" font-weight="bold">works</text>
        </lyric>
        <lyric default-y="-147" number="4">
          <syllabic>begin</syllabic>
          <text>ris</text>
        </lyric>
        <lyric default-y="-168" number="5">
          <syllabic>single</syllabic>
          <text font-size="8.25" font-style="italic" font-weight="bold">throne</text>
        </lyric>
        <lyric default-y="-189" number="6" relative-x="-2">
          <syllabic>begin</syllabic>
          <text>faint</text>
        </lyric>
        <lyric default-y="-210" number="7" relative-x="-2">
          <syllabic>begin</syllabic>
          <text>wis</text>
        </lyric>
      </note>
      <note default-x="-620">
        <chord/>
        <pitch>
          <step>B</step>
          <octave>4</octave>
        </pitch>
        <duration>2</duration>
        <voice>1</voice>
        <type>quarter</type>
        <stem>up</stem>
      </note>
      <note default-x="-577">
        <pitch>
          <step>E</step>
          <octave>4</octave>
        </pitch>
        <duration>2</duration>
        <voice>1</voice>
        <type>quarter</type>
        <stem default-y="7">up</stem>
        <lyric default-y="-85" number="1">
          <syllabic>single</syllabic>
          <text>the</text>
        </lyric>
        <lyric default-y="-105" number="2">
          <syllabic>begin</syllabic>
          <text>di</text>
        </lyric>
        <lyric default-y="-126" number="3" relative-x="4">
          <syllabic>single</syllabic>
          <text font-size="8.25" font-style="italic" font-weight="bold">and</text>
        </lyric>
        <lyric default-y="-147" number="4">
          <syllabic>end</syllabic>
          <text>ing</text>
        </lyric>
        <lyric default-y="-168" number="5">
          <syllabic>begin</syllabic>
          <text font-size="8.25" font-style="italic" font-weight="bold">de</text>
        </lyric>
        <lyric default-y="-189" number="6">
          <syllabic>end</syllabic>
          <text>ing</text>
        </lyric>
        <lyric default-y="-210" number="7" relative-x="3">
          <syllabic>end</syllabic>
          <text>dom</text>
        </lyric>
      </note>
      <note default-x="-577">
        <chord/>
        <pitch>
          <step>A</step>
          <octave>4</octave>
        </pitch>
        <duration>2</duration>
        <voice>1</voice>
        <type>quarter</type>
        <stem>up</stem>
      </note>
    </measure>
    <!--=======================================================-->
    <measure number="8">
      <note>
        <pitch>
          <step>D</step>
          <octave>4</octave>
        </pitch>
        <duration>2</duration>
        <voice>1</voice>
        <type>quarter</type>
        <stem default-y="16.5">up</stem>
        <lyric default-y="-85" number="1">
          <syllabic>single</syllabic>
          <text>notes</text>
        </lyric>
        <lyric default-y="-105" number="2">
          <syllabic>end</syllabic>
          <text>rects</text>
        </lyric>
        <lyric default-y="-126" number="3">
          <syllabic>single</syllabic>
          <text font-size="8.25" font-style="italic" font-weight="bold">names</text>
        </lyric>
        <lyric default-y="-147" number="4">
          <syllabic>single</syllabic>
          <text>fears</text>
        </lyric>
        <lyric default-y="-168" number="5">
          <syllabic>end</syllabic>
          <text font-size="8.25" font-style="italic" font-weight="bold">scends</text>
        </lyric>
        <lyric default-y="-189" number="6">
          <syllabic>single</syllabic>
          <text>soul</text>
        </lyric>
        <lyric default-y="-210" number="7">
          <syllabic>begin</syllabic>
          <text>un</text>
        </lyric>
      </note>
      <note>
        <chord/>
        <pitch>
          <step>D</step>
          <octave>5</octave>
        </pitch>
        <duration>2</duration>
        <voice>1</voice>
        <type>quarter</type>
        <stem>up</stem>
      </note>
      <note>
        <pitch>
          <step>E</step>
          <octave>4</octave>
        </pitch>
        <duration>2</duration>
        <voice>1</voice>
        <type>quarter</type>
        <stem default-y="12">up</stem>
        <lyric default-y="-85" number="1">
          <syllabic>single</syllabic>
          <text>I</text>
        </lyric>
        <lyric default-y="-105" number="2">
          <syllabic>single</syllabic>
          <text>my</text>
        </lyric>
        <lyric default-y="-126" number="3">
          <syllabic>begin</syllabic>
          <text font-size="8.25" font-style="italic" font-weight="bold">be</text>
        </lyric>
        <lyric default-y="-147" number="4">
          <syllabic>begin</syllabic>
          <text>con</text>
        </lyric>
        <lyric default-y="-168" number="5">
          <syllabic>single</syllabic>
          <text font-size="8.25" font-style="italic" font-weight="bold">to</text>
        </lyric>
        <lyric default-y="-189" number="6">
          <syllabic>begin</syllabic>
          <text>re</text>
        </lyric>
        <lyric default-y="-210" number="7" relative-x="-9">
          <syllabic>middle</syllabic>
          <text>der</text>
        </lyric>
      </note>
      <note>
        <chord/>
        <pitch>
          <step>B</step>
          <octave>4</octave>
        </pitch>
        <duration>2</duration>
        <voice>1</voice>
        <type>quarter</type>
        <stem>up</stem>
      </note>
      <note>
        <pitch>
          <step>F</step>
          <alter>1</alter>
          <octave>4</octave>
        </pitch>
        <duration>2</duration>
        <voice>1</voice>
        <type>quarter</type>
        <stem default-y="7">up</stem>
        <lyric default-y="-85" number="1">
          <syllabic>single</syllabic>
          <text>raise,</text>
        </lyric>
        <lyric default-y="-105" number="2">
          <syllabic>single</syllabic>
          <text>eyes</text>
        </lyric>
        <lyric default-y="-126" number="3">
          <syllabic>end</syllabic>
          <text font-size="8.25" font-style="italic" font-weight="bold">low</text>
        </lyric>
        <lyric default-y="-147" number="4">
          <syllabic>end</syllabic>
          <text>trol,</text>
        </lyric>
        <lyric default-y="-168" number="5">
          <syllabic>single</syllabic>
          <text font-size="8.25" font-style="italic" font-weight="bold">see</text>
        </lyric>
        <lyric default-y="-189" number="6">
          <syllabic>end</syllabic>
          <text>vive,</text>
        </lyric>
        <lyric default-y="-210" number="7" relative-x="-5">
          <syllabic>end</syllabic>
          <text>takes,</text>
        </lyric>
      </note>
      <note>
        <chord/>
        <pitch>
          <step>A</step>
          <octave>4</octave>
        </pitch>
        <duration>2</duration>
        <voice>1</voice>
        <type>quarter</type>
        <stem>up</stem>
      </note>
      <note>
        <pitch>
          <step>C</step>
          <alter>1</alter>
          <octave>4</octave>
        </pitch>
        <duration>2</duration>
        <voice>1</voice>
        <type>quarter</type>
        <stem default-y="7">up</stem>
        <lyric default-y="-85" number="1">
          <syllabic>begin</syllabic>
          <text>Ap</text>
        </lyric>
        <lyric default-y="-105" number="2">
          <syllabic>single</syllabic>
          <text>To</text>
        </lyric>
        <lyric default-y="-126" number="3">
          <syllabic>single</syllabic>
          <text font-size="8.25" font-style="italic" font-weight="bold">So</text>
        </lyric>
        <lyric default-y="-147" number="4">
          <syllabic>single</syllabic>
          <text>And</text>
        </lyric>
        <lyric default-y="-168" number="5">
          <syllabic>single</syllabic>
          <text font-size="8.25" font-style="italic" font-weight="bold">The</text>
        </lyric>
        <lyric default-y="-189" number="6">
          <syllabic>single</syllabic>
          <text>And</text>
        </lyric>
        <lyric default-y="-210" number="7">
          <syllabic>begin</syllabic>
          <text>E</text>
        </lyric>
      </note>
      <note>
        <chord/>
        <pitch>
          <step>A</step>
          <octave>4</octave>
        </pitch>
        <duration>2</duration>
        <voice>1</voice>
        <type>quarter</type>
        <stem>up</stem>
      </note>
    </measure>
    <!--=======================================================-->
    <measure number="9">
      <note>
        <pitch>
          <step>D</step>
          <octave>4</octave>
        </pitch>
        <duration>2</duration>
        <voice>1</voice>
        <type>quarter</type>
        <stem>double</stem>
        <lyric default-y="-85" number="1" relative-x="-2">
          <syllabic>end</syllabic>
          <text>prove</text>
        </lyric>
        <lyric default-y="-105" number="2" relative-x="-2">
          <syllabic>single</syllabic>
          <text>Thy</text>
        </lyric>
        <lyric default-y="-126" number="3" relative-x="-2">
          <syllabic>single</syllabic>
          <text font-size="8.25" font-style="italic" font-weight="bold">much</text>
        </lyric>
        <lyric default-y="-147" number="4" relative-x="7">
          <syllabic>single</syllabic>
          <text>strength</text>
        </lyric>
        <lyric default-y="-168" number="5">
          <syllabic>single</syllabic>
          <text font-size="8.25" font-style="italic" font-weight="bold">sons</text>
        </lyric>
        <lyric default-y="-189" number="6">
          <syllabic>single</syllabic>
          <text>keep</text>
        </lyric>
        <lyric default-y="-210" number="7">
          <syllabic>middle</syllabic>
          <text>ter</text>
        </lyric>
      </note>
      <note>
        <pitch>
          <step>C</step>
          <alter>1</alter>
          <octave>4</octave>
        </pitch>
        <duration>2</duration>
        <voice>1</voice>
        <type>quarter</type>
        <stem default-y="-8">up</stem>
        <lyric default-y="-85" number="1">
          <syllabic>single</syllabic>
          <text>the</text>
        </lyric>
        <lyric default-y="-105" number="2">
          <syllabic>single</syllabic>
          <text>fair</text>
        </lyric>
        <lyric default-y="-126" number="3">
          <syllabic>single</syllabic>
          <text font-size="8.25" font-style="italic" font-weight="bold">Thy</text>
        </lyric>
        <lyric default-y="-147" number="4" relative-x="19">
          <syllabic>single</syllabic>
          <text>dif</text>
        </lyric>
        <lyric default-y="-168" number="5">
          <syllabic>single</syllabic>
          <text font-size="8.25" font-style="italic" font-weight="bold">of</text>
        </lyric>
        <lyric default-y="-189" number="6">
          <syllabic>single</syllabic>
          <text>my</text>
        </lyric>
        <lyric default-y="-210" number="7">
          <syllabic>end</syllabic>
          <text>nal</text>
        </lyric>
      </note>
      <note>
        <chord/>
        <pitch>
          <step>E</step>
          <octave>4</octave>
        </pitch>
        <duration>2</duration>
        <voice>1</voice>
        <type>quarter</type>
        <stem>up</stem>
      </note>
      <note>
        <pitch>
          <step>D</step>
          <octave>4</octave>
        </pitch>
        <duration>2</duration>
        <voice>1</voice>
        <type>quarter</type>
        <stem default-y="-3">up</stem>
        <lyric default-y="-85" number="1">
          <syllabic>single</syllabic>
          <text>song,</text>
        </lyric>
        <lyric default-y="-105" number="2">
          <syllabic>begin</syllabic>
          <text>tem</text>
        </lyric>
        <lyric default-y="-126" number="3">
          <syllabic>single</syllabic>
          <text font-size="8.25" font-style="italic" font-weight="bold">pow’r</text>
        </lyric>
        <lyric default-y="-147" number="4" relative-x="7">
          <syllabic>single</syllabic>
          <text>fused</text>
        </lyric>
        <lyric default-y="-168" number="5">
          <syllabic>begin</syllabic>
          <text font-size="8.25" font-style="italic" font-weight="bold">hum</text>
        </lyric>
        <lyric default-y="-189" number="6">
          <syllabic>begin</syllabic>
          <text>dy</text>
        </lyric>
        <lyric default-y="-210" number="7">
          <syllabic>begin</syllabic>
          <text>mer</text>
        </lyric>
      </note>
      <note>
        <chord/>
        <pitch>
          <step>F</step>
          <alter>1</alter>
          <octave>4</octave>
        </pitch>
        <duration>2</duration>
        <voice>1</voice>
        <type>quarter</type>
        <stem>up</stem>
      </note>
      <note>
        <pitch>
          <step>D</step>
          <octave>4</octave>
        </pitch>
        <duration>2</duration>
        <voice>1</voice>
        <type>quarter</type>
        <stem default-y="2">up</stem>
        <lyric default-y="-85" number="1">
          <syllabic>single</syllabic>
          <text>and</text>
        </lyric>
        <lyric default-y="-105" number="2">
          <syllabic>end</syllabic>
          <text>ple</text>
        </lyric>
        <lyric default-y="-126" number="3">
          <syllabic>single</syllabic>
          <text font-size="8.25" font-style="italic" font-weight="bold">and</text>
        </lyric>
        <lyric default-y="-147" number="4" relative-x="25">
          <syllabic>single</syllabic>
          <text>through</text>
        </lyric>
        <lyric default-y="-168" number="5">
          <syllabic>end</syllabic>
          <text font-size="8.25" font-style="italic" font-weight="bold">ble</text>
        </lyric>
        <lyric default-y="-189" number="6">
          <syllabic>end</syllabic>
          <text>ing</text>
        </lyric>
        <lyric default-y="-210" number="7">
          <syllabic>end</syllabic>
          <text>cy</text>
        </lyric>
      </note>
      <note>
        <chord/>
        <pitch>
          <step>G</step>
          <octave>4</octave>
        </pitch>
        <duration>2</duration>
        <voice>1</voice>
        <type>quarter</type>
        <stem>up</stem>
      </note>
    </measure>
    <!--=======================================================-->
    <measure number="10">
      <note>
        <pitch>
          <step>D</step>
          <octave>4</octave>
        </pitch>
        <duration>4</duration>
        <voice>1</voice>
        <type>half</type>
        <stem default-y="7">up</stem>
        <lyric default-y="-85" number="1">
          <syllabic>single</syllabic>
          <text>join</text>
        </lyric>
        <lyric default-y="-105" number="2">
          <syllabic>single</syllabic>
          <text>in</text>
        </lyric>
        <lyric default-y="-126" number="3">
          <syllabic>begin</syllabic>
          <text font-size="8.25" font-style="italic" font-weight="bold">glo</text>
        </lyric>
        <lyric default-y="-147" number="4" relative-x="23">
          <syllabic>single</syllabic>
          <text>all</text>
        </lyric>
        <lyric default-y="-168" number="5">
          <syllabic>begin</syllabic>
          <text font-size="8.25" font-style="italic" font-weight="bold">pov</text>
        </lyric>
        <lyric default-y="-189" number="6">
          <syllabic>single</syllabic>
          <text>faith</text>
        </lyric>
        <lyric default-y="-210" number="7">
          <syllabic>single</syllabic>
          <text>ne’er</text>
        </lyric>
      </note>
      <note>
        <chord/>
        <pitch>
          <step>A</step>
          <octave>4</octave>
        </pitch>
        <duration>4</duration>
        <voice>1</voice>
        <type>half</type>
        <stem>up</stem>
      </note>
      <note>
        <pitch>
          <step>C</step>
          <alter>1</alter>
          <octave>4</octave>
        </pitch>
        <duration>4</duration>
        <voice>1</voice>
        <type>half</type>
        <stem default-y="-8">up</stem>
        <lyric default-y="-85" number="1" relative-x="-3">
          <syllabic>single</syllabic>
          <text>the</text>
        </lyric>
        <lyric default-y="-105" number="2" relative-x="-3">
          <syllabic>single</syllabic>
          <text>the</text>
        </lyric>
        <lyric default-y="-126" number="3">
          <syllabic>end</syllabic>
          <text font-size="8.25" font-style="italic" font-weight="bold">ry</text>
        </lyric>
        <lyric default-y="-147" number="4" relative-x="13">
          <syllabic>single</syllabic>
          <text>my</text>
        </lyric>
        <lyric default-y="-168" number="5">
          <syllabic>middle</syllabic>
          <text font-size="8.25" font-style="italic" font-weight="bold">er</text>
        </lyric>
        <lyric default-y="-189" number="6">
          <syllabic>begin</syllabic>
          <text>a</text>
        </lyric>
        <lyric default-y="-210" number="7">
          <syllabic>begin</syllabic>
          <text>for</text>
        </lyric>
      </note>
      <note>
        <chord/>
        <pitch>
          <step>E</step>
          <octave>4</octave>
        </pitch>
        <duration>4</duration>
        <voice>1</voice>
        <type>half</type>
        <stem>up</stem>
      </note>
    </measure>
    <!--=======================================================-->
    <measure number="11">
      <note>
        <pitch>
          <step>A</step>
          <octave>3</octave>
        </pitch>
        <duration>6</duration>
        <voice>1</voice>
        <type>half</type>
        <dot/>
        <stem default-y="-13">up</stem>
        <lyric default-y="-85" number="1">
          <syllabic>single</syllabic>
          <text>praise.</text>
        </lyric>
        <lyric default-y="-105" number="2">
          <syllabic>single</syllabic>
          <text>skies.</text>
        </lyric>
        <lyric default-y="-126" number="3">
          <syllabic>single</syllabic>
          <text font-size="8.25" font-style="italic" font-weight="bold">show.</text>
        </lyric>
        <lyric default-y="-147" number="4" relative-x="8">
          <syllabic>single</syllabic>
          <text>soul.</text>
        </lyric>
        <lyric default-y="-168" number="5">
          <syllabic>end</syllabic>
          <text font-size="8.25" font-style="italic" font-weight="bold">ty.</text>
        </lyric>
        <lyric default-y="-189" number="6">
          <syllabic>end</syllabic>
          <text>live.</text>
        </lyric>
        <lyric default-y="-210" number="7">
          <syllabic>end</syllabic>
          <text>sakes.</text>
        </lyric>
      </note>
      <note>
        <chord/>
        <pitch>
          <step>D</step>
          <octave>4</octave>
        </pitch>
        <duration>6</duration>
        <voice>1</voice>
        <type>half</type>
        <dot/>
        <stem>up</stem>
      </note>
      <barline location="right">
        <bar-style>light-heavy</bar-style>
      </barline>
    </measure>
  </part>
  <!--=========================================================-->
  <part id="P2">
    <measure implicit="yes" number="0" width="128">
      <print>
        <staff-layout number="1">
          <staff-distance>199</staff-distance>
        </staff-layout>
        <measure-numbering>none</measure-numbering>
      </print>
      <attributes>
        <divisions>2</divisions>
        <key>
          <fifths>2</fifths>
          <mode>major</mode>
        </key>
        <time>
          <beats>4</beats>
          <beat-type>4</beat-type>
        </time>
        <clef>
          <sign>F</sign>
          <line>4</line>
        </clef>
      </attributes>
      <sound tempo="101"/>
      <note default-x="95">
        <pitch>
          <step>D</step>
          <octave>3</octave>
        </pitch>
        <duration>2</duration>
        <voice>1</voice>
        <type>quarter</type>
        <stem default-y="-51">down</stem>
      </note>
      <note default-x="95">
        <chord/>
        <pitch>
          <step>F</step>
          <alter>1</alter>
          <octave>3</octave>
        </pitch>
        <duration>2</duration>
        <voice>1</voice>
        <type>quarter</type>
        <stem>down</stem>
      </note>
    </measure>
    <!--=======================================================-->
    <measure number="1" width="189">
      <note default-x="16">
        <pitch>
          <step>D</step>
          <octave>3</octave>
        </pitch>
        <duration>2</duration>
        <voice>1</voice>
        <type>quarter</type>
        <stem default-y="-51">down</stem>
      </note>
      <note default-x="16">
        <chord/>
        <pitch>
          <step>F</step>
          <alter>1</alter>
          <octave>3</octave>
        </pitch>
        <duration>2</duration>
        <voice>1</voice>
        <type>quarter</type>
        <stem>down</stem>
      </note>
      <note default-x="62">
        <pitch>
          <step>C</step>
          <alter>1</alter>
          <octave>3</octave>
        </pitch>
        <duration>2</duration>
        <voice>1</voice>
        <type>quarter</type>
        <stem default-y="-51">down</stem>
      </note>
      <note default-x="62">
        <chord/>
        <pitch>
          <step>A</step>
          <octave>3</octave>
        </pitch>
        <duration>2</duration>
        <voice>1</voice>
        <type>quarter</type>
        <stem>down</stem>
      </note>
      <note default-x="110">
        <pitch>
          <step>B</step>
          <octave>2</octave>
        </pitch>
        <duration>2</duration>
        <voice>1</voice>
        <type>quarter</type>
        <stem default-y="-56">down</stem>
      </note>
      <note default-x="110">
        <chord/>
        <pitch>
          <step>F</step>
          <alter>1</alter>
          <octave>3</octave>
        </pitch>
        <duration>2</duration>
        <voice>1</voice>
        <type>quarter</type>
        <stem>down</stem>
      </note>
      <note default-x="156">
        <pitch>
          <step>B</step>
          <octave>2</octave>
        </pitch>
        <duration>2</duration>
        <voice>1</voice>
        <type>quarter</type>
        <stem default-y="-56">down</stem>
      </note>
      <note default-x="156">
        <chord/>
        <pitch>
          <step>F</step>
          <alter>1</alter>
          <octave>3</octave>
        </pitch>
        <duration>2</duration>
        <voice>1</voice>
        <type>quarter</type>
        <stem>down</stem>
      </note>
    </measure>
    <!--=======================================================-->
    <measure number="2" width="96">
      <note default-x="20">
        <pitch>
          <step>F</step>
          <alter>1</alter>
          <octave>2</octave>
        </pitch>
        <duration>4</duration>
        <voice>1</voice>
        <type>half</type>
        <stem default-y="12">up</stem>
      </note>
      <note default-x="20">
        <chord/>
        <pitch>
          <step>D</step>
          <octave>3</octave>
        </pitch>
        <duration>4</duration>
        <voice>1</voice>
        <type>half</type>
        <stem>up</stem>
      </note>
      <note default-x="67">
        <pitch>
          <step>A</step>
          <octave>2</octave>
        </pitch>
        <duration>4</duration>
        <voice>1</voice>
        <type>half</type>
        <stem default-y="11.5">up</stem>
      </note>
      <note default-x="67">
        <chord/>
        <pitch>
          <step>E</step>
          <octave>3</octave>
        </pitch>
        <duration>4</duration>
        <voice>1</voice>
        <type>half</type>
        <stem>up</stem>
      </note>
    </measure>
    <!--=======================================================-->
    <measure number="3" width="100">
      <note default-x="19">
        <pitch>
          <step>D</step>
          <octave>3</octave>
        </pitch>
        <duration>6</duration>
        <voice>1</voice>
        <type>half</type>
        <dot/>
        <stem default-y="-51">down</stem>
      </note>
      <note default-x="19">
        <chord/>
        <pitch>
          <step>F</step>
          <alter>1</alter>
          <octave>3</octave>
        </pitch>
        <duration>6</duration>
        <voice>1</voice>
        <type>half</type>
        <dot/>
        <stem>down</stem>
      </note>
      <note default-x="68">
        <pitch>
          <step>D</step>
          <octave>3</octave>
        </pitch>
        <duration>2</duration>
        <voice>1</voice>
        <type>quarter</type>
        <stem default-y="-51">down</stem>
      </note>
      <note default-x="68">
        <chord/>
        <pitch>
          <step>F</step>
          <alter>1</alter>
          <octave>3</octave>
        </pitch>
        <duration>2</duration>
        <voice>1</voice>
        <type>quarter</type>
        <stem>down</stem>
      </note>
    </measure>
    <!--=======================================================-->
    <measure number="4" width="171">
      <note default-x="17">
        <pitch>
          <step>A</step>
          <octave>2</octave>
        </pitch>
        <duration>2</duration>
        <voice>1</voice>
        <type>quarter</type>
        <stem default-y="11.5">up</stem>
      </note>
      <note default-x="17">
        <chord/>
        <pitch>
          <step>E</step>
          <octave>3</octave>
        </pitch>
        <duration>2</duration>
        <voice>1</voice>
        <type>quarter</type>
        <stem>up</stem>
      </note>
      <note default-x="60">
        <pitch>
          <step>A</step>
          <octave>2</octave>
        </pitch>
        <duration>2</duration>
        <voice>1</voice>
        <type>quarter</type>
        <stem default-y="11.5">up</stem>
      </note>
      <note default-x="60">
        <chord/>
        <pitch>
          <step>E</step>
          <octave>3</octave>
        </pitch>
        <duration>2</duration>
        <voice>1</voice>
        <type>quarter</type>
        <stem>up</stem>
      </note>
      <note default-x="100">
        <pitch>
          <step>F</step>
          <alter>1</alter>
          <octave>2</octave>
        </pitch>
        <duration>2</duration>
        <voice>1</voice>
        <type>quarter</type>
        <stem default-y="23">up</stem>
      </note>
      <note default-x="100">
        <chord/>
        <pitch>
          <step>A</step>
          <octave>3</octave>
        </pitch>
        <duration>2</duration>
        <voice>1</voice>
        <type>quarter</type>
        <stem>up</stem>
      </note>
      <note default-x="143">
        <pitch>
          <step>F</step>
          <alter>1</alter>
          <octave>2</octave>
        </pitch>
        <duration>2</duration>
        <voice>1</voice>
        <type>quarter</type>
        <stem default-y="23">up</stem>
      </note>
      <note default-x="143">
        <chord/>
        <pitch>
          <step>A</step>
          <octave>3</octave>
        </pitch>
        <duration>2</duration>
        <voice>1</voice>
        <type>quarter</type>
        <stem>up</stem>
      </note>
    </measure>
    <!--=======================================================-->
    <measure number="5" width="163">
      <note default-x="13">
        <pitch>
          <step>B</step>
          <octave>2</octave>
        </pitch>
        <duration>4</duration>
        <voice>1</voice>
        <type>half</type>
        <stem default-y="-56">down</stem>
      </note>
      <note default-x="13">
        <chord/>
        <pitch>
          <step>A</step>
          <octave>3</octave>
        </pitch>
        <duration>4</duration>
        <voice>1</voice>
        <type>half</type>
        <stem>down</stem>
      </note>
      <note default-x="70">
        <pitch>
          <step>E</step>
          <octave>3</octave>
        </pitch>
        <duration>4</duration>
        <voice>1</voice>
        <type>half</type>
        <stem default-y="-46">down</stem>
      </note>
      <note default-x="70">
        <chord/>
        <pitch>
          <step>G</step>
          <alter>1</alter>
          <octave>3</octave>
        </pitch>
        <duration>4</duration>
        <voice>1</voice>
        <type>half</type>
        <accidental>sharp</accidental>
        <stem>down</stem>
      </note>
    </measure>
    <!--=======================================================-->
    <measure number="6" width="848">
      <print new-system="yes">
        <staff-layout number="1">
          <staff-distance>199</staff-distance>
        </staff-layout>
      </print>
      <note default-x="819">
        <pitch>
          <step>A</step>
          <octave>2</octave>
        </pitch>
        <duration>6</duration>
        <voice>1</voice>
        <type>half</type>
        <dot/>
        <stem default-y="-61">down</stem>
      </note>
      <note default-x="819">
        <chord/>
        <pitch>
          <step>A</step>
          <octave>3</octave>
        </pitch>
        <duration>6</duration>
        <voice>1</voice>
        <type>half</type>
        <dot/>
        <stem>down</stem>
      </note>
      <note default-x="79">
        <pitch>
          <step>A</step>
          <octave>3</octave>
        </pitch>
        <duration>2</duration>
        <voice>1</voice>
        <type>quarter</type>
        <stem default-y="-307">up</stem>
      </note>
      <backup>
        <duration>2</duration>
      </backup>
      <note default-x="88">
        <pitch>
          <step>G</step>
          <octave>3</octave>
        </pitch>
        <duration>2</duration>
        <voice>2</voice>
        <type>quarter</type>
        <stem default-y="-366">down</stem>
      </note>
    </measure>
    <!--=======================================================-->
    <measure number="7">
      <note default-x="-714">
        <pitch>
          <step>F</step>
          <alter>1</alter>
          <octave>3</octave>
        </pitch>
        <duration>2</duration>
        <voice>1</voice>
        <type>quarter</type>
        <stem default-y="-41.5">down</stem>
      </note>
      <note default-x="-714">
        <chord/>
        <pitch>
          <step>A</step>
          <octave>3</octave>
        </pitch>
        <duration>2</duration>
        <voice>1</voice>
        <type>quarter</type>
        <stem>down</stem>
      </note>
      <note default-x="-667">
        <pitch>
          <step>F</step>
          <alter>1</alter>
          <octave>2</octave>
        </pitch>
        <duration>2</duration>
        <voice>1</voice>
        <type>quarter</type>
        <stem default-y="22">up</stem>
      </note>
      <note default-x="-667">
        <chord/>
        <pitch>
          <step>A</step>
          <octave>3</octave>
        </pitch>
        <duration>2</duration>
        <voice>1</voice>
        <type>quarter</type>
        <stem>up</stem>
      </note>
      <note default-x="-620">
        <pitch>
          <step>G</step>
          <octave>2</octave>
        </pitch>
        <duration>2</duration>
        <voice>1</voice>
        <type>quarter</type>
        <stem default-y="-66">down</stem>
      </note>
      <note default-x="-620">
        <chord/>
        <pitch>
          <step>B</step>
          <octave>3</octave>
        </pitch>
        <duration>2</duration>
        <voice>1</voice>
        <type>quarter</type>
        <stem>down</stem>
      </note>
      <note default-x="-577">
        <pitch>
          <step>A</step>
          <octave>2</octave>
        </pitch>
        <duration>2</duration>
        <voice>1</voice>
        <type>quarter</type>
        <stem default-y="-61">down</stem>
      </note>
      <note default-x="-577">
        <chord/>
        <pitch>
          <step>C</step>
          <alter>1</alter>
          <octave>4</octave>
        </pitch>
        <duration>2</duration>
        <voice>1</voice>
        <type>quarter</type>
        <stem>down</stem>
      </note>
    </measure>
    <!--=======================================================-->
    <measure number="8">
      <note>
        <pitch>
          <step>B</step>
          <octave>2</octave>
        </pitch>
        <duration>2</duration>
        <voice>1</voice>
        <type>quarter</type>
        <stem default-y="-56">down</stem>
      </note>
      <note>
        <chord/>
        <pitch>
          <step>G</step>
          <octave>3</octave>
        </pitch>
        <duration>2</duration>
        <voice>1</voice>
        <type>quarter</type>
        <stem>down</stem>
      </note>
      <note>
        <pitch>
          <step>C</step>
          <alter>1</alter>
          <octave>3</octave>
        </pitch>
        <duration>2</duration>
        <voice>1</voice>
        <type>quarter</type>
        <stem default-y="-51">down</stem>
      </note>
      <note>
        <chord/>
        <pitch>
          <step>G</step>
          <octave>3</octave>
        </pitch>
        <duration>2</duration>
        <voice>1</voice>
        <type>quarter</type>
        <stem>down</stem>
      </note>
      <note>
        <pitch>
          <step>D</step>
          <octave>3</octave>
        </pitch>
        <duration>2</duration>
        <voice>1</voice>
        <type>quarter</type>
        <stem default-y="-51.5">down</stem>
      </note>
      <note>
        <chord/>
        <pitch>
          <step>F</step>
          <alter>1</alter>
          <octave>3</octave>
        </pitch>
        <duration>2</duration>
        <voice>1</voice>
        <type>quarter</type>
        <stem>down</stem>
      </note>
      <note>
        <pitch>
          <step>E</step>
          <octave>3</octave>
        </pitch>
        <duration>2</duration>
        <voice>1</voice>
        <type>quarter</type>
        <stem default-y="-46.5">down</stem>
      </note>
      <note>
        <chord/>
        <pitch>
          <step>G</step>
          <octave>3</octave>
        </pitch>
        <duration>2</duration>
        <voice>1</voice>
        <type>quarter</type>
        <stem>down</stem>
      </note>
    </measure>
    <!--=======================================================-->
    <measure number="9">
      <note>
        <pitch>
          <step>F</step>
          <alter>1</alter>
          <octave>3</octave>
        </pitch>
        <duration>2</duration>
        <voice>1</voice>
        <type>quarter</type>
        <stem default-y="-41.5">down</stem>
      </note>
      <note>
        <chord/>
        <pitch>
          <step>A</step>
          <octave>3</octave>
        </pitch>
        <duration>2</duration>
        <voice>1</voice>
        <type>quarter</type>
        <stem>down</stem>
      </note>
      <note>
        <pitch>
          <step>E</step>
          <octave>3</octave>
        </pitch>
        <duration>2</duration>
        <voice>1</voice>
        <type>quarter</type>
        <stem default-y="-46.5">down</stem>
      </note>
      <note>
        <chord/>
        <pitch>
          <step>A</step>
          <octave>3</octave>
        </pitch>
        <duration>2</duration>
        <voice>1</voice>
        <type>quarter</type>
        <stem>down</stem>
      </note>
      <note>
        <pitch>
          <step>D</step>
          <octave>3</octave>
        </pitch>
        <duration>2</duration>
        <voice>1</voice>
        <type>quarter</type>
        <stem default-y="-51.5">down</stem>
      </note>
      <note>
        <chord/>
        <pitch>
          <step>A</step>
          <octave>3</octave>
        </pitch>
        <duration>2</duration>
        <voice>1</voice>
        <type>quarter</type>
        <stem>down</stem>
      </note>
      <note>
        <pitch>
          <step>B</step>
          <octave>2</octave>
        </pitch>
        <duration>2</duration>
        <voice>1</voice>
        <type>quarter</type>
        <stem default-y="-56">down</stem>
      </note>
      <note>
        <chord/>
        <pitch>
          <step>G</step>
          <octave>3</octave>
        </pitch>
        <duration>2</duration>
        <voice>1</voice>
        <type>quarter</type>
        <stem>down</stem>
      </note>
    </measure>
    <!--=======================================================-->
    <measure number="10">
      <note>
        <pitch>
          <step>F</step>
          <alter>1</alter>
          <octave>2</octave>
        </pitch>
        <duration>4</duration>
        <voice>1</voice>
        <type>half</type>
        <stem default-y="12">up</stem>
      </note>
      <note>
        <chord/>
        <pitch>
          <step>D</step>
          <octave>3</octave>
        </pitch>
        <duration>4</duration>
        <voice>1</voice>
        <type>half</type>
        <stem>up</stem>
      </note>
      <note>
        <pitch>
          <step>A</step>
          <octave>2</octave>
        </pitch>
        <duration>4</duration>
        <voice>1</voice>
        <type>half</type>
        <stem default-y="-61">down</stem>
      </note>
      <note>
        <chord/>
        <pitch>
          <step>G</step>
          <octave>3</octave>
        </pitch>
        <duration>4</duration>
        <voice>1</voice>
        <type>half</type>
        <stem>down</stem>
      </note>
    </measure>
    <!--=======================================================-->
    <measure number="11">
      <note>
        <pitch>
          <step>D</step>
          <octave>3</octave>
        </pitch>
        <duration>6</duration>
        <voice>1</voice>
        <type>half</type>
        <dot/>
        <stem default-y="-51.5">down</stem>
      </note>
      <note>
        <chord/>
        <pitch>
          <step>F</step>
          <alter>1</alter>
          <octave>3</octave>
        </pitch>
        <duration>6</duration>
        <voice>1</voice>
        <type>half</type>
        <dot/>
        <stem>down</stem>
      </note>
      <barline location="right">
        <bar-style>light-heavy</bar-style>
      </barline>
    </measure>
  </part>
  <!--=========================================================-->
</score-partwise>
