<?xml version="1.0" encoding="UTF-8" standalone="no"?>
<!DOCTYPE score-partwise PUBLIC "-//Recordare//DTD MusicXML 3.1 Partwise//EN" "http://www.musicxml.org/dtds/partwise.dtd">
<score-partwise version="3.1">
  <identification>
    <encoding>
      <software>Finale v25 for Windows</software>
      <encoding-date>2020-07-07</encoding-date>
      <supports attribute="new-system" element="print" type="yes" value="yes"/>
      <supports attribute="new-page" element="print" type="yes" value="yes"/>
      <supports element="accidental" type="yes"/>
      <supports element="beam" type="yes"/>
      <supports element="stem" type="yes"/>
    </encoding>
  </identification>
  <defaults>
    <scaling>
      <millimeters>6.35</millimeters>
      <tenths>40</tenths>
    </scaling>
    <page-layout>
      <page-height>1380</page-height>
      <page-width>852</page-width>
      <page-margins type="both">
        <left-margin>0</left-margin>
        <right-margin>0</right-margin>
        <top-margin>0</top-margin>
        <bottom-margin>342</bottom-margin>
      </page-margins>
    </page-layout>
    <system-layout>
      <system-margins>
        <left-margin>5</left-margin>
        <right-margin>0</right-margin>
      </system-margins>
      <system-distance>75</system-distance>
      <top-system-distance>75</top-system-distance>
    </system-layout>
    <appearance>
      <line-width type="stem">0.8333</line-width>
      <line-width type="beam">4.1667</line-width>
      <line-width type="staff">0.7096</line-width>
      <line-width type="light barline">0.8333</line-width>
      <line-width type="heavy barline">5</line-width>
      <line-width type="leger">0.7292</line-width>
      <line-width type="ending">0.7682</line-width>
      <line-width type="wedge">0.8333</line-width>
      <line-width type="enclosure">0.8333</line-width>
      <line-width type="tuplet bracket">0.7292</line-width>
      <note-size type="grace">55</note-size>
      <note-size type="cue">55</note-size>
      <distance type="hyphen">83</distance>
      <distance type="beam">8</distance>
    </appearance>
    <music-font font-family="Petrucci2" font-size="18"/>
    <word-font font-family="Palatino Linotype" font-size="9"/>
    <lyric-font font-family="Palatino Linotype" font-size="8.1"/>
  </defaults>
  <credit page="1">
    <credit-words default-y="342" font-size="7.5" valign="bottom">Music: David R. Erb, 2013 </credit-words>
    <credit-words font-size="6">©</credit-words>
    <credit-words font-size="7.5" xml:space="preserve">
Text: </credit-words>
    <credit-words font-size="7.5" font-style="italic">Holy Bible, New King James Version</credit-words>
    <credit-words font-size="7.5" font-style="normal">, 1982 </credit-words>
    <credit-words font-size="6">©</credit-words>
  </credit>
  <part-list>
    <part-group number="1" type="start">
      <group-symbol default-x="-2">line</group-symbol>
      <group-barline>yes</group-barline>
    </part-group>
    <score-part id="P1">
      <part-name print-object="no">MusicXML Part</part-name>
      <score-instrument id="P1-I2">
        <instrument-name>Instr. 1</instrument-name>
      </score-instrument>
      <midi-instrument id="P1-I2">
        <midi-channel>1</midi-channel>
        <midi-program>53</midi-program>
        <volume>80</volume>
        <pan>0</pan>
      </midi-instrument>
    </score-part>
    <part-group number="1" type="stop"/>
  </part-list>
  <!--=========================================================-->
  <part id="P1">
    <measure number="1" width="312">
      <print>
        <system-layout>
          <top-system-distance>92</top-system-distance>
        </system-layout>
        <measure-numbering>system</measure-numbering>
      </print>
      <attributes>
        <divisions>8</divisions>
        <key>
          <fifths>-1</fifths>
          <mode>major</mode>
        </key>
        <clef>
          <sign>G</sign>
          <line>2</line>
        </clef>
        <staff-details>
          <staff-size>90</staff-size>
        </staff-details>
      </attributes>
      <sound tempo="100"/>
      <harmony default-y="13" font-size="6.75">
        <root>
          <root-step>C</root-step>
        </root>
        <kind halign="center" text="">major</kind>
      </harmony>
      <note default-x="65">
        <pitch>
          <step>C</step>
          <octave>4</octave>
        </pitch>
        <duration>8</duration>
        <instrument id="P1-I2"/>
        <voice>1</voice>
        <type>quarter</type>
        <stem default-y="-16">up</stem>
        <lyric default-y="-70" number="1">
          <syllabic>single</syllabic>
          <text font-size="4">1</text>
          <elision> </elision>
          <syllabic>single</syllabic>
          <text font-size="4">Make</text>
        </lyric>
      </note>
      <note default-x="114">
        <pitch>
          <step>D</step>
          <octave>4</octave>
        </pitch>
        <duration>8</duration>
        <instrument id="P1-I2"/>
        <voice>1</voice>
        <type>quarter</type>
        <stem default-y="-12">up</stem>
        <lyric default-y="-70" number="1">
          <syllabic>single</syllabic>
          <text>a</text>
        </lyric>
      </note>
      <note default-x="163">
        <pitch>
          <step>E</step>
          <octave>4</octave>
        </pitch>
        <duration>4</duration>
        <instrument id="P1-I2"/>
        <voice>1</voice>
        <type>eighth</type>
        <stem default-y="-8">up</stem>
        <beam number="1">begin</beam>
        <notations>
          <slur bezier-x="9" bezier-y="-5" default-x="6" default-y="-43" number="1" placement="below" type="start"/>
        </notations>
        <lyric default-y="-70" number="1">
          <syllabic>begin</syllabic>
          <text>joy</text>
        </lyric>
      </note>
      <note default-x="212">
        <pitch>
          <step>F</step>
          <octave>4</octave>
        </pitch>
        <duration>4</duration>
        <instrument id="P1-I2"/>
        <voice>1</voice>
        <type>eighth</type>
        <stem default-y="-3.5">up</stem>
        <beam number="1">continue</beam>
        <notations>
          <slur bezier-x="-7" bezier-y="-6" default-x="6" default-y="-38" number="1" type="stop"/>
        </notations>
      </note>
      <note default-x="262">
        <pitch>
          <step>G</step>
          <octave>4</octave>
        </pitch>
        <duration>4</duration>
        <instrument id="P1-I2"/>
        <voice>1</voice>
        <type>eighth</type>
        <stem default-y="1">up</stem>
        <beam number="1">end</beam>
        <lyric default-y="-70" number="1">
          <syllabic>end</syllabic>
          <text>ful</text>
        </lyric>
      </note>
    </measure>
    <!--=======================================================-->
    <measure number="2" width="317">
      <harmony default-y="13" font-size="6.75">
        <root>
          <root-step>F</root-step>
        </root>
        <kind halign="center" text="">major</kind>
      </harmony>
      <note default-x="23">
        <pitch>
          <step>A</step>
          <octave>4</octave>
        </pitch>
        <duration>8</duration>
        <instrument id="P1-I2"/>
        <voice>1</voice>
        <type>quarter</type>
        <stem default-y="6">up</stem>
        <lyric default-y="-70" number="1">
          <syllabic>single</syllabic>
          <text>shout</text>
        </lyric>
      </note>
      <note default-x="81">
        <pitch>
          <step>G</step>
          <octave>4</octave>
        </pitch>
        <duration>4</duration>
        <instrument id="P1-I2"/>
        <voice>1</voice>
        <type>eighth</type>
        <stem default-y="1">up</stem>
        <beam number="1">begin</beam>
        <lyric default-y="-70" number="1">
          <syllabic>single</syllabic>
          <text>to</text>
        </lyric>
      </note>
      <note default-x="139">
        <pitch>
          <step>F</step>
          <octave>4</octave>
        </pitch>
        <duration>4</duration>
        <instrument id="P1-I2"/>
        <voice>1</voice>
        <type>eighth</type>
        <stem default-y="-3.5">up</stem>
        <beam number="1">end</beam>
        <lyric default-y="-70" number="1">
          <syllabic>single</syllabic>
          <text>the</text>
        </lyric>
      </note>
      <harmony default-y="13" font-size="6.75">
        <root>
          <root-step>C</root-step>
        </root>
        <kind halign="center" text="">major</kind>
      </harmony>
      <note default-x="198">
        <pitch>
          <step>G</step>
          <octave>4</octave>
        </pitch>
        <duration>8</duration>
        <instrument id="P1-I2"/>
        <voice>1</voice>
        <type>quarter</type>
        <stem default-y="1.5">up</stem>
        <notations>
          <slur bezier-x="10" bezier-y="-6" default-x="5" default-y="-34" number="1" placement="below" type="start"/>
        </notations>
        <lyric default-y="-70" number="1">
          <syllabic>single</syllabic>
          <text>LORD,</text>
        </lyric>
      </note>
      <harmony default-y="13" font-size="6.75">
        <root>
          <root-step>F</root-step>
        </root>
        <kind halign="center" text="">major</kind>
      </harmony>
      <note default-x="257">
        <pitch>
          <step>A</step>
          <octave>4</octave>
        </pitch>
        <duration>8</duration>
        <instrument id="P1-I2"/>
        <voice>1</voice>
        <type>quarter</type>
        <stem default-y="6">up</stem>
        <notations>
          <slur bezier-x="-9" bezier-y="-7" default-x="6" default-y="-29" number="1" type="stop"/>
        </notations>
      </note>
    </measure>
    <!--=======================================================-->
    <measure number="3" width="117">
      <harmony default-y="13" font-size="6.75">
        <root>
          <root-step>B</root-step>
          <root-alter>-1</root-alter>
        </root>
        <kind halign="center" text="">major</kind>
      </harmony>
      <note default-x="9">
        <pitch>
          <step>B</step>
          <alter>-1</alter>
          <octave>4</octave>
        </pitch>
        <duration>16</duration>
        <instrument id="P1-I2"/>
        <voice>1</voice>
        <type>half</type>
        <stem default-y="-46">down</stem>
        <lyric default-y="-70" number="1">
          <syllabic>single</syllabic>
          <text>all</text>
        </lyric>
      </note>
      <harmony default-y="13" font-size="6.75">
        <root>
          <root-step>F</root-step>
        </root>
        <kind halign="center" text="">major</kind>
      </harmony>
      <note default-x="62">
        <pitch>
          <step>A</step>
          <octave>4</octave>
        </pitch>
        <duration>16</duration>
        <instrument id="P1-I2"/>
        <voice>1</voice>
        <type>half</type>
        <stem default-y="6">up</stem>
        <lyric default-y="-70" number="1">
          <syllabic>single</syllabic>
          <text>you</text>
        </lyric>
      </note>
    </measure>
    <!--=======================================================-->
    <measure number="4" width="101">
      <harmony default-y="13" font-size="6.75">
        <root>
          <root-step>G</root-step>
        </root>
        <kind halign="center" text="sus">suspended-fourth</kind>
      </harmony>
      <harmony default-y="13" font-size="6.75" relative-x="53">
        <root>
          <root-step>G</root-step>
        </root>
        <kind halign="center" text="">major</kind>
      </harmony>
      <note default-x="25">
        <pitch>
          <step>G</step>
          <octave>4</octave>
        </pitch>
        <duration>32</duration>
        <instrument id="P1-I2"/>
        <voice>1</voice>
        <type>whole</type>
        <lyric default-y="-70" number="1">
          <syllabic>single</syllabic>
          <text>lands!</text>
        </lyric>
      </note>
    </measure>
    <!--=======================================================-->
    <measure number="5" width="243">
      <print new-system="yes">
        <system-layout>
          <system-distance>79</system-distance>
        </system-layout>
      </print>
      <harmony default-y="13" font-size="6.75">
        <root>
          <root-step>F</root-step>
        </root>
        <kind halign="center" text="">major</kind>
      </harmony>
      <note default-x="62">
        <pitch>
          <step>A</step>
          <octave>4</octave>
        </pitch>
        <duration>4</duration>
        <instrument id="P1-I2"/>
        <voice>1</voice>
        <type>eighth</type>
        <stem default-y="6">up</stem>
        <beam number="1">begin</beam>
        <notations>
          <slur bezier-x="4" bezier-y="-6" default-x="6" default-y="-30" number="1" placement="below" type="start"/>
        </notations>
        <lyric default-y="-70" number="1">
          <syllabic>single</syllabic>
          <text font-size="4">2</text>
          <elision> </elision>
          <syllabic>single</syllabic>
          <text font-size="4">Serve</text>
        </lyric>
      </note>
      <note default-x="91">
        <pitch>
          <step>G</step>
          <octave>4</octave>
        </pitch>
        <duration>4</duration>
        <instrument id="P1-I2"/>
        <voice>1</voice>
        <type>eighth</type>
        <stem default-y="1">up</stem>
        <beam number="1">continue</beam>
        <notations>
          <slur bezier-x="-6" bezier-y="-4" default-x="6" default-y="-34" number="1" type="stop"/>
        </notations>
      </note>
      <note default-x="118">
        <pitch>
          <step>F</step>
          <octave>4</octave>
        </pitch>
        <duration>4</duration>
        <instrument id="P1-I2"/>
        <voice>1</voice>
        <type>eighth</type>
        <stem default-y="-3">up</stem>
        <beam number="1">end</beam>
        <lyric default-y="-70" number="1" relative-x="-3">
          <syllabic>single</syllabic>
          <text>the</text>
        </lyric>
      </note>
      <harmony default-y="13" font-size="6.75">
        <root>
          <root-step>C</root-step>
        </root>
        <kind halign="center" text="">major</kind>
      </harmony>
      <note default-x="157">
        <pitch>
          <step>G</step>
          <octave>4</octave>
        </pitch>
        <duration>4</duration>
        <instrument id="P1-I2"/>
        <voice>1</voice>
        <type>eighth</type>
        <stem default-y="1">up</stem>
        <beam number="1">begin</beam>
        <notations>
          <slur bezier-x="4" bezier-y="-5" default-x="6" default-y="-34" number="1" placement="below" type="start"/>
        </notations>
        <lyric default-y="-70" number="1">
          <syllabic>single</syllabic>
          <text>LORD</text>
        </lyric>
      </note>
      <note default-x="184">
        <pitch>
          <step>F</step>
          <octave>4</octave>
        </pitch>
        <duration>4</duration>
        <instrument id="P1-I2"/>
        <voice>1</voice>
        <type>eighth</type>
        <stem default-y="-3">up</stem>
        <beam number="1">continue</beam>
        <notations>
          <slur bezier-x="-5" bezier-y="-4" default-x="5" default-y="-39" number="1" type="stop"/>
        </notations>
      </note>
      <note default-x="212">
        <pitch>
          <step>E</step>
          <octave>4</octave>
        </pitch>
        <duration>4</duration>
        <instrument id="P1-I2"/>
        <voice>1</voice>
        <type>eighth</type>
        <stem default-y="-8">up</stem>
        <beam number="1">end</beam>
        <lyric default-y="-70" number="1">
          <syllabic>single</syllabic>
          <text>with</text>
        </lyric>
      </note>
    </measure>
    <!--=======================================================-->
    <measure number="6" width="161">
      <harmony default-y="13" font-size="6.75">
        <root>
          <root-step>D</root-step>
        </root>
        <kind halign="center" text="5">power</kind>
      </harmony>
      <note default-x="17">
        <pitch>
          <step>D</step>
          <octave>4</octave>
        </pitch>
        <duration>8</duration>
        <instrument id="P1-I2"/>
        <voice>1</voice>
        <type>quarter</type>
        <stem default-y="-12">up</stem>
        <notations>
          <slur bezier-x="11" bezier-y="-4" default-x="6" default-y="-48" number="1" placement="below" type="start"/>
        </notations>
        <lyric default-y="-70" number="1">
          <syllabic>begin</syllabic>
          <text>glad</text>
        </lyric>
      </note>
      <note default-x="50">
        <pitch>
          <step>E</step>
          <octave>4</octave>
        </pitch>
        <duration>4</duration>
        <instrument id="P1-I2"/>
        <voice>1</voice>
        <type>eighth</type>
        <stem default-y="-8">up</stem>
        <beam number="1">begin</beam>
      </note>
      <note default-x="77">
        <pitch>
          <step>F</step>
          <octave>4</octave>
        </pitch>
        <duration>4</duration>
        <instrument id="P1-I2"/>
        <voice>1</voice>
        <type>eighth</type>
        <stem default-y="-3">up</stem>
        <beam number="1">end</beam>
        <notations>
          <slur bezier-x="-9" bezier-y="-7" default-x="5" default-y="-39" number="1" type="stop"/>
        </notations>
      </note>
      <note default-x="104">
        <pitch>
          <step>G</step>
          <octave>4</octave>
        </pitch>
        <duration>8</duration>
        <instrument id="P1-I2"/>
        <voice>1</voice>
        <type>quarter</type>
        <stem default-y="2">up</stem>
        <notations>
          <slur bezier-x="6" bezier-y="-4" default-x="6" default-y="-34" number="1" placement="below" type="start"/>
        </notations>
        <lyric default-y="-70" number="1">
          <syllabic>end</syllabic>
          <text>ness;</text>
        </lyric>
      </note>
      <note default-x="138">
        <pitch>
          <step>A</step>
          <octave>4</octave>
        </pitch>
        <duration>8</duration>
        <instrument id="P1-I2"/>
        <voice>1</voice>
        <type>quarter</type>
        <stem default-y="6">up</stem>
        <notations>
          <slur bezier-x="-5" bezier-y="-6" default-x="5" default-y="-30" number="1" type="stop"/>
        </notations>
      </note>
    </measure>
    <!--=======================================================-->
    <measure number="7" width="187">
      <harmony default-y="13" font-size="6.75">
        <root>
          <root-step>G</root-step>
        </root>
        <kind halign="center" text="m">minor</kind>
      </harmony>
      <note default-x="23">
        <pitch>
          <step>B</step>
          <alter>-1</alter>
          <octave>4</octave>
        </pitch>
        <duration>4</duration>
        <instrument id="P1-I2"/>
        <voice>1</voice>
        <type>eighth</type>
        <stem default-y="7">up</stem>
        <beam number="1">begin</beam>
        <notations>
          <slur bezier-x="3" bezier-y="-6" default-x="6" default-y="-25" number="1" placement="below" type="start"/>
        </notations>
        <lyric default-y="-70" number="1">
          <syllabic>single</syllabic>
          <text>Come</text>
        </lyric>
      </note>
      <note default-x="52">
        <pitch>
          <step>G</step>
          <octave>4</octave>
        </pitch>
        <duration>4</duration>
        <instrument id="P1-I2"/>
        <voice>1</voice>
        <type>eighth</type>
        <stem default-y="7">up</stem>
        <beam number="1">continue</beam>
        <notations>
          <slur bezier-x="-7" bezier-y="-3" default-x="5" default-y="-34" number="1" type="stop"/>
        </notations>
      </note>
      <note default-x="81">
        <pitch>
          <step>B</step>
          <alter>-1</alter>
          <octave>4</octave>
        </pitch>
        <duration>4</duration>
        <instrument id="P1-I2"/>
        <voice>1</voice>
        <type>eighth</type>
        <stem default-y="8">up</stem>
        <beam number="1">end</beam>
        <lyric default-y="-70" number="1">
          <syllabic>begin</syllabic>
          <text>be</text>
        </lyric>
      </note>
      <harmony default-y="13" font-size="6.75">
        <root>
          <root-step>A</root-step>
        </root>
        <kind halign="center" text="m">minor</kind>
      </harmony>
      <note default-x="117">
        <pitch>
          <step>C</step>
          <octave>5</octave>
        </pitch>
        <duration>8</duration>
        <instrument id="P1-I2"/>
        <voice>1</voice>
        <type>quarter</type>
        <stem default-y="-42">down</stem>
        <lyric default-y="-70" number="1">
          <syllabic>end</syllabic>
          <text>fore</text>
        </lyric>
      </note>
      <note default-x="157">
        <pitch>
          <step>C</step>
          <octave>4</octave>
        </pitch>
        <duration>8</duration>
        <instrument id="P1-I2"/>
        <voice>1</voice>
        <type>quarter</type>
        <stem default-y="-16.5">up</stem>
        <lyric default-y="-70" number="1">
          <syllabic>single</syllabic>
          <text>His</text>
        </lyric>
      </note>
    </measure>
    <!--=======================================================-->
    <measure number="8" width="213">
      <harmony default-y="13" font-size="6.75">
        <root>
          <root-step>D</root-step>
        </root>
        <kind halign="center" text="m">minor</kind>
      </harmony>
      <note default-x="13">
        <pitch>
          <step>F</step>
          <octave>4</octave>
        </pitch>
        <duration>8</duration>
        <instrument id="P1-I2"/>
        <voice>1</voice>
        <type>quarter</type>
        <stem default-y="-3">up</stem>
        <lyric default-y="-70" number="1">
          <syllabic>begin</syllabic>
          <text>pre</text>
        </lyric>
      </note>
      <note default-x="63">
        <pitch>
          <step>E</step>
          <octave>4</octave>
        </pitch>
        <duration>4</duration>
        <instrument id="P1-I2"/>
        <voice>1</voice>
        <type>eighth</type>
        <stem default-y="-8">up</stem>
        <beam number="1">begin</beam>
        <lyric default-y="-70" number="1">
          <syllabic>end</syllabic>
          <text>sence</text>
        </lyric>
      </note>
      <note default-x="112">
        <pitch>
          <step>E</step>
          <octave>4</octave>
        </pitch>
        <duration>4</duration>
        <instrument id="P1-I2"/>
        <voice>1</voice>
        <type>eighth</type>
        <stem default-y="-8">up</stem>
        <beam number="1">end</beam>
        <lyric default-y="-70" number="1">
          <syllabic>single</syllabic>
          <text>with</text>
        </lyric>
      </note>
      <harmony default-y="13" font-size="6.75">
        <root>
          <root-step>G</root-step>
        </root>
        <kind halign="center" text="sus">suspended-fourth</kind>
      </harmony>
      <harmony default-y="13" font-size="6.75" relative-x="39">
        <root>
          <root-step>G</root-step>
        </root>
        <kind halign="center" text="">major</kind>
      </harmony>
      <note default-x="157">
        <pitch>
          <step>D</step>
          <octave>4</octave>
        </pitch>
        <duration>16</duration>
        <instrument id="P1-I2"/>
        <voice>1</voice>
        <type>half</type>
        <stem default-y="-12">up</stem>
        <lyric default-y="-70" number="1">
          <syllabic>begin</syllabic>
          <text>sing</text>
        </lyric>
      </note>
    </measure>
    <!--=======================================================-->
    <measure number="9" width="44">
      <harmony default-y="13" font-size="6.75">
        <root>
          <root-step>C</root-step>
        </root>
        <kind halign="center" text="">major</kind>
      </harmony>
      <note default-x="13">
        <pitch>
          <step>C</step>
          <octave>4</octave>
        </pitch>
        <duration>32</duration>
        <instrument id="P1-I2"/>
        <voice>1</voice>
        <type>whole</type>
        <lyric default-y="-70" number="1">
          <syllabic>end</syllabic>
          <text>ing.</text>
        </lyric>
      </note>
    </measure>
    <!--=======================================================-->
    <measure number="10" width="312">
      <print new-system="yes">
        <system-layout>
          <system-distance>79</system-distance>
        </system-layout>
      </print>
      <harmony default-y="13" font-size="6.75">
        <root>
          <root-step>B</root-step>
          <root-alter>-1</root-alter>
        </root>
        <kind halign="center" text="">major</kind>
      </harmony>
      <note default-x="64">
        <pitch>
          <step>B</step>
          <alter>-1</alter>
          <octave>3</octave>
        </pitch>
        <duration>8</duration>
        <instrument id="P1-I2"/>
        <voice>1</voice>
        <type>quarter</type>
        <stem default-y="-17.5">up</stem>
        <lyric default-y="-70" number="1">
          <syllabic>single</syllabic>
          <text font-size="4">3</text>
          <elision> </elision>
          <syllabic>single</syllabic>
          <text font-size="4">Know</text>
        </lyric>
      </note>
      <note default-x="115">
        <pitch>
          <step>C</step>
          <octave>4</octave>
        </pitch>
        <duration>4</duration>
        <instrument id="P1-I2"/>
        <voice>1</voice>
        <type>eighth</type>
        <stem default-y="-17">up</stem>
        <beam number="1">begin</beam>
        <lyric default-y="-70" number="1">
          <syllabic>single</syllabic>
          <text>that</text>
        </lyric>
      </note>
      <note default-x="156">
        <pitch>
          <step>C</step>
          <octave>4</octave>
        </pitch>
        <duration>4</duration>
        <instrument id="P1-I2"/>
        <voice>1</voice>
        <type>eighth</type>
        <stem default-y="-17">up</stem>
        <beam number="1">end</beam>
        <lyric default-y="-70" number="1">
          <syllabic>single</syllabic>
          <text>the</text>
        </lyric>
      </note>
      <note default-x="202">
        <pitch>
          <step>D</step>
          <octave>4</octave>
        </pitch>
        <duration>4</duration>
        <instrument id="P1-I2"/>
        <voice>1</voice>
        <type>eighth</type>
        <stem default-y="-12">up</stem>
        <beam number="1">begin</beam>
        <lyric default-y="-70" number="1">
          <syllabic>single</syllabic>
          <text>LORD,</text>
        </lyric>
      </note>
      <note default-x="246">
        <pitch>
          <step>C</step>
          <octave>4</octave>
        </pitch>
        <duration>4</duration>
        <instrument id="P1-I2"/>
        <voice>1</voice>
        <type>eighth</type>
        <stem default-y="-17.5">up</stem>
        <beam number="1">continue</beam>
        <lyric default-y="-70" number="1">
          <syllabic>single</syllabic>
          <text>He</text>
        </lyric>
      </note>
      <note default-x="280">
        <pitch>
          <step>B</step>
          <alter>-1</alter>
          <octave>3</octave>
        </pitch>
        <duration>4</duration>
        <instrument id="P1-I2"/>
        <voice>1</voice>
        <type>eighth</type>
        <stem default-y="-21.5">up</stem>
        <beam number="1">end</beam>
        <lyric default-y="-70" number="1">
          <syllabic>single</syllabic>
          <text>is</text>
        </lyric>
      </note>
    </measure>
    <!--=======================================================-->
    <measure number="11" width="104">
      <harmony default-y="13" font-size="6.75">
        <root>
          <root-step>C</root-step>
        </root>
        <kind halign="center" text="">major</kind>
      </harmony>
      <note default-x="18">
        <pitch>
          <step>C</step>
          <octave>4</octave>
        </pitch>
        <duration>24</duration>
        <instrument id="P1-I2"/>
        <voice>1</voice>
        <type>half</type>
        <dot/>
        <stem default-y="-16.5">up</stem>
        <lyric default-y="-70" number="1">
          <syllabic>single</syllabic>
          <text>God;</text>
        </lyric>
      </note>
      <note default-x="56">
        <pitch>
          <step>C</step>
          <octave>4</octave>
        </pitch>
        <duration>4</duration>
        <instrument id="P1-I2"/>
        <voice>1</voice>
        <type>eighth</type>
        <stem default-y="-17">up</stem>
        <beam number="1">begin</beam>
        <lyric default-y="-70" number="1">
          <syllabic>single</syllabic>
          <text>It</text>
        </lyric>
      </note>
      <note default-x="80">
        <pitch>
          <step>C</step>
          <octave>4</octave>
        </pitch>
        <duration>4</duration>
        <instrument id="P1-I2"/>
        <voice>1</voice>
        <type>eighth</type>
        <stem default-y="-17">up</stem>
        <beam number="1">end</beam>
        <lyric default-y="-70" number="1">
          <syllabic>single</syllabic>
          <text>is</text>
        </lyric>
      </note>
    </measure>
    <!--=======================================================-->
    <measure number="12" width="432">
      <harmony default-y="13" font-size="6.75">
        <root>
          <root-step>D</root-step>
        </root>
        <kind halign="center" text="m">minor</kind>
      </harmony>
      <note default-x="11">
        <pitch>
          <step>F</step>
          <octave>4</octave>
        </pitch>
        <duration>8</duration>
        <instrument id="P1-I2"/>
        <voice>1</voice>
        <type>quarter</type>
        <stem default-y="-3">up</stem>
        <lyric default-y="-70" number="1">
          <syllabic>single</syllabic>
          <text>He</text>
        </lyric>
      </note>
      <note default-x="52">
        <pitch>
          <step>F</step>
          <octave>4</octave>
        </pitch>
        <duration>4</duration>
        <instrument id="P1-I2"/>
        <voice>1</voice>
        <type>eighth</type>
        <stem default-y="-3">up</stem>
        <beam number="1">begin</beam>
        <lyric default-y="-70" number="1">
          <syllabic>single</syllabic>
          <text>who</text>
        </lyric>
      </note>
      <note default-x="93">
        <pitch>
          <step>F</step>
          <octave>4</octave>
        </pitch>
        <duration>4</duration>
        <instrument id="P1-I2"/>
        <voice>1</voice>
        <type>eighth</type>
        <stem default-y="-3">up</stem>
        <beam number="1">end</beam>
        <lyric default-y="-70" number="1">
          <syllabic>single</syllabic>
          <text>has</text>
        </lyric>
      </note>
      <harmony default-y="13" font-size="6.75">
        <root>
          <root-step>A</root-step>
        </root>
        <kind halign="center" text="m">minor</kind>
      </harmony>
      <note default-x="142">
        <pitch>
          <step>E</step>
          <octave>4</octave>
        </pitch>
        <duration>4</duration>
        <instrument id="P1-I2"/>
        <voice>1</voice>
        <type>eighth</type>
        <stem default-y="-7.5">up</stem>
        <beam number="1">begin</beam>
        <lyric default-y="-70" number="1">
          <syllabic>single</syllabic>
          <text>made</text>
        </lyric>
      </note>
      <note default-x="187">
        <pitch>
          <step>D</step>
          <octave>4</octave>
        </pitch>
        <duration>4</duration>
        <instrument id="P1-I2"/>
        <voice>1</voice>
        <type>eighth</type>
        <stem default-y="-12.5">up</stem>
        <beam number="1">continue</beam>
        <lyric default-y="-70" number="1">
          <syllabic>single</syllabic>
          <text>us,</text>
        </lyric>
      </note>
      <note default-x="224">
        <pitch>
          <step>C</step>
          <octave>4</octave>
        </pitch>
        <duration>4</duration>
        <instrument id="P1-I2"/>
        <voice>1</voice>
        <type>eighth</type>
        <stem default-y="-17">up</stem>
        <beam number="1">end</beam>
        <lyric default-y="-70" number="1">
          <syllabic>single</syllabic>
          <text>and</text>
        </lyric>
      </note>
      <harmony default-y="13" font-size="6.75">
        <root>
          <root-step>B</root-step>
          <root-alter>-1</root-alter>
        </root>
        <kind halign="center" text="">major</kind>
      </harmony>
      <note default-x="265">
        <pitch>
          <step>B</step>
          <alter>-1</alter>
          <octave>3</octave>
        </pitch>
        <duration>4</duration>
        <instrument id="P1-I2"/>
        <voice>1</voice>
        <type>eighth</type>
        <stem default-y="-21.5">up</stem>
        <beam number="1">begin</beam>
        <lyric default-y="-70" number="1">
          <syllabic>single</syllabic>
          <text>not</text>
        </lyric>
      </note>
      <note default-x="301">
        <pitch>
          <step>C</step>
          <octave>4</octave>
        </pitch>
        <duration>4</duration>
        <instrument id="P1-I2"/>
        <voice>1</voice>
        <type>eighth</type>
        <stem default-y="-17">up</stem>
        <beam number="1">continue</beam>
        <lyric default-y="-70" number="1">
          <syllabic>single</syllabic>
          <text>we</text>
        </lyric>
      </note>
      <note default-x="337">
        <pitch>
          <step>D</step>
          <octave>4</octave>
        </pitch>
        <duration>4</duration>
        <instrument id="P1-I2"/>
        <voice>1</voice>
        <type>eighth</type>
        <stem default-y="-12">up</stem>
        <beam number="1">end</beam>
        <lyric default-y="-70" number="1">
          <syllabic>begin</syllabic>
          <text>our</text>
        </lyric>
      </note>
    </measure>
    <!--=======================================================-->
    <measure number="13" width="847">
      <print new-system="yes">
        <system-layout>
          <system-distance>79</system-distance>
        </system-layout>
      </print>
      <note default-x="813">
        <pitch>
          <step>C</step>
          <octave>4</octave>
        </pitch>
        <duration>24</duration>
        <instrument id="P1-I2"/>
        <voice>1</voice>
        <type>half</type>
        <dot/>
        <stem default-y="-16.5">up</stem>
        <lyric default-y="-70" number="1">
          <syllabic>end</syllabic>
          <text>selves;</text>
        </lyric>
      </note>
      <harmony default-y="13" font-size="6.75">
        <root>
          <root-step>C</root-step>
        </root>
        <kind halign="center" text="">major</kind>
        <offset>-4</offset>
      </harmony>
      <note default-x="64">
        <pitch>
          <step>D</step>
          <octave>4</octave>
        </pitch>
        <duration>8</duration>
        <instrument id="P1-I2"/>
        <voice>1</voice>
        <type>quarter</type>
        <stem default-y="-126.5">up</stem>
        <lyric default-y="-70" number="1">
          <syllabic>single</syllabic>
          <text>We</text>
        </lyric>
      </note>
      <note default-x="125">
        <pitch>
          <step>E</step>
          <octave>4</octave>
        </pitch>
        <duration>8</duration>
        <instrument id="P1-I2"/>
        <voice>1</voice>
        <type>quarter</type>
        <stem default-y="-122">up</stem>
        <lyric default-y="-70" number="1">
          <syllabic>single</syllabic>
          <text>are</text>
        </lyric>
      </note>
      <note default-x="182">
        <pitch>
          <step>G</step>
          <octave>4</octave>
        </pitch>
        <duration>8</duration>
        <instrument id="P1-I2"/>
        <voice>1</voice>
        <type>quarter</type>
        <stem default-y="-113">up</stem>
        <lyric default-y="-70" number="1">
          <syllabic>single</syllabic>
          <text>His</text>
        </lyric>
      </note>
    </measure>
    <!--=======================================================-->
    <measure number="14">
      <harmony default-y="13" font-size="6.75">
        <root>
          <root-step>G</root-step>
        </root>
        <kind halign="center" text="m">minor</kind>
      </harmony>
      <note default-x="-600">
        <pitch>
          <step>B</step>
          <alter>-1</alter>
          <octave>4</octave>
        </pitch>
        <duration>4</duration>
        <instrument id="P1-I2"/>
        <voice>1</voice>
        <type>eighth</type>
        <stem default-y="6.5">up</stem>
        <beam number="1">begin</beam>
        <notations>
          <slur bezier-x="8" bezier-y="-6" default-x="6" default-y="-25" number="1" placement="below" type="start"/>
        </notations>
        <lyric default-y="-70" number="1">
          <syllabic>begin</syllabic>
          <text>peo</text>
        </lyric>
      </note>
      <note default-x="-548">
        <pitch>
          <step>G</step>
          <octave>4</octave>
        </pitch>
        <duration>4</duration>
        <instrument id="P1-I2"/>
        <voice>1</voice>
        <type>eighth</type>
        <stem default-y="7">up</stem>
        <beam number="1">continue</beam>
        <notations>
          <slur bezier-x="-10" bezier-y="-3" default-x="6" default-y="-34" number="1" type="stop"/>
        </notations>
      </note>
      <note default-x="-496">
        <pitch>
          <step>B</step>
          <alter>-1</alter>
          <octave>4</octave>
        </pitch>
        <duration>4</duration>
        <instrument id="P1-I2"/>
        <voice>1</voice>
        <type>eighth</type>
        <stem default-y="8">up</stem>
        <beam number="1">end</beam>
        <lyric default-y="-70" number="1">
          <syllabic>end</syllabic>
          <text>ple</text>
        </lyric>
      </note>
      <harmony default-y="13" font-size="6.75">
        <root>
          <root-step>A</root-step>
        </root>
        <kind halign="center" text="m">minor</kind>
      </harmony>
      <note default-x="-443">
        <pitch>
          <step>C</step>
          <octave>5</octave>
        </pitch>
        <duration>8</duration>
        <instrument id="P1-I2"/>
        <voice>1</voice>
        <type>quarter</type>
        <stem default-y="-42">down</stem>
        <lyric default-y="-70" number="1">
          <syllabic>single</syllabic>
          <text>and</text>
        </lyric>
      </note>
      <note default-x="-391">
        <pitch>
          <step>C</step>
          <octave>4</octave>
        </pitch>
        <duration>8</duration>
        <instrument id="P1-I2"/>
        <voice>1</voice>
        <type>quarter</type>
        <stem default-y="-16">up</stem>
        <lyric default-y="-70" number="1">
          <syllabic>single</syllabic>
          <text>the</text>
        </lyric>
      </note>
    </measure>
    <!--=======================================================-->
    <measure number="15">
      <harmony default-y="13" font-size="6.75">
        <root>
          <root-step>D</root-step>
        </root>
        <kind halign="center" text="m">minor</kind>
      </harmony>
      <note>
        <pitch>
          <step>F</step>
          <octave>4</octave>
        </pitch>
        <duration>8</duration>
        <instrument id="P1-I2"/>
        <voice>1</voice>
        <type>quarter</type>
        <stem default-y="-3">up</stem>
        <lyric default-y="-70" number="1">
          <syllabic>single</syllabic>
          <text>sheep</text>
        </lyric>
      </note>
      <note>
        <pitch>
          <step>E</step>
          <octave>4</octave>
        </pitch>
        <duration>4</duration>
        <instrument id="P1-I2"/>
        <voice>1</voice>
        <type>eighth</type>
        <stem default-y="-8">up</stem>
        <beam number="1">begin</beam>
        <lyric default-y="-70" number="1">
          <syllabic>single</syllabic>
          <text>of</text>
        </lyric>
      </note>
      <note>
        <pitch>
          <step>E</step>
          <octave>4</octave>
        </pitch>
        <duration>4</duration>
        <instrument id="P1-I2"/>
        <voice>1</voice>
        <type>eighth</type>
        <stem default-y="-8">up</stem>
        <beam number="1">end</beam>
        <lyric default-y="-70" number="1">
          <syllabic>single</syllabic>
          <text>His</text>
        </lyric>
      </note>
      <harmony default-y="13" font-size="6.75">
        <root>
          <root-step>G</root-step>
        </root>
        <kind halign="center" text="sus">suspended-fourth</kind>
      </harmony>
      <note>
        <pitch>
          <step>D</step>
          <octave>4</octave>
        </pitch>
        <duration>16</duration>
        <instrument id="P1-I2"/>
        <voice>1</voice>
        <type>half</type>
        <stem default-y="-12">up</stem>
        <lyric default-y="-70" number="1">
          <syllabic>begin</syllabic>
          <text>pas</text>
        </lyric>
      </note>
      <harmony default-y="13" font-size="6.75" relative-x="-11">
        <root>
          <root-step>G</root-step>
        </root>
        <kind halign="center" text="">major</kind>
        <offset>-4</offset>
      </harmony>
    </measure>
    <!--=======================================================-->
    <measure number="16">
      <harmony default-y="13" font-size="6.75">
        <root>
          <root-step>C</root-step>
        </root>
        <kind halign="center" text="">major</kind>
      </harmony>
      <note>
        <pitch>
          <step>C</step>
          <octave>4</octave>
        </pitch>
        <duration>32</duration>
        <instrument id="P1-I2"/>
        <voice>1</voice>
        <type>whole</type>
        <lyric default-y="-70" number="1">
          <syllabic>end</syllabic>
          <text>ture.</text>
        </lyric>
      </note>
    </measure>
    <!--=======================================================-->
    <measure number="17" width="345">
      <print new-system="yes">
        <system-layout>
          <system-distance>79</system-distance>
        </system-layout>
      </print>
      <note default-x="51">
        <pitch>
          <step>C</step>
          <octave>4</octave>
        </pitch>
        <duration>8</duration>
        <instrument id="P1-I2"/>
        <voice>1</voice>
        <type>quarter</type>
        <stem default-y="-16.5">up</stem>
        <lyric default-y="-70" number="1">
          <syllabic>single</syllabic>
          <text font-size="4">4</text>
          <elision> </elision>
          <syllabic>begin</syllabic>
          <text font-size="4">En</text>
        </lyric>
      </note>
      <note default-x="125">
        <pitch>
          <step>D</step>
          <octave>4</octave>
        </pitch>
        <duration>8</duration>
        <instrument id="P1-I2"/>
        <voice>1</voice>
        <type>quarter</type>
        <stem default-y="-12">up</stem>
        <lyric default-y="-70" number="1">
          <syllabic>end</syllabic>
          <text>ter</text>
        </lyric>
      </note>
      <note default-x="179">
        <pitch>
          <step>E</step>
          <octave>4</octave>
        </pitch>
        <duration>4</duration>
        <instrument id="P1-I2"/>
        <voice>1</voice>
        <type>eighth</type>
        <stem default-y="-8">up</stem>
        <beam number="1">begin</beam>
        <lyric default-y="-70" number="1">
          <syllabic>begin</syllabic>
          <text>in</text>
        </lyric>
      </note>
      <note default-x="234">
        <pitch>
          <step>F</step>
          <octave>4</octave>
        </pitch>
        <duration>4</duration>
        <instrument id="P1-I2"/>
        <voice>1</voice>
        <type>eighth</type>
        <stem default-y="-3">up</stem>
        <beam number="1">continue</beam>
        <lyric default-y="-70" number="1">
          <syllabic>end</syllabic>
          <text>to</text>
        </lyric>
      </note>
      <note default-x="292">
        <pitch>
          <step>G</step>
          <octave>4</octave>
        </pitch>
        <duration>4</duration>
        <instrument id="P1-I2"/>
        <voice>1</voice>
        <type>eighth</type>
        <stem default-y="1">up</stem>
        <beam number="1">end</beam>
        <lyric default-y="-70" number="1">
          <syllabic>single</syllabic>
          <text>His</text>
        </lyric>
      </note>
    </measure>
    <!--=======================================================-->
    <measure number="18" width="315">
      <harmony default-y="13" font-size="6.75">
        <root>
          <root-step>F</root-step>
        </root>
        <kind halign="center" text="">major</kind>
      </harmony>
      <note default-x="29">
        <pitch>
          <step>A</step>
          <octave>4</octave>
        </pitch>
        <duration>8</duration>
        <instrument id="P1-I2"/>
        <voice>1</voice>
        <type>quarter</type>
        <stem default-y="6">up</stem>
        <notations>
          <slur bezier-x="16" bezier-y="-7" default-x="6" default-y="-30" number="1" placement="below" type="start"/>
        </notations>
        <lyric default-y="-70" number="1">
          <syllabic>single</syllabic>
          <text>gates</text>
        </lyric>
      </note>
      <note default-x="84">
        <pitch>
          <step>G</step>
          <octave>4</octave>
        </pitch>
        <duration>4</duration>
        <instrument id="P1-I2"/>
        <voice>1</voice>
        <type>eighth</type>
        <stem default-y="1">up</stem>
        <beam number="1">begin</beam>
      </note>
      <note default-x="126">
        <pitch>
          <step>F</step>
          <octave>4</octave>
        </pitch>
        <duration>4</duration>
        <instrument id="P1-I2"/>
        <voice>1</voice>
        <type>eighth</type>
        <stem default-y="-3">up</stem>
        <beam number="1">end</beam>
        <notations>
          <slur bezier-x="-17" bezier-y="-4" default-x="6" default-y="-39" number="1" type="stop"/>
        </notations>
      </note>
      <harmony default-y="13" font-size="6.75">
        <root>
          <root-step>C</root-step>
        </root>
        <kind halign="center" text="">major</kind>
      </harmony>
      <note default-x="177">
        <pitch>
          <step>G</step>
          <octave>4</octave>
        </pitch>
        <duration>8</duration>
        <instrument id="P1-I2"/>
        <voice>1</voice>
        <type>quarter</type>
        <stem default-y="2">up</stem>
        <lyric default-y="-70" number="1" relative-x="-5">
          <syllabic>single</syllabic>
          <text>with</text>
        </lyric>
      </note>
      <harmony default-y="13" font-size="6.75">
        <root>
          <root-step>F</root-step>
        </root>
        <kind halign="center" text="">major</kind>
      </harmony>
      <note default-x="263">
        <pitch>
          <step>A</step>
          <octave>4</octave>
        </pitch>
        <duration>8</duration>
        <instrument id="P1-I2"/>
        <voice>1</voice>
        <type>quarter</type>
        <stem default-y="6">up</stem>
        <lyric default-y="-70" number="1">
          <syllabic>begin</syllabic>
          <text>thanks</text>
        </lyric>
      </note>
    </measure>
    <!--=======================================================-->
    <measure number="19" width="187">
      <harmony default-y="13" font-size="6.75">
        <root>
          <root-step>B</root-step>
          <root-alter>-1</root-alter>
        </root>
        <kind halign="center" text="">major</kind>
      </harmony>
      <note default-x="11">
        <pitch>
          <step>B</step>
          <alter>-1</alter>
          <octave>4</octave>
        </pitch>
        <duration>16</duration>
        <instrument id="P1-I2"/>
        <voice>1</voice>
        <type>half</type>
        <stem default-y="-46.5">down</stem>
        <notations>
          <slur default-y="-6" number="1" placement="above" relative-x="-7" type="start"/>
        </notations>
        <lyric default-y="-70" number="1" relative-x="11">
          <syllabic>middle</syllabic>
          <text>giv</text>
        </lyric>
      </note>
      <harmony default-y="13" font-size="6.75">
        <root>
          <root-step>F</root-step>
        </root>
        <kind halign="center" text="">major</kind>
      </harmony>
      <note default-x="61">
        <pitch>
          <step>A</step>
          <octave>4</octave>
        </pitch>
        <duration>16</duration>
        <instrument id="P1-I2"/>
        <voice>1</voice>
        <type>half</type>
        <stem default-y="6">up</stem>
        <notations>
          <slur default-y="-9" number="1" type="stop"/>
        </notations>
      </note>
    </measure>
    <!--=======================================================-->
    <measure number="20" width="110">
      <print new-system="yes">
        <system-layout>
          <system-distance>79</system-distance>
        </system-layout>
      </print>
      <harmony default-y="13" font-size="6.75">
        <root>
          <root-step>G</root-step>
        </root>
        <kind halign="center" text="sus">suspended-fourth</kind>
      </harmony>
      <harmony default-y="13" font-size="6.75" relative-x="42">
        <root>
          <root-step>G</root-step>
        </root>
        <kind halign="center" text="">major</kind>
      </harmony>
      <note default-x="779">
        <pitch>
          <step>G</step>
          <octave>4</octave>
        </pitch>
        <duration>24</duration>
        <instrument id="P1-I2"/>
        <voice>1</voice>
        <type>half</type>
        <dot/>
        <stem default-y="117">up</stem>
        <lyric default-y="-70" number="1">
          <syllabic>end</syllabic>
          <text>ing,</text>
        </lyric>
      </note>
      <note default-x="67">
        <pitch>
          <step>G</step>
          <octave>4</octave>
        </pitch>
        <duration>8</duration>
        <instrument id="P1-I2"/>
        <voice>1</voice>
        <type>quarter</type>
        <stem default-y="2">up</stem>
        <lyric default-y="-70" number="1">
          <syllabic>single</syllabic>
          <text>And</text>
        </lyric>
      </note>
    </measure>
    <!--=======================================================-->
    <measure number="21" width="198">
      <harmony default-y="13" font-size="6.75">
        <root>
          <root-step>F</root-step>
        </root>
        <kind halign="center" text="">major</kind>
      </harmony>
      <note default-x="7">
        <pitch>
          <step>A</step>
          <octave>4</octave>
        </pitch>
        <duration>4</duration>
        <instrument id="P1-I2"/>
        <voice>1</voice>
        <type>eighth</type>
        <stem default-y="6">up</stem>
        <beam number="1">begin</beam>
        <lyric default-y="-70" number="1">
          <syllabic>begin</syllabic>
          <text>in</text>
        </lyric>
      </note>
      <note default-x="36">
        <pitch>
          <step>G</step>
          <octave>4</octave>
        </pitch>
        <duration>4</duration>
        <instrument id="P1-I2"/>
        <voice>1</voice>
        <type>eighth</type>
        <stem default-y="1">up</stem>
        <beam number="1">continue</beam>
        <lyric default-y="-70" number="1">
          <syllabic>end</syllabic>
          <text>to</text>
        </lyric>
      </note>
      <note default-x="70">
        <pitch>
          <step>F</step>
          <octave>4</octave>
        </pitch>
        <duration>4</duration>
        <instrument id="P1-I2"/>
        <voice>1</voice>
        <type>eighth</type>
        <stem default-y="-3">up</stem>
        <beam number="1">end</beam>
        <lyric default-y="-70" number="1">
          <syllabic>single</syllabic>
          <text>His</text>
        </lyric>
      </note>
      <harmony default-y="13" font-size="6.75">
        <root>
          <root-step>C</root-step>
        </root>
        <kind halign="center" text="">major</kind>
      </harmony>
      <note default-x="101">
        <pitch>
          <step>G</step>
          <octave>4</octave>
        </pitch>
        <duration>4</duration>
        <instrument id="P1-I2"/>
        <voice>1</voice>
        <type>eighth</type>
        <stem default-y="1">up</stem>
        <beam number="1">begin</beam>
        <notations>
          <slur bezier-x="5" bezier-y="-6" default-x="6" default-y="-34" number="1" placement="below" type="start"/>
        </notations>
        <lyric default-y="-70" number="1" relative-x="16">
          <syllabic>single</syllabic>
          <text>courts</text>
        </lyric>
      </note>
      <note default-x="136">
        <pitch>
          <step>F</step>
          <octave>4</octave>
        </pitch>
        <duration>4</duration>
        <instrument id="P1-I2"/>
        <voice>1</voice>
        <type>eighth</type>
        <stem default-y="-4">up</stem>
        <beam number="1">continue</beam>
        <notations>
          <slur bezier-x="-7" bezier-y="-4" default-x="5" default-y="-39" number="1" type="stop"/>
        </notations>
      </note>
      <note default-x="166">
        <pitch>
          <step>E</step>
          <octave>4</octave>
        </pitch>
        <duration>4</duration>
        <instrument id="P1-I2"/>
        <voice>1</voice>
        <type>eighth</type>
        <stem default-y="-7.5">up</stem>
        <beam number="1">end</beam>
        <lyric default-y="-70" number="1">
          <syllabic>single</syllabic>
          <text>with</text>
        </lyric>
      </note>
    </measure>
    <!--=======================================================-->
    <measure number="22" width="143">
      <harmony default-y="13" font-size="6.75">
        <root>
          <root-step>D</root-step>
        </root>
        <kind halign="center" text="5">power</kind>
      </harmony>
      <note default-x="16">
        <pitch>
          <step>D</step>
          <octave>4</octave>
        </pitch>
        <duration>8</duration>
        <instrument id="P1-I2"/>
        <voice>1</voice>
        <type>quarter</type>
        <stem default-y="-12">up</stem>
        <notations>
          <slur bezier-x="14" bezier-y="-5" default-x="6" default-y="-48" number="1" placement="below" type="start"/>
        </notations>
        <lyric default-y="-70" number="1" relative-x="10">
          <syllabic>single</syllabic>
          <text>praise.</text>
        </lyric>
      </note>
      <note default-x="44">
        <pitch>
          <step>E</step>
          <octave>4</octave>
        </pitch>
        <duration>4</duration>
        <instrument id="P1-I2"/>
        <voice>1</voice>
        <type>eighth</type>
        <stem default-y="-7.5">up</stem>
        <beam number="1">begin</beam>
      </note>
      <note default-x="66">
        <pitch>
          <step>F</step>
          <octave>4</octave>
        </pitch>
        <duration>4</duration>
        <instrument id="P1-I2"/>
        <voice>1</voice>
        <type>eighth</type>
        <stem default-y="-3">up</stem>
        <beam number="1">end</beam>
      </note>
      <note default-x="90">
        <pitch>
          <step>G</step>
          <octave>4</octave>
        </pitch>
        <duration>8</duration>
        <instrument id="P1-I2"/>
        <voice>1</voice>
        <type>quarter</type>
        <stem default-y="2">up</stem>
        <notations>
          <slur bezier-x="-11" bezier-y="-10" default-x="5" default-y="-34" number="1" type="stop"/>
        </notations>
      </note>
      <note default-x="116">
        <pitch>
          <step>A</step>
          <octave>4</octave>
        </pitch>
        <duration>8</duration>
        <instrument id="P1-I2"/>
        <voice>1</voice>
        <type>quarter</type>
        <stem default-y="6">up</stem>
        <lyric default-y="-70" number="1">
          <syllabic>single</syllabic>
          <text>Be</text>
        </lyric>
      </note>
    </measure>
    <!--=======================================================-->
    <measure number="23" width="205">
      <harmony default-y="13" font-size="6.75">
        <root>
          <root-step>G</root-step>
        </root>
        <kind halign="center" text="m">minor</kind>
      </harmony>
      <note default-x="22">
        <pitch>
          <step>B</step>
          <alter>-1</alter>
          <octave>4</octave>
        </pitch>
        <duration>4</duration>
        <instrument id="P1-I2"/>
        <voice>1</voice>
        <type>eighth</type>
        <stem default-y="7.5">up</stem>
        <beam number="1">begin</beam>
        <lyric default-y="-70" number="1">
          <syllabic>begin</syllabic>
          <text>thank</text>
        </lyric>
      </note>
      <note default-x="59">
        <pitch>
          <step>G</step>
          <octave>4</octave>
        </pitch>
        <duration>4</duration>
        <instrument id="P1-I2"/>
        <voice>1</voice>
        <type>eighth</type>
        <stem default-y="8">up</stem>
        <beam number="1">continue</beam>
        <lyric default-y="-70" number="1" relative-x="7">
          <syllabic>end</syllabic>
          <text>ful</text>
        </lyric>
      </note>
      <note default-x="94">
        <pitch>
          <step>B</step>
          <alter>-1</alter>
          <octave>4</octave>
        </pitch>
        <duration>4</duration>
        <instrument id="P1-I2"/>
        <voice>1</voice>
        <type>eighth</type>
        <stem default-y="8.5">up</stem>
        <beam number="1">end</beam>
        <lyric default-y="-70" number="1">
          <syllabic>single</syllabic>
          <text>to</text>
        </lyric>
      </note>
      <harmony default-y="13" font-size="6.75">
        <root>
          <root-step>A</root-step>
        </root>
        <kind halign="center" text="m">minor</kind>
      </harmony>
      <note default-x="130">
        <pitch>
          <step>C</step>
          <octave>5</octave>
        </pitch>
        <duration>8</duration>
        <instrument id="P1-I2"/>
        <voice>1</voice>
        <type>quarter</type>
        <stem default-y="-42">down</stem>
        <lyric default-y="-70" number="1">
          <syllabic>single</syllabic>
          <text>Him,</text>
        </lyric>
      </note>
      <note default-x="174">
        <pitch>
          <step>C</step>
          <octave>4</octave>
        </pitch>
        <duration>8</duration>
        <instrument id="P1-I2"/>
        <voice>1</voice>
        <type>quarter</type>
        <stem default-y="-16.5">up</stem>
        <lyric default-y="-70" number="1">
          <syllabic>single</syllabic>
          <text>and</text>
        </lyric>
      </note>
    </measure>
    <!--=======================================================-->
    <measure number="24" width="130">
      <harmony default-y="13" font-size="6.75">
        <root>
          <root-step>D</root-step>
        </root>
        <kind halign="center" text="m">minor</kind>
      </harmony>
      <note default-x="18">
        <pitch>
          <step>F</step>
          <octave>4</octave>
        </pitch>
        <duration>8</duration>
        <instrument id="P1-I2"/>
        <voice>1</voice>
        <type>quarter</type>
        <stem default-y="-3">up</stem>
        <notations>
          <slur bezier-x="4" bezier-y="-6" default-x="6" default-y="-39" number="1" placement="below" type="start"/>
        </notations>
        <lyric default-y="-70" number="1">
          <syllabic>single</syllabic>
          <text>bless</text>
        </lyric>
      </note>
      <note default-x="49">
        <pitch>
          <step>E</step>
          <octave>4</octave>
        </pitch>
        <duration>8</duration>
        <instrument id="P1-I2"/>
        <voice>1</voice>
        <type>quarter</type>
        <stem default-y="-7.5">up</stem>
        <notations>
          <slur bezier-x="-6" bezier-y="-4" default-x="6" default-y="-43" number="1" type="stop"/>
        </notations>
      </note>
      <harmony default-y="13" font-size="6.75">
        <root>
          <root-step>G</root-step>
        </root>
        <kind halign="center" text="sus">suspended-fourth</kind>
      </harmony>
      <harmony default-y="13" font-size="6.75" relative-x="35">
        <root>
          <root-step>G</root-step>
        </root>
        <kind halign="center" text="">major</kind>
      </harmony>
      <note default-x="80">
        <pitch>
          <step>D</step>
          <octave>4</octave>
        </pitch>
        <duration>16</duration>
        <instrument id="P1-I2"/>
        <voice>1</voice>
        <type>half</type>
        <stem default-y="-12">up</stem>
        <lyric default-y="-70" number="1">
          <syllabic>single</syllabic>
          <text>His</text>
        </lyric>
      </note>
    </measure>
    <!--=======================================================-->
    <measure number="25" width="63">
      <harmony default-y="13" font-size="6.75">
        <root>
          <root-step>C</root-step>
        </root>
        <kind halign="center" text="">major</kind>
      </harmony>
      <note default-x="23">
        <pitch>
          <step>C</step>
          <octave>4</octave>
        </pitch>
        <duration>32</duration>
        <instrument id="P1-I2"/>
        <voice>1</voice>
        <type>whole</type>
        <lyric default-y="-70" number="1">
          <syllabic>single</syllabic>
          <text>name.</text>
        </lyric>
      </note>
    </measure>
    <!--=======================================================-->
    <measure number="26" width="298">
      <print new-system="yes">
        <system-layout>
          <system-distance>79</system-distance>
        </system-layout>
      </print>
      <harmony default-y="13" font-size="6.75">
        <root>
          <root-step>B</root-step>
          <root-alter>-1</root-alter>
        </root>
        <kind halign="center" text="">major</kind>
      </harmony>
      <note default-x="57">
        <pitch>
          <step>B</step>
          <alter>-1</alter>
          <octave>3</octave>
        </pitch>
        <duration>8</duration>
        <instrument id="P1-I2"/>
        <voice>1</voice>
        <type>quarter</type>
        <stem default-y="-17">up</stem>
        <lyric default-y="-76" number="1">
          <syllabic>single</syllabic>
          <text font-size="4">5</text>
          <elision> </elision>
          <syllabic>single</syllabic>
          <text font-size="4">For</text>
        </lyric>
      </note>
      <note default-x="104">
        <pitch>
          <step>C</step>
          <octave>4</octave>
        </pitch>
        <duration>8</duration>
        <instrument id="P1-I2"/>
        <voice>1</voice>
        <type>quarter</type>
        <stem default-y="-16">up</stem>
        <lyric default-y="-76" number="1">
          <syllabic>single</syllabic>
          <text>the</text>
        </lyric>
      </note>
      <note default-x="153">
        <pitch>
          <step>D</step>
          <octave>4</octave>
        </pitch>
        <duration>4</duration>
        <instrument id="P1-I2"/>
        <voice>1</voice>
        <type>eighth</type>
        <stem default-y="-12">up</stem>
        <beam number="1">begin</beam>
        <notations>
          <slur bezier-x="7" bezier-y="-6" default-x="5" default-y="-48" number="1" placement="below" type="start"/>
        </notations>
        <lyric default-y="-76" number="1">
          <syllabic>single</syllabic>
          <text>LORD</text>
        </lyric>
      </note>
      <note default-x="200">
        <pitch>
          <step>C</step>
          <octave>4</octave>
        </pitch>
        <duration>4</duration>
        <instrument id="P1-I2"/>
        <voice>1</voice>
        <type>eighth</type>
        <stem default-y="-17">up</stem>
        <beam number="1">continue</beam>
        <notations>
          <slur bezier-x="-9" bezier-y="-4" default-x="6" default-y="-52" number="1" type="stop"/>
        </notations>
      </note>
      <note default-x="248">
        <pitch>
          <step>B</step>
          <alter>-1</alter>
          <octave>3</octave>
        </pitch>
        <duration>4</duration>
        <instrument id="P1-I2"/>
        <voice>1</voice>
        <type>eighth</type>
        <stem default-y="-21">up</stem>
        <beam number="1">end</beam>
        <lyric default-y="-76" number="1">
          <syllabic>single</syllabic>
          <text>is</text>
        </lyric>
      </note>
    </measure>
    <!--=======================================================-->
    <measure number="27" width="138">
      <harmony default-y="13" font-size="6.75">
        <root>
          <root-step>C</root-step>
        </root>
        <kind halign="center" text="">major</kind>
      </harmony>
      <note default-x="23">
        <pitch>
          <step>C</step>
          <octave>4</octave>
        </pitch>
        <duration>24</duration>
        <instrument id="P1-I2"/>
        <voice>1</voice>
        <type>half</type>
        <dot/>
        <stem default-y="-16">up</stem>
        <lyric default-y="-76" number="1">
          <syllabic>single</syllabic>
          <text>good;</text>
        </lyric>
      </note>
      <note default-x="80">
        <pitch>
          <step>C</step>
          <octave>4</octave>
        </pitch>
        <duration>8</duration>
        <instrument id="P1-I2"/>
        <voice>1</voice>
        <type>quarter</type>
        <stem default-y="-16">up</stem>
        <lyric default-y="-76" number="1">
          <syllabic>single</syllabic>
          <text>His</text>
        </lyric>
      </note>
    </measure>
    <!--=======================================================-->
    <measure number="28" width="411">
      <harmony default-y="13" font-size="6.75">
        <root>
          <root-step>D</root-step>
        </root>
        <kind halign="center" text="m">minor</kind>
      </harmony>
      <note default-x="20">
        <pitch>
          <step>F</step>
          <octave>4</octave>
        </pitch>
        <duration>8</duration>
        <instrument id="P1-I2"/>
        <voice>1</voice>
        <type>quarter</type>
        <stem default-y="-3">up</stem>
        <lyric default-y="-76" number="1">
          <syllabic>begin</syllabic>
          <text>mer</text>
        </lyric>
      </note>
      <note default-x="71">
        <pitch>
          <step>F</step>
          <octave>4</octave>
        </pitch>
        <duration>4</duration>
        <instrument id="P1-I2"/>
        <voice>1</voice>
        <type>eighth</type>
        <stem default-y="-3.5">up</stem>
        <beam number="1">begin</beam>
        <lyric default-y="-76" number="1">
          <syllabic>end</syllabic>
          <text>cy</text>
        </lyric>
      </note>
      <note default-x="108">
        <pitch>
          <step>F</step>
          <octave>4</octave>
        </pitch>
        <duration>4</duration>
        <instrument id="P1-I2"/>
        <voice>1</voice>
        <type>eighth</type>
        <stem default-y="-3.5">up</stem>
        <beam number="1">end</beam>
        <lyric default-y="-76" number="1">
          <syllabic>single</syllabic>
          <text>is</text>
        </lyric>
      </note>
      <harmony default-y="13" font-size="6.75">
        <root>
          <root-step>A</root-step>
        </root>
        <kind halign="center" text="m">minor</kind>
      </harmony>
      <note default-x="144">
        <pitch>
          <step>E</step>
          <octave>4</octave>
        </pitch>
        <duration>4</duration>
        <instrument id="P1-I2"/>
        <voice>1</voice>
        <type>eighth</type>
        <stem default-y="-8">up</stem>
        <beam number="1">begin</beam>
        <notations>
          <slur bezier-x="6" bezier-y="-5" default-x="5" default-y="-43" number="1" placement="below" type="start"/>
        </notations>
        <lyric default-y="-76" number="1">
          <syllabic>begin</syllabic>
          <text>ev</text>
        </lyric>
      </note>
      <note default-x="181">
        <pitch>
          <step>D</step>
          <octave>4</octave>
        </pitch>
        <duration>4</duration>
        <instrument id="P1-I2"/>
        <voice>1</voice>
        <type>eighth</type>
        <stem default-y="-13">up</stem>
        <beam number="1">continue</beam>
        <notations>
          <slur bezier-x="-7" bezier-y="-4" default-x="6" default-y="-48" number="1" type="stop"/>
        </notations>
      </note>
      <note default-x="212">
        <pitch>
          <step>C</step>
          <octave>4</octave>
        </pitch>
        <duration>4</duration>
        <instrument id="P1-I2"/>
        <voice>1</voice>
        <type>eighth</type>
        <stem default-y="-17">up</stem>
        <beam number="1">end</beam>
        <lyric default-y="-76" number="1">
          <syllabic>middle</syllabic>
          <text>er</text>
        </lyric>
      </note>
      <harmony default-y="13" font-size="6.75">
        <root>
          <root-step>B</root-step>
          <root-alter>-1</root-alter>
        </root>
        <kind halign="center" text="">major</kind>
      </harmony>
      <note default-x="255">
        <pitch>
          <step>B</step>
          <alter>-1</alter>
          <octave>3</octave>
        </pitch>
        <duration>4</duration>
        <instrument id="P1-I2"/>
        <voice>1</voice>
        <type>eighth</type>
        <stem default-y="-21">up</stem>
        <beam number="1">begin</beam>
        <notations>
          <slur bezier-x="8" bezier-y="-4" default-x="6" default-y="-57" number="1" placement="below" type="start"/>
        </notations>
        <lyric default-y="-76" number="1" relative-x="6">
          <syllabic>middle</syllabic>
          <text>last</text>
        </lyric>
      </note>
      <note default-x="297">
        <pitch>
          <step>C</step>
          <octave>4</octave>
        </pitch>
        <duration>4</duration>
        <instrument id="P1-I2"/>
        <voice>1</voice>
        <type>eighth</type>
        <stem default-y="-16">up</stem>
        <beam number="1">continue</beam>
        <notations>
          <slur bezier-x="-6" bezier-y="-5" default-x="6" default-y="-52" number="1" type="stop"/>
        </notations>
      </note>
      <note default-x="332">
        <pitch>
          <step>D</step>
          <octave>4</octave>
        </pitch>
        <duration>4</duration>
        <instrument id="P1-I2"/>
        <voice>1</voice>
        <type>eighth</type>
        <stem default-y="-12">up</stem>
        <beam number="1">end</beam>
      </note>
    </measure>
    <!--=======================================================-->
    <measure number="29" width="848">
      <print new-system="yes">
        <system-layout>
          <system-distance>79</system-distance>
        </system-layout>
      </print>
      <note default-x="810">
        <pitch>
          <step>C</step>
          <octave>4</octave>
        </pitch>
        <duration>24</duration>
        <instrument id="P1-I2"/>
        <voice>1</voice>
        <type>half</type>
        <dot/>
        <stem default-y="-16">up</stem>
        <lyric default-y="-70" number="1">
          <syllabic>end</syllabic>
          <text>ing,</text>
        </lyric>
      </note>
      <harmony default-y="13" font-size="6.75">
        <root>
          <root-step>C</root-step>
        </root>
        <kind halign="center" text="">major</kind>
        <offset>-4</offset>
      </harmony>
      <note default-x="66">
        <pitch>
          <step>D</step>
          <octave>4</octave>
        </pitch>
        <duration>8</duration>
        <instrument id="P1-I2"/>
        <voice>1</voice>
        <type>quarter</type>
        <stem default-y="-127">up</stem>
        <notations>
          <slur number="1" placement="below" type="start"/>
        </notations>
        <lyric default-y="-70" number="1">
          <syllabic>single</syllabic>
          <text>And</text>
        </lyric>
      </note>
      <note default-x="114">
        <pitch>
          <step>E</step>
          <octave>4</octave>
        </pitch>
        <duration>8</duration>
        <instrument id="P1-I2"/>
        <voice>1</voice>
        <type>quarter</type>
        <stem default-y="-122">up</stem>
        <notations>
          <slur number="1" type="stop"/>
        </notations>
      </note>
      <note default-x="154">
        <pitch>
          <step>G</step>
          <octave>4</octave>
        </pitch>
        <duration>8</duration>
        <instrument id="P1-I2"/>
        <voice>1</voice>
        <type>quarter</type>
        <stem default-y="-113.5">up</stem>
        <lyric default-y="-70" number="1">
          <syllabic>single</syllabic>
          <text>His</text>
        </lyric>
      </note>
    </measure>
    <!--=======================================================-->
    <measure number="30">
      <harmony default-y="13" font-size="6.75">
        <root>
          <root-step>G</root-step>
        </root>
        <kind halign="center" text="m">minor</kind>
      </harmony>
      <note default-x="-615">
        <pitch>
          <step>B</step>
          <alter>-1</alter>
          <octave>4</octave>
        </pitch>
        <duration>4</duration>
        <instrument id="P1-I2"/>
        <voice>1</voice>
        <type>eighth</type>
        <stem default-y="7">up</stem>
        <beam number="1">begin</beam>
        <notations>
          <slur bezier-x="7" bezier-y="-6" default-x="5" default-y="-25" number="1" placement="below" type="start"/>
        </notations>
        <lyric default-y="-70" number="1">
          <syllabic>single</syllabic>
          <text>truth</text>
        </lyric>
      </note>
      <note default-x="-568">
        <pitch>
          <step>G</step>
          <octave>4</octave>
        </pitch>
        <duration>4</duration>
        <instrument id="P1-I2"/>
        <voice>1</voice>
        <type>eighth</type>
        <stem default-y="7">up</stem>
        <beam number="1">continue</beam>
        <notations>
          <slur bezier-x="-9" bezier-y="-3" default-x="6" default-y="-34" number="1" type="stop"/>
          <slur bezier-x="8" bezier-y="-5" default-x="-228" default-y="-49" number="1" placement="below" type="start"/>
        </notations>
      </note>
      <note default-x="-524">
        <pitch>
          <step>B</step>
          <alter>-1</alter>
          <octave>4</octave>
        </pitch>
        <duration>4</duration>
        <instrument id="P1-I2"/>
        <voice>1</voice>
        <type>eighth</type>
        <stem default-y="8">up</stem>
        <beam number="1">end</beam>
        <notations>
          <slur bezier-x="-6" bezier-y="-6" default-x="-230" default-y="-44" number="1" type="stop"/>
        </notations>
        <lyric default-y="-70" number="1" relative-x="-3">
          <syllabic>begin</syllabic>
          <text>en</text>
        </lyric>
      </note>
      <harmony default-y="13" font-size="6.75">
        <root>
          <root-step>A</root-step>
        </root>
        <kind halign="center" text="m">minor</kind>
      </harmony>
      <note default-x="-456">
        <pitch>
          <step>C</step>
          <octave>5</octave>
        </pitch>
        <duration>8</duration>
        <instrument id="P1-I2"/>
        <voice>1</voice>
        <type>quarter</type>
        <stem default-y="-42">down</stem>
        <lyric default-y="-70" number="1">
          <syllabic>end</syllabic>
          <text>dures</text>
        </lyric>
      </note>
      <note default-x="-394">
        <pitch>
          <step>C</step>
          <octave>4</octave>
        </pitch>
        <duration>4</duration>
        <instrument id="P1-I2"/>
        <voice>1</voice>
        <type>eighth</type>
        <stem default-y="-16.5">up</stem>
        <beam number="1">begin</beam>
        <lyric default-y="-70" number="1">
          <syllabic>single</syllabic>
          <text>to</text>
        </lyric>
      </note>
      <note default-x="-349">
        <pitch>
          <step>C</step>
          <octave>4</octave>
        </pitch>
        <duration>4</duration>
        <instrument id="P1-I2"/>
        <voice>1</voice>
        <type>eighth</type>
        <stem default-y="-16.5">up</stem>
        <beam number="1">end</beam>
        <lyric default-y="-70" number="1">
          <syllabic>single</syllabic>
          <text>all</text>
        </lyric>
      </note>
    </measure>
    <!--=======================================================-->
    <measure number="31">
      <harmony default-y="13" font-size="6.75">
        <root>
          <root-step>D</root-step>
        </root>
        <kind halign="center" text="m">minor</kind>
      </harmony>
      <note>
        <pitch>
          <step>F</step>
          <octave>4</octave>
        </pitch>
        <duration>8</duration>
        <instrument id="P1-I2"/>
        <voice>1</voice>
        <type>quarter</type>
        <stem default-y="-3">up</stem>
        <lyric default-y="-70" number="1">
          <syllabic>begin</syllabic>
          <text>gen</text>
        </lyric>
      </note>
      <note>
        <pitch>
          <step>E</step>
          <octave>4</octave>
        </pitch>
        <duration>8</duration>
        <instrument id="P1-I2"/>
        <voice>1</voice>
        <type>quarter</type>
        <stem default-y="-7">up</stem>
        <lyric default-y="-70" number="1">
          <syllabic>middle</syllabic>
          <text>er</text>
        </lyric>
      </note>
      <harmony default-y="13" font-size="6.75">
        <root>
          <root-step>G</root-step>
        </root>
        <kind halign="center" text="sus">suspended-fourth</kind>
      </harmony>
      <harmony default-y="13" font-size="6.75" relative-x="50">
        <root>
          <root-step>G</root-step>
        </root>
        <kind halign="center" text="">major</kind>
      </harmony>
      <note>
        <pitch>
          <step>D</step>
          <octave>4</octave>
        </pitch>
        <duration>16</duration>
        <instrument id="P1-I2"/>
        <voice>1</voice>
        <type>half</type>
        <stem default-y="-12">up</stem>
        <lyric default-y="-70" number="1">
          <syllabic>middle</syllabic>
          <text>a</text>
        </lyric>
      </note>
    </measure>
    <!--=======================================================-->
    <measure number="32">
      <harmony default-y="13" font-size="6.75">
        <root>
          <root-step>C</root-step>
        </root>
        <kind halign="center" text="">major</kind>
      </harmony>
      <note>
        <pitch>
          <step>C</step>
          <octave>4</octave>
        </pitch>
        <duration>32</duration>
        <instrument id="P1-I2"/>
        <voice>1</voice>
        <type>whole</type>
        <lyric default-y="-70" number="1">
          <syllabic>end</syllabic>
          <text>tions.</text>
        </lyric>
      </note>
      <barline location="right">
        <bar-style>light-heavy</bar-style>
      </barline>
    </measure>
  </part>
  <!--=========================================================-->
</score-partwise>
