<?xml version="1.0" encoding="UTF-8" standalone="no"?>
<!DOCTYPE score-partwise PUBLIC "-//Recordare//DTD MusicXML 3.1 Partwise//EN" "http://www.musicxml.org/dtds/partwise.dtd">
<score-partwise version="3.1">
  <identification>
    <encoding>
      <software>Finale v25 for Windows</software>
      <encoding-date>2020-07-07</encoding-date>
      <supports attribute="new-system" element="print" type="yes" value="yes"/>
      <supports attribute="new-page" element="print" type="yes" value="yes"/>
      <supports element="accidental" type="yes"/>
      <supports element="beam" type="yes"/>
      <supports element="stem" type="yes"/>
    </encoding>
  </identification>
  <defaults>
    <scaling>
      <millimeters>6.35</millimeters>
      <tenths>40</tenths>
    </scaling>
    <page-layout>
      <page-height>1380</page-height>
      <page-width>852</page-width>
      <page-margins type="both">
        <left-margin>0</left-margin>
        <right-margin>0</right-margin>
        <top-margin>0</top-margin>
        <bottom-margin>782</bottom-margin>
      </page-margins>
    </page-layout>
    <system-layout>
      <system-margins>
        <left-margin>5</left-margin>
        <right-margin>0</right-margin>
      </system-margins>
      <system-distance>75</system-distance>
      <top-system-distance>75</top-system-distance>
    </system-layout>
    <appearance>
      <line-width type="stem">0.8333</line-width>
      <line-width type="beam">4.1667</line-width>
      <line-width type="staff">0.7096</line-width>
      <line-width type="light barline">0.8333</line-width>
      <line-width type="heavy barline">5</line-width>
      <line-width type="leger">0.7292</line-width>
      <line-width type="ending">0.7682</line-width>
      <line-width type="wedge">0.8333</line-width>
      <line-width type="enclosure">0.8333</line-width>
      <line-width type="tuplet bracket">0.7292</line-width>
      <note-size type="grace">55</note-size>
      <note-size type="cue">55</note-size>
      <distance type="hyphen">83</distance>
      <distance type="beam">8</distance>
    </appearance>
    <music-font font-family="Petrucci2" font-size="18"/>
    <word-font font-family="Palatino Linotype" font-size="9"/>
    <lyric-font font-family="Palatino Linotype" font-size="8.1"/>
  </defaults>
  <credit page="1">
    <credit-words default-y="782" font-size="7.5" valign="bottom">Music: David R. Erb, 2005 </credit-words>
    <credit-words font-size="6">©</credit-words>
    <credit-words font-size="7.5" xml:space="preserve">
Text: </credit-words>
    <credit-words font-size="7.5" font-style="italic">Holy Bible, King James Version</credit-words>
    <credit-words font-size="7.5" font-style="normal">; alt.</credit-words>
  </credit>
  <credit page="1">
    <credit-words default-x="42" default-y="1344" font-size="7.5" font-weight="bold" valign="top">4-part canon</credit-words>
  </credit>
  <part-list>
    <part-group number="1" type="start">
      <group-symbol default-x="-2">line</group-symbol>
      <group-barline>yes</group-barline>
    </part-group>
    <score-part id="P1">
      <part-name print-object="no">MusicXML Part</part-name>
      <score-instrument id="P1-I2">
        <instrument-name>Instr. 1</instrument-name>
      </score-instrument>
      <midi-instrument id="P1-I2">
        <midi-channel>1</midi-channel>
        <midi-program>53</midi-program>
        <volume>80</volume>
        <pan>0</pan>
      </midi-instrument>
    </score-part>
    <part-group number="1" type="stop"/>
  </part-list>
  <!--=========================================================-->
  <part id="P1">
    <measure number="1" width="300">
      <print>
        <system-layout>
          <top-system-distance>92</top-system-distance>
        </system-layout>
        <measure-numbering>system</measure-numbering>
      </print>
      <attributes>
        <divisions>2</divisions>
        <key>
          <fifths>0</fifths>
          <mode>major</mode>
        </key>
        <time>
          <beats>4</beats>
          <beat-type>4</beat-type>
        </time>
        <clef>
          <sign>G</sign>
          <line>2</line>
        </clef>
        <staff-details>
          <staff-size>90</staff-size>
        </staff-details>
      </attributes>
      <sound tempo="100"/>
      <harmony default-y="8" font-size="6.75">
        <root>
          <root-step>C</root-step>
        </root>
        <kind halign="center" text="">major</kind>
      </harmony>
      <note default-x="62">
        <pitch>
          <step>C</step>
          <octave>4</octave>
        </pitch>
        <duration>1</duration>
        <instrument id="P1-I2"/>
        <voice>1</voice>
        <type>eighth</type>
        <stem default-y="-17">up</stem>
        <beam number="1">begin</beam>
        <notations>
          <slur bezier-x="6" bezier-y="-4" default-x="8" default-y="-52" number="1" placement="below" type="start"/>
        </notations>
        <lyric default-y="-69" number="1">
          <syllabic>single</syllabic>
          <text font-size="4">1</text>
          <elision> </elision>
          <syllabic>single</syllabic>
          <text font-size="4">Praise</text>
        </lyric>
      </note>
      <note default-x="95">
        <pitch>
          <step>D</step>
          <octave>4</octave>
        </pitch>
        <duration>1</duration>
        <instrument id="P1-I2"/>
        <voice>1</voice>
        <type>eighth</type>
        <stem default-y="-12">up</stem>
        <beam number="1">end</beam>
        <notations>
          <slur bezier-x="-4" bezier-y="-6" default-x="3" default-y="-47" number="1" type="stop"/>
        </notations>
      </note>
      <note default-x="129">
        <pitch>
          <step>E</step>
          <octave>4</octave>
        </pitch>
        <duration>1</duration>
        <instrument id="P1-I2"/>
        <voice>1</voice>
        <type>eighth</type>
        <stem default-y="-8">up</stem>
        <beam number="1">begin</beam>
        <notations>
          <slur bezier-x="6" bezier-y="-4" default-x="8" default-y="-44" number="1" placement="below" type="start"/>
        </notations>
        <lyric default-y="-69" number="1">
          <syllabic>single</syllabic>
          <text>the</text>
        </lyric>
      </note>
      <note default-x="162">
        <pitch>
          <step>F</step>
          <octave>4</octave>
        </pitch>
        <duration>1</duration>
        <instrument id="P1-I2"/>
        <voice>1</voice>
        <type>eighth</type>
        <stem default-y="-3.5">up</stem>
        <beam number="1">end</beam>
        <notations>
          <slur bezier-x="-4" bezier-y="-6" default-x="3" default-y="-39" number="1" type="stop"/>
        </notations>
      </note>
      <note default-x="194">
        <pitch>
          <step>G</step>
          <octave>4</octave>
        </pitch>
        <duration>2</duration>
        <instrument id="P1-I2"/>
        <voice>1</voice>
        <type>quarter</type>
        <stem default-y="1.5">up</stem>
        <lyric default-y="-69" number="1">
          <syllabic>single</syllabic>
          <text>LORD,</text>
        </lyric>
      </note>
      <note default-x="238">
        <pitch>
          <step>F</step>
          <octave>4</octave>
        </pitch>
        <duration>1</duration>
        <instrument id="P1-I2"/>
        <voice>1</voice>
        <type>eighth</type>
        <stem default-y="-3.5">up</stem>
        <beam number="1">begin</beam>
        <lyric default-y="-69" number="1">
          <syllabic>single</syllabic>
          <text>all</text>
        </lyric>
      </note>
      <note default-x="270">
        <pitch>
          <step>G</step>
          <octave>4</octave>
        </pitch>
        <duration>1</duration>
        <instrument id="P1-I2"/>
        <voice>1</voice>
        <type>eighth</type>
        <stem default-y="1">up</stem>
        <beam number="1">end</beam>
        <lyric default-y="-69" number="1">
          <syllabic>single</syllabic>
          <text>ye</text>
        </lyric>
      </note>
    </measure>
    <!--=======================================================-->
    <measure number="2" width="190">
      <harmony default-y="8" font-size="6.75">
        <root>
          <root-step>F</root-step>
        </root>
        <kind halign="center" text="">major</kind>
      </harmony>
      <note default-x="9">
        <pitch>
          <step>A</step>
          <octave>4</octave>
        </pitch>
        <duration>4</duration>
        <instrument id="P1-I2"/>
        <voice>1</voice>
        <type>half</type>
        <stem default-y="6">up</stem>
        <lyric default-y="-69" number="1">
          <syllabic>begin</syllabic>
          <text>na</text>
        </lyric>
      </note>
      <harmony default-y="8" font-size="6.75">
        <root>
          <root-step>C</root-step>
        </root>
        <kind halign="center" text="">major</kind>
      </harmony>
      <note default-x="119">
        <pitch>
          <step>G</step>
          <octave>4</octave>
        </pitch>
        <duration>4</duration>
        <instrument id="P1-I2"/>
        <voice>1</voice>
        <type>half</type>
        <stem default-y="1.5">up</stem>
        <lyric default-y="-69" number="1">
          <syllabic>end</syllabic>
          <text>tions:</text>
        </lyric>
      </note>
    </measure>
    <!--=======================================================-->
    <measure number="3" width="211">
      <note default-x="23">
        <pitch>
          <step>C</step>
          <octave>5</octave>
        </pitch>
        <duration>2</duration>
        <instrument id="P1-I2"/>
        <voice>1</voice>
        <type>quarter</type>
        <stem default-y="-42">down</stem>
        <lyric default-y="-69" number="1">
          <syllabic>single</syllabic>
          <text>praise</text>
        </lyric>
      </note>
      <note default-x="79">
        <pitch>
          <step>G</step>
          <octave>4</octave>
        </pitch>
        <duration>2</duration>
        <instrument id="P1-I2"/>
        <voice>1</voice>
        <type>quarter</type>
        <stem default-y="1.5">up</stem>
        <lyric default-y="-69" number="1">
          <syllabic>single</syllabic>
          <text>Him,</text>
        </lyric>
      </note>
      <note default-x="120">
        <pitch>
          <step>F</step>
          <octave>4</octave>
        </pitch>
        <duration>1</duration>
        <instrument id="P1-I2"/>
        <voice>1</voice>
        <type>eighth</type>
        <stem default-y="-3.5">up</stem>
        <beam number="1">begin</beam>
        <notations>
          <slur bezier-x="3" bezier-y="-6" default-x="6" default-y="-40" number="1" placement="below" type="start"/>
        </notations>
        <lyric default-y="-69" number="1">
          <syllabic>single</syllabic>
          <text>all</text>
        </lyric>
      </note>
      <note default-x="145">
        <pitch>
          <step>E</step>
          <octave>4</octave>
        </pitch>
        <duration>1</duration>
        <instrument id="P1-I2"/>
        <voice>1</voice>
        <type>eighth</type>
        <stem default-y="-8">up</stem>
        <beam number="1">end</beam>
        <notations>
          <slur bezier-x="-5" bezier-y="-4" default-x="5" default-y="-45" number="1" type="stop"/>
        </notations>
      </note>
      <note default-x="164">
        <pitch>
          <step>D</step>
          <octave>4</octave>
        </pitch>
        <duration>1</duration>
        <instrument id="P1-I2"/>
        <voice>1</voice>
        <type>eighth</type>
        <stem default-y="-12">up</stem>
        <beam number="1">begin</beam>
        <notations>
          <slur bezier-x="3" bezier-y="-6" default-x="5" default-y="-50" number="1" placement="below" type="start"/>
        </notations>
        <lyric default-y="-69" number="1">
          <syllabic>single</syllabic>
          <text>ye</text>
        </lyric>
      </note>
      <note default-x="191">
        <pitch>
          <step>C</step>
          <octave>4</octave>
        </pitch>
        <duration>1</duration>
        <instrument id="P1-I2"/>
        <voice>1</voice>
        <type>eighth</type>
        <stem default-y="-17">up</stem>
        <beam number="1">end</beam>
        <notations>
          <slur bezier-x="-5" bezier-y="-4" default-x="5" default-y="-54" number="1" type="stop"/>
        </notations>
      </note>
    </measure>
    <!--=======================================================-->
    <measure number="4" width="147">
      <harmony default-y="8" font-size="6.75">
        <root>
          <root-step>G</root-step>
        </root>
        <kind halign="center" text="">major</kind>
      </harmony>
      <note default-x="14">
        <pitch>
          <step>D</step>
          <octave>4</octave>
        </pitch>
        <duration>2</duration>
        <instrument id="P1-I2"/>
        <voice>1</voice>
        <type>quarter</type>
        <stem default-y="-12">up</stem>
        <notations>
          <slur bezier-x="7" bezier-y="-3" default-x="6" default-y="-50" number="1" placement="below" type="start"/>
        </notations>
        <lyric default-y="-69" number="1">
          <syllabic>begin</syllabic>
          <text>peo</text>
        </lyric>
      </note>
      <note default-x="47">
        <pitch>
          <step>F</step>
          <octave>4</octave>
        </pitch>
        <duration>2</duration>
        <instrument id="P1-I2"/>
        <voice>1</voice>
        <type>quarter</type>
        <stem default-y="-3">up</stem>
        <notations>
          <slur bezier-x="-4" bezier-y="-7" default-x="6" default-y="-40" number="1" type="stop"/>
        </notations>
      </note>
      <harmony default-y="8" font-size="6.75">
        <root>
          <root-step>C</root-step>
        </root>
        <kind halign="center" text="">major</kind>
      </harmony>
      <note default-x="78">
        <pitch>
          <step>E</step>
          <octave>4</octave>
        </pitch>
        <duration>4</duration>
        <instrument id="P1-I2"/>
        <voice>1</voice>
        <type>half</type>
        <stem default-y="-7">up</stem>
        <lyric default-y="-69" number="1">
          <syllabic>end</syllabic>
          <text>ple.</text>
        </lyric>
      </note>
    </measure>
    <!--=======================================================-->
    <measure number="5" width="300">
      <print new-system="yes">
        <system-layout>
          <system-distance>79</system-distance>
        </system-layout>
      </print>
      <direction placement="above">
        <direction-type>
          <pedal default-x="59" default-y="6" font-size="17.6" halign="left" line="no" type="stop"/>
        </direction-type>
      </direction>
      <note default-x="63">
        <pitch>
          <step>E</step>
          <octave>4</octave>
        </pitch>
        <duration>2</duration>
        <instrument id="P1-I2"/>
        <voice>1</voice>
        <type>quarter</type>
        <stem default-y="-7">up</stem>
        <lyric default-y="-71" number="1">
          <syllabic>single</syllabic>
          <text font-size="4">2</text>
          <elision> </elision>
          <syllabic>single</syllabic>
          <text font-size="4">For</text>
        </lyric>
      </note>
      <note default-x="129">
        <pitch>
          <step>G</step>
          <octave>4</octave>
        </pitch>
        <duration>2</duration>
        <instrument id="P1-I2"/>
        <voice>1</voice>
        <type>quarter</type>
        <stem default-y="2">up</stem>
        <lyric default-y="-71" number="1">
          <syllabic>single</syllabic>
          <text>His</text>
        </lyric>
      </note>
      <note default-x="195">
        <pitch>
          <step>E</step>
          <octave>4</octave>
        </pitch>
        <duration>2</duration>
        <instrument id="P1-I2"/>
        <voice>1</voice>
        <type>quarter</type>
        <stem default-y="-7">up</stem>
        <lyric default-y="-71" number="1">
          <syllabic>begin</syllabic>
          <text>mer</text>
        </lyric>
      </note>
      <note default-x="239">
        <pitch>
          <step>C</step>
          <octave>4</octave>
        </pitch>
        <duration>1</duration>
        <instrument id="P1-I2"/>
        <voice>1</voice>
        <type>eighth</type>
        <stem default-y="-16.5">up</stem>
        <beam number="1">begin</beam>
        <lyric default-y="-71" number="1">
          <syllabic>middle</syllabic>
          <text>ci</text>
        </lyric>
      </note>
      <note default-x="269">
        <pitch>
          <step>C</step>
          <octave>4</octave>
        </pitch>
        <duration>1</duration>
        <instrument id="P1-I2"/>
        <voice>1</voice>
        <type>eighth</type>
        <stem default-y="-16.5">up</stem>
        <beam number="1">end</beam>
        <lyric default-y="-71" number="1">
          <syllabic>end</syllabic>
          <text>ful</text>
        </lyric>
      </note>
    </measure>
    <!--=======================================================-->
    <measure number="6" width="188">
      <note default-x="18">
        <pitch>
          <step>F</step>
          <octave>4</octave>
        </pitch>
        <duration>4</duration>
        <instrument id="P1-I2"/>
        <voice>1</voice>
        <type>half</type>
        <stem default-y="-3">up</stem>
        <lyric default-y="-71" number="1">
          <syllabic>begin</syllabic>
          <text>kind</text>
        </lyric>
      </note>
      <note default-x="123">
        <pitch>
          <step>E</step>
          <octave>4</octave>
        </pitch>
        <duration>2</duration>
        <instrument id="P1-I2"/>
        <voice>1</voice>
        <type>quarter</type>
        <stem default-y="-7">up</stem>
        <lyric default-y="-71" number="1">
          <syllabic>end</syllabic>
          <text>ness</text>
        </lyric>
      </note>
      <note default-x="162">
        <pitch>
          <step>E</step>
          <octave>4</octave>
        </pitch>
        <duration>2</duration>
        <instrument id="P1-I2"/>
        <voice>1</voice>
        <type>quarter</type>
        <stem default-y="-7">up</stem>
        <lyric default-y="-71" number="1">
          <syllabic>single</syllabic>
          <text>is</text>
        </lyric>
      </note>
    </measure>
    <!--=======================================================-->
    <measure number="7" width="212">
      <note default-x="22">
        <pitch>
          <step>E</step>
          <octave>4</octave>
        </pitch>
        <duration>4</duration>
        <instrument id="P1-I2"/>
        <voice>1</voice>
        <type>half</type>
        <stem default-y="-7">up</stem>
        <lyric default-y="-71" number="1">
          <syllabic>single</syllabic>
          <text>great</text>
        </lyric>
      </note>
      <note default-x="119">
        <pitch>
          <step>G</step>
          <octave>4</octave>
        </pitch>
        <duration>4</duration>
        <instrument id="P1-I2"/>
        <voice>1</voice>
        <type>half</type>
        <stem default-y="2">up</stem>
        <lyric default-y="-71" number="1">
          <syllabic>single</syllabic>
          <text>toward</text>
        </lyric>
      </note>
    </measure>
    <!--=======================================================-->
    <measure number="8" width="148">
      <note default-x="10">
        <pitch>
          <step>G</step>
          <octave>4</octave>
        </pitch>
        <duration>4</duration>
        <instrument id="P1-I2"/>
        <voice>1</voice>
        <type>half</type>
        <stem default-y="2">up</stem>
        <lyric default-y="-71" number="1">
          <syllabic>single</syllabic>
          <text>us:</text>
        </lyric>
      </note>
      <note default-x="78">
        <pitch>
          <step>G</step>
          <octave>4</octave>
        </pitch>
        <duration>2</duration>
        <instrument id="P1-I2"/>
        <voice>1</voice>
        <type>quarter</type>
        <stem default-y="2">up</stem>
        <lyric default-y="-71" number="1">
          <syllabic>single</syllabic>
          <text>and</text>
        </lyric>
      </note>
      <note default-x="115">
        <pitch>
          <step>G</step>
          <octave>4</octave>
        </pitch>
        <duration>2</duration>
        <instrument id="P1-I2"/>
        <voice>1</voice>
        <type>quarter</type>
        <stem default-y="2">up</stem>
        <lyric default-y="-71" number="1">
          <syllabic>single</syllabic>
          <text>the</text>
        </lyric>
      </note>
    </measure>
    <!--=======================================================-->
    <measure number="9" width="300">
      <print new-system="yes">
        <system-layout>
          <system-distance>79</system-distance>
        </system-layout>
      </print>
      <direction placement="above">
        <direction-type>
          <pedal default-x="58" default-y="6" font-size="17.6" halign="left" line="no" type="stop"/>
        </direction-type>
      </direction>
      <note default-x="67">
        <pitch>
          <step>C</step>
          <octave>5</octave>
        </pitch>
        <duration>2</duration>
        <instrument id="P1-I2"/>
        <voice>1</voice>
        <type>quarter</type>
        <stem default-y="-42">down</stem>
        <lyric default-y="-67" number="1">
          <syllabic>single</syllabic>
          <text>truth</text>
        </lyric>
      </note>
      <note default-x="128">
        <pitch>
          <step>C</step>
          <octave>5</octave>
        </pitch>
        <duration>1</duration>
        <instrument id="P1-I2"/>
        <voice>1</voice>
        <type>eighth</type>
        <stem default-y="-41.5">down</stem>
        <beam number="1">begin</beam>
        <lyric default-y="-67" number="1" relative-x="-5">
          <syllabic>single</syllabic>
          <text>of</text>
        </lyric>
      </note>
      <note default-x="161">
        <pitch>
          <step>C</step>
          <octave>5</octave>
        </pitch>
        <duration>1</duration>
        <instrument id="P1-I2"/>
        <voice>1</voice>
        <type>eighth</type>
        <stem default-y="-41.5">down</stem>
        <beam number="1">end</beam>
        <lyric default-y="-67" number="1" relative-x="-7">
          <syllabic>single</syllabic>
          <text>the</text>
        </lyric>
      </note>
      <note default-x="195">
        <pitch>
          <step>C</step>
          <octave>5</octave>
        </pitch>
        <duration>2</duration>
        <instrument id="P1-I2"/>
        <voice>1</voice>
        <type>quarter</type>
        <stem default-y="-42">down</stem>
        <lyric default-y="-67" number="1">
          <syllabic>single</syllabic>
          <text>LORD</text>
        </lyric>
      </note>
      <note default-x="242">
        <pitch>
          <step>C</step>
          <octave>5</octave>
        </pitch>
        <duration>2</duration>
        <instrument id="P1-I2"/>
        <voice>1</voice>
        <type>quarter</type>
        <stem default-y="-42">down</stem>
        <lyric default-y="-67" number="1">
          <syllabic>begin</syllabic>
          <text>en</text>
        </lyric>
      </note>
    </measure>
    <!--=======================================================-->
    <measure number="10" width="189">
      <note default-x="14">
        <pitch>
          <step>C</step>
          <octave>5</octave>
        </pitch>
        <duration>4</duration>
        <instrument id="P1-I2"/>
        <voice>1</voice>
        <type>half</type>
        <stem default-y="-42">down</stem>
        <lyric default-y="-67" number="1">
          <syllabic>middle</syllabic>
          <text>dur</text>
        </lyric>
      </note>
      <note default-x="126">
        <pitch>
          <step>C</step>
          <octave>5</octave>
        </pitch>
        <duration>2</duration>
        <instrument id="P1-I2"/>
        <voice>1</voice>
        <type>quarter</type>
        <stem default-y="-42">down</stem>
        <lyric default-y="-67" number="1">
          <syllabic>end</syllabic>
          <text>eth</text>
        </lyric>
      </note>
      <note default-x="163">
        <pitch>
          <step>C</step>
          <octave>5</octave>
        </pitch>
        <duration>2</duration>
        <instrument id="P1-I2"/>
        <voice>1</voice>
        <type>quarter</type>
        <stem default-y="-42">down</stem>
        <lyric default-y="-67" number="1">
          <syllabic>single</syllabic>
          <text>for</text>
        </lyric>
      </note>
    </measure>
    <!--=======================================================-->
    <measure number="11" width="218">
      <note default-x="23">
        <pitch>
          <step>G</step>
          <octave>4</octave>
        </pitch>
        <duration>4</duration>
        <instrument id="P1-I2"/>
        <voice>1</voice>
        <type>half</type>
        <stem default-y="2">up</stem>
        <notations>
          <slur default-y="-8" number="1" placement="above" relative-x="16" type="start"/>
        </notations>
        <lyric default-y="-67" number="1">
          <syllabic>begin</syllabic>
          <text>ev</text>
        </lyric>
      </note>
      <note default-x="126">
        <pitch>
          <step>C</step>
          <octave>5</octave>
        </pitch>
        <duration>4</duration>
        <instrument id="P1-I2"/>
        <voice>1</voice>
        <type>half</type>
        <stem default-y="-42">down</stem>
      </note>
    </measure>
    <!--=======================================================-->
    <measure number="12" width="141">
      <note default-x="4">
        <pitch>
          <step>B</step>
          <octave>4</octave>
        </pitch>
        <duration>4</duration>
        <instrument id="P1-I2"/>
        <voice>1</voice>
        <type>half</type>
        <stem default-y="-46.5">down</stem>
        <notations>
          <slur default-y="-4" number="1" relative-x="6" type="stop"/>
        </notations>
      </note>
      <note default-x="72">
        <pitch>
          <step>C</step>
          <octave>5</octave>
        </pitch>
        <duration>4</duration>
        <instrument id="P1-I2"/>
        <voice>1</voice>
        <type>half</type>
        <stem default-y="-42">down</stem>
        <lyric default-y="-67" number="1">
          <syllabic>end</syllabic>
          <text>er.</text>
        </lyric>
      </note>
    </measure>
    <!--=======================================================-->
    <measure number="13" width="300">
      <print new-system="yes">
        <system-layout>
          <system-distance>79</system-distance>
        </system-layout>
      </print>
      <direction placement="above">
        <direction-type>
          <pedal default-y="5" font-size="17.6" halign="left" line="no" relative-x="-14" type="stop"/>
        </direction-type>
      </direction>
      <note default-x="70">
        <pitch>
          <step>C</step>
          <octave>4</octave>
        </pitch>
        <duration>2</duration>
        <instrument id="P1-I2"/>
        <voice>1</voice>
        <type>quarter</type>
        <stem default-y="-16">up</stem>
        <lyric default-y="-82" number="1">
          <syllabic>single</syllabic>
          <text>Praise</text>
        </lyric>
      </note>
      <note default-x="130">
        <pitch>
          <step>C</step>
          <octave>4</octave>
        </pitch>
        <duration>1</duration>
        <instrument id="P1-I2"/>
        <voice>1</voice>
        <type>eighth</type>
        <stem default-y="-17">up</stem>
        <beam number="1">begin</beam>
        <lyric default-y="-82" number="1" relative-x="-5">
          <syllabic>single</syllabic>
          <text>ye</text>
        </lyric>
      </note>
      <note default-x="168">
        <pitch>
          <step>C</step>
          <octave>4</octave>
        </pitch>
        <duration>1</duration>
        <instrument id="P1-I2"/>
        <voice>1</voice>
        <type>eighth</type>
        <stem default-y="-17">up</stem>
        <beam number="1">end</beam>
        <lyric default-y="-82" number="1" relative-x="-8">
          <syllabic>single</syllabic>
          <text>the</text>
        </lyric>
      </note>
      <note default-x="200">
        <pitch>
          <step>C</step>
          <octave>4</octave>
        </pitch>
        <duration>4</duration>
        <instrument id="P1-I2"/>
        <voice>1</voice>
        <type>half</type>
        <stem default-y="-16">up</stem>
        <lyric default-y="-82" number="1">
          <syllabic>single</syllabic>
          <text>LORD!</text>
        </lyric>
      </note>
    </measure>
    <!--=======================================================-->
    <measure number="14" width="188">
      <note default-x="15">
        <pitch>
          <step>F</step>
          <octave>4</octave>
        </pitch>
        <duration>2</duration>
        <instrument id="P1-I2"/>
        <voice>1</voice>
        <type>quarter</type>
        <stem default-y="-3">up</stem>
        <lyric default-y="-82" number="1">
          <syllabic>single</syllabic>
          <text font-style="italic">Praise</text>
        </lyric>
      </note>
      <note default-x="53">
        <pitch>
          <step>F</step>
          <octave>4</octave>
        </pitch>
        <duration>1</duration>
        <instrument id="P1-I2"/>
        <voice>1</voice>
        <type>eighth</type>
        <stem default-y="-3.5">up</stem>
        <beam number="1">begin</beam>
        <lyric default-y="-82" number="1">
          <syllabic>single</syllabic>
          <text font-style="italic">ye</text>
        </lyric>
      </note>
      <note default-x="82">
        <pitch>
          <step>F</step>
          <octave>4</octave>
        </pitch>
        <duration>1</duration>
        <instrument id="P1-I2"/>
        <voice>1</voice>
        <type>eighth</type>
        <stem default-y="-3.5">up</stem>
        <beam number="1">end</beam>
        <lyric default-y="-82" number="1">
          <syllabic>single</syllabic>
          <text font-style="italic">the</text>
        </lyric>
      </note>
      <note default-x="124">
        <pitch>
          <step>C</step>
          <octave>4</octave>
        </pitch>
        <duration>4</duration>
        <instrument id="P1-I2"/>
        <voice>1</voice>
        <type>half</type>
        <stem default-y="-16">up</stem>
        <lyric default-y="-82" number="1">
          <syllabic>single</syllabic>
          <text font-style="italic">LORD!</text>
        </lyric>
      </note>
    </measure>
    <!--=======================================================-->
    <measure number="15" width="205">
      <note default-x="23">
        <pitch>
          <step>C</step>
          <octave>4</octave>
        </pitch>
        <duration>4</duration>
        <instrument id="P1-I2"/>
        <voice>1</voice>
        <type>half</type>
        <stem default-y="-16">up</stem>
        <lyric default-y="-82" number="1">
          <syllabic>single</syllabic>
          <text font-style="italic">Praise</text>
        </lyric>
      </note>
      <note default-x="118">
        <pitch>
          <step>C</step>
          <octave>4</octave>
        </pitch>
        <duration>2</duration>
        <instrument id="P1-I2"/>
        <voice>1</voice>
        <type>quarter</type>
        <stem default-y="-16">up</stem>
        <lyric default-y="-82" number="1">
          <syllabic>single</syllabic>
          <text font-style="italic">ye</text>
        </lyric>
      </note>
      <note default-x="167">
        <pitch>
          <step>C</step>
          <octave>4</octave>
        </pitch>
        <duration>2</duration>
        <instrument id="P1-I2"/>
        <voice>1</voice>
        <type>quarter</type>
        <stem default-y="-16">up</stem>
        <lyric default-y="-82" number="1">
          <syllabic>single</syllabic>
          <text font-style="italic">the</text>
        </lyric>
      </note>
    </measure>
    <!--=======================================================-->
    <measure number="16" width="154">
      <note default-x="23">
        <pitch>
          <step>G</step>
          <octave>3</octave>
        </pitch>
        <duration>4</duration>
        <instrument id="P1-I2"/>
        <voice>1</voice>
        <type>half</type>
        <stem default-y="1.5">up</stem>
        <notations>
          <slur bezier-x="11" bezier-y="-3" default-x="7" default-y="-66" number="1" placement="below" type="start"/>
        </notations>
        <lyric default-y="-82" number="1">
          <syllabic>single</syllabic>
          <text font-style="italic">LORD!</text>
        </lyric>
      </note>
      <note default-x="23">
        <chord/>
        <pitch>
          <step>G</step>
          <octave>4</octave>
        </pitch>
        <duration>4</duration>
        <instrument id="P1-I2"/>
        <voice>1</voice>
        <type>half</type>
        <stem>up</stem>
      </note>
      <note default-x="83">
        <pitch>
          <step>C</step>
          <octave>4</octave>
        </pitch>
        <duration>4</duration>
        <instrument id="P1-I2"/>
        <voice>1</voice>
        <type>half</type>
        <stem default-y="-16">up</stem>
        <notations>
          <slur bezier-x="-8" bezier-y="-7" default-x="5" default-y="-54" number="1" type="stop"/>
        </notations>
      </note>
      <barline location="right">
        <bar-style>light-heavy</bar-style>
      </barline>
    </measure>
  </part>
  <!--=========================================================-->
</score-partwise>
