<?xml version="1.0" encoding="UTF-8" standalone="no"?>
<!DOCTYPE score-partwise PUBLIC "-//Recordare//DTD MusicXML 3.1 Partwise//EN" "http://www.musicxml.org/dtds/partwise.dtd">
<score-partwise version="3.1">
  <identification>
    <encoding>
      <software>Finale v25 for Windows</software>
      <encoding-date>2020-07-07</encoding-date>
      <supports attribute="new-system" element="print" type="yes" value="yes"/>
      <supports attribute="new-page" element="print" type="yes" value="yes"/>
      <supports element="accidental" type="yes"/>
      <supports element="beam" type="yes"/>
      <supports element="stem" type="yes"/>
    </encoding>
  </identification>
  <defaults>
    <scaling>
      <millimeters>6.35</millimeters>
      <tenths>40</tenths>
    </scaling>
    <page-layout>
      <page-height>1380</page-height>
      <page-width>852</page-width>
      <page-margins type="both">
        <left-margin>0</left-margin>
        <right-margin>0</right-margin>
        <top-margin>0</top-margin>
        <bottom-margin>362</bottom-margin>
      </page-margins>
    </page-layout>
    <system-layout>
      <system-margins>
        <left-margin>5</left-margin>
        <right-margin>0</right-margin>
      </system-margins>
      <system-distance>54</system-distance>
      <top-system-distance>54</top-system-distance>
    </system-layout>
    <staff-layout>
      <staff-distance>108</staff-distance>
    </staff-layout>
    <appearance>
      <line-width type="stem">0.8333</line-width>
      <line-width type="beam">4.1667</line-width>
      <line-width type="staff">0.7096</line-width>
      <line-width type="light barline">0.8333</line-width>
      <line-width type="heavy barline">5</line-width>
      <line-width type="leger">0.7292</line-width>
      <line-width type="ending">0.7682</line-width>
      <line-width type="wedge">0.8333</line-width>
      <line-width type="enclosure">0.8333</line-width>
      <line-width type="tuplet bracket">0.7292</line-width>
      <note-size type="grace">55</note-size>
      <note-size type="cue">55</note-size>
      <distance type="hyphen">83</distance>
      <distance type="beam">8</distance>
    </appearance>
    <music-font font-family="Petrucci2" font-size="18"/>
    <word-font font-family="Palatino Linotype" font-size="9"/>
    <lyric-font font-family="Palatino Linotype" font-size="9"/>
  </defaults>
  <credit page="1">
    <credit-words default-y="362" font-size="7.5" valign="bottom" xml:space="preserve">Music: Johann Anastasius Freylinghausen, 1714
harm. Johann Sebastian Bach (1685–1750) 
Text: </credit-words>
    <credit-words font-size="7.5" font-style="italic">The Ailbe Psalter</credit-words>
    <credit-words font-size="7.5" font-style="normal">, 2006 </credit-words>
    <credit-words font-size="6">© </credit-words>
  </credit>
  <credit page="1">
    <credit-words default-x="852" default-y="362" font-size="7.5" justify="right" valign="bottom" xml:space="preserve">NICHT SO TRAURIG [PRESSBURG]
7 7. 7 7. 7 7.</credit-words>
  </credit>
  <part-list>
    <part-group number="1" type="start">
      <group-symbol default-x="-2">line</group-symbol>
      <group-barline>no</group-barline>
    </part-group>
    <score-part id="P1">
      <part-name print-object="no">MusicXML Part</part-name>
      <score-instrument id="P1-I5">
        <instrument-name>SmartMusic SoftSynth</instrument-name>
        <virtual-instrument/>
      </score-instrument>
      <midi-device>SmartMusic SoftSynth</midi-device>
      <midi-instrument id="P1-I5">
        <midi-channel>5</midi-channel>
        <midi-program>57</midi-program>
        <volume>80</volume>
        <pan>0</pan>
      </midi-instrument>
    </score-part>
    <score-part id="P2">
      <part-name print-object="no">MusicXML Part</part-name>
      <score-instrument id="P2-I2">
        <instrument-name>SmartMusic SoftSynth</instrument-name>
        <virtual-instrument/>
      </score-instrument>
      <midi-device>SmartMusic SoftSynth</midi-device>
      <midi-instrument id="P2-I2">
        <midi-channel>1</midi-channel>
        <midi-program>58</midi-program>
        <volume>80</volume>
        <pan>0</pan>
      </midi-instrument>
    </score-part>
    <part-group number="1" type="stop"/>
  </part-list>
  <!--=========================================================-->
  <part id="P1">
    <measure implicit="yes" number="0" width="194">
      <print>
        <system-layout>
          <top-system-distance>92</top-system-distance>
        </system-layout>
        <measure-numbering>system</measure-numbering>
      </print>
      <attributes>
        <divisions>2</divisions>
        <key>
          <fifths>-2</fifths>
          <mode>major</mode>
        </key>
        <time>
          <beats>4</beats>
          <beat-type>4</beat-type>
        </time>
        <clef>
          <sign>G</sign>
          <line>2</line>
        </clef>
      </attributes>
      <sound tempo="85"/>
      <note default-x="93">
        <pitch>
          <step>D</step>
          <octave>4</octave>
        </pitch>
        <duration>2</duration>
        <voice>1</voice>
        <type>quarter</type>
        <stem default-y="12">up</stem>
        <lyric default-y="-103" number="1" relative-x="-2">
          <syllabic>single</syllabic>
          <text>1.</text>
          <elision> </elision>
          <syllabic>single</syllabic>
          <text>1</text>
          <elision> </elision>
          <syllabic>single</syllabic>
          <text>With</text>
        </lyric>
        <lyric default-y="-124" number="2" relative-x="-2">
          <syllabic>single</syllabic>
          <text>2.</text>
          <elision> </elision>
          <syllabic>single</syllabic>
          <text>3</text>
          <elision> </elision>
          <syllabic>single</syllabic>
          <text>When</text>
        </lyric>
        <lyric default-y="-145" number="3" relative-x="-2">
          <syllabic>single</syllabic>
          <text font-size="8.25" font-style="italic" font-weight="bold">3.</text>
          <elision> </elision>
          <syllabic>single</syllabic>
          <text font-size="8.25" font-style="italic" font-weight="bold">4</text>
          <elision> </elision>
          <syllabic>single</syllabic>
          <text font-size="8.25" font-style="italic" font-weight="bold">Lord,</text>
        </lyric>
        <lyric default-y="-166" number="4" relative-x="-2">
          <syllabic>single</syllabic>
          <text>4.</text>
          <elision> </elision>
          <syllabic>single</syllabic>
          <text>6</text>
          <elision> </elision>
          <syllabic>single</syllabic>
          <text>Hear</text>
        </lyric>
        <lyric default-y="-187" number="5" relative-x="-2">
          <syllabic>single</syllabic>
          <text>5.</text>
          <elision> </elision>
          <syllabic>single</syllabic>
          <text>7</text>
          <elision> </elision>
          <syllabic>single</syllabic>
          <text>Our</text>
        </lyric>
      </note>
      <note default-x="93">
        <chord/>
        <pitch>
          <step>B</step>
          <alter>-1</alter>
          <octave>4</octave>
        </pitch>
        <duration>2</duration>
        <voice>1</voice>
        <type>quarter</type>
        <stem>up</stem>
      </note>
      <note default-x="142">
        <pitch>
          <step>C</step>
          <octave>4</octave>
        </pitch>
        <duration>2</duration>
        <voice>1</voice>
        <type>quarter</type>
        <stem default-y="-76">down</stem>
        <lyric default-y="-103" number="1" relative-x="10">
          <syllabic>single</syllabic>
          <text>my</text>
        </lyric>
        <lyric default-y="-124" number="2" relative-x="10">
          <syllabic>single</syllabic>
          <text>my</text>
        </lyric>
        <lyric default-y="-145" number="3" relative-x="10">
          <syllabic>single</syllabic>
          <text font-size="8.25" font-style="italic" font-weight="bold">look</text>
        </lyric>
        <lyric default-y="-166" number="4" relative-x="10">
          <syllabic>single</syllabic>
          <text>my</text>
        </lyric>
        <lyric default-y="-187" number="5" relative-x="10">
          <syllabic>single</syllabic>
          <text>of</text>
        </lyric>
      </note>
      <backup>
        <duration>2</duration>
      </backup>
      <note default-x="142">
        <pitch>
          <step>A</step>
          <octave>4</octave>
        </pitch>
        <duration>1</duration>
        <voice>2</voice>
        <type>eighth</type>
        <stem default-y="6">up</stem>
        <beam number="1">begin</beam>
      </note>
      <note default-x="170">
        <pitch>
          <step>G</step>
          <octave>4</octave>
        </pitch>
        <duration>1</duration>
        <voice>2</voice>
        <type>eighth</type>
        <stem default-y="1">up</stem>
        <beam number="1">end</beam>
      </note>
    </measure>
    <!--=======================================================-->
    <measure number="1" width="222">
      <note default-x="12">
        <pitch>
          <step>D</step>
          <octave>5</octave>
        </pitch>
        <duration>2</duration>
        <voice>1</voice>
        <type>quarter</type>
        <stem default-y="16">up</stem>
        <lyric default-y="-103" number="1">
          <syllabic>single</syllabic>
          <text>voice,</text>
        </lyric>
        <lyric default-y="-124" number="2">
          <syllabic>begin</syllabic>
          <text>spir</text>
        </lyric>
        <lyric default-y="-145" number="3">
          <syllabic>single</syllabic>
          <text font-size="8.25" font-style="italic" font-weight="bold">to</text>
        </lyric>
        <lyric default-y="-166" number="4">
          <syllabic>single</syllabic>
          <text>cry,</text>
        </lyric>
        <lyric default-y="-187" number="5">
          <syllabic>begin</syllabic>
          <text>pris</text>
        </lyric>
      </note>
      <backup>
        <duration>2</duration>
      </backup>
      <note default-x="12">
        <pitch>
          <step>B</step>
          <alter>-1</alter>
          <octave>3</octave>
        </pitch>
        <duration>1</duration>
        <voice>2</voice>
        <type>eighth</type>
        <stem default-y="-82">down</stem>
        <beam number="1">begin</beam>
      </note>
      <note default-x="43">
        <pitch>
          <step>C</step>
          <octave>4</octave>
        </pitch>
        <duration>1</duration>
        <voice>2</voice>
        <type>eighth</type>
        <stem default-y="-77">down</stem>
        <beam number="1">end</beam>
      </note>
      <note default-x="71">
        <pitch>
          <step>D</step>
          <octave>4</octave>
        </pitch>
        <duration>2</duration>
        <voice>1</voice>
        <type>quarter</type>
        <stem default-y="-71">down</stem>
        <lyric default-y="-103" number="1">
          <syllabic>single</syllabic>
          <text>O</text>
        </lyric>
        <lyric default-y="-124" number="2">
          <syllabic>end</syllabic>
          <text>it</text>
        </lyric>
        <lyric default-y="-145" number="3">
          <syllabic>single</syllabic>
          <text font-size="8.25" font-style="italic" font-weight="bold">my</text>
        </lyric>
        <lyric default-y="-166" number="4">
          <syllabic>single</syllabic>
          <text>Lord,</text>
        </lyric>
        <lyric default-y="-187" number="5">
          <syllabic>end</syllabic>
          <text>on</text>
        </lyric>
      </note>
      <backup>
        <duration>2</duration>
      </backup>
      <note default-x="71">
        <pitch>
          <step>C</step>
          <octave>5</octave>
        </pitch>
        <duration>1</duration>
        <voice>2</voice>
        <type>eighth</type>
        <stem default-y="16">up</stem>
        <beam number="1">begin</beam>
      </note>
      <note default-x="98">
        <pitch>
          <step>B</step>
          <alter>-1</alter>
          <octave>4</octave>
        </pitch>
        <duration>1</duration>
        <voice>2</voice>
        <type>eighth</type>
        <stem default-y="11">up</stem>
        <beam number="1">end</beam>
      </note>
      <note default-x="128">
        <pitch>
          <step>E</step>
          <alter>-1</alter>
          <octave>4</octave>
        </pitch>
        <duration>2</duration>
        <voice>1</voice>
        <type>quarter</type>
        <stem default-y="7">up</stem>
        <lyric default-y="-103" number="1">
          <syllabic>single</syllabic>
          <text>LORD,</text>
        </lyric>
        <lyric default-y="-124" number="2">
          <syllabic>single</syllabic>
          <text>faints</text>
        </lyric>
        <lyric default-y="-145" number="3">
          <syllabic>single</syllabic>
          <text font-size="8.25" font-style="italic" font-weight="bold">right</text>
        </lyric>
        <lyric default-y="-166" number="4">
          <syllabic>single</syllabic>
          <text>I</text>
        </lyric>
        <lyric default-y="-187" number="5">
          <syllabic>single</syllabic>
          <text>lead</text>
        </lyric>
      </note>
      <note default-x="128">
        <chord/>
        <pitch>
          <step>A</step>
          <octave>4</octave>
        </pitch>
        <duration>2</duration>
        <voice>1</voice>
        <type>quarter</type>
        <stem>up</stem>
      </note>
      <note default-x="166">
        <pitch>
          <step>D</step>
          <octave>4</octave>
        </pitch>
        <duration>1</duration>
        <voice>1</voice>
        <type>eighth</type>
        <stem default-y="11">up</stem>
        <beam number="1">begin</beam>
        <lyric default-y="-103" number="1" relative-x="6">
          <syllabic>single</syllabic>
          <text>I</text>
        </lyric>
        <lyric default-y="-124" number="2" relative-x="6">
          <syllabic>begin</syllabic>
          <text>a</text>
        </lyric>
        <lyric default-y="-145" number="3" relative-x="6">
          <syllabic>single</syllabic>
          <text font-size="8.25" font-style="italic" font-weight="bold">and</text>
        </lyric>
        <lyric default-y="-166" number="4" relative-x="6">
          <syllabic>single</syllabic>
          <text>am</text>
        </lyric>
        <lyric default-y="-187" number="5" relative-x="6">
          <syllabic>single</syllabic>
          <text>me,</text>
        </lyric>
      </note>
      <note default-x="166">
        <chord/>
        <pitch>
          <step>B</step>
          <alter>-1</alter>
          <octave>4</octave>
        </pitch>
        <duration>1</duration>
        <voice>1</voice>
        <type>eighth</type>
        <stem>up</stem>
      </note>
      <note default-x="196">
        <pitch>
          <step>C</step>
          <octave>4</octave>
        </pitch>
        <duration>1</duration>
        <voice>1</voice>
        <type>eighth</type>
        <stem default-y="16">up</stem>
        <beam number="1">end</beam>
      </note>
      <note default-x="196">
        <chord/>
        <pitch>
          <step>C</step>
          <octave>5</octave>
        </pitch>
        <duration>1</duration>
        <voice>1</voice>
        <type>eighth</type>
        <stem>up</stem>
      </note>
    </measure>
    <!--=======================================================-->
    <measure number="2" width="162">
      <note default-x="16">
        <pitch>
          <step>D</step>
          <octave>4</octave>
        </pitch>
        <duration>4</duration>
        <voice>1</voice>
        <type>half</type>
        <stem default-y="-3">up</stem>
        <lyric default-y="-103" number="1">
          <syllabic>single</syllabic>
          <text>cry,</text>
        </lyric>
        <lyric default-y="-124" number="2">
          <syllabic>end</syllabic>
          <text>way,</text>
        </lyric>
        <lyric default-y="-145" number="3">
          <syllabic>single</syllabic>
          <text font-size="8.25" font-style="italic" font-weight="bold">see:</text>
        </lyric>
        <lyric default-y="-166" number="4">
          <syllabic>single</syllabic>
          <text>low!</text>
        </lyric>
        <lyric default-y="-187" number="5">
          <syllabic>single</syllabic>
          <text>Lord;</text>
        </lyric>
      </note>
      <note default-x="16">
        <chord/>
        <pitch>
          <step>F</step>
          <alter>1</alter>
          <octave>4</octave>
        </pitch>
        <duration>4</duration>
        <voice>1</voice>
        <type>half</type>
        <accidental>sharp</accidental>
        <stem>up</stem>
      </note>
      <note default-x="69">
        <pitch>
          <step>D</step>
          <octave>4</octave>
        </pitch>
        <duration>2</duration>
        <voice>1</voice>
        <type>quarter</type>
        <stem default-y="-71">down</stem>
        <lyric default-y="-103" number="1" relative-x="13">
          <syllabic>single</syllabic>
          <text>Hear</text>
        </lyric>
        <lyric default-y="-124" number="2" relative-x="13">
          <syllabic>single</syllabic>
          <text>You</text>
        </lyric>
        <lyric default-y="-145" number="3" relative-x="13">
          <syllabic>single</syllabic>
          <text font-size="8.25" font-style="italic" font-weight="bold">None</text>
        </lyric>
        <lyric default-y="-166" number="4" relative-x="13">
          <syllabic>single</syllabic>
          <text>They</text>
        </lyric>
        <lyric default-y="-187" number="5" relative-x="13">
          <syllabic>single</syllabic>
          <text>Thanks</text>
        </lyric>
      </note>
      <backup>
        <duration>2</duration>
      </backup>
      <note default-x="69">
        <pitch>
          <step>G</step>
          <octave>4</octave>
        </pitch>
        <duration>1</duration>
        <voice>2</voice>
        <type>eighth</type>
        <stem default-y="1">up</stem>
        <beam number="1">begin</beam>
      </note>
      <note default-x="95">
        <pitch>
          <step>A</step>
          <octave>4</octave>
        </pitch>
        <duration>1</duration>
        <voice>2</voice>
        <type>eighth</type>
        <stem default-y="6">up</stem>
        <beam number="1">end</beam>
      </note>
      <note default-x="125">
        <pitch>
          <step>D</step>
          <octave>4</octave>
        </pitch>
        <duration>2</duration>
        <voice>1</voice>
        <type>quarter</type>
        <stem default-y="12">up</stem>
        <lyric default-y="-103" number="1">
          <syllabic>single</syllabic>
          <text>my</text>
        </lyric>
        <lyric default-y="-124" number="2">
          <syllabic>single</syllabic>
          <text>my</text>
        </lyric>
        <lyric default-y="-145" number="3">
          <syllabic>single</syllabic>
          <text font-size="8.25" font-style="italic" font-weight="bold">takes</text>
        </lyric>
        <lyric default-y="-166" number="4">
          <syllabic>single</syllabic>
          <text>are</text>
        </lyric>
        <lyric default-y="-187" number="5" relative-x="9">
          <syllabic>single</syllabic>
          <text>and</text>
        </lyric>
      </note>
      <note default-x="125">
        <chord/>
        <pitch>
          <step>B</step>
          <alter>-1</alter>
          <octave>4</octave>
        </pitch>
        <duration>2</duration>
        <voice>1</voice>
        <type>quarter</type>
        <stem>up</stem>
      </note>
    </measure>
    <!--=======================================================-->
    <measure number="3" width="269">
      <note default-x="21">
        <pitch>
          <step>E</step>
          <alter>-1</alter>
          <octave>4</octave>
        </pitch>
        <duration>2</duration>
        <voice>1</voice>
        <type>quarter</type>
        <stem default-y="-8">up</stem>
        <lyric default-y="-103" number="1">
          <syllabic>single</syllabic>
          <text>plea</text>
        </lyric>
        <lyric default-y="-124" number="2" relative-x="-6">
          <syllabic>begin</syllabic>
          <text>fal</text>
        </lyric>
        <lyric default-y="-145" number="3">
          <syllabic>begin</syllabic>
          <text font-size="8.25" font-style="italic" font-weight="bold">no</text>
        </lyric>
        <lyric default-y="-166" number="4">
          <syllabic>single</syllabic>
          <text>strong</text>
        </lyric>
        <lyric default-y="-187" number="5">
          <syllabic>single</syllabic>
          <text>praise</text>
        </lyric>
      </note>
      <backup>
        <duration>2</duration>
      </backup>
      <note default-x="21">
        <pitch>
          <step>C</step>
          <octave>4</octave>
        </pitch>
        <duration>1</duration>
        <voice>2</voice>
        <type>eighth</type>
        <stem default-y="-77">down</stem>
        <beam number="1">begin</beam>
      </note>
      <note default-x="49">
        <pitch>
          <step>A</step>
          <octave>3</octave>
        </pitch>
        <duration>1</duration>
        <voice>2</voice>
        <type>eighth</type>
        <stem default-y="-87">down</stem>
        <beam number="1">end</beam>
      </note>
      <note default-x="78">
        <pitch>
          <step>B</step>
          <alter>-1</alter>
          <octave>3</octave>
        </pitch>
        <duration>2</duration>
        <voice>1</voice>
        <type>quarter</type>
        <stem default-y="-13">up</stem>
        <lyric default-y="-103" number="1">
          <syllabic>single</syllabic>
          <text>for</text>
        </lyric>
        <lyric default-y="-124" number="2" relative-x="-6">
          <syllabic>end</syllabic>
          <text>t’ring</text>
        </lyric>
        <lyric default-y="-145" number="3">
          <syllabic>end</syllabic>
          <text font-size="8.25" font-style="italic" font-weight="bold">tice</text>
        </lyric>
        <lyric default-y="-166" number="4">
          <syllabic>single</syllabic>
          <text>who</text>
        </lyric>
        <lyric default-y="-187" number="5">
          <syllabic>single</syllabic>
          <text>to</text>
        </lyric>
      </note>
      <note default-x="78">
        <chord/>
        <pitch>
          <step>D</step>
          <octave>4</octave>
        </pitch>
        <duration>2</duration>
        <voice>1</voice>
        <type>quarter</type>
        <stem>up</stem>
      </note>
      <note default-x="128">
        <pitch>
          <step>C</step>
          <octave>4</octave>
        </pitch>
        <duration>2</duration>
        <voice>1</voice>
        <type>quarter</type>
        <stem default-y="-18">up</stem>
        <lyric default-y="-103" number="1">
          <syllabic>begin</syllabic>
          <text>mer</text>
        </lyric>
        <lyric default-y="-124" number="2">
          <syllabic>begin</syllabic>
          <text>path</text>
        </lyric>
        <lyric default-y="-145" number="3">
          <syllabic>single</syllabic>
          <text font-size="8.25" font-style="italic" font-weight="bold">of</text>
        </lyric>
        <lyric default-y="-166" number="4">
          <syllabic>single</syllabic>
          <text>seek</text>
        </lyric>
        <lyric default-y="-187" number="5">
          <syllabic>single</syllabic>
          <text>You</text>
        </lyric>
      </note>
      <backup>
        <duration>2</duration>
      </backup>
      <note default-x="137">
        <pitch>
          <step>B</step>
          <alter>-1</alter>
          <octave>3</octave>
        </pitch>
        <duration>2</duration>
        <voice>2</voice>
        <type>quarter</type>
        <stem default-y="-77">down</stem>
      </note>
      <note default-x="175">
        <pitch>
          <step>A</step>
          <octave>3</octave>
        </pitch>
        <duration>2</duration>
        <voice>1</voice>
        <type>quarter</type>
        <stem default-y="-3">up</stem>
        <lyric default-y="-103" number="1">
          <syllabic>end</syllabic>
          <text>cy,</text>
        </lyric>
        <lyric default-y="-124" number="2">
          <syllabic>end</syllabic>
          <text>way</text>
        </lyric>
        <lyric default-y="-145" number="3">
          <syllabic>single</syllabic>
          <text font-size="8.25" font-style="italic" font-weight="bold">my</text>
        </lyric>
        <lyric default-y="-166" number="4">
          <syllabic>single</syllabic>
          <text>my</text>
        </lyric>
        <lyric default-y="-187" number="5">
          <syllabic>single</syllabic>
          <text>shall</text>
        </lyric>
      </note>
      <note default-x="175">
        <chord/>
        <pitch>
          <step>F</step>
          <octave>4</octave>
        </pitch>
        <duration>2</duration>
        <voice>1</voice>
        <type>quarter</type>
        <stem>up</stem>
      </note>
    </measure>
    <!--=======================================================-->
    <measure number="4" width="175">
      <print new-system="yes"/>
      <note default-x="808">
        <pitch>
          <step>B</step>
          <alter>-1</alter>
          <octave>3</octave>
        </pitch>
        <duration>4</duration>
        <voice>1</voice>
        <type>half</type>
        <stem default-y="307">up</stem>
        <lyric default-y="-103" number="1">
          <syllabic>single</syllabic>
          <text>LORD!</text>
        </lyric>
        <lyric default-y="-124" number="2">
          <syllabic>single</syllabic>
          <text>know;</text>
        </lyric>
        <lyric default-y="-145" number="3">
          <syllabic>single</syllabic>
          <text font-size="8.25" font-style="italic" font-weight="bold">plight.</text>
        </lyric>
        <lyric default-y="-166" number="4">
          <syllabic>single</syllabic>
          <text>soul.</text>
        </lyric>
        <lyric default-y="-187" number="5">
          <syllabic>single</syllabic>
          <text>be.</text>
        </lyric>
      </note>
      <note default-x="808">
        <chord/>
        <pitch>
          <step>D</step>
          <octave>4</octave>
        </pitch>
        <duration>4</duration>
        <voice>1</voice>
        <type>half</type>
        <stem>up</stem>
      </note>
      <note default-x="80">
        <pitch>
          <step>D</step>
          <octave>4</octave>
        </pitch>
        <duration>2</duration>
        <voice>1</voice>
        <type>quarter</type>
        <stem default-y="12">up</stem>
        <lyric default-y="-103" number="1" relative-x="-5">
          <syllabic>single</syllabic>
          <text font-size="4.5">2</text>
          <elision> </elision>
          <syllabic>single</syllabic>
          <text font-size="4.5">My</text>
        </lyric>
        <lyric default-y="-124" number="2">
          <syllabic>single</syllabic>
          <text>Where</text>
        </lyric>
        <lyric default-y="-145" number="3">
          <syllabic>single</syllabic>
          <text font-size="8.25" font-style="italic" font-weight="bold">Is</text>
        </lyric>
        <lyric default-y="-166" number="4">
          <syllabic>begin</syllabic>
          <text>Je</text>
        </lyric>
        <lyric default-y="-187" number="5">
          <syllabic>begin</syllabic>
          <text>Right</text>
        </lyric>
      </note>
      <note default-x="80">
        <chord/>
        <pitch>
          <step>B</step>
          <alter>-1</alter>
          <octave>4</octave>
        </pitch>
        <duration>2</duration>
        <voice>1</voice>
        <type>quarter</type>
        <stem>up</stem>
      </note>
      <note default-x="123">
        <pitch>
          <step>C</step>
          <octave>4</octave>
        </pitch>
        <duration>2</duration>
        <voice>1</voice>
        <type>quarter</type>
        <stem default-y="-76">down</stem>
        <lyric default-y="-103" number="1" relative-x="5">
          <syllabic>begin</syllabic>
          <text>com</text>
        </lyric>
        <lyric default-y="-124" number="2" relative-x="5">
          <syllabic>single</syllabic>
          <text>I</text>
        </lyric>
        <lyric default-y="-145" number="3" relative-x="5">
          <syllabic>single</syllabic>
          <text font-size="8.25" font-style="italic" font-weight="bold">there</text>
        </lyric>
        <lyric default-y="-166" number="4" relative-x="5">
          <syllabic>end</syllabic>
          <text>sus</text>
        </lyric>
        <lyric default-y="-187" number="5" relative-x="5">
          <syllabic>end</syllabic>
          <text>eous</text>
        </lyric>
      </note>
      <backup>
        <duration>2</duration>
      </backup>
      <note default-x="123">
        <pitch>
          <step>A</step>
          <octave>4</octave>
        </pitch>
        <duration>1</duration>
        <voice>2</voice>
        <type>eighth</type>
        <stem default-y="7">up</stem>
        <beam number="1">begin</beam>
      </note>
      <note default-x="150">
        <pitch>
          <step>G</step>
          <octave>4</octave>
        </pitch>
        <duration>1</duration>
        <voice>2</voice>
        <type>eighth</type>
        <stem default-y="2">up</stem>
        <beam number="1">end</beam>
      </note>
    </measure>
    <!--=======================================================-->
    <measure number="5" width="239">
      <note default-x="20">
        <pitch>
          <step>D</step>
          <octave>5</octave>
        </pitch>
        <duration>2</duration>
        <voice>1</voice>
        <type>quarter</type>
        <stem default-y="17">up</stem>
        <lyric default-y="-103" number="1" relative-x="-5">
          <syllabic>end</syllabic>
          <text>plaint</text>
        </lyric>
        <lyric default-y="-124" number="2" relative-x="-5">
          <syllabic>single</syllabic>
          <text>take</text>
        </lyric>
        <lyric default-y="-145" number="3" relative-x="-5">
          <syllabic>begin</syllabic>
          <text font-size="8.25" font-style="italic" font-weight="bold">ref</text>
        </lyric>
        <lyric default-y="-166" number="4" relative-x="-5">
          <syllabic>single</syllabic>
          <text>frees</text>
        </lyric>
        <lyric default-y="-187" number="5" relative-x="-5">
          <syllabic>single</syllabic>
          <text>men</text>
        </lyric>
      </note>
      <backup>
        <duration>2</duration>
      </backup>
      <note default-x="20">
        <pitch>
          <step>B</step>
          <alter>-1</alter>
          <octave>3</octave>
        </pitch>
        <duration>1</duration>
        <voice>2</voice>
        <type>eighth</type>
        <stem default-y="-82">down</stem>
        <beam number="1">begin</beam>
      </note>
      <note default-x="48">
        <pitch>
          <step>C</step>
          <octave>4</octave>
        </pitch>
        <duration>1</duration>
        <voice>2</voice>
        <type>eighth</type>
        <stem default-y="-77">down</stem>
        <beam number="1">end</beam>
      </note>
      <note default-x="78">
        <pitch>
          <step>D</step>
          <octave>4</octave>
        </pitch>
        <duration>2</duration>
        <voice>1</voice>
        <type>quarter</type>
        <stem default-y="-71">down</stem>
        <lyric default-y="-103" number="1" relative-x="3">
          <syllabic>single</syllabic>
          <text>mounts</text>
        </lyric>
        <lyric default-y="-124" number="2">
          <syllabic>single</syllabic>
          <text>my</text>
        </lyric>
        <lyric default-y="-145" number="3">
          <syllabic>end</syllabic>
          <text font-size="8.25" font-style="italic" font-weight="bold">uge</text>
        </lyric>
        <lyric default-y="-166" number="4">
          <syllabic>single</syllabic>
          <text>from</text>
        </lyric>
        <lyric default-y="-187" number="5">
          <syllabic>single</syllabic>
          <text>armed</text>
        </lyric>
      </note>
      <backup>
        <duration>2</duration>
      </backup>
      <note default-x="78">
        <pitch>
          <step>C</step>
          <octave>5</octave>
        </pitch>
        <duration>1</duration>
        <voice>2</voice>
        <type>eighth</type>
        <stem default-y="17">up</stem>
        <beam number="1">begin</beam>
      </note>
      <note default-x="106">
        <pitch>
          <step>B</step>
          <alter>-1</alter>
          <octave>4</octave>
        </pitch>
        <duration>1</duration>
        <voice>2</voice>
        <type>eighth</type>
        <stem default-y="12">up</stem>
        <beam number="1">end</beam>
      </note>
      <note default-x="138">
        <pitch>
          <step>E</step>
          <alter>-1</alter>
          <octave>4</octave>
        </pitch>
        <duration>2</duration>
        <voice>1</voice>
        <type>quarter</type>
        <stem default-y="7">up</stem>
        <lyric default-y="-103" number="1">
          <syllabic>single</syllabic>
          <text>up</text>
        </lyric>
        <lyric default-y="-124" number="2">
          <syllabic>begin</syllabic>
          <text>jour</text>
        </lyric>
        <lyric default-y="-145" number="3">
          <syllabic>single</syllabic>
          <text font-size="8.25" font-style="italic" font-weight="bold">left</text>
        </lyric>
        <lyric default-y="-166" number="4">
          <syllabic>begin</syllabic>
          <text>ev</text>
        </lyric>
        <lyric default-y="-187" number="5">
          <syllabic>single</syllabic>
          <text>with</text>
        </lyric>
      </note>
      <note default-x="138">
        <chord/>
        <pitch>
          <step>A</step>
          <octave>4</octave>
        </pitch>
        <duration>2</duration>
        <voice>1</voice>
        <type>quarter</type>
        <stem>up</stem>
      </note>
      <note default-x="182">
        <pitch>
          <step>D</step>
          <octave>4</octave>
        </pitch>
        <duration>1</duration>
        <voice>1</voice>
        <type>eighth</type>
        <stem default-y="12">up</stem>
        <beam number="1">begin</beam>
        <lyric default-y="-103" number="1">
          <syllabic>single</syllabic>
          <text>on</text>
        </lyric>
        <lyric default-y="-124" number="2">
          <syllabic>end</syllabic>
          <text>ney</text>
        </lyric>
        <lyric default-y="-145" number="3">
          <syllabic>single</syllabic>
          <text font-size="8.25" font-style="italic" font-weight="bold">for</text>
        </lyric>
        <lyric default-y="-166" number="4">
          <syllabic>end</syllabic>
          <text>’ry</text>
        </lyric>
        <lyric default-y="-187" number="5">
          <syllabic>single</syllabic>
          <text>Your</text>
        </lyric>
      </note>
      <note default-x="182">
        <chord/>
        <pitch>
          <step>B</step>
          <alter>-1</alter>
          <octave>4</octave>
        </pitch>
        <duration>1</duration>
        <voice>1</voice>
        <type>eighth</type>
        <stem>up</stem>
      </note>
      <note default-x="213">
        <pitch>
          <step>C</step>
          <octave>4</octave>
        </pitch>
        <duration>1</duration>
        <voice>1</voice>
        <type>eighth</type>
        <stem default-y="17">up</stem>
        <beam number="1">end</beam>
      </note>
      <note default-x="213">
        <chord/>
        <pitch>
          <step>C</step>
          <octave>5</octave>
        </pitch>
        <duration>1</duration>
        <voice>1</voice>
        <type>eighth</type>
        <stem>up</stem>
      </note>
    </measure>
    <!--=======================================================-->
    <measure number="6" width="158">
      <note default-x="18">
        <pitch>
          <step>D</step>
          <octave>4</octave>
        </pitch>
        <duration>4</duration>
        <voice>1</voice>
        <type>half</type>
        <stem default-y="-3">up</stem>
        <lyric default-y="-103" number="1">
          <syllabic>single</syllabic>
          <text>high,</text>
        </lyric>
        <lyric default-y="-124" number="2">
          <syllabic>single</syllabic>
          <text>they</text>
        </lyric>
        <lyric default-y="-145" number="3">
          <syllabic>single</syllabic>
          <text font-size="8.25" font-style="italic" font-weight="bold">me?</text>
        </lyric>
        <lyric default-y="-166" number="4">
          <syllabic>single</syllabic>
          <text>foe;</text>
        </lyric>
        <lyric default-y="-187" number="5">
          <syllabic>single</syllabic>
          <text>Word</text>
        </lyric>
      </note>
      <note default-x="18">
        <chord/>
        <pitch>
          <step>F</step>
          <alter>1</alter>
          <octave>4</octave>
        </pitch>
        <duration>4</duration>
        <voice>1</voice>
        <type>half</type>
        <accidental>sharp</accidental>
        <stem>up</stem>
      </note>
      <note default-x="66">
        <pitch>
          <step>D</step>
          <octave>4</octave>
        </pitch>
        <duration>2</duration>
        <voice>1</voice>
        <type>quarter</type>
        <stem default-y="-68">down</stem>
        <lyric default-y="-103" number="1" relative-x="12">
          <syllabic>begin</syllabic>
          <text>Bring</text>
        </lyric>
        <lyric default-y="-124" number="2" relative-x="12">
          <syllabic>single</syllabic>
          <text>Traps</text>
        </lyric>
        <lyric default-y="-145" number="3" relative-x="12">
          <syllabic>single</syllabic>
          <text font-size="8.25" font-style="italic" font-weight="bold">Is</text>
        </lyric>
        <lyric default-y="-166" number="4" relative-x="12">
          <syllabic>single</syllabic>
          <text>He</text>
        </lyric>
        <lyric default-y="-187" number="5" relative-x="12">
          <syllabic>single</syllabic>
          <text>Will</text>
        </lyric>
      </note>
      <backup>
        <duration>2</duration>
      </backup>
      <note default-x="66">
        <pitch>
          <step>G</step>
          <octave>4</octave>
        </pitch>
        <duration>1</duration>
        <voice>2</voice>
        <type>eighth</type>
        <stem default-y="2">up</stem>
        <beam number="1">begin</beam>
      </note>
      <note default-x="94">
        <pitch>
          <step>A</step>
          <octave>4</octave>
        </pitch>
        <duration>1</duration>
        <voice>2</voice>
        <type>eighth</type>
        <stem default-y="7">up</stem>
        <beam number="1">end</beam>
      </note>
      <note default-x="123">
        <pitch>
          <step>D</step>
          <octave>4</octave>
        </pitch>
        <duration>2</duration>
        <voice>1</voice>
        <type>quarter</type>
        <stem default-y="12">up</stem>
        <lyric default-y="-103" number="1" relative-x="4">
          <syllabic>end</syllabic>
          <text>ing</text>
        </lyric>
        <lyric default-y="-124" number="2" relative-x="4">
          <syllabic>single</syllabic>
          <text>have</text>
        </lyric>
        <lyric default-y="-145" number="3">
          <syllabic>single</syllabic>
          <text font-size="8.25" font-style="italic" font-weight="bold">my</text>
        </lyric>
        <lyric default-y="-166" number="4">
          <syllabic>single</syllabic>
          <text>will</text>
        </lyric>
        <lyric default-y="-187" number="5">
          <syllabic>single</syllabic>
          <text>Your</text>
        </lyric>
      </note>
      <note default-x="123">
        <chord/>
        <pitch>
          <step>B</step>
          <alter>-1</alter>
          <octave>4</octave>
        </pitch>
        <duration>2</duration>
        <voice>1</voice>
        <type>quarter</type>
        <stem>up</stem>
      </note>
    </measure>
    <!--=======================================================-->
    <measure number="7" width="276">
      <note default-x="18">
        <pitch>
          <step>E</step>
          <alter>-1</alter>
          <octave>4</octave>
        </pitch>
        <duration>2</duration>
        <voice>1</voice>
        <type>quarter</type>
        <stem default-y="-8">up</stem>
        <lyric default-y="-103" number="1">
          <syllabic>single</syllabic>
          <text>You</text>
        </lyric>
        <lyric default-y="-124" number="2">
          <syllabic>begin</syllabic>
          <text>hid</text>
        </lyric>
        <lyric default-y="-145" number="3">
          <syllabic>single</syllabic>
          <text font-size="8.25" font-style="italic" font-weight="bold">soul</text>
        </lyric>
        <lyric default-y="-166" number="4">
          <syllabic>single</syllabic>
          <text>keep</text>
        </lyric>
        <lyric default-y="-187" number="5">
          <syllabic>single</syllabic>
          <text>grace</text>
        </lyric>
      </note>
      <backup>
        <duration>2</duration>
      </backup>
      <note default-x="18">
        <pitch>
          <step>C</step>
          <octave>4</octave>
        </pitch>
        <duration>1</duration>
        <voice>2</voice>
        <type>eighth</type>
        <stem default-y="-77">down</stem>
        <beam number="1">begin</beam>
      </note>
      <note default-x="44">
        <pitch>
          <step>A</step>
          <octave>3</octave>
        </pitch>
        <duration>1</duration>
        <voice>2</voice>
        <type>eighth</type>
        <stem default-y="-87">down</stem>
        <beam number="1">end</beam>
      </note>
      <note default-x="71">
        <pitch>
          <step>B</step>
          <alter>-1</alter>
          <octave>3</octave>
        </pitch>
        <duration>2</duration>
        <voice>1</voice>
        <type>quarter</type>
        <stem default-y="-13">up</stem>
        <lyric default-y="-103" number="1">
          <syllabic>single</syllabic>
          <text>my</text>
        </lyric>
        <lyric default-y="-124" number="2">
          <syllabic>end</syllabic>
          <text>den</text>
        </lyric>
        <lyric default-y="-145" number="3">
          <syllabic>single</syllabic>
          <text font-size="8.25" font-style="italic" font-weight="bold">out</text>
        </lyric>
        <lyric default-y="-166" number="4">
          <syllabic>single</syllabic>
          <text>and</text>
        </lyric>
        <lyric default-y="-187" number="5">
          <syllabic>begin</syllabic>
          <text>be</text>
        </lyric>
      </note>
      <note default-x="71">
        <chord/>
        <pitch>
          <step>D</step>
          <octave>4</octave>
        </pitch>
        <duration>2</duration>
        <voice>1</voice>
        <type>quarter</type>
        <stem>up</stem>
      </note>
      <note default-x="123">
        <pitch>
          <step>C</step>
          <octave>4</octave>
        </pitch>
        <duration>2</duration>
        <voice>1</voice>
        <type>quarter</type>
        <stem default-y="-18">up</stem>
        <lyric default-y="-103" number="1">
          <syllabic>begin</syllabic>
          <text>trou</text>
        </lyric>
        <lyric default-y="-124" number="2">
          <syllabic>single</syllabic>
          <text>to</text>
        </lyric>
        <lyric default-y="-145" number="3">
          <syllabic>single</syllabic>
          <text font-size="8.25" font-style="italic" font-weight="bold">of</text>
        </lyric>
        <lyric default-y="-166" number="4">
          <syllabic>single</syllabic>
          <text>make</text>
        </lyric>
        <lyric default-y="-187" number="5">
          <syllabic>end</syllabic>
          <text>stow</text>
        </lyric>
      </note>
      <backup>
        <duration>2</duration>
      </backup>
      <note default-x="132">
        <pitch>
          <step>B</step>
          <alter>-1</alter>
          <octave>3</octave>
        </pitch>
        <duration>2</duration>
        <voice>2</voice>
        <type>quarter</type>
        <stem default-y="-77">down</stem>
      </note>
      <note default-x="177">
        <pitch>
          <step>A</step>
          <octave>3</octave>
        </pitch>
        <duration>2</duration>
        <voice>1</voice>
        <type>quarter</type>
        <stem default-y="-3">up</stem>
        <lyric default-y="-103" number="1">
          <syllabic>end</syllabic>
          <text>bled</text>
        </lyric>
        <lyric default-y="-124" number="2">
          <syllabic>single</syllabic>
          <text>my</text>
        </lyric>
        <lyric default-y="-145" number="3">
          <syllabic>single</syllabic>
          <text font-size="8.25" font-style="italic" font-weight="bold">Your</text>
        </lyric>
        <lyric default-y="-166" number="4">
          <syllabic>single</syllabic>
          <text>me</text>
        </lyric>
        <lyric default-y="-187" number="5">
          <syllabic>single</syllabic>
          <text>on</text>
        </lyric>
      </note>
      <note default-x="177">
        <chord/>
        <pitch>
          <step>F</step>
          <octave>4</octave>
        </pitch>
        <duration>2</duration>
        <voice>1</voice>
        <type>quarter</type>
        <stem>up</stem>
      </note>
    </measure>
    <!--=======================================================-->
    <measure number="8" width="848">
      <print new-system="yes"/>
      <note default-x="805">
        <pitch>
          <step>B</step>
          <alter>-1</alter>
          <octave>3</octave>
        </pitch>
        <duration>4</duration>
        <voice>1</voice>
        <type>half</type>
        <stem default-y="-13">up</stem>
        <lyric default-y="-103" number="1">
          <syllabic>single</syllabic>
          <text>word:</text>
        </lyric>
        <lyric default-y="-124" number="2">
          <syllabic>single</syllabic>
          <text>woe.</text>
        </lyric>
        <lyric default-y="-145" number="3">
          <syllabic>single</syllabic>
          <text font-size="8.25" font-style="italic" font-weight="bold">sight?</text>
        </lyric>
        <lyric default-y="-166" number="4">
          <syllabic>single</syllabic>
          <text>whole!</text>
        </lyric>
        <lyric default-y="-187" number="5">
          <syllabic>single</syllabic>
          <text>me.</text>
        </lyric>
      </note>
      <note default-x="805">
        <chord/>
        <pitch>
          <step>D</step>
          <octave>4</octave>
        </pitch>
        <duration>4</duration>
        <voice>1</voice>
        <type>half</type>
        <stem>up</stem>
      </note>
      <note default-x="69">
        <pitch>
          <step>B</step>
          <alter>-1</alter>
          <octave>3</octave>
        </pitch>
        <duration>2</duration>
        <voice>1</voice>
        <type>quarter</type>
        <stem default-y="-304">up</stem>
        <lyric default-y="-103" number="1">
          <syllabic>single</syllabic>
          <text font-size="4.5">5</text>
          <elision> </elision>
          <syllabic>single</syllabic>
          <text font-size="4.5">LORD,</text>
        </lyric>
      </note>
      <note default-x="69">
        <chord/>
        <pitch>
          <step>D</step>
          <octave>5</octave>
        </pitch>
        <duration>2</duration>
        <voice>1</voice>
        <type>quarter</type>
        <stem>up</stem>
      </note>
      <note default-x="122">
        <pitch>
          <step>B</step>
          <alter>-1</alter>
          <octave>3</octave>
        </pitch>
        <duration>2</duration>
        <voice>1</voice>
        <type>quarter</type>
        <stem default-y="-323">up</stem>
        <lyric default-y="-103" number="1">
          <syllabic>single</syllabic>
          <text>You</text>
        </lyric>
      </note>
      <note default-x="122">
        <chord/>
        <pitch>
          <step>F</step>
          <octave>4</octave>
        </pitch>
        <duration>2</duration>
        <voice>1</voice>
        <type>quarter</type>
        <stem>up</stem>
      </note>
    </measure>
    <!--=======================================================-->
    <measure number="9">
      <note default-x="-678">
        <pitch>
          <step>C</step>
          <octave>4</octave>
        </pitch>
        <duration>2</duration>
        <voice>1</voice>
        <type>quarter</type>
        <stem default-y="-8">up</stem>
        <lyric default-y="-103" number="1">
          <syllabic>single</syllabic>
          <text>are</text>
        </lyric>
      </note>
      <note default-x="-678">
        <chord/>
        <pitch>
          <step>E</step>
          <octave>4</octave>
        </pitch>
        <duration>2</duration>
        <voice>1</voice>
        <type>quarter</type>
        <accidental>natural</accidental>
        <stem>up</stem>
      </note>
      <note default-x="-627">
        <pitch>
          <step>C</step>
          <octave>4</octave>
        </pitch>
        <duration>2</duration>
        <voice>1</voice>
        <type>quarter</type>
        <stem default-y="-3">up</stem>
        <lyric default-y="-103" number="1">
          <syllabic>single</syllabic>
          <text>my</text>
        </lyric>
      </note>
      <note default-x="-627">
        <chord/>
        <pitch>
          <step>F</step>
          <octave>4</octave>
        </pitch>
        <duration>2</duration>
        <voice>1</voice>
        <type>quarter</type>
        <stem>up</stem>
      </note>
      <note default-x="-580">
        <pitch>
          <step>D</step>
          <octave>4</octave>
        </pitch>
        <duration>2</duration>
        <voice>1</voice>
        <type>quarter</type>
        <stem default-y="12">up</stem>
        <lyric default-y="-103" number="1">
          <syllabic>begin</syllabic>
          <text>Ref</text>
        </lyric>
      </note>
      <note default-x="-580">
        <chord/>
        <pitch>
          <step>B</step>
          <alter>-1</alter>
          <octave>4</octave>
        </pitch>
        <duration>2</duration>
        <voice>1</voice>
        <type>quarter</type>
        <stem>up</stem>
      </note>
      <note default-x="-531">
        <pitch>
          <step>C</step>
          <octave>4</octave>
        </pitch>
        <duration>2</duration>
        <voice>1</voice>
        <type>quarter</type>
        <stem default-y="-76">down</stem>
        <lyric default-y="-103" number="1">
          <syllabic>end</syllabic>
          <text>uge</text>
        </lyric>
      </note>
      <backup>
        <duration>2</duration>
      </backup>
      <note default-x="-531">
        <pitch>
          <step>A</step>
          <octave>4</octave>
        </pitch>
        <duration>1</duration>
        <voice>2</voice>
        <type>eighth</type>
        <stem default-y="6.5">up</stem>
        <beam number="1">begin</beam>
      </note>
      <note default-x="-502">
        <pitch>
          <step>G</step>
          <octave>4</octave>
        </pitch>
        <duration>1</duration>
        <voice>2</voice>
        <type>eighth</type>
        <stem default-y="1.5">up</stem>
        <beam number="1">end</beam>
      </note>
    </measure>
    <!--=======================================================-->
    <measure number="10">
      <note>
        <pitch>
          <step>C</step>
          <octave>4</octave>
        </pitch>
        <duration>4</duration>
        <voice>1</voice>
        <type>half</type>
        <stem default-y="7">up</stem>
        <lyric default-y="-103" number="1">
          <syllabic>single</syllabic>
          <text>strong!</text>
        </lyric>
      </note>
      <note>
        <chord/>
        <pitch>
          <step>A</step>
          <octave>4</octave>
        </pitch>
        <duration>4</duration>
        <voice>1</voice>
        <type>half</type>
        <stem>up</stem>
      </note>
      <note>
        <pitch>
          <step>C</step>
          <octave>4</octave>
        </pitch>
        <duration>2</duration>
        <voice>1</voice>
        <type>quarter</type>
        <stem default-y="7">up</stem>
        <lyric default-y="-103" number="1">
          <syllabic>single</syllabic>
          <text font-size="4.5">6</text>
          <elision> </elision>
          <syllabic>single</syllabic>
          <text font-size="4.5">Oh,</text>
        </lyric>
      </note>
      <note>
        <chord/>
        <pitch>
          <step>A</step>
          <octave>4</octave>
        </pitch>
        <duration>2</duration>
        <voice>1</voice>
        <type>quarter</type>
        <stem>up</stem>
      </note>
      <note>
        <pitch>
          <step>C</step>
          <octave>4</octave>
        </pitch>
        <duration>2</duration>
        <voice>1</voice>
        <type>quarter</type>
        <stem default-y="-73">down</stem>
        <lyric default-y="-103" number="1">
          <syllabic>begin</syllabic>
          <text>re</text>
        </lyric>
      </note>
      <backup>
        <duration>2</duration>
      </backup>
      <note>
        <pitch>
          <step>B</step>
          <alter>-1</alter>
          <octave>4</octave>
        </pitch>
        <duration>1</duration>
        <voice>2</voice>
        <type>eighth</type>
        <stem default-y="11.5">up</stem>
        <beam number="1">begin</beam>
      </note>
      <note>
        <pitch>
          <step>C</step>
          <octave>5</octave>
        </pitch>
        <duration>1</duration>
        <voice>2</voice>
        <type>eighth</type>
        <stem default-y="16.5">up</stem>
        <beam number="1">end</beam>
      </note>
    </measure>
    <!--=======================================================-->
    <measure number="11">
      <note>
        <pitch>
          <step>D</step>
          <octave>4</octave>
        </pitch>
        <duration>2</duration>
        <voice>1</voice>
        <type>quarter</type>
        <stem default-y="-3">up</stem>
        <lyric default-y="-103" number="1">
          <syllabic>end</syllabic>
          <text>ceive</text>
        </lyric>
      </note>
      <note>
        <chord/>
        <pitch>
          <step>F</step>
          <alter>1</alter>
          <octave>4</octave>
        </pitch>
        <duration>2</duration>
        <voice>1</voice>
        <type>quarter</type>
        <accidental>sharp</accidental>
        <stem>up</stem>
      </note>
      <note>
        <pitch>
          <step>D</step>
          <octave>4</octave>
        </pitch>
        <duration>2</duration>
        <voice>1</voice>
        <type>quarter</type>
        <stem default-y="16.5">up</stem>
        <lyric default-y="-103" number="1">
          <syllabic>single</syllabic>
          <text>my</text>
        </lyric>
      </note>
      <note>
        <chord/>
        <pitch>
          <step>D</step>
          <octave>5</octave>
        </pitch>
        <duration>2</duration>
        <voice>1</voice>
        <type>quarter</type>
        <stem>up</stem>
      </note>
      <note>
        <pitch>
          <step>D</step>
          <octave>4</octave>
        </pitch>
        <duration>2</duration>
        <voice>1</voice>
        <type>quarter</type>
        <stem default-y="12">up</stem>
        <lyric default-y="-103" number="1">
          <syllabic>begin</syllabic>
          <text>plain</text>
        </lyric>
      </note>
      <note>
        <chord/>
        <pitch>
          <step>B</step>
          <alter>-1</alter>
          <octave>4</octave>
        </pitch>
        <duration>2</duration>
        <voice>1</voice>
        <type>quarter</type>
        <stem>up</stem>
      </note>
      <note>
        <pitch>
          <step>C</step>
          <octave>4</octave>
        </pitch>
        <duration>1</duration>
        <voice>1</voice>
        <type>eighth</type>
        <stem default-y="6.5">up</stem>
        <beam number="1">begin</beam>
        <lyric default-y="-103" number="1">
          <syllabic>end</syllabic>
          <text>tive</text>
        </lyric>
      </note>
      <note>
        <chord/>
        <pitch>
          <step>A</step>
          <octave>4</octave>
        </pitch>
        <duration>1</duration>
        <voice>1</voice>
        <type>eighth</type>
        <stem>up</stem>
      </note>
      <note>
        <pitch>
          <step>B</step>
          <alter>-1</alter>
          <octave>3</octave>
        </pitch>
        <duration>1</duration>
        <voice>1</voice>
        <type>eighth</type>
        <stem default-y="1.5">up</stem>
        <beam number="1">end</beam>
      </note>
      <note>
        <chord/>
        <pitch>
          <step>G</step>
          <octave>4</octave>
        </pitch>
        <duration>1</duration>
        <voice>1</voice>
        <type>eighth</type>
        <stem>up</stem>
      </note>
    </measure>
    <!--=======================================================-->
    <measure number="12">
      <note>
        <pitch>
          <step>B</step>
          <alter>-1</alter>
          <octave>3</octave>
        </pitch>
        <duration>4</duration>
        <voice>1</voice>
        <type>half</type>
        <stem default-y="2">up</stem>
        <lyric default-y="-103" number="1">
          <syllabic>single</syllabic>
          <text>song!</text>
        </lyric>
      </note>
      <note>
        <chord/>
        <pitch>
          <step>G</step>
          <octave>4</octave>
        </pitch>
        <duration>4</duration>
        <voice>1</voice>
        <type>half</type>
        <stem>up</stem>
      </note>
      <barline location="right">
        <bar-style>light-heavy</bar-style>
      </barline>
    </measure>
  </part>
  <!--=========================================================-->
  <part id="P2">
    <measure implicit="yes" number="0" width="194">
      <print>
        <staff-layout number="1">
          <staff-distance>186</staff-distance>
        </staff-layout>
        <measure-numbering>none</measure-numbering>
      </print>
      <attributes>
        <divisions>2</divisions>
        <key>
          <fifths>-2</fifths>
          <mode>major</mode>
        </key>
        <time>
          <beats>4</beats>
          <beat-type>4</beat-type>
        </time>
        <clef>
          <sign>F</sign>
          <line>4</line>
        </clef>
      </attributes>
      <sound tempo="85"/>
      <note default-x="93">
        <pitch>
          <step>G</step>
          <octave>2</octave>
        </pitch>
        <duration>2</duration>
        <voice>1</voice>
        <type>quarter</type>
        <stem default-y="21">up</stem>
      </note>
      <note default-x="93">
        <chord/>
        <pitch>
          <step>G</step>
          <octave>3</octave>
        </pitch>
        <duration>2</duration>
        <voice>1</voice>
        <type>quarter</type>
        <stem>up</stem>
      </note>
      <note default-x="142">
        <pitch>
          <step>A</step>
          <octave>2</octave>
        </pitch>
        <duration>2</duration>
        <voice>1</voice>
        <type>quarter</type>
        <stem default-y="16">up</stem>
      </note>
      <note default-x="142">
        <chord/>
        <pitch>
          <step>F</step>
          <alter>1</alter>
          <octave>3</octave>
        </pitch>
        <duration>2</duration>
        <voice>1</voice>
        <type>quarter</type>
        <accidental>sharp</accidental>
        <stem>up</stem>
      </note>
    </measure>
    <!--=======================================================-->
    <measure number="1" width="222">
      <note default-x="12">
        <pitch>
          <step>B</step>
          <alter>-1</alter>
          <octave>2</octave>
        </pitch>
        <duration>2</duration>
        <voice>1</voice>
        <type>quarter</type>
        <stem default-y="-56">down</stem>
      </note>
      <note default-x="12">
        <chord/>
        <pitch>
          <step>G</step>
          <octave>3</octave>
        </pitch>
        <duration>2</duration>
        <voice>1</voice>
        <type>quarter</type>
        <stem>down</stem>
      </note>
      <note default-x="71">
        <pitch>
          <step>G</step>
          <octave>2</octave>
        </pitch>
        <duration>2</duration>
        <voice>1</voice>
        <type>quarter</type>
        <stem default-y="21">up</stem>
      </note>
      <note default-x="71">
        <chord/>
        <pitch>
          <step>G</step>
          <octave>3</octave>
        </pitch>
        <duration>2</duration>
        <voice>1</voice>
        <type>quarter</type>
        <stem>up</stem>
      </note>
      <note default-x="128">
        <pitch>
          <step>C</step>
          <octave>3</octave>
        </pitch>
        <duration>2</duration>
        <voice>1</voice>
        <type>quarter</type>
        <stem default-y="-51">down</stem>
      </note>
      <note default-x="128">
        <chord/>
        <pitch>
          <step>G</step>
          <octave>3</octave>
        </pitch>
        <duration>2</duration>
        <voice>1</voice>
        <type>quarter</type>
        <stem>down</stem>
      </note>
      <note default-x="166">
        <pitch>
          <step>D</step>
          <octave>3</octave>
        </pitch>
        <duration>1</duration>
        <voice>1</voice>
        <type>eighth</type>
        <stem default-y="-51">down</stem>
        <beam number="1">begin</beam>
      </note>
      <note default-x="166">
        <chord/>
        <pitch>
          <step>F</step>
          <alter>1</alter>
          <octave>3</octave>
        </pitch>
        <duration>1</duration>
        <voice>1</voice>
        <type>eighth</type>
        <accidental>sharp</accidental>
        <stem>down</stem>
      </note>
      <note default-x="196">
        <pitch>
          <step>E</step>
          <alter>-1</alter>
          <octave>3</octave>
        </pitch>
        <duration>1</duration>
        <voice>1</voice>
        <type>eighth</type>
        <stem default-y="-46">down</stem>
        <beam number="1">end</beam>
      </note>
      <note default-x="196">
        <chord/>
        <pitch>
          <step>G</step>
          <octave>3</octave>
        </pitch>
        <duration>1</duration>
        <voice>1</voice>
        <type>eighth</type>
        <stem>down</stem>
      </note>
    </measure>
    <!--=======================================================-->
    <measure number="2" width="162">
      <note default-x="16">
        <pitch>
          <step>D</step>
          <octave>3</octave>
        </pitch>
        <duration>4</duration>
        <voice>1</voice>
        <type>half</type>
        <stem default-y="-51.5">down</stem>
      </note>
      <note default-x="16">
        <chord/>
        <pitch>
          <step>A</step>
          <octave>3</octave>
        </pitch>
        <duration>4</duration>
        <voice>1</voice>
        <type>half</type>
        <stem>down</stem>
      </note>
      <note default-x="69">
        <pitch>
          <step>B</step>
          <alter>-1</alter>
          <octave>2</octave>
        </pitch>
        <duration>1</duration>
        <voice>1</voice>
        <type>eighth</type>
        <stem default-y="-61">down</stem>
        <beam number="1">begin</beam>
      </note>
      <backup>
        <duration>1</duration>
      </backup>
      <note default-x="69">
        <pitch>
          <step>G</step>
          <octave>3</octave>
        </pitch>
        <duration>2</duration>
        <voice>2</voice>
        <type>quarter</type>
        <stem default-y="21">up</stem>
      </note>
      <backup>
        <duration>1</duration>
      </backup>
      <note default-x="95">
        <pitch>
          <step>A</step>
          <octave>2</octave>
        </pitch>
        <duration>1</duration>
        <voice>1</voice>
        <type>eighth</type>
        <stem default-y="-66">down</stem>
        <beam number="1">end</beam>
      </note>
      <note default-x="125">
        <pitch>
          <step>G</step>
          <octave>2</octave>
        </pitch>
        <duration>2</duration>
        <voice>1</voice>
        <type>quarter</type>
        <stem default-y="21">up</stem>
      </note>
      <note default-x="125">
        <chord/>
        <pitch>
          <step>G</step>
          <octave>3</octave>
        </pitch>
        <duration>2</duration>
        <voice>1</voice>
        <type>quarter</type>
        <stem>up</stem>
      </note>
    </measure>
    <!--=======================================================-->
    <measure number="3" width="269">
      <note default-x="21">
        <pitch>
          <step>C</step>
          <octave>3</octave>
        </pitch>
        <duration>2</duration>
        <voice>1</voice>
        <type>quarter</type>
        <stem default-y="-51">down</stem>
      </note>
      <note default-x="21">
        <chord/>
        <pitch>
          <step>G</step>
          <octave>3</octave>
        </pitch>
        <duration>2</duration>
        <voice>1</voice>
        <type>quarter</type>
        <stem>down</stem>
      </note>
      <note default-x="78">
        <pitch>
          <step>D</step>
          <octave>3</octave>
        </pitch>
        <duration>1</duration>
        <voice>1</voice>
        <type>eighth</type>
        <stem default-y="-51">down</stem>
        <beam number="1">begin</beam>
      </note>
      <backup>
        <duration>1</duration>
      </backup>
      <note default-x="78">
        <pitch>
          <step>F</step>
          <octave>3</octave>
        </pitch>
        <duration>2</duration>
        <voice>2</voice>
        <type>quarter</type>
        <stem default-y="16">up</stem>
      </note>
      <backup>
        <duration>1</duration>
      </backup>
      <note default-x="103">
        <pitch>
          <step>E</step>
          <alter>-1</alter>
          <octave>3</octave>
        </pitch>
        <duration>1</duration>
        <voice>1</voice>
        <type>eighth</type>
        <stem default-y="-46">down</stem>
        <beam number="1">end</beam>
      </note>
      <note default-x="128">
        <pitch>
          <step>F</step>
          <octave>3</octave>
        </pitch>
        <duration>2</duration>
        <voice>1</voice>
        <type>quarter</type>
        <stem>double</stem>
      </note>
      <note default-x="175">
        <pitch>
          <step>F</step>
          <octave>2</octave>
        </pitch>
        <duration>2</duration>
        <voice>1</voice>
        <type>quarter</type>
        <stem default-y="16">up</stem>
      </note>
      <note default-x="175">
        <chord/>
        <pitch>
          <step>F</step>
          <octave>3</octave>
        </pitch>
        <duration>2</duration>
        <voice>1</voice>
        <type>quarter</type>
        <stem>up</stem>
      </note>
    </measure>
    <!--=======================================================-->
    <measure number="4" width="175">
      <print new-system="yes">
        <staff-layout number="1">
          <staff-distance>186</staff-distance>
        </staff-layout>
      </print>
      <note default-x="808">
        <pitch>
          <step>B</step>
          <alter>-1</alter>
          <octave>2</octave>
        </pitch>
        <duration>4</duration>
        <voice>1</voice>
        <type>half</type>
        <stem default-y="264.5">down</stem>
      </note>
      <note default-x="808">
        <chord/>
        <pitch>
          <step>F</step>
          <octave>3</octave>
        </pitch>
        <duration>4</duration>
        <voice>1</voice>
        <type>half</type>
        <stem>down</stem>
      </note>
      <note default-x="80">
        <pitch>
          <step>G</step>
          <octave>2</octave>
        </pitch>
        <duration>2</duration>
        <voice>1</voice>
        <type>quarter</type>
        <stem default-y="21">up</stem>
      </note>
      <note default-x="80">
        <chord/>
        <pitch>
          <step>G</step>
          <octave>3</octave>
        </pitch>
        <duration>2</duration>
        <voice>1</voice>
        <type>quarter</type>
        <stem>up</stem>
      </note>
      <note default-x="123">
        <pitch>
          <step>A</step>
          <octave>2</octave>
        </pitch>
        <duration>2</duration>
        <voice>1</voice>
        <type>quarter</type>
        <stem default-y="16">up</stem>
      </note>
      <note default-x="123">
        <chord/>
        <pitch>
          <step>F</step>
          <alter>1</alter>
          <octave>3</octave>
        </pitch>
        <duration>2</duration>
        <voice>1</voice>
        <type>quarter</type>
        <accidental>sharp</accidental>
        <stem>up</stem>
      </note>
    </measure>
    <!--=======================================================-->
    <measure number="5" width="239">
      <note default-x="20">
        <pitch>
          <step>B</step>
          <alter>-1</alter>
          <octave>2</octave>
        </pitch>
        <duration>2</duration>
        <voice>1</voice>
        <type>quarter</type>
        <stem default-y="-56">down</stem>
      </note>
      <note default-x="20">
        <chord/>
        <pitch>
          <step>G</step>
          <octave>3</octave>
        </pitch>
        <duration>2</duration>
        <voice>1</voice>
        <type>quarter</type>
        <stem>down</stem>
      </note>
      <note default-x="78">
        <pitch>
          <step>G</step>
          <octave>2</octave>
        </pitch>
        <duration>2</duration>
        <voice>1</voice>
        <type>quarter</type>
        <stem default-y="21">up</stem>
      </note>
      <note default-x="78">
        <chord/>
        <pitch>
          <step>G</step>
          <octave>3</octave>
        </pitch>
        <duration>2</duration>
        <voice>1</voice>
        <type>quarter</type>
        <stem>up</stem>
      </note>
      <note default-x="138">
        <pitch>
          <step>C</step>
          <octave>3</octave>
        </pitch>
        <duration>2</duration>
        <voice>1</voice>
        <type>quarter</type>
        <stem default-y="-51">down</stem>
      </note>
      <note default-x="138">
        <chord/>
        <pitch>
          <step>G</step>
          <octave>3</octave>
        </pitch>
        <duration>2</duration>
        <voice>1</voice>
        <type>quarter</type>
        <stem>down</stem>
      </note>
      <note default-x="182">
        <pitch>
          <step>D</step>
          <octave>3</octave>
        </pitch>
        <duration>1</duration>
        <voice>1</voice>
        <type>eighth</type>
        <stem default-y="-51">down</stem>
        <beam number="1">begin</beam>
      </note>
      <note default-x="182">
        <chord/>
        <pitch>
          <step>F</step>
          <alter>1</alter>
          <octave>3</octave>
        </pitch>
        <duration>1</duration>
        <voice>1</voice>
        <type>eighth</type>
        <accidental>sharp</accidental>
        <stem>down</stem>
      </note>
      <note default-x="213">
        <pitch>
          <step>E</step>
          <alter>-1</alter>
          <octave>3</octave>
        </pitch>
        <duration>1</duration>
        <voice>1</voice>
        <type>eighth</type>
        <stem default-y="-46">down</stem>
        <beam number="1">end</beam>
      </note>
      <note default-x="213">
        <chord/>
        <pitch>
          <step>G</step>
          <octave>3</octave>
        </pitch>
        <duration>1</duration>
        <voice>1</voice>
        <type>eighth</type>
        <stem>down</stem>
      </note>
    </measure>
    <!--=======================================================-->
    <measure number="6" width="158">
      <note default-x="18">
        <pitch>
          <step>D</step>
          <octave>3</octave>
        </pitch>
        <duration>4</duration>
        <voice>1</voice>
        <type>half</type>
        <stem default-y="-51.5">down</stem>
      </note>
      <note default-x="18">
        <chord/>
        <pitch>
          <step>A</step>
          <octave>3</octave>
        </pitch>
        <duration>4</duration>
        <voice>1</voice>
        <type>half</type>
        <stem>down</stem>
      </note>
      <note default-x="66">
        <pitch>
          <step>B</step>
          <alter>-1</alter>
          <octave>2</octave>
        </pitch>
        <duration>1</duration>
        <voice>1</voice>
        <type>eighth</type>
        <stem default-y="-61">down</stem>
        <beam number="1">begin</beam>
      </note>
      <backup>
        <duration>1</duration>
      </backup>
      <note default-x="66">
        <pitch>
          <step>G</step>
          <octave>3</octave>
        </pitch>
        <duration>2</duration>
        <voice>2</voice>
        <type>quarter</type>
        <stem default-y="21">up</stem>
      </note>
      <backup>
        <duration>1</duration>
      </backup>
      <note default-x="94">
        <pitch>
          <step>A</step>
          <octave>2</octave>
        </pitch>
        <duration>1</duration>
        <voice>1</voice>
        <type>eighth</type>
        <stem default-y="-66">down</stem>
        <beam number="1">end</beam>
      </note>
      <note default-x="123">
        <pitch>
          <step>G</step>
          <octave>2</octave>
        </pitch>
        <duration>2</duration>
        <voice>1</voice>
        <type>quarter</type>
        <stem default-y="21">up</stem>
      </note>
      <note default-x="123">
        <chord/>
        <pitch>
          <step>G</step>
          <octave>3</octave>
        </pitch>
        <duration>2</duration>
        <voice>1</voice>
        <type>quarter</type>
        <stem>up</stem>
      </note>
    </measure>
    <!--=======================================================-->
    <measure number="7" width="276">
      <note default-x="18">
        <pitch>
          <step>C</step>
          <octave>3</octave>
        </pitch>
        <duration>2</duration>
        <voice>1</voice>
        <type>quarter</type>
        <stem default-y="-51">down</stem>
      </note>
      <note default-x="18">
        <chord/>
        <pitch>
          <step>G</step>
          <octave>3</octave>
        </pitch>
        <duration>2</duration>
        <voice>1</voice>
        <type>quarter</type>
        <stem>down</stem>
      </note>
      <note default-x="71">
        <pitch>
          <step>D</step>
          <octave>3</octave>
        </pitch>
        <duration>1</duration>
        <voice>1</voice>
        <type>eighth</type>
        <stem default-y="-51">down</stem>
        <beam number="1">begin</beam>
      </note>
      <backup>
        <duration>1</duration>
      </backup>
      <note default-x="71">
        <pitch>
          <step>F</step>
          <octave>3</octave>
        </pitch>
        <duration>2</duration>
        <voice>2</voice>
        <type>quarter</type>
        <stem default-y="16">up</stem>
      </note>
      <backup>
        <duration>1</duration>
      </backup>
      <note default-x="97">
        <pitch>
          <step>E</step>
          <alter>-1</alter>
          <octave>3</octave>
        </pitch>
        <duration>1</duration>
        <voice>1</voice>
        <type>eighth</type>
        <stem default-y="-46">down</stem>
        <beam number="1">end</beam>
      </note>
      <note default-x="123">
        <pitch>
          <step>F</step>
          <octave>3</octave>
        </pitch>
        <duration>2</duration>
        <voice>1</voice>
        <type>quarter</type>
        <stem>double</stem>
      </note>
      <note default-x="177">
        <pitch>
          <step>F</step>
          <octave>2</octave>
        </pitch>
        <duration>2</duration>
        <voice>1</voice>
        <type>quarter</type>
        <stem default-y="16">up</stem>
      </note>
      <note default-x="177">
        <chord/>
        <pitch>
          <step>F</step>
          <octave>3</octave>
        </pitch>
        <duration>2</duration>
        <voice>1</voice>
        <type>quarter</type>
        <stem>up</stem>
      </note>
    </measure>
    <!--=======================================================-->
    <measure number="8" width="848">
      <print new-system="yes">
        <staff-layout number="1">
          <staff-distance>108</staff-distance>
        </staff-layout>
      </print>
      <note default-x="805">
        <pitch>
          <step>B</step>
          <alter>-1</alter>
          <octave>2</octave>
        </pitch>
        <duration>4</duration>
        <voice>1</voice>
        <type>half</type>
        <stem default-y="-56">down</stem>
      </note>
      <note default-x="805">
        <chord/>
        <pitch>
          <step>F</step>
          <octave>3</octave>
        </pitch>
        <duration>4</duration>
        <voice>1</voice>
        <type>half</type>
        <stem>down</stem>
      </note>
      <note default-x="69">
        <pitch>
          <step>B</step>
          <alter>-1</alter>
          <octave>2</octave>
        </pitch>
        <duration>2</duration>
        <voice>1</voice>
        <type>quarter</type>
        <stem default-y="-298">down</stem>
      </note>
      <note default-x="69">
        <chord/>
        <pitch>
          <step>F</step>
          <octave>3</octave>
        </pitch>
        <duration>2</duration>
        <voice>1</voice>
        <type>quarter</type>
        <stem>down</stem>
      </note>
      <note default-x="122">
        <pitch>
          <step>D</step>
          <octave>3</octave>
        </pitch>
        <duration>2</duration>
        <voice>1</voice>
        <type>quarter</type>
        <stem default-y="-294">down</stem>
      </note>
      <note default-x="122">
        <chord/>
        <pitch>
          <step>F</step>
          <octave>3</octave>
        </pitch>
        <duration>2</duration>
        <voice>1</voice>
        <type>quarter</type>
        <stem>down</stem>
      </note>
    </measure>
    <!--=======================================================-->
    <measure number="9">
      <note default-x="-678">
        <pitch>
          <step>C</step>
          <octave>3</octave>
        </pitch>
        <duration>1</duration>
        <voice>1</voice>
        <type>eighth</type>
        <stem default-y="-56">down</stem>
        <beam number="1">begin</beam>
      </note>
      <backup>
        <duration>1</duration>
      </backup>
      <note default-x="-678">
        <pitch>
          <step>G</step>
          <octave>3</octave>
        </pitch>
        <duration>2</duration>
        <voice>2</voice>
        <type>quarter</type>
        <stem default-y="22">up</stem>
      </note>
      <backup>
        <duration>1</duration>
      </backup>
      <note default-x="-653">
        <pitch>
          <step>B</step>
          <alter>-1</alter>
          <octave>2</octave>
        </pitch>
        <duration>1</duration>
        <voice>1</voice>
        <type>eighth</type>
        <stem default-y="-61">down</stem>
        <beam number="1">end</beam>
      </note>
      <note default-x="-627">
        <pitch>
          <step>A</step>
          <octave>2</octave>
        </pitch>
        <duration>2</duration>
        <voice>1</voice>
        <type>quarter</type>
        <stem default-y="17">up</stem>
      </note>
      <note default-x="-627">
        <chord/>
        <pitch>
          <step>F</step>
          <octave>3</octave>
        </pitch>
        <duration>2</duration>
        <voice>1</voice>
        <type>quarter</type>
        <stem>up</stem>
      </note>
      <note default-x="-580">
        <pitch>
          <step>G</step>
          <octave>2</octave>
        </pitch>
        <duration>2</duration>
        <voice>1</voice>
        <type>quarter</type>
        <stem default-y="17">up</stem>
      </note>
      <note default-x="-580">
        <chord/>
        <pitch>
          <step>F</step>
          <octave>3</octave>
        </pitch>
        <duration>2</duration>
        <voice>1</voice>
        <type>quarter</type>
        <stem>up</stem>
      </note>
      <note default-x="-531">
        <pitch>
          <step>C</step>
          <octave>3</octave>
        </pitch>
        <duration>2</duration>
        <voice>1</voice>
        <type>quarter</type>
        <stem default-y="-51">down</stem>
      </note>
      <note default-x="-531">
        <chord/>
        <pitch>
          <step>E</step>
          <octave>3</octave>
        </pitch>
        <duration>2</duration>
        <voice>1</voice>
        <type>quarter</type>
        <accidental>natural</accidental>
        <stem>down</stem>
      </note>
    </measure>
    <!--=======================================================-->
    <measure number="10">
      <note>
        <pitch>
          <step>F</step>
          <octave>2</octave>
        </pitch>
        <duration>4</duration>
        <voice>1</voice>
        <type>half</type>
        <stem default-y="17">up</stem>
      </note>
      <note>
        <chord/>
        <pitch>
          <step>F</step>
          <octave>3</octave>
        </pitch>
        <duration>4</duration>
        <voice>1</voice>
        <type>half</type>
        <stem>up</stem>
      </note>
      <note>
        <pitch>
          <step>F</step>
          <octave>3</octave>
        </pitch>
        <duration>2</duration>
        <voice>1</voice>
        <type>quarter</type>
        <stem>double</stem>
      </note>
      <note>
        <pitch>
          <step>E</step>
          <alter>-1</alter>
          <octave>3</octave>
        </pitch>
        <duration>2</duration>
        <voice>1</voice>
        <type>quarter</type>
        <stem default-y="-47">down</stem>
      </note>
      <note>
        <chord/>
        <pitch>
          <step>G</step>
          <octave>3</octave>
        </pitch>
        <duration>2</duration>
        <voice>1</voice>
        <type>quarter</type>
        <stem>down</stem>
      </note>
    </measure>
    <!--=======================================================-->
    <measure number="11">
      <note>
        <pitch>
          <step>D</step>
          <octave>3</octave>
        </pitch>
        <duration>1</duration>
        <voice>1</voice>
        <type>eighth</type>
        <stem default-y="-51">down</stem>
        <beam number="1">begin</beam>
      </note>
      <backup>
        <duration>1</duration>
      </backup>
      <note>
        <pitch>
          <step>A</step>
          <octave>3</octave>
        </pitch>
        <duration>2</duration>
        <voice>2</voice>
        <type>quarter</type>
        <stem default-y="27">up</stem>
      </note>
      <backup>
        <duration>1</duration>
      </backup>
      <note>
        <pitch>
          <step>C</step>
          <octave>3</octave>
        </pitch>
        <duration>1</duration>
        <voice>1</voice>
        <type>eighth</type>
        <stem default-y="-56">down</stem>
        <beam number="1">end</beam>
      </note>
      <note>
        <pitch>
          <step>B</step>
          <alter>-1</alter>
          <octave>2</octave>
        </pitch>
        <duration>1</duration>
        <voice>1</voice>
        <type>eighth</type>
        <stem default-y="-61">down</stem>
        <beam number="1">begin</beam>
      </note>
      <backup>
        <duration>1</duration>
      </backup>
      <note>
        <pitch>
          <step>G</step>
          <octave>3</octave>
        </pitch>
        <duration>2</duration>
        <voice>2</voice>
        <type>quarter</type>
        <stem default-y="22">up</stem>
      </note>
      <backup>
        <duration>1</duration>
      </backup>
      <note>
        <pitch>
          <step>C</step>
          <octave>3</octave>
        </pitch>
        <duration>1</duration>
        <voice>1</voice>
        <type>eighth</type>
        <stem default-y="-56">down</stem>
        <beam number="1">end</beam>
      </note>
      <note>
        <pitch>
          <step>D</step>
          <octave>3</octave>
        </pitch>
        <duration>2</duration>
        <voice>1</voice>
        <type>quarter</type>
        <stem default-y="-52">down</stem>
      </note>
      <note>
        <chord/>
        <pitch>
          <step>G</step>
          <octave>3</octave>
        </pitch>
        <duration>2</duration>
        <voice>1</voice>
        <type>quarter</type>
        <stem>down</stem>
      </note>
      <note>
        <pitch>
          <step>D</step>
          <octave>3</octave>
        </pitch>
        <duration>2</duration>
        <voice>1</voice>
        <type>quarter</type>
        <stem default-y="-52">down</stem>
      </note>
      <note>
        <chord/>
        <pitch>
          <step>F</step>
          <alter>1</alter>
          <octave>3</octave>
        </pitch>
        <duration>2</duration>
        <voice>1</voice>
        <type>quarter</type>
        <accidental>sharp</accidental>
        <stem>down</stem>
      </note>
    </measure>
    <!--=======================================================-->
    <measure number="12">
      <note>
        <pitch>
          <step>G</step>
          <octave>2</octave>
        </pitch>
        <duration>4</duration>
        <voice>1</voice>
        <type>half</type>
        <stem default-y="22">up</stem>
      </note>
      <note>
        <chord/>
        <pitch>
          <step>G</step>
          <octave>3</octave>
        </pitch>
        <duration>4</duration>
        <voice>1</voice>
        <type>half</type>
        <stem>up</stem>
      </note>
      <barline location="right">
        <bar-style>light-heavy</bar-style>
      </barline>
    </measure>
  </part>
  <!--=========================================================-->
</score-partwise>
