<?xml version="1.0" encoding="UTF-8" standalone="no"?>
<!DOCTYPE score-partwise PUBLIC "-//Recordare//DTD MusicXML 3.1 Partwise//EN" "http://www.musicxml.org/dtds/partwise.dtd">
<score-partwise version="3.1">
  <identification>
    <encoding>
      <software>Finale v25 for Windows</software>
      <encoding-date>2020-07-07</encoding-date>
      <supports attribute="new-system" element="print" type="yes" value="yes"/>
      <supports attribute="new-page" element="print" type="yes" value="yes"/>
      <supports element="accidental" type="yes"/>
      <supports element="beam" type="yes"/>
      <supports element="stem" type="yes"/>
    </encoding>
  </identification>
  <defaults>
    <scaling>
      <millimeters>6.35</millimeters>
      <tenths>40</tenths>
    </scaling>
    <page-layout>
      <page-height>1380</page-height>
      <page-width>852</page-width>
      <page-margins type="both">
        <left-margin>0</left-margin>
        <right-margin>0</right-margin>
        <top-margin>0</top-margin>
        <bottom-margin>83</bottom-margin>
      </page-margins>
    </page-layout>
    <system-layout>
      <system-margins>
        <left-margin>5</left-margin>
        <right-margin>0</right-margin>
      </system-margins>
      <system-distance>162</system-distance>
      <top-system-distance>162</top-system-distance>
    </system-layout>
    <staff-layout>
      <staff-distance>435</staff-distance>
    </staff-layout>
    <appearance>
      <line-width type="stem">0.8333</line-width>
      <line-width type="beam">4.1667</line-width>
      <line-width type="staff">0.7096</line-width>
      <line-width type="light barline">0.8333</line-width>
      <line-width type="heavy barline">5</line-width>
      <line-width type="leger">0.7292</line-width>
      <line-width type="ending">0.7682</line-width>
      <line-width type="wedge">0.8333</line-width>
      <line-width type="enclosure">0.8333</line-width>
      <line-width type="tuplet bracket">0.7292</line-width>
      <note-size type="grace">55</note-size>
      <note-size type="cue">55</note-size>
      <distance type="hyphen">83</distance>
      <distance type="beam">8</distance>
    </appearance>
    <music-font font-family="Petrucci2" font-size="18"/>
    <word-font font-family="Palatino Linotype" font-size="9"/>
    <lyric-font font-family="Palatino Linotype" font-size="9"/>
  </defaults>
  <credit page="1">
    <credit-words default-y="83" font-size="7.5" valign="bottom" xml:space="preserve">Music: Daniel Read (1757–1836)
Text: </credit-words>
    <credit-words font-size="7.5" font-style="italic">The Book of Psalms for Singing</credit-words>
    <credit-words font-size="7.5" font-style="normal">, 1973 </credit-words>
    <credit-words font-size="6">© </credit-words>
  </credit>
  <credit page="1">
    <credit-words default-x="851" default-y="83" font-size="7.5" justify="right" valign="bottom" xml:space="preserve">RUSSIA
8 8. 8 8.</credit-words>
  </credit>
  <credit page="1">
    <credit-words default-x="54" default-y="176" font-size="8.25" valign="bottom" xml:space="preserve">3. </credit-words>
    <credit-words font-size="4.5" xml:space="preserve">173 </credit-words>
    <credit-words font-size="8.25" xml:space="preserve">Be ready with Thy hand to help,
    Because Thy precepts are my choice.
</credit-words>
    <credit-words font-size="4.5" xml:space="preserve">174 </credit-words>
    <credit-words font-size="8.25">I’ve longed for Thy salvation, L</credit-words>
    <credit-words font-size="6">ORD</credit-words>
    <credit-words font-size="8.25" xml:space="preserve">,
    And in Thy holy law rejoice.</credit-words>
  </credit>
  <credit page="1">
    <credit-words default-x="776" default-y="176" font-size="8.25" halign="right" valign="bottom" xml:space="preserve">4. </credit-words>
    <credit-words font-size="4.5" xml:space="preserve">175 </credit-words>
    <credit-words font-size="8.25" xml:space="preserve">Oh, let Thine ordinances help;
    My soul shall live and praise Thee yet.
</credit-words>
    <credit-words font-size="4.5" xml:space="preserve">176 </credit-words>
    <credit-words font-size="8.25" xml:space="preserve">A straying sheep, Thy servant, seek,
    For Thy commands I ne’er forget.</credit-words>
  </credit>
  <part-list>
    <part-group number="1" type="start">
      <group-symbol default-x="-2">line</group-symbol>
      <group-barline>no</group-barline>
    </part-group>
    <score-part id="P1">
      <part-name print-object="no">MusicXML Part</part-name>
      <score-instrument id="P1-I2">
        <instrument-name>Instr. 1</instrument-name>
      </score-instrument>
      <score-instrument id="P1-I1">
        <instrument-name>Instr. 2</instrument-name>
      </score-instrument>
      <midi-instrument id="P1-I2">
        <midi-channel>1</midi-channel>
        <midi-program>53</midi-program>
        <volume>80</volume>
        <pan>0</pan>
      </midi-instrument>
      <midi-instrument id="P1-I1">
        <midi-channel>2</midi-channel>
        <midi-program>53</midi-program>
        <volume>80</volume>
        <pan>0</pan>
      </midi-instrument>
    </score-part>
    <score-part id="P2">
      <part-name print-object="no">MusicXML Part</part-name>
      <score-instrument id="P2-I1">
        <instrument-name>Instr. 2</instrument-name>
      </score-instrument>
      <midi-instrument id="P2-I1">
        <midi-channel>2</midi-channel>
        <midi-program>53</midi-program>
        <volume>80</volume>
        <pan>0</pan>
      </midi-instrument>
    </score-part>
    <part-group number="1" type="stop"/>
  </part-list>
  <!--=========================================================-->
  <part id="P1">
    <measure number="1" width="221">
      <print>
        <system-layout>
          <top-system-distance>92</top-system-distance>
        </system-layout>
        <measure-numbering>system</measure-numbering>
      </print>
      <attributes>
        <divisions>2</divisions>
        <key>
          <fifths>-2</fifths>
          <mode>major</mode>
        </key>
        <time>
          <beats>2</beats>
          <beat-type>2</beat-type>
        </time>
        <instruments>2</instruments>
        <clef>
          <sign>G</sign>
          <line>2</line>
        </clef>
      </attributes>
      <sound tempo="100"/>
      <note default-x="94">
        <pitch>
          <step>D</step>
          <octave>4</octave>
        </pitch>
        <duration>4</duration>
        <instrument id="P1-I2"/>
        <voice>1</voice>
        <type>half</type>
        <stem default-y="2">up</stem>
        <lyric default-y="-85" number="1" relative-x="-12">
          <syllabic>single</syllabic>
          <text>1.</text>
          <elision> </elision>
          <syllabic>single</syllabic>
          <text>169</text>
          <elision> </elision>
          <syllabic>begin</syllabic>
          <text>Be</text>
        </lyric>
        <lyric default-y="-105" number="2" relative-x="-12">
          <syllabic>single</syllabic>
          <text>2.</text>
          <elision> </elision>
          <syllabic>single</syllabic>
          <text>171</text>
          <elision> </elision>
          <syllabic>single</syllabic>
          <text>Since</text>
        </lyric>
      </note>
      <note default-x="94">
        <chord/>
        <pitch>
          <step>G</step>
          <octave>4</octave>
        </pitch>
        <duration>4</duration>
        <instrument id="P1-I2"/>
        <voice>1</voice>
        <type>half</type>
        <stem>up</stem>
      </note>
      <note default-x="147">
        <pitch>
          <step>D</step>
          <octave>4</octave>
        </pitch>
        <duration>2</duration>
        <instrument id="P1-I2"/>
        <voice>1</voice>
        <type>quarter</type>
        <stem default-y="2">up</stem>
        <lyric default-y="-85" number="1">
          <syllabic>end</syllabic>
          <text>fore</text>
        </lyric>
        <lyric default-y="-105" number="2" relative-x="7">
          <syllabic>single</syllabic>
          <text>Thou</text>
        </lyric>
      </note>
      <note default-x="147">
        <chord/>
        <pitch>
          <step>G</step>
          <octave>4</octave>
        </pitch>
        <duration>2</duration>
        <instrument id="P1-I2"/>
        <voice>1</voice>
        <type>quarter</type>
        <stem>up</stem>
      </note>
      <note default-x="188">
        <pitch>
          <step>D</step>
          <octave>4</octave>
        </pitch>
        <duration>2</duration>
        <instrument id="P1-I2"/>
        <voice>1</voice>
        <type>quarter</type>
        <stem default-y="7">up</stem>
        <lyric default-y="-85" number="1" relative-x="3">
          <syllabic>single</syllabic>
          <text>Thee</text>
        </lyric>
        <lyric default-y="-105" number="2" relative-x="11">
          <syllabic>single</syllabic>
          <text>Thy</text>
        </lyric>
      </note>
      <note default-x="188">
        <chord/>
        <pitch>
          <step>A</step>
          <octave>4</octave>
        </pitch>
        <duration>2</duration>
        <instrument id="P1-I2"/>
        <voice>1</voice>
        <type>quarter</type>
        <stem>up</stem>
      </note>
    </measure>
    <!--=======================================================-->
    <measure number="2" width="187">
      <note default-x="14">
        <pitch>
          <step>D</step>
          <octave>4</octave>
        </pitch>
        <duration>2</duration>
        <instrument id="P1-I2"/>
        <voice>1</voice>
        <type>quarter</type>
        <stem default-y="12">up</stem>
        <lyric default-y="-85" number="1">
          <syllabic>single</syllabic>
          <text>let</text>
        </lyric>
        <lyric default-y="-105" number="2" relative-x="3">
          <syllabic>begin</syllabic>
          <text>stat</text>
        </lyric>
      </note>
      <note default-x="14">
        <chord/>
        <pitch>
          <step>B</step>
          <alter>-1</alter>
          <octave>4</octave>
        </pitch>
        <duration>2</duration>
        <instrument id="P1-I2"/>
        <voice>1</voice>
        <type>quarter</type>
        <stem>up</stem>
      </note>
      <note default-x="55">
        <pitch>
          <step>D</step>
          <octave>4</octave>
        </pitch>
        <duration>2</duration>
        <instrument id="P1-I2"/>
        <voice>1</voice>
        <type>quarter</type>
        <stem default-y="7">up</stem>
        <lyric default-y="-85" number="1">
          <syllabic>single</syllabic>
          <text>my</text>
        </lyric>
        <lyric default-y="-105" number="2" relative-x="3">
          <syllabic>end</syllabic>
          <text>utes</text>
        </lyric>
      </note>
      <note default-x="55">
        <chord/>
        <pitch>
          <step>A</step>
          <octave>4</octave>
        </pitch>
        <duration>2</duration>
        <instrument id="P1-I2"/>
        <voice>1</voice>
        <type>quarter</type>
        <stem>up</stem>
      </note>
      <note default-x="100">
        <pitch>
          <step>E</step>
          <alter>-1</alter>
          <octave>4</octave>
        </pitch>
        <duration>2</duration>
        <instrument id="P1-I2"/>
        <voice>1</voice>
        <type>quarter</type>
        <stem default-y="2">up</stem>
        <lyric default-y="-85" number="1">
          <syllabic>single</syllabic>
          <text>cry</text>
        </lyric>
        <lyric default-y="-105" number="2" relative-x="6">
          <syllabic>begin</syllabic>
          <text>teach</text>
        </lyric>
      </note>
      <note default-x="100">
        <chord/>
        <pitch>
          <step>G</step>
          <octave>4</octave>
        </pitch>
        <duration>2</duration>
        <instrument id="P1-I2"/>
        <voice>1</voice>
        <type>quarter</type>
        <stem>up</stem>
      </note>
      <note default-x="144">
        <pitch>
          <step>D</step>
          <octave>4</octave>
        </pitch>
        <duration>2</duration>
        <instrument id="P1-I2"/>
        <voice>1</voice>
        <type>quarter</type>
        <stem default-y="2">up</stem>
        <lyric default-y="-85" number="1">
          <syllabic>single</syllabic>
          <text>come</text>
        </lyric>
        <lyric default-y="-105" number="2" relative-x="8">
          <syllabic>end</syllabic>
          <text>est</text>
        </lyric>
      </note>
      <note default-x="144">
        <chord/>
        <pitch>
          <step>G</step>
          <octave>4</octave>
        </pitch>
        <duration>2</duration>
        <instrument id="P1-I2"/>
        <voice>1</voice>
        <type>quarter</type>
        <stem>up</stem>
      </note>
    </measure>
    <!--=======================================================-->
    <measure number="3" width="95">
      <note default-x="17">
        <pitch>
          <step>D</step>
          <octave>4</octave>
        </pitch>
        <duration>4</duration>
        <instrument id="P1-I2"/>
        <voice>1</voice>
        <type>half</type>
        <stem default-y="-3">up</stem>
        <lyric default-y="-85" number="1">
          <syllabic>single</syllabic>
          <text>near,</text>
        </lyric>
        <lyric default-y="-105" number="2">
          <syllabic>single</syllabic>
          <text>me,</text>
        </lyric>
      </note>
      <note default-x="17">
        <chord/>
        <pitch>
          <step>F</step>
          <alter>1</alter>
          <octave>4</octave>
        </pitch>
        <duration>4</duration>
        <instrument id="P1-I2"/>
        <voice>1</voice>
        <type>half</type>
        <accidental>sharp</accidental>
        <stem>up</stem>
      </note>
      <note default-x="66">
        <pitch>
          <step>D</step>
          <octave>4</octave>
        </pitch>
        <duration>4</duration>
        <instrument id="P1-I2"/>
        <voice>1</voice>
        <type>half</type>
        <stem default-y="-3">up</stem>
        <lyric default-y="-85" number="1">
          <syllabic>single</syllabic>
          <text>O</text>
        </lyric>
        <lyric default-y="-105" number="2">
          <syllabic>single</syllabic>
          <text>Oh,</text>
        </lyric>
      </note>
      <note default-x="66">
        <chord/>
        <pitch>
          <step>F</step>
          <alter>1</alter>
          <octave>4</octave>
        </pitch>
        <duration>4</duration>
        <instrument id="P1-I2"/>
        <voice>1</voice>
        <type>half</type>
        <stem>up</stem>
      </note>
    </measure>
    <!--=======================================================-->
    <measure number="4" width="190">
      <note default-x="19">
        <pitch>
          <step>F</step>
          <octave>4</octave>
        </pitch>
        <duration>2</duration>
        <instrument id="P1-I2"/>
        <voice>1</voice>
        <type>quarter</type>
        <accidental>natural</accidental>
        <stem>double</stem>
        <lyric default-y="-85" number="1">
          <syllabic>single</syllabic>
          <text>LORD;</text>
        </lyric>
        <lyric default-y="-105" number="2">
          <syllabic>single</syllabic>
          <text>let</text>
        </lyric>
      </note>
      <note default-x="62">
        <pitch>
          <step>F</step>
          <octave>4</octave>
        </pitch>
        <duration>2</duration>
        <instrument id="P1-I2"/>
        <voice>1</voice>
        <type>quarter</type>
        <stem default-y="12">up</stem>
        <lyric default-y="-85" number="1" relative-x="7">
          <syllabic>single</syllabic>
          <text>true</text>
        </lyric>
        <lyric default-y="-105" number="2">
          <syllabic>single</syllabic>
          <text>my</text>
        </lyric>
      </note>
      <note default-x="62">
        <chord/>
        <pitch>
          <step>B</step>
          <alter>-1</alter>
          <octave>4</octave>
        </pitch>
        <duration>2</duration>
        <instrument id="P1-I2"/>
        <voice>1</voice>
        <type>quarter</type>
        <stem>up</stem>
      </note>
      <note default-x="109">
        <pitch>
          <step>F</step>
          <octave>4</octave>
        </pitch>
        <duration>2</duration>
        <instrument id="P1-I2"/>
        <voice>1</voice>
        <type>quarter</type>
        <stem default-y="7">up</stem>
        <lyric default-y="-85" number="1">
          <syllabic>single</syllabic>
          <text>to</text>
        </lyric>
        <lyric default-y="-105" number="2">
          <syllabic>single</syllabic>
          <text>lips</text>
        </lyric>
      </note>
      <note default-x="109">
        <chord/>
        <pitch>
          <step>A</step>
          <octave>4</octave>
        </pitch>
        <duration>2</duration>
        <instrument id="P1-I2"/>
        <voice>1</voice>
        <type>quarter</type>
        <stem>up</stem>
      </note>
      <note default-x="154">
        <pitch>
          <step>E</step>
          <alter>-1</alter>
          <octave>4</octave>
        </pitch>
        <duration>2</duration>
        <instrument id="P1-I2"/>
        <voice>1</voice>
        <type>quarter</type>
        <stem default-y="2">up</stem>
        <lyric default-y="-85" number="1">
          <syllabic>single</syllabic>
          <text>Thy</text>
        </lyric>
        <lyric default-y="-105" number="2">
          <syllabic>single</syllabic>
          <text>Thy</text>
        </lyric>
      </note>
      <note default-x="154">
        <chord/>
        <pitch>
          <step>G</step>
          <octave>4</octave>
        </pitch>
        <duration>2</duration>
        <instrument id="P1-I2"/>
        <voice>1</voice>
        <type>quarter</type>
        <stem>up</stem>
      </note>
    </measure>
    <!--=======================================================-->
    <measure number="5" width="155">
      <note default-x="19">
        <pitch>
          <step>D</step>
          <octave>4</octave>
        </pitch>
        <duration>6</duration>
        <instrument id="P1-I2"/>
        <voice>1</voice>
        <type>half</type>
        <dot/>
        <stem default-y="-3">up</stem>
        <lyric default-y="-85" number="1">
          <syllabic>single</syllabic>
          <text>Word,</text>
        </lyric>
        <lyric default-y="-105" number="2">
          <syllabic>single</syllabic>
          <text>praise</text>
        </lyric>
      </note>
      <note default-x="19">
        <chord/>
        <pitch>
          <step>F</step>
          <alter>1</alter>
          <octave>4</octave>
        </pitch>
        <duration>6</duration>
        <instrument id="P1-I2"/>
        <voice>1</voice>
        <type>half</type>
        <dot/>
        <accidental>sharp</accidental>
        <stem>up</stem>
      </note>
      <note default-x="73">
        <pitch>
          <step>D</step>
          <octave>4</octave>
        </pitch>
        <duration>2</duration>
        <instrument id="P1-I2"/>
        <voice>1</voice>
        <type>quarter</type>
        <stem default-y="-3">up</stem>
        <lyric default-y="-85" number="1">
          <syllabic>single</syllabic>
          <text>teach</text>
        </lyric>
        <lyric default-y="-105" number="2">
          <syllabic>begin</syllabic>
          <text>con</text>
        </lyric>
      </note>
      <note default-x="73">
        <chord/>
        <pitch>
          <step>F</step>
          <alter>1</alter>
          <octave>4</octave>
        </pitch>
        <duration>2</duration>
        <instrument id="P1-I2"/>
        <voice>1</voice>
        <type>quarter</type>
        <stem>up</stem>
      </note>
    </measure>
    <!--=======================================================-->
    <measure number="6" width="848">
      <print new-system="yes">
        <system-layout>
          <system-distance>83</system-distance>
        </system-layout>
      </print>
      <note default-x="815">
        <pitch>
          <step>D</step>
          <octave>4</octave>
        </pitch>
        <duration>6</duration>
        <instrument id="P1-I2"/>
        <voice>1</voice>
        <type>half</type>
        <dot/>
        <stem default-y="2">up</stem>
        <lyric default-y="-85" number="1">
          <syllabic>single</syllabic>
          <text>me.</text>
        </lyric>
        <lyric default-y="-105" number="2">
          <syllabic>end</syllabic>
          <text>fess.</text>
        </lyric>
      </note>
      <note default-x="815">
        <chord/>
        <pitch>
          <step>G</step>
          <octave>4</octave>
        </pitch>
        <duration>6</duration>
        <instrument id="P1-I2"/>
        <voice>1</voice>
        <type>half</type>
        <dot/>
        <stem>up</stem>
      </note>
      <note default-x="77">
        <rest/>
        <duration>2</duration>
        <instrument id="P1-I2"/>
        <voice>1</voice>
        <type>quarter</type>
      </note>
    </measure>
    <!--=======================================================-->
    <measure number="7">
      <note>
        <rest measure="yes"/>
        <duration>8</duration>
        <voice>1</voice>
      </note>
    </measure>
    <!--=======================================================-->
    <measure number="8">
      <note>
        <rest>
          <display-step>B</display-step>
          <display-octave>4</display-octave>
        </rest>
        <duration>8</duration>
        <instrument id="P1-I2"/>
        <voice>1</voice>
        <type>whole</type>
      </note>
      <backup>
        <duration>8</duration>
      </backup>
      <note>
        <rest>
          <display-step>E</display-step>
          <display-octave>4</display-octave>
        </rest>
        <duration>6</duration>
        <instrument id="P1-I1"/>
        <voice>2</voice>
        <type>half</type>
        <dot/>
      </note>
      <note>
        <pitch>
          <step>D</step>
          <octave>4</octave>
        </pitch>
        <duration>2</duration>
        <instrument id="P1-I1"/>
        <voice>2</voice>
        <type>quarter</type>
        <stem default-y="-68">down</stem>
        <lyric default-y="-88" number="1">
          <syllabic>single</syllabic>
          <text font-size="4.5">170</text>
          <elision> </elision>
          <syllabic>begin</syllabic>
          <text font-size="4.5">Be</text>
        </lyric>
        <lyric default-y="-109" number="2">
          <syllabic>single</syllabic>
          <text font-size="4.5">172</text>
          <elision> </elision>
          <syllabic>single</syllabic>
          <text font-size="4.5">Yea,</text>
        </lyric>
      </note>
    </measure>
    <!--=======================================================-->
    <measure number="9">
      <note>
        <rest>
          <display-step>F</display-step>
          <display-octave>5</display-octave>
        </rest>
        <duration>6</duration>
        <instrument id="P1-I2"/>
        <voice>1</voice>
        <type>half</type>
        <dot/>
      </note>
      <note>
        <pitch>
          <step>G</step>
          <octave>4</octave>
        </pitch>
        <duration>2</duration>
        <instrument id="P1-I2"/>
        <voice>1</voice>
        <type>quarter</type>
        <stem default-y="2">up</stem>
        <lyric default-y="27" number="1" placement="above">
          <syllabic>end</syllabic>
          <text font-size="4.5">170</text>
          <elision> </elision>
          <syllabic>begin</syllabic>
          <text font-size="4.5">Be</text>
        </lyric>
        <lyric default-y="6" number="2" placement="above">
          <syllabic>single</syllabic>
          <text font-size="4.5">172</text>
          <elision> </elision>
          <syllabic>single</syllabic>
          <text font-size="4.5">Yea,</text>
        </lyric>
      </note>
      <backup>
        <duration>8</duration>
      </backup>
      <note>
        <pitch>
          <step>G</step>
          <octave>4</octave>
        </pitch>
        <duration>2</duration>
        <instrument id="P1-I1"/>
        <voice>2</voice>
        <type>quarter</type>
        <stem default-y="-57">down</stem>
        <lyric default-y="-88" number="1">
          <syllabic>end</syllabic>
          <text>fore</text>
        </lyric>
        <lyric default-y="-109" number="2">
          <syllabic>single</syllabic>
          <text>of</text>
        </lyric>
      </note>
      <note>
        <pitch>
          <step>G</step>
          <octave>4</octave>
        </pitch>
        <duration>2</duration>
        <instrument id="P1-I1"/>
        <voice>2</voice>
        <type>quarter</type>
        <stem default-y="-57">down</stem>
        <lyric default-y="-88" number="1">
          <syllabic>single</syllabic>
          <text>Thee</text>
        </lyric>
        <lyric default-y="-109" number="2">
          <syllabic>single</syllabic>
          <text>Thy</text>
        </lyric>
      </note>
      <note>
        <pitch>
          <step>G</step>
          <octave>4</octave>
        </pitch>
        <duration>2</duration>
        <instrument id="P1-I1"/>
        <voice>2</voice>
        <type>quarter</type>
        <stem default-y="-57">down</stem>
        <lyric default-y="-88" number="1">
          <syllabic>single</syllabic>
          <text>let</text>
        </lyric>
        <lyric default-y="-109" number="2">
          <syllabic>single</syllabic>
          <text>Word</text>
        </lyric>
      </note>
      <note>
        <pitch>
          <step>F</step>
          <octave>4</octave>
        </pitch>
        <duration>2</duration>
        <instrument id="P1-I1"/>
        <voice>2</voice>
        <type>quarter</type>
        <stem default-y="-62">down</stem>
        <lyric default-y="-88" number="1">
          <syllabic>single</syllabic>
          <text>my</text>
        </lyric>
        <lyric default-y="-109" number="2">
          <syllabic>single</syllabic>
          <text>my</text>
        </lyric>
      </note>
    </measure>
    <!--=======================================================-->
    <measure number="10" width="283">
      <print new-system="yes"/>
      <note default-x="80">
        <pitch>
          <step>D</step>
          <octave>5</octave>
        </pitch>
        <duration>2</duration>
        <instrument id="P1-I2"/>
        <voice>1</voice>
        <type>quarter</type>
        <stem default-y="17.5">up</stem>
        <lyric default-y="50" number="1" placement="above">
          <syllabic>single</syllabic>
          <text>fore</text>
        </lyric>
        <lyric default-y="29" number="2" placement="above">
          <syllabic>single</syllabic>
          <text>of</text>
        </lyric>
      </note>
      <note default-x="132">
        <pitch>
          <step>D</step>
          <octave>5</octave>
        </pitch>
        <duration>2</duration>
        <instrument id="P1-I2"/>
        <voice>1</voice>
        <type>quarter</type>
        <stem default-y="17.5">up</stem>
        <lyric default-y="50" number="1" placement="above">
          <syllabic>single</syllabic>
          <text>Thee</text>
        </lyric>
        <lyric default-y="29" number="2" placement="above">
          <syllabic>single</syllabic>
          <text>Thy</text>
        </lyric>
      </note>
      <note default-x="182">
        <pitch>
          <step>D</step>
          <octave>5</octave>
        </pitch>
        <duration>2</duration>
        <instrument id="P1-I2"/>
        <voice>1</voice>
        <type>quarter</type>
        <stem default-y="17.5">up</stem>
        <lyric default-y="50" number="1" placement="above">
          <syllabic>single</syllabic>
          <text>let</text>
        </lyric>
        <lyric default-y="29" number="2" placement="above">
          <syllabic>single</syllabic>
          <text>Word</text>
        </lyric>
      </note>
      <note default-x="233">
        <pitch>
          <step>D</step>
          <octave>5</octave>
        </pitch>
        <duration>1</duration>
        <instrument id="P1-I2"/>
        <voice>1</voice>
        <type>eighth</type>
        <stem default-y="21">up</stem>
        <beam number="1">begin</beam>
        <lyric default-y="50" number="1" placement="above">
          <syllabic>single</syllabic>
          <text>my</text>
        </lyric>
        <lyric default-y="29" number="2" placement="above">
          <syllabic>single</syllabic>
          <text>my</text>
        </lyric>
      </note>
      <note default-x="262">
        <pitch>
          <step>C</step>
          <octave>5</octave>
        </pitch>
        <duration>1</duration>
        <instrument id="P1-I2"/>
        <voice>1</voice>
        <type>eighth</type>
        <stem default-y="16">up</stem>
        <beam number="1">end</beam>
      </note>
      <backup>
        <duration>8</duration>
      </backup>
      <note default-x="80">
        <pitch>
          <step>F</step>
          <octave>4</octave>
        </pitch>
        <duration>6</duration>
        <instrument id="P1-I1"/>
        <voice>2</voice>
        <type>half</type>
        <dot/>
        <stem default-y="-62.5">down</stem>
        <lyric default-y="-86" number="1">
          <syllabic>begin</syllabic>
          <text>plead</text>
        </lyric>
        <lyric default-y="-107" number="2">
          <syllabic>single</syllabic>
          <text>tongue</text>
        </lyric>
      </note>
      <note default-x="233">
        <pitch>
          <step>E</step>
          <alter>-1</alter>
          <octave>4</octave>
        </pitch>
        <duration>2</duration>
        <instrument id="P1-I1"/>
        <voice>2</voice>
        <type>quarter</type>
        <stem default-y="-66">down</stem>
        <lyric default-y="-86" number="1">
          <syllabic>end</syllabic>
          <text>ing</text>
        </lyric>
        <lyric default-y="-107" number="2">
          <syllabic>single</syllabic>
          <text>would</text>
        </lyric>
      </note>
    </measure>
    <!--=======================================================-->
    <measure number="11" width="158">
      <note default-x="22">
        <pitch>
          <step>A</step>
          <octave>4</octave>
        </pitch>
        <duration>2</duration>
        <instrument id="P1-I2"/>
        <voice>1</voice>
        <type>quarter</type>
        <stem default-y="7">up</stem>
        <lyric default-y="50" number="1" placement="above">
          <syllabic>begin</syllabic>
          <text>plead</text>
        </lyric>
        <lyric default-y="29" number="2" placement="above" relative-x="-7">
          <syllabic>single</syllabic>
          <text>tongue</text>
        </lyric>
      </note>
      <note default-x="80">
        <pitch>
          <step>A</step>
          <octave>4</octave>
        </pitch>
        <duration>2</duration>
        <instrument id="P1-I2"/>
        <voice>1</voice>
        <type>quarter</type>
        <stem default-y="7">up</stem>
        <lyric default-y="50" number="1" placement="above">
          <syllabic>end</syllabic>
          <text>ing</text>
        </lyric>
        <lyric default-y="29" number="2" placement="above">
          <syllabic>single</syllabic>
          <text>would</text>
        </lyric>
      </note>
      <note default-x="125">
        <pitch>
          <step>A</step>
          <octave>4</octave>
        </pitch>
        <duration>2</duration>
        <instrument id="P1-I2"/>
        <voice>1</voice>
        <type>quarter</type>
        <stem default-y="7">up</stem>
        <lyric default-y="50" number="1" placement="above">
          <syllabic>single</syllabic>
          <text>come;</text>
        </lyric>
        <lyric default-y="29" number="2" placement="above" relative-x="10">
          <syllabic>single</syllabic>
          <text>sing,</text>
        </lyric>
      </note>
      <backup>
        <duration>6</duration>
      </backup>
      <note default-x="22">
        <pitch>
          <step>D</step>
          <octave>4</octave>
        </pitch>
        <duration>6</duration>
        <instrument id="P1-I1"/>
        <voice>2</voice>
        <type>half</type>
        <dot/>
        <stem default-y="-69">down</stem>
        <lyric default-y="-86" number="1">
          <syllabic>single</syllabic>
          <text>come;</text>
        </lyric>
        <lyric default-y="-107" number="2">
          <syllabic>single</syllabic>
          <text>sing,</text>
        </lyric>
      </note>
      <barline location="right">
        <bar-style>none</bar-style>
      </barline>
    </measure>
    <!--=======================================================-->
    <measure implicit="yes" number="X1" width="41">
      <note default-x="12">
        <pitch>
          <step>D</step>
          <octave>4</octave>
        </pitch>
        <duration>2</duration>
        <instrument id="P1-I2"/>
        <voice>1</voice>
        <type>quarter</type>
        <stem default-y="7">up</stem>
        <lyric default-y="-111" number="1" relative-x="3">
          <syllabic>single</syllabic>
          <text>True</text>
        </lyric>
        <lyric default-y="-132" number="2" relative-x="3">
          <syllabic>single</syllabic>
          <text>For</text>
        </lyric>
      </note>
      <note default-x="12">
        <chord/>
        <pitch>
          <step>A</step>
          <octave>4</octave>
        </pitch>
        <duration>2</duration>
        <instrument id="P1-I2"/>
        <voice>1</voice>
        <type>quarter</type>
        <stem>up</stem>
      </note>
    </measure>
    <!--=======================================================-->
    <measure number="12" width="219">
      <note default-x="15">
        <pitch>
          <step>D</step>
          <octave>4</octave>
        </pitch>
        <duration>2</duration>
        <instrument id="P1-I2"/>
        <voice>1</voice>
        <type>quarter</type>
        <stem default-y="12">up</stem>
        <lyric default-y="-111" number="1">
          <syllabic>single</syllabic>
          <text>to</text>
        </lyric>
        <lyric default-y="-132" number="2">
          <syllabic>single</syllabic>
          <text>Thy</text>
        </lyric>
      </note>
      <note default-x="15">
        <chord/>
        <pitch>
          <step>B</step>
          <alter>-1</alter>
          <octave>4</octave>
        </pitch>
        <duration>2</duration>
        <instrument id="P1-I2"/>
        <voice>1</voice>
        <type>quarter</type>
        <stem>up</stem>
      </note>
      <note default-x="64">
        <pitch>
          <step>D</step>
          <octave>4</octave>
        </pitch>
        <duration>2</duration>
        <instrument id="P1-I2"/>
        <voice>1</voice>
        <type>quarter</type>
        <stem default-y="2">up</stem>
        <lyric default-y="-111" number="1">
          <syllabic>single</syllabic>
          <text>Thy</text>
        </lyric>
        <lyric default-y="-132" number="2">
          <syllabic>begin</syllabic>
          <text>com</text>
        </lyric>
      </note>
      <note default-x="64">
        <chord/>
        <pitch>
          <step>G</step>
          <octave>4</octave>
        </pitch>
        <duration>2</duration>
        <instrument id="P1-I2"/>
        <voice>1</voice>
        <type>quarter</type>
        <stem>up</stem>
      </note>
      <note default-x="124">
        <pitch>
          <step>D</step>
          <octave>4</octave>
        </pitch>
        <duration>2</duration>
        <instrument id="P1-I2"/>
        <voice>1</voice>
        <type>quarter</type>
        <stem default-y="7">up</stem>
        <lyric default-y="-111" number="1">
          <syllabic>begin</syllabic>
          <text>prom</text>
        </lyric>
        <lyric default-y="-132" number="2">
          <syllabic>end</syllabic>
          <text>mands</text>
        </lyric>
      </note>
      <note default-x="124">
        <chord/>
        <pitch>
          <step>A</step>
          <octave>4</octave>
        </pitch>
        <duration>2</duration>
        <instrument id="P1-I2"/>
        <voice>1</voice>
        <type>quarter</type>
        <stem>up</stem>
      </note>
      <note default-x="176">
        <pitch>
          <step>E</step>
          <alter>-1</alter>
          <octave>4</octave>
        </pitch>
        <duration>2</duration>
        <instrument id="P1-I2"/>
        <voice>1</voice>
        <type>quarter</type>
        <stem default-y="2">up</stem>
        <lyric default-y="-111" number="1">
          <syllabic>end</syllabic>
          <text>ise,</text>
        </lyric>
        <lyric default-y="-132" number="2">
          <syllabic>single</syllabic>
          <text>are</text>
        </lyric>
      </note>
      <note default-x="176">
        <chord/>
        <pitch>
          <step>G</step>
          <octave>4</octave>
        </pitch>
        <duration>2</duration>
        <instrument id="P1-I2"/>
        <voice>1</voice>
        <type>quarter</type>
        <stem>up</stem>
      </note>
    </measure>
    <!--=======================================================-->
    <measure number="13" width="83">
      <note default-x="14">
        <pitch>
          <step>D</step>
          <octave>4</octave>
        </pitch>
        <duration>6</duration>
        <instrument id="P1-I2"/>
        <voice>1</voice>
        <type>half</type>
        <dot/>
        <stem default-y="-3">up</stem>
        <lyric default-y="-111" number="1">
          <syllabic>begin</syllabic>
          <text>res</text>
        </lyric>
        <lyric default-y="-132" number="2" relative-x="-6">
          <syllabic>begin</syllabic>
          <text>right</text>
        </lyric>
      </note>
      <note default-x="14">
        <chord/>
        <pitch>
          <step>F</step>
          <alter>1</alter>
          <octave>4</octave>
        </pitch>
        <duration>6</duration>
        <instrument id="P1-I2"/>
        <voice>1</voice>
        <type>half</type>
        <dot/>
        <accidental>sharp</accidental>
        <stem>up</stem>
      </note>
      <note default-x="53">
        <pitch>
          <step>D</step>
          <octave>4</octave>
        </pitch>
        <duration>2</duration>
        <instrument id="P1-I2"/>
        <voice>1</voice>
        <type>quarter</type>
        <stem default-y="-3">up</stem>
        <lyric default-y="-111" number="1">
          <syllabic>end</syllabic>
          <text>cue</text>
        </lyric>
        <lyric default-y="-132" number="2" relative-x="4">
          <syllabic>middle</syllabic>
          <text>eous</text>
        </lyric>
      </note>
      <note default-x="53">
        <chord/>
        <pitch>
          <step>F</step>
          <alter>1</alter>
          <octave>4</octave>
        </pitch>
        <duration>2</duration>
        <instrument id="P1-I2"/>
        <voice>1</voice>
        <type>quarter</type>
        <stem>up</stem>
      </note>
    </measure>
    <!--=======================================================-->
    <measure number="14" width="65">
      <note default-x="19">
        <pitch>
          <step>D</step>
          <octave>4</octave>
        </pitch>
        <duration>8</duration>
        <instrument id="P1-I2"/>
        <voice>1</voice>
        <type>whole</type>
        <lyric default-y="-111" number="1">
          <syllabic>single</syllabic>
          <text>me.</text>
        </lyric>
        <lyric default-y="-132" number="2" relative-x="5">
          <syllabic>end</syllabic>
          <text>ness.</text>
        </lyric>
      </note>
      <note default-x="19">
        <chord/>
        <pitch>
          <step>G</step>
          <octave>4</octave>
        </pitch>
        <duration>8</duration>
        <instrument id="P1-I2"/>
        <voice>1</voice>
        <type>whole</type>
      </note>
      <barline location="right">
        <bar-style>light-heavy</bar-style>
      </barline>
    </measure>
  </part>
  <!--=========================================================-->
  <part id="P2">
    <measure number="1" width="221">
      <print>
        <staff-layout number="1">
          <staff-distance>112</staff-distance>
        </staff-layout>
        <measure-numbering>none</measure-numbering>
      </print>
      <attributes>
        <divisions>2</divisions>
        <key>
          <fifths>-2</fifths>
          <mode>major</mode>
        </key>
        <time>
          <beats>2</beats>
          <beat-type>2</beat-type>
        </time>
        <clef>
          <sign>F</sign>
          <line>4</line>
        </clef>
      </attributes>
      <sound tempo="100"/>
      <direction placement="above">
        <direction-type>
          <words default-y="19" font-size="7.5" font-weight="bold" relative-x="-50">melody</words>
        </direction-type>
      </direction>
      <note default-x="94">
        <pitch>
          <step>G</step>
          <octave>3</octave>
        </pitch>
        <duration>4</duration>
        <voice>1</voice>
        <type>half</type>
        <stem>double</stem>
      </note>
      <note default-x="147">
        <pitch>
          <step>G</step>
          <octave>3</octave>
        </pitch>
        <duration>2</duration>
        <voice>1</voice>
        <type>quarter</type>
        <stem default-y="-37">down</stem>
      </note>
      <note default-x="147">
        <chord/>
        <pitch>
          <step>B</step>
          <alter>-1</alter>
          <octave>3</octave>
        </pitch>
        <duration>2</duration>
        <voice>1</voice>
        <type>quarter</type>
        <stem>down</stem>
      </note>
      <note default-x="188">
        <pitch>
          <step>F</step>
          <octave>3</octave>
        </pitch>
        <duration>2</duration>
        <voice>1</voice>
        <type>quarter</type>
        <stem default-y="-42">down</stem>
      </note>
      <note default-x="188">
        <chord/>
        <pitch>
          <step>A</step>
          <octave>3</octave>
        </pitch>
        <duration>2</duration>
        <voice>1</voice>
        <type>quarter</type>
        <stem>down</stem>
      </note>
    </measure>
    <!--=======================================================-->
    <measure number="2" width="187">
      <note default-x="14">
        <pitch>
          <step>G</step>
          <octave>3</octave>
        </pitch>
        <duration>2</duration>
        <voice>1</voice>
        <type>quarter</type>
        <stem>double</stem>
      </note>
      <note default-x="55">
        <pitch>
          <step>D</step>
          <octave>3</octave>
        </pitch>
        <duration>2</duration>
        <voice>1</voice>
        <type>quarter</type>
        <stem default-y="-52">down</stem>
      </note>
      <note default-x="55">
        <chord/>
        <pitch>
          <step>F</step>
          <octave>3</octave>
        </pitch>
        <duration>2</duration>
        <voice>1</voice>
        <type>quarter</type>
        <stem>down</stem>
      </note>
      <note default-x="100">
        <pitch>
          <step>C</step>
          <octave>3</octave>
        </pitch>
        <duration>2</duration>
        <voice>1</voice>
        <type>quarter</type>
        <stem default-y="-52">down</stem>
      </note>
      <note default-x="100">
        <chord/>
        <pitch>
          <step>G</step>
          <octave>3</octave>
        </pitch>
        <duration>2</duration>
        <voice>1</voice>
        <type>quarter</type>
        <stem>down</stem>
      </note>
      <note default-x="144">
        <pitch>
          <step>B</step>
          <alter>-1</alter>
          <octave>2</octave>
        </pitch>
        <duration>1</duration>
        <voice>1</voice>
        <type>eighth</type>
        <stem default-y="-61">down</stem>
        <beam number="1">begin</beam>
      </note>
      <backup>
        <duration>1</duration>
      </backup>
      <note default-x="144">
        <pitch>
          <step>B</step>
          <alter>-1</alter>
          <octave>3</octave>
        </pitch>
        <duration>2</duration>
        <voice>3</voice>
        <type>quarter</type>
        <stem default-y="33">up</stem>
      </note>
      <backup>
        <duration>1</duration>
      </backup>
      <note default-x="168">
        <pitch>
          <step>C</step>
          <octave>3</octave>
        </pitch>
        <duration>1</duration>
        <voice>1</voice>
        <type>eighth</type>
        <stem default-y="-56">down</stem>
        <beam number="1">end</beam>
      </note>
    </measure>
    <!--=======================================================-->
    <measure number="3" width="95">
      <note default-x="17">
        <pitch>
          <step>D</step>
          <octave>3</octave>
        </pitch>
        <duration>4</duration>
        <voice>1</voice>
        <type>half</type>
        <stem default-y="-52">down</stem>
      </note>
      <note default-x="17">
        <chord/>
        <pitch>
          <step>A</step>
          <octave>3</octave>
        </pitch>
        <duration>4</duration>
        <voice>1</voice>
        <type>half</type>
        <stem>down</stem>
      </note>
      <note default-x="66">
        <pitch>
          <step>D</step>
          <octave>3</octave>
        </pitch>
        <duration>4</duration>
        <voice>1</voice>
        <type>half</type>
        <stem default-y="-52">down</stem>
      </note>
      <note default-x="66">
        <chord/>
        <pitch>
          <step>A</step>
          <octave>3</octave>
        </pitch>
        <duration>4</duration>
        <voice>1</voice>
        <type>half</type>
        <stem>down</stem>
      </note>
    </measure>
    <!--=======================================================-->
    <measure number="4" width="190">
      <note default-x="19">
        <pitch>
          <step>D</step>
          <octave>3</octave>
        </pitch>
        <duration>2</duration>
        <voice>1</voice>
        <type>quarter</type>
        <stem default-y="-52">down</stem>
      </note>
      <note default-x="19">
        <chord/>
        <pitch>
          <step>D</step>
          <octave>4</octave>
        </pitch>
        <duration>2</duration>
        <voice>1</voice>
        <type>quarter</type>
        <stem>down</stem>
      </note>
      <note default-x="62">
        <pitch>
          <step>D</step>
          <octave>3</octave>
        </pitch>
        <duration>1</duration>
        <voice>1</voice>
        <type>eighth</type>
        <stem default-y="-51">down</stem>
        <beam number="1">begin</beam>
      </note>
      <backup>
        <duration>1</duration>
      </backup>
      <note default-x="62">
        <pitch>
          <step>D</step>
          <octave>4</octave>
        </pitch>
        <duration>2</duration>
        <voice>3</voice>
        <type>quarter</type>
        <stem default-y="38">up</stem>
      </note>
      <backup>
        <duration>1</duration>
      </backup>
      <note default-x="85">
        <pitch>
          <step>E</step>
          <alter>-1</alter>
          <octave>3</octave>
        </pitch>
        <duration>1</duration>
        <voice>1</voice>
        <type>eighth</type>
        <stem default-y="-46">down</stem>
        <beam number="1">end</beam>
      </note>
      <note default-x="109">
        <pitch>
          <step>F</step>
          <octave>3</octave>
        </pitch>
        <duration>2</duration>
        <voice>1</voice>
        <type>quarter</type>
        <stem default-y="-42">down</stem>
      </note>
      <note default-x="109">
        <chord/>
        <pitch>
          <step>C</step>
          <octave>4</octave>
        </pitch>
        <duration>2</duration>
        <voice>1</voice>
        <type>quarter</type>
        <stem>down</stem>
      </note>
      <note default-x="154">
        <pitch>
          <step>G</step>
          <octave>3</octave>
        </pitch>
        <duration>2</duration>
        <voice>1</voice>
        <type>quarter</type>
        <stem default-y="-37">down</stem>
      </note>
      <note default-x="154">
        <chord/>
        <pitch>
          <step>B</step>
          <alter>-1</alter>
          <octave>3</octave>
        </pitch>
        <duration>2</duration>
        <voice>1</voice>
        <type>quarter</type>
        <stem>down</stem>
      </note>
    </measure>
    <!--=======================================================-->
    <measure number="5" width="155">
      <note default-x="19">
        <pitch>
          <step>D</step>
          <octave>3</octave>
        </pitch>
        <duration>6</duration>
        <voice>1</voice>
        <type>half</type>
        <dot/>
        <stem default-y="-52">down</stem>
      </note>
      <note default-x="19">
        <chord/>
        <pitch>
          <step>A</step>
          <octave>3</octave>
        </pitch>
        <duration>6</duration>
        <voice>1</voice>
        <type>half</type>
        <dot/>
        <stem>down</stem>
      </note>
      <note default-x="73">
        <pitch>
          <step>D</step>
          <octave>3</octave>
        </pitch>
        <duration>2</duration>
        <voice>1</voice>
        <type>quarter</type>
        <stem default-y="-52">down</stem>
      </note>
      <note default-x="73">
        <chord/>
        <pitch>
          <step>A</step>
          <octave>3</octave>
        </pitch>
        <duration>2</duration>
        <voice>1</voice>
        <type>quarter</type>
        <stem>down</stem>
      </note>
    </measure>
    <!--=======================================================-->
    <measure number="6" width="848">
      <print new-system="yes">
        <staff-layout number="1">
          <staff-distance>165</staff-distance>
        </staff-layout>
      </print>
      <forward>
        <duration>6</duration>
        <voice>1</voice>
      </forward>
      <note default-x="77">
        <rest>
          <display-step>B</display-step>
          <display-octave>3</display-octave>
        </rest>
        <duration>2</duration>
        <voice>1</voice>
        <type>quarter</type>
      </note>
      <backup>
        <duration>8</duration>
      </backup>
      <note default-x="815">
        <pitch>
          <step>G</step>
          <octave>2</octave>
        </pitch>
        <duration>6</duration>
        <voice>2</voice>
        <type>half</type>
        <dot/>
        <stem default-y="23">up</stem>
      </note>
      <note default-x="815">
        <chord/>
        <pitch>
          <step>G</step>
          <octave>3</octave>
        </pitch>
        <duration>6</duration>
        <voice>2</voice>
        <type>half</type>
        <dot/>
        <stem>up</stem>
      </note>
      <note default-x="77">
        <pitch>
          <step>D</step>
          <octave>3</octave>
        </pitch>
        <duration>2</duration>
        <voice>2</voice>
        <type>quarter</type>
        <stem default-y="-380">down</stem>
        <lyric default-y="-78" number="1">
          <syllabic>single</syllabic>
          <text font-size="4.5">170</text>
          <elision> </elision>
          <syllabic>begin</syllabic>
          <text font-size="4.5">Be</text>
        </lyric>
        <lyric default-y="-99" number="2">
          <syllabic>single</syllabic>
          <text font-size="4.5">172</text>
          <elision> </elision>
          <syllabic>single</syllabic>
          <text font-size="4.5">Yea,</text>
        </lyric>
      </note>
    </measure>
    <!--=======================================================-->
    <measure number="7">
      <note default-x="-711">
        <rest>
          <display-step>B</display-step>
          <display-octave>3</display-octave>
        </rest>
        <duration>6</duration>
        <voice>1</voice>
        <type>half</type>
        <dot/>
      </note>
      <note default-x="-539">
        <pitch>
          <step>G</step>
          <octave>3</octave>
        </pitch>
        <duration>2</duration>
        <voice>1</voice>
        <type>quarter</type>
        <stem default-y="23">up</stem>
        <lyric default-y="69" number="1" placement="above" relative-x="14">
          <syllabic>end</syllabic>
          <text font-size="4.5">170</text>
          <elision> </elision>
          <syllabic>begin</syllabic>
          <text font-size="4.5">Be</text>
        </lyric>
        <lyric default-y="48" number="2" placement="above" relative-x="14">
          <syllabic>single</syllabic>
          <text font-size="4.5">172</text>
          <elision> </elision>
          <syllabic>single</syllabic>
          <text font-size="4.5">Yea,</text>
        </lyric>
      </note>
      <backup>
        <duration>8</duration>
      </backup>
      <note default-x="-709">
        <pitch>
          <step>G</step>
          <octave>3</octave>
        </pitch>
        <duration>2</duration>
        <voice>2</voice>
        <type>quarter</type>
        <stem default-y="-37">down</stem>
        <lyric default-y="-78" number="1">
          <syllabic>end</syllabic>
          <text>fore</text>
        </lyric>
        <lyric default-y="-99" number="2">
          <syllabic>single</syllabic>
          <text>of</text>
        </lyric>
      </note>
      <note default-x="-655">
        <pitch>
          <step>G</step>
          <octave>3</octave>
        </pitch>
        <duration>2</duration>
        <voice>2</voice>
        <type>quarter</type>
        <stem default-y="-37">down</stem>
        <lyric default-y="-78" number="1">
          <syllabic>single</syllabic>
          <text>Thee</text>
        </lyric>
        <lyric default-y="-99" number="2">
          <syllabic>single</syllabic>
          <text>Thy</text>
        </lyric>
      </note>
      <note default-x="-603">
        <pitch>
          <step>G</step>
          <octave>3</octave>
        </pitch>
        <duration>1</duration>
        <voice>2</voice>
        <type>eighth</type>
        <stem default-y="-36">down</stem>
        <beam number="1">begin</beam>
        <lyric default-y="-78" number="1">
          <syllabic>single</syllabic>
          <text>let</text>
        </lyric>
        <lyric default-y="-99" number="2">
          <syllabic>single</syllabic>
          <text>Word</text>
        </lyric>
      </note>
      <note default-x="-571">
        <pitch>
          <step>F</step>
          <octave>3</octave>
        </pitch>
        <duration>1</duration>
        <voice>2</voice>
        <type>eighth</type>
        <stem default-y="-41">down</stem>
        <beam number="1">end</beam>
      </note>
      <note default-x="-539">
        <pitch>
          <step>E</step>
          <alter>-1</alter>
          <octave>3</octave>
        </pitch>
        <duration>2</duration>
        <voice>2</voice>
        <type>quarter</type>
        <stem default-y="-47">down</stem>
        <lyric default-y="-78" number="1">
          <syllabic>single</syllabic>
          <text>my</text>
        </lyric>
        <lyric default-y="-99" number="2">
          <syllabic>single</syllabic>
          <text>my</text>
        </lyric>
      </note>
    </measure>
    <!--=======================================================-->
    <measure number="8">
      <note>
        <pitch>
          <step>D</step>
          <octave>4</octave>
        </pitch>
        <duration>2</duration>
        <voice>1</voice>
        <type>quarter</type>
        <stem default-y="39.5">up</stem>
        <lyric default-y="69" number="1" placement="above" relative-x="14">
          <syllabic>single</syllabic>
          <text>fore</text>
        </lyric>
        <lyric default-y="48" number="2" placement="above" relative-x="14">
          <syllabic>single</syllabic>
          <text>of</text>
        </lyric>
      </note>
      <note>
        <pitch>
          <step>D</step>
          <octave>4</octave>
        </pitch>
        <duration>2</duration>
        <voice>1</voice>
        <type>quarter</type>
        <stem default-y="39.5">up</stem>
        <lyric default-y="69" number="1" placement="above" relative-x="14">
          <syllabic>single</syllabic>
          <text>Thee</text>
        </lyric>
        <lyric default-y="48" number="2" placement="above" relative-x="14">
          <syllabic>single</syllabic>
          <text>Thy</text>
        </lyric>
      </note>
      <note>
        <pitch>
          <step>D</step>
          <octave>4</octave>
        </pitch>
        <duration>1</duration>
        <voice>1</voice>
        <type>eighth</type>
        <stem default-y="43">up</stem>
        <beam number="1">begin</beam>
        <lyric default-y="69" number="1" placement="above" relative-x="14">
          <syllabic>single</syllabic>
          <text>let</text>
        </lyric>
        <lyric default-y="48" number="2" placement="above" relative-x="14">
          <syllabic>single</syllabic>
          <text>Word</text>
        </lyric>
      </note>
      <note>
        <pitch>
          <step>C</step>
          <octave>4</octave>
        </pitch>
        <duration>1</duration>
        <voice>1</voice>
        <type>eighth</type>
        <stem default-y="38">up</stem>
        <beam number="1">end</beam>
      </note>
      <note>
        <pitch>
          <step>B</step>
          <alter>-1</alter>
          <octave>3</octave>
        </pitch>
        <duration>2</duration>
        <voice>1</voice>
        <type>quarter</type>
        <stem default-y="33">up</stem>
        <lyric default-y="69" number="1" placement="above" relative-x="14">
          <syllabic>single</syllabic>
          <text>my</text>
        </lyric>
        <lyric default-y="48" number="2" placement="above" relative-x="14">
          <syllabic>single</syllabic>
          <text>my</text>
        </lyric>
      </note>
      <backup>
        <duration>8</duration>
      </backup>
      <note>
        <pitch>
          <step>D</step>
          <octave>3</octave>
        </pitch>
        <duration>2</duration>
        <voice>2</voice>
        <type>quarter</type>
        <stem default-y="-52">down</stem>
        <lyric default-y="-78" number="1">
          <syllabic>begin</syllabic>
          <text>plead</text>
        </lyric>
        <lyric default-y="-99" number="2" relative-x="-5">
          <syllabic>single</syllabic>
          <text>tongue</text>
        </lyric>
      </note>
      <note>
        <pitch>
          <step>D</step>
          <octave>3</octave>
        </pitch>
        <duration>2</duration>
        <voice>2</voice>
        <type>quarter</type>
        <stem default-y="-52">down</stem>
        <lyric default-y="-78" number="1">
          <syllabic>end</syllabic>
          <text>ing</text>
        </lyric>
        <lyric default-y="-99" number="2">
          <syllabic>single</syllabic>
          <text>would</text>
        </lyric>
      </note>
      <note>
        <pitch>
          <step>D</step>
          <octave>3</octave>
        </pitch>
        <duration>2</duration>
        <voice>2</voice>
        <type>quarter</type>
        <stem default-y="-52">down</stem>
        <lyric default-y="-78" number="1">
          <syllabic>single</syllabic>
          <text>come;</text>
        </lyric>
        <lyric default-y="-99" number="2" relative-x="4">
          <syllabic>single</syllabic>
          <text>sing,</text>
        </lyric>
      </note>
      <note>
        <pitch>
          <step>E</step>
          <alter>-1</alter>
          <octave>3</octave>
        </pitch>
        <duration>1</duration>
        <voice>2</voice>
        <type>eighth</type>
        <stem default-y="-46">down</stem>
        <beam number="1">begin</beam>
        <lyric default-y="-78" number="1">
          <syllabic>single</syllabic>
          <text>True</text>
        </lyric>
        <lyric default-y="-99" number="2">
          <syllabic>single</syllabic>
          <text>For</text>
        </lyric>
      </note>
      <note>
        <pitch>
          <step>D</step>
          <octave>3</octave>
        </pitch>
        <duration>1</duration>
        <voice>2</voice>
        <type>eighth</type>
        <stem default-y="-51">down</stem>
        <beam number="1">end</beam>
      </note>
    </measure>
    <!--=======================================================-->
    <measure number="9">
      <note>
        <pitch>
          <step>C</step>
          <octave>4</octave>
        </pitch>
        <duration>2</duration>
        <voice>1</voice>
        <type>quarter</type>
        <stem default-y="38">up</stem>
        <lyric default-y="69" number="1" placement="above" relative-x="14">
          <syllabic>begin</syllabic>
          <text>plead</text>
        </lyric>
        <lyric default-y="48" number="2" placement="above" relative-x="14">
          <syllabic>single</syllabic>
          <text>tongue</text>
        </lyric>
      </note>
      <note>
        <pitch>
          <step>C</step>
          <octave>4</octave>
        </pitch>
        <duration>2</duration>
        <voice>1</voice>
        <type>quarter</type>
        <stem default-y="38">up</stem>
        <lyric default-y="69" number="1" placement="above" relative-x="14">
          <syllabic>end</syllabic>
          <text>ing</text>
        </lyric>
        <lyric default-y="48" number="2" placement="above" relative-x="20">
          <syllabic>single</syllabic>
          <text>would</text>
        </lyric>
      </note>
      <note>
        <pitch>
          <step>C</step>
          <octave>4</octave>
        </pitch>
        <duration>1</duration>
        <voice>1</voice>
        <type>eighth</type>
        <stem default-y="39">up</stem>
        <beam number="1">begin</beam>
        <lyric default-y="69" number="1" placement="above" relative-x="14">
          <syllabic>single</syllabic>
          <text>come;</text>
        </lyric>
        <lyric default-y="48" number="2" placement="above" relative-x="18">
          <syllabic>single</syllabic>
          <text>sing,</text>
        </lyric>
      </note>
      <note>
        <pitch>
          <step>B</step>
          <alter>-1</alter>
          <octave>3</octave>
        </pitch>
        <duration>1</duration>
        <voice>1</voice>
        <type>eighth</type>
        <stem default-y="34">up</stem>
        <beam number="1">end</beam>
      </note>
      <note>
        <pitch>
          <step>A</step>
          <octave>3</octave>
        </pitch>
        <duration>2</duration>
        <voice>1</voice>
        <type>quarter</type>
        <stem default-y="28">up</stem>
        <lyric default-y="69" number="1" placement="above" relative-x="14">
          <syllabic>single</syllabic>
          <text>True</text>
        </lyric>
        <lyric default-y="48" number="2" placement="above" relative-x="14">
          <syllabic>single</syllabic>
          <text>For</text>
        </lyric>
      </note>
      <backup>
        <duration>8</duration>
      </backup>
      <note>
        <pitch>
          <step>C</step>
          <octave>3</octave>
        </pitch>
        <duration>2</duration>
        <voice>2</voice>
        <type>quarter</type>
        <stem default-y="-52">down</stem>
        <lyric default-y="-78" number="1">
          <syllabic>single</syllabic>
          <text>to</text>
        </lyric>
        <lyric default-y="-99" number="2">
          <syllabic>single</syllabic>
          <text>Thy</text>
        </lyric>
      </note>
      <note>
        <pitch>
          <step>C</step>
          <octave>3</octave>
        </pitch>
        <duration>2</duration>
        <voice>2</voice>
        <type>quarter</type>
        <stem default-y="-52">down</stem>
        <lyric default-y="-78" number="1">
          <syllabic>single</syllabic>
          <text>Thy</text>
        </lyric>
        <lyric default-y="-99" number="2">
          <syllabic>begin</syllabic>
          <text>com</text>
        </lyric>
      </note>
      <note>
        <pitch>
          <step>C</step>
          <octave>3</octave>
        </pitch>
        <duration>2</duration>
        <voice>2</voice>
        <type>quarter</type>
        <stem default-y="-52">down</stem>
        <lyric default-y="-78" number="1">
          <syllabic>begin</syllabic>
          <text>prom</text>
        </lyric>
        <lyric default-y="-99" number="2" relative-x="3">
          <syllabic>end</syllabic>
          <text>mands</text>
        </lyric>
      </note>
      <note>
        <pitch>
          <step>D</step>
          <octave>3</octave>
        </pitch>
        <duration>1</duration>
        <voice>2</voice>
        <type>eighth</type>
        <stem default-y="-51">down</stem>
        <beam number="1">begin</beam>
        <lyric default-y="-78" number="1">
          <syllabic>end</syllabic>
          <text>ise,</text>
        </lyric>
        <lyric default-y="-99" number="2">
          <syllabic>single</syllabic>
          <text>are</text>
        </lyric>
      </note>
      <note>
        <pitch>
          <step>C</step>
          <octave>3</octave>
        </pitch>
        <duration>1</duration>
        <voice>2</voice>
        <type>eighth</type>
        <stem default-y="-56">down</stem>
        <beam number="1">end</beam>
      </note>
    </measure>
    <!--=======================================================-->
    <measure number="10" width="283">
      <print new-system="yes">
        <staff-layout number="1">
          <staff-distance>156</staff-distance>
        </staff-layout>
      </print>
      <note default-x="80">
        <pitch>
          <step>B</step>
          <alter>-1</alter>
          <octave>3</octave>
        </pitch>
        <duration>2</duration>
        <voice>1</voice>
        <type>quarter</type>
        <stem default-y="33">up</stem>
        <lyric default-y="61" number="1" placement="above" relative-x="5">
          <syllabic>single</syllabic>
          <text>to</text>
        </lyric>
        <lyric default-y="40" number="2" placement="above" relative-x="5">
          <syllabic>single</syllabic>
          <text>Thy</text>
        </lyric>
      </note>
      <note default-x="132">
        <pitch>
          <step>B</step>
          <alter>-1</alter>
          <octave>3</octave>
        </pitch>
        <duration>2</duration>
        <voice>1</voice>
        <type>quarter</type>
        <stem default-y="33">up</stem>
        <lyric default-y="61" number="1" placement="above" relative-x="5">
          <syllabic>single</syllabic>
          <text>Thy</text>
        </lyric>
        <lyric default-y="40" number="2" placement="above">
          <syllabic>begin</syllabic>
          <text>com</text>
        </lyric>
      </note>
      <note default-x="182">
        <pitch>
          <step>B</step>
          <alter>-1</alter>
          <octave>3</octave>
        </pitch>
        <duration>1</duration>
        <voice>1</voice>
        <type>eighth</type>
        <stem default-y="36.5">up</stem>
        <beam number="1">begin</beam>
        <lyric default-y="61" number="1" placement="above" relative-x="5">
          <syllabic>begin</syllabic>
          <text>prom</text>
        </lyric>
        <lyric default-y="40" number="2" placement="above" relative-x="9">
          <syllabic>end</syllabic>
          <text>mands</text>
        </lyric>
      </note>
      <note default-x="208">
        <pitch>
          <step>A</step>
          <octave>3</octave>
        </pitch>
        <duration>1</duration>
        <voice>1</voice>
        <type>eighth</type>
        <stem default-y="31.5">up</stem>
        <beam number="1">end</beam>
      </note>
      <note default-x="233">
        <pitch>
          <step>G</step>
          <octave>3</octave>
        </pitch>
        <duration>1</duration>
        <voice>1</voice>
        <type>eighth</type>
        <stem default-y="26.5">up</stem>
        <beam number="1">begin</beam>
        <lyric default-y="61" number="1" placement="above" relative-x="5">
          <syllabic>end</syllabic>
          <text>ise,</text>
        </lyric>
        <lyric default-y="40" number="2" placement="above" relative-x="5">
          <syllabic>single</syllabic>
          <text>are</text>
        </lyric>
      </note>
      <note default-x="262">
        <pitch>
          <step>B</step>
          <alter>-1</alter>
          <octave>3</octave>
        </pitch>
        <duration>1</duration>
        <voice>1</voice>
        <type>eighth</type>
        <stem default-y="36.5">up</stem>
        <beam number="1">end</beam>
      </note>
      <backup>
        <duration>8</duration>
      </backup>
      <note default-x="80">
        <pitch>
          <step>B</step>
          <alter>-1</alter>
          <octave>2</octave>
        </pitch>
        <duration>6</duration>
        <voice>2</voice>
        <type>half</type>
        <dot/>
        <stem default-y="-57">down</stem>
        <lyric default-y="-75" number="1">
          <syllabic>begin</syllabic>
          <text>res</text>
        </lyric>
        <lyric default-y="-96" number="2">
          <syllabic>begin</syllabic>
          <text>right</text>
        </lyric>
      </note>
      <note default-x="233">
        <pitch>
          <step>C</step>
          <octave>3</octave>
        </pitch>
        <duration>2</duration>
        <voice>2</voice>
        <type>quarter</type>
        <stem default-y="-52">down</stem>
        <lyric default-y="-75" number="1">
          <syllabic>end</syllabic>
          <text>cue</text>
        </lyric>
        <lyric default-y="-96" number="2">
          <syllabic>middle</syllabic>
          <text>eous</text>
        </lyric>
      </note>
    </measure>
    <!--=======================================================-->
    <measure number="11" width="158">
      <note default-x="22">
        <pitch>
          <step>A</step>
          <octave>3</octave>
        </pitch>
        <duration>2</duration>
        <voice>1</voice>
        <type>quarter</type>
        <stem default-y="28">up</stem>
        <lyric default-y="61" number="1" placement="above" relative-x="5">
          <syllabic>begin</syllabic>
          <text>res</text>
        </lyric>
        <lyric default-y="40" number="2" placement="above" relative-x="3">
          <syllabic>middle</syllabic>
          <text>right</text>
        </lyric>
      </note>
      <note default-x="80">
        <pitch>
          <step>A</step>
          <octave>3</octave>
        </pitch>
        <duration>2</duration>
        <voice>1</voice>
        <type>quarter</type>
        <stem default-y="28">up</stem>
        <lyric default-y="61" number="1" placement="above" relative-x="5">
          <syllabic>end</syllabic>
          <text>cue</text>
        </lyric>
        <lyric default-y="40" number="2" placement="above" relative-x="-2">
          <syllabic>middle</syllabic>
          <text>eous</text>
        </lyric>
      </note>
      <note default-x="119">
        <pitch>
          <step>A</step>
          <octave>3</octave>
        </pitch>
        <duration>1</duration>
        <voice>1</voice>
        <type>eighth</type>
        <stem default-y="31.5">up</stem>
        <beam number="1">begin</beam>
        <lyric default-y="61" number="1" placement="above" relative-x="5">
          <syllabic>single</syllabic>
          <text>me.</text>
        </lyric>
        <lyric default-y="40" number="2" placement="above" relative-x="8">
          <syllabic>end</syllabic>
          <text>ness.</text>
        </lyric>
      </note>
      <note default-x="144">
        <pitch>
          <step>G</step>
          <octave>3</octave>
        </pitch>
        <duration>1</duration>
        <voice>1</voice>
        <type>eighth</type>
        <stem default-y="26.5">up</stem>
        <beam number="1">end</beam>
      </note>
      <backup>
        <duration>6</duration>
      </backup>
      <note default-x="22">
        <pitch>
          <step>D</step>
          <octave>3</octave>
        </pitch>
        <duration>6</duration>
        <voice>2</voice>
        <type>half</type>
        <dot/>
        <stem default-y="-51">down</stem>
        <lyric default-y="-75" number="1">
          <syllabic>single</syllabic>
          <text>me.</text>
        </lyric>
        <lyric default-y="-96" number="2">
          <syllabic>single</syllabic>
          <text>ness.</text>
        </lyric>
      </note>
      <barline location="right">
        <bar-style>none</bar-style>
      </barline>
    </measure>
    <!--=======================================================-->
    <measure implicit="yes" number="X1" width="41">
      <note default-x="12">
        <pitch>
          <step>D</step>
          <octave>3</octave>
        </pitch>
        <duration>2</duration>
        <voice>1</voice>
        <type>quarter</type>
        <stem default-y="-51">down</stem>
      </note>
      <note default-x="12">
        <chord/>
        <pitch>
          <step>F</step>
          <octave>3</octave>
        </pitch>
        <duration>2</duration>
        <voice>1</voice>
        <type>quarter</type>
        <stem>down</stem>
      </note>
    </measure>
    <!--=======================================================-->
    <measure number="12" width="219">
      <note default-x="15">
        <pitch>
          <step>G</step>
          <octave>3</octave>
        </pitch>
        <duration>2</duration>
        <voice>1</voice>
        <type>quarter</type>
        <stem default-y="-36">down</stem>
      </note>
      <backup>
        <duration>2</duration>
      </backup>
      <note default-x="15">
        <pitch>
          <step>G</step>
          <octave>3</octave>
        </pitch>
        <duration>1</duration>
        <voice>3</voice>
        <type>eighth</type>
        <stem default-y="26.5">up</stem>
        <beam number="1">begin</beam>
      </note>
      <note default-x="40">
        <pitch>
          <step>A</step>
          <octave>3</octave>
        </pitch>
        <duration>1</duration>
        <voice>3</voice>
        <type>eighth</type>
        <stem default-y="31.5">up</stem>
        <beam number="1">end</beam>
      </note>
      <note default-x="64">
        <pitch>
          <step>G</step>
          <octave>3</octave>
        </pitch>
        <duration>2</duration>
        <voice>1</voice>
        <type>quarter</type>
        <stem default-y="-36">down</stem>
      </note>
      <backup>
        <duration>2</duration>
      </backup>
      <note default-x="64">
        <pitch>
          <step>B</step>
          <alter>-1</alter>
          <octave>3</octave>
        </pitch>
        <duration>1</duration>
        <voice>3</voice>
        <type>eighth</type>
        <stem default-y="34">up</stem>
        <beam number="1">begin</beam>
      </note>
      <note default-x="94">
        <pitch>
          <step>C</step>
          <octave>4</octave>
        </pitch>
        <duration>1</duration>
        <voice>3</voice>
        <type>eighth</type>
        <stem default-y="39">up</stem>
        <beam number="1">end</beam>
      </note>
      <note default-x="124">
        <pitch>
          <step>F</step>
          <octave>3</octave>
        </pitch>
        <duration>2</duration>
        <voice>1</voice>
        <type>quarter</type>
        <stem default-y="-41">down</stem>
      </note>
      <note default-x="124">
        <chord/>
        <pitch>
          <step>D</step>
          <octave>4</octave>
        </pitch>
        <duration>2</duration>
        <voice>1</voice>
        <type>quarter</type>
        <stem>down</stem>
      </note>
      <note default-x="176">
        <pitch>
          <step>G</step>
          <octave>3</octave>
        </pitch>
        <duration>2</duration>
        <voice>1</voice>
        <type>quarter</type>
        <stem default-y="-36">down</stem>
      </note>
      <backup>
        <duration>2</duration>
      </backup>
      <note default-x="176">
        <pitch>
          <step>C</step>
          <octave>4</octave>
        </pitch>
        <duration>1</duration>
        <voice>3</voice>
        <type>eighth</type>
        <stem default-y="38">up</stem>
        <beam number="1">begin</beam>
      </note>
      <note default-x="200">
        <pitch>
          <step>B</step>
          <alter>-1</alter>
          <octave>3</octave>
        </pitch>
        <duration>1</duration>
        <voice>3</voice>
        <type>eighth</type>
        <stem default-y="33">up</stem>
        <beam number="1">end</beam>
      </note>
    </measure>
    <!--=======================================================-->
    <measure number="13" width="83">
      <note default-x="14">
        <pitch>
          <step>D</step>
          <octave>3</octave>
        </pitch>
        <duration>6</duration>
        <voice>1</voice>
        <type>half</type>
        <dot/>
        <stem default-y="-51">down</stem>
      </note>
      <note default-x="14">
        <chord/>
        <pitch>
          <step>A</step>
          <octave>3</octave>
        </pitch>
        <duration>6</duration>
        <voice>1</voice>
        <type>half</type>
        <dot/>
        <stem>down</stem>
      </note>
      <note default-x="53">
        <pitch>
          <step>D</step>
          <octave>3</octave>
        </pitch>
        <duration>2</duration>
        <voice>1</voice>
        <type>quarter</type>
        <stem default-y="-51">down</stem>
      </note>
      <note default-x="53">
        <chord/>
        <pitch>
          <step>A</step>
          <octave>3</octave>
        </pitch>
        <duration>2</duration>
        <voice>1</voice>
        <type>quarter</type>
        <stem>down</stem>
      </note>
    </measure>
    <!--=======================================================-->
    <measure number="14" width="65">
      <note default-x="19">
        <pitch>
          <step>G</step>
          <octave>2</octave>
        </pitch>
        <duration>8</duration>
        <voice>1</voice>
        <type>whole</type>
      </note>
      <note default-x="19">
        <chord/>
        <pitch>
          <step>G</step>
          <octave>3</octave>
        </pitch>
        <duration>8</duration>
        <voice>1</voice>
        <type>whole</type>
      </note>
      <barline location="right">
        <bar-style>light-heavy</bar-style>
      </barline>
    </measure>
  </part>
  <!--=========================================================-->
</score-partwise>
