<?xml version="1.0" encoding="UTF-8" standalone="no"?>
<!DOCTYPE score-partwise PUBLIC "-//Recordare//DTD MusicXML 3.1 Partwise//EN" "http://www.musicxml.org/dtds/partwise.dtd">
<score-partwise version="3.1">
  <identification>
    <encoding>
      <software>Finale v25 for Windows</software>
      <encoding-date>2020-07-08</encoding-date>
      <supports attribute="new-system" element="print" type="yes" value="yes"/>
      <supports attribute="new-page" element="print" type="yes" value="yes"/>
      <supports element="accidental" type="yes"/>
      <supports element="beam" type="yes"/>
      <supports element="stem" type="yes"/>
    </encoding>
  </identification>
  <defaults>
    <scaling>
      <millimeters>6.35</millimeters>
      <tenths>40</tenths>
    </scaling>
    <page-layout>
      <page-height>1380</page-height>
      <page-width>852</page-width>
      <page-margins type="both">
        <left-margin>0</left-margin>
        <right-margin>0</right-margin>
        <top-margin>0</top-margin>
        <bottom-margin>1013</bottom-margin>
      </page-margins>
    </page-layout>
    <system-layout>
      <system-margins>
        <left-margin>5</left-margin>
        <right-margin>0</right-margin>
      </system-margins>
      <system-distance>50</system-distance>
      <top-system-distance>50</top-system-distance>
    </system-layout>
    <staff-layout>
      <staff-distance>175</staff-distance>
    </staff-layout>
    <appearance>
      <line-width type="stem">0.8333</line-width>
      <line-width type="beam">4.1667</line-width>
      <line-width type="staff">0.7096</line-width>
      <line-width type="light barline">0.8333</line-width>
      <line-width type="heavy barline">5</line-width>
      <line-width type="leger">0.7292</line-width>
      <line-width type="ending">0.7682</line-width>
      <line-width type="wedge">0.8333</line-width>
      <line-width type="enclosure">0.8333</line-width>
      <line-width type="tuplet bracket">0.7292</line-width>
      <note-size type="grace">55</note-size>
      <note-size type="cue">55</note-size>
      <distance type="hyphen">83</distance>
      <distance type="beam">8</distance>
    </appearance>
    <music-font font-family="Petrucci2" font-size="18"/>
    <word-font font-family="Palatino Linotype" font-size="9"/>
    <lyric-font font-family="Palatino Linotype" font-size="9.75" name="verse"/>
    <lyric-font font-family="Palatino Linotype" font-size="9.75" name="chorus"/>
  </defaults>
  <credit page="1">
    <credit-words default-y="1010" font-size="7.5" valign="bottom" xml:space="preserve">Music: William H. Walter (1825–1893)
Text: William P. Merrill (1867–1954)</credit-words>
  </credit>
  <credit page="1">
    <credit-words default-x="852" default-y="1010" font-size="7.5" justify="right" valign="bottom" xml:space="preserve">FESTAL SONG
6 6. 8 6.</credit-words>
  </credit>
  <part-list>
    <part-group number="1" type="start">
      <group-symbol default-x="-2">line</group-symbol>
      <group-barline>no</group-barline>
    </part-group>
    <score-part id="P1">
      <part-name print-object="no">MusicXML Part</part-name>
      <score-instrument id="P1-I1">
        <instrument-name>MIDIOUT2 (USB2.0-MIDI)</instrument-name>
      </score-instrument>
      <midi-instrument id="P1-I1">
        <midi-channel>1</midi-channel>
        <midi-program>57</midi-program>
        <volume>80</volume>
        <pan>0</pan>
      </midi-instrument>
    </score-part>
    <score-part id="P2">
      <part-name print-object="no">MusicXML Part</part-name>
      <score-instrument id="P2-I2">
        <instrument-name>MIDIOUT2 (USB2.0-MIDI)</instrument-name>
      </score-instrument>
      <midi-instrument id="P2-I2">
        <midi-channel>2</midi-channel>
        <midi-program>58</midi-program>
        <volume>80</volume>
        <pan>0</pan>
      </midi-instrument>
    </score-part>
    <part-group number="1" type="stop"/>
  </part-list>
  <!--=========================================================-->
  <part id="P1">
    <measure implicit="yes" number="0" width="150">
      <print>
        <system-layout>
          <top-system-distance>63</top-system-distance>
        </system-layout>
        <measure-numbering>system</measure-numbering>
      </print>
      <attributes>
        <divisions>2</divisions>
        <key>
          <fifths>-2</fifths>
          <mode>major</mode>
        </key>
        <time>
          <beats>4</beats>
          <beat-type>4</beat-type>
        </time>
        <clef>
          <sign>G</sign>
          <line>2</line>
        </clef>
      </attributes>
      <sound tempo="100"/>
      <note default-x="100">
        <pitch>
          <step>F</step>
          <octave>4</octave>
        </pitch>
        <duration>2</duration>
        <voice>1</voice>
        <type>quarter</type>
        <stem>double</stem>
        <lyric default-y="-87" name="verse" number="1">
          <syllabic>single</syllabic>
          <text font-size="9">1.</text>
          <elision> </elision>
          <syllabic>single</syllabic>
          <text font-size="9">Rise</text>
        </lyric>
        <lyric default-y="-107" name="verse" number="2">
          <syllabic>single</syllabic>
          <text font-size="9">2.</text>
          <elision> </elision>
          <syllabic>single</syllabic>
          <text font-size="9">Rise</text>
        </lyric>
        <lyric default-y="-128" name="verse" number="3">
          <syllabic>single</syllabic>
          <text font-size="9">3.</text>
          <elision> </elision>
          <syllabic>single</syllabic>
          <text font-size="9">Rise</text>
        </lyric>
        <lyric default-y="-149" name="verse" number="4">
          <syllabic>single</syllabic>
          <text font-size="9">4.</text>
          <elision> </elision>
          <syllabic>single</syllabic>
          <text font-size="9">Lift</text>
        </lyric>
      </note>
    </measure>
    <!--=======================================================-->
    <measure number="1" width="216">
      <note default-x="17">
        <pitch>
          <step>B</step>
          <alter>-1</alter>
          <octave>4</octave>
        </pitch>
        <duration>2</duration>
        <voice>1</voice>
        <type>quarter</type>
        <stem>double</stem>
        <lyric default-y="-87" name="verse" number="1">
          <syllabic>single</syllabic>
          <text font-size="9">up,</text>
        </lyric>
        <lyric default-y="-107" name="verse" number="2">
          <syllabic>single</syllabic>
          <text font-size="9">up,</text>
        </lyric>
        <lyric default-y="-128" name="verse" number="3">
          <syllabic>single</syllabic>
          <text font-size="9">up,</text>
        </lyric>
        <lyric default-y="-149" name="verse" number="4">
          <syllabic>single</syllabic>
          <text font-size="9">high</text>
        </lyric>
      </note>
      <note default-x="66">
        <pitch>
          <step>F</step>
          <octave>4</octave>
        </pitch>
        <duration>2</duration>
        <voice>1</voice>
        <type>quarter</type>
        <stem>double</stem>
        <lyric default-y="-87" name="verse" number="1">
          <syllabic>single</syllabic>
          <text font-size="9">O</text>
        </lyric>
        <lyric default-y="-107" name="verse" number="2">
          <syllabic>single</syllabic>
          <text font-size="9">O</text>
        </lyric>
        <lyric default-y="-128" name="verse" number="3">
          <syllabic>single</syllabic>
          <text font-size="9">O</text>
        </lyric>
        <lyric default-y="-149" name="verse" number="4">
          <syllabic>single</syllabic>
          <text font-size="9">the</text>
        </lyric>
      </note>
      <note default-x="115">
        <pitch>
          <step>D</step>
          <octave>4</octave>
        </pitch>
        <duration>2</duration>
        <voice>1</voice>
        <type>quarter</type>
        <stem>double</stem>
        <lyric default-y="-87" name="verse" number="1">
          <syllabic>single</syllabic>
          <text font-size="9">men</text>
        </lyric>
        <lyric default-y="-107" name="verse" number="2">
          <syllabic>single</syllabic>
          <text font-size="9">men</text>
        </lyric>
        <lyric default-y="-128" name="verse" number="3">
          <syllabic>single</syllabic>
          <text font-size="9">men</text>
        </lyric>
        <lyric default-y="-149" name="verse" number="4">
          <syllabic>single</syllabic>
          <text font-size="9">cross</text>
        </lyric>
      </note>
      <note default-x="165">
        <pitch>
          <step>D</step>
          <octave>4</octave>
        </pitch>
        <duration>2</duration>
        <voice>1</voice>
        <type>quarter</type>
        <stem default-y="-3">up</stem>
        <lyric default-y="-87" name="verse" number="1">
          <syllabic>single</syllabic>
          <text font-size="9">of</text>
        </lyric>
        <lyric default-y="-107" name="verse" number="2">
          <syllabic>single</syllabic>
          <text font-size="9">of</text>
        </lyric>
        <lyric default-y="-128" name="verse" number="3">
          <syllabic>single</syllabic>
          <text font-size="9">of</text>
        </lyric>
        <lyric default-y="-149" name="verse" number="4">
          <syllabic>single</syllabic>
          <text font-size="9">of</text>
        </lyric>
      </note>
      <note default-x="165">
        <chord/>
        <pitch>
          <step>F</step>
          <octave>4</octave>
        </pitch>
        <duration>2</duration>
        <voice>1</voice>
        <type>quarter</type>
        <stem>up</stem>
      </note>
    </measure>
    <!--=======================================================-->
    <measure number="2" width="151">
      <note default-x="27">
        <pitch>
          <step>E</step>
          <alter>-1</alter>
          <octave>4</octave>
        </pitch>
        <duration>6</duration>
        <voice>1</voice>
        <type>half</type>
        <dot/>
        <stem default-y="2">up</stem>
        <lyric default-y="-87" name="verse" number="1">
          <syllabic>single</syllabic>
          <text font-size="9">God!</text>
        </lyric>
        <lyric default-y="-107" name="verse" number="2">
          <syllabic>single</syllabic>
          <text font-size="9">God!</text>
        </lyric>
        <lyric default-y="-128" name="verse" number="3">
          <syllabic>single</syllabic>
          <text font-size="9">God!</text>
        </lyric>
        <lyric default-y="-149" name="verse" number="4">
          <syllabic>single</syllabic>
          <text font-size="9">Christ!</text>
        </lyric>
      </note>
      <note default-x="27">
        <chord/>
        <pitch>
          <step>G</step>
          <octave>4</octave>
        </pitch>
        <duration>6</duration>
        <voice>1</voice>
        <type>half</type>
        <dot/>
        <stem>up</stem>
      </note>
      <note default-x="97">
        <pitch>
          <step>D</step>
          <octave>4</octave>
        </pitch>
        <duration>2</duration>
        <voice>1</voice>
        <type>quarter</type>
        <stem default-y="-3">up</stem>
        <lyric default-y="-87" name="verse" number="1">
          <syllabic>single</syllabic>
          <text font-size="9">Have</text>
        </lyric>
        <lyric default-y="-107" name="verse" number="2">
          <syllabic>single</syllabic>
          <text font-size="9">His</text>
        </lyric>
        <lyric default-y="-128" name="verse" number="3">
          <syllabic>single</syllabic>
          <text font-size="9">The</text>
        </lyric>
        <lyric default-y="-149" name="verse" number="4">
          <syllabic>single</syllabic>
          <text font-size="9">Tread</text>
        </lyric>
      </note>
      <note default-x="97">
        <chord/>
        <pitch>
          <step>F</step>
          <octave>4</octave>
        </pitch>
        <duration>2</duration>
        <voice>1</voice>
        <type>quarter</type>
        <stem>up</stem>
      </note>
    </measure>
    <!--=======================================================-->
    <measure number="3" width="331">
      <note default-x="30">
        <pitch>
          <step>E</step>
          <alter>-1</alter>
          <octave>4</octave>
        </pitch>
        <duration>2</duration>
        <voice>1</voice>
        <type>quarter</type>
        <stem default-y="-64">down</stem>
        <lyric default-y="-87" name="verse" number="1">
          <syllabic>single</syllabic>
          <text font-size="9">done</text>
        </lyric>
        <lyric default-y="-107" name="verse" number="2">
          <syllabic>begin</syllabic>
          <text font-size="9">King</text>
        </lyric>
        <lyric default-y="-128" name="verse" number="3">
          <syllabic>single</syllabic>
          <text font-size="9">church</text>
        </lyric>
        <lyric default-y="-149" name="verse" number="4">
          <syllabic>single</syllabic>
          <text font-size="9">where</text>
        </lyric>
      </note>
      <backup>
        <duration>2</duration>
      </backup>
      <note default-x="30">
        <pitch>
          <step>G</step>
          <octave>4</octave>
        </pitch>
        <duration>1</duration>
        <voice>2</voice>
        <type>eighth</type>
        <stem default-y="1">up</stem>
        <beam number="1">begin</beam>
      </note>
      <note default-x="62">
        <pitch>
          <step>A</step>
          <octave>4</octave>
        </pitch>
        <duration>1</duration>
        <voice>2</voice>
        <type>eighth</type>
        <stem default-y="6">up</stem>
        <beam number="1">end</beam>
      </note>
      <note default-x="99">
        <pitch>
          <step>F</step>
          <octave>4</octave>
        </pitch>
        <duration>2</duration>
        <voice>1</voice>
        <type>quarter</type>
        <stem default-y="12">up</stem>
        <lyric default-y="-87" name="verse" number="1">
          <syllabic>single</syllabic>
          <text font-size="9">with</text>
        </lyric>
        <lyric default-y="-107" name="verse" number="2">
          <syllabic>end</syllabic>
          <text font-size="9">dom</text>
        </lyric>
        <lyric default-y="-128" name="verse" number="3">
          <syllabic>single</syllabic>
          <text font-size="9">for</text>
        </lyric>
        <lyric default-y="-149" name="verse" number="4">
          <syllabic>single</syllabic>
          <text font-size="9">His</text>
        </lyric>
      </note>
      <note default-x="99">
        <chord/>
        <pitch>
          <step>B</step>
          <alter>-1</alter>
          <octave>4</octave>
        </pitch>
        <duration>2</duration>
        <voice>1</voice>
        <type>quarter</type>
        <stem>up</stem>
      </note>
      <note default-x="153">
        <pitch>
          <step>F</step>
          <octave>4</octave>
        </pitch>
        <duration>2</duration>
        <voice>1</voice>
        <type>quarter</type>
        <stem default-y="7">up</stem>
        <lyric default-y="-87" name="verse" number="1">
          <syllabic>begin</syllabic>
          <text font-size="9">less</text>
        </lyric>
        <lyric default-y="-107" name="verse" number="2">
          <syllabic>begin</syllabic>
          <text font-size="9">tar</text>
        </lyric>
        <lyric default-y="-128" name="verse" number="3">
          <syllabic>single</syllabic>
          <text font-size="9">you</text>
        </lyric>
        <lyric default-y="-149" name="verse" number="4">
          <syllabic>single</syllabic>
          <text font-size="9">feet</text>
        </lyric>
      </note>
      <note default-x="153">
        <chord/>
        <pitch>
          <step>A</step>
          <octave>4</octave>
        </pitch>
        <duration>2</duration>
        <voice>1</voice>
        <type>quarter</type>
        <stem>up</stem>
      </note>
      <note default-x="216">
        <pitch>
          <step>E</step>
          <octave>4</octave>
        </pitch>
        <duration>2</duration>
        <voice>1</voice>
        <type>quarter</type>
        <accidental>natural</accidental>
        <stem default-y="2">up</stem>
        <lyric default-y="-87" name="verse" number="1">
          <syllabic>end</syllabic>
          <text font-size="9">er</text>
        </lyric>
        <lyric default-y="-107" name="verse" number="2">
          <syllabic>end</syllabic>
          <text font-size="9">ries</text>
        </lyric>
        <lyric default-y="-128" name="verse" number="3">
          <syllabic>single</syllabic>
          <text font-size="9">doth</text>
        </lyric>
        <lyric default-y="-149" name="verse" number="4">
          <syllabic>single</syllabic>
          <text font-size="9">have</text>
        </lyric>
      </note>
      <note default-x="216">
        <chord/>
        <pitch>
          <step>G</step>
          <octave>4</octave>
        </pitch>
        <duration>2</duration>
        <voice>1</voice>
        <type>quarter</type>
        <stem>up</stem>
      </note>
    </measure>
    <!--=======================================================-->
    <measure number="4" width="848">
      <print new-page="yes">
        <page-layout>
          <page-height>1380</page-height>
          <page-width>852</page-width>
          <page-margins>
            <left-margin>0</left-margin>
            <right-margin>0</right-margin>
            <top-margin>0</top-margin>
            <bottom-margin>967</bottom-margin>
          </page-margins>
        </page-layout>
      </print>
      <note>
        <pitch>
          <step>F</step>
          <octave>4</octave>
        </pitch>
        <duration>6</duration>
        <voice>1</voice>
        <type>half</type>
        <dot/>
        <stem>double</stem>
        <lyric default-y="-87" name="verse" number="1">
          <syllabic>single</syllabic>
          <text font-size="9">things;</text>
        </lyric>
        <lyric default-y="-107" name="verse" number="2">
          <syllabic>single</syllabic>
          <text font-size="9">long;</text>
        </lyric>
        <lyric default-y="-128" name="verse" number="3">
          <syllabic>single</syllabic>
          <text font-size="9">wait,</text>
        </lyric>
        <lyric default-y="-149" name="verse" number="4">
          <syllabic>single</syllabic>
          <text font-size="9">trod;</text>
        </lyric>
      </note>
      <note>
        <pitch>
          <step>F</step>
          <octave>4</octave>
        </pitch>
        <duration>2</duration>
        <voice>1</voice>
        <type>quarter</type>
        <stem>up</stem>
        <lyric default-y="-87" name="verse" number="1">
          <syllabic>single</syllabic>
          <text font-size="9">Give</text>
        </lyric>
        <lyric default-y="-107" name="verse" number="2">
          <syllabic>single</syllabic>
          <text font-size="9">Bring</text>
        </lyric>
        <lyric default-y="-128" name="verse" number="3">
          <syllabic>single</syllabic>
          <text font-size="9">Her</text>
        </lyric>
        <lyric default-y="-149" name="verse" number="4">
          <syllabic>single</syllabic>
          <text font-size="9">As</text>
        </lyric>
      </note>
      <note>
        <chord/>
        <pitch>
          <step>C</step>
          <octave>5</octave>
        </pitch>
        <duration>2</duration>
        <voice>1</voice>
        <type>quarter</type>
        <stem>up</stem>
      </note>
    </measure>
    <!--=======================================================-->
    <measure number="5">
      <note default-x="-698">
        <pitch>
          <step>F</step>
          <octave>4</octave>
        </pitch>
        <duration>2</duration>
        <voice>1</voice>
        <type>quarter</type>
        <stem default-y="16">up</stem>
        <lyric default-y="-87" name="verse" number="1" relative-x="-3">
          <syllabic>single</syllabic>
          <text font-size="9">heart</text>
        </lyric>
        <lyric default-y="-107" name="verse" number="2">
          <syllabic>single</syllabic>
          <text font-size="9">in</text>
        </lyric>
        <lyric default-y="-128" name="verse" number="3" relative-x="3">
          <syllabic>single</syllabic>
          <text font-size="9">strength</text>
        </lyric>
        <lyric default-y="-149" name="verse" number="4">
          <syllabic>begin</syllabic>
          <text font-size="9">broth</text>
        </lyric>
      </note>
      <note default-x="-698">
        <chord/>
        <pitch>
          <step>D</step>
          <octave>5</octave>
        </pitch>
        <duration>2</duration>
        <voice>1</voice>
        <type>quarter</type>
        <stem>up</stem>
      </note>
      <note default-x="-648">
        <pitch>
          <step>F</step>
          <octave>4</octave>
        </pitch>
        <duration>2</duration>
        <voice>1</voice>
        <type>quarter</type>
        <stem default-y="-57">down</stem>
        <lyric default-y="-87" name="verse" number="1">
          <syllabic>single</syllabic>
          <text font-size="9">and</text>
        </lyric>
        <lyric default-y="-107" name="verse" number="2">
          <syllabic>single</syllabic>
          <text font-size="9">the</text>
        </lyric>
        <lyric default-y="-128" name="verse" number="3" relative-x="18">
          <syllabic>begin</syllabic>
          <text font-size="9">un</text>
        </lyric>
        <lyric default-y="-149" name="verse" number="4" relative-x="10">
          <syllabic>end</syllabic>
          <text font-size="9">ers</text>
        </lyric>
      </note>
      <backup>
        <duration>2</duration>
      </backup>
      <note default-x="-648">
        <pitch>
          <step>C</step>
          <octave>5</octave>
        </pitch>
        <duration>1</duration>
        <voice>2</voice>
        <type>eighth</type>
        <stem default-y="16">up</stem>
        <beam number="1">begin</beam>
      </note>
      <note default-x="-618">
        <pitch>
          <step>D</step>
          <octave>5</octave>
        </pitch>
        <duration>1</duration>
        <voice>2</voice>
        <type>eighth</type>
        <stem default-y="21">up</stem>
        <beam number="1">end</beam>
      </note>
      <note default-x="-587">
        <pitch>
          <step>E</step>
          <alter>-1</alter>
          <octave>4</octave>
        </pitch>
        <duration>2</duration>
        <voice>1</voice>
        <type>quarter</type>
        <stem default-y="21">up</stem>
        <lyric default-y="-87" name="verse" number="1" relative-x="-8">
          <syllabic>single</syllabic>
          <text font-size="9">mind</text>
        </lyric>
        <lyric default-y="-107" name="verse" number="2">
          <syllabic>single</syllabic>
          <text font-size="9">day</text>
        </lyric>
        <lyric default-y="-128" name="verse" number="3">
          <syllabic>middle</syllabic>
          <text font-size="9">e</text>
        </lyric>
        <lyric default-y="-149" name="verse" number="4">
          <syllabic>single</syllabic>
          <text font-size="9">of</text>
        </lyric>
      </note>
      <note default-x="-587">
        <chord/>
        <pitch>
          <step>E</step>
          <alter>-1</alter>
          <octave>5</octave>
        </pitch>
        <duration>2</duration>
        <voice>1</voice>
        <type>quarter</type>
        <stem>up</stem>
      </note>
      <note default-x="-534">
        <pitch>
          <step>F</step>
          <octave>4</octave>
        </pitch>
        <duration>2</duration>
        <voice>1</voice>
        <type>quarter</type>
        <stem default-y="16">up</stem>
        <lyric default-y="-87" name="verse" number="1" relative-x="-8">
          <syllabic>single</syllabic>
          <text font-size="9">and</text>
        </lyric>
        <lyric default-y="-107" name="verse" number="2">
          <syllabic>single</syllabic>
          <text font-size="9">of</text>
        </lyric>
        <lyric default-y="-128" name="verse" number="3">
          <syllabic>end</syllabic>
          <text font-size="9">qual</text>
        </lyric>
        <lyric default-y="-149" name="verse" number="4">
          <syllabic>single</syllabic>
          <text font-size="9">the</text>
        </lyric>
      </note>
      <note default-x="-534">
        <chord/>
        <pitch>
          <step>D</step>
          <octave>5</octave>
        </pitch>
        <duration>2</duration>
        <voice>1</voice>
        <type>quarter</type>
        <stem>up</stem>
      </note>
    </measure>
    <!--=======================================================-->
    <measure number="6">
      <note>
        <pitch>
          <step>G</step>
          <octave>4</octave>
        </pitch>
        <duration>2</duration>
        <voice>1</voice>
        <type>quarter</type>
        <stem default-y="11">up</stem>
        <lyric default-y="-87" name="verse" number="1" relative-x="-14">
          <syllabic>single</syllabic>
          <text font-size="9">soul</text>
        </lyric>
        <lyric default-y="-107" name="verse" number="2">
          <syllabic>begin</syllabic>
          <text font-size="9">broth</text>
        </lyric>
        <lyric default-y="-128" name="verse" number="3">
          <syllabic>single</syllabic>
          <text font-size="9">to</text>
        </lyric>
        <lyric default-y="-149" name="verse" number="4">
          <syllabic>single</syllabic>
          <text font-size="9">Son</text>
        </lyric>
      </note>
      <note>
        <chord/>
        <pitch>
          <step>C</step>
          <octave>5</octave>
        </pitch>
        <duration>2</duration>
        <voice>1</voice>
        <type>quarter</type>
        <stem>up</stem>
      </note>
      <note>
        <pitch>
          <step>G</step>
          <octave>4</octave>
        </pitch>
        <duration>2</duration>
        <voice>1</voice>
        <type>quarter</type>
        <stem default-y="12">up</stem>
        <lyric default-y="-87" name="verse" number="1" relative-x="-15">
          <syllabic>single</syllabic>
          <text font-size="9">and</text>
        </lyric>
        <lyric default-y="-107" name="verse" number="2" relative-x="5">
          <syllabic>middle</syllabic>
          <text font-size="9">er</text>
        </lyric>
        <lyric default-y="-128" name="verse" number="3">
          <syllabic>single</syllabic>
          <text font-size="9">her</text>
        </lyric>
        <lyric default-y="-149" name="verse" number="4">
          <syllabic>single</syllabic>
          <text font-size="9">of</text>
        </lyric>
      </note>
      <note>
        <chord/>
        <pitch>
          <step>B</step>
          <alter>-1</alter>
          <octave>4</octave>
        </pitch>
        <duration>2</duration>
        <voice>1</voice>
        <type>quarter</type>
        <stem>up</stem>
      </note>
      <note>
        <pitch>
          <step>F</step>
          <octave>4</octave>
        </pitch>
        <duration>2</duration>
        <voice>1</voice>
        <type>quarter</type>
        <stem default-y="7">up</stem>
        <lyric default-y="-87" name="verse" number="1" relative-x="-8">
          <syllabic>single</syllabic>
          <text font-size="9">strength</text>
        </lyric>
        <lyric default-y="-107" name="verse" number="2">
          <syllabic>end</syllabic>
          <text font-size="9">hood</text>
        </lyric>
        <lyric default-y="-128" name="verse" number="3">
          <syllabic>single</syllabic>
          <text font-size="9">task;</text>
        </lyric>
        <lyric default-y="-149" name="verse" number="4">
          <syllabic>single</syllabic>
          <text font-size="9">man,</text>
        </lyric>
      </note>
      <note>
        <chord/>
        <pitch>
          <step>A</step>
          <octave>4</octave>
        </pitch>
        <duration>2</duration>
        <voice>1</voice>
        <type>quarter</type>
        <stem>up</stem>
      </note>
      <note>
        <pitch>
          <step>F</step>
          <octave>4</octave>
        </pitch>
        <duration>2</duration>
        <voice>1</voice>
        <type>quarter</type>
        <stem>double</stem>
        <lyric default-y="-87" name="verse" number="1">
          <syllabic>single</syllabic>
          <text font-size="9">To</text>
        </lyric>
        <lyric default-y="-107" name="verse" number="2">
          <syllabic>single</syllabic>
          <text font-size="9">And</text>
        </lyric>
        <lyric default-y="-128" name="verse" number="3">
          <syllabic>single</syllabic>
          <text font-size="9">Rise</text>
        </lyric>
        <lyric default-y="-149" name="verse" number="4">
          <syllabic>single</syllabic>
          <text font-size="9">Rise</text>
        </lyric>
      </note>
    </measure>
    <!--=======================================================-->
    <measure number="7">
      <note>
        <pitch>
          <step>E</step>
          <alter>-1</alter>
          <octave>4</octave>
        </pitch>
        <duration>2</duration>
        <voice>1</voice>
        <type>quarter</type>
        <stem default-y="-62">down</stem>
        <lyric default-y="-87" name="verse" number="1">
          <syllabic>single</syllabic>
          <text font-size="9">serve</text>
        </lyric>
        <lyric default-y="-107" name="verse" number="2">
          <syllabic>single</syllabic>
          <text font-size="9">end</text>
        </lyric>
        <lyric default-y="-128" name="verse" number="3">
          <syllabic>single</syllabic>
          <text font-size="9">up,</text>
        </lyric>
        <lyric default-y="-149" name="verse" number="4">
          <syllabic>single</syllabic>
          <text font-size="9">up,</text>
        </lyric>
      </note>
      <backup>
        <duration>2</duration>
      </backup>
      <note>
        <pitch>
          <step>G</step>
          <octave>4</octave>
        </pitch>
        <duration>1</duration>
        <voice>2</voice>
        <type>eighth</type>
        <stem default-y="1">up</stem>
        <beam number="1">begin</beam>
      </note>
      <note>
        <pitch>
          <step>A</step>
          <octave>4</octave>
        </pitch>
        <duration>1</duration>
        <voice>2</voice>
        <type>eighth</type>
        <stem default-y="6">up</stem>
        <beam number="1">end</beam>
      </note>
      <note>
        <pitch>
          <step>F</step>
          <octave>4</octave>
        </pitch>
        <duration>2</duration>
        <voice>1</voice>
        <type>quarter</type>
        <stem default-y="12">up</stem>
        <lyric default-y="-87" name="verse" number="1" relative-x="3">
          <syllabic>single</syllabic>
          <text font-size="9">the</text>
        </lyric>
        <lyric default-y="-107" name="verse" number="2">
          <syllabic>single</syllabic>
          <text font-size="9">the</text>
        </lyric>
        <lyric default-y="-128" name="verse" number="3">
          <syllabic>single</syllabic>
          <text font-size="9">and</text>
        </lyric>
        <lyric default-y="-149" name="verse" number="4">
          <syllabic>single</syllabic>
          <text font-size="9">O</text>
        </lyric>
      </note>
      <note>
        <chord/>
        <pitch>
          <step>B</step>
          <alter>-1</alter>
          <octave>4</octave>
        </pitch>
        <duration>2</duration>
        <voice>1</voice>
        <type>quarter</type>
        <stem>up</stem>
      </note>
      <note>
        <pitch>
          <step>F</step>
          <octave>4</octave>
        </pitch>
        <duration>2</duration>
        <voice>1</voice>
        <type>quarter</type>
        <stem default-y="12">up</stem>
        <lyric default-y="-87" name="verse" number="1">
          <syllabic>single</syllabic>
          <text font-size="9">King</text>
        </lyric>
        <lyric default-y="-107" name="verse" number="2">
          <syllabic>single</syllabic>
          <text font-size="9">night</text>
        </lyric>
        <lyric default-y="-128" name="verse" number="3">
          <syllabic>single</syllabic>
          <text font-size="9">make</text>
        </lyric>
        <lyric default-y="-149" name="verse" number="4">
          <syllabic>single</syllabic>
          <text font-size="9">men</text>
        </lyric>
      </note>
      <note>
        <chord/>
        <pitch>
          <step>B</step>
          <alter>-1</alter>
          <octave>4</octave>
        </pitch>
        <duration>2</duration>
        <voice>1</voice>
        <type>quarter</type>
        <stem>up</stem>
      </note>
      <note>
        <pitch>
          <step>E</step>
          <alter>-1</alter>
          <octave>4</octave>
        </pitch>
        <duration>2</duration>
        <voice>1</voice>
        <type>quarter</type>
        <stem default-y="7">up</stem>
        <lyric default-y="-87" name="verse" number="1">
          <syllabic>single</syllabic>
          <text font-size="9">of</text>
        </lyric>
        <lyric default-y="-107" name="verse" number="2">
          <syllabic>single</syllabic>
          <text font-size="9">of</text>
        </lyric>
        <lyric default-y="-128" name="verse" number="3">
          <syllabic>single</syllabic>
          <text font-size="9">her</text>
        </lyric>
        <lyric default-y="-149" name="verse" number="4">
          <syllabic>single</syllabic>
          <text font-size="9">of</text>
        </lyric>
      </note>
      <note>
        <chord/>
        <pitch>
          <step>A</step>
          <octave>4</octave>
        </pitch>
        <duration>2</duration>
        <voice>1</voice>
        <type>quarter</type>
        <stem>up</stem>
      </note>
    </measure>
    <!--=======================================================-->
    <measure number="8">
      <note>
        <pitch>
          <step>D</step>
          <octave>4</octave>
        </pitch>
        <duration>6</duration>
        <voice>1</voice>
        <type>half</type>
        <dot/>
        <stem default-y="12">up</stem>
        <lyric default-y="-87" name="verse" number="1">
          <syllabic>single</syllabic>
          <text font-size="9">kings.</text>
        </lyric>
        <lyric default-y="-107" name="verse" number="2">
          <syllabic>single</syllabic>
          <text font-size="9">wrong.</text>
        </lyric>
        <lyric default-y="-128" name="verse" number="3">
          <syllabic>single</syllabic>
          <text font-size="9">great!</text>
        </lyric>
        <lyric default-y="-149" name="verse" number="4">
          <syllabic>single</syllabic>
          <text font-size="9">God!</text>
        </lyric>
      </note>
      <note>
        <chord/>
        <pitch>
          <step>B</step>
          <alter>-1</alter>
          <octave>4</octave>
        </pitch>
        <duration>6</duration>
        <voice>1</voice>
        <type>half</type>
        <dot/>
        <stem>up</stem>
      </note>
      <barline location="right">
        <bar-style>light-heavy</bar-style>
      </barline>
    </measure>
  </part>
  <!--=========================================================-->
  <part id="P2">
    <measure implicit="yes" number="0" width="150">
      <print>
        <staff-layout number="1">
          <staff-distance>155</staff-distance>
        </staff-layout>
        <measure-numbering>none</measure-numbering>
      </print>
      <attributes>
        <divisions>2</divisions>
        <key>
          <fifths>-2</fifths>
          <mode>major</mode>
        </key>
        <time>
          <beats>4</beats>
          <beat-type>4</beat-type>
        </time>
        <clef>
          <sign>F</sign>
          <line>4</line>
        </clef>
      </attributes>
      <sound tempo="100"/>
      <note default-x="100">
        <pitch>
          <step>F</step>
          <octave>3</octave>
        </pitch>
        <duration>2</duration>
        <voice>1</voice>
        <type>quarter</type>
        <stem>double</stem>
      </note>
    </measure>
    <!--=======================================================-->
    <measure number="1" width="216">
      <note default-x="17">
        <pitch>
          <step>B</step>
          <alter>-1</alter>
          <octave>3</octave>
        </pitch>
        <duration>2</duration>
        <voice>1</voice>
        <type>quarter</type>
        <stem>double</stem>
      </note>
      <note default-x="66">
        <pitch>
          <step>F</step>
          <octave>3</octave>
        </pitch>
        <duration>2</duration>
        <voice>1</voice>
        <type>quarter</type>
        <stem>double</stem>
      </note>
      <note default-x="115">
        <pitch>
          <step>D</step>
          <octave>3</octave>
        </pitch>
        <duration>2</duration>
        <voice>1</voice>
        <type>quarter</type>
        <stem>double</stem>
      </note>
      <note default-x="165">
        <pitch>
          <step>B</step>
          <alter>-1</alter>
          <octave>2</octave>
        </pitch>
        <duration>2</duration>
        <voice>1</voice>
        <type>quarter</type>
        <stem default-y="-56">down</stem>
      </note>
      <note default-x="165">
        <chord/>
        <pitch>
          <step>B</step>
          <alter>-1</alter>
          <octave>3</octave>
        </pitch>
        <duration>2</duration>
        <voice>1</voice>
        <type>quarter</type>
        <stem>down</stem>
      </note>
    </measure>
    <!--=======================================================-->
    <measure number="2" width="151">
      <note default-x="27">
        <pitch>
          <step>E</step>
          <alter>-1</alter>
          <octave>3</octave>
        </pitch>
        <duration>6</duration>
        <voice>1</voice>
        <type>half</type>
        <dot/>
        <stem default-y="-46.5">down</stem>
      </note>
      <note default-x="27">
        <chord/>
        <pitch>
          <step>B</step>
          <alter>-1</alter>
          <octave>3</octave>
        </pitch>
        <duration>6</duration>
        <voice>1</voice>
        <type>half</type>
        <dot/>
        <stem>down</stem>
      </note>
      <note default-x="97">
        <pitch>
          <step>B</step>
          <alter>-1</alter>
          <octave>2</octave>
        </pitch>
        <duration>2</duration>
        <voice>1</voice>
        <type>quarter</type>
        <stem default-y="-56">down</stem>
      </note>
      <note default-x="97">
        <chord/>
        <pitch>
          <step>B</step>
          <alter>-1</alter>
          <octave>3</octave>
        </pitch>
        <duration>2</duration>
        <voice>1</voice>
        <type>quarter</type>
        <stem>down</stem>
      </note>
    </measure>
    <!--=======================================================-->
    <measure number="3" width="331">
      <note default-x="30">
        <pitch>
          <step>E</step>
          <alter>-1</alter>
          <octave>3</octave>
        </pitch>
        <duration>2</duration>
        <voice>1</voice>
        <type>quarter</type>
        <stem default-y="-46.5">down</stem>
      </note>
      <backup>
        <duration>2</duration>
      </backup>
      <note default-x="30">
        <pitch>
          <step>B</step>
          <alter>-1</alter>
          <octave>3</octave>
        </pitch>
        <duration>1</duration>
        <voice>2</voice>
        <type>eighth</type>
        <stem default-y="32">up</stem>
        <beam number="1">begin</beam>
      </note>
      <note default-x="62">
        <pitch>
          <step>C</step>
          <octave>4</octave>
        </pitch>
        <duration>1</duration>
        <voice>2</voice>
        <type>eighth</type>
        <stem default-y="37">up</stem>
        <beam number="1">end</beam>
      </note>
      <note default-x="99">
        <pitch>
          <step>B</step>
          <alter>-1</alter>
          <octave>2</octave>
        </pitch>
        <duration>2</duration>
        <voice>1</voice>
        <type>quarter</type>
        <stem default-y="-56">down</stem>
      </note>
      <note default-x="99">
        <chord/>
        <pitch>
          <step>D</step>
          <octave>4</octave>
        </pitch>
        <duration>2</duration>
        <voice>1</voice>
        <type>quarter</type>
        <stem>down</stem>
      </note>
      <note default-x="153">
        <pitch>
          <step>C</step>
          <octave>3</octave>
        </pitch>
        <duration>2</duration>
        <voice>1</voice>
        <type>quarter</type>
        <stem default-y="-51">down</stem>
      </note>
      <note default-x="153">
        <chord/>
        <pitch>
          <step>C</step>
          <octave>4</octave>
        </pitch>
        <duration>2</duration>
        <voice>1</voice>
        <type>quarter</type>
        <stem>down</stem>
      </note>
      <note default-x="216">
        <pitch>
          <step>C</step>
          <octave>3</octave>
        </pitch>
        <duration>2</duration>
        <voice>1</voice>
        <type>quarter</type>
        <stem default-y="-51">down</stem>
      </note>
      <note default-x="216">
        <chord/>
        <pitch>
          <step>B</step>
          <alter>-1</alter>
          <octave>3</octave>
        </pitch>
        <duration>2</duration>
        <voice>1</voice>
        <type>quarter</type>
        <stem>down</stem>
      </note>
    </measure>
    <!--=======================================================-->
    <measure number="4" width="848">
      <print new-page="yes">
        <staff-layout number="1">
          <staff-distance>155</staff-distance>
        </staff-layout>
      </print>
      <note>
        <pitch>
          <step>F</step>
          <octave>3</octave>
        </pitch>
        <duration>6</duration>
        <voice>1</voice>
        <type>half</type>
        <dot/>
        <stem>down</stem>
      </note>
      <note>
        <chord/>
        <pitch>
          <step>A</step>
          <octave>3</octave>
        </pitch>
        <duration>6</duration>
        <voice>1</voice>
        <type>half</type>
        <dot/>
        <stem>down</stem>
      </note>
      <note>
        <pitch>
          <step>F</step>
          <octave>3</octave>
        </pitch>
        <duration>2</duration>
        <voice>1</voice>
        <type>quarter</type>
        <stem>down</stem>
      </note>
      <note>
        <chord/>
        <pitch>
          <step>A</step>
          <octave>3</octave>
        </pitch>
        <duration>2</duration>
        <voice>1</voice>
        <type>quarter</type>
        <stem>down</stem>
      </note>
    </measure>
    <!--=======================================================-->
    <measure number="5">
      <note default-x="-698">
        <pitch>
          <step>B</step>
          <alter>-1</alter>
          <octave>3</octave>
        </pitch>
        <duration>2</duration>
        <voice>1</voice>
        <type>quarter</type>
        <stem>double</stem>
      </note>
      <note default-x="-648">
        <pitch>
          <step>A</step>
          <octave>3</octave>
        </pitch>
        <duration>2</duration>
        <voice>1</voice>
        <type>quarter</type>
        <stem default-y="-31.5">down</stem>
      </note>
      <note default-x="-648">
        <chord/>
        <pitch>
          <step>C</step>
          <octave>4</octave>
        </pitch>
        <duration>2</duration>
        <voice>1</voice>
        <type>quarter</type>
        <stem>down</stem>
      </note>
      <note default-x="-587">
        <pitch>
          <step>G</step>
          <octave>3</octave>
        </pitch>
        <duration>2</duration>
        <voice>1</voice>
        <type>quarter</type>
        <stem default-y="-36.5">down</stem>
      </note>
      <note default-x="-587">
        <chord/>
        <pitch>
          <step>B</step>
          <alter>-1</alter>
          <octave>3</octave>
        </pitch>
        <duration>2</duration>
        <voice>1</voice>
        <type>quarter</type>
        <stem>down</stem>
      </note>
      <note default-x="-534">
        <pitch>
          <step>F</step>
          <octave>3</octave>
        </pitch>
        <duration>2</duration>
        <voice>1</voice>
        <type>quarter</type>
        <stem default-y="-41.5">down</stem>
      </note>
      <note default-x="-534">
        <chord/>
        <pitch>
          <step>B</step>
          <alter>-1</alter>
          <octave>3</octave>
        </pitch>
        <duration>2</duration>
        <voice>1</voice>
        <type>quarter</type>
        <stem>down</stem>
      </note>
    </measure>
    <!--=======================================================-->
    <measure number="6">
      <note>
        <pitch>
          <step>E</step>
          <alter>-1</alter>
          <octave>3</octave>
        </pitch>
        <duration>2</duration>
        <voice>1</voice>
        <type>quarter</type>
        <stem default-y="-46.5">down</stem>
      </note>
      <note>
        <chord/>
        <pitch>
          <step>E</step>
          <alter>-1</alter>
          <octave>4</octave>
        </pitch>
        <duration>2</duration>
        <voice>1</voice>
        <type>quarter</type>
        <stem>down</stem>
      </note>
      <note>
        <pitch>
          <step>E</step>
          <octave>3</octave>
        </pitch>
        <duration>2</duration>
        <voice>1</voice>
        <type>quarter</type>
        <accidental>natural</accidental>
        <stem default-y="-46.5">down</stem>
      </note>
      <note>
        <chord/>
        <pitch>
          <step>D</step>
          <octave>4</octave>
        </pitch>
        <duration>2</duration>
        <voice>1</voice>
        <type>quarter</type>
        <stem>down</stem>
      </note>
      <note>
        <pitch>
          <step>F</step>
          <octave>3</octave>
        </pitch>
        <duration>2</duration>
        <voice>1</voice>
        <type>quarter</type>
        <stem default-y="-41.5">down</stem>
      </note>
      <note>
        <chord/>
        <pitch>
          <step>C</step>
          <octave>4</octave>
        </pitch>
        <duration>2</duration>
        <voice>1</voice>
        <type>quarter</type>
        <stem>down</stem>
      </note>
      <note>
        <pitch>
          <step>D</step>
          <octave>3</octave>
        </pitch>
        <duration>2</duration>
        <voice>1</voice>
        <type>quarter</type>
        <stem default-y="-51.5">down</stem>
      </note>
      <note>
        <chord/>
        <pitch>
          <step>B</step>
          <alter>-1</alter>
          <octave>3</octave>
        </pitch>
        <duration>2</duration>
        <voice>1</voice>
        <type>quarter</type>
        <stem>down</stem>
      </note>
    </measure>
    <!--=======================================================-->
    <measure number="7">
      <note>
        <pitch>
          <step>E</step>
          <alter>-1</alter>
          <octave>3</octave>
        </pitch>
        <duration>2</duration>
        <voice>1</voice>
        <type>quarter</type>
        <stem default-y="-46.5">down</stem>
      </note>
      <backup>
        <duration>2</duration>
      </backup>
      <note>
        <pitch>
          <step>B</step>
          <alter>-1</alter>
          <octave>3</octave>
        </pitch>
        <duration>1</duration>
        <voice>2</voice>
        <type>eighth</type>
        <stem default-y="32">up</stem>
        <beam number="1">begin</beam>
      </note>
      <note>
        <pitch>
          <step>C</step>
          <octave>4</octave>
        </pitch>
        <duration>1</duration>
        <voice>2</voice>
        <type>eighth</type>
        <stem default-y="37">up</stem>
        <beam number="1">end</beam>
      </note>
      <note>
        <pitch>
          <step>D</step>
          <octave>3</octave>
        </pitch>
        <duration>1</duration>
        <voice>1</voice>
        <type>eighth</type>
        <stem default-y="-51">down</stem>
        <beam number="1">begin</beam>
      </note>
      <backup>
        <duration>1</duration>
      </backup>
      <note>
        <pitch>
          <step>D</step>
          <octave>4</octave>
        </pitch>
        <duration>2</duration>
        <voice>2</voice>
        <type>quarter</type>
        <stem default-y="37">up</stem>
      </note>
      <backup>
        <duration>1</duration>
      </backup>
      <note>
        <pitch>
          <step>E</step>
          <alter>-1</alter>
          <octave>3</octave>
        </pitch>
        <duration>1</duration>
        <voice>1</voice>
        <type>eighth</type>
        <stem default-y="-46">down</stem>
        <beam number="1">end</beam>
      </note>
      <note>
        <pitch>
          <step>F</step>
          <octave>3</octave>
        </pitch>
        <duration>2</duration>
        <voice>1</voice>
        <type>quarter</type>
        <stem default-y="-41.5">down</stem>
      </note>
      <note>
        <chord/>
        <pitch>
          <step>C</step>
          <octave>4</octave>
        </pitch>
        <duration>2</duration>
        <voice>1</voice>
        <type>quarter</type>
        <stem>down</stem>
      </note>
      <note>
        <pitch>
          <step>F</step>
          <octave>3</octave>
        </pitch>
        <duration>2</duration>
        <voice>1</voice>
        <type>quarter</type>
        <stem default-y="-41.5">down</stem>
      </note>
      <note>
        <chord/>
        <pitch>
          <step>C</step>
          <octave>4</octave>
        </pitch>
        <duration>2</duration>
        <voice>1</voice>
        <type>quarter</type>
        <stem>down</stem>
      </note>
    </measure>
    <!--=======================================================-->
    <measure number="8">
      <note>
        <pitch>
          <step>B</step>
          <alter>-1</alter>
          <octave>2</octave>
        </pitch>
        <duration>6</duration>
        <voice>1</voice>
        <type>half</type>
        <dot/>
        <stem default-y="-52">down</stem>
      </note>
      <note>
        <chord/>
        <pitch>
          <step>B</step>
          <alter>-1</alter>
          <octave>3</octave>
        </pitch>
        <duration>6</duration>
        <voice>1</voice>
        <type>half</type>
        <dot/>
        <stem>down</stem>
      </note>
      <barline location="right">
        <bar-style>light-heavy</bar-style>
      </barline>
    </measure>
  </part>
  <!--=========================================================-->
</score-partwise>
