<?xml version="1.0" encoding="UTF-8" standalone="no"?>
<!DOCTYPE score-partwise PUBLIC "-//Recordare//DTD MusicXML 3.1 Partwise//EN" "http://www.musicxml.org/dtds/partwise.dtd">
<score-partwise version="3.1">
  <identification>
    <encoding>
      <software>Finale v25 for Windows</software>
      <encoding-date>2020-07-08</encoding-date>
      <supports attribute="new-system" element="print" type="yes" value="yes"/>
      <supports attribute="new-page" element="print" type="yes" value="yes"/>
      <supports element="accidental" type="yes"/>
      <supports element="beam" type="yes"/>
      <supports element="stem" type="yes"/>
    </encoding>
  </identification>
  <defaults>
    <scaling>
      <millimeters>6.35</millimeters>
      <tenths>40</tenths>
    </scaling>
    <page-layout>
      <page-height>1380</page-height>
      <page-width>852</page-width>
      <page-margins type="both">
        <left-margin>0</left-margin>
        <right-margin>0</right-margin>
        <top-margin>0</top-margin>
        <bottom-margin>101</bottom-margin>
      </page-margins>
    </page-layout>
    <system-layout>
      <system-margins>
        <left-margin>5</left-margin>
        <right-margin>0</right-margin>
      </system-margins>
      <system-distance>50</system-distance>
      <top-system-distance>50</top-system-distance>
    </system-layout>
    <staff-layout>
      <staff-distance>153</staff-distance>
    </staff-layout>
    <appearance>
      <line-width type="stem">0.8333</line-width>
      <line-width type="beam">4.1667</line-width>
      <line-width type="staff">0.7096</line-width>
      <line-width type="light barline">0.8333</line-width>
      <line-width type="heavy barline">5</line-width>
      <line-width type="leger">0.7292</line-width>
      <line-width type="ending">0.7682</line-width>
      <line-width type="wedge">0.8333</line-width>
      <line-width type="enclosure">0.8333</line-width>
      <line-width type="tuplet bracket">0.7292</line-width>
      <note-size type="grace">55</note-size>
      <note-size type="cue">55</note-size>
      <distance type="hyphen">83</distance>
      <distance type="beam">8</distance>
    </appearance>
    <music-font font-family="Petrucci2" font-size="18"/>
    <word-font font-family="Palatino Linotype" font-size="9"/>
    <lyric-font font-family="Palatino Linotype" font-size="9"/>
  </defaults>
  <credit page="1">
    <credit-words default-y="101" font-size="7.5" valign="bottom">Music: </credit-words>
    <credit-words font-size="7.5" font-style="italic">Hundert Geistliche Arien</credit-words>
    <credit-words font-size="7.5" font-style="normal" xml:space="preserve">, Dresden, 1694
Text: Johann B. Freystein, 1697; tr. Catherine Winkworth, 1863; alt.</credit-words>
  </credit>
  <credit page="1">
    <credit-words default-x="852" default-y="101" font-size="7.5" justify="right" valign="bottom" xml:space="preserve">STRAF MICH NICHT
7 6. 7 6. 3 3. 6 6.</credit-words>
  </credit>
  <part-list>
    <part-group number="1" type="start">
      <group-symbol default-x="-2">line</group-symbol>
      <group-barline>no</group-barline>
    </part-group>
    <part-group number="2" type="start">
      <group-barline>no</group-barline>
    </part-group>
    <score-part id="P1">
      <part-name print-object="no">MusicXML Part</part-name>
      <score-instrument id="P1-I5">
        <instrument-name>None</instrument-name>
      </score-instrument>
      <midi-instrument id="P1-I5">
        <midi-channel>5</midi-channel>
        <midi-program>57</midi-program>
        <volume>80</volume>
        <pan>0</pan>
      </midi-instrument>
    </score-part>
    <score-part id="P2">
      <part-name print-object="no">MusicXML Part</part-name>
      <score-instrument id="P2-I6">
        <instrument-name>None</instrument-name>
      </score-instrument>
      <midi-instrument id="P2-I6">
        <midi-channel>6</midi-channel>
        <midi-program>58</midi-program>
        <volume>80</volume>
        <pan>0</pan>
      </midi-instrument>
    </score-part>
    <part-group number="2" type="stop"/>
    <part-group number="1" type="stop"/>
  </part-list>
  <!--=========================================================-->
  <part id="P1">
    <measure number="1" width="392">
      <print>
        <system-layout>
          <top-system-distance>75</top-system-distance>
        </system-layout>
        <measure-numbering>system</measure-numbering>
      </print>
      <attributes>
        <divisions>2</divisions>
        <key>
          <fifths>-3</fifths>
          <mode>major</mode>
        </key>
        <time>
          <beats>4</beats>
          <beat-type>4</beat-type>
        </time>
        <clef>
          <sign>G</sign>
          <line>2</line>
        </clef>
      </attributes>
      <sound tempo="100"/>
      <note default-x="125">
        <pitch>
          <step>E</step>
          <alter>-1</alter>
          <octave>4</octave>
        </pitch>
        <duration>2</duration>
        <voice>1</voice>
        <type>quarter</type>
        <stem default-y="2">up</stem>
        <lyric default-y="-82" number="1">
          <syllabic>single</syllabic>
          <text>1.</text>
          <elision> </elision>
          <syllabic>single</syllabic>
          <text>Rise,</text>
        </lyric>
        <lyric default-y="-103" number="2">
          <syllabic>single</syllabic>
          <text>2.</text>
          <elision> </elision>
          <syllabic>single</syllabic>
          <text>Watch</text>
        </lyric>
        <lyric default-y="-124" number="3">
          <syllabic>single</syllabic>
          <text font-size="8.25" font-style="italic" font-weight="bold">3.</text>
          <elision> </elision>
          <syllabic>single</syllabic>
          <text font-size="8.25" font-style="italic" font-weight="bold">Watch!</text>
        </lyric>
        <lyric default-y="-145" number="4">
          <syllabic>single</syllabic>
          <text>4.</text>
          <elision> </elision>
          <syllabic>single</syllabic>
          <text>Watch</text>
        </lyric>
        <lyric default-y="-166" number="5">
          <syllabic>single</syllabic>
          <text>5.</text>
          <elision> </elision>
          <syllabic>single</syllabic>
          <text>But</text>
        </lyric>
      </note>
      <note default-x="125">
        <chord/>
        <pitch>
          <step>G</step>
          <octave>4</octave>
        </pitch>
        <duration>2</duration>
        <voice>1</voice>
        <type>quarter</type>
        <stem>up</stem>
      </note>
      <note default-x="197">
        <pitch>
          <step>E</step>
          <alter>-1</alter>
          <octave>4</octave>
        </pitch>
        <duration>2</duration>
        <voice>1</voice>
        <type>quarter</type>
        <stem default-y="2">up</stem>
        <lyric default-y="-82" number="1">
          <syllabic>single</syllabic>
          <text>my</text>
        </lyric>
        <lyric default-y="-103" number="2">
          <syllabic>begin</syllabic>
          <text>a</text>
        </lyric>
        <lyric default-y="-124" number="3">
          <syllabic>single</syllabic>
          <text font-size="8.25" font-style="italic" font-weight="bold">Let</text>
        </lyric>
        <lyric default-y="-145" number="4">
          <syllabic>begin</syllabic>
          <text>a</text>
        </lyric>
        <lyric default-y="-166" number="5">
          <syllabic>single</syllabic>
          <text>while</text>
        </lyric>
      </note>
      <note default-x="197">
        <chord/>
        <pitch>
          <step>G</step>
          <octave>4</octave>
        </pitch>
        <duration>2</duration>
        <voice>1</voice>
        <type>quarter</type>
        <stem>up</stem>
      </note>
      <note default-x="265">
        <pitch>
          <step>D</step>
          <octave>4</octave>
        </pitch>
        <duration>2</duration>
        <voice>1</voice>
        <type>quarter</type>
        <stem default-y="12">up</stem>
        <lyric default-y="-82" number="1">
          <syllabic>single</syllabic>
          <text>soul,</text>
        </lyric>
        <lyric default-y="-103" number="2">
          <syllabic>end</syllabic>
          <text>gainst</text>
        </lyric>
        <lyric default-y="-124" number="3">
          <syllabic>single</syllabic>
          <text font-size="8.25" font-style="italic" font-weight="bold">not</text>
        </lyric>
        <lyric default-y="-145" number="4">
          <syllabic>end</syllabic>
          <text>gainst</text>
        </lyric>
        <lyric default-y="-166" number="5">
          <syllabic>begin</syllabic>
          <text>watch</text>
        </lyric>
      </note>
      <note default-x="265">
        <chord/>
        <pitch>
          <step>B</step>
          <alter>-1</alter>
          <octave>4</octave>
        </pitch>
        <duration>2</duration>
        <voice>1</voice>
        <type>quarter</type>
        <stem>up</stem>
      </note>
      <note default-x="331">
        <pitch>
          <step>D</step>
          <octave>4</octave>
        </pitch>
        <duration>2</duration>
        <voice>1</voice>
        <type>quarter</type>
        <stem default-y="12">up</stem>
        <lyric default-y="-82" number="1">
          <syllabic>single</syllabic>
          <text>to</text>
        </lyric>
        <lyric default-y="-103" number="2">
          <syllabic>single</syllabic>
          <text>the</text>
        </lyric>
        <lyric default-y="-124" number="3">
          <syllabic>single</syllabic>
          <text font-size="8.25" font-style="italic" font-weight="bold">the</text>
        </lyric>
        <lyric default-y="-145" number="4">
          <syllabic>begin</syllabic>
          <text>your</text>
        </lyric>
        <lyric default-y="-166" number="5">
          <syllabic>end</syllabic>
          <text>ing,</text>
        </lyric>
      </note>
      <note default-x="331">
        <chord/>
        <pitch>
          <step>B</step>
          <alter>-1</alter>
          <octave>4</octave>
        </pitch>
        <duration>2</duration>
        <voice>1</voice>
        <type>quarter</type>
        <stem>up</stem>
      </note>
    </measure>
    <!--=======================================================-->
    <measure number="2" width="211">
      <note default-x="27">
        <pitch>
          <step>C</step>
          <octave>4</octave>
        </pitch>
        <duration>2</duration>
        <voice>1</voice>
        <type>quarter</type>
        <stem default-y="-8">up</stem>
        <lyric default-y="-82" number="1">
          <syllabic>single</syllabic>
          <text>watch</text>
        </lyric>
        <lyric default-y="-103" number="2">
          <syllabic>begin</syllabic>
          <text>dev</text>
        </lyric>
        <lyric default-y="-124" number="3">
          <syllabic>begin</syllabic>
          <text font-size="8.25" font-style="italic" font-weight="bold">wick</text>
        </lyric>
        <lyric default-y="-145" number="4">
          <syllabic>end</syllabic>
          <text>self,</text>
        </lyric>
        <lyric default-y="-166" number="5">
          <syllabic>begin</syllabic>
          <text>al</text>
        </lyric>
      </note>
      <note default-x="27">
        <chord/>
        <pitch>
          <step>E</step>
          <alter>-1</alter>
          <octave>4</octave>
        </pitch>
        <duration>2</duration>
        <voice>1</voice>
        <type>quarter</type>
        <stem>up</stem>
      </note>
      <note default-x="88">
        <pitch>
          <step>D</step>
          <octave>4</octave>
        </pitch>
        <duration>2</duration>
        <voice>1</voice>
        <type>quarter</type>
        <stem default-y="-3">up</stem>
        <lyric default-y="-82" number="1">
          <syllabic>single</syllabic>
          <text>and</text>
        </lyric>
        <lyric default-y="-103" number="2">
          <syllabic>end</syllabic>
          <text>il’s</text>
        </lyric>
        <lyric default-y="-124" number="3">
          <syllabic>end</syllabic>
          <text font-size="8.25" font-style="italic" font-weight="bold">ed</text>
        </lyric>
        <lyric default-y="-145" number="4">
          <syllabic>single</syllabic>
          <text>my</text>
        </lyric>
        <lyric default-y="-166" number="5">
          <syllabic>end</syllabic>
          <text>so</text>
        </lyric>
      </note>
      <note default-x="88">
        <chord/>
        <pitch>
          <step>F</step>
          <octave>4</octave>
        </pitch>
        <duration>2</duration>
        <voice>1</voice>
        <type>quarter</type>
        <stem>up</stem>
      </note>
      <note default-x="148">
        <pitch>
          <step>E</step>
          <alter>-1</alter>
          <octave>4</octave>
        </pitch>
        <duration>4</duration>
        <voice>1</voice>
        <type>half</type>
        <stem default-y="2">up</stem>
        <lyric default-y="-82" number="1">
          <syllabic>single</syllabic>
          <text>pray;</text>
        </lyric>
        <lyric default-y="-103" number="2">
          <syllabic>single</syllabic>
          <text>snares</text>
        </lyric>
        <lyric default-y="-124" number="3">
          <syllabic>single</syllabic>
          <text font-size="8.25" font-style="italic" font-weight="bold">world</text>
        </lyric>
        <lyric default-y="-145" number="4">
          <syllabic>single</syllabic>
          <text>soul,</text>
        </lyric>
        <lyric default-y="-166" number="5">
          <syllabic>single</syllabic>
          <text>pray</text>
        </lyric>
      </note>
      <note default-x="148">
        <chord/>
        <pitch>
          <step>G</step>
          <octave>4</octave>
        </pitch>
        <duration>4</duration>
        <voice>1</voice>
        <type>half</type>
        <stem>up</stem>
      </note>
    </measure>
    <!--=======================================================-->
    <measure number="3" width="245">
      <note default-x="24">
        <pitch>
          <step>E</step>
          <alter>-1</alter>
          <octave>4</octave>
        </pitch>
        <duration>2</duration>
        <voice>1</voice>
        <type>quarter</type>
        <stem default-y="11">up</stem>
        <lyric default-y="-82" number="1">
          <syllabic>single</syllabic>
          <text>From</text>
        </lyric>
        <lyric default-y="-103" number="2">
          <syllabic>single</syllabic>
          <text>Lest</text>
        </lyric>
        <lyric default-y="-124" number="3">
          <syllabic>single</syllabic>
          <text font-size="8.25" font-style="italic" font-weight="bold">With</text>
        </lyric>
        <lyric default-y="-145" number="4">
          <syllabic>single</syllabic>
          <text>Lest</text>
        </lyric>
        <lyric default-y="-166" number="5">
          <syllabic>single</syllabic>
          <text>To</text>
        </lyric>
      </note>
      <note default-x="24">
        <chord/>
        <pitch>
          <step>C</step>
          <octave>5</octave>
        </pitch>
        <duration>2</duration>
        <voice>1</voice>
        <type>quarter</type>
        <stem>up</stem>
      </note>
      <note default-x="79">
        <pitch>
          <step>F</step>
          <octave>4</octave>
        </pitch>
        <duration>2</duration>
        <voice>1</voice>
        <type>quarter</type>
        <stem default-y="16">up</stem>
        <lyric default-y="-82" number="1">
          <syllabic>single</syllabic>
          <text>your</text>
        </lyric>
        <lyric default-y="-103" number="2">
          <syllabic>begin</syllabic>
          <text>a</text>
        </lyric>
        <lyric default-y="-124" number="3">
          <syllabic>single</syllabic>
          <text font-size="8.25" font-style="italic" font-weight="bold">its</text>
        </lyric>
        <lyric default-y="-145" number="4">
          <syllabic>single</syllabic>
          <text>with</text>
        </lyric>
        <lyric default-y="-166" number="5">
          <syllabic>single</syllabic>
          <text>the</text>
        </lyric>
      </note>
      <note default-x="79">
        <chord/>
        <pitch>
          <step>D</step>
          <octave>5</octave>
        </pitch>
        <duration>2</duration>
        <voice>1</voice>
        <type>quarter</type>
        <stem>up</stem>
      </note>
      <note default-x="134">
        <pitch>
          <step>G</step>
          <octave>4</octave>
        </pitch>
        <duration>2</duration>
        <voice>1</voice>
        <type>quarter</type>
        <stem default-y="-56">down</stem>
        <lyric default-y="-82" number="1">
          <syllabic>single</syllabic>
          <text>sleep</text>
        </lyric>
        <lyric default-y="-103" number="2">
          <syllabic>end</syllabic>
          <text>sleep</text>
        </lyric>
        <lyric default-y="-124" number="3">
          <syllabic>single</syllabic>
          <text font-size="8.25" font-style="italic" font-weight="bold">lies</text>
        </lyric>
        <lyric default-y="-145" number="4">
          <syllabic>single</syllabic>
          <text>grace</text>
        </lyric>
        <lyric default-y="-166" number="5">
          <syllabic>single</syllabic>
          <text>Lord</text>
        </lyric>
      </note>
      <note default-x="134">
        <chord/>
        <pitch>
          <step>E</step>
          <alter>-1</alter>
          <octave>5</octave>
        </pitch>
        <duration>2</duration>
        <voice>1</voice>
        <type>quarter</type>
        <stem>down</stem>
      </note>
      <note default-x="188">
        <pitch>
          <step>E</step>
          <alter>-1</alter>
          <octave>4</octave>
        </pitch>
        <duration>2</duration>
        <voice>1</voice>
        <type>quarter</type>
        <stem default-y="2">up</stem>
        <lyric default-y="-82" number="1">
          <syllabic>begin</syllabic>
          <text>a</text>
        </lyric>
        <lyric default-y="-103" number="2">
          <syllabic>single</syllabic>
          <text>he</text>
        </lyric>
        <lyric default-y="-124" number="3">
          <syllabic>begin</syllabic>
          <text font-size="8.25" font-style="italic" font-weight="bold">de</text>
        </lyric>
        <lyric default-y="-145" number="4">
          <syllabic>single</syllabic>
          <text>you</text>
        </lyric>
        <lyric default-y="-166" number="5">
          <syllabic>begin</syllabic>
          <text>un</text>
        </lyric>
      </note>
      <note default-x="188">
        <chord/>
        <pitch>
          <step>G</step>
          <octave>4</octave>
        </pitch>
        <duration>2</duration>
        <voice>1</voice>
        <type>quarter</type>
        <stem>up</stem>
      </note>
    </measure>
    <!--=======================================================-->
    <measure number="4" width="215">
      <print new-system="yes"/>
      <note default-x="88">
        <pitch>
          <step>F</step>
          <octave>4</octave>
        </pitch>
        <duration>4</duration>
        <voice>1</voice>
        <type>half</type>
        <stem default-y="-3">up</stem>
        <notations>
          <slur default-y="-55" number="1" placement="below" relative-x="14" type="start"/>
        </notations>
        <lyric default-y="-82" number="1">
          <syllabic>middle</syllabic>
          <text>wak</text>
        </lyric>
        <lyric default-y="-103" number="2">
          <syllabic>single</syllabic>
          <text>find</text>
        </lyric>
        <lyric default-y="-124" number="3">
          <syllabic>end</syllabic>
          <text font-size="8.25" font-style="italic" font-weight="bold">feat</text>
        </lyric>
        <lyric default-y="-145" number="4">
          <syllabic>begin</syllabic>
          <text>tri</text>
        </lyric>
        <lyric default-y="-166" number="5">
          <syllabic>middle</syllabic>
          <text>ceas</text>
        </lyric>
      </note>
      <backup>
        <duration>4</duration>
      </backup>
      <note default-x="97">
        <pitch>
          <step>E</step>
          <alter>-1</alter>
          <octave>4</octave>
        </pitch>
        <duration>2</duration>
        <voice>2</voice>
        <type>quarter</type>
        <stem default-y="-64">down</stem>
      </note>
      <note default-x="130">
        <pitch>
          <step>D</step>
          <octave>4</octave>
        </pitch>
        <duration>2</duration>
        <voice>2</voice>
        <type>quarter</type>
        <stem default-y="-69">down</stem>
        <notations>
          <slur default-y="-60" number="1" type="stop"/>
        </notations>
      </note>
      <note default-x="172">
        <pitch>
          <step>E</step>
          <alter>-1</alter>
          <octave>4</octave>
        </pitch>
        <duration>4</duration>
        <voice>1</voice>
        <type>half</type>
        <stem>double</stem>
        <lyric default-y="-82" number="1">
          <syllabic>end</syllabic>
          <text>en!</text>
        </lyric>
        <lyric default-y="-103" number="2">
          <syllabic>single</syllabic>
          <text>you;</text>
        </lyric>
        <lyric default-y="-124" number="3">
          <syllabic>single</syllabic>
          <text font-size="8.25" font-style="italic" font-weight="bold">you</text>
        </lyric>
        <lyric default-y="-145" number="4">
          <syllabic>end</syllabic>
          <text>fle;</text>
        </lyric>
        <lyric default-y="-166" number="5">
          <syllabic>end</syllabic>
          <text>ing.</text>
        </lyric>
      </note>
    </measure>
    <!--=======================================================-->
    <measure number="5" width="245">
      <note default-x="18">
        <pitch>
          <step>E</step>
          <alter>-1</alter>
          <octave>4</octave>
        </pitch>
        <duration>2</duration>
        <voice>1</voice>
        <type>quarter</type>
        <stem default-y="2">up</stem>
        <lyric default-y="-82" number="1" relative-x="3">
          <syllabic>single</syllabic>
          <text>Be</text>
        </lyric>
        <lyric default-y="-103" number="2" relative-x="3">
          <syllabic>single</syllabic>
          <text>For</text>
        </lyric>
        <lyric default-y="-124" number="3" relative-x="3">
          <syllabic>single</syllabic>
          <text font-size="8.25" font-style="italic" font-weight="bold">Lest</text>
        </lyric>
        <lyric default-y="-145" number="4" relative-x="3">
          <syllabic>single</syllabic>
          <text>Let</text>
        </lyric>
        <lyric default-y="-166" number="5" relative-x="3">
          <syllabic>single</syllabic>
          <text>God</text>
        </lyric>
      </note>
      <note default-x="18">
        <chord/>
        <pitch>
          <step>G</step>
          <octave>4</octave>
        </pitch>
        <duration>2</duration>
        <voice>1</voice>
        <type>quarter</type>
        <stem>up</stem>
      </note>
      <note default-x="76">
        <pitch>
          <step>E</step>
          <alter>-1</alter>
          <octave>4</octave>
        </pitch>
        <duration>2</duration>
        <voice>1</voice>
        <type>quarter</type>
        <stem default-y="2">up</stem>
        <lyric default-y="-82" number="1">
          <syllabic>single</syllabic>
          <text>not</text>
        </lyric>
        <lyric default-y="-103" number="2">
          <syllabic>begin</syllabic>
          <text>in</text>
        </lyric>
        <lyric default-y="-124" number="3">
          <syllabic>single</syllabic>
          <text font-size="8.25" font-style="italic" font-weight="bold">with</text>
        </lyric>
        <lyric default-y="-145" number="4">
          <syllabic>single</syllabic>
          <text>not</text>
        </lyric>
        <lyric default-y="-166" number="5">
          <syllabic>begin</syllabic>
          <text>pro</text>
        </lyric>
      </note>
      <note default-x="76">
        <chord/>
        <pitch>
          <step>G</step>
          <octave>4</octave>
        </pitch>
        <duration>2</duration>
        <voice>1</voice>
        <type>quarter</type>
        <stem>up</stem>
      </note>
      <note default-x="134">
        <pitch>
          <step>D</step>
          <octave>4</octave>
        </pitch>
        <duration>2</duration>
        <voice>1</voice>
        <type>quarter</type>
        <stem default-y="12">up</stem>
        <lyric default-y="-82" number="1">
          <syllabic>single</syllabic>
          <text>by</text>
        </lyric>
        <lyric default-y="-103" number="2">
          <syllabic>end</syllabic>
          <text>deed</text>
        </lyric>
        <lyric default-y="-124" number="3">
          <syllabic>single</syllabic>
          <text font-size="8.25" font-style="italic" font-weight="bold">bold</text>
        </lyric>
        <lyric default-y="-145" number="4">
          <syllabic>single</syllabic>
          <text>self</text>
        </lyric>
        <lyric default-y="-166" number="5">
          <syllabic>end</syllabic>
          <text>tects</text>
        </lyric>
      </note>
      <note default-x="134">
        <chord/>
        <pitch>
          <step>B</step>
          <alter>-1</alter>
          <octave>4</octave>
        </pitch>
        <duration>2</duration>
        <voice>1</voice>
        <type>quarter</type>
        <stem>up</stem>
      </note>
      <note default-x="199">
        <pitch>
          <step>D</step>
          <octave>4</octave>
        </pitch>
        <duration>2</duration>
        <voice>1</voice>
        <type>quarter</type>
        <stem default-y="12">up</stem>
        <lyric default-y="-82" number="1">
          <syllabic>single</syllabic>
          <text>the</text>
        </lyric>
        <lyric default-y="-103" number="2">
          <syllabic>single</syllabic>
          <text>no</text>
        </lyric>
        <lyric default-y="-124" number="3">
          <syllabic>begin</syllabic>
          <text font-size="8.25" font-style="italic" font-weight="bold">de</text>
        </lyric>
        <lyric default-y="-145" number="4">
          <syllabic>single</syllabic>
          <text>your</text>
        </lyric>
        <lyric default-y="-166" number="5">
          <syllabic>single</syllabic>
          <text>you</text>
        </lyric>
      </note>
      <note default-x="199">
        <chord/>
        <pitch>
          <step>B</step>
          <alter>-1</alter>
          <octave>4</octave>
        </pitch>
        <duration>2</duration>
        <voice>1</voice>
        <type>quarter</type>
        <stem>up</stem>
      </note>
    </measure>
    <!--=======================================================-->
    <measure number="6" width="388">
      <note default-x="40">
        <pitch>
          <step>C</step>
          <octave>4</octave>
        </pitch>
        <duration>2</duration>
        <voice>1</voice>
        <type>quarter</type>
        <stem default-y="-8">up</stem>
        <lyric default-y="-82" number="1">
          <syllabic>begin</syllabic>
          <text>e</text>
        </lyric>
        <lyric default-y="-103" number="2">
          <syllabic>single</syllabic>
          <text>pains</text>
        </lyric>
        <lyric default-y="-124" number="3">
          <syllabic>middle</syllabic>
          <text font-size="8.25" font-style="italic" font-weight="bold">cep</text>
        </lyric>
        <lyric default-y="-145" number="4">
          <syllabic>single</syllabic>
          <text>thoughts</text>
        </lyric>
        <lyric default-y="-166" number="5">
          <syllabic>single</syllabic>
          <text>day</text>
        </lyric>
      </note>
      <note default-x="40">
        <chord/>
        <pitch>
          <step>E</step>
          <alter>-1</alter>
          <octave>4</octave>
        </pitch>
        <duration>2</duration>
        <voice>1</voice>
        <type>quarter</type>
        <stem>up</stem>
      </note>
      <note default-x="110">
        <pitch>
          <step>D</step>
          <octave>4</octave>
        </pitch>
        <duration>2</duration>
        <voice>1</voice>
        <type>quarter</type>
        <stem default-y="-3">up</stem>
        <lyric default-y="-82" number="1">
          <syllabic>end</syllabic>
          <text>vil</text>
        </lyric>
        <lyric default-y="-103" number="2">
          <syllabic>single</syllabic>
          <text>he</text>
        </lyric>
        <lyric default-y="-124" number="3">
          <syllabic>end</syllabic>
          <text font-size="8.25" font-style="italic" font-weight="bold">tions</text>
        </lyric>
        <lyric default-y="-145" number="4">
          <syllabic>begin</syllabic>
          <text>con</text>
        </lyric>
        <lyric default-y="-166" number="5">
          <syllabic>single</syllabic>
          <text>by</text>
        </lyric>
      </note>
      <note default-x="110">
        <chord/>
        <pitch>
          <step>F</step>
          <octave>4</octave>
        </pitch>
        <duration>2</duration>
        <voice>1</voice>
        <type>quarter</type>
        <stem>up</stem>
      </note>
      <note default-x="172">
        <pitch>
          <step>E</step>
          <alter>-1</alter>
          <octave>4</octave>
        </pitch>
        <duration>4</duration>
        <voice>1</voice>
        <type>half</type>
        <stem default-y="2">up</stem>
        <lyric default-y="-82" number="1">
          <syllabic>single</syllabic>
          <text>day</text>
        </lyric>
        <lyric default-y="-103" number="2">
          <syllabic>single</syllabic>
          <text>spares</text>
        </lyric>
        <lyric default-y="-124" number="3">
          <syllabic>single</syllabic>
          <text font-size="8.25" font-style="italic" font-weight="bold">hurled</text>
        </lyric>
        <lyric default-y="-145" number="4">
          <syllabic>end</syllabic>
          <text>trol</text>
        </lyric>
        <lyric default-y="-166" number="5">
          <syllabic>single</syllabic>
          <text>day,</text>
        </lyric>
      </note>
      <note default-x="172">
        <chord/>
        <pitch>
          <step>G</step>
          <octave>4</octave>
        </pitch>
        <duration>4</duration>
        <voice>1</voice>
        <type>half</type>
        <stem>up</stem>
      </note>
    </measure>
    <!--=======================================================-->
    <measure number="7" width="847">
      <print new-system="yes"/>
      <note default-x="722">
        <pitch>
          <step>E</step>
          <alter>-1</alter>
          <octave>4</octave>
        </pitch>
        <duration>2</duration>
        <voice>1</voice>
        <type>quarter</type>
        <stem default-y="11">up</stem>
        <lyric default-y="-82" number="1" relative-x="5">
          <syllabic>begin</syllabic>
          <text>Un</text>
        </lyric>
        <lyric default-y="-103" number="2" relative-x="5">
          <syllabic>single</syllabic>
          <text>To</text>
        </lyric>
        <lyric default-y="-124" number="3" relative-x="5">
          <syllabic>single</syllabic>
          <text font-size="8.25" font-style="italic" font-weight="bold">It</text>
        </lyric>
        <lyric default-y="-145" number="4" relative-x="5">
          <syllabic>single</syllabic>
          <text>Nor</text>
        </lyric>
        <lyric default-y="-166" number="5" relative-x="5">
          <syllabic>single</syllabic>
          <text>Strength</text>
        </lyric>
      </note>
      <note default-x="722">
        <chord/>
        <pitch>
          <step>C</step>
          <octave>5</octave>
        </pitch>
        <duration>2</duration>
        <voice>1</voice>
        <type>quarter</type>
        <stem>up</stem>
      </note>
      <note default-x="793">
        <pitch>
          <step>F</step>
          <octave>4</octave>
        </pitch>
        <duration>2</duration>
        <voice>1</voice>
        <type>quarter</type>
        <stem default-y="16">up</stem>
        <lyric default-y="-82" number="1">
          <syllabic>middle</syllabic>
          <text>a</text>
        </lyric>
        <lyric default-y="-103" number="2">
          <syllabic>begin</syllabic>
          <text>de</text>
        </lyric>
        <lyric default-y="-124" number="3">
          <syllabic>begin</syllabic>
          <text font-size="8.25" font-style="italic" font-weight="bold">be</text>
        </lyric>
        <lyric default-y="-145" number="4">
          <syllabic>single</syllabic>
          <text>God’s</text>
        </lyric>
        <lyric default-y="-166" number="5">
          <syllabic>single</syllabic>
          <text>and</text>
        </lyric>
      </note>
      <note default-x="793">
        <chord/>
        <pitch>
          <step>D</step>
          <octave>5</octave>
        </pitch>
        <duration>2</duration>
        <voice>1</voice>
        <type>quarter</type>
        <stem>up</stem>
      </note>
      <note default-x="85">
        <pitch>
          <step>G</step>
          <octave>4</octave>
        </pitch>
        <duration>2</duration>
        <voice>1</voice>
        <type>quarter</type>
        <stem default-y="-347.5">down</stem>
        <lyric default-y="-82" number="1">
          <syllabic>end</syllabic>
          <text>wares</text>
        </lyric>
        <lyric default-y="-103" number="2">
          <syllabic>end</syllabic>
          <text>ceive</text>
        </lyric>
        <lyric default-y="-124" number="3">
          <syllabic>end</syllabic>
          <text font-size="8.25" font-style="italic" font-weight="bold">tray</text>
        </lyric>
        <lyric default-y="-145" number="4">
          <syllabic>begin</syllabic>
          <text>mer</text>
        </lyric>
        <lyric default-y="-166" number="5">
          <syllabic>single</syllabic>
          <text>faith</text>
        </lyric>
      </note>
      <note default-x="85">
        <chord/>
        <pitch>
          <step>E</step>
          <alter>-1</alter>
          <octave>5</octave>
        </pitch>
        <duration>2</duration>
        <voice>1</voice>
        <type>quarter</type>
        <stem>down</stem>
      </note>
      <note default-x="146">
        <pitch>
          <step>E</step>
          <alter>-1</alter>
          <octave>4</octave>
        </pitch>
        <duration>2</duration>
        <voice>1</voice>
        <type>quarter</type>
        <stem default-y="-289">up</stem>
        <lyric default-y="-82" number="1">
          <syllabic>begin</syllabic>
          <text>o’er</text>
        </lyric>
        <lyric default-y="-103" number="2">
          <syllabic>single</syllabic>
          <text>and</text>
        </lyric>
        <lyric default-y="-124" number="3">
          <syllabic>single</syllabic>
          <text font-size="8.25" font-style="italic" font-weight="bold">and</text>
        </lyric>
        <lyric default-y="-145" number="4">
          <syllabic>end</syllabic>
          <text>cy</text>
        </lyric>
        <lyric default-y="-166" number="5">
          <syllabic>begin</syllabic>
          <text>in</text>
        </lyric>
      </note>
      <note default-x="146">
        <chord/>
        <pitch>
          <step>G</step>
          <octave>4</octave>
        </pitch>
        <duration>2</duration>
        <voice>1</voice>
        <type>quarter</type>
        <stem>up</stem>
      </note>
    </measure>
    <!--=======================================================-->
    <measure number="8">
      <note default-x="-627">
        <pitch>
          <step>F</step>
          <octave>4</octave>
        </pitch>
        <duration>4</duration>
        <voice>1</voice>
        <type>half</type>
        <stem default-y="-3">up</stem>
        <notations>
          <slur default-y="-55" number="1" placement="below" relative-x="15" type="start"/>
        </notations>
        <lyric default-y="-82" number="1">
          <syllabic>middle</syllabic>
          <text>tak</text>
        </lyric>
        <lyric default-y="-103" number="2">
          <syllabic>single</syllabic>
          <text>blind</text>
        </lyric>
        <lyric default-y="-124" number="3">
          <syllabic>single</syllabic>
          <text font-size="8.25" font-style="italic" font-weight="bold">cheat</text>
        </lyric>
        <lyric default-y="-145" number="4">
          <syllabic>begin</syllabic>
          <text>sti</text>
        </lyric>
        <lyric default-y="-166" number="5">
          <syllabic>middle</syllabic>
          <text>creas</text>
        </lyric>
      </note>
      <backup>
        <duration>4</duration>
      </backup>
      <note default-x="-619">
        <pitch>
          <step>E</step>
          <alter>-1</alter>
          <octave>4</octave>
        </pitch>
        <duration>2</duration>
        <voice>2</voice>
        <type>quarter</type>
        <stem default-y="-64.5">down</stem>
      </note>
      <note default-x="-581">
        <pitch>
          <step>D</step>
          <octave>4</octave>
        </pitch>
        <duration>2</duration>
        <voice>2</voice>
        <type>quarter</type>
        <stem default-y="-69.5">down</stem>
        <notations>
          <slur default-y="-59" number="1" type="stop"/>
        </notations>
      </note>
      <note default-x="-539">
        <pitch>
          <step>E</step>
          <alter>-1</alter>
          <octave>4</octave>
        </pitch>
        <duration>4</duration>
        <voice>1</voice>
        <type>half</type>
        <stem>double</stem>
        <lyric default-y="-82" number="1">
          <syllabic>end</syllabic>
          <text>en;</text>
        </lyric>
        <lyric default-y="-103" number="2">
          <syllabic>single</syllabic>
          <text>you.</text>
        </lyric>
        <lyric default-y="-124" number="3">
          <syllabic>single</syllabic>
          <text font-size="8.25" font-style="italic" font-weight="bold">you.</text>
        </lyric>
        <lyric default-y="-145" number="4">
          <syllabic>end</syllabic>
          <text>fle.</text>
        </lyric>
        <lyric default-y="-166" number="5">
          <syllabic>end</syllabic>
          <text>ing.</text>
        </lyric>
      </note>
    </measure>
    <!--=======================================================-->
    <measure number="9">
      <note>
        <pitch>
          <step>B</step>
          <alter>-1</alter>
          <octave>3</octave>
        </pitch>
        <duration>2</duration>
        <voice>1</voice>
        <type>quarter</type>
        <stem default-y="12">up</stem>
        <lyric default-y="-82" number="1">
          <syllabic>single</syllabic>
          <text>For</text>
        </lyric>
        <lyric default-y="-103" number="2">
          <syllabic>begin</syllabic>
          <text>Sa</text>
        </lyric>
        <lyric default-y="-124" number="3">
          <syllabic>single</syllabic>
          <text font-size="8.25" font-style="italic" font-weight="bold">Watch</text>
        </lyric>
        <lyric default-y="-145" number="4">
          <syllabic>single</syllabic>
          <text>Pride</text>
        </lyric>
        <lyric default-y="-166" number="5">
          <syllabic>single</syllabic>
          <text>So</text>
        </lyric>
      </note>
      <note>
        <chord/>
        <pitch>
          <step>B</step>
          <alter>-1</alter>
          <octave>4</octave>
        </pitch>
        <duration>2</duration>
        <voice>1</voice>
        <type>quarter</type>
        <stem>up</stem>
      </note>
      <note>
        <pitch>
          <step>D</step>
          <octave>4</octave>
        </pitch>
        <duration>2</duration>
        <voice>1</voice>
        <type>quarter</type>
        <stem default-y="-3">up</stem>
        <lyric default-y="-82" number="1">
          <syllabic>single</syllabic>
          <text>the</text>
        </lyric>
        <lyric default-y="-103" number="2">
          <syllabic>end</syllabic>
          <text>tan’s</text>
        </lyric>
        <lyric default-y="-124" number="3">
          <syllabic>single</syllabic>
          <text font-size="8.25" font-style="italic" font-weight="bold">and</text>
        </lyric>
        <lyric default-y="-145" number="4">
          <syllabic>single</syllabic>
          <text>and</text>
        </lyric>
        <lyric default-y="-166" number="5">
          <syllabic>single</syllabic>
          <text>that</text>
        </lyric>
      </note>
      <note>
        <chord/>
        <pitch>
          <step>F</step>
          <octave>4</octave>
        </pitch>
        <duration>2</duration>
        <voice>1</voice>
        <type>quarter</type>
        <stem>up</stem>
      </note>
      <note>
        <pitch>
          <step>E</step>
          <alter>-1</alter>
          <octave>4</octave>
        </pitch>
        <duration>4</duration>
        <voice>1</voice>
        <type>half</type>
        <stem default-y="2">up</stem>
        <lyric default-y="-82" number="1">
          <syllabic>single</syllabic>
          <text>foe,</text>
        </lyric>
        <lyric default-y="-103" number="2">
          <syllabic>single</syllabic>
          <text>prey</text>
        </lyric>
        <lyric default-y="-124" number="3">
          <syllabic>single</syllabic>
          <text font-size="8.25" font-style="italic" font-weight="bold">see</text>
        </lyric>
        <lyric default-y="-145" number="4">
          <syllabic>single</syllabic>
          <text>sin</text>
        </lyric>
        <lyric default-y="-166" number="5">
          <syllabic>single</syllabic>
          <text>still</text>
        </lyric>
      </note>
      <note>
        <chord/>
        <pitch>
          <step>G</step>
          <octave>4</octave>
        </pitch>
        <duration>4</duration>
        <voice>1</voice>
        <type>half</type>
        <stem>up</stem>
      </note>
    </measure>
    <!--=======================================================-->
    <measure number="10">
      <note>
        <pitch>
          <step>C</step>
          <octave>4</octave>
        </pitch>
        <duration>2</duration>
        <voice>1</voice>
        <type>quarter</type>
        <stem default-y="11.5">up</stem>
        <lyric default-y="-82" number="1">
          <syllabic>single</syllabic>
          <text>Well</text>
        </lyric>
        <lyric default-y="-103" number="2">
          <syllabic>single</syllabic>
          <text>Oft</text>
        </lyric>
        <lyric default-y="-124" number="3">
          <syllabic>single</syllabic>
          <text font-size="8.25" font-style="italic" font-weight="bold">Lest</text>
        </lyric>
        <lyric default-y="-145" number="4">
          <syllabic>single</syllabic>
          <text>Lurk</text>
        </lyric>
        <lyric default-y="-166" number="5">
          <syllabic>single</syllabic>
          <text>Mind</text>
        </lyric>
      </note>
      <note>
        <chord/>
        <pitch>
          <step>C</step>
          <octave>5</octave>
        </pitch>
        <duration>2</duration>
        <voice>1</voice>
        <type>quarter</type>
        <stem>up</stem>
      </note>
      <note>
        <pitch>
          <step>E</step>
          <octave>4</octave>
        </pitch>
        <duration>2</duration>
        <voice>1</voice>
        <type>quarter</type>
        <accidental>natural</accidental>
        <stem default-y="2">up</stem>
        <lyric default-y="-82" number="1">
          <syllabic>single</syllabic>
          <text>we</text>
        </lyric>
        <lyric default-y="-103" number="2">
          <syllabic>single</syllabic>
          <text>are</text>
        </lyric>
        <lyric default-y="-124" number="3">
          <syllabic>single</syllabic>
          <text font-size="8.25" font-style="italic" font-weight="bold">there</text>
        </lyric>
        <lyric default-y="-145" number="4">
          <syllabic>begin</syllabic>
          <text>with</text>
        </lyric>
        <lyric default-y="-166" number="5">
          <syllabic>single</syllabic>
          <text>and</text>
        </lyric>
      </note>
      <note>
        <chord/>
        <pitch>
          <step>G</step>
          <octave>4</octave>
        </pitch>
        <duration>2</duration>
        <voice>1</voice>
        <type>quarter</type>
        <stem>up</stem>
      </note>
      <note>
        <pitch>
          <step>F</step>
          <octave>4</octave>
        </pitch>
        <duration>4</duration>
        <voice>1</voice>
        <type>half</type>
        <stem default-y="7">up</stem>
        <lyric default-y="-82" number="1">
          <syllabic>single</syllabic>
          <text>know,</text>
        </lyric>
        <lyric default-y="-103" number="2">
          <syllabic>single</syllabic>
          <text>they</text>
        </lyric>
        <lyric default-y="-124" number="3">
          <syllabic>single</syllabic>
          <text font-size="8.25" font-style="italic" font-weight="bold">be</text>
        </lyric>
        <lyric default-y="-145" number="4">
          <syllabic>end</syllabic>
          <text>in,</text>
        </lyric>
        <lyric default-y="-166" number="5">
          <syllabic>single</syllabic>
          <text>will</text>
        </lyric>
      </note>
      <note>
        <chord/>
        <pitch>
          <step>A</step>
          <octave>4</octave>
        </pitch>
        <duration>4</duration>
        <voice>1</voice>
        <type>half</type>
        <accidental>natural</accidental>
        <stem>up</stem>
      </note>
    </measure>
    <!--=======================================================-->
    <measure number="11" width="848">
      <print new-system="yes"/>
      <note default-x="758">
        <pitch>
          <step>F</step>
          <octave>4</octave>
        </pitch>
        <duration>2</duration>
        <voice>1</voice>
        <type>quarter</type>
        <stem default-y="12">up</stem>
        <lyric default-y="-82" number="1">
          <syllabic>single</syllabic>
          <text>Is</text>
        </lyric>
        <lyric default-y="-103" number="2">
          <syllabic>single</syllabic>
          <text>Who</text>
        </lyric>
        <lyric default-y="-124" number="3">
          <syllabic>begin</syllabic>
          <text font-size="8.25" font-style="italic" font-weight="bold">Faith</text>
        </lyric>
        <lyric default-y="-145" number="4">
          <syllabic>single</syllabic>
          <text>All</text>
        </lyric>
        <lyric default-y="-166" number="5">
          <syllabic>single</syllabic>
          <text>Shall</text>
        </lyric>
      </note>
      <note default-x="758">
        <chord/>
        <pitch>
          <step>B</step>
          <alter>-1</alter>
          <octave>4</octave>
        </pitch>
        <duration>2</duration>
        <voice>1</voice>
        <type>quarter</type>
        <stem>up</stem>
      </note>
      <note default-x="815">
        <pitch>
          <step>E</step>
          <alter>-1</alter>
          <octave>4</octave>
        </pitch>
        <duration>2</duration>
        <voice>1</voice>
        <type>quarter</type>
        <stem default-y="7">up</stem>
        <lyric default-y="-82" number="1">
          <syllabic>single</syllabic>
          <text>a</text>
        </lyric>
        <lyric default-y="-103" number="2">
          <syllabic>begin</syllabic>
          <text>se</text>
        </lyric>
        <lyric default-y="-124" number="3">
          <syllabic>end</syllabic>
          <text font-size="8.25" font-style="italic" font-weight="bold">less</text>
        </lyric>
        <lyric default-y="-145" number="4">
          <syllabic>single</syllabic>
          <text>our</text>
        </lyric>
        <lyric default-y="-166" number="5">
          <syllabic>begin</syllabic>
          <text>u</text>
        </lyric>
      </note>
      <note default-x="815">
        <chord/>
        <pitch>
          <step>A</step>
          <octave>4</octave>
        </pitch>
        <duration>2</duration>
        <voice>1</voice>
        <type>quarter</type>
        <accidental>natural</accidental>
        <stem>up</stem>
      </note>
      <note default-x="97">
        <pitch>
          <step>F</step>
          <octave>4</octave>
        </pitch>
        <duration>2</duration>
        <voice>1</voice>
        <type>quarter</type>
        <stem default-y="-283.5">up</stem>
        <lyric default-y="-82" number="1">
          <syllabic>begin</syllabic>
          <text>har</text>
        </lyric>
        <lyric default-y="-103" number="2">
          <syllabic>end</syllabic>
          <text>cure</text>
        </lyric>
        <lyric default-y="-124" number="3">
          <syllabic>single</syllabic>
          <text font-size="8.25" font-style="italic" font-weight="bold">friends</text>
        </lyric>
        <lyric default-y="-145" number="4">
          <syllabic>single</syllabic>
          <text>hopes</text>
        </lyric>
        <lyric default-y="-166" number="5">
          <syllabic>end</syllabic>
          <text>nite</text>
        </lyric>
      </note>
      <note default-x="97">
        <chord/>
        <pitch>
          <step>B</step>
          <alter>-1</alter>
          <octave>4</octave>
        </pitch>
        <duration>2</duration>
        <voice>1</voice>
        <type>quarter</type>
        <stem>up</stem>
      </note>
      <note default-x="163">
        <pitch>
          <step>F</step>
          <octave>4</octave>
        </pitch>
        <duration>2</duration>
        <voice>1</voice>
        <type>quarter</type>
        <stem default-y="-279">up</stem>
        <lyric default-y="-82" number="1">
          <syllabic>end</syllabic>
          <text>vest</text>
        </lyric>
        <lyric default-y="-103" number="2">
          <syllabic>single</syllabic>
          <text>are</text>
        </lyric>
        <lyric default-y="-124" number="3">
          <syllabic>single</syllabic>
          <text font-size="8.25" font-style="italic" font-weight="bold">to</text>
        </lyric>
        <lyric default-y="-145" number="4">
          <syllabic>single</syllabic>
          <text>to</text>
        </lyric>
        <lyric default-y="-166" number="5">
          <syllabic>single</syllabic>
          <text>to</text>
        </lyric>
      </note>
      <note default-x="163">
        <chord/>
        <pitch>
          <step>D</step>
          <octave>5</octave>
        </pitch>
        <duration>2</duration>
        <voice>1</voice>
        <type>quarter</type>
        <stem>up</stem>
      </note>
    </measure>
    <!--=======================================================-->
    <measure number="12">
      <note default-x="-588">
        <pitch>
          <step>F</step>
          <octave>4</octave>
        </pitch>
        <duration>4</duration>
        <voice>1</voice>
        <type>half</type>
        <stem default-y="11">up</stem>
        <lyric default-y="-82" number="1">
          <syllabic>begin</syllabic>
          <text>reap</text>
        </lyric>
        <lyric default-y="-103" number="2">
          <syllabic>begin</syllabic>
          <text>sleep</text>
        </lyric>
        <lyric default-y="-124" number="3">
          <syllabic>single</syllabic>
          <text font-size="8.25" font-style="italic" font-weight="bold">charm</text>
        </lyric>
        <lyric default-y="-145" number="4">
          <syllabic>begin</syllabic>
          <text>shat</text>
        </lyric>
        <lyric default-y="-166" number="5">
          <syllabic>single</syllabic>
          <text>serve</text>
        </lyric>
      </note>
      <note default-x="-588">
        <chord/>
        <pitch>
          <step>C</step>
          <octave>5</octave>
        </pitch>
        <duration>4</duration>
        <voice>1</voice>
        <type>half</type>
        <stem>up</stem>
      </note>
      <note default-x="-502">
        <pitch>
          <step>D</step>
          <octave>4</octave>
        </pitch>
        <duration>4</duration>
        <voice>1</voice>
        <type>half</type>
        <stem default-y="12">up</stem>
        <lyric default-y="-82" number="1">
          <syllabic>end</syllabic>
          <text>ing</text>
        </lyric>
        <lyric default-y="-103" number="2">
          <syllabic>end</syllabic>
          <text>ing</text>
        </lyric>
        <lyric default-y="-124" number="3">
          <syllabic>single</syllabic>
          <text font-size="8.25" font-style="italic" font-weight="bold">you,</text>
        </lyric>
        <lyric default-y="-145" number="4">
          <syllabic>end</syllabic>
          <text>ter;</text>
        </lyric>
        <lyric default-y="-166" number="5">
          <syllabic>single</syllabic>
          <text>Him</text>
        </lyric>
      </note>
      <note default-x="-502">
        <chord/>
        <pitch>
          <step>B</step>
          <alter>-1</alter>
          <octave>4</octave>
        </pitch>
        <duration>4</duration>
        <voice>1</voice>
        <type>half</type>
        <stem>up</stem>
      </note>
    </measure>
    <!--=======================================================-->
    <measure number="13">
      <note>
        <pitch>
          <step>F</step>
          <octave>4</octave>
        </pitch>
        <duration>2</duration>
        <voice>1</voice>
        <type>quarter</type>
        <stem default-y="11">up</stem>
        <lyric default-y="-82" number="1">
          <syllabic>single</syllabic>
          <text>While</text>
        </lyric>
        <lyric default-y="-103" number="2">
          <syllabic>single</syllabic>
          <text>And</text>
        </lyric>
        <lyric default-y="-124" number="3">
          <syllabic>single</syllabic>
          <text font-size="8.25" font-style="italic" font-weight="bold">Who</text>
        </lyric>
        <lyric default-y="-145" number="4">
          <syllabic>single</syllabic>
          <text>Heed</text>
        </lyric>
        <lyric default-y="-166" number="5">
          <syllabic>single</syllabic>
          <text>And</text>
        </lyric>
      </note>
      <note>
        <chord/>
        <pitch>
          <step>C</step>
          <octave>5</octave>
        </pitch>
        <duration>2</duration>
        <voice>1</voice>
        <type>quarter</type>
        <stem>up</stem>
      </note>
      <note>
        <pitch>
          <step>F</step>
          <octave>4</octave>
        </pitch>
        <duration>2</duration>
        <voice>1</voice>
        <type>quarter</type>
        <stem default-y="16">up</stem>
        <lyric default-y="-82" number="1">
          <syllabic>single</syllabic>
          <text>the</text>
        </lyric>
        <lyric default-y="-103" number="2">
          <syllabic>single</syllabic>
          <text>no</text>
        </lyric>
        <lyric default-y="-124" number="3">
          <syllabic>single</syllabic>
          <text font-size="8.25" font-style="italic" font-weight="bold">but</text>
        </lyric>
        <lyric default-y="-145" number="4">
          <syllabic>single</syllabic>
          <text>not</text>
        </lyric>
        <lyric default-y="-166" number="5">
          <syllabic>begin</syllabic>
          <text>for</text>
        </lyric>
      </note>
      <note>
        <chord/>
        <pitch>
          <step>D</step>
          <octave>5</octave>
        </pitch>
        <duration>2</duration>
        <voice>1</voice>
        <type>quarter</type>
        <stem>up</stem>
      </note>
      <note>
        <pitch>
          <step>G</step>
          <octave>4</octave>
        </pitch>
        <duration>2</duration>
        <voice>1</voice>
        <type>quarter</type>
        <stem default-y="-56">down</stem>
        <lyric default-y="-82" number="1">
          <syllabic>single</syllabic>
          <text>saints</text>
        </lyric>
        <lyric default-y="-103" number="2">
          <syllabic>single</syllabic>
          <text>watch</text>
        </lyric>
        <lyric default-y="-124" number="3">
          <syllabic>single</syllabic>
          <text font-size="8.25" font-style="italic" font-weight="bold">seek</text>
        </lyric>
        <lyric default-y="-145" number="4">
          <syllabic>single</syllabic>
          <text>when</text>
        </lyric>
        <lyric default-y="-166" number="5">
          <syllabic>middle</syllabic>
          <text>ev</text>
        </lyric>
      </note>
      <note>
        <chord/>
        <pitch>
          <step>E</step>
          <alter>-1</alter>
          <octave>5</octave>
        </pitch>
        <duration>2</duration>
        <voice>1</voice>
        <type>quarter</type>
        <stem>down</stem>
      </note>
      <note>
        <pitch>
          <step>E</step>
          <alter>-1</alter>
          <octave>4</octave>
        </pitch>
        <duration>2</duration>
        <voice>1</voice>
        <type>quarter</type>
        <stem default-y="2">up</stem>
        <lyric default-y="-82" number="1">
          <syllabic>single</syllabic>
          <text>are</text>
        </lyric>
        <lyric default-y="-103" number="2">
          <syllabic>single</syllabic>
          <text>are</text>
        </lyric>
        <lyric default-y="-124" number="3">
          <syllabic>single</syllabic>
          <text font-size="8.25" font-style="italic" font-weight="bold">to</text>
        </lyric>
        <lyric default-y="-145" number="4">
          <syllabic>single</syllabic>
          <text>they</text>
        </lyric>
        <lyric default-y="-166" number="5">
          <syllabic>end</syllabic>
          <text>er</text>
        </lyric>
      </note>
      <note>
        <chord/>
        <pitch>
          <step>G</step>
          <octave>4</octave>
        </pitch>
        <duration>2</duration>
        <voice>1</voice>
        <type>quarter</type>
        <stem>up</stem>
      </note>
    </measure>
    <!--=======================================================-->
    <measure number="14">
      <note>
        <pitch>
          <step>F</step>
          <octave>4</octave>
        </pitch>
        <duration>4</duration>
        <voice>1</voice>
        <type>half</type>
        <stem default-y="-3">up</stem>
        <notations>
          <slur default-y="-60" number="1" placement="below" relative-x="14" type="start"/>
        </notations>
        <lyric default-y="-82" number="1">
          <syllabic>begin</syllabic>
          <text>sleep</text>
        </lyric>
        <lyric default-y="-103" number="2">
          <syllabic>begin</syllabic>
          <text>keep</text>
        </lyric>
        <lyric default-y="-124" number="3">
          <syllabic>single</syllabic>
          <text font-size="8.25" font-style="italic" font-weight="bold">harm</text>
        </lyric>
        <lyric default-y="-145" number="4">
          <syllabic>begin</syllabic>
          <text>flat</text>
        </lyric>
        <lyric default-y="-166" number="5">
          <syllabic>single</syllabic>
          <text>love</text>
        </lyric>
      </note>
      <backup>
        <duration>4</duration>
      </backup>
      <note>
        <pitch>
          <step>E</step>
          <alter>-1</alter>
          <octave>4</octave>
        </pitch>
        <duration>2</duration>
        <voice>2</voice>
        <type>quarter</type>
        <stem default-y="-64">down</stem>
      </note>
      <note>
        <pitch>
          <step>D</step>
          <octave>4</octave>
        </pitch>
        <duration>2</duration>
        <voice>2</voice>
        <type>quarter</type>
        <stem default-y="-67">down</stem>
        <notations>
          <slur default-y="-60" number="1" type="stop"/>
        </notations>
      </note>
      <note>
        <pitch>
          <step>E</step>
          <alter>-1</alter>
          <octave>4</octave>
        </pitch>
        <duration>4</duration>
        <voice>1</voice>
        <type>half</type>
        <stem>double</stem>
        <lyric default-y="-82" number="1">
          <syllabic>end</syllabic>
          <text>ing.</text>
        </lyric>
        <lyric default-y="-103" number="2">
          <syllabic>end</syllabic>
          <text>ing.</text>
        </lyric>
        <lyric default-y="-124" number="3">
          <syllabic>single</syllabic>
          <text font-size="8.25" font-style="italic" font-weight="bold">you.</text>
        </lyric>
        <lyric default-y="-145" number="4">
          <syllabic>end</syllabic>
          <text>ter.</text>
        </lyric>
        <lyric default-y="-166" number="5">
          <syllabic>single</syllabic>
          <text>Him.</text>
        </lyric>
      </note>
      <barline location="right">
        <bar-style>light-heavy</bar-style>
      </barline>
    </measure>
  </part>
  <!--=========================================================-->
  <part id="P2">
    <measure number="1" width="392">
      <print>
        <staff-layout number="1">
          <staff-distance>161</staff-distance>
        </staff-layout>
        <measure-numbering>none</measure-numbering>
      </print>
      <attributes>
        <divisions>2</divisions>
        <key>
          <fifths>-3</fifths>
          <mode>major</mode>
        </key>
        <time>
          <beats>4</beats>
          <beat-type>4</beat-type>
        </time>
        <clef>
          <sign>F</sign>
          <line>4</line>
        </clef>
      </attributes>
      <sound tempo="100"/>
      <note default-x="125">
        <pitch>
          <step>E</step>
          <alter>-1</alter>
          <octave>3</octave>
        </pitch>
        <duration>2</duration>
        <voice>1</voice>
        <type>quarter</type>
        <stem default-y="-46.5">down</stem>
      </note>
      <note default-x="125">
        <chord/>
        <pitch>
          <step>B</step>
          <alter>-1</alter>
          <octave>3</octave>
        </pitch>
        <duration>2</duration>
        <voice>1</voice>
        <type>quarter</type>
        <stem>down</stem>
      </note>
      <note default-x="197">
        <pitch>
          <step>C</step>
          <octave>3</octave>
        </pitch>
        <duration>2</duration>
        <voice>1</voice>
        <type>quarter</type>
        <stem default-y="-51">down</stem>
      </note>
      <note default-x="197">
        <chord/>
        <pitch>
          <step>C</step>
          <octave>4</octave>
        </pitch>
        <duration>2</duration>
        <voice>1</voice>
        <type>quarter</type>
        <stem>down</stem>
      </note>
      <note default-x="265">
        <pitch>
          <step>B</step>
          <alter>-1</alter>
          <octave>2</octave>
        </pitch>
        <duration>2</duration>
        <voice>1</voice>
        <type>quarter</type>
        <stem default-y="-56">down</stem>
      </note>
      <note default-x="265">
        <chord/>
        <pitch>
          <step>F</step>
          <octave>3</octave>
        </pitch>
        <duration>2</duration>
        <voice>1</voice>
        <type>quarter</type>
        <stem>down</stem>
      </note>
      <note default-x="331">
        <pitch>
          <step>G</step>
          <octave>2</octave>
        </pitch>
        <duration>2</duration>
        <voice>1</voice>
        <type>quarter</type>
        <stem default-y="21">up</stem>
      </note>
      <note default-x="331">
        <chord/>
        <pitch>
          <step>G</step>
          <octave>3</octave>
        </pitch>
        <duration>2</duration>
        <voice>1</voice>
        <type>quarter</type>
        <stem>up</stem>
      </note>
    </measure>
    <!--=======================================================-->
    <measure number="2" width="211">
      <note default-x="27">
        <pitch>
          <step>C</step>
          <octave>3</octave>
        </pitch>
        <duration>2</duration>
        <voice>1</voice>
        <type>quarter</type>
        <stem default-y="-51">down</stem>
      </note>
      <note default-x="27">
        <chord/>
        <pitch>
          <step>G</step>
          <octave>3</octave>
        </pitch>
        <duration>2</duration>
        <voice>1</voice>
        <type>quarter</type>
        <stem>down</stem>
      </note>
      <note default-x="88">
        <pitch>
          <step>B</step>
          <alter>-1</alter>
          <octave>2</octave>
        </pitch>
        <duration>2</duration>
        <voice>1</voice>
        <type>quarter</type>
        <stem default-y="-56">down</stem>
      </note>
      <note default-x="88">
        <chord/>
        <pitch>
          <step>B</step>
          <alter>-1</alter>
          <octave>3</octave>
        </pitch>
        <duration>2</duration>
        <voice>1</voice>
        <type>quarter</type>
        <stem>down</stem>
      </note>
      <note default-x="148">
        <pitch>
          <step>E</step>
          <alter>-1</alter>
          <octave>3</octave>
        </pitch>
        <duration>4</duration>
        <voice>1</voice>
        <type>half</type>
        <stem default-y="-46.5">down</stem>
      </note>
      <note default-x="148">
        <chord/>
        <pitch>
          <step>B</step>
          <alter>-1</alter>
          <octave>3</octave>
        </pitch>
        <duration>4</duration>
        <voice>1</voice>
        <type>half</type>
        <stem>down</stem>
      </note>
    </measure>
    <!--=======================================================-->
    <measure number="3" width="245">
      <note default-x="24">
        <pitch>
          <step>A</step>
          <alter>-1</alter>
          <octave>3</octave>
        </pitch>
        <duration>2</duration>
        <voice>1</voice>
        <type>quarter</type>
        <stem>double</stem>
      </note>
      <note default-x="79">
        <pitch>
          <step>F</step>
          <octave>3</octave>
        </pitch>
        <duration>2</duration>
        <voice>1</voice>
        <type>quarter</type>
        <stem default-y="-41.5">down</stem>
      </note>
      <note default-x="79">
        <chord/>
        <pitch>
          <step>A</step>
          <alter>-1</alter>
          <octave>3</octave>
        </pitch>
        <duration>2</duration>
        <voice>1</voice>
        <type>quarter</type>
        <stem>down</stem>
      </note>
      <note default-x="134">
        <pitch>
          <step>E</step>
          <alter>-1</alter>
          <octave>3</octave>
        </pitch>
        <duration>2</duration>
        <voice>1</voice>
        <type>quarter</type>
        <stem default-y="-46.5">down</stem>
      </note>
      <note default-x="134">
        <chord/>
        <pitch>
          <step>B</step>
          <alter>-1</alter>
          <octave>3</octave>
        </pitch>
        <duration>2</duration>
        <voice>1</voice>
        <type>quarter</type>
        <stem>down</stem>
      </note>
      <note default-x="188">
        <pitch>
          <step>C</step>
          <octave>3</octave>
        </pitch>
        <duration>2</duration>
        <voice>1</voice>
        <type>quarter</type>
        <stem default-y="-51">down</stem>
      </note>
      <note default-x="188">
        <chord/>
        <pitch>
          <step>C</step>
          <octave>4</octave>
        </pitch>
        <duration>2</duration>
        <voice>1</voice>
        <type>quarter</type>
        <stem>down</stem>
      </note>
    </measure>
    <!--=======================================================-->
    <measure number="4" width="215">
      <print new-system="yes">
        <staff-layout number="1">
          <staff-distance>161</staff-distance>
        </staff-layout>
      </print>
      <note default-x="88">
        <pitch>
          <step>A</step>
          <alter>-1</alter>
          <octave>2</octave>
        </pitch>
        <duration>2</duration>
        <voice>1</voice>
        <type>quarter</type>
        <stem default-y="-61">down</stem>
        <notations>
          <slur default-y="18" number="1" placement="above" relative-x="14" type="start"/>
          <slur default-y="-47" number="2" placement="below" relative-x="8" type="start"/>
        </notations>
      </note>
      <note default-x="88">
        <chord/>
        <pitch>
          <step>C</step>
          <octave>4</octave>
        </pitch>
        <duration>2</duration>
        <voice>1</voice>
        <type>quarter</type>
        <stem>down</stem>
      </note>
      <note default-x="130">
        <pitch>
          <step>B</step>
          <alter>-1</alter>
          <octave>2</octave>
        </pitch>
        <duration>2</duration>
        <voice>1</voice>
        <type>quarter</type>
        <stem default-y="-56">down</stem>
        <notations>
          <slur default-y="14" number="1" type="stop"/>
          <slur default-y="-42" number="2" type="stop"/>
        </notations>
      </note>
      <note default-x="130">
        <chord/>
        <pitch>
          <step>B</step>
          <alter>-1</alter>
          <octave>3</octave>
        </pitch>
        <duration>2</duration>
        <voice>1</voice>
        <type>quarter</type>
        <stem>down</stem>
      </note>
      <note default-x="172">
        <pitch>
          <step>E</step>
          <alter>-1</alter>
          <octave>3</octave>
        </pitch>
        <duration>4</duration>
        <voice>1</voice>
        <type>half</type>
        <stem default-y="-46">down</stem>
      </note>
      <note default-x="172">
        <chord/>
        <pitch>
          <step>G</step>
          <octave>3</octave>
        </pitch>
        <duration>4</duration>
        <voice>1</voice>
        <type>half</type>
        <stem>down</stem>
      </note>
    </measure>
    <!--=======================================================-->
    <measure number="5" width="245">
      <note default-x="18">
        <pitch>
          <step>E</step>
          <alter>-1</alter>
          <octave>3</octave>
        </pitch>
        <duration>2</duration>
        <voice>1</voice>
        <type>quarter</type>
        <stem default-y="-46">down</stem>
      </note>
      <note default-x="18">
        <chord/>
        <pitch>
          <step>B</step>
          <alter>-1</alter>
          <octave>3</octave>
        </pitch>
        <duration>2</duration>
        <voice>1</voice>
        <type>quarter</type>
        <stem>down</stem>
      </note>
      <note default-x="76">
        <pitch>
          <step>C</step>
          <octave>3</octave>
        </pitch>
        <duration>2</duration>
        <voice>1</voice>
        <type>quarter</type>
        <stem default-y="-51">down</stem>
      </note>
      <note default-x="76">
        <chord/>
        <pitch>
          <step>C</step>
          <octave>4</octave>
        </pitch>
        <duration>2</duration>
        <voice>1</voice>
        <type>quarter</type>
        <stem>down</stem>
      </note>
      <note default-x="134">
        <pitch>
          <step>B</step>
          <alter>-1</alter>
          <octave>2</octave>
        </pitch>
        <duration>2</duration>
        <voice>1</voice>
        <type>quarter</type>
        <stem default-y="-56">down</stem>
      </note>
      <note default-x="134">
        <chord/>
        <pitch>
          <step>F</step>
          <octave>3</octave>
        </pitch>
        <duration>2</duration>
        <voice>1</voice>
        <type>quarter</type>
        <stem>down</stem>
      </note>
      <note default-x="199">
        <pitch>
          <step>G</step>
          <octave>2</octave>
        </pitch>
        <duration>2</duration>
        <voice>1</voice>
        <type>quarter</type>
        <stem default-y="21.5">up</stem>
      </note>
      <note default-x="199">
        <chord/>
        <pitch>
          <step>G</step>
          <octave>3</octave>
        </pitch>
        <duration>2</duration>
        <voice>1</voice>
        <type>quarter</type>
        <stem>up</stem>
      </note>
    </measure>
    <!--=======================================================-->
    <measure number="6" width="388">
      <note default-x="40">
        <pitch>
          <step>C</step>
          <octave>3</octave>
        </pitch>
        <duration>2</duration>
        <voice>1</voice>
        <type>quarter</type>
        <stem default-y="-51">down</stem>
      </note>
      <note default-x="40">
        <chord/>
        <pitch>
          <step>G</step>
          <octave>3</octave>
        </pitch>
        <duration>2</duration>
        <voice>1</voice>
        <type>quarter</type>
        <stem>down</stem>
      </note>
      <note default-x="110">
        <pitch>
          <step>B</step>
          <alter>-1</alter>
          <octave>2</octave>
        </pitch>
        <duration>2</duration>
        <voice>1</voice>
        <type>quarter</type>
        <stem default-y="-56">down</stem>
      </note>
      <note default-x="110">
        <chord/>
        <pitch>
          <step>B</step>
          <alter>-1</alter>
          <octave>3</octave>
        </pitch>
        <duration>2</duration>
        <voice>1</voice>
        <type>quarter</type>
        <stem>down</stem>
      </note>
      <note default-x="172">
        <pitch>
          <step>E</step>
          <alter>-1</alter>
          <octave>3</octave>
        </pitch>
        <duration>4</duration>
        <voice>1</voice>
        <type>half</type>
        <stem default-y="-46">down</stem>
      </note>
      <note default-x="172">
        <chord/>
        <pitch>
          <step>B</step>
          <alter>-1</alter>
          <octave>3</octave>
        </pitch>
        <duration>4</duration>
        <voice>1</voice>
        <type>half</type>
        <stem>down</stem>
      </note>
    </measure>
    <!--=======================================================-->
    <measure number="7" width="847">
      <print new-system="yes">
        <staff-layout number="1">
          <staff-distance>165</staff-distance>
        </staff-layout>
      </print>
      <note default-x="722">
        <pitch>
          <step>A</step>
          <alter>-1</alter>
          <octave>3</octave>
        </pitch>
        <duration>2</duration>
        <voice>1</voice>
        <type>quarter</type>
        <stem>double</stem>
      </note>
      <note default-x="793">
        <pitch>
          <step>F</step>
          <octave>3</octave>
        </pitch>
        <duration>2</duration>
        <voice>1</voice>
        <type>quarter</type>
        <stem default-y="-41">down</stem>
      </note>
      <note default-x="793">
        <chord/>
        <pitch>
          <step>A</step>
          <alter>-1</alter>
          <octave>3</octave>
        </pitch>
        <duration>2</duration>
        <voice>1</voice>
        <type>quarter</type>
        <stem>down</stem>
      </note>
      <note default-x="85">
        <pitch>
          <step>E</step>
          <alter>-1</alter>
          <octave>3</octave>
        </pitch>
        <duration>2</duration>
        <voice>1</voice>
        <type>quarter</type>
        <stem default-y="-342">down</stem>
      </note>
      <note default-x="85">
        <chord/>
        <pitch>
          <step>B</step>
          <alter>-1</alter>
          <octave>3</octave>
        </pitch>
        <duration>2</duration>
        <voice>1</voice>
        <type>quarter</type>
        <stem>down</stem>
      </note>
      <note default-x="146">
        <pitch>
          <step>C</step>
          <octave>3</octave>
        </pitch>
        <duration>2</duration>
        <voice>1</voice>
        <type>quarter</type>
        <stem default-y="-346">down</stem>
      </note>
      <note default-x="146">
        <chord/>
        <pitch>
          <step>C</step>
          <octave>4</octave>
        </pitch>
        <duration>2</duration>
        <voice>1</voice>
        <type>quarter</type>
        <stem>down</stem>
      </note>
    </measure>
    <!--=======================================================-->
    <measure number="8">
      <note default-x="-627">
        <pitch>
          <step>A</step>
          <alter>-1</alter>
          <octave>2</octave>
        </pitch>
        <duration>2</duration>
        <voice>1</voice>
        <type>quarter</type>
        <stem default-y="-61">down</stem>
        <notations>
          <slur default-y="21" number="1" placement="above" relative-x="14" type="start"/>
          <slur default-y="-45" number="2" placement="below" relative-x="8" type="start"/>
        </notations>
      </note>
      <note default-x="-627">
        <chord/>
        <pitch>
          <step>C</step>
          <octave>4</octave>
        </pitch>
        <duration>2</duration>
        <voice>1</voice>
        <type>quarter</type>
        <stem>down</stem>
      </note>
      <note default-x="-581">
        <pitch>
          <step>B</step>
          <alter>-1</alter>
          <octave>2</octave>
        </pitch>
        <duration>2</duration>
        <voice>1</voice>
        <type>quarter</type>
        <stem default-y="-56">down</stem>
        <notations>
          <slur default-y="16" number="1" type="stop"/>
          <slur default-y="-40" number="2" type="stop"/>
        </notations>
      </note>
      <note default-x="-581">
        <chord/>
        <pitch>
          <step>B</step>
          <alter>-1</alter>
          <octave>3</octave>
        </pitch>
        <duration>2</duration>
        <voice>1</voice>
        <type>quarter</type>
        <stem>down</stem>
      </note>
      <note default-x="-539">
        <pitch>
          <step>E</step>
          <alter>-1</alter>
          <octave>3</octave>
        </pitch>
        <duration>4</duration>
        <voice>1</voice>
        <type>half</type>
        <stem default-y="-46.5">down</stem>
      </note>
      <note default-x="-539">
        <chord/>
        <pitch>
          <step>G</step>
          <octave>3</octave>
        </pitch>
        <duration>4</duration>
        <voice>1</voice>
        <type>half</type>
        <stem>down</stem>
      </note>
    </measure>
    <!--=======================================================-->
    <measure number="9">
      <note>
        <pitch>
          <step>D</step>
          <octave>3</octave>
        </pitch>
        <duration>2</duration>
        <voice>1</voice>
        <type>quarter</type>
        <stem default-y="-51.5">down</stem>
      </note>
      <note>
        <chord/>
        <pitch>
          <step>F</step>
          <octave>3</octave>
        </pitch>
        <duration>2</duration>
        <voice>1</voice>
        <type>quarter</type>
        <stem>down</stem>
      </note>
      <note>
        <pitch>
          <step>B</step>
          <alter>-1</alter>
          <octave>2</octave>
        </pitch>
        <duration>2</duration>
        <voice>1</voice>
        <type>quarter</type>
        <stem default-y="-56">down</stem>
      </note>
      <note>
        <chord/>
        <pitch>
          <step>B</step>
          <alter>-1</alter>
          <octave>3</octave>
        </pitch>
        <duration>2</duration>
        <voice>1</voice>
        <type>quarter</type>
        <stem>down</stem>
      </note>
      <note>
        <pitch>
          <step>E</step>
          <alter>-1</alter>
          <octave>3</octave>
        </pitch>
        <duration>4</duration>
        <voice>1</voice>
        <type>half</type>
        <stem default-y="-46.5">down</stem>
      </note>
      <note>
        <chord/>
        <pitch>
          <step>B</step>
          <alter>-1</alter>
          <octave>3</octave>
        </pitch>
        <duration>4</duration>
        <voice>1</voice>
        <type>half</type>
        <stem>down</stem>
      </note>
    </measure>
    <!--=======================================================-->
    <measure number="10">
      <note>
        <pitch>
          <step>E</step>
          <octave>3</octave>
        </pitch>
        <duration>2</duration>
        <voice>1</voice>
        <type>quarter</type>
        <accidental>natural</accidental>
        <stem default-y="-46.5">down</stem>
      </note>
      <note>
        <chord/>
        <pitch>
          <step>G</step>
          <octave>3</octave>
        </pitch>
        <duration>2</duration>
        <voice>1</voice>
        <type>quarter</type>
        <stem>down</stem>
      </note>
      <note>
        <pitch>
          <step>C</step>
          <octave>3</octave>
        </pitch>
        <duration>2</duration>
        <voice>1</voice>
        <type>quarter</type>
        <stem default-y="-51">down</stem>
      </note>
      <note>
        <chord/>
        <pitch>
          <step>C</step>
          <octave>4</octave>
        </pitch>
        <duration>2</duration>
        <voice>1</voice>
        <type>quarter</type>
        <stem>down</stem>
      </note>
      <note>
        <pitch>
          <step>F</step>
          <octave>3</octave>
        </pitch>
        <duration>4</duration>
        <voice>1</voice>
        <type>half</type>
        <stem default-y="-41.5">down</stem>
      </note>
      <note>
        <chord/>
        <pitch>
          <step>C</step>
          <octave>4</octave>
        </pitch>
        <duration>4</duration>
        <voice>1</voice>
        <type>half</type>
        <stem>down</stem>
      </note>
    </measure>
    <!--=======================================================-->
    <measure number="11" width="848">
      <print new-system="yes">
        <staff-layout number="1">
          <staff-distance>161</staff-distance>
        </staff-layout>
      </print>
      <note default-x="758">
        <pitch>
          <step>B</step>
          <alter>-1</alter>
          <octave>2</octave>
        </pitch>
        <duration>2</duration>
        <voice>1</voice>
        <type>quarter</type>
        <stem default-y="-56">down</stem>
      </note>
      <note default-x="758">
        <chord/>
        <pitch>
          <step>D</step>
          <octave>4</octave>
        </pitch>
        <duration>2</duration>
        <voice>1</voice>
        <type>quarter</type>
        <stem>down</stem>
      </note>
      <note default-x="815">
        <pitch>
          <step>C</step>
          <octave>3</octave>
        </pitch>
        <duration>2</duration>
        <voice>1</voice>
        <type>quarter</type>
        <stem default-y="-51">down</stem>
      </note>
      <note default-x="815">
        <chord/>
        <pitch>
          <step>C</step>
          <octave>4</octave>
        </pitch>
        <duration>2</duration>
        <voice>1</voice>
        <type>quarter</type>
        <stem>down</stem>
      </note>
      <note default-x="97">
        <pitch>
          <step>D</step>
          <octave>3</octave>
        </pitch>
        <duration>2</duration>
        <voice>1</voice>
        <type>quarter</type>
        <stem default-y="-342.5">down</stem>
      </note>
      <note default-x="97">
        <chord/>
        <pitch>
          <step>B</step>
          <alter>-1</alter>
          <octave>3</octave>
        </pitch>
        <duration>2</duration>
        <voice>1</voice>
        <type>quarter</type>
        <stem>down</stem>
      </note>
      <note default-x="163">
        <pitch>
          <step>B</step>
          <alter>-1</alter>
          <octave>2</octave>
        </pitch>
        <duration>2</duration>
        <voice>1</voice>
        <type>quarter</type>
        <stem default-y="-347.5">down</stem>
      </note>
      <note default-x="163">
        <chord/>
        <pitch>
          <step>B</step>
          <alter>-1</alter>
          <octave>3</octave>
        </pitch>
        <duration>2</duration>
        <voice>1</voice>
        <type>quarter</type>
        <stem>down</stem>
      </note>
    </measure>
    <!--=======================================================-->
    <measure number="12">
      <note default-x="-588">
        <pitch>
          <step>F</step>
          <octave>3</octave>
        </pitch>
        <duration>4</duration>
        <voice>1</voice>
        <type>half</type>
        <stem default-y="-41">down</stem>
        <notations>
          <slur default-y="20" number="1" placement="above" relative-x="14" type="start"/>
        </notations>
      </note>
      <backup>
        <duration>4</duration>
      </backup>
      <note default-x="-588">
        <pitch>
          <step>B</step>
          <alter>-1</alter>
          <octave>3</octave>
        </pitch>
        <duration>2</duration>
        <voice>2</voice>
        <type>quarter</type>
        <stem default-y="26.5">up</stem>
      </note>
      <note default-x="-545">
        <pitch>
          <step>A</step>
          <octave>3</octave>
        </pitch>
        <duration>2</duration>
        <voice>2</voice>
        <type>quarter</type>
        <accidental>natural</accidental>
        <stem default-y="24">up</stem>
        <notations>
          <slur default-y="19" number="1" type="stop"/>
        </notations>
      </note>
      <note default-x="-502">
        <pitch>
          <step>B</step>
          <alter>-1</alter>
          <octave>2</octave>
        </pitch>
        <duration>4</duration>
        <voice>1</voice>
        <type>half</type>
        <stem default-y="-56">down</stem>
      </note>
      <note default-x="-502">
        <chord/>
        <pitch>
          <step>B</step>
          <alter>-1</alter>
          <octave>3</octave>
        </pitch>
        <duration>4</duration>
        <voice>1</voice>
        <type>half</type>
        <stem>down</stem>
      </note>
    </measure>
    <!--=======================================================-->
    <measure number="13">
      <note>
        <pitch>
          <step>F</step>
          <octave>3</octave>
        </pitch>
        <duration>2</duration>
        <voice>1</voice>
        <type>quarter</type>
        <stem default-y="-41">down</stem>
      </note>
      <note>
        <chord/>
        <pitch>
          <step>A</step>
          <alter>-1</alter>
          <octave>3</octave>
        </pitch>
        <duration>2</duration>
        <voice>1</voice>
        <type>quarter</type>
        <stem>down</stem>
      </note>
      <note>
        <pitch>
          <step>F</step>
          <octave>3</octave>
        </pitch>
        <duration>2</duration>
        <voice>1</voice>
        <type>quarter</type>
        <stem default-y="-41">down</stem>
      </note>
      <note>
        <chord/>
        <pitch>
          <step>A</step>
          <alter>-1</alter>
          <octave>3</octave>
        </pitch>
        <duration>2</duration>
        <voice>1</voice>
        <type>quarter</type>
        <stem>down</stem>
      </note>
      <note>
        <pitch>
          <step>E</step>
          <alter>-1</alter>
          <octave>3</octave>
        </pitch>
        <duration>2</duration>
        <voice>1</voice>
        <type>quarter</type>
        <stem default-y="-46">down</stem>
      </note>
      <note>
        <chord/>
        <pitch>
          <step>B</step>
          <alter>-1</alter>
          <octave>3</octave>
        </pitch>
        <duration>2</duration>
        <voice>1</voice>
        <type>quarter</type>
        <stem>down</stem>
      </note>
      <note>
        <pitch>
          <step>C</step>
          <octave>3</octave>
        </pitch>
        <duration>2</duration>
        <voice>1</voice>
        <type>quarter</type>
        <stem default-y="-51">down</stem>
      </note>
      <note>
        <chord/>
        <pitch>
          <step>C</step>
          <octave>4</octave>
        </pitch>
        <duration>2</duration>
        <voice>1</voice>
        <type>quarter</type>
        <stem>down</stem>
      </note>
    </measure>
    <!--=======================================================-->
    <measure number="14">
      <note>
        <pitch>
          <step>A</step>
          <alter>-1</alter>
          <octave>2</octave>
        </pitch>
        <duration>2</duration>
        <voice>1</voice>
        <type>quarter</type>
        <stem default-y="-61">down</stem>
        <notations>
          <slur default-y="22" number="1" placement="above" relative-x="14" type="start"/>
          <slur default-y="-53" number="2" placement="below" relative-x="5" type="start"/>
        </notations>
      </note>
      <note>
        <chord/>
        <pitch>
          <step>C</step>
          <octave>4</octave>
        </pitch>
        <duration>2</duration>
        <voice>1</voice>
        <type>quarter</type>
        <stem>down</stem>
      </note>
      <note>
        <pitch>
          <step>B</step>
          <alter>-1</alter>
          <octave>2</octave>
        </pitch>
        <duration>2</duration>
        <voice>1</voice>
        <type>quarter</type>
        <stem default-y="-56">down</stem>
        <notations>
          <slur default-y="17" number="1" type="stop"/>
          <slur default-y="-48" number="2" type="stop"/>
        </notations>
      </note>
      <note>
        <chord/>
        <pitch>
          <step>B</step>
          <alter>-1</alter>
          <octave>3</octave>
        </pitch>
        <duration>2</duration>
        <voice>1</voice>
        <type>quarter</type>
        <stem>down</stem>
      </note>
      <note>
        <pitch>
          <step>E</step>
          <alter>-1</alter>
          <octave>3</octave>
        </pitch>
        <duration>4</duration>
        <voice>1</voice>
        <type>half</type>
        <stem default-y="-46">down</stem>
      </note>
      <note>
        <chord/>
        <pitch>
          <step>G</step>
          <octave>3</octave>
        </pitch>
        <duration>4</duration>
        <voice>1</voice>
        <type>half</type>
        <stem>down</stem>
      </note>
      <barline location="right">
        <bar-style>light-heavy</bar-style>
      </barline>
    </measure>
  </part>
  <!--=========================================================-->
</score-partwise>
