<?xml version="1.0" encoding="UTF-8" standalone="no"?>
<!DOCTYPE score-partwise PUBLIC "-//Recordare//DTD MusicXML 3.1 Partwise//EN" "http://www.musicxml.org/dtds/partwise.dtd">
<score-partwise version="3.1">
  <identification>
    <encoding>
      <software>Finale v25 for Windows</software>
      <encoding-date>2020-07-08</encoding-date>
      <supports attribute="new-system" element="print" type="yes" value="yes"/>
      <supports attribute="new-page" element="print" type="yes" value="yes"/>
      <supports element="accidental" type="yes"/>
      <supports element="beam" type="yes"/>
      <supports element="stem" type="yes"/>
    </encoding>
  </identification>
  <defaults>
    <scaling>
      <millimeters>6.35</millimeters>
      <tenths>40</tenths>
    </scaling>
    <page-layout>
      <page-height>1380</page-height>
      <page-width>852</page-width>
      <page-margins type="both">
        <left-margin>0</left-margin>
        <right-margin>0</right-margin>
        <top-margin>0</top-margin>
        <bottom-margin>331</bottom-margin>
      </page-margins>
    </page-layout>
    <system-layout>
      <system-margins>
        <left-margin>5</left-margin>
        <right-margin>0</right-margin>
      </system-margins>
      <system-distance>42</system-distance>
      <top-system-distance>42</top-system-distance>
    </system-layout>
    <staff-layout>
      <staff-distance>108</staff-distance>
    </staff-layout>
    <appearance>
      <line-width type="stem">0.8333</line-width>
      <line-width type="beam">4.1667</line-width>
      <line-width type="staff">0.7096</line-width>
      <line-width type="light barline">0.8333</line-width>
      <line-width type="heavy barline">5</line-width>
      <line-width type="leger">0.7292</line-width>
      <line-width type="ending">0.7682</line-width>
      <line-width type="wedge">0.8333</line-width>
      <line-width type="enclosure">0.8333</line-width>
      <line-width type="tuplet bracket">0.7292</line-width>
      <note-size type="grace">55</note-size>
      <note-size type="cue">55</note-size>
      <distance type="hyphen">83</distance>
      <distance type="beam">8</distance>
    </appearance>
    <music-font font-family="Petrucci2" font-size="18"/>
    <word-font font-family="Palatino Linotype" font-size="9"/>
    <lyric-font font-family="Palatino Linotype" font-size="9"/>
  </defaults>
  <credit page="1">
    <credit-words default-y="331" font-size="7.5" valign="bottom" xml:space="preserve">Music: French carol, 1400’s; arr. Martin Shaw (1875–1958)
Text: French carol, 1400’s</credit-words>
  </credit>
  <credit page="1">
    <credit-words default-x="852" default-y="331" font-size="7.5" justify="right" valign="bottom" xml:space="preserve">NOËL NOUVELET
6 5. 6 5. w/ refrain</credit-words>
  </credit>
  <part-list>
    <part-group number="1" type="start">
      <group-symbol default-x="-2">line</group-symbol>
      <group-barline>no</group-barline>
    </part-group>
    <score-part id="P1">
      <part-name print-object="no">MusicXML Part</part-name>
      <score-instrument id="P1-I2">
        <instrument-name>SmartMusic SoftSynth</instrument-name>
        <virtual-instrument/>
      </score-instrument>
      <midi-device>SmartMusic SoftSynth</midi-device>
      <midi-instrument id="P1-I2">
        <midi-channel>1</midi-channel>
        <midi-program>58</midi-program>
        <volume>80</volume>
        <pan>0</pan>
      </midi-instrument>
    </score-part>
    <score-part id="P2">
      <part-name print-object="no">MusicXML Part</part-name>
      <score-instrument id="P2-I1">
        <instrument-name>SmartMusic SoftSynth</instrument-name>
        <virtual-instrument/>
      </score-instrument>
      <midi-device>SmartMusic SoftSynth</midi-device>
      <midi-instrument id="P2-I1">
        <midi-channel>2</midi-channel>
        <midi-program>58</midi-program>
        <volume>80</volume>
        <pan>0</pan>
      </midi-instrument>
    </score-part>
    <part-group number="1" type="stop"/>
  </part-list>
  <!--=========================================================-->
  <part id="P1">
    <measure number="1" width="353">
      <print>
        <system-layout>
          <top-system-distance>58</top-system-distance>
        </system-layout>
        <measure-numbering>system</measure-numbering>
      </print>
      <attributes>
        <divisions>4</divisions>
        <key>
          <fifths>2</fifths>
          <mode>major</mode>
        </key>
        <time>
          <beats>2</beats>
          <beat-type>4</beat-type>
        </time>
        <clef>
          <sign>G</sign>
          <line>2</line>
        </clef>
      </attributes>
      <sound tempo="101"/>
      <note default-x="105">
        <pitch>
          <step>E</step>
          <octave>4</octave>
        </pitch>
        <duration>2</duration>
        <voice>1</voice>
        <type>eighth</type>
        <stem>double</stem>
        <lyric default-y="-90" number="1">
          <syllabic>single</syllabic>
          <text>1.</text>
          <elision> </elision>
          <syllabic>single</syllabic>
          <text>Sing</text>
        </lyric>
        <lyric default-y="-109" number="2">
          <syllabic>single</syllabic>
          <text>2.</text>
          <elision> </elision>
          <syllabic>begin</syllabic>
          <text>An</text>
        </lyric>
        <lyric default-y="-130" number="3">
          <syllabic>single</syllabic>
          <text font-size="8.25" font-style="italic" font-weight="bold">3.</text>
          <elision> </elision>
          <syllabic>single</syllabic>
          <text font-size="8.25" font-style="italic" font-weight="bold">In</text>
        </lyric>
        <lyric default-y="-150" number="4">
          <syllabic>single</syllabic>
          <text>4.</text>
          <elision> </elision>
          <syllabic>single</syllabic>
          <text>From</text>
        </lyric>
        <lyric default-y="-171" number="5">
          <syllabic>single</syllabic>
          <text>5.</text>
          <elision> </elision>
          <syllabic>single</syllabic>
          <text>Gold</text>
        </lyric>
      </note>
      <note default-x="174">
        <pitch>
          <step>G</step>
          <octave>4</octave>
        </pitch>
        <duration>2</duration>
        <voice>1</voice>
        <type>eighth</type>
        <stem default-y="12">up</stem>
        <lyric default-y="-90" number="1">
          <syllabic>single</syllabic>
          <text>we</text>
        </lyric>
        <lyric default-y="-109" number="2">
          <syllabic>end</syllabic>
          <text>gels</text>
        </lyric>
        <lyric default-y="-130" number="3">
          <syllabic>single</syllabic>
          <text font-size="8.25" font-style="italic" font-weight="bold">the</text>
        </lyric>
        <lyric default-y="-150" number="4">
          <syllabic>single</syllabic>
          <text>the</text>
        </lyric>
        <lyric default-y="-171" number="5">
          <syllabic>single</syllabic>
          <text>and</text>
        </lyric>
      </note>
      <note default-x="174">
        <chord/>
        <pitch>
          <step>B</step>
          <octave>4</octave>
        </pitch>
        <duration>2</duration>
        <voice>1</voice>
        <type>eighth</type>
        <stem>up</stem>
      </note>
      <note default-x="237">
        <pitch>
          <step>A</step>
          <octave>4</octave>
        </pitch>
        <duration>2</duration>
        <voice>1</voice>
        <type>eighth</type>
        <stem default-y="-56.5">down</stem>
        <lyric default-y="-90" number="1">
          <syllabic>single</syllabic>
          <text>now</text>
        </lyric>
        <lyric default-y="-109" number="2">
          <syllabic>single</syllabic>
          <text>called</text>
        </lyric>
        <lyric default-y="-130" number="3">
          <syllabic>single</syllabic>
          <text font-size="8.25" font-style="italic" font-weight="bold">stall</text>
        </lyric>
        <lyric default-y="-150" number="4">
          <syllabic>begin</syllabic>
          <text>east</text>
        </lyric>
        <lyric default-y="-171" number="5">
          <syllabic>single</syllabic>
          <text>myrrh</text>
        </lyric>
      </note>
      <note default-x="237">
        <chord/>
        <pitch>
          <step>C</step>
          <alter>1</alter>
          <octave>5</octave>
        </pitch>
        <duration>2</duration>
        <voice>1</voice>
        <type>eighth</type>
        <stem>down</stem>
      </note>
      <note default-x="303">
        <pitch>
          <step>F</step>
          <alter>1</alter>
          <octave>4</octave>
        </pitch>
        <duration>2</duration>
        <voice>1</voice>
        <type>eighth</type>
        <stem default-y="7">up</stem>
        <lyric default-y="-90" number="1">
          <syllabic>single</syllabic>
          <text>of</text>
        </lyric>
        <lyric default-y="-109" number="2">
          <syllabic>single</syllabic>
          <text>to</text>
        </lyric>
        <lyric default-y="-130" number="3">
          <syllabic>single</syllabic>
          <text font-size="8.25" font-style="italic" font-weight="bold">they</text>
        </lyric>
        <lyric default-y="-150" number="4">
          <syllabic>end</syllabic>
          <text>ern</text>
        </lyric>
        <lyric default-y="-171" number="5">
          <syllabic>single</syllabic>
          <text>they</text>
        </lyric>
      </note>
      <note default-x="303">
        <chord/>
        <pitch>
          <step>A</step>
          <octave>4</octave>
        </pitch>
        <duration>2</duration>
        <voice>1</voice>
        <type>eighth</type>
        <stem>up</stem>
      </note>
    </measure>
    <!--=======================================================-->
    <measure number="2" width="150">
      <note default-x="24">
        <pitch>
          <step>G</step>
          <octave>4</octave>
        </pitch>
        <duration>4</duration>
        <voice>1</voice>
        <type>quarter</type>
        <stem default-y="12">up</stem>
        <lyric default-y="-90" number="1">
          <syllabic>begin</syllabic>
          <text>Christ</text>
        </lyric>
        <lyric default-y="-109" number="2">
          <syllabic>begin</syllabic>
          <text>shep</text>
        </lyric>
        <lyric default-y="-130" number="3">
          <syllabic>single</syllabic>
          <text font-size="8.25" font-style="italic" font-weight="bold">found</text>
        </lyric>
        <lyric default-y="-150" number="4">
          <syllabic>begin</syllabic>
          <text>coun</text>
        </lyric>
        <lyric default-y="-171" number="5">
          <syllabic>single</syllabic>
          <text>took</text>
        </lyric>
      </note>
      <note default-x="24">
        <chord/>
        <pitch>
          <step>B</step>
          <octave>4</octave>
        </pitch>
        <duration>4</duration>
        <voice>1</voice>
        <type>quarter</type>
        <stem>up</stem>
      </note>
      <note default-x="93">
        <pitch>
          <step>E</step>
          <octave>4</octave>
        </pitch>
        <duration>4</duration>
        <voice>1</voice>
        <type>quarter</type>
        <stem default-y="2">up</stem>
        <lyric default-y="-90" number="1">
          <syllabic>end</syllabic>
          <text>mas,</text>
        </lyric>
        <lyric default-y="-109" number="2">
          <syllabic>end</syllabic>
          <text>herds,</text>
        </lyric>
        <lyric default-y="-130" number="3">
          <syllabic>single</syllabic>
          <text font-size="8.25" font-style="italic" font-weight="bold">Him;</text>
        </lyric>
        <lyric default-y="-150" number="4">
          <syllabic>end</syllabic>
          <text>try</text>
        </lyric>
        <lyric default-y="-171" number="5">
          <syllabic>single</syllabic>
          <text>there,</text>
        </lyric>
      </note>
      <note default-x="93">
        <chord/>
        <pitch>
          <step>G</step>
          <octave>4</octave>
        </pitch>
        <duration>4</duration>
        <voice>1</voice>
        <type>quarter</type>
        <stem>up</stem>
      </note>
    </measure>
    <!--=======================================================-->
    <measure number="3" width="267">
      <note default-x="21">
        <pitch>
          <step>F</step>
          <alter>1</alter>
          <octave>4</octave>
        </pitch>
        <duration>2</duration>
        <voice>1</voice>
        <type>eighth</type>
        <stem default-y="7">up</stem>
        <lyric default-y="-90" number="1" relative-x="11">
          <syllabic>begin</syllabic>
          <text>No</text>
        </lyric>
        <lyric default-y="-109" number="2">
          <syllabic>single</syllabic>
          <text>“Leave</text>
        </lyric>
        <lyric default-y="-130" number="3" relative-x="11">
          <syllabic>begin</syllabic>
          <text font-size="8.25" font-style="italic" font-weight="bold">Jo</text>
        </lyric>
        <lyric default-y="-150" number="4" relative-x="11">
          <syllabic>single</syllabic>
          <text>Came</text>
        </lyric>
        <lyric default-y="-171" number="5" relative-x="11">
          <syllabic>single</syllabic>
          <text>Gifts</text>
        </lyric>
      </note>
      <note default-x="21">
        <chord/>
        <pitch>
          <step>A</step>
          <octave>4</octave>
        </pitch>
        <duration>2</duration>
        <voice>1</voice>
        <type>eighth</type>
        <stem>up</stem>
      </note>
      <note default-x="77">
        <pitch>
          <step>E</step>
          <octave>4</octave>
        </pitch>
        <duration>2</duration>
        <voice>1</voice>
        <type>eighth</type>
        <stem default-y="-69">down</stem>
        <lyric default-y="-90" number="1">
          <syllabic>end</syllabic>
          <text>el</text>
        </lyric>
        <lyric default-y="-109" number="2" relative-x="5">
          <syllabic>single</syllabic>
          <text>your</text>
        </lyric>
        <lyric default-y="-150" number="4">
          <syllabic>single</syllabic>
          <text>the</text>
        </lyric>
        <lyric default-y="-171" number="5">
          <syllabic>single</syllabic>
          <text>of</text>
        </lyric>
      </note>
      <backup>
        <duration>2</duration>
      </backup>
      <note default-x="77">
        <pitch>
          <step>A</step>
          <octave>4</octave>
        </pitch>
        <duration>1</duration>
        <voice>2</voice>
        <type>16th</type>
        <stem default-y="6">up</stem>
        <beam number="1">begin</beam>
        <beam number="2">begin</beam>
        <lyric default-y="-130" number="3" relative-x="-3">
          <syllabic>end</syllabic>
          <text font-size="8.25" font-style="italic" font-weight="bold">seph</text>
        </lyric>
      </note>
      <note default-x="115">
        <pitch>
          <step>B</step>
          <octave>4</octave>
        </pitch>
        <duration>1</duration>
        <voice>2</voice>
        <type>16th</type>
        <stem default-y="11">up</stem>
        <beam number="1">end</beam>
        <beam number="2">end</beam>
        <lyric default-y="-130" number="3">
          <syllabic>single</syllabic>
          <text font-size="8.25" font-style="italic" font-weight="bold">and</text>
        </lyric>
      </note>
      <note default-x="152">
        <pitch>
          <step>D</step>
          <alter>1</alter>
          <octave>4</octave>
        </pitch>
        <duration>2</duration>
        <voice>1</voice>
        <type>eighth</type>
        <accidental>sharp</accidental>
        <stem default-y="2">up</stem>
        <lyric default-y="-90" number="1">
          <syllabic>single</syllabic>
          <text>sing</text>
        </lyric>
        <lyric default-y="-109" number="2">
          <syllabic>single</syllabic>
          <text>flocks</text>
        </lyric>
        <lyric default-y="-130" number="3" relative-x="3">
          <syllabic>begin</syllabic>
          <text font-size="8.25" font-style="italic" font-weight="bold">Mar</text>
        </lyric>
        <lyric default-y="-150" number="4">
          <syllabic>single</syllabic>
          <text>kings</text>
        </lyric>
        <lyric default-y="-171" number="5">
          <syllabic>begin</syllabic>
          <text>great</text>
        </lyric>
      </note>
      <note default-x="152">
        <chord/>
        <pitch>
          <step>G</step>
          <octave>4</octave>
        </pitch>
        <duration>2</duration>
        <voice>1</voice>
        <type>eighth</type>
        <stem>up</stem>
      </note>
      <note default-x="209">
        <pitch>
          <step>D</step>
          <alter>1</alter>
          <octave>4</octave>
        </pitch>
        <duration>2</duration>
        <voice>1</voice>
        <type>eighth</type>
        <stem default-y="-3">up</stem>
        <lyric default-y="-90" number="1">
          <syllabic>single</syllabic>
          <text>we</text>
        </lyric>
        <lyric default-y="-109" number="2">
          <syllabic>single</syllabic>
          <text>at</text>
        </lyric>
        <lyric default-y="-130" number="3">
          <syllabic>end</syllabic>
          <text font-size="8.25" font-style="italic" font-weight="bold">y</text>
        </lyric>
        <lyric default-y="-150" number="4">
          <syllabic>begin</syllabic>
          <text>a</text>
        </lyric>
        <lyric default-y="-171" number="5">
          <syllabic>end</syllabic>
          <text>est</text>
        </lyric>
      </note>
      <note default-x="209">
        <chord/>
        <pitch>
          <step>F</step>
          <alter>1</alter>
          <octave>4</octave>
        </pitch>
        <duration>2</duration>
        <voice>1</voice>
        <type>eighth</type>
        <stem>up</stem>
      </note>
    </measure>
    <!--=======================================================-->
    <measure number="4" width="78">
      <note default-x="20">
        <pitch>
          <step>B</step>
          <octave>3</octave>
        </pitch>
        <duration>8</duration>
        <voice>1</voice>
        <type>half</type>
        <stem default-y="-8">up</stem>
        <lyric default-y="-90" number="1">
          <syllabic>single</syllabic>
          <text>here!</text>
        </lyric>
        <lyric default-y="-109" number="2">
          <syllabic>single</syllabic>
          <text>rest;</text>
        </lyric>
        <lyric default-y="-130" number="3">
          <syllabic>single</syllabic>
          <text font-size="8.25" font-style="italic" font-weight="bold">mild</text>
        </lyric>
        <lyric default-y="-150" number="4">
          <syllabic>end</syllabic>
          <text>far,</text>
        </lyric>
        <lyric default-y="-171" number="5">
          <syllabic>single</syllabic>
          <text>price;</text>
        </lyric>
      </note>
      <note default-x="20">
        <chord/>
        <pitch>
          <step>E</step>
          <octave>4</octave>
        </pitch>
        <duration>8</duration>
        <voice>1</voice>
        <type>half</type>
        <stem>up</stem>
      </note>
    </measure>
    <!--=======================================================-->
    <measure number="5" width="303">
      <print new-system="yes">
        <system-layout>
          <system-distance>46</system-distance>
        </system-layout>
      </print>
      <note default-x="80">
        <pitch>
          <step>E</step>
          <octave>4</octave>
        </pitch>
        <duration>2</duration>
        <voice>1</voice>
        <type>eighth</type>
        <stem>double</stem>
        <lyric default-y="-94" number="1" relative-x="3">
          <syllabic>begin</syllabic>
          <text>List</text>
        </lyric>
        <lyric default-y="-115" number="2">
          <syllabic>begin</syllabic>
          <text>Jour</text>
        </lyric>
        <lyric default-y="-135" number="3">
          <syllabic>begin</syllabic>
          <text font-size="8.25" font-style="italic" font-weight="bold">Seat</text>
        </lyric>
        <lyric default-y="-156" number="4">
          <syllabic>begin</syllabic>
          <text>Bear</text>
        </lyric>
        <lyric default-y="-177" number="5">
          <syllabic>single</syllabic>
          <text>There</text>
        </lyric>
      </note>
      <note default-x="135">
        <pitch>
          <step>G</step>
          <octave>4</octave>
        </pitch>
        <duration>2</duration>
        <voice>1</voice>
        <type>eighth</type>
        <stem default-y="12">up</stem>
        <lyric default-y="-94" number="1">
          <syllabic>end</syllabic>
          <text>en</text>
        </lyric>
        <lyric default-y="-115" number="2">
          <syllabic>end</syllabic>
          <text>ney</text>
        </lyric>
        <lyric default-y="-135" number="3">
          <syllabic>end</syllabic>
          <text font-size="8.25" font-style="italic" font-weight="bold">ed</text>
        </lyric>
        <lyric default-y="-156" number="4">
          <syllabic>end</syllabic>
          <text>ing</text>
        </lyric>
        <lyric default-y="-177" number="5">
          <syllabic>single</syllabic>
          <text>was</text>
        </lyric>
      </note>
      <note default-x="135">
        <chord/>
        <pitch>
          <step>B</step>
          <octave>4</octave>
        </pitch>
        <duration>2</duration>
        <voice>1</voice>
        <type>eighth</type>
        <stem>up</stem>
      </note>
      <note default-x="190">
        <pitch>
          <step>F</step>
          <alter>1</alter>
          <octave>4</octave>
        </pitch>
        <duration>2</duration>
        <voice>1</voice>
        <type>eighth</type>
        <stem default-y="17">up</stem>
        <lyric default-y="-94" number="1">
          <syllabic>single</syllabic>
          <text>to</text>
        </lyric>
        <lyric default-y="-115" number="2">
          <syllabic>single</syllabic>
          <text>forth</text>
        </lyric>
        <lyric default-y="-135" number="3">
          <syllabic>single</syllabic>
          <text font-size="8.25" font-style="italic" font-weight="bold">’round</text>
        </lyric>
        <lyric default-y="-156" number="4">
          <syllabic>single</syllabic>
          <text>gifts</text>
        </lyric>
        <lyric default-y="-177" number="5">
          <syllabic>single</syllabic>
          <text>ne’er</text>
        </lyric>
      </note>
      <note default-x="190">
        <chord/>
        <pitch>
          <step>C</step>
          <alter>1</alter>
          <octave>5</octave>
        </pitch>
        <duration>2</duration>
        <voice>1</voice>
        <type>eighth</type>
        <stem>up</stem>
      </note>
      <note default-x="245">
        <pitch>
          <step>E</step>
          <octave>4</octave>
        </pitch>
        <duration>2</duration>
        <voice>1</voice>
        <type>eighth</type>
        <stem default-y="7">up</stem>
        <lyric default-y="-94" number="1">
          <syllabic>single</syllabic>
          <text>our</text>
        </lyric>
        <lyric default-y="-115" number="2">
          <syllabic>single</syllabic>
          <text>to</text>
        </lyric>
        <lyric default-y="-135" number="3">
          <syllabic>single</syllabic>
          <text font-size="8.25" font-style="italic" font-weight="bold">the</text>
        </lyric>
        <lyric default-y="-156" number="4">
          <syllabic>single</syllabic>
          <text>to</text>
        </lyric>
        <lyric default-y="-177" number="5">
          <syllabic>single</syllabic>
          <text>a</text>
        </lyric>
      </note>
      <note default-x="245">
        <chord/>
        <pitch>
          <step>A</step>
          <octave>4</octave>
        </pitch>
        <duration>2</duration>
        <voice>1</voice>
        <type>eighth</type>
        <stem>up</stem>
      </note>
    </measure>
    <!--=======================================================-->
    <measure number="6" width="157">
      <note default-x="16">
        <pitch>
          <step>B</step>
          <octave>4</octave>
        </pitch>
        <duration>4</duration>
        <voice>1</voice>
        <type>quarter</type>
        <stem default-y="12">up</stem>
        <lyric default-y="-94" number="1">
          <syllabic>begin</syllabic>
          <text>prai</text>
        </lyric>
        <lyric default-y="-115" number="2">
          <syllabic>begin</syllabic>
          <text>Beth</text>
        </lyric>
        <lyric default-y="-156" number="4">
          <syllabic>begin</syllabic>
          <text>Beth</text>
        </lyric>
        <lyric default-y="-177" number="5">
          <syllabic>begin</syllabic>
          <text>sta</text>
        </lyric>
      </note>
      <backup>
        <duration>4</duration>
      </backup>
      <note default-x="16">
        <pitch>
          <step>G</step>
          <octave>4</octave>
        </pitch>
        <duration>2</duration>
        <voice>2</voice>
        <type>eighth</type>
        <stem default-y="-60">down</stem>
        <beam number="1">begin</beam>
        <lyric default-y="-135" number="3">
          <syllabic>begin</syllabic>
          <text font-size="8.25" font-style="italic" font-weight="bold">man</text>
        </lyric>
      </note>
      <note default-x="51">
        <pitch>
          <step>F</step>
          <alter>1</alter>
          <octave>4</octave>
        </pitch>
        <duration>2</duration>
        <voice>2</voice>
        <type>eighth</type>
        <stem default-y="-65">down</stem>
        <beam number="1">end</beam>
      </note>
      <note default-x="86">
        <pitch>
          <step>G</step>
          <octave>4</octave>
        </pitch>
        <duration>4</duration>
        <voice>1</voice>
        <type>quarter</type>
        <stem default-y="2">up</stem>
        <lyric default-y="-94" number="1">
          <syllabic>end</syllabic>
          <text>ses</text>
        </lyric>
        <lyric default-y="-115" number="2">
          <syllabic>end</syllabic>
          <text>l’hem,</text>
        </lyric>
        <lyric default-y="-156" number="4">
          <syllabic>end</syllabic>
          <text>l’hem</text>
        </lyric>
        <lyric default-y="-177" number="5">
          <syllabic>end</syllabic>
          <text>ble</text>
        </lyric>
      </note>
      <backup>
        <duration>4</duration>
      </backup>
      <note default-x="86">
        <pitch>
          <step>E</step>
          <octave>4</octave>
        </pitch>
        <duration>2</duration>
        <voice>2</voice>
        <type>eighth</type>
        <stem default-y="-66">down</stem>
        <beam number="1">begin</beam>
        <lyric default-y="-135" number="3">
          <syllabic>end</syllabic>
          <text font-size="8.25" font-style="italic" font-weight="bold">ger,</text>
        </lyric>
      </note>
      <note default-x="121">
        <pitch>
          <step>D</step>
          <octave>4</octave>
        </pitch>
        <duration>2</duration>
        <voice>2</voice>
        <type>eighth</type>
        <stem default-y="-71">down</stem>
        <beam number="1">end</beam>
      </note>
    </measure>
    <!--=======================================================-->
    <measure number="7" width="276">
      <note default-x="23">
        <pitch>
          <step>C</step>
          <alter>1</alter>
          <octave>4</octave>
        </pitch>
        <duration>2</duration>
        <voice>1</voice>
        <type>eighth</type>
        <stem default-y="7">up</stem>
        <lyric default-y="-94" number="1">
          <syllabic>single</syllabic>
          <text>To</text>
        </lyric>
        <lyric default-y="-115" number="2">
          <syllabic>single</syllabic>
          <text>Find</text>
        </lyric>
        <lyric default-y="-135" number="3">
          <syllabic>begin</syllabic>
          <text font-size="8.25" font-style="italic" font-weight="bold">Watch</text>
        </lyric>
        <lyric default-y="-156" number="4">
          <syllabic>begin</syllabic>
          <text>Guid</text>
        </lyric>
        <lyric default-y="-177" number="5">
          <syllabic>single</syllabic>
          <text>So</text>
        </lyric>
      </note>
      <note default-x="23">
        <chord/>
        <pitch>
          <step>A</step>
          <octave>4</octave>
        </pitch>
        <duration>2</duration>
        <voice>1</voice>
        <type>eighth</type>
        <stem>up</stem>
      </note>
      <note default-x="81">
        <pitch>
          <step>D</step>
          <octave>4</octave>
        </pitch>
        <duration>2</duration>
        <voice>1</voice>
        <type>eighth</type>
        <stem default-y="-73">down</stem>
        <lyric default-y="-94" number="1">
          <syllabic>single</syllabic>
          <text>the</text>
        </lyric>
        <lyric default-y="-115" number="2">
          <syllabic>single</syllabic>
          <text>the</text>
        </lyric>
        <lyric default-y="-156" number="4">
          <syllabic>end</syllabic>
          <text>ed</text>
        </lyric>
        <lyric default-y="-177" number="5">
          <syllabic>single</syllabic>
          <text>like</text>
        </lyric>
      </note>
      <backup>
        <duration>2</duration>
      </backup>
      <note default-x="81">
        <pitch>
          <step>A</step>
          <octave>4</octave>
        </pitch>
        <duration>1</duration>
        <voice>2</voice>
        <type>16th</type>
        <stem default-y="6.5">up</stem>
        <beam number="1">begin</beam>
        <beam number="2">begin</beam>
        <lyric default-y="-135" number="3">
          <syllabic>end</syllabic>
          <text font-size="8.25" font-style="italic" font-weight="bold">ing</text>
        </lyric>
      </note>
      <note default-x="119">
        <pitch>
          <step>B</step>
          <octave>4</octave>
        </pitch>
        <duration>1</duration>
        <voice>2</voice>
        <type>16th</type>
        <stem default-y="11.5">up</stem>
        <beam number="1">end</beam>
        <beam number="2">end</beam>
        <lyric default-y="-135" number="3">
          <syllabic>single</syllabic>
          <text font-size="8.25" font-style="italic" font-weight="bold">the</text>
        </lyric>
      </note>
      <note default-x="158">
        <pitch>
          <step>D</step>
          <alter>1</alter>
          <octave>4</octave>
        </pitch>
        <duration>2</duration>
        <voice>1</voice>
        <type>eighth</type>
        <accidental>sharp</accidental>
        <stem default-y="2">up</stem>
        <lyric default-y="-94" number="1">
          <syllabic>single</syllabic>
          <text>Babe</text>
        </lyric>
        <lyric default-y="-115" number="2">
          <syllabic>begin</syllabic>
          <text>Lamb</text>
        </lyric>
        <lyric default-y="-135" number="3">
          <syllabic>begin</syllabic>
          <text font-size="8.25" font-style="italic" font-weight="bold">ho</text>
        </lyric>
        <lyric default-y="-156" number="4">
          <syllabic>single</syllabic>
          <text>by</text>
        </lyric>
        <lyric default-y="-177" number="5">
          <syllabic>begin</syllabic>
          <text>Par</text>
        </lyric>
      </note>
      <note default-x="158">
        <chord/>
        <pitch>
          <step>G</step>
          <octave>4</octave>
        </pitch>
        <duration>2</duration>
        <voice>1</voice>
        <type>eighth</type>
        <stem>up</stem>
      </note>
      <note default-x="216">
        <pitch>
          <step>D</step>
          <alter>1</alter>
          <octave>4</octave>
        </pitch>
        <duration>2</duration>
        <voice>1</voice>
        <type>eighth</type>
        <stem default-y="-3">up</stem>
        <lyric default-y="-94" number="1">
          <syllabic>single</syllabic>
          <text>so</text>
        </lyric>
        <lyric default-y="-115" number="2">
          <syllabic>end</syllabic>
          <text>kin</text>
        </lyric>
        <lyric default-y="-135" number="3">
          <syllabic>end</syllabic>
          <text font-size="8.25" font-style="italic" font-weight="bold">ly</text>
        </lyric>
        <lyric default-y="-156" number="4">
          <syllabic>single</syllabic>
          <text>a</text>
        </lyric>
        <lyric default-y="-177" number="5">
          <syllabic>middle</syllabic>
          <text>a</text>
        </lyric>
      </note>
      <note default-x="216">
        <chord/>
        <pitch>
          <step>F</step>
          <alter>1</alter>
          <octave>4</octave>
        </pitch>
        <duration>2</duration>
        <voice>1</voice>
        <type>eighth</type>
        <stem>up</stem>
      </note>
    </measure>
    <!--=======================================================-->
    <measure number="8" width="112">
      <note default-x="23">
        <pitch>
          <step>B</step>
          <octave>3</octave>
        </pitch>
        <duration>8</duration>
        <voice>1</voice>
        <type>half</type>
        <stem default-y="-8">up</stem>
        <lyric default-y="-94" number="1">
          <syllabic>single</syllabic>
          <text>dear.</text>
        </lyric>
        <lyric default-y="-115" number="2">
          <syllabic>single</syllabic>
          <text>blest.”</text>
        </lyric>
        <lyric default-y="-135" number="3">
          <syllabic>single</syllabic>
          <text font-size="8.25" font-style="italic" font-weight="bold">Child.</text>
        </lyric>
        <lyric default-y="-156" number="4">
          <syllabic>single</syllabic>
          <text>star.</text>
        </lyric>
        <lyric default-y="-177" number="5">
          <syllabic>end</syllabic>
          <text>dise.</text>
        </lyric>
      </note>
      <note default-x="23">
        <chord/>
        <pitch>
          <step>E</step>
          <octave>4</octave>
        </pitch>
        <duration>8</duration>
        <voice>1</voice>
        <type>half</type>
        <stem>up</stem>
      </note>
    </measure>
    <!--=======================================================-->
    <measure number="9" width="273">
      <print new-system="yes"/>
      <note default-x="83">
        <pitch>
          <step>E</step>
          <octave>4</octave>
        </pitch>
        <duration>4</duration>
        <voice>1</voice>
        <type>quarter</type>
        <stem default-y="2">up</stem>
        <lyric default-y="-87" number="1">
          <syllabic>single</syllabic>
          <text>Sing</text>
        </lyric>
      </note>
      <note default-x="83">
        <chord/>
        <pitch>
          <step>G</step>
          <octave>4</octave>
        </pitch>
        <duration>4</duration>
        <voice>1</voice>
        <type>quarter</type>
        <stem>up</stem>
      </note>
      <note default-x="157">
        <pitch>
          <step>C</step>
          <alter>1</alter>
          <octave>4</octave>
        </pitch>
        <duration>2</duration>
        <voice>1</voice>
        <type>eighth</type>
        <stem default-y="-3">up</stem>
        <lyric default-y="-87" number="1">
          <syllabic>single</syllabic>
          <text>we</text>
        </lyric>
      </note>
      <note default-x="157">
        <chord/>
        <pitch>
          <step>F</step>
          <alter>1</alter>
          <octave>4</octave>
        </pitch>
        <duration>2</duration>
        <voice>1</voice>
        <type>eighth</type>
        <stem>up</stem>
      </note>
      <note default-x="215">
        <pitch>
          <step>C</step>
          <alter>1</alter>
          <octave>4</octave>
        </pitch>
        <duration>2</duration>
        <voice>1</voice>
        <type>eighth</type>
        <stem default-y="-8">up</stem>
        <lyric default-y="-87" number="1">
          <syllabic>begin</syllabic>
          <text>No</text>
        </lyric>
      </note>
      <note default-x="215">
        <chord/>
        <pitch>
          <step>E</step>
          <octave>4</octave>
        </pitch>
        <duration>2</duration>
        <voice>1</voice>
        <type>eighth</type>
        <stem>up</stem>
      </note>
    </measure>
    <!--=======================================================-->
    <measure number="10" width="158">
      <note default-x="8">
        <pitch>
          <step>F</step>
          <alter>1</alter>
          <octave>4</octave>
        </pitch>
        <duration>6</duration>
        <voice>1</voice>
        <type>quarter</type>
        <dot/>
        <stem default-y="-3">up</stem>
        <lyric default-y="-87" number="1">
          <syllabic>end</syllabic>
          <text>el,</text>
        </lyric>
      </note>
      <backup>
        <duration>6</duration>
      </backup>
      <note default-x="8">
        <pitch>
          <step>D</step>
          <octave>4</octave>
        </pitch>
        <duration>4</duration>
        <voice>2</voice>
        <type>quarter</type>
        <stem default-y="-68.5">down</stem>
      </note>
      <note default-x="77">
        <pitch>
          <step>B</step>
          <octave>3</octave>
        </pitch>
        <duration>4</duration>
        <voice>2</voice>
        <type>quarter</type>
        <stem default-y="-76">down</stem>
      </note>
      <backup>
        <duration>2</duration>
      </backup>
      <note default-x="115">
        <pitch>
          <step>B</step>
          <octave>3</octave>
        </pitch>
        <duration>2</duration>
        <voice>1</voice>
        <type>eighth</type>
        <stem default-y="-19.5">up</stem>
        <lyric default-y="-87" number="1" relative-x="-14">
          <syllabic>single</syllabic>
          <text>the</text>
        </lyric>
      </note>
    </measure>
    <!--=======================================================-->
    <measure number="11" width="297">
      <note default-x="27">
        <pitch>
          <step>E</step>
          <octave>4</octave>
        </pitch>
        <duration>2</duration>
        <voice>1</voice>
        <type>eighth</type>
        <stem default-y="2">up</stem>
        <lyric default-y="-87" number="1">
          <syllabic>single</syllabic>
          <text>King</text>
        </lyric>
      </note>
      <note default-x="27">
        <chord/>
        <pitch>
          <step>G</step>
          <octave>4</octave>
        </pitch>
        <duration>2</duration>
        <voice>1</voice>
        <type>eighth</type>
        <stem>up</stem>
      </note>
      <note default-x="93">
        <pitch>
          <step>D</step>
          <octave>4</octave>
        </pitch>
        <duration>2</duration>
        <voice>1</voice>
        <type>eighth</type>
        <stem default-y="2">up</stem>
        <lyric default-y="-87" number="1">
          <syllabic>single</syllabic>
          <text>is</text>
        </lyric>
      </note>
      <note default-x="93">
        <chord/>
        <pitch>
          <step>G</step>
          <octave>4</octave>
        </pitch>
        <duration>2</duration>
        <voice>1</voice>
        <type>eighth</type>
        <stem>up</stem>
      </note>
      <note default-x="164">
        <pitch>
          <step>C</step>
          <alter>1</alter>
          <octave>4</octave>
        </pitch>
        <duration>2</duration>
        <voice>1</voice>
        <type>eighth</type>
        <stem default-y="-3">up</stem>
        <lyric default-y="-87" number="1">
          <syllabic>single</syllabic>
          <text>born,</text>
        </lyric>
      </note>
      <note default-x="164">
        <chord/>
        <pitch>
          <step>F</step>
          <alter>1</alter>
          <octave>4</octave>
        </pitch>
        <duration>2</duration>
        <voice>1</voice>
        <type>eighth</type>
        <stem>up</stem>
      </note>
      <note default-x="234">
        <pitch>
          <step>E</step>
          <octave>4</octave>
        </pitch>
        <duration>2</duration>
        <voice>1</voice>
        <type>eighth</type>
        <stem>double</stem>
        <lyric default-y="-87" number="1">
          <syllabic>begin</syllabic>
          <text>No</text>
        </lyric>
      </note>
    </measure>
    <!--=======================================================-->
    <measure number="12" width="120">
      <note default-x="37">
        <pitch>
          <step>D</step>
          <alter>1</alter>
          <octave>4</octave>
        </pitch>
        <duration>8</duration>
        <voice>1</voice>
        <type>half</type>
        <accidental>sharp</accidental>
        <stem default-y="-3">up</stem>
        <lyric default-y="-87" number="1">
          <syllabic>end</syllabic>
          <text>el!</text>
        </lyric>
      </note>
      <note default-x="37">
        <chord/>
        <pitch>
          <step>F</step>
          <alter>1</alter>
          <octave>4</octave>
        </pitch>
        <duration>8</duration>
        <voice>1</voice>
        <type>half</type>
        <stem>up</stem>
      </note>
    </measure>
    <!--=======================================================-->
    <measure number="13" width="303">
      <print new-system="yes"/>
      <note default-x="76">
        <pitch>
          <step>E</step>
          <octave>4</octave>
        </pitch>
        <duration>2</duration>
        <voice>1</voice>
        <type>eighth</type>
        <stem>double</stem>
        <lyric default-y="-91" number="1">
          <syllabic>single</syllabic>
          <text>Sing</text>
        </lyric>
      </note>
      <note default-x="132">
        <pitch>
          <step>G</step>
          <octave>4</octave>
        </pitch>
        <duration>2</duration>
        <voice>1</voice>
        <type>eighth</type>
        <stem default-y="12">up</stem>
        <lyric default-y="-91" number="1">
          <syllabic>single</syllabic>
          <text>we</text>
        </lyric>
      </note>
      <note default-x="132">
        <chord/>
        <pitch>
          <step>B</step>
          <octave>4</octave>
        </pitch>
        <duration>2</duration>
        <voice>1</voice>
        <type>eighth</type>
        <stem>up</stem>
      </note>
      <note default-x="189">
        <pitch>
          <step>F</step>
          <alter>1</alter>
          <octave>4</octave>
        </pitch>
        <duration>2</duration>
        <voice>1</voice>
        <type>eighth</type>
        <stem default-y="17">up</stem>
        <lyric default-y="-91" number="1">
          <syllabic>single</syllabic>
          <text>now</text>
        </lyric>
      </note>
      <note default-x="189">
        <chord/>
        <pitch>
          <step>C</step>
          <alter>1</alter>
          <octave>5</octave>
        </pitch>
        <duration>2</duration>
        <voice>1</voice>
        <type>eighth</type>
        <stem>up</stem>
      </note>
      <note default-x="245">
        <pitch>
          <step>A</step>
          <octave>4</octave>
        </pitch>
        <duration>2</duration>
        <voice>1</voice>
        <type>eighth</type>
        <stem>double</stem>
        <lyric default-y="-91" number="1">
          <syllabic>single</syllabic>
          <text>of</text>
        </lyric>
      </note>
    </measure>
    <!--=======================================================-->
    <measure number="14" width="164">
      <note default-x="22">
        <pitch>
          <step>G</step>
          <octave>4</octave>
        </pitch>
        <duration>4</duration>
        <voice>1</voice>
        <type>quarter</type>
        <stem default-y="12">up</stem>
        <lyric default-y="-91" number="1">
          <syllabic>begin</syllabic>
          <text>Christ</text>
        </lyric>
      </note>
      <note default-x="22">
        <chord/>
        <pitch>
          <step>B</step>
          <octave>4</octave>
        </pitch>
        <duration>4</duration>
        <voice>1</voice>
        <type>quarter</type>
        <stem>up</stem>
      </note>
      <note default-x="100">
        <pitch>
          <step>E</step>
          <octave>4</octave>
        </pitch>
        <duration>4</duration>
        <voice>1</voice>
        <type>quarter</type>
        <stem default-y="2">up</stem>
        <lyric default-y="-91" number="1">
          <syllabic>end</syllabic>
          <text>mas,</text>
        </lyric>
      </note>
      <note default-x="100">
        <chord/>
        <pitch>
          <step>G</step>
          <octave>4</octave>
        </pitch>
        <duration>4</duration>
        <voice>1</voice>
        <type>quarter</type>
        <stem>up</stem>
      </note>
    </measure>
    <!--=======================================================-->
    <measure number="15" width="273">
      <note default-x="22">
        <pitch>
          <step>C</step>
          <alter>1</alter>
          <octave>4</octave>
        </pitch>
        <duration>2</duration>
        <voice>1</voice>
        <type>eighth</type>
        <stem default-y="7">up</stem>
        <lyric default-y="-91" number="1">
          <syllabic>single</syllabic>
          <text>Sing</text>
        </lyric>
      </note>
      <note default-x="22">
        <chord/>
        <pitch>
          <step>A</step>
          <octave>4</octave>
        </pitch>
        <duration>2</duration>
        <voice>1</voice>
        <type>eighth</type>
        <stem>up</stem>
      </note>
      <note default-x="82">
        <pitch>
          <step>A</step>
          <octave>4</octave>
        </pitch>
        <duration>1</duration>
        <voice>1</voice>
        <type>16th</type>
        <stem default-y="7">up</stem>
        <beam number="1">begin</beam>
        <beam number="2">begin</beam>
        <lyric default-y="-91" number="1">
          <syllabic>single</syllabic>
          <text>we</text>
        </lyric>
      </note>
      <backup>
        <duration>1</duration>
      </backup>
      <note default-x="82">
        <pitch>
          <step>C</step>
          <alter>1</alter>
          <octave>4</octave>
        </pitch>
        <duration>2</duration>
        <voice>2</voice>
        <type>eighth</type>
        <stem default-y="-78">down</stem>
      </note>
      <backup>
        <duration>1</duration>
      </backup>
      <note default-x="116">
        <pitch>
          <step>B</step>
          <octave>4</octave>
        </pitch>
        <duration>1</duration>
        <voice>1</voice>
        <type>16th</type>
        <stem default-y="12">up</stem>
        <beam number="1">end</beam>
        <beam number="2">end</beam>
      </note>
      <note default-x="154">
        <pitch>
          <step>D</step>
          <alter>1</alter>
          <octave>4</octave>
        </pitch>
        <duration>2</duration>
        <voice>1</voice>
        <type>eighth</type>
        <accidental>sharp</accidental>
        <stem default-y="2">up</stem>
        <lyric default-y="-91" number="1">
          <syllabic>single</syllabic>
          <text>all</text>
        </lyric>
      </note>
      <note default-x="154">
        <chord/>
        <pitch>
          <step>G</step>
          <octave>4</octave>
        </pitch>
        <duration>2</duration>
        <voice>1</voice>
        <type>eighth</type>
        <stem>up</stem>
      </note>
      <note default-x="218">
        <pitch>
          <step>D</step>
          <alter>1</alter>
          <octave>4</octave>
        </pitch>
        <duration>2</duration>
        <voice>1</voice>
        <type>eighth</type>
        <stem default-y="-3">up</stem>
        <lyric default-y="-91" number="1">
          <syllabic>begin</syllabic>
          <text>No</text>
        </lyric>
      </note>
      <note default-x="218">
        <chord/>
        <pitch>
          <step>F</step>
          <alter>1</alter>
          <octave>4</octave>
        </pitch>
        <duration>2</duration>
        <voice>1</voice>
        <type>eighth</type>
        <stem>up</stem>
      </note>
    </measure>
    <!--=======================================================-->
    <measure number="16" width="107">
      <note default-x="26">
        <pitch>
          <step>E</step>
          <octave>4</octave>
        </pitch>
        <duration>8</duration>
        <voice>1</voice>
        <type>half</type>
        <stem>double</stem>
        <lyric default-y="-91" number="1">
          <syllabic>end</syllabic>
          <text>el.</text>
        </lyric>
      </note>
      <barline location="right">
        <bar-style>light-heavy</bar-style>
      </barline>
    </measure>
  </part>
  <!--=========================================================-->
  <part id="P2">
    <measure number="1" width="353">
      <print>
        <staff-layout number="1">
          <staff-distance>163</staff-distance>
        </staff-layout>
        <measure-numbering>none</measure-numbering>
      </print>
      <attributes>
        <divisions>2</divisions>
        <key>
          <fifths>2</fifths>
          <mode>major</mode>
        </key>
        <time>
          <beats>2</beats>
          <beat-type>4</beat-type>
        </time>
        <clef>
          <sign>F</sign>
          <line>4</line>
        </clef>
      </attributes>
      <sound tempo="101"/>
      <note default-x="105">
        <pitch>
          <step>E</step>
          <octave>3</octave>
        </pitch>
        <duration>1</duration>
        <voice>1</voice>
        <type>eighth</type>
        <stem default-y="-46.5">down</stem>
      </note>
      <note default-x="105">
        <chord/>
        <pitch>
          <step>B</step>
          <octave>3</octave>
        </pitch>
        <duration>1</duration>
        <voice>1</voice>
        <type>eighth</type>
        <stem>down</stem>
      </note>
      <note default-x="174">
        <pitch>
          <step>E</step>
          <octave>3</octave>
        </pitch>
        <duration>1</duration>
        <voice>1</voice>
        <type>eighth</type>
        <stem default-y="-46.5">down</stem>
      </note>
      <note default-x="174">
        <chord/>
        <pitch>
          <step>B</step>
          <octave>3</octave>
        </pitch>
        <duration>1</duration>
        <voice>1</voice>
        <type>eighth</type>
        <stem>down</stem>
      </note>
      <note default-x="237">
        <pitch>
          <step>E</step>
          <octave>3</octave>
        </pitch>
        <duration>1</duration>
        <voice>1</voice>
        <type>eighth</type>
        <stem default-y="-46.5">down</stem>
      </note>
      <note default-x="237">
        <chord/>
        <pitch>
          <step>B</step>
          <octave>3</octave>
        </pitch>
        <duration>1</duration>
        <voice>1</voice>
        <type>eighth</type>
        <stem>down</stem>
      </note>
      <note default-x="303">
        <pitch>
          <step>E</step>
          <octave>3</octave>
        </pitch>
        <duration>1</duration>
        <voice>1</voice>
        <type>eighth</type>
        <stem default-y="-46.5">down</stem>
      </note>
      <note default-x="303">
        <chord/>
        <pitch>
          <step>B</step>
          <octave>3</octave>
        </pitch>
        <duration>1</duration>
        <voice>1</voice>
        <type>eighth</type>
        <stem>down</stem>
      </note>
    </measure>
    <!--=======================================================-->
    <measure number="2" width="150">
      <note default-x="24">
        <pitch>
          <step>E</step>
          <octave>3</octave>
        </pitch>
        <duration>2</duration>
        <voice>1</voice>
        <type>quarter</type>
        <stem default-y="-46.5">down</stem>
      </note>
      <note default-x="24">
        <chord/>
        <pitch>
          <step>E</step>
          <octave>4</octave>
        </pitch>
        <duration>2</duration>
        <voice>1</voice>
        <type>quarter</type>
        <stem>down</stem>
      </note>
      <note default-x="93">
        <pitch>
          <step>E</step>
          <octave>3</octave>
        </pitch>
        <duration>2</duration>
        <voice>1</voice>
        <type>quarter</type>
        <stem default-y="-46.5">down</stem>
      </note>
      <note default-x="93">
        <chord/>
        <pitch>
          <step>B</step>
          <octave>3</octave>
        </pitch>
        <duration>2</duration>
        <voice>1</voice>
        <type>quarter</type>
        <stem>down</stem>
      </note>
    </measure>
    <!--=======================================================-->
    <measure number="3" width="267">
      <note default-x="21">
        <pitch>
          <step>A</step>
          <octave>2</octave>
        </pitch>
        <duration>1</duration>
        <voice>1</voice>
        <type>eighth</type>
        <stem default-y="-66.5">down</stem>
      </note>
      <note default-x="21">
        <chord/>
        <pitch>
          <step>A</step>
          <octave>3</octave>
        </pitch>
        <duration>1</duration>
        <voice>1</voice>
        <type>eighth</type>
        <stem>down</stem>
      </note>
      <note default-x="77">
        <pitch>
          <step>A</step>
          <octave>2</octave>
        </pitch>
        <duration>1</duration>
        <voice>1</voice>
        <type>eighth</type>
        <stem default-y="-66.5">down</stem>
      </note>
      <note default-x="77">
        <chord/>
        <pitch>
          <step>C</step>
          <alter>1</alter>
          <octave>4</octave>
        </pitch>
        <duration>1</duration>
        <voice>1</voice>
        <type>eighth</type>
        <stem>down</stem>
      </note>
      <note default-x="152">
        <pitch>
          <step>B</step>
          <octave>2</octave>
        </pitch>
        <duration>1</duration>
        <voice>1</voice>
        <type>eighth</type>
        <stem default-y="-61.5">down</stem>
      </note>
      <note default-x="152">
        <chord/>
        <pitch>
          <step>B</step>
          <octave>3</octave>
        </pitch>
        <duration>1</duration>
        <voice>1</voice>
        <type>eighth</type>
        <stem>down</stem>
      </note>
      <note default-x="209">
        <pitch>
          <step>B</step>
          <octave>2</octave>
        </pitch>
        <duration>1</duration>
        <voice>1</voice>
        <type>eighth</type>
        <stem default-y="-61.5">down</stem>
      </note>
      <note default-x="209">
        <chord/>
        <pitch>
          <step>A</step>
          <octave>3</octave>
        </pitch>
        <duration>1</duration>
        <voice>1</voice>
        <type>eighth</type>
        <stem>down</stem>
      </note>
    </measure>
    <!--=======================================================-->
    <measure number="4" width="78">
      <note default-x="20">
        <pitch>
          <step>E</step>
          <octave>3</octave>
        </pitch>
        <duration>4</duration>
        <voice>1</voice>
        <type>half</type>
        <stem default-y="-46.5">down</stem>
      </note>
      <note default-x="20">
        <chord/>
        <pitch>
          <step>G</step>
          <octave>3</octave>
        </pitch>
        <duration>4</duration>
        <voice>1</voice>
        <type>half</type>
        <stem>down</stem>
      </note>
    </measure>
    <!--=======================================================-->
    <measure number="5" width="303">
      <print new-system="yes">
        <staff-layout number="1">
          <staff-distance>168</staff-distance>
        </staff-layout>
      </print>
      <note default-x="80">
        <pitch>
          <step>E</step>
          <octave>3</octave>
        </pitch>
        <duration>1</duration>
        <voice>1</voice>
        <type>eighth</type>
        <stem default-y="-46">down</stem>
      </note>
      <note default-x="80">
        <chord/>
        <pitch>
          <step>G</step>
          <octave>3</octave>
        </pitch>
        <duration>1</duration>
        <voice>1</voice>
        <type>eighth</type>
        <stem>down</stem>
      </note>
      <note default-x="135">
        <pitch>
          <step>E</step>
          <octave>3</octave>
        </pitch>
        <duration>1</duration>
        <voice>1</voice>
        <type>eighth</type>
        <stem default-y="-46">down</stem>
      </note>
      <note default-x="135">
        <chord/>
        <pitch>
          <step>B</step>
          <octave>3</octave>
        </pitch>
        <duration>1</duration>
        <voice>1</voice>
        <type>eighth</type>
        <stem>down</stem>
      </note>
      <note default-x="190">
        <pitch>
          <step>A</step>
          <octave>2</octave>
        </pitch>
        <duration>1</duration>
        <voice>1</voice>
        <type>eighth</type>
        <stem default-y="-66">down</stem>
      </note>
      <note default-x="190">
        <chord/>
        <pitch>
          <step>A</step>
          <octave>3</octave>
        </pitch>
        <duration>1</duration>
        <voice>1</voice>
        <type>eighth</type>
        <stem>down</stem>
      </note>
      <note default-x="245">
        <pitch>
          <step>A</step>
          <octave>2</octave>
        </pitch>
        <duration>1</duration>
        <voice>1</voice>
        <type>eighth</type>
        <stem default-y="-66">down</stem>
      </note>
      <note default-x="245">
        <chord/>
        <pitch>
          <step>C</step>
          <alter>1</alter>
          <octave>4</octave>
        </pitch>
        <duration>1</duration>
        <voice>1</voice>
        <type>eighth</type>
        <stem>down</stem>
      </note>
    </measure>
    <!--=======================================================-->
    <measure number="6" width="157">
      <note default-x="16">
        <pitch>
          <step>E</step>
          <octave>3</octave>
        </pitch>
        <duration>1</duration>
        <voice>1</voice>
        <type>eighth</type>
        <stem default-y="-46">down</stem>
        <beam number="1">begin</beam>
      </note>
      <backup>
        <duration>1</duration>
      </backup>
      <note default-x="16">
        <pitch>
          <step>B</step>
          <octave>3</octave>
        </pitch>
        <duration>2</duration>
        <voice>2</voice>
        <type>quarter</type>
        <stem default-y="29">up</stem>
      </note>
      <backup>
        <duration>1</duration>
      </backup>
      <note default-x="51">
        <pitch>
          <step>D</step>
          <octave>3</octave>
        </pitch>
        <duration>1</duration>
        <voice>1</voice>
        <type>eighth</type>
        <stem default-y="-51">down</stem>
        <beam number="1">end</beam>
      </note>
      <note default-x="86">
        <pitch>
          <step>C</step>
          <octave>3</octave>
        </pitch>
        <duration>1</duration>
        <voice>1</voice>
        <type>eighth</type>
        <accidental>natural</accidental>
        <stem default-y="-56">down</stem>
        <beam number="1">begin</beam>
      </note>
      <backup>
        <duration>1</duration>
      </backup>
      <note default-x="86">
        <pitch>
          <step>B</step>
          <octave>3</octave>
        </pitch>
        <duration>2</duration>
        <voice>2</voice>
        <type>quarter</type>
        <stem default-y="29">up</stem>
      </note>
      <backup>
        <duration>1</duration>
      </backup>
      <note default-x="121">
        <pitch>
          <step>B</step>
          <octave>2</octave>
        </pitch>
        <duration>1</duration>
        <voice>1</voice>
        <type>eighth</type>
        <stem default-y="-61">down</stem>
        <beam number="1">end</beam>
      </note>
    </measure>
    <!--=======================================================-->
    <measure number="7" width="276">
      <note default-x="23">
        <pitch>
          <step>A</step>
          <octave>2</octave>
        </pitch>
        <duration>1</duration>
        <voice>1</voice>
        <type>eighth</type>
        <stem default-y="17">up</stem>
      </note>
      <note default-x="23">
        <chord/>
        <pitch>
          <step>E</step>
          <octave>3</octave>
        </pitch>
        <duration>1</duration>
        <voice>1</voice>
        <type>eighth</type>
        <stem>up</stem>
      </note>
      <note default-x="81">
        <pitch>
          <step>A</step>
          <octave>2</octave>
        </pitch>
        <duration>1</duration>
        <voice>1</voice>
        <type>eighth</type>
        <stem default-y="17">up</stem>
      </note>
      <note default-x="81">
        <chord/>
        <pitch>
          <step>E</step>
          <octave>3</octave>
        </pitch>
        <duration>1</duration>
        <voice>1</voice>
        <type>eighth</type>
        <stem>up</stem>
      </note>
      <note default-x="158">
        <pitch>
          <step>B</step>
          <octave>2</octave>
        </pitch>
        <duration>1</duration>
        <voice>1</voice>
        <type>eighth</type>
        <stem default-y="-61">down</stem>
      </note>
      <note default-x="158">
        <chord/>
        <pitch>
          <step>B</step>
          <octave>3</octave>
        </pitch>
        <duration>1</duration>
        <voice>1</voice>
        <type>eighth</type>
        <stem>down</stem>
      </note>
      <note default-x="216">
        <pitch>
          <step>B</step>
          <octave>2</octave>
        </pitch>
        <duration>1</duration>
        <voice>1</voice>
        <type>eighth</type>
        <stem default-y="-61">down</stem>
      </note>
      <note default-x="216">
        <chord/>
        <pitch>
          <step>A</step>
          <octave>3</octave>
        </pitch>
        <duration>1</duration>
        <voice>1</voice>
        <type>eighth</type>
        <stem>down</stem>
      </note>
    </measure>
    <!--=======================================================-->
    <measure number="8" width="112">
      <note default-x="23">
        <pitch>
          <step>E</step>
          <octave>3</octave>
        </pitch>
        <duration>4</duration>
        <voice>1</voice>
        <type>half</type>
        <stem default-y="-46">down</stem>
      </note>
      <note default-x="23">
        <chord/>
        <pitch>
          <step>G</step>
          <octave>3</octave>
        </pitch>
        <duration>4</duration>
        <voice>1</voice>
        <type>half</type>
        <stem>down</stem>
      </note>
    </measure>
    <!--=======================================================-->
    <measure number="9" width="273">
      <print new-system="yes">
        <staff-layout number="1">
          <staff-distance>70</staff-distance>
        </staff-layout>
      </print>
      <note default-x="83">
        <pitch>
          <step>E</step>
          <octave>3</octave>
        </pitch>
        <duration>2</duration>
        <voice>1</voice>
        <type>quarter</type>
        <stem default-y="-47">down</stem>
      </note>
      <note default-x="83">
        <chord/>
        <pitch>
          <step>B</step>
          <octave>3</octave>
        </pitch>
        <duration>2</duration>
        <voice>1</voice>
        <type>quarter</type>
        <stem>down</stem>
      </note>
      <note default-x="157">
        <pitch>
          <step>A</step>
          <octave>2</octave>
        </pitch>
        <duration>1</duration>
        <voice>1</voice>
        <type>eighth</type>
        <stem default-y="-67">down</stem>
      </note>
      <note default-x="157">
        <chord/>
        <pitch>
          <step>A</step>
          <octave>3</octave>
        </pitch>
        <duration>1</duration>
        <voice>1</voice>
        <type>eighth</type>
        <stem>down</stem>
      </note>
      <note default-x="215">
        <pitch>
          <step>A</step>
          <octave>2</octave>
        </pitch>
        <duration>1</duration>
        <voice>1</voice>
        <type>eighth</type>
        <stem default-y="-67">down</stem>
      </note>
      <note default-x="215">
        <chord/>
        <pitch>
          <step>A</step>
          <octave>3</octave>
        </pitch>
        <duration>1</duration>
        <voice>1</voice>
        <type>eighth</type>
        <stem>down</stem>
      </note>
    </measure>
    <!--=======================================================-->
    <measure number="10" width="158">
      <note default-x="8">
        <pitch>
          <step>D</step>
          <octave>3</octave>
        </pitch>
        <duration>2</duration>
        <voice>1</voice>
        <type>quarter</type>
        <stem default-y="-52">down</stem>
      </note>
      <note default-x="8">
        <chord/>
        <pitch>
          <step>A</step>
          <octave>3</octave>
        </pitch>
        <duration>2</duration>
        <voice>1</voice>
        <type>quarter</type>
        <stem>down</stem>
      </note>
      <note default-x="77">
        <pitch>
          <step>D</step>
          <alter>1</alter>
          <octave>3</octave>
        </pitch>
        <duration>2</duration>
        <voice>1</voice>
        <type>quarter</type>
        <accidental>sharp</accidental>
        <stem default-y="-52">down</stem>
      </note>
      <note default-x="77">
        <chord/>
        <pitch>
          <step>F</step>
          <alter>1</alter>
          <octave>3</octave>
        </pitch>
        <duration>2</duration>
        <voice>1</voice>
        <type>quarter</type>
        <stem>down</stem>
      </note>
    </measure>
    <!--=======================================================-->
    <measure number="11" width="297">
      <note default-x="27">
        <pitch>
          <step>E</step>
          <octave>3</octave>
        </pitch>
        <duration>1</duration>
        <voice>1</voice>
        <type>eighth</type>
        <stem default-y="-47">down</stem>
      </note>
      <note default-x="27">
        <chord/>
        <pitch>
          <step>G</step>
          <octave>3</octave>
        </pitch>
        <duration>1</duration>
        <voice>1</voice>
        <type>eighth</type>
        <stem>down</stem>
      </note>
      <note default-x="93">
        <pitch>
          <step>E</step>
          <octave>3</octave>
        </pitch>
        <duration>1</duration>
        <voice>1</voice>
        <type>eighth</type>
        <stem default-y="-47">down</stem>
      </note>
      <note default-x="93">
        <chord/>
        <pitch>
          <step>B</step>
          <octave>3</octave>
        </pitch>
        <duration>1</duration>
        <voice>1</voice>
        <type>eighth</type>
        <stem>down</stem>
      </note>
      <note default-x="164">
        <pitch>
          <step>F</step>
          <alter>1</alter>
          <octave>3</octave>
        </pitch>
        <duration>1</duration>
        <voice>1</voice>
        <type>eighth</type>
        <stem default-y="-42">down</stem>
      </note>
      <note default-x="164">
        <chord/>
        <pitch>
          <step>A</step>
          <alter>1</alter>
          <octave>3</octave>
        </pitch>
        <duration>1</duration>
        <voice>1</voice>
        <type>eighth</type>
        <accidental>sharp</accidental>
        <stem>down</stem>
      </note>
      <note default-x="234">
        <pitch>
          <step>F</step>
          <alter>1</alter>
          <octave>3</octave>
        </pitch>
        <duration>1</duration>
        <voice>1</voice>
        <type>eighth</type>
        <stem default-y="-42">down</stem>
      </note>
      <note default-x="234">
        <chord/>
        <pitch>
          <step>C</step>
          <alter>1</alter>
          <octave>4</octave>
        </pitch>
        <duration>1</duration>
        <voice>1</voice>
        <type>eighth</type>
        <stem>down</stem>
      </note>
    </measure>
    <!--=======================================================-->
    <measure number="12" width="120">
      <note default-x="37">
        <pitch>
          <step>B</step>
          <octave>2</octave>
        </pitch>
        <duration>4</duration>
        <voice>1</voice>
        <type>half</type>
        <stem default-y="-56">down</stem>
      </note>
      <note default-x="37">
        <chord/>
        <pitch>
          <step>B</step>
          <octave>3</octave>
        </pitch>
        <duration>4</duration>
        <voice>1</voice>
        <type>half</type>
        <stem>down</stem>
      </note>
    </measure>
    <!--=======================================================-->
    <measure number="13" width="303">
      <print new-system="yes">
        <staff-layout number="1">
          <staff-distance>79</staff-distance>
        </staff-layout>
      </print>
      <note default-x="76">
        <pitch>
          <step>E</step>
          <octave>3</octave>
        </pitch>
        <duration>1</duration>
        <voice>1</voice>
        <type>eighth</type>
        <stem default-y="-46">down</stem>
      </note>
      <note default-x="76">
        <chord/>
        <pitch>
          <step>G</step>
          <octave>3</octave>
        </pitch>
        <duration>1</duration>
        <voice>1</voice>
        <type>eighth</type>
        <stem>down</stem>
      </note>
      <note default-x="132">
        <pitch>
          <step>E</step>
          <octave>3</octave>
        </pitch>
        <duration>1</duration>
        <voice>1</voice>
        <type>eighth</type>
        <stem default-y="-46">down</stem>
      </note>
      <note default-x="132">
        <chord/>
        <pitch>
          <step>B</step>
          <octave>3</octave>
        </pitch>
        <duration>1</duration>
        <voice>1</voice>
        <type>eighth</type>
        <stem>down</stem>
      </note>
      <note default-x="189">
        <pitch>
          <step>E</step>
          <octave>3</octave>
        </pitch>
        <duration>1</duration>
        <voice>1</voice>
        <type>eighth</type>
        <stem default-y="-46">down</stem>
      </note>
      <note default-x="189">
        <chord/>
        <pitch>
          <step>A</step>
          <octave>3</octave>
        </pitch>
        <duration>1</duration>
        <voice>1</voice>
        <type>eighth</type>
        <stem>down</stem>
      </note>
      <note default-x="245">
        <pitch>
          <step>E</step>
          <octave>3</octave>
        </pitch>
        <duration>1</duration>
        <voice>1</voice>
        <type>eighth</type>
        <stem default-y="-46">down</stem>
      </note>
      <note default-x="245">
        <chord/>
        <pitch>
          <step>C</step>
          <alter>1</alter>
          <octave>4</octave>
        </pitch>
        <duration>1</duration>
        <voice>1</voice>
        <type>eighth</type>
        <stem>down</stem>
      </note>
    </measure>
    <!--=======================================================-->
    <measure number="14" width="164">
      <note default-x="22">
        <pitch>
          <step>E</step>
          <octave>3</octave>
        </pitch>
        <duration>2</duration>
        <voice>1</voice>
        <type>quarter</type>
        <stem default-y="-46">down</stem>
      </note>
      <note default-x="22">
        <chord/>
        <pitch>
          <step>B</step>
          <octave>3</octave>
        </pitch>
        <duration>2</duration>
        <voice>1</voice>
        <type>quarter</type>
        <stem>down</stem>
      </note>
      <note default-x="100">
        <pitch>
          <step>G</step>
          <octave>3</octave>
        </pitch>
        <duration>2</duration>
        <voice>1</voice>
        <type>quarter</type>
        <stem default-y="-36">down</stem>
      </note>
      <note default-x="100">
        <chord/>
        <pitch>
          <step>B</step>
          <octave>3</octave>
        </pitch>
        <duration>2</duration>
        <voice>1</voice>
        <type>quarter</type>
        <stem>down</stem>
      </note>
    </measure>
    <!--=======================================================-->
    <measure number="15" width="273">
      <note default-x="22">
        <pitch>
          <step>F</step>
          <alter>1</alter>
          <octave>3</octave>
        </pitch>
        <duration>1</duration>
        <voice>1</voice>
        <type>eighth</type>
        <stem default-y="-41">down</stem>
      </note>
      <note default-x="22">
        <chord/>
        <pitch>
          <step>A</step>
          <octave>3</octave>
        </pitch>
        <duration>1</duration>
        <voice>1</voice>
        <type>eighth</type>
        <stem>down</stem>
      </note>
      <note default-x="82">
        <pitch>
          <step>F</step>
          <alter>1</alter>
          <octave>3</octave>
        </pitch>
        <duration>1</duration>
        <voice>1</voice>
        <type>eighth</type>
        <stem>double</stem>
      </note>
      <note default-x="154">
        <pitch>
          <step>B</step>
          <octave>2</octave>
        </pitch>
        <duration>1</duration>
        <voice>1</voice>
        <type>eighth</type>
        <stem default-y="-61">down</stem>
      </note>
      <note default-x="154">
        <chord/>
        <pitch>
          <step>B</step>
          <octave>3</octave>
        </pitch>
        <duration>1</duration>
        <voice>1</voice>
        <type>eighth</type>
        <stem>down</stem>
      </note>
      <note default-x="218">
        <pitch>
          <step>B</step>
          <octave>2</octave>
        </pitch>
        <duration>1</duration>
        <voice>1</voice>
        <type>eighth</type>
        <stem default-y="-61">down</stem>
      </note>
      <note default-x="218">
        <chord/>
        <pitch>
          <step>A</step>
          <octave>3</octave>
        </pitch>
        <duration>1</duration>
        <voice>1</voice>
        <type>eighth</type>
        <stem>down</stem>
      </note>
    </measure>
    <!--=======================================================-->
    <measure number="16" width="107">
      <note default-x="26">
        <pitch>
          <step>E</step>
          <octave>3</octave>
        </pitch>
        <duration>4</duration>
        <voice>1</voice>
        <type>half</type>
        <stem default-y="-46">down</stem>
      </note>
      <note default-x="26">
        <chord/>
        <pitch>
          <step>G</step>
          <octave>3</octave>
        </pitch>
        <duration>4</duration>
        <voice>1</voice>
        <type>half</type>
        <stem>down</stem>
      </note>
      <barline location="right">
        <bar-style>light-heavy</bar-style>
      </barline>
    </measure>
  </part>
  <!--=========================================================-->
</score-partwise>
