<?xml version="1.0" encoding="UTF-8" standalone="no"?>
<!DOCTYPE score-partwise PUBLIC "-//Recordare//DTD MusicXML 3.1 Partwise//EN" "http://www.musicxml.org/dtds/partwise.dtd">
<score-partwise version="3.1">
  <identification>
    <encoding>
      <software>Finale v25 for Windows</software>
      <encoding-date>2020-07-08</encoding-date>
      <supports attribute="new-system" element="print" type="yes" value="yes"/>
      <supports attribute="new-page" element="print" type="yes" value="yes"/>
      <supports element="accidental" type="yes"/>
      <supports element="beam" type="yes"/>
      <supports element="stem" type="yes"/>
    </encoding>
  </identification>
  <defaults>
    <scaling>
      <millimeters>6.35</millimeters>
      <tenths>40</tenths>
    </scaling>
    <page-layout>
      <page-height>1380</page-height>
      <page-width>852</page-width>
      <page-margins type="both">
        <left-margin>0</left-margin>
        <right-margin>0</right-margin>
        <top-margin>0</top-margin>
        <bottom-margin>798</bottom-margin>
      </page-margins>
    </page-layout>
    <system-layout>
      <system-margins>
        <left-margin>5</left-margin>
        <right-margin>0</right-margin>
      </system-margins>
      <system-distance>50</system-distance>
      <top-system-distance>50</top-system-distance>
    </system-layout>
    <staff-layout>
      <staff-distance>108</staff-distance>
    </staff-layout>
    <appearance>
      <line-width type="stem">0.8333</line-width>
      <line-width type="beam">4.1667</line-width>
      <line-width type="staff">0.7096</line-width>
      <line-width type="light barline">0.8333</line-width>
      <line-width type="heavy barline">5</line-width>
      <line-width type="leger">0.7292</line-width>
      <line-width type="ending">0.7682</line-width>
      <line-width type="wedge">0.8333</line-width>
      <line-width type="enclosure">0.8333</line-width>
      <line-width type="tuplet bracket">0.7292</line-width>
      <note-size type="grace">55</note-size>
      <note-size type="cue">55</note-size>
      <distance type="hyphen">83</distance>
      <distance type="beam">8</distance>
    </appearance>
    <music-font font-family="Petrucci2" font-size="18"/>
    <word-font font-family="Palatino Linotype" font-size="9"/>
    <lyric-font font-family="Palatino Linotype" font-size="9"/>
  </defaults>
  <credit page="1">
    <credit-words default-y="1042" font-size="7.5" valign="bottom" xml:space="preserve">Music: Fredrich Silcher, 1842
Text: Julie Katharina Hausmann, 1862; tr. Herman H. Brueckner (1866–1942)</credit-words>
  </credit>
  <credit page="1">
    <credit-words default-x="852" default-y="1042" font-size="7.5" justify="right" valign="bottom" xml:lang="de" xml:space="preserve">SO NIMM DENN MEINE HÄNDE
7 4. 7 4. 7 4. 7 4.</credit-words>
  </credit>
  <part-list>
    <part-group number="1" type="start">
      <group-symbol default-x="-2">line</group-symbol>
      <group-barline>no</group-barline>
    </part-group>
    <part-group number="2" type="start">
      <group-barline>no</group-barline>
    </part-group>
    <score-part id="P1">
      <part-name print-object="no">MusicXML Part</part-name>
      <score-instrument id="P1-I2">
        <instrument-name>Instr. 1</instrument-name>
      </score-instrument>
      <midi-instrument id="P1-I2">
        <midi-channel>1</midi-channel>
        <midi-program>53</midi-program>
        <volume>80</volume>
        <pan>0</pan>
      </midi-instrument>
    </score-part>
    <score-part id="P2">
      <part-name print-object="no">MusicXML Part</part-name>
      <score-instrument id="P2-I3">
        <instrument-name>Instr. 3</instrument-name>
      </score-instrument>
      <midi-instrument id="P2-I3">
        <midi-channel>3</midi-channel>
        <midi-program>53</midi-program>
        <volume>80</volume>
        <pan>0</pan>
      </midi-instrument>
    </score-part>
    <part-group number="2" type="stop"/>
    <part-group number="1" type="stop"/>
  </part-list>
  <!--=========================================================-->
  <part id="P1">
    <measure implicit="yes" number="0" width="142">
      <print>
        <page-layout>
          <page-height>1380</page-height>
          <page-width>852</page-width>
          <page-margins>
            <left-margin>0</left-margin>
            <right-margin>0</right-margin>
            <top-margin>0</top-margin>
            <bottom-margin>1042</bottom-margin>
          </page-margins>
        </page-layout>
        <system-layout>
          <top-system-distance>75</top-system-distance>
        </system-layout>
        <measure-numbering>system</measure-numbering>
      </print>
      <attributes>
        <divisions>2</divisions>
        <key>
          <fifths>2</fifths>
          <mode>major</mode>
        </key>
        <time>
          <beats>4</beats>
          <beat-type>4</beat-type>
        </time>
        <clef>
          <sign>G</sign>
          <line>2</line>
        </clef>
      </attributes>
      <sound tempo="100"/>
      <note default-x="104">
        <pitch>
          <step>D</step>
          <octave>4</octave>
        </pitch>
        <duration>2</duration>
        <instrument id="P1-I2"/>
        <voice>1</voice>
        <type>quarter</type>
        <stem default-y="7">up</stem>
        <lyric default-y="-82" number="1" relative-x="-2">
          <syllabic>single</syllabic>
          <text>1.</text>
          <elision> </elision>
          <syllabic>single</syllabic>
          <text>Take</text>
        </lyric>
        <lyric default-y="-103" number="2" relative-x="-2">
          <syllabic>single</syllabic>
          <text>2.</text>
          <elision> </elision>
          <syllabic>single</syllabic>
          <text>Oh,</text>
        </lyric>
        <lyric default-y="-124" number="3" relative-x="-2">
          <syllabic>single</syllabic>
          <text>3.</text>
          <elision> </elision>
          <syllabic>single</syllabic>
          <text>Though</text>
        </lyric>
      </note>
      <note default-x="104">
        <chord/>
        <pitch>
          <step>A</step>
          <octave>4</octave>
        </pitch>
        <duration>2</duration>
        <instrument id="P1-I2"/>
        <voice>1</voice>
        <type>quarter</type>
        <stem>up</stem>
      </note>
    </measure>
    <!--=======================================================-->
    <measure number="1" width="220">
      <note default-x="27">
        <pitch>
          <step>D</step>
          <octave>4</octave>
        </pitch>
        <duration>2</duration>
        <instrument id="P1-I2"/>
        <voice>1</voice>
        <type>quarter</type>
        <stem default-y="12">up</stem>
        <lyric default-y="-82" number="1">
          <syllabic>single</syllabic>
          <text>Thou</text>
        </lyric>
        <lyric default-y="-103" number="2">
          <syllabic>begin</syllabic>
          <text>cov</text>
        </lyric>
        <lyric default-y="-124" number="3" relative-x="16">
          <syllabic>single</syllabic>
          <text>naught</text>
        </lyric>
      </note>
      <note default-x="27">
        <chord/>
        <pitch>
          <step>B</step>
          <octave>4</octave>
        </pitch>
        <duration>2</duration>
        <instrument id="P1-I2"/>
        <voice>1</voice>
        <type>quarter</type>
        <stem>up</stem>
      </note>
      <note default-x="78">
        <pitch>
          <step>D</step>
          <octave>4</octave>
        </pitch>
        <duration>2</duration>
        <instrument id="P1-I2"/>
        <voice>1</voice>
        <type>quarter</type>
        <stem default-y="7">up</stem>
        <lyric default-y="-82" number="1">
          <syllabic>single</syllabic>
          <text>my</text>
        </lyric>
        <lyric default-y="-103" number="2">
          <syllabic>end</syllabic>
          <text>er</text>
        </lyric>
        <lyric default-y="-124" number="3" relative-x="13">
          <syllabic>single</syllabic>
          <text>of</text>
        </lyric>
      </note>
      <note default-x="78">
        <chord/>
        <pitch>
          <step>A</step>
          <octave>4</octave>
        </pitch>
        <duration>2</duration>
        <instrument id="P1-I2"/>
        <voice>1</voice>
        <type>quarter</type>
        <stem>up</stem>
      </note>
      <note default-x="127">
        <pitch>
          <step>C</step>
          <alter>1</alter>
          <octave>4</octave>
        </pitch>
        <duration>2</duration>
        <instrument id="P1-I2"/>
        <voice>1</voice>
        <type>quarter</type>
        <stem default-y="2">up</stem>
        <lyric default-y="-82" number="1">
          <syllabic>single</syllabic>
          <text>hand,</text>
        </lyric>
        <lyric default-y="-103" number="2">
          <syllabic>single</syllabic>
          <text>with</text>
        </lyric>
        <lyric default-y="-124" number="3">
          <syllabic>single</syllabic>
          <text>Thy</text>
        </lyric>
      </note>
      <note default-x="127">
        <chord/>
        <pitch>
          <step>G</step>
          <octave>4</octave>
        </pitch>
        <duration>2</duration>
        <instrument id="P1-I2"/>
        <voice>1</voice>
        <type>quarter</type>
        <stem>up</stem>
      </note>
      <note default-x="181">
        <pitch>
          <step>D</step>
          <octave>4</octave>
        </pitch>
        <duration>2</duration>
        <instrument id="P1-I2"/>
        <voice>1</voice>
        <type>quarter</type>
        <stem default-y="-3">up</stem>
        <lyric default-y="-82" number="1">
          <syllabic>single</syllabic>
          <text>O</text>
        </lyric>
        <lyric default-y="-103" number="2">
          <syllabic>single</syllabic>
          <text>Thy</text>
        </lyric>
        <lyric default-y="-124" number="3">
          <syllabic>single</syllabic>
          <text>great</text>
        </lyric>
      </note>
      <note default-x="181">
        <chord/>
        <pitch>
          <step>F</step>
          <alter>1</alter>
          <octave>4</octave>
        </pitch>
        <duration>2</duration>
        <instrument id="P1-I2"/>
        <voice>1</voice>
        <type>quarter</type>
        <stem>up</stem>
      </note>
    </measure>
    <!--=======================================================-->
    <measure number="2" width="146">
      <note default-x="18">
        <pitch>
          <step>D</step>
          <octave>4</octave>
        </pitch>
        <duration>4</duration>
        <instrument id="P1-I2"/>
        <voice>1</voice>
        <type>half</type>
        <stem default-y="-3">up</stem>
        <lyric default-y="-82" number="1">
          <syllabic>begin</syllabic>
          <text>Fa</text>
        </lyric>
        <lyric default-y="-103" number="2">
          <syllabic>begin</syllabic>
          <text>mer</text>
        </lyric>
        <lyric default-y="-124" number="3">
          <syllabic>begin</syllabic>
          <text>pow</text>
        </lyric>
      </note>
      <note default-x="18">
        <chord/>
        <pitch>
          <step>F</step>
          <alter>1</alter>
          <octave>4</octave>
        </pitch>
        <duration>4</duration>
        <instrument id="P1-I2"/>
        <voice>1</voice>
        <type>half</type>
        <stem>up</stem>
      </note>
      <note default-x="66">
        <pitch>
          <step>C</step>
          <alter>1</alter>
          <octave>4</octave>
        </pitch>
        <duration>2</duration>
        <instrument id="P1-I2"/>
        <voice>1</voice>
        <type>quarter</type>
        <stem default-y="-8">up</stem>
        <lyric default-y="-82" number="1">
          <syllabic>end</syllabic>
          <text>ther,</text>
        </lyric>
        <lyric default-y="-103" number="2">
          <syllabic>end</syllabic>
          <text>cy</text>
        </lyric>
        <lyric default-y="-124" number="3">
          <syllabic>end</syllabic>
          <text>er</text>
        </lyric>
      </note>
      <note default-x="66">
        <chord/>
        <pitch>
          <step>E</step>
          <octave>4</octave>
        </pitch>
        <duration>2</duration>
        <instrument id="P1-I2"/>
        <voice>1</voice>
        <type>quarter</type>
        <stem>up</stem>
      </note>
      <note default-x="112">
        <pitch>
          <step>D</step>
          <octave>4</octave>
        </pitch>
        <duration>2</duration>
        <instrument id="P1-I2"/>
        <voice>1</voice>
        <type>quarter</type>
        <stem default-y="-3">up</stem>
        <lyric default-y="-82" number="1">
          <syllabic>single</syllabic>
          <text>And</text>
        </lyric>
        <lyric default-y="-103" number="2">
          <syllabic>single</syllabic>
          <text>My</text>
        </lyric>
        <lyric default-y="-124" number="3">
          <syllabic>single</syllabic>
          <text>May</text>
        </lyric>
      </note>
      <note default-x="112">
        <chord/>
        <pitch>
          <step>F</step>
          <alter>1</alter>
          <octave>4</octave>
        </pitch>
        <duration>2</duration>
        <instrument id="P1-I2"/>
        <voice>1</voice>
        <type>quarter</type>
        <stem>up</stem>
      </note>
    </measure>
    <!--=======================================================-->
    <measure number="3" width="108">
      <note default-x="23">
        <pitch>
          <step>D</step>
          <octave>4</octave>
        </pitch>
        <duration>4</duration>
        <instrument id="P1-I2"/>
        <voice>1</voice>
        <type>half</type>
        <stem default-y="2">up</stem>
        <lyric default-y="-82" number="1">
          <syllabic>single</syllabic>
          <text>lead</text>
        </lyric>
        <lyric default-y="-103" number="2" relative-x="-2">
          <syllabic>single</syllabic>
          <text>poor,</text>
        </lyric>
        <lyric default-y="-124" number="3">
          <syllabic>single</syllabic>
          <text>move</text>
        </lyric>
      </note>
      <note default-x="23">
        <chord/>
        <pitch>
          <step>G</step>
          <octave>4</octave>
        </pitch>
        <duration>4</duration>
        <instrument id="P1-I2"/>
        <voice>1</voice>
        <type>half</type>
        <stem>up</stem>
      </note>
      <note default-x="72">
        <pitch>
          <step>E</step>
          <octave>4</octave>
        </pitch>
        <duration>4</duration>
        <instrument id="P1-I2"/>
        <voice>1</voice>
        <type>half</type>
        <stem default-y="7">up</stem>
        <lyric default-y="-82" number="1">
          <syllabic>single</syllabic>
          <text>Thou</text>
        </lyric>
        <lyric default-y="-103" number="2" relative-x="3">
          <syllabic>single</syllabic>
          <text>weak</text>
        </lyric>
        <lyric default-y="-124" number="3">
          <syllabic>single</syllabic>
          <text>my</text>
        </lyric>
      </note>
      <note default-x="72">
        <chord/>
        <pitch>
          <step>A</step>
          <octave>4</octave>
        </pitch>
        <duration>4</duration>
        <instrument id="P1-I2"/>
        <voice>1</voice>
        <type>half</type>
        <stem>up</stem>
      </note>
    </measure>
    <!--=======================================================-->
    <measure number="4" width="231">
      <note default-x="24">
        <pitch>
          <step>D</step>
          <octave>4</octave>
        </pitch>
        <duration>6</duration>
        <instrument id="P1-I2"/>
        <voice>1</voice>
        <type>half</type>
        <dot/>
        <stem default-y="-3">up</stem>
        <lyric default-y="-82" number="1">
          <syllabic>single</syllabic>
          <text>me,</text>
        </lyric>
        <lyric default-y="-103" number="2">
          <syllabic>single</syllabic>
          <text>heart!</text>
        </lyric>
        <lyric default-y="-124" number="3">
          <syllabic>single</syllabic>
          <text>soul,</text>
        </lyric>
      </note>
      <note default-x="24">
        <chord/>
        <pitch>
          <step>F</step>
          <alter>1</alter>
          <octave>4</octave>
        </pitch>
        <duration>6</duration>
        <instrument id="P1-I2"/>
        <voice>1</voice>
        <type>half</type>
        <dot/>
        <stem>up</stem>
      </note>
      <note default-x="75">
        <pitch>
          <step>D</step>
          <octave>4</octave>
        </pitch>
        <duration>2</duration>
        <instrument id="P1-I2"/>
        <voice>1</voice>
        <type>quarter</type>
        <stem default-y="7">up</stem>
        <lyric default-y="-82" number="1" relative-x="3">
          <syllabic>begin</syllabic>
          <text>Un</text>
        </lyric>
        <lyric default-y="-103" number="2" relative-x="3">
          <syllabic>single</syllabic>
          <text>Let</text>
        </lyric>
        <lyric default-y="-124" number="3" relative-x="3">
          <syllabic>single</syllabic>
          <text>With</text>
        </lyric>
      </note>
      <note default-x="75">
        <chord/>
        <pitch>
          <step>A</step>
          <octave>4</octave>
        </pitch>
        <duration>2</duration>
        <instrument id="P1-I2"/>
        <voice>1</voice>
        <type>quarter</type>
        <stem>up</stem>
      </note>
    </measure>
    <!--=======================================================-->
    <measure number="5" width="848">
      <print new-page="yes"/>
      <note>
        <pitch>
          <step>D</step>
          <octave>4</octave>
        </pitch>
        <duration>2</duration>
        <instrument id="P1-I2"/>
        <voice>1</voice>
        <type>quarter</type>
        <stem>up</stem>
        <lyric default-y="-82" number="1">
          <syllabic>end</syllabic>
          <text>til</text>
        </lyric>
        <lyric default-y="-103" number="2">
          <syllabic>begin</syllabic>
          <text>ev</text>
        </lyric>
        <lyric default-y="-124" number="3" relative-x="-4">
          <syllabic>single</syllabic>
          <text>Thee</text>
        </lyric>
      </note>
      <note>
        <chord/>
        <pitch>
          <step>B</step>
          <octave>4</octave>
        </pitch>
        <duration>2</duration>
        <instrument id="P1-I2"/>
        <voice>1</voice>
        <type>quarter</type>
        <stem>up</stem>
      </note>
      <note>
        <pitch>
          <step>D</step>
          <octave>4</octave>
        </pitch>
        <duration>2</duration>
        <instrument id="P1-I2"/>
        <voice>1</voice>
        <type>quarter</type>
        <stem>up</stem>
        <lyric default-y="-82" number="1">
          <syllabic>single</syllabic>
          <text>my</text>
        </lyric>
        <lyric default-y="-103" number="2">
          <syllabic>end</syllabic>
          <text>’ry</text>
        </lyric>
        <lyric default-y="-124" number="3">
          <syllabic>single</syllabic>
          <text>through</text>
        </lyric>
      </note>
      <note>
        <chord/>
        <pitch>
          <step>A</step>
          <octave>4</octave>
        </pitch>
        <duration>2</duration>
        <instrument id="P1-I2"/>
        <voice>1</voice>
        <type>quarter</type>
        <stem>up</stem>
      </note>
      <note>
        <pitch>
          <step>C</step>
          <alter>1</alter>
          <octave>4</octave>
        </pitch>
        <duration>2</duration>
        <instrument id="P1-I2"/>
        <voice>1</voice>
        <type>quarter</type>
        <stem>up</stem>
        <lyric default-y="-82" number="1" relative-x="7">
          <syllabic>begin</syllabic>
          <text>jour</text>
        </lyric>
        <lyric default-y="-103" number="2" relative-x="7">
          <syllabic>single</syllabic>
          <text>thought</text>
        </lyric>
        <lyric default-y="-124" number="3" relative-x="7">
          <syllabic>single</syllabic>
          <text>night</text>
        </lyric>
      </note>
      <note>
        <chord/>
        <pitch>
          <step>G</step>
          <octave>4</octave>
        </pitch>
        <duration>2</duration>
        <instrument id="P1-I2"/>
        <voice>1</voice>
        <type>quarter</type>
        <stem>up</stem>
      </note>
      <note>
        <pitch>
          <step>D</step>
          <octave>4</octave>
        </pitch>
        <duration>2</duration>
        <instrument id="P1-I2"/>
        <voice>1</voice>
        <type>quarter</type>
        <stem>up</stem>
        <lyric default-y="-82" number="1">
          <syllabic>end</syllabic>
          <text>ney</text>
        </lyric>
        <lyric default-y="-103" number="2">
          <syllabic>begin</syllabic>
          <text>re</text>
        </lyric>
        <lyric default-y="-124" number="3" relative-x="-2">
          <syllabic>single</syllabic>
          <text>and</text>
        </lyric>
      </note>
      <note>
        <chord/>
        <pitch>
          <step>F</step>
          <alter>1</alter>
          <octave>4</octave>
        </pitch>
        <duration>2</duration>
        <instrument id="P1-I2"/>
        <voice>1</voice>
        <type>quarter</type>
        <stem>up</stem>
      </note>
    </measure>
    <!--=======================================================-->
    <measure number="6">
      <note default-x="-649">
        <pitch>
          <step>D</step>
          <octave>4</octave>
        </pitch>
        <duration>4</duration>
        <instrument id="P1-I2"/>
        <voice>1</voice>
        <type>half</type>
        <stem default-y="-3">up</stem>
        <lyric default-y="-82" number="1" relative-x="-2">
          <syllabic>begin</syllabic>
          <text>end</text>
        </lyric>
        <lyric default-y="-103" number="2" relative-x="-2">
          <syllabic>middle</syllabic>
          <text>bel</text>
        </lyric>
        <lyric default-y="-124" number="3" relative-x="-2">
          <syllabic>begin</syllabic>
          <text>dark</text>
        </lyric>
      </note>
      <note default-x="-649">
        <chord/>
        <pitch>
          <step>F</step>
          <alter>1</alter>
          <octave>4</octave>
        </pitch>
        <duration>4</duration>
        <instrument id="P1-I2"/>
        <voice>1</voice>
        <type>half</type>
        <stem>up</stem>
      </note>
      <note default-x="-601">
        <pitch>
          <step>C</step>
          <alter>1</alter>
          <octave>4</octave>
        </pitch>
        <duration>2</duration>
        <instrument id="P1-I2"/>
        <voice>1</voice>
        <type>quarter</type>
        <stem default-y="-8">up</stem>
        <lyric default-y="-82" number="1">
          <syllabic>end</syllabic>
          <text>eth,</text>
        </lyric>
        <lyric default-y="-103" number="2">
          <syllabic>end</syllabic>
          <text>lious</text>
        </lyric>
        <lyric default-y="-124" number="3">
          <syllabic>end</syllabic>
          <text>ness</text>
        </lyric>
      </note>
      <note default-x="-601">
        <chord/>
        <pitch>
          <step>E</step>
          <octave>4</octave>
        </pitch>
        <duration>2</duration>
        <instrument id="P1-I2"/>
        <voice>1</voice>
        <type>quarter</type>
        <stem>up</stem>
      </note>
      <note default-x="-549">
        <pitch>
          <step>D</step>
          <octave>4</octave>
        </pitch>
        <duration>2</duration>
        <instrument id="P1-I2"/>
        <voice>1</voice>
        <type>quarter</type>
        <stem default-y="-3">up</stem>
        <lyric default-y="-82" number="1" relative-x="4">
          <syllabic>begin</syllabic>
          <text>E</text>
        </lyric>
        <lyric default-y="-103" number="2" relative-x="4">
          <syllabic>single</syllabic>
          <text>From</text>
        </lyric>
        <lyric default-y="-124" number="3" relative-x="4">
          <syllabic>single</syllabic>
          <text>I</text>
        </lyric>
      </note>
      <note default-x="-549">
        <chord/>
        <pitch>
          <step>F</step>
          <alter>1</alter>
          <octave>4</octave>
        </pitch>
        <duration>2</duration>
        <instrument id="P1-I2"/>
        <voice>1</voice>
        <type>quarter</type>
        <stem>up</stem>
      </note>
    </measure>
    <!--=======================================================-->
    <measure number="7">
      <note>
        <pitch>
          <step>D</step>
          <octave>4</octave>
        </pitch>
        <duration>4</duration>
        <instrument id="P1-I2"/>
        <voice>1</voice>
        <type>half</type>
        <stem default-y="2">up</stem>
        <lyric default-y="-82" number="1" relative-x="-2">
          <syllabic>middle</syllabic>
          <text>ter</text>
        </lyric>
        <lyric default-y="-103" number="2" relative-x="-2">
          <syllabic>single</syllabic>
          <text>me</text>
        </lyric>
        <lyric default-y="-124" number="3" relative-x="-2">
          <syllabic>single</syllabic>
          <text>reach</text>
        </lyric>
      </note>
      <note>
        <chord/>
        <pitch>
          <step>G</step>
          <octave>4</octave>
        </pitch>
        <duration>4</duration>
        <instrument id="P1-I2"/>
        <voice>1</voice>
        <type>half</type>
        <stem>up</stem>
      </note>
      <note>
        <pitch>
          <step>E</step>
          <octave>4</octave>
        </pitch>
        <duration>4</duration>
        <instrument id="P1-I2"/>
        <voice>1</voice>
        <type>half</type>
        <stem default-y="7">up</stem>
        <lyric default-y="-82" number="1">
          <syllabic>middle</syllabic>
          <text>nal</text>
        </lyric>
        <lyric default-y="-103" number="2">
          <syllabic>begin</syllabic>
          <text>de</text>
        </lyric>
        <lyric default-y="-124" number="3">
          <syllabic>single</syllabic>
          <text>my</text>
        </lyric>
      </note>
      <note>
        <chord/>
        <pitch>
          <step>A</step>
          <octave>4</octave>
        </pitch>
        <duration>4</duration>
        <instrument id="P1-I2"/>
        <voice>1</voice>
        <type>half</type>
        <stem>up</stem>
      </note>
    </measure>
    <!--=======================================================-->
    <measure number="8">
      <note>
        <pitch>
          <step>D</step>
          <octave>4</octave>
        </pitch>
        <duration>6</duration>
        <instrument id="P1-I2"/>
        <voice>1</voice>
        <type>half</type>
        <dot/>
        <stem default-y="-3">up</stem>
        <lyric default-y="-82" number="1">
          <syllabic>end</syllabic>
          <text>ly.</text>
        </lyric>
        <lyric default-y="-103" number="2">
          <syllabic>end</syllabic>
          <text>part.</text>
        </lyric>
        <lyric default-y="-124" number="3">
          <syllabic>single</syllabic>
          <text>goal.</text>
        </lyric>
      </note>
      <note>
        <chord/>
        <pitch>
          <step>F</step>
          <alter>1</alter>
          <octave>4</octave>
        </pitch>
        <duration>6</duration>
        <instrument id="P1-I2"/>
        <voice>1</voice>
        <type>half</type>
        <dot/>
        <stem>up</stem>
      </note>
      <note>
        <pitch>
          <step>D</step>
          <octave>4</octave>
        </pitch>
        <duration>2</duration>
        <instrument id="P1-I2"/>
        <voice>1</voice>
        <type>quarter</type>
        <stem default-y="-3">up</stem>
        <lyric default-y="-82" number="1">
          <syllabic>begin</syllabic>
          <text>A</text>
        </lyric>
        <lyric default-y="-103" number="2">
          <syllabic>begin</syllabic>
          <text>Per</text>
        </lyric>
        <lyric default-y="-124" number="3">
          <syllabic>single</syllabic>
          <text>Take,</text>
        </lyric>
      </note>
      <note>
        <chord/>
        <pitch>
          <step>F</step>
          <alter>1</alter>
          <octave>4</octave>
        </pitch>
        <duration>2</duration>
        <instrument id="P1-I2"/>
        <voice>1</voice>
        <type>quarter</type>
        <stem>up</stem>
      </note>
    </measure>
    <!--=======================================================-->
    <measure number="9">
      <note>
        <pitch>
          <step>E</step>
          <octave>4</octave>
        </pitch>
        <duration>2</duration>
        <instrument id="P1-I2"/>
        <voice>1</voice>
        <type>quarter</type>
        <stem>double</stem>
        <lyric default-y="-82" number="1">
          <syllabic>end</syllabic>
          <text>lone</text>
        </lyric>
        <lyric default-y="-103" number="2">
          <syllabic>end</syllabic>
          <text>mit</text>
        </lyric>
        <lyric default-y="-124" number="3" relative-x="-3">
          <syllabic>single</syllabic>
          <text>then,</text>
        </lyric>
      </note>
      <note>
        <pitch>
          <step>E</step>
          <octave>4</octave>
        </pitch>
        <duration>2</duration>
        <instrument id="P1-I2"/>
        <voice>1</voice>
        <type>quarter</type>
        <stem default-y="7">up</stem>
        <lyric default-y="-82" number="1">
          <syllabic>single</syllabic>
          <text>I</text>
        </lyric>
        <lyric default-y="-103" number="2">
          <syllabic>single</syllabic>
          <text>Thy</text>
        </lyric>
        <lyric default-y="-124" number="3">
          <syllabic>single</syllabic>
          <text>my</text>
        </lyric>
      </note>
      <note>
        <chord/>
        <pitch>
          <step>A</step>
          <octave>4</octave>
        </pitch>
        <duration>2</duration>
        <instrument id="P1-I2"/>
        <voice>1</voice>
        <type>quarter</type>
        <stem>up</stem>
      </note>
      <note>
        <pitch>
          <step>E</step>
          <octave>4</octave>
        </pitch>
        <duration>2</duration>
        <instrument id="P1-I2"/>
        <voice>1</voice>
        <type>quarter</type>
        <stem default-y="2">up</stem>
        <lyric default-y="-82" number="1">
          <syllabic>single</syllabic>
          <text>will</text>
        </lyric>
        <lyric default-y="-103" number="2">
          <syllabic>single</syllabic>
          <text>child</text>
        </lyric>
        <lyric default-y="-124" number="3">
          <syllabic>single</syllabic>
          <text>hands,</text>
        </lyric>
      </note>
      <note>
        <chord/>
        <pitch>
          <step>G</step>
          <alter>1</alter>
          <octave>4</octave>
        </pitch>
        <duration>2</duration>
        <instrument id="P1-I2"/>
        <voice>1</voice>
        <type>quarter</type>
        <accidental>sharp</accidental>
        <stem>up</stem>
      </note>
      <note>
        <pitch>
          <step>E</step>
          <octave>4</octave>
        </pitch>
        <duration>2</duration>
        <instrument id="P1-I2"/>
        <voice>1</voice>
        <type>quarter</type>
        <stem default-y="12">up</stem>
        <lyric default-y="-82" number="1">
          <syllabic>single</syllabic>
          <text>not</text>
        </lyric>
        <lyric default-y="-103" number="2">
          <syllabic>single</syllabic>
          <text>to</text>
        </lyric>
        <lyric default-y="-124" number="3">
          <syllabic>single</syllabic>
          <text>O</text>
        </lyric>
      </note>
      <note>
        <chord/>
        <pitch>
          <step>B</step>
          <octave>4</octave>
        </pitch>
        <duration>2</duration>
        <instrument id="P1-I2"/>
        <voice>1</voice>
        <type>quarter</type>
        <stem>up</stem>
      </note>
    </measure>
    <!--=======================================================-->
    <measure number="10" width="125">
      <print new-system="yes"/>
      <note default-x="743">
        <pitch>
          <step>E</step>
          <octave>4</octave>
        </pitch>
        <duration>4</duration>
        <instrument id="P1-I2"/>
        <voice>1</voice>
        <type>half</type>
        <stem default-y="174">down</stem>
        <lyric default-y="-82" number="1">
          <syllabic>begin</syllabic>
          <text>wan</text>
        </lyric>
        <lyric default-y="-103" number="2">
          <syllabic>begin</syllabic>
          <text>lin</text>
        </lyric>
        <lyric default-y="-124" number="3">
          <syllabic>begin</syllabic>
          <text>Fa</text>
        </lyric>
      </note>
      <backup>
        <duration>4</duration>
      </backup>
      <note default-x="743">
        <pitch>
          <step>A</step>
          <octave>4</octave>
        </pitch>
        <duration>3</duration>
        <instrument id="P1-I2"/>
        <voice>2</voice>
        <type>quarter</type>
        <dot/>
        <stem default-y="245">up</stem>
      </note>
      <note default-x="789">
        <pitch>
          <step>B</step>
          <octave>4</octave>
        </pitch>
        <duration>1</duration>
        <instrument id="P1-I2"/>
        <voice>2</voice>
        <type>eighth</type>
        <stem default-y="250">up</stem>
        <notations>
          <slur default-y="-1" number="1" placement="above" relative-x="-10" type="start"/>
        </notations>
      </note>
      <note default-x="820">
        <pitch>
          <step>E</step>
          <octave>4</octave>
        </pitch>
        <duration>2</duration>
        <instrument id="P1-I2"/>
        <voice>1</voice>
        <type>quarter</type>
        <stem default-y="249.5">up</stem>
        <notations>
          <slur default-y="3" number="1" type="stop"/>
        </notations>
        <lyric default-y="-82" number="1">
          <syllabic>end</syllabic>
          <text>der</text>
        </lyric>
        <lyric default-y="-103" number="2">
          <syllabic>end</syllabic>
          <text>ger</text>
        </lyric>
        <lyric default-y="-124" number="3">
          <syllabic>end</syllabic>
          <text>ther,</text>
        </lyric>
      </note>
      <note default-x="820">
        <chord/>
        <pitch>
          <step>C</step>
          <alter>1</alter>
          <octave>5</octave>
        </pitch>
        <duration>2</duration>
        <instrument id="P1-I2"/>
        <voice>1</voice>
        <type>quarter</type>
        <stem>up</stem>
      </note>
      <note default-x="82">
        <pitch>
          <step>D</step>
          <octave>4</octave>
        </pitch>
        <duration>2</duration>
        <instrument id="P1-I2"/>
        <voice>1</voice>
        <type>quarter</type>
        <stem default-y="16">up</stem>
        <lyric default-y="-82" number="1">
          <syllabic>single</syllabic>
          <text>One</text>
        </lyric>
        <lyric default-y="-103" number="2">
          <syllabic>single</syllabic>
          <text>Here</text>
        </lyric>
        <lyric default-y="-124" number="3">
          <syllabic>single</syllabic>
          <text>And</text>
        </lyric>
      </note>
      <note default-x="82">
        <chord/>
        <pitch>
          <step>D</step>
          <octave>5</octave>
        </pitch>
        <duration>2</duration>
        <instrument id="P1-I2"/>
        <voice>1</voice>
        <type>quarter</type>
        <stem>up</stem>
      </note>
    </measure>
    <!--=======================================================-->
    <measure number="11" width="90">
      <note default-x="16">
        <pitch>
          <step>E</step>
          <octave>4</octave>
        </pitch>
        <duration>4</duration>
        <instrument id="P1-I2"/>
        <voice>1</voice>
        <type>half</type>
        <stem default-y="9.5">up</stem>
        <lyric default-y="-82" number="1" relative-x="-5">
          <syllabic>begin</syllabic>
          <text>sin</text>
        </lyric>
        <lyric default-y="-103" number="2" relative-x="-5">
          <syllabic>single</syllabic>
          <text>at</text>
        </lyric>
        <lyric default-y="-124" number="3" relative-x="-5">
          <syllabic>single</syllabic>
          <text>lead</text>
        </lyric>
      </note>
      <note default-x="16">
        <chord/>
        <pitch>
          <step>C</step>
          <alter>1</alter>
          <octave>5</octave>
        </pitch>
        <duration>4</duration>
        <instrument id="P1-I2"/>
        <voice>1</voice>
        <type>half</type>
        <stem>up</stem>
      </note>
      <note default-x="61">
        <pitch>
          <step>D</step>
          <octave>4</octave>
        </pitch>
        <duration>4</duration>
        <instrument id="P1-I2"/>
        <voice>1</voice>
        <type>half</type>
        <stem default-y="10">up</stem>
        <lyric default-y="-82" number="1">
          <syllabic>end</syllabic>
          <text>gle</text>
        </lyric>
        <lyric default-y="-103" number="2">
          <syllabic>single</syllabic>
          <text>Thy</text>
        </lyric>
        <lyric default-y="-124" number="3">
          <syllabic>single</syllabic>
          <text>Thou</text>
        </lyric>
      </note>
      <note default-x="61">
        <chord/>
        <pitch>
          <step>B</step>
          <octave>4</octave>
        </pitch>
        <duration>4</duration>
        <instrument id="P1-I2"/>
        <voice>1</voice>
        <type>half</type>
        <stem>up</stem>
      </note>
    </measure>
    <!--=======================================================-->
    <measure number="12" width="106">
      <note default-x="19">
        <pitch>
          <step>C</step>
          <alter>1</alter>
          <octave>4</octave>
        </pitch>
        <duration>6</duration>
        <instrument id="P1-I2"/>
        <voice>1</voice>
        <type>half</type>
        <dot/>
        <stem default-y="7">up</stem>
        <lyric default-y="-82" number="1">
          <syllabic>single</syllabic>
          <text>day;</text>
        </lyric>
        <lyric default-y="-103" number="2">
          <syllabic>single</syllabic>
          <text>feet,</text>
        </lyric>
        <lyric default-y="-124" number="3">
          <syllabic>single</syllabic>
          <text>me</text>
        </lyric>
      </note>
      <note default-x="19">
        <chord/>
        <pitch>
          <step>A</step>
          <octave>4</octave>
        </pitch>
        <duration>6</duration>
        <instrument id="P1-I2"/>
        <voice>1</voice>
        <type>half</type>
        <dot/>
        <stem>up</stem>
      </note>
      <note default-x="69">
        <pitch>
          <step>C</step>
          <alter>1</alter>
          <octave>4</octave>
        </pitch>
        <duration>2</duration>
        <instrument id="P1-I2"/>
        <voice>1</voice>
        <type>quarter</type>
        <stem default-y="7">up</stem>
        <lyric default-y="-82" number="1" relative-x="4">
          <syllabic>single</syllabic>
          <text>Be</text>
        </lyric>
        <lyric default-y="-103" number="2" relative-x="4">
          <syllabic>single</syllabic>
          <text>And</text>
        </lyric>
        <lyric default-y="-124" number="3" relative-x="4">
          <syllabic>begin</syllabic>
          <text>Un</text>
        </lyric>
      </note>
      <note default-x="69">
        <chord/>
        <pitch>
          <step>A</step>
          <octave>4</octave>
        </pitch>
        <duration>2</duration>
        <instrument id="P1-I2"/>
        <voice>1</voice>
        <type>quarter</type>
        <stem>up</stem>
      </note>
    </measure>
    <!--=======================================================-->
    <measure number="13" width="187">
      <note default-x="22">
        <pitch>
          <step>D</step>
          <octave>4</octave>
        </pitch>
        <duration>2</duration>
        <instrument id="P1-I2"/>
        <voice>1</voice>
        <type>quarter</type>
        <stem default-y="14.5">up</stem>
        <lyric default-y="-82" number="1" relative-x="-2">
          <syllabic>single</syllabic>
          <text>Thou</text>
        </lyric>
        <lyric default-y="-103" number="2" relative-x="-2">
          <syllabic>begin</syllabic>
          <text>blind</text>
        </lyric>
        <lyric default-y="-124" number="3" relative-x="-2">
          <syllabic>end</syllabic>
          <text>til</text>
        </lyric>
      </note>
      <note default-x="22">
        <chord/>
        <pitch>
          <step>D</step>
          <octave>5</octave>
        </pitch>
        <duration>2</duration>
        <instrument id="P1-I2"/>
        <voice>1</voice>
        <type>quarter</type>
        <stem>up</stem>
      </note>
      <note default-x="67">
        <pitch>
          <step>D</step>
          <octave>4</octave>
        </pitch>
        <duration>2</duration>
        <instrument id="P1-I2"/>
        <voice>1</voice>
        <type>quarter</type>
        <stem default-y="-68">down</stem>
        <lyric default-y="-82" number="1">
          <syllabic>single</syllabic>
          <text>my</text>
        </lyric>
        <lyric default-y="-103" number="2">
          <syllabic>end</syllabic>
          <text>ly</text>
        </lyric>
        <lyric default-y="-124" number="3">
          <syllabic>single</syllabic>
          <text>my</text>
        </lyric>
      </note>
      <backup>
        <duration>2</duration>
      </backup>
      <note default-x="67">
        <pitch>
          <step>C</step>
          <alter>1</alter>
          <octave>5</octave>
        </pitch>
        <duration>1</duration>
        <instrument id="P1-I2"/>
        <voice>2</voice>
        <type>eighth</type>
        <stem default-y="14">up</stem>
        <beam number="1">begin</beam>
      </note>
      <note default-x="87">
        <pitch>
          <step>B</step>
          <octave>4</octave>
        </pitch>
        <duration>1</duration>
        <instrument id="P1-I2"/>
        <voice>2</voice>
        <type>eighth</type>
        <stem default-y="9">up</stem>
        <beam number="1">end</beam>
      </note>
      <note default-x="107">
        <pitch>
          <step>D</step>
          <octave>4</octave>
        </pitch>
        <duration>2</duration>
        <instrument id="P1-I2"/>
        <voice>1</voice>
        <type>quarter</type>
        <stem default-y="7">up</stem>
        <lyric default-y="-82" number="1" relative-x="3">
          <syllabic>single</syllabic>
          <text>true</text>
        </lyric>
        <lyric default-y="-103" number="2" relative-x="3">
          <syllabic>single</syllabic>
          <text>trust</text>
        </lyric>
        <lyric default-y="-124" number="3" relative-x="3">
          <syllabic>begin</syllabic>
          <text>jour</text>
        </lyric>
      </note>
      <note default-x="107">
        <chord/>
        <pitch>
          <step>A</step>
          <octave>4</octave>
        </pitch>
        <duration>2</duration>
        <instrument id="P1-I2"/>
        <voice>1</voice>
        <type>quarter</type>
        <stem>up</stem>
      </note>
      <note default-x="152">
        <pitch>
          <step>D</step>
          <octave>4</octave>
        </pitch>
        <duration>2</duration>
        <instrument id="P1-I2"/>
        <voice>1</voice>
        <type>quarter</type>
        <stem default-y="7">up</stem>
        <lyric default-y="-82" number="1" relative-x="3">
          <syllabic>begin</syllabic>
          <text>com</text>
        </lyric>
        <lyric default-y="-103" number="2" relative-x="3">
          <syllabic>single</syllabic>
          <text>Thy</text>
        </lyric>
        <lyric default-y="-124" number="3" relative-x="3">
          <syllabic>end</syllabic>
          <text>ney</text>
        </lyric>
      </note>
      <note default-x="152">
        <chord/>
        <pitch>
          <step>A</step>
          <octave>4</octave>
        </pitch>
        <duration>2</duration>
        <instrument id="P1-I2"/>
        <voice>1</voice>
        <type>quarter</type>
        <stem>up</stem>
      </note>
    </measure>
    <!--=======================================================-->
    <measure number="14" width="153">
      <note default-x="18">
        <pitch>
          <step>D</step>
          <octave>4</octave>
        </pitch>
        <duration>4</duration>
        <instrument id="P1-I2"/>
        <voice>1</voice>
        <type>half</type>
        <stem default-y="12">up</stem>
        <lyric default-y="-82" number="1">
          <syllabic>middle</syllabic>
          <text>pan</text>
        </lyric>
        <lyric default-y="-103" number="2">
          <syllabic>begin</syllabic>
          <text>good</text>
        </lyric>
        <lyric default-y="-124" number="3">
          <syllabic>begin</syllabic>
          <text>end</text>
        </lyric>
      </note>
      <note default-x="18">
        <chord/>
        <pitch>
          <step>B</step>
          <octave>4</octave>
        </pitch>
        <duration>4</duration>
        <instrument id="P1-I2"/>
        <voice>1</voice>
        <type>half</type>
        <stem>up</stem>
      </note>
      <note default-x="73">
        <pitch>
          <step>D</step>
          <octave>4</octave>
        </pitch>
        <duration>2</duration>
        <instrument id="P1-I2"/>
        <voice>1</voice>
        <type>quarter</type>
        <stem default-y="7">up</stem>
        <lyric default-y="-82" number="1">
          <syllabic>end</syllabic>
          <text>ion</text>
        </lyric>
        <lyric default-y="-103" number="2">
          <syllabic>end</syllabic>
          <text>ness</text>
        </lyric>
        <lyric default-y="-124" number="3">
          <syllabic>end</syllabic>
          <text>eth</text>
        </lyric>
      </note>
      <note default-x="73">
        <chord/>
        <pitch>
          <step>A</step>
          <octave>4</octave>
        </pitch>
        <duration>2</duration>
        <instrument id="P1-I2"/>
        <voice>1</voice>
        <type>quarter</type>
        <stem>up</stem>
      </note>
      <note default-x="122">
        <pitch>
          <step>E</step>
          <octave>4</octave>
        </pitch>
        <duration>2</duration>
        <instrument id="P1-I2"/>
        <voice>1</voice>
        <type>quarter</type>
        <stem default-y="2">up</stem>
        <lyric default-y="-82" number="1" relative-x="3">
          <syllabic>single</syllabic>
          <text>And</text>
        </lyric>
        <lyric default-y="-103" number="2" relative-x="3">
          <syllabic>single</syllabic>
          <text>With</text>
        </lyric>
        <lyric default-y="-124" number="3" relative-x="3">
          <syllabic>begin</syllabic>
          <text>E</text>
        </lyric>
      </note>
      <note default-x="122">
        <chord/>
        <pitch>
          <step>G</step>
          <octave>4</octave>
        </pitch>
        <duration>2</duration>
        <instrument id="P1-I2"/>
        <voice>1</voice>
        <type>quarter</type>
        <stem>up</stem>
      </note>
    </measure>
    <!--=======================================================-->
    <measure number="15" width="127">
      <note default-x="22">
        <pitch>
          <step>D</step>
          <octave>4</octave>
        </pitch>
        <duration>6</duration>
        <instrument id="P1-I2"/>
        <voice>1</voice>
        <type>half</type>
        <dot/>
        <stem default-y="-68">down</stem>
        <notations>
          <slur default-y="-15" number="1" placement="above" relative-x="17" type="start"/>
        </notations>
        <lyric default-y="-82" number="1">
          <syllabic>single</syllabic>
          <text>with</text>
        </lyric>
        <lyric default-y="-103" number="2">
          <syllabic>single</syllabic>
          <text>faith</text>
        </lyric>
        <lyric default-y="-124" number="3">
          <syllabic>middle</syllabic>
          <text>ter</text>
        </lyric>
      </note>
      <backup>
        <duration>6</duration>
      </backup>
      <note default-x="22">
        <pitch>
          <step>F</step>
          <alter>1</alter>
          <octave>4</octave>
        </pitch>
        <duration>2</duration>
        <instrument id="P1-I2"/>
        <voice>2</voice>
        <type>quarter</type>
        <stem default-y="-3">up</stem>
      </note>
      <note default-x="60">
        <pitch>
          <step>G</step>
          <octave>4</octave>
        </pitch>
        <duration>4</duration>
        <instrument id="P1-I2"/>
        <voice>2</voice>
        <type>half</type>
        <stem default-y="2">up</stem>
        <notations>
          <slur default-y="-7" number="1" type="stop"/>
        </notations>
      </note>
      <note default-x="93">
        <pitch>
          <step>C</step>
          <alter>1</alter>
          <octave>4</octave>
        </pitch>
        <duration>2</duration>
        <instrument id="P1-I2"/>
        <voice>1</voice>
        <type>quarter</type>
        <stem default-y="-8">up</stem>
        <lyric default-y="-82" number="1">
          <syllabic>single</syllabic>
          <text>me</text>
        </lyric>
        <lyric default-y="-103" number="2">
          <syllabic>begin</syllabic>
          <text>com</text>
        </lyric>
        <lyric default-y="-124" number="3">
          <syllabic>middle</syllabic>
          <text>nal</text>
        </lyric>
      </note>
      <note default-x="93">
        <chord/>
        <pitch>
          <step>E</step>
          <octave>4</octave>
        </pitch>
        <duration>2</duration>
        <instrument id="P1-I2"/>
        <voice>1</voice>
        <type>quarter</type>
        <stem>up</stem>
      </note>
    </measure>
    <!--=======================================================-->
    <measure number="16" width="60">
      <note default-x="20">
        <pitch>
          <step>D</step>
          <octave>4</octave>
        </pitch>
        <duration>6</duration>
        <instrument id="P1-I2"/>
        <voice>1</voice>
        <type>half</type>
        <dot/>
        <stem>double</stem>
        <lyric default-y="-82" number="1">
          <syllabic>single</syllabic>
          <text>stay.</text>
        </lyric>
        <lyric default-y="-103" number="2">
          <syllabic>end</syllabic>
          <text>plete.</text>
        </lyric>
        <lyric default-y="-124" number="3">
          <syllabic>end</syllabic>
          <text>ly.</text>
        </lyric>
      </note>
      <barline location="right">
        <bar-style>light-heavy</bar-style>
      </barline>
    </measure>
  </part>
  <!--=========================================================-->
  <part id="P2">
    <measure implicit="yes" number="0" width="142">
      <print>
        <measure-numbering>none</measure-numbering>
      </print>
      <attributes>
        <divisions>2</divisions>
        <key>
          <fifths>2</fifths>
          <mode>major</mode>
        </key>
        <time>
          <beats>4</beats>
          <beat-type>4</beat-type>
        </time>
        <clef>
          <sign>F</sign>
          <line>4</line>
        </clef>
      </attributes>
      <sound tempo="100"/>
      <note default-x="104">
        <pitch>
          <step>D</step>
          <octave>3</octave>
        </pitch>
        <duration>2</duration>
        <instrument id="P2-I3"/>
        <voice>1</voice>
        <type>quarter</type>
        <stem default-y="-51.5">down</stem>
      </note>
      <note default-x="104">
        <chord/>
        <pitch>
          <step>F</step>
          <alter>1</alter>
          <octave>3</octave>
        </pitch>
        <duration>2</duration>
        <instrument id="P2-I3"/>
        <voice>1</voice>
        <type>quarter</type>
        <stem>down</stem>
      </note>
    </measure>
    <!--=======================================================-->
    <measure number="1" width="220">
      <note default-x="27">
        <pitch>
          <step>G</step>
          <octave>3</octave>
        </pitch>
        <duration>2</duration>
        <instrument id="P2-I3"/>
        <voice>1</voice>
        <type>quarter</type>
        <stem>double</stem>
      </note>
      <note default-x="78">
        <pitch>
          <step>F</step>
          <alter>1</alter>
          <octave>3</octave>
        </pitch>
        <duration>2</duration>
        <instrument id="P2-I3"/>
        <voice>1</voice>
        <type>quarter</type>
        <stem default-y="-41.5">down</stem>
      </note>
      <note default-x="78">
        <chord/>
        <pitch>
          <step>A</step>
          <octave>3</octave>
        </pitch>
        <duration>2</duration>
        <instrument id="P2-I3"/>
        <voice>1</voice>
        <type>quarter</type>
        <stem>down</stem>
      </note>
      <note default-x="127">
        <pitch>
          <step>E</step>
          <octave>3</octave>
        </pitch>
        <duration>2</duration>
        <instrument id="P2-I3"/>
        <voice>1</voice>
        <type>quarter</type>
        <stem default-y="-46.5">down</stem>
      </note>
      <note default-x="127">
        <chord/>
        <pitch>
          <step>A</step>
          <octave>3</octave>
        </pitch>
        <duration>2</duration>
        <instrument id="P2-I3"/>
        <voice>1</voice>
        <type>quarter</type>
        <stem>down</stem>
      </note>
      <note default-x="181">
        <pitch>
          <step>D</step>
          <octave>3</octave>
        </pitch>
        <duration>2</duration>
        <instrument id="P2-I3"/>
        <voice>1</voice>
        <type>quarter</type>
        <stem default-y="-51.5">down</stem>
      </note>
      <note default-x="181">
        <chord/>
        <pitch>
          <step>A</step>
          <octave>3</octave>
        </pitch>
        <duration>2</duration>
        <instrument id="P2-I3"/>
        <voice>1</voice>
        <type>quarter</type>
        <stem>down</stem>
      </note>
    </measure>
    <!--=======================================================-->
    <measure number="2" width="146">
      <note default-x="18">
        <pitch>
          <step>A</step>
          <octave>2</octave>
        </pitch>
        <duration>4</duration>
        <instrument id="P2-I3"/>
        <voice>1</voice>
        <type>half</type>
        <stem default-y="-61">down</stem>
      </note>
      <note default-x="18">
        <chord/>
        <pitch>
          <step>A</step>
          <octave>3</octave>
        </pitch>
        <duration>4</duration>
        <instrument id="P2-I3"/>
        <voice>1</voice>
        <type>half</type>
        <stem>down</stem>
      </note>
      <note default-x="66">
        <pitch>
          <step>A</step>
          <octave>2</octave>
        </pitch>
        <duration>2</duration>
        <instrument id="P2-I3"/>
        <voice>1</voice>
        <type>quarter</type>
        <stem default-y="-61">down</stem>
      </note>
      <note default-x="66">
        <chord/>
        <pitch>
          <step>A</step>
          <octave>3</octave>
        </pitch>
        <duration>2</duration>
        <instrument id="P2-I3"/>
        <voice>1</voice>
        <type>quarter</type>
        <stem>down</stem>
      </note>
      <note default-x="112">
        <pitch>
          <step>D</step>
          <octave>3</octave>
        </pitch>
        <duration>2</duration>
        <instrument id="P2-I3"/>
        <voice>1</voice>
        <type>quarter</type>
        <stem default-y="-51.5">down</stem>
      </note>
      <note default-x="112">
        <chord/>
        <pitch>
          <step>A</step>
          <octave>3</octave>
        </pitch>
        <duration>2</duration>
        <instrument id="P2-I3"/>
        <voice>1</voice>
        <type>quarter</type>
        <stem>down</stem>
      </note>
    </measure>
    <!--=======================================================-->
    <measure number="3" width="108">
      <note default-x="23">
        <pitch>
          <step>B</step>
          <octave>2</octave>
        </pitch>
        <duration>4</duration>
        <instrument id="P2-I3"/>
        <voice>1</voice>
        <type>half</type>
        <stem default-y="-56">down</stem>
      </note>
      <note default-x="23">
        <chord/>
        <pitch>
          <step>B</step>
          <octave>3</octave>
        </pitch>
        <duration>4</duration>
        <instrument id="P2-I3"/>
        <voice>1</voice>
        <type>half</type>
        <stem>down</stem>
      </note>
      <note default-x="72">
        <pitch>
          <step>C</step>
          <alter>1</alter>
          <octave>3</octave>
        </pitch>
        <duration>4</duration>
        <instrument id="P2-I3"/>
        <voice>1</voice>
        <type>half</type>
        <stem default-y="-51">down</stem>
      </note>
      <note default-x="72">
        <chord/>
        <pitch>
          <step>A</step>
          <octave>3</octave>
        </pitch>
        <duration>4</duration>
        <instrument id="P2-I3"/>
        <voice>1</voice>
        <type>half</type>
        <stem>down</stem>
      </note>
    </measure>
    <!--=======================================================-->
    <measure number="4" width="231">
      <note default-x="24">
        <pitch>
          <step>D</step>
          <octave>3</octave>
        </pitch>
        <duration>6</duration>
        <instrument id="P2-I3"/>
        <voice>1</voice>
        <type>half</type>
        <dot/>
        <stem default-y="-51.5">down</stem>
      </note>
      <note default-x="24">
        <chord/>
        <pitch>
          <step>A</step>
          <octave>3</octave>
        </pitch>
        <duration>6</duration>
        <instrument id="P2-I3"/>
        <voice>1</voice>
        <type>half</type>
        <dot/>
        <stem>down</stem>
      </note>
      <note default-x="75">
        <pitch>
          <step>D</step>
          <octave>3</octave>
        </pitch>
        <duration>2</duration>
        <instrument id="P2-I3"/>
        <voice>1</voice>
        <type>quarter</type>
        <stem default-y="-51.5">down</stem>
      </note>
      <note default-x="75">
        <chord/>
        <pitch>
          <step>F</step>
          <alter>1</alter>
          <octave>3</octave>
        </pitch>
        <duration>2</duration>
        <instrument id="P2-I3"/>
        <voice>1</voice>
        <type>quarter</type>
        <stem>down</stem>
      </note>
    </measure>
    <!--=======================================================-->
    <measure number="5" width="848">
      <print new-page="yes"/>
      <note>
        <pitch>
          <step>G</step>
          <octave>3</octave>
        </pitch>
        <duration>2</duration>
        <instrument id="P2-I3"/>
        <voice>1</voice>
        <type>quarter</type>
        <stem>double</stem>
      </note>
      <note>
        <pitch>
          <step>F</step>
          <alter>1</alter>
          <octave>3</octave>
        </pitch>
        <duration>2</duration>
        <instrument id="P2-I3"/>
        <voice>1</voice>
        <type>quarter</type>
        <stem>down</stem>
      </note>
      <note>
        <chord/>
        <pitch>
          <step>A</step>
          <octave>3</octave>
        </pitch>
        <duration>2</duration>
        <instrument id="P2-I3"/>
        <voice>1</voice>
        <type>quarter</type>
        <stem>down</stem>
      </note>
      <note>
        <pitch>
          <step>E</step>
          <octave>3</octave>
        </pitch>
        <duration>2</duration>
        <instrument id="P2-I3"/>
        <voice>1</voice>
        <type>quarter</type>
        <stem>down</stem>
      </note>
      <note>
        <chord/>
        <pitch>
          <step>A</step>
          <octave>3</octave>
        </pitch>
        <duration>2</duration>
        <instrument id="P2-I3"/>
        <voice>1</voice>
        <type>quarter</type>
        <stem>down</stem>
      </note>
      <note>
        <pitch>
          <step>D</step>
          <octave>3</octave>
        </pitch>
        <duration>2</duration>
        <instrument id="P2-I3"/>
        <voice>1</voice>
        <type>quarter</type>
        <stem>down</stem>
      </note>
      <note>
        <chord/>
        <pitch>
          <step>A</step>
          <octave>3</octave>
        </pitch>
        <duration>2</duration>
        <instrument id="P2-I3"/>
        <voice>1</voice>
        <type>quarter</type>
        <stem>down</stem>
      </note>
    </measure>
    <!--=======================================================-->
    <measure number="6">
      <note default-x="-649">
        <pitch>
          <step>A</step>
          <octave>2</octave>
        </pitch>
        <duration>4</duration>
        <instrument id="P2-I3"/>
        <voice>1</voice>
        <type>half</type>
        <stem default-y="-61">down</stem>
      </note>
      <note default-x="-649">
        <chord/>
        <pitch>
          <step>A</step>
          <octave>3</octave>
        </pitch>
        <duration>4</duration>
        <instrument id="P2-I3"/>
        <voice>1</voice>
        <type>half</type>
        <stem>down</stem>
      </note>
      <note default-x="-601">
        <pitch>
          <step>A</step>
          <octave>2</octave>
        </pitch>
        <duration>2</duration>
        <instrument id="P2-I3"/>
        <voice>1</voice>
        <type>quarter</type>
        <stem default-y="-61">down</stem>
      </note>
      <note default-x="-601">
        <chord/>
        <pitch>
          <step>A</step>
          <octave>3</octave>
        </pitch>
        <duration>2</duration>
        <instrument id="P2-I3"/>
        <voice>1</voice>
        <type>quarter</type>
        <stem>down</stem>
      </note>
      <note default-x="-549">
        <pitch>
          <step>D</step>
          <octave>3</octave>
        </pitch>
        <duration>2</duration>
        <instrument id="P2-I3"/>
        <voice>1</voice>
        <type>quarter</type>
        <stem default-y="-51.5">down</stem>
      </note>
      <note default-x="-549">
        <chord/>
        <pitch>
          <step>A</step>
          <octave>3</octave>
        </pitch>
        <duration>2</duration>
        <instrument id="P2-I3"/>
        <voice>1</voice>
        <type>quarter</type>
        <stem>down</stem>
      </note>
    </measure>
    <!--=======================================================-->
    <measure number="7">
      <note>
        <pitch>
          <step>B</step>
          <octave>2</octave>
        </pitch>
        <duration>4</duration>
        <instrument id="P2-I3"/>
        <voice>1</voice>
        <type>half</type>
        <stem default-y="-56">down</stem>
      </note>
      <note>
        <chord/>
        <pitch>
          <step>B</step>
          <octave>3</octave>
        </pitch>
        <duration>4</duration>
        <instrument id="P2-I3"/>
        <voice>1</voice>
        <type>half</type>
        <stem>down</stem>
      </note>
      <note>
        <pitch>
          <step>C</step>
          <alter>1</alter>
          <octave>3</octave>
        </pitch>
        <duration>4</duration>
        <instrument id="P2-I3"/>
        <voice>1</voice>
        <type>half</type>
        <stem default-y="-51">down</stem>
      </note>
      <note>
        <chord/>
        <pitch>
          <step>A</step>
          <octave>3</octave>
        </pitch>
        <duration>4</duration>
        <instrument id="P2-I3"/>
        <voice>1</voice>
        <type>half</type>
        <stem>down</stem>
      </note>
    </measure>
    <!--=======================================================-->
    <measure number="8">
      <note>
        <pitch>
          <step>D</step>
          <octave>3</octave>
        </pitch>
        <duration>6</duration>
        <instrument id="P2-I3"/>
        <voice>1</voice>
        <type>half</type>
        <dot/>
        <stem default-y="-51.5">down</stem>
      </note>
      <note>
        <chord/>
        <pitch>
          <step>A</step>
          <octave>3</octave>
        </pitch>
        <duration>6</duration>
        <instrument id="P2-I3"/>
        <voice>1</voice>
        <type>half</type>
        <dot/>
        <stem>down</stem>
      </note>
      <note>
        <pitch>
          <step>D</step>
          <octave>3</octave>
        </pitch>
        <duration>2</duration>
        <instrument id="P2-I3"/>
        <voice>1</voice>
        <type>quarter</type>
        <stem default-y="-51.5">down</stem>
      </note>
      <note>
        <chord/>
        <pitch>
          <step>A</step>
          <octave>3</octave>
        </pitch>
        <duration>2</duration>
        <instrument id="P2-I3"/>
        <voice>1</voice>
        <type>quarter</type>
        <stem>down</stem>
      </note>
    </measure>
    <!--=======================================================-->
    <measure number="9">
      <note>
        <pitch>
          <step>C</step>
          <alter>1</alter>
          <octave>3</octave>
        </pitch>
        <duration>2</duration>
        <instrument id="P2-I3"/>
        <voice>1</voice>
        <type>quarter</type>
        <stem default-y="-51">down</stem>
      </note>
      <note>
        <chord/>
        <pitch>
          <step>A</step>
          <octave>3</octave>
        </pitch>
        <duration>2</duration>
        <instrument id="P2-I3"/>
        <voice>1</voice>
        <type>quarter</type>
        <stem>down</stem>
      </note>
      <note>
        <pitch>
          <step>A</step>
          <octave>2</octave>
        </pitch>
        <duration>2</duration>
        <instrument id="P2-I3"/>
        <voice>1</voice>
        <type>quarter</type>
        <stem default-y="-61">down</stem>
      </note>
      <note>
        <chord/>
        <pitch>
          <step>C</step>
          <alter>1</alter>
          <octave>4</octave>
        </pitch>
        <duration>2</duration>
        <instrument id="P2-I3"/>
        <voice>1</voice>
        <type>quarter</type>
        <stem>down</stem>
      </note>
      <note>
        <pitch>
          <step>E</step>
          <octave>3</octave>
        </pitch>
        <duration>2</duration>
        <instrument id="P2-I3"/>
        <voice>1</voice>
        <type>quarter</type>
        <stem default-y="-46.5">down</stem>
      </note>
      <note>
        <chord/>
        <pitch>
          <step>B</step>
          <octave>3</octave>
        </pitch>
        <duration>2</duration>
        <instrument id="P2-I3"/>
        <voice>1</voice>
        <type>quarter</type>
        <stem>down</stem>
      </note>
      <note>
        <pitch>
          <step>D</step>
          <octave>3</octave>
        </pitch>
        <duration>2</duration>
        <instrument id="P2-I3"/>
        <voice>1</voice>
        <type>quarter</type>
        <stem default-y="-51.5">down</stem>
      </note>
      <note>
        <chord/>
        <pitch>
          <step>G</step>
          <alter>1</alter>
          <octave>3</octave>
        </pitch>
        <duration>2</duration>
        <instrument id="P2-I3"/>
        <voice>1</voice>
        <type>quarter</type>
        <accidental>sharp</accidental>
        <stem>down</stem>
      </note>
    </measure>
    <!--=======================================================-->
    <measure number="10" width="125">
      <print new-system="yes">
        <staff-layout number="1">
          <staff-distance>112</staff-distance>
        </staff-layout>
      </print>
      <note default-x="743">
        <pitch>
          <step>C</step>
          <alter>1</alter>
          <octave>3</octave>
        </pitch>
        <duration>3</duration>
        <instrument id="P2-I3"/>
        <voice>1</voice>
        <type>quarter</type>
        <dot/>
        <stem default-y="191.5">down</stem>
      </note>
      <note default-x="743">
        <chord/>
        <pitch>
          <step>A</step>
          <octave>3</octave>
        </pitch>
        <duration>3</duration>
        <instrument id="P2-I3"/>
        <voice>1</voice>
        <type>quarter</type>
        <dot/>
        <stem>down</stem>
      </note>
      <note default-x="789">
        <pitch>
          <step>B</step>
          <octave>2</octave>
        </pitch>
        <duration>1</duration>
        <instrument id="P2-I3"/>
        <voice>1</voice>
        <type>eighth</type>
        <stem default-y="181">down</stem>
        <notations>
          <slur default-y="11" number="1" placement="above" relative-x="-10" type="start"/>
          <slur default-y="-46" number="2" placement="below" relative-x="-10" type="start"/>
        </notations>
      </note>
      <note default-x="789">
        <chord/>
        <pitch>
          <step>G</step>
          <alter>1</alter>
          <octave>3</octave>
        </pitch>
        <duration>1</duration>
        <instrument id="P2-I3"/>
        <voice>1</voice>
        <type>eighth</type>
        <accidental>sharp</accidental>
        <stem>down</stem>
      </note>
      <note default-x="820">
        <pitch>
          <step>A</step>
          <octave>2</octave>
        </pitch>
        <duration>2</duration>
        <instrument id="P2-I3"/>
        <voice>1</voice>
        <type>quarter</type>
        <stem default-y="181.5">down</stem>
        <notations>
          <slur default-y="8" number="1" type="stop"/>
          <slur default-y="-50" number="2" type="stop"/>
        </notations>
      </note>
      <note default-x="820">
        <chord/>
        <pitch>
          <step>A</step>
          <octave>3</octave>
        </pitch>
        <duration>2</duration>
        <instrument id="P2-I3"/>
        <voice>1</voice>
        <type>quarter</type>
        <stem>down</stem>
      </note>
      <note default-x="82">
        <pitch>
          <step>F</step>
          <alter>1</alter>
          <octave>3</octave>
        </pitch>
        <duration>2</duration>
        <instrument id="P2-I3"/>
        <voice>1</voice>
        <type>quarter</type>
        <stem default-y="-41">down</stem>
      </note>
      <note default-x="82">
        <chord/>
        <pitch>
          <step>A</step>
          <octave>3</octave>
        </pitch>
        <duration>2</duration>
        <instrument id="P2-I3"/>
        <voice>1</voice>
        <type>quarter</type>
        <stem>down</stem>
      </note>
    </measure>
    <!--=======================================================-->
    <measure number="11" width="90">
      <note default-x="16">
        <pitch>
          <step>E</step>
          <octave>3</octave>
        </pitch>
        <duration>4</duration>
        <instrument id="P2-I3"/>
        <voice>1</voice>
        <type>half</type>
        <stem default-y="-46">down</stem>
      </note>
      <note default-x="16">
        <chord/>
        <pitch>
          <step>A</step>
          <octave>3</octave>
        </pitch>
        <duration>4</duration>
        <instrument id="P2-I3"/>
        <voice>1</voice>
        <type>half</type>
        <stem>down</stem>
      </note>
      <note default-x="61">
        <pitch>
          <step>E</step>
          <octave>3</octave>
        </pitch>
        <duration>4</duration>
        <instrument id="P2-I3"/>
        <voice>1</voice>
        <type>half</type>
        <stem default-y="-46">down</stem>
      </note>
      <note default-x="61">
        <chord/>
        <pitch>
          <step>G</step>
          <alter>1</alter>
          <octave>3</octave>
        </pitch>
        <duration>4</duration>
        <instrument id="P2-I3"/>
        <voice>1</voice>
        <type>half</type>
        <accidental>sharp</accidental>
        <stem>down</stem>
      </note>
    </measure>
    <!--=======================================================-->
    <measure number="12" width="106">
      <note default-x="19">
        <pitch>
          <step>A</step>
          <octave>2</octave>
        </pitch>
        <duration>6</duration>
        <instrument id="P2-I3"/>
        <voice>1</voice>
        <type>half</type>
        <dot/>
        <stem default-y="-61">down</stem>
      </note>
      <note default-x="19">
        <chord/>
        <pitch>
          <step>A</step>
          <octave>3</octave>
        </pitch>
        <duration>6</duration>
        <instrument id="P2-I3"/>
        <voice>1</voice>
        <type>half</type>
        <dot/>
        <stem>down</stem>
      </note>
      <note default-x="69">
        <pitch>
          <step>A</step>
          <octave>3</octave>
        </pitch>
        <duration>2</duration>
        <instrument id="P2-I3"/>
        <voice>1</voice>
        <type>quarter</type>
        <stem default-y="23">up</stem>
      </note>
      <backup>
        <duration>2</duration>
      </backup>
      <note default-x="78">
        <pitch>
          <step>G</step>
          <octave>3</octave>
        </pitch>
        <duration>2</duration>
        <instrument id="P2-I3"/>
        <voice>2</voice>
        <type>quarter</type>
        <stem default-y="-36">down</stem>
      </note>
    </measure>
    <!--=======================================================-->
    <measure number="13" width="187">
      <note default-x="22">
        <pitch>
          <step>F</step>
          <alter>1</alter>
          <octave>3</octave>
        </pitch>
        <duration>2</duration>
        <instrument id="P2-I3"/>
        <voice>1</voice>
        <type>quarter</type>
        <stem default-y="-41">down</stem>
      </note>
      <note default-x="22">
        <chord/>
        <pitch>
          <step>A</step>
          <octave>3</octave>
        </pitch>
        <duration>2</duration>
        <instrument id="P2-I3"/>
        <voice>1</voice>
        <type>quarter</type>
        <stem>down</stem>
      </note>
      <note default-x="67">
        <pitch>
          <step>G</step>
          <octave>3</octave>
        </pitch>
        <duration>2</duration>
        <instrument id="P2-I3"/>
        <voice>1</voice>
        <type>quarter</type>
        <stem>double</stem>
      </note>
      <note default-x="107">
        <pitch>
          <step>D</step>
          <octave>3</octave>
        </pitch>
        <duration>2</duration>
        <instrument id="P2-I3"/>
        <voice>1</voice>
        <type>quarter</type>
        <stem default-y="-51">down</stem>
      </note>
      <note default-x="107">
        <chord/>
        <pitch>
          <step>F</step>
          <alter>1</alter>
          <octave>3</octave>
        </pitch>
        <duration>2</duration>
        <instrument id="P2-I3"/>
        <voice>1</voice>
        <type>quarter</type>
        <stem>down</stem>
      </note>
      <note default-x="152">
        <pitch>
          <step>D</step>
          <octave>3</octave>
        </pitch>
        <duration>2</duration>
        <instrument id="P2-I3"/>
        <voice>1</voice>
        <type>quarter</type>
        <stem default-y="-51">down</stem>
      </note>
      <note default-x="152">
        <chord/>
        <pitch>
          <step>F</step>
          <alter>1</alter>
          <octave>3</octave>
        </pitch>
        <duration>2</duration>
        <instrument id="P2-I3"/>
        <voice>1</voice>
        <type>quarter</type>
        <stem>down</stem>
      </note>
    </measure>
    <!--=======================================================-->
    <measure number="14" width="153">
      <note default-x="18">
        <pitch>
          <step>G</step>
          <octave>3</octave>
        </pitch>
        <duration>4</duration>
        <instrument id="P2-I3"/>
        <voice>1</voice>
        <type>half</type>
        <stem default-y="19">up</stem>
        <notations>
          <slur default-y="-56" number="1" placement="below" relative-x="4" type="start"/>
        </notations>
      </note>
      <backup>
        <duration>4</duration>
      </backup>
      <note default-x="18">
        <pitch>
          <step>G</step>
          <octave>2</octave>
        </pitch>
        <duration>2</duration>
        <instrument id="P2-I3"/>
        <voice>2</voice>
        <type>quarter</type>
        <stem default-y="-66">down</stem>
      </note>
      <note default-x="45">
        <pitch>
          <step>B</step>
          <octave>2</octave>
        </pitch>
        <duration>2</duration>
        <instrument id="P2-I3"/>
        <voice>2</voice>
        <type>quarter</type>
        <stem default-y="-56">down</stem>
        <notations>
          <slur default-y="-51" number="1" type="stop"/>
        </notations>
      </note>
      <note default-x="73">
        <pitch>
          <step>D</step>
          <octave>3</octave>
        </pitch>
        <duration>2</duration>
        <instrument id="P2-I3"/>
        <voice>1</voice>
        <type>quarter</type>
        <stem default-y="-51">down</stem>
      </note>
      <note default-x="73">
        <chord/>
        <pitch>
          <step>F</step>
          <alter>1</alter>
          <octave>3</octave>
        </pitch>
        <duration>2</duration>
        <instrument id="P2-I3"/>
        <voice>1</voice>
        <type>quarter</type>
        <stem>down</stem>
      </note>
      <note default-x="122">
        <pitch>
          <step>G</step>
          <octave>2</octave>
        </pitch>
        <duration>2</duration>
        <instrument id="P2-I3"/>
        <voice>1</voice>
        <type>quarter</type>
        <stem default-y="-66">down</stem>
      </note>
      <note default-x="122">
        <chord/>
        <pitch>
          <step>B</step>
          <octave>3</octave>
        </pitch>
        <duration>2</duration>
        <instrument id="P2-I3"/>
        <voice>1</voice>
        <type>quarter</type>
        <stem>down</stem>
      </note>
    </measure>
    <!--=======================================================-->
    <measure number="15" width="127">
      <note default-x="22">
        <pitch>
          <step>A</step>
          <octave>2</octave>
        </pitch>
        <duration>6</duration>
        <instrument id="P2-I3"/>
        <voice>1</voice>
        <type>half</type>
        <dot/>
        <stem default-y="-61">down</stem>
        <notations>
          <slur default-y="16" number="1" placement="above" relative-x="17" type="start"/>
        </notations>
      </note>
      <backup>
        <duration>6</duration>
      </backup>
      <note default-x="22">
        <pitch>
          <step>A</step>
          <octave>3</octave>
        </pitch>
        <duration>2</duration>
        <instrument id="P2-I3"/>
        <voice>2</voice>
        <type>quarter</type>
        <stem default-y="23">up</stem>
      </note>
      <note default-x="60">
        <pitch>
          <step>E</step>
          <octave>3</octave>
        </pitch>
        <duration>4</duration>
        <instrument id="P2-I3"/>
        <voice>2</voice>
        <type>half</type>
        <stem default-y="11.5">up</stem>
        <notations>
          <slur default-y="8" number="1" type="stop"/>
        </notations>
      </note>
      <note default-x="93">
        <pitch>
          <step>A</step>
          <octave>2</octave>
        </pitch>
        <duration>2</duration>
        <instrument id="P2-I3"/>
        <voice>1</voice>
        <type>quarter</type>
        <stem default-y="-61">down</stem>
      </note>
      <note default-x="93">
        <chord/>
        <pitch>
          <step>G</step>
          <octave>3</octave>
        </pitch>
        <duration>2</duration>
        <instrument id="P2-I3"/>
        <voice>1</voice>
        <type>quarter</type>
        <stem>down</stem>
      </note>
    </measure>
    <!--=======================================================-->
    <measure number="16" width="60">
      <note default-x="20">
        <pitch>
          <step>D</step>
          <octave>3</octave>
        </pitch>
        <duration>6</duration>
        <instrument id="P2-I3"/>
        <voice>1</voice>
        <type>half</type>
        <dot/>
        <stem default-y="-51">down</stem>
      </note>
      <note default-x="20">
        <chord/>
        <pitch>
          <step>F</step>
          <alter>1</alter>
          <octave>3</octave>
        </pitch>
        <duration>6</duration>
        <instrument id="P2-I3"/>
        <voice>1</voice>
        <type>half</type>
        <dot/>
        <stem>down</stem>
      </note>
      <barline location="right">
        <bar-style>light-heavy</bar-style>
      </barline>
    </measure>
  </part>
  <!--=========================================================-->
</score-partwise>
