<?xml version="1.0" encoding="UTF-8" standalone="no"?>
<!DOCTYPE score-partwise PUBLIC "-//Recordare//DTD MusicXML 3.1 Partwise//EN" "http://www.musicxml.org/dtds/partwise.dtd">
<score-partwise version="3.1">
  <identification>
    <encoding>
      <software>Finale v25 for Windows</software>
      <encoding-date>2020-07-08</encoding-date>
      <supports attribute="new-system" element="print" type="yes" value="yes"/>
      <supports attribute="new-page" element="print" type="yes" value="yes"/>
      <supports element="accidental" type="yes"/>
      <supports element="beam" type="yes"/>
      <supports element="stem" type="yes"/>
    </encoding>
  </identification>
  <defaults>
    <scaling>
      <millimeters>6.35</millimeters>
      <tenths>40</tenths>
    </scaling>
    <page-layout>
      <page-height>1380</page-height>
      <page-width>852</page-width>
      <page-margins type="both">
        <left-margin>0</left-margin>
        <right-margin>0</right-margin>
        <top-margin>0</top-margin>
        <bottom-margin>382</bottom-margin>
      </page-margins>
    </page-layout>
    <system-layout>
      <system-margins>
        <left-margin>5</left-margin>
        <right-margin>0</right-margin>
      </system-margins>
      <system-distance>46</system-distance>
      <top-system-distance>46</top-system-distance>
    </system-layout>
    <staff-layout>
      <staff-distance>108</staff-distance>
    </staff-layout>
    <appearance>
      <line-width type="stem">0.8333</line-width>
      <line-width type="beam">4.1667</line-width>
      <line-width type="staff">0.7096</line-width>
      <line-width type="light barline">0.8333</line-width>
      <line-width type="heavy barline">5</line-width>
      <line-width type="leger">0.7292</line-width>
      <line-width type="ending">0.7682</line-width>
      <line-width type="wedge">0.8333</line-width>
      <line-width type="enclosure">0.8333</line-width>
      <line-width type="tuplet bracket">0.7292</line-width>
      <note-size type="grace">55</note-size>
      <note-size type="cue">55</note-size>
      <distance type="hyphen">83</distance>
      <distance type="beam">8</distance>
    </appearance>
    <music-font font-family="Petrucci2" font-size="18"/>
    <word-font font-family="Palatino Linotype" font-size="9"/>
    <lyric-font font-family="Palatino Linotype" font-size="9"/>
  </defaults>
  <credit page="1">
    <credit-words default-y="382" font-size="7.5" valign="bottom" xml:space="preserve">Music: John Bacchus Dykes, 1861
Text: Jim Nance, 2014 </credit-words>
    <credit-words font-size="6">©</credit-words>
  </credit>
  <credit page="1">
    <credit-words default-x="852" default-y="382" font-size="7.5" justify="right" valign="bottom" xml:space="preserve">MELITA
8 8. 8 8. 8 8.</credit-words>
  </credit>
  <part-list>
    <part-group number="1" type="start">
      <group-symbol default-x="-2">line</group-symbol>
      <group-barline>no</group-barline>
    </part-group>
    <score-part id="P1">
      <part-name print-object="no">MusicXML Part</part-name>
      <score-instrument id="P1-I2">
        <instrument-name>SmartMusic SoftSynth</instrument-name>
        <virtual-instrument/>
      </score-instrument>
      <midi-device>SmartMusic SoftSynth</midi-device>
      <midi-instrument id="P1-I2">
        <midi-channel>1</midi-channel>
        <midi-program>58</midi-program>
        <volume>80</volume>
        <pan>0</pan>
      </midi-instrument>
    </score-part>
    <score-part id="P2">
      <part-name print-object="no">MusicXML Part</part-name>
      <score-instrument id="P2-I1">
        <instrument-name>SmartMusic SoftSynth</instrument-name>
        <virtual-instrument/>
      </score-instrument>
      <midi-device>SmartMusic SoftSynth</midi-device>
      <midi-instrument id="P2-I1">
        <midi-channel>2</midi-channel>
        <midi-program>58</midi-program>
        <volume>80</volume>
        <pan>0</pan>
      </midi-instrument>
    </score-part>
    <part-group number="1" type="stop"/>
  </part-list>
  <!--=========================================================-->
  <part id="P1">
    <measure implicit="yes" number="0" width="104">
      <print>
        <system-layout>
          <top-system-distance>75</top-system-distance>
        </system-layout>
        <measure-numbering>system</measure-numbering>
      </print>
      <attributes>
        <divisions>2</divisions>
        <key>
          <fifths>0</fifths>
          <mode>major</mode>
        </key>
        <time>
          <beats>4</beats>
          <beat-type>4</beat-type>
        </time>
        <clef>
          <sign>G</sign>
          <line>2</line>
        </clef>
      </attributes>
      <sound tempo="101"/>
      <note default-x="71">
        <pitch>
          <step>C</step>
          <octave>4</octave>
        </pitch>
        <duration>2</duration>
        <voice>1</voice>
        <type>quarter</type>
        <stem>double</stem>
        <lyric default-y="-93" number="1">
          <syllabic>single</syllabic>
          <text>1.</text>
          <elision> </elision>
          <syllabic>single</syllabic>
          <text>The</text>
        </lyric>
        <lyric default-y="-114" number="2">
          <syllabic>single</syllabic>
          <text>2.</text>
          <elision> </elision>
          <syllabic>single</syllabic>
          <text>The</text>
        </lyric>
        <lyric default-y="-135" number="3">
          <syllabic>single</syllabic>
          <text font-size="8.25" font-style="italic" font-weight="bold">3.</text>
          <elision> </elision>
          <syllabic>single</syllabic>
          <text font-size="8.25" font-style="italic" font-weight="bold">In</text>
        </lyric>
        <lyric default-y="-155" number="4">
          <syllabic>single</syllabic>
          <text>4.</text>
          <elision> </elision>
          <syllabic>single</syllabic>
          <text>Still</text>
        </lyric>
        <lyric default-y="-176" number="5">
          <syllabic>single</syllabic>
          <text>5.</text>
          <elision> </elision>
          <syllabic>single</syllabic>
          <text>When</text>
        </lyric>
      </note>
    </measure>
    <!--=======================================================-->
    <measure number="1" width="186">
      <note default-x="20">
        <pitch>
          <step>C</step>
          <octave>4</octave>
        </pitch>
        <duration>3</duration>
        <voice>1</voice>
        <type>quarter</type>
        <dot/>
        <stem default-y="-8">up</stem>
        <lyric default-y="-93" number="1" relative-x="-2">
          <syllabic>begin</syllabic>
          <text>an</text>
        </lyric>
        <lyric default-y="-114" number="2">
          <syllabic>single</syllabic>
          <text>men</text>
        </lyric>
        <lyric default-y="-135" number="3">
          <syllabic>begin</syllabic>
          <text font-size="8.25" font-style="italic" font-weight="bold">glo</text>
        </lyric>
        <lyric default-y="-155" number="4" relative-x="3">
          <syllabic>single</syllabic>
          <text>scarred</text>
        </lyric>
        <lyric default-y="-176" number="5" relative-x="18">
          <syllabic>single</syllabic>
          <text>Christ</text>
        </lyric>
      </note>
      <note default-x="20">
        <chord/>
        <pitch>
          <step>E</step>
          <octave>4</octave>
        </pitch>
        <duration>3</duration>
        <voice>1</voice>
        <type>quarter</type>
        <dot/>
        <stem>up</stem>
      </note>
      <note default-x="66">
        <pitch>
          <step>C</step>
          <octave>4</octave>
        </pitch>
        <duration>1</duration>
        <voice>1</voice>
        <type>eighth</type>
        <stem default-y="-8">up</stem>
        <lyric default-y="-93" number="1" relative-x="-6">
          <syllabic>end</syllabic>
          <text>gels</text>
        </lyric>
        <lyric default-y="-114" number="2">
          <syllabic>single</syllabic>
          <text>from</text>
        </lyric>
        <lyric default-y="-135" number="3">
          <syllabic>end</syllabic>
          <text font-size="8.25" font-style="italic" font-weight="bold">ry</text>
        </lyric>
        <lyric default-y="-155" number="4" relative-x="4">
          <syllabic>single</syllabic>
          <text>by</text>
        </lyric>
        <lyric default-y="-176" number="5" relative-x="12">
          <syllabic>begin</syllabic>
          <text>as</text>
        </lyric>
      </note>
      <note default-x="66">
        <chord/>
        <pitch>
          <step>E</step>
          <octave>4</octave>
        </pitch>
        <duration>1</duration>
        <voice>1</voice>
        <type>eighth</type>
        <stem>up</stem>
      </note>
      <note default-x="108">
        <pitch>
          <step>E</step>
          <octave>4</octave>
        </pitch>
        <duration>2</duration>
        <voice>1</voice>
        <type>quarter</type>
        <stem default-y="2">up</stem>
        <lyric default-y="-93" number="1">
          <syllabic>single</syllabic>
          <text>asked</text>
        </lyric>
        <lyric default-y="-114" number="2">
          <syllabic>begin</syllabic>
          <text>Ol</text>
        </lyric>
        <lyric default-y="-135" number="3">
          <syllabic>single</syllabic>
          <text font-size="8.25" font-style="italic" font-weight="bold">came</text>
        </lyric>
        <lyric default-y="-155" number="4" relative-x="3">
          <syllabic>single</syllabic>
          <text>death</text>
        </lyric>
        <lyric default-y="-176" number="5" relative-x="11">
          <syllabic>middle</syllabic>
          <text>cend</text>
        </lyric>
      </note>
      <note default-x="108">
        <chord/>
        <pitch>
          <step>G</step>
          <octave>4</octave>
        </pitch>
        <duration>2</duration>
        <voice>1</voice>
        <type>quarter</type>
        <stem>up</stem>
      </note>
      <note default-x="148">
        <pitch>
          <step>E</step>
          <octave>4</octave>
        </pitch>
        <duration>2</duration>
        <voice>1</voice>
        <type>quarter</type>
        <stem default-y="2">up</stem>
        <lyric default-y="-93" number="1" relative-x="4">
          <syllabic>single</syllabic>
          <text>the</text>
        </lyric>
        <lyric default-y="-114" number="2">
          <syllabic>middle</syllabic>
          <text>i</text>
        </lyric>
        <lyric default-y="-135" number="3">
          <syllabic>single</syllabic>
          <text font-size="8.25" font-style="italic" font-weight="bold">the</text>
        </lyric>
        <lyric default-y="-155" number="4" relative-x="8">
          <syllabic>single</syllabic>
          <text>He</text>
        </lyric>
        <lyric default-y="-176" number="5" relative-x="11">
          <syllabic>end</syllabic>
          <text>ed</text>
        </lyric>
      </note>
      <note default-x="148">
        <chord/>
        <pitch>
          <step>G</step>
          <octave>4</octave>
        </pitch>
        <duration>2</duration>
        <voice>1</voice>
        <type>quarter</type>
        <stem>up</stem>
      </note>
    </measure>
    <!--=======================================================-->
    <measure number="2" width="211">
      <note default-x="19">
        <pitch>
          <step>F</step>
          <octave>4</octave>
        </pitch>
        <duration>2</duration>
        <voice>1</voice>
        <type>quarter</type>
        <stem default-y="7">up</stem>
        <lyric default-y="-93" number="1">
          <syllabic>begin</syllabic>
          <text>watch</text>
        </lyric>
        <lyric default-y="-114" number="2">
          <syllabic>end</syllabic>
          <text>vet</text>
        </lyric>
        <lyric default-y="-135" number="3">
          <syllabic>single</syllabic>
          <text font-size="8.25" font-style="italic" font-weight="bold">Son</text>
        </lyric>
        <lyric default-y="-155" number="4">
          <syllabic>single</syllabic>
          <text>takes</text>
        </lyric>
        <lyric default-y="-176" number="5" relative-x="5">
          <syllabic>single</syllabic>
          <text>through</text>
        </lyric>
      </note>
      <note default-x="19">
        <chord/>
        <pitch>
          <step>A</step>
          <octave>4</octave>
        </pitch>
        <duration>2</duration>
        <voice>1</voice>
        <type>quarter</type>
        <stem>up</stem>
      </note>
      <note default-x="76">
        <pitch>
          <step>F</step>
          <octave>4</octave>
        </pitch>
        <duration>2</duration>
        <voice>1</voice>
        <type>quarter</type>
        <stem default-y="7">up</stem>
        <lyric default-y="-93" number="1">
          <syllabic>end</syllabic>
          <text>ing</text>
        </lyric>
        <lyric default-y="-114" number="2" relative-x="-4">
          <syllabic>begin</syllabic>
          <text>re</text>
        </lyric>
        <lyric default-y="-135" number="3">
          <syllabic>single</syllabic>
          <text font-size="8.25" font-style="italic" font-weight="bold">of</text>
        </lyric>
        <lyric default-y="-155" number="4" relative-x="4">
          <syllabic>single</syllabic>
          <text>the</text>
        </lyric>
        <lyric default-y="-176" number="5" relative-x="4">
          <syllabic>single</syllabic>
          <text>the</text>
        </lyric>
      </note>
      <note default-x="76">
        <chord/>
        <pitch>
          <step>A</step>
          <octave>4</octave>
        </pitch>
        <duration>2</duration>
        <voice>1</voice>
        <type>quarter</type>
        <stem>up</stem>
      </note>
      <note default-x="128">
        <pitch>
          <step>E</step>
          <octave>4</octave>
        </pitch>
        <duration>2</duration>
        <voice>1</voice>
        <type>quarter</type>
        <stem default-y="2">up</stem>
        <lyric default-y="-93" number="1">
          <syllabic>single</syllabic>
          <text>men,</text>
        </lyric>
        <lyric default-y="-114" number="2" relative-x="-4">
          <syllabic>end</syllabic>
          <text>turned,</text>
        </lyric>
        <lyric default-y="-135" number="3">
          <syllabic>single</syllabic>
          <text font-size="8.25" font-style="italic" font-weight="bold">Man</text>
        </lyric>
        <lyric default-y="-155" number="4">
          <syllabic>single</syllabic>
          <text>blood</text>
        </lyric>
        <lyric default-y="-176" number="5">
          <syllabic>single</syllabic>
          <text>sky</text>
        </lyric>
      </note>
      <note default-x="128">
        <chord/>
        <pitch>
          <step>G</step>
          <octave>4</octave>
        </pitch>
        <duration>2</duration>
        <voice>1</voice>
        <type>quarter</type>
        <stem>up</stem>
      </note>
      <note default-x="182">
        <pitch>
          <step>G</step>
          <octave>4</octave>
        </pitch>
        <duration>2</duration>
        <voice>1</voice>
        <type>quarter</type>
        <stem>double</stem>
        <lyric default-y="-93" number="1">
          <syllabic>single</syllabic>
          <text>“Why</text>
        </lyric>
        <lyric default-y="-114" number="2" relative-x="8">
          <syllabic>single</syllabic>
          <text>And</text>
        </lyric>
        <lyric default-y="-135" number="3" relative-x="8">
          <syllabic>single</syllabic>
          <text font-size="8.25" font-style="italic" font-weight="bold">On</text>
        </lyric>
        <lyric default-y="-155" number="4" relative-x="8">
          <syllabic>single</syllabic>
          <text>He</text>
        </lyric>
        <lyric default-y="-176" number="5" relative-x="8">
          <syllabic>single</syllabic>
          <text>He</text>
        </lyric>
      </note>
    </measure>
    <!--=======================================================-->
    <measure number="3" width="346">
      <note default-x="16">
        <pitch>
          <step>C</step>
          <octave>5</octave>
        </pitch>
        <duration>2</duration>
        <voice>1</voice>
        <type>quarter</type>
        <stem default-y="11">up</stem>
        <lyric default-y="-93" number="1" relative-x="3">
          <syllabic>single</syllabic>
          <text>are</text>
        </lyric>
        <lyric default-y="-114" number="2" relative-x="3">
          <syllabic>begin</syllabic>
          <text>gath</text>
        </lyric>
        <lyric default-y="-135" number="3" relative-x="3">
          <syllabic>single</syllabic>
          <text font-size="8.25" font-style="italic" font-weight="bold">clouds</text>
        </lyric>
        <lyric default-y="-155" number="4" relative-x="3">
          <syllabic>single</syllabic>
          <text>shed</text>
        </lyric>
        <lyric default-y="-176" number="5" relative-x="3">
          <syllabic>single</syllabic>
          <text>led</text>
        </lyric>
      </note>
      <backup>
        <duration>2</duration>
      </backup>
      <note default-x="16">
        <pitch>
          <step>G</step>
          <octave>4</octave>
        </pitch>
        <duration>3</duration>
        <voice>2</voice>
        <type>quarter</type>
        <dot/>
        <stem default-y="-56">down</stem>
      </note>
      <note default-x="91">
        <pitch>
          <step>F</step>
          <alter>1</alter>
          <octave>4</octave>
        </pitch>
        <duration>1</duration>
        <voice>2</voice>
        <type>eighth</type>
        <accidental>sharp</accidental>
        <stem default-y="-66.5">down</stem>
      </note>
      <backup>
        <duration>2</duration>
      </backup>
      <note default-x="60">
        <pitch>
          <step>D</step>
          <octave>5</octave>
        </pitch>
        <duration>2</duration>
        <voice>1</voice>
        <type>quarter</type>
        <stem default-y="16">up</stem>
        <lyric default-y="-93" number="1" relative-x="4">
          <syllabic>single</syllabic>
          <text>you</text>
        </lyric>
        <lyric default-y="-114" number="2" relative-x="4">
          <syllabic>middle</syllabic>
          <text>er</text>
        </lyric>
        <lyric default-y="-135" number="3" relative-x="4">
          <syllabic>single</syllabic>
          <text font-size="8.25" font-style="italic" font-weight="bold">of</text>
        </lyric>
        <lyric default-y="-155" number="4" relative-x="4">
          <syllabic>single</syllabic>
          <text>for</text>
        </lyric>
        <lyric default-y="-176" number="5" relative-x="4">
          <syllabic>single</syllabic>
          <text>the</text>
        </lyric>
      </note>
      <note default-x="117">
        <pitch>
          <step>G</step>
          <octave>4</octave>
        </pitch>
        <duration>2</duration>
        <voice>1</voice>
        <type>quarter</type>
        <stem default-y="12">up</stem>
        <lyric default-y="-93" number="1" relative-x="-6">
          <syllabic>begin</syllabic>
          <text>gaz</text>
        </lyric>
        <lyric default-y="-114" number="2" relative-x="-6">
          <syllabic>end</syllabic>
          <text>ing</text>
        </lyric>
        <lyric default-y="-135" number="3" relative-x="-6">
          <syllabic>begin</syllabic>
          <text font-size="8.25" font-style="italic" font-weight="bold">heav</text>
        </lyric>
        <lyric default-y="-155" number="4" relative-x="-6">
          <syllabic>single</syllabic>
          <text>men</text>
        </lyric>
        <lyric default-y="-176" number="5" relative-x="-6">
          <syllabic>begin</syllabic>
          <text>cap</text>
        </lyric>
      </note>
      <note default-x="117">
        <chord/>
        <pitch>
          <step>B</step>
          <octave>4</octave>
        </pitch>
        <duration>2</duration>
        <voice>1</voice>
        <type>quarter</type>
        <stem>up</stem>
      </note>
      <note default-x="154">
        <pitch>
          <step>G</step>
          <octave>4</octave>
        </pitch>
        <duration>2</duration>
        <voice>1</voice>
        <type>quarter</type>
        <stem default-y="2">up</stem>
        <lyric default-y="-93" number="1" relative-x="5">
          <syllabic>end</syllabic>
          <text>ing</text>
        </lyric>
        <lyric default-y="-114" number="2" relative-x="5">
          <syllabic>begin</syllabic>
          <text>to</text>
        </lyric>
        <lyric default-y="-135" number="3" relative-x="5">
          <syllabic>end</syllabic>
          <text font-size="8.25" font-style="italic" font-weight="bold">en,</text>
        </lyric>
        <lyric default-y="-155" number="4" relative-x="5">
          <syllabic>begin</syllabic>
          <text>up</text>
        </lyric>
        <lyric default-y="-176" number="5" relative-x="5">
          <syllabic>end</syllabic>
          <text>tives</text>
        </lyric>
      </note>
      <backup>
        <duration>2</duration>
      </backup>
      <note default-x="154">
        <pitch>
          <step>D</step>
          <octave>4</octave>
        </pitch>
        <duration>1</duration>
        <voice>2</voice>
        <type>eighth</type>
        <stem default-y="-72">down</stem>
        <beam number="1">begin</beam>
      </note>
      <note default-x="179">
        <pitch>
          <step>E</step>
          <octave>4</octave>
        </pitch>
        <duration>1</duration>
        <voice>2</voice>
        <type>eighth</type>
        <stem default-y="-67">down</stem>
        <beam number="1">end</beam>
      </note>
    </measure>
    <!--=======================================================-->
    <measure number="4" width="85">
      <print new-system="yes"/>
      <note default-x="719">
        <pitch>
          <step>D</step>
          <octave>4</octave>
        </pitch>
        <duration>2</duration>
        <voice>1</voice>
        <type>quarter</type>
        <stem default-y="306">up</stem>
        <lyric default-y="-93" number="1" relative-x="-2">
          <syllabic>single</syllabic>
          <text>at</text>
        </lyric>
        <lyric default-y="-114" number="2" relative-x="-2">
          <syllabic>middle</syllabic>
          <text>geth</text>
        </lyric>
        <lyric default-y="-135" number="3" relative-x="-2">
          <syllabic>single</syllabic>
          <text font-size="8.25" font-style="italic" font-weight="bold">great</text>
        </lyric>
        <lyric default-y="-155" number="4" relative-x="-2">
          <syllabic>end</syllabic>
          <text>on</text>
        </lyric>
        <lyric default-y="-176" number="5" relative-x="-2">
          <syllabic>single</syllabic>
          <text>in</text>
        </lyric>
      </note>
      <note default-x="719">
        <chord/>
        <pitch>
          <step>G</step>
          <octave>4</octave>
        </pitch>
        <duration>2</duration>
        <voice>1</voice>
        <type>quarter</type>
        <stem>up</stem>
      </note>
      <note default-x="767">
        <pitch>
          <step>D</step>
          <octave>4</octave>
        </pitch>
        <duration>2</duration>
        <voice>1</voice>
        <type>quarter</type>
        <stem default-y="301">up</stem>
        <lyric default-y="-93" number="1" relative-x="-4">
          <syllabic>single</syllabic>
          <text>the</text>
        </lyric>
        <lyric default-y="-114" number="2" relative-x="-8">
          <syllabic>end</syllabic>
          <text>er</text>
        </lyric>
        <lyric default-y="-135" number="3" relative-x="-4">
          <syllabic>single</syllabic>
          <text font-size="8.25" font-style="italic" font-weight="bold">and</text>
        </lyric>
        <lyric default-y="-155" number="4" relative-x="-4">
          <syllabic>single</syllabic>
          <text>the</text>
        </lyric>
        <lyric default-y="-176" number="5" relative-x="-4">
          <syllabic>single</syllabic>
          <text>His</text>
        </lyric>
      </note>
      <note default-x="767">
        <chord/>
        <pitch>
          <step>F</step>
          <alter>1</alter>
          <octave>4</octave>
        </pitch>
        <duration>2</duration>
        <voice>1</voice>
        <type>quarter</type>
        <accidental>sharp</accidental>
        <stem>up</stem>
      </note>
      <note default-x="817">
        <pitch>
          <step>D</step>
          <octave>4</octave>
        </pitch>
        <duration>2</duration>
        <voice>1</voice>
        <type>quarter</type>
        <stem default-y="306">up</stem>
        <lyric default-y="-93" number="1" relative-x="-5">
          <syllabic>single</syllabic>
          <text>sky?</text>
        </lyric>
        <lyric default-y="-114" number="2" relative-x="-12">
          <syllabic>single</syllabic>
          <text>prayed.</text>
        </lyric>
        <lyric default-y="-135" number="3" relative-x="-4">
          <syllabic>single</syllabic>
          <text font-size="8.25" font-style="italic" font-weight="bold">bright,</text>
        </lyric>
        <lyric default-y="-155" number="4" relative-x="-4">
          <syllabic>single</syllabic>
          <text>cross,</text>
        </lyric>
        <lyric default-y="-176" number="5" relative-x="-4">
          <syllabic>single</syllabic>
          <text>train,</text>
        </lyric>
      </note>
      <note default-x="817">
        <chord/>
        <pitch>
          <step>G</step>
          <octave>4</octave>
        </pitch>
        <duration>2</duration>
        <voice>1</voice>
        <type>quarter</type>
        <stem>up</stem>
      </note>
      <note default-x="52">
        <pitch>
          <step>B</step>
          <octave>3</octave>
        </pitch>
        <duration>2</duration>
        <voice>1</voice>
        <type>quarter</type>
        <stem default-y="-13">up</stem>
        <lyric default-y="-93" number="1">
          <syllabic>single</syllabic>
          <text>This</text>
        </lyric>
        <lyric default-y="-114" number="2">
          <syllabic>begin</syllabic>
          <text>Ac</text>
        </lyric>
        <lyric default-y="-135" number="3">
          <syllabic>single</syllabic>
          <text font-size="8.25" font-style="italic" font-weight="bold">And</text>
        </lyric>
        <lyric default-y="-155" number="4">
          <syllabic>single</syllabic>
          <text>And</text>
        </lyric>
        <lyric default-y="-176" number="5">
          <syllabic>single</syllabic>
          <text>And</text>
        </lyric>
      </note>
      <note default-x="52">
        <chord/>
        <pitch>
          <step>D</step>
          <octave>4</octave>
        </pitch>
        <duration>2</duration>
        <voice>1</voice>
        <type>quarter</type>
        <stem>up</stem>
      </note>
    </measure>
    <!--=======================================================-->
    <measure number="5" width="190">
      <note default-x="21">
        <pitch>
          <step>D</step>
          <octave>4</octave>
        </pitch>
        <duration>3</duration>
        <voice>1</voice>
        <type>quarter</type>
        <dot/>
        <stem default-y="-3">up</stem>
        <lyric default-y="-93" number="1">
          <syllabic>begin</syllabic>
          <text>Je</text>
        </lyric>
        <lyric default-y="-114" number="2">
          <syllabic>middle</syllabic>
          <text>cord</text>
        </lyric>
        <lyric default-y="-135" number="3">
          <syllabic>single</syllabic>
          <text font-size="8.25" font-style="italic" font-weight="bold">stood</text>
        </lyric>
        <lyric default-y="-155" number="4">
          <syllabic>begin</syllabic>
          <text>en</text>
        </lyric>
        <lyric default-y="-176" number="5">
          <syllabic>begin</syllabic>
          <text>gift</text>
        </lyric>
      </note>
      <note default-x="21">
        <chord/>
        <pitch>
          <step>F</step>
          <octave>4</octave>
        </pitch>
        <duration>3</duration>
        <voice>1</voice>
        <type>quarter</type>
        <dot/>
        <stem>up</stem>
      </note>
      <note default-x="71">
        <pitch>
          <step>D</step>
          <octave>4</octave>
        </pitch>
        <duration>1</duration>
        <voice>1</voice>
        <type>eighth</type>
        <stem default-y="-3">up</stem>
        <lyric default-y="-93" number="1">
          <syllabic>end</syllabic>
          <text>sus,</text>
        </lyric>
        <lyric default-y="-114" number="2">
          <syllabic>end</syllabic>
          <text>ing</text>
        </lyric>
        <lyric default-y="-135" number="3">
          <syllabic>begin</syllabic>
          <text font-size="8.25" font-style="italic" font-weight="bold">be</text>
        </lyric>
        <lyric default-y="-155" number="4">
          <syllabic>middle</syllabic>
          <text>ter</text>
        </lyric>
        <lyric default-y="-176" number="5">
          <syllabic>end</syllabic>
          <text>ed</text>
        </lyric>
      </note>
      <note default-x="71">
        <chord/>
        <pitch>
          <step>F</step>
          <octave>4</octave>
        </pitch>
        <duration>1</duration>
        <voice>1</voice>
        <type>eighth</type>
        <stem>up</stem>
      </note>
      <note default-x="113">
        <pitch>
          <step>C</step>
          <octave>4</octave>
        </pitch>
        <duration>2</duration>
        <voice>1</voice>
        <type>quarter</type>
        <stem default-y="-8">up</stem>
        <lyric default-y="-93" number="1">
          <syllabic>begin</syllabic>
          <text>pass</text>
        </lyric>
        <lyric default-y="-114" number="2">
          <syllabic>single</syllabic>
          <text>to</text>
        </lyric>
        <lyric default-y="-135" number="3">
          <syllabic>end</syllabic>
          <text font-size="8.25" font-style="italic" font-weight="bold">fore</text>
        </lyric>
        <lyric default-y="-155" number="4">
          <syllabic>end</syllabic>
          <text>ing</text>
        </lyric>
        <lyric default-y="-176" number="5">
          <syllabic>single</syllabic>
          <text>men</text>
        </lyric>
      </note>
      <note default-x="113">
        <chord/>
        <pitch>
          <step>E</step>
          <octave>4</octave>
        </pitch>
        <duration>2</duration>
        <voice>1</voice>
        <type>quarter</type>
        <stem>up</stem>
      </note>
      <note default-x="158">
        <pitch>
          <step>C</step>
          <octave>4</octave>
        </pitch>
        <duration>2</duration>
        <voice>1</voice>
        <type>quarter</type>
        <stem default-y="-8">up</stem>
        <lyric default-y="-93" number="1">
          <syllabic>end</syllabic>
          <text>ing</text>
        </lyric>
        <lyric default-y="-114" number="2">
          <syllabic>single</syllabic>
          <text>the</text>
        </lyric>
        <lyric default-y="-135" number="3">
          <syllabic>single</syllabic>
          <text font-size="8.25" font-style="italic" font-weight="bold">the</text>
        </lyric>
        <lyric default-y="-155" number="4">
          <syllabic>single</syllabic>
          <text>the</text>
        </lyric>
        <lyric default-y="-176" number="5">
          <syllabic>single</syllabic>
          <text>to</text>
        </lyric>
      </note>
      <note default-x="158">
        <chord/>
        <pitch>
          <step>E</step>
          <octave>4</octave>
        </pitch>
        <duration>2</duration>
        <voice>1</voice>
        <type>quarter</type>
        <stem>up</stem>
      </note>
    </measure>
    <!--=======================================================-->
    <measure number="6" width="213">
      <note default-x="30">
        <pitch>
          <step>E</step>
          <octave>4</octave>
        </pitch>
        <duration>3</duration>
        <voice>1</voice>
        <type>quarter</type>
        <dot/>
        <stem default-y="2">up</stem>
        <lyric default-y="-93" number="1" relative-x="-6">
          <syllabic>single</syllabic>
          <text>through</text>
        </lyric>
        <lyric default-y="-114" number="2" relative-x="-9">
          <syllabic>single</syllabic>
          <text>Lord’s</text>
        </lyric>
        <lyric default-y="-135" number="3">
          <syllabic>single</syllabic>
          <text font-size="8.25" font-style="italic" font-weight="bold">Lord</text>
        </lyric>
        <lyric default-y="-155" number="4">
          <syllabic>begin</syllabic>
          <text>Ho</text>
        </lyric>
        <lyric default-y="-176" number="5">
          <syllabic>single</syllabic>
          <text>preach</text>
        </lyric>
      </note>
      <note default-x="30">
        <chord/>
        <pitch>
          <step>G</step>
          <octave>4</octave>
        </pitch>
        <duration>3</duration>
        <voice>1</voice>
        <type>quarter</type>
        <dot/>
        <stem>up</stem>
      </note>
      <note default-x="84">
        <pitch>
          <step>E</step>
          <octave>4</octave>
        </pitch>
        <duration>1</duration>
        <voice>1</voice>
        <type>eighth</type>
        <stem default-y="2">up</stem>
        <lyric default-y="-93" number="1" relative-x="-4">
          <syllabic>single</syllabic>
          <text>the</text>
        </lyric>
        <lyric default-y="-114" number="2" relative-x="-7">
          <syllabic>begin</syllabic>
          <text>com</text>
        </lyric>
        <lyric default-y="-135" number="3">
          <syllabic>single</syllabic>
          <text font-size="8.25" font-style="italic" font-weight="bold">of</text>
        </lyric>
        <lyric default-y="-155" number="4">
          <syllabic>end</syllabic>
          <text>ly</text>
        </lyric>
        <lyric default-y="-176" number="5">
          <syllabic>single</syllabic>
          <text>His</text>
        </lyric>
      </note>
      <note default-x="84">
        <chord/>
        <pitch>
          <step>G</step>
          <octave>4</octave>
        </pitch>
        <duration>1</duration>
        <voice>1</voice>
        <type>eighth</type>
        <stem>up</stem>
      </note>
      <note default-x="132">
        <pitch>
          <step>D</step>
          <octave>4</octave>
        </pitch>
        <duration>2</duration>
        <voice>1</voice>
        <type>quarter</type>
        <stem default-y="-3">up</stem>
        <lyric default-y="-93" number="1">
          <syllabic>single</syllabic>
          <text>clouds,</text>
        </lyric>
        <lyric default-y="-114" number="2">
          <syllabic>end</syllabic>
          <text>mand</text>
        </lyric>
        <lyric default-y="-135" number="3">
          <syllabic>single</syllabic>
          <text font-size="8.25" font-style="italic" font-weight="bold">hosts,</text>
        </lyric>
        <lyric default-y="-155" number="4">
          <syllabic>single</syllabic>
          <text>Place</text>
        </lyric>
        <lyric default-y="-176" number="5">
          <syllabic>single</syllabic>
          <text>Word</text>
        </lyric>
      </note>
      <note default-x="132">
        <chord/>
        <pitch>
          <step>F</step>
          <alter>1</alter>
          <octave>4</octave>
        </pitch>
        <duration>2</duration>
        <voice>1</voice>
        <type>quarter</type>
        <accidental>sharp</accidental>
        <stem>up</stem>
      </note>
      <note default-x="180">
        <pitch>
          <step>F</step>
          <alter>1</alter>
          <octave>4</octave>
        </pitch>
        <duration>2</duration>
        <voice>1</voice>
        <type>quarter</type>
        <stem default-y="12">up</stem>
        <lyric default-y="-93" number="1" relative-x="9">
          <syllabic>begin</syllabic>
          <text>As</text>
        </lyric>
        <lyric default-y="-114" number="2" relative-x="9">
          <syllabic>begin</syllabic>
          <text>With</text>
        </lyric>
        <lyric default-y="-135" number="3" relative-x="9">
          <syllabic>begin</syllabic>
          <text font-size="8.25" font-style="italic" font-weight="bold">An</text>
        </lyric>
        <lyric default-y="-155" number="4" relative-x="9">
          <syllabic>single</syllabic>
          <text>He</text>
        </lyric>
        <lyric default-y="-176" number="5" relative-x="9">
          <syllabic>single</syllabic>
          <text>And</text>
        </lyric>
      </note>
      <note default-x="180">
        <chord/>
        <pitch>
          <step>B</step>
          <octave>4</octave>
        </pitch>
        <duration>2</duration>
        <voice>1</voice>
        <type>quarter</type>
        <stem>up</stem>
      </note>
    </measure>
    <!--=======================================================-->
    <measure number="7" width="359">
      <note default-x="23">
        <pitch>
          <step>G</step>
          <octave>4</octave>
        </pitch>
        <duration>2</duration>
        <voice>1</voice>
        <type>quarter</type>
        <stem default-y="2">up</stem>
        <lyric default-y="-93" number="1">
          <syllabic>middle</syllabic>
          <text>cend</text>
        </lyric>
        <lyric default-y="-114" number="2">
          <syllabic>end</syllabic>
          <text>in</text>
        </lyric>
        <lyric default-y="-135" number="3">
          <syllabic>end</syllabic>
          <text font-size="8.25" font-style="italic" font-weight="bold">cient</text>
        </lyric>
        <lyric default-y="-155" number="4">
          <syllabic>begin</syllabic>
          <text>in</text>
        </lyric>
        <lyric default-y="-176" number="5">
          <syllabic>single</syllabic>
          <text>teach</text>
        </lyric>
      </note>
      <backup>
        <duration>2</duration>
      </backup>
      <note default-x="23">
        <pitch>
          <step>E</step>
          <octave>4</octave>
        </pitch>
        <duration>3</duration>
        <voice>2</voice>
        <type>quarter</type>
        <dot/>
        <stem default-y="-66">down</stem>
      </note>
      <note default-x="101">
        <pitch>
          <step>D</step>
          <alter>1</alter>
          <octave>4</octave>
        </pitch>
        <duration>1</duration>
        <voice>2</voice>
        <type>eighth</type>
        <accidental>sharp</accidental>
        <stem default-y="-76">down</stem>
      </note>
      <backup>
        <duration>2</duration>
      </backup>
      <note default-x="74">
        <pitch>
          <step>F</step>
          <alter>1</alter>
          <octave>4</octave>
        </pitch>
        <duration>2</duration>
        <voice>1</voice>
        <type>quarter</type>
        <accidental>sharp</accidental>
        <stem default-y="-3">up</stem>
        <lyric default-y="-93" number="1">
          <syllabic>end</syllabic>
          <text>ed</text>
        </lyric>
        <lyric default-y="-114" number="2">
          <syllabic>begin</syllabic>
          <text>Je</text>
        </lyric>
        <lyric default-y="-135" number="3">
          <syllabic>single</syllabic>
          <text font-size="8.25" font-style="italic" font-weight="bold">of</text>
        </lyric>
        <lyric default-y="-155" number="4">
          <syllabic>middle</syllabic>
          <text>ter</text>
        </lyric>
        <lyric default-y="-176" number="5">
          <syllabic>begin</syllabic>
          <text>sub</text>
        </lyric>
      </note>
      <note default-x="127">
        <pitch>
          <step>E</step>
          <octave>4</octave>
        </pitch>
        <duration>2</duration>
        <voice>1</voice>
        <type>quarter</type>
        <stem default-y="-8">up</stem>
        <lyric default-y="-93" number="1">
          <syllabic>single</syllabic>
          <text>to</text>
        </lyric>
        <lyric default-y="-114" number="2">
          <syllabic>middle</syllabic>
          <text>ru</text>
        </lyric>
        <lyric default-y="-135" number="3">
          <syllabic>single</syllabic>
          <text font-size="8.25" font-style="italic" font-weight="bold">Days,</text>
        </lyric>
        <lyric default-y="-155" number="4" relative-x="-4">
          <syllabic>end</syllabic>
          <text>cedes</text>
        </lyric>
        <lyric default-y="-176" number="5" relative-x="-4">
          <syllabic>middle</syllabic>
          <text>mis</text>
        </lyric>
      </note>
      <backup>
        <duration>2</duration>
      </backup>
      <note default-x="138">
        <pitch>
          <step>E</step>
          <octave>4</octave>
        </pitch>
        <duration>3</duration>
        <voice>2</voice>
        <type>quarter</type>
        <dot/>
        <stem default-y="-66">down</stem>
      </note>
      <note default-x="188">
        <pitch>
          <step>F</step>
          <alter>1</alter>
          <octave>4</octave>
        </pitch>
        <duration>1</duration>
        <voice>2</voice>
        <type>eighth</type>
        <stem default-y="-66">down</stem>
      </note>
      <backup>
        <duration>2</duration>
      </backup>
      <note default-x="166">
        <pitch>
          <step>A</step>
          <octave>4</octave>
        </pitch>
        <duration>2</duration>
        <voice>1</voice>
        <type>quarter</type>
        <stem default-y="7">up</stem>
        <lyric default-y="-93" number="1">
          <syllabic>single</syllabic>
          <text>His</text>
        </lyric>
        <lyric default-y="-114" number="2">
          <syllabic>middle</syllabic>
          <text>sa</text>
        </lyric>
        <lyric default-y="-135" number="3" relative-x="3">
          <syllabic>begin</syllabic>
          <text font-size="8.25" font-style="italic" font-weight="bold">en</text>
        </lyric>
        <lyric default-y="-155" number="4" relative-x="5">
          <syllabic>single</syllabic>
          <text>for</text>
        </lyric>
        <lyric default-y="-176" number="5" relative-x="5">
          <syllabic>end</syllabic>
          <text>sion</text>
        </lyric>
      </note>
    </measure>
    <!--=======================================================-->
    <measure number="8" width="848">
      <print new-system="yes"/>
      <note default-x="719">
        <pitch>
          <step>E</step>
          <octave>4</octave>
        </pitch>
        <duration>2</duration>
        <voice>1</voice>
        <type>quarter</type>
        <stem default-y="2">up</stem>
        <lyric default-y="-93" number="1">
          <syllabic>single</syllabic>
          <text>throne</text>
        </lyric>
        <lyric default-y="-114" number="2" relative-x="-3">
          <syllabic>end</syllabic>
          <text>lem</text>
        </lyric>
        <lyric default-y="-135" number="3">
          <syllabic>end</syllabic>
          <text font-size="8.25" font-style="italic" font-weight="bold">throned</text>
        </lyric>
        <lyric default-y="-155" number="4">
          <syllabic>single</syllabic>
          <text>all</text>
        </lyric>
        <lyric default-y="-176" number="5">
          <syllabic>single</syllabic>
          <text>to</text>
        </lyric>
      </note>
      <note default-x="719">
        <chord/>
        <pitch>
          <step>G</step>
          <octave>4</octave>
        </pitch>
        <duration>2</duration>
        <voice>1</voice>
        <type>quarter</type>
        <stem>up</stem>
      </note>
      <note default-x="769">
        <pitch>
          <step>D</step>
          <alter>1</alter>
          <octave>4</octave>
        </pitch>
        <duration>2</duration>
        <voice>1</voice>
        <type>quarter</type>
        <accidental>sharp</accidental>
        <stem default-y="-3">up</stem>
        <lyric default-y="-93" number="1">
          <syllabic>single</syllabic>
          <text>on</text>
        </lyric>
        <lyric default-y="-114" number="2" relative-x="-13">
          <syllabic>single</syllabic>
          <text>they</text>
        </lyric>
        <lyric default-y="-135" number="3">
          <syllabic>single</syllabic>
          <text font-size="8.25" font-style="italic" font-weight="bold">in</text>
        </lyric>
        <lyric default-y="-155" number="4">
          <syllabic>single</syllabic>
          <text>the</text>
        </lyric>
        <lyric default-y="-176" number="5">
          <syllabic>single</syllabic>
          <text>His</text>
        </lyric>
      </note>
      <note default-x="769">
        <chord/>
        <pitch>
          <step>F</step>
          <alter>1</alter>
          <octave>4</octave>
        </pitch>
        <duration>2</duration>
        <voice>1</voice>
        <type>quarter</type>
        <accidental>sharp</accidental>
        <stem>up</stem>
      </note>
      <note default-x="818">
        <pitch>
          <step>E</step>
          <octave>4</octave>
        </pitch>
        <duration>2</duration>
        <voice>1</voice>
        <type>quarter</type>
        <stem>double</stem>
        <lyric default-y="-93" number="1">
          <syllabic>single</syllabic>
          <text>high.</text>
        </lyric>
        <lyric default-y="-114" number="2" relative-x="-7">
          <syllabic>single</syllabic>
          <text>stayed.</text>
        </lyric>
        <lyric default-y="-135" number="3">
          <syllabic>single</syllabic>
          <text font-size="8.25" font-style="italic" font-weight="bold">light.</text>
        </lyric>
        <lyric default-y="-155" number="4">
          <syllabic>single</syllabic>
          <text>lost.</text>
        </lyric>
        <lyric default-y="-176" number="5">
          <syllabic>single</syllabic>
          <text>reign.</text>
        </lyric>
      </note>
      <note default-x="53">
        <pitch>
          <step>B</step>
          <octave>3</octave>
        </pitch>
        <duration>2</duration>
        <voice>1</voice>
        <type>quarter</type>
        <stem default-y="-304.5">up</stem>
        <lyric default-y="-93" number="1" relative-x="3">
          <syllabic>single</syllabic>
          <text>He,</text>
        </lyric>
        <lyric default-y="-114" number="2" relative-x="3">
          <syllabic>single</syllabic>
          <text>To</text>
        </lyric>
        <lyric default-y="-135" number="3" relative-x="3">
          <syllabic>single</syllabic>
          <text font-size="8.25" font-style="italic" font-weight="bold">He</text>
        </lyric>
        <lyric default-y="-155" number="4" relative-x="3">
          <syllabic>single</syllabic>
          <text>From</text>
        </lyric>
        <lyric default-y="-176" number="5" relative-x="3">
          <syllabic>single</syllabic>
          <text>Now</text>
        </lyric>
      </note>
      <note default-x="53">
        <chord/>
        <pitch>
          <step>E</step>
          <octave>4</octave>
        </pitch>
        <duration>2</duration>
        <voice>1</voice>
        <type>quarter</type>
        <stem>up</stem>
      </note>
    </measure>
    <!--=======================================================-->
    <measure number="9">
      <note default-x="-736">
        <pitch>
          <step>B</step>
          <alter>-1</alter>
          <octave>3</octave>
        </pitch>
        <duration>3</duration>
        <voice>1</voice>
        <type>quarter</type>
        <dot/>
        <accidental>flat</accidental>
        <stem default-y="-8">up</stem>
        <lyric default-y="-93" number="1" relative-x="-5">
          <syllabic>begin</syllabic>
          <text>ris</text>
        </lyric>
        <lyric default-y="-114" number="2" relative-x="-5">
          <syllabic>single</syllabic>
          <text>all</text>
        </lyric>
        <lyric default-y="-135" number="3">
          <syllabic>single</syllabic>
          <text font-size="8.25" font-style="italic" font-weight="bold">gained</text>
        </lyric>
        <lyric default-y="-155" number="4">
          <syllabic>single</syllabic>
          <text>sin</text>
        </lyric>
        <lyric default-y="-176" number="5">
          <syllabic>begin</syllabic>
          <text>seat</text>
        </lyric>
      </note>
      <note default-x="-736">
        <chord/>
        <pitch>
          <step>E</step>
          <octave>4</octave>
        </pitch>
        <duration>3</duration>
        <voice>1</voice>
        <type>quarter</type>
        <dot/>
        <stem>up</stem>
      </note>
      <note default-x="-692">
        <pitch>
          <step>B</step>
          <alter>-1</alter>
          <octave>3</octave>
        </pitch>
        <duration>1</duration>
        <voice>1</voice>
        <type>eighth</type>
        <stem default-y="-8">up</stem>
        <lyric default-y="-93" number="1" relative-x="-3">
          <syllabic>end</syllabic>
          <text>ing,</text>
        </lyric>
        <lyric default-y="-114" number="2" relative-x="-9">
          <syllabic>single</syllabic>
          <text>the</text>
        </lyric>
        <lyric default-y="-135" number="3" relative-x="3">
          <syllabic>begin</syllabic>
          <text font-size="8.25" font-style="italic" font-weight="bold">au</text>
        </lyric>
        <lyric default-y="-155" number="4">
          <syllabic>single</syllabic>
          <text>and</text>
        </lyric>
        <lyric default-y="-176" number="5">
          <syllabic>end</syllabic>
          <text>ed</text>
        </lyric>
      </note>
      <note default-x="-692">
        <chord/>
        <pitch>
          <step>E</step>
          <octave>4</octave>
        </pitch>
        <duration>1</duration>
        <voice>1</voice>
        <type>eighth</type>
        <stem>up</stem>
      </note>
      <note default-x="-645">
        <pitch>
          <step>A</step>
          <octave>3</octave>
        </pitch>
        <duration>2</duration>
        <voice>1</voice>
        <type>quarter</type>
        <stem default-y="-3">up</stem>
        <lyric default-y="-93" number="1">
          <syllabic>single</syllabic>
          <text>left</text>
        </lyric>
        <lyric default-y="-114" number="2" relative-x="-6">
          <syllabic>single</syllabic>
          <text>world</text>
        </lyric>
        <lyric default-y="-135" number="3">
          <syllabic>middle</syllabic>
          <text font-size="8.25" font-style="italic" font-weight="bold">thor</text>
        </lyric>
        <lyric default-y="-155" number="4">
          <syllabic>single</syllabic>
          <text>guilt</text>
        </lyric>
        <lyric default-y="-176" number="5">
          <syllabic>single</syllabic>
          <text>till</text>
        </lyric>
      </note>
      <note default-x="-645">
        <chord/>
        <pitch>
          <step>F</step>
          <octave>4</octave>
        </pitch>
        <duration>2</duration>
        <voice>1</voice>
        <type>quarter</type>
        <stem>up</stem>
      </note>
      <note default-x="-595">
        <pitch>
          <step>C</step>
          <octave>4</octave>
        </pitch>
        <duration>2</duration>
        <voice>1</voice>
        <type>quarter</type>
        <stem default-y="-3">up</stem>
        <lyric default-y="-93" number="1">
          <syllabic>single</syllabic>
          <text>the</text>
        </lyric>
        <lyric default-y="-114" number="2" relative-x="6">
          <syllabic>single</syllabic>
          <text>they’ll</text>
        </lyric>
        <lyric default-y="-135" number="3">
          <syllabic>middle</syllabic>
          <text font-size="8.25" font-style="italic" font-weight="bold">i</text>
        </lyric>
        <lyric default-y="-155" number="4">
          <syllabic>single</syllabic>
          <text>He</text>
        </lyric>
        <lyric default-y="-176" number="5">
          <syllabic>single</syllabic>
          <text>His</text>
        </lyric>
      </note>
      <note default-x="-595">
        <chord/>
        <pitch>
          <step>F</step>
          <octave>4</octave>
        </pitch>
        <duration>2</duration>
        <voice>1</voice>
        <type>quarter</type>
        <stem>up</stem>
      </note>
    </measure>
    <!--=======================================================-->
    <measure number="10">
      <note>
        <pitch>
          <step>C</step>
          <octave>4</octave>
        </pitch>
        <duration>3</duration>
        <voice>1</voice>
        <type>quarter</type>
        <dot/>
        <stem default-y="-3">up</stem>
        <lyric default-y="-93" number="1">
          <syllabic>single</syllabic>
          <text>world</text>
        </lyric>
        <lyric default-y="-114" number="2">
          <syllabic>begin</syllabic>
          <text>tes</text>
        </lyric>
        <lyric default-y="-135" number="3">
          <syllabic>end</syllabic>
          <text font-size="8.25" font-style="italic" font-weight="bold">ty</text>
        </lyric>
        <lyric default-y="-155" number="4">
          <syllabic>single</syllabic>
          <text>sets</text>
        </lyric>
        <lyric default-y="-176" number="5">
          <syllabic>single</syllabic>
          <text>work’s</text>
        </lyric>
      </note>
      <note>
        <chord/>
        <pitch>
          <step>F</step>
          <alter>1</alter>
          <octave>4</octave>
        </pitch>
        <duration>3</duration>
        <voice>1</voice>
        <type>quarter</type>
        <dot/>
        <accidental>sharp</accidental>
        <stem>up</stem>
      </note>
      <note>
        <pitch>
          <step>C</step>
          <octave>4</octave>
        </pitch>
        <duration>1</duration>
        <voice>1</voice>
        <type>eighth</type>
        <stem default-y="-3">up</stem>
        <lyric default-y="-93" number="1">
          <syllabic>single</syllabic>
          <text>of</text>
        </lyric>
        <lyric default-y="-114" number="2">
          <syllabic>middle</syllabic>
          <text>ti</text>
        </lyric>
        <lyric default-y="-135" number="3">
          <syllabic>single</syllabic>
          <text font-size="8.25" font-style="italic" font-weight="bold">and</text>
        </lyric>
        <lyric default-y="-155" number="4">
          <syllabic>single</syllabic>
          <text>us</text>
        </lyric>
        <lyric default-y="-176" number="5" relative-x="3">
          <syllabic>begin</syllabic>
          <text>com</text>
        </lyric>
      </note>
      <note>
        <chord/>
        <pitch>
          <step>F</step>
          <alter>1</alter>
          <octave>4</octave>
        </pitch>
        <duration>1</duration>
        <voice>1</voice>
        <type>eighth</type>
        <stem>up</stem>
      </note>
      <note>
        <pitch>
          <step>B</step>
          <octave>3</octave>
        </pitch>
        <duration>2</duration>
        <voice>1</voice>
        <type>quarter</type>
        <stem default-y="2">up</stem>
        <lyric default-y="-93" number="1">
          <syllabic>single</syllabic>
          <text>men,</text>
        </lyric>
        <lyric default-y="-114" number="2">
          <syllabic>end</syllabic>
          <text>fy</text>
        </lyric>
        <lyric default-y="-135" number="3">
          <syllabic>single</syllabic>
          <text font-size="8.25" font-style="italic" font-weight="bold">pow’r,</text>
        </lyric>
        <lyric default-y="-155" number="4">
          <syllabic>single</syllabic>
          <text>free</text>
        </lyric>
        <lyric default-y="-176" number="5">
          <syllabic>end</syllabic>
          <text>plete:</text>
        </lyric>
      </note>
      <note>
        <chord/>
        <pitch>
          <step>G</step>
          <octave>4</octave>
        </pitch>
        <duration>2</duration>
        <voice>1</voice>
        <type>quarter</type>
        <stem>up</stem>
      </note>
      <note>
        <pitch>
          <step>G</step>
          <octave>4</octave>
        </pitch>
        <duration>2</duration>
        <voice>1</voice>
        <type>quarter</type>
        <stem default-y="2">up</stem>
        <lyric default-y="-93" number="1" relative-x="12">
          <syllabic>single</syllabic>
          <text>And</text>
        </lyric>
        <lyric default-y="-114" number="2" relative-x="12">
          <syllabic>single</syllabic>
          <text>When</text>
        </lyric>
        <lyric default-y="-135" number="3" relative-x="12">
          <syllabic>single</syllabic>
          <text font-size="8.25" font-style="italic" font-weight="bold">His</text>
        </lyric>
        <lyric default-y="-155" number="4" relative-x="12">
          <syllabic>single</syllabic>
          <text>To</text>
        </lyric>
        <lyric default-y="-176" number="5" relative-x="12">
          <syllabic>single</syllabic>
          <text>All</text>
        </lyric>
      </note>
      <backup>
        <duration>2</duration>
      </backup>
      <note>
        <pitch>
          <step>F</step>
          <octave>4</octave>
        </pitch>
        <duration>2</duration>
        <voice>2</voice>
        <type>quarter</type>
        <accidental>natural</accidental>
        <stem default-y="-61">down</stem>
      </note>
    </measure>
    <!--=======================================================-->
    <measure number="11">
      <note>
        <pitch>
          <step>E</step>
          <octave>4</octave>
        </pitch>
        <duration>2</duration>
        <voice>1</voice>
        <type>quarter</type>
        <stem default-y="2">up</stem>
        <lyric default-y="-93" number="1">
          <syllabic>single</syllabic>
          <text>so</text>
        </lyric>
        <lyric default-y="-114" number="2" relative-x="15">
          <syllabic>single</syllabic>
          <text>clothed</text>
        </lyric>
        <lyric default-y="-135" number="3">
          <syllabic>begin</syllabic>
          <text font-size="8.25" font-style="italic" font-weight="bold">King</text>
        </lyric>
        <lyric default-y="-155" number="4" relative-x="-2">
          <syllabic>single</syllabic>
          <text>serve</text>
        </lyric>
        <lyric default-y="-176" number="5" relative-x="-2">
          <syllabic>begin</syllabic>
          <text>na</text>
        </lyric>
      </note>
      <note>
        <chord/>
        <pitch>
          <step>G</step>
          <octave>4</octave>
        </pitch>
        <duration>2</duration>
        <voice>1</voice>
        <type>quarter</type>
        <stem>up</stem>
      </note>
      <note>
        <pitch>
          <step>D</step>
          <octave>4</octave>
        </pitch>
        <duration>2</duration>
        <voice>1</voice>
        <type>quarter</type>
        <stem default-y="7">up</stem>
        <lyric default-y="-93" number="1">
          <syllabic>single</syllabic>
          <text>shall</text>
        </lyric>
        <lyric default-y="-114" number="2" relative-x="18">
          <syllabic>single</syllabic>
          <text>with</text>
        </lyric>
        <lyric default-y="-135" number="3">
          <syllabic>end</syllabic>
          <text font-size="8.25" font-style="italic" font-weight="bold">dom</text>
        </lyric>
        <lyric default-y="-155" number="4" relative-x="-3">
          <syllabic>single</syllabic>
          <text>Him</text>
        </lyric>
        <lyric default-y="-176" number="5" relative-x="-8">
          <syllabic>end</syllabic>
          <text>tions</text>
        </lyric>
      </note>
      <note>
        <chord/>
        <pitch>
          <step>A</step>
          <octave>4</octave>
        </pitch>
        <duration>2</duration>
        <voice>1</voice>
        <type>quarter</type>
        <stem>up</stem>
      </note>
      <note>
        <pitch>
          <step>E</step>
          <octave>4</octave>
        </pitch>
        <duration>2</duration>
        <voice>1</voice>
        <type>quarter</type>
        <stem default-y="2">up</stem>
        <lyric default-y="-93" number="1">
          <syllabic>single</syllabic>
          <text>He</text>
        </lyric>
        <lyric default-y="-114" number="2" relative-x="8">
          <syllabic>begin</syllabic>
          <text>pow</text>
        </lyric>
        <lyric default-y="-135" number="3">
          <syllabic>single</syllabic>
          <text font-size="8.25" font-style="italic" font-weight="bold">till</text>
        </lyric>
        <lyric default-y="-155" number="4" relative-x="8">
          <syllabic>single</syllabic>
          <text>through</text>
        </lyric>
        <lyric default-y="-176" number="5">
          <syllabic>single</syllabic>
          <text>placed</text>
        </lyric>
      </note>
      <note>
        <chord/>
        <pitch>
          <step>G</step>
          <octave>4</octave>
        </pitch>
        <duration>2</duration>
        <voice>1</voice>
        <type>quarter</type>
        <stem>up</stem>
      </note>
      <note>
        <pitch>
          <step>C</step>
          <octave>4</octave>
        </pitch>
        <duration>2</duration>
        <voice>1</voice>
        <type>quarter</type>
        <stem default-y="-8">up</stem>
        <lyric default-y="-93" number="1" relative-x="-2">
          <syllabic>single</syllabic>
          <text>come</text>
        </lyric>
        <lyric default-y="-114" number="2">
          <syllabic>end</syllabic>
          <text>er</text>
        </lyric>
        <lyric default-y="-135" number="3">
          <syllabic>single</syllabic>
          <text font-size="8.25" font-style="italic" font-weight="bold">the</text>
        </lyric>
        <lyric default-y="-155" number="4" relative-x="8">
          <syllabic>begin</syllabic>
          <text>e</text>
        </lyric>
        <lyric default-y="-176" number="5">
          <syllabic>begin</syllabic>
          <text>be</text>
        </lyric>
      </note>
      <note>
        <chord/>
        <pitch>
          <step>E</step>
          <octave>4</octave>
        </pitch>
        <duration>2</duration>
        <voice>1</voice>
        <type>quarter</type>
        <stem>up</stem>
      </note>
    </measure>
    <!--=======================================================-->
    <measure number="12">
      <note>
        <pitch>
          <step>B</step>
          <octave>3</octave>
        </pitch>
        <duration>3</duration>
        <voice>1</voice>
        <type>quarter</type>
        <dot/>
        <stem default-y="-13">up</stem>
        <lyric default-y="-93" number="1">
          <syllabic>single</syllabic>
          <text>back</text>
        </lyric>
        <lyric default-y="-114" number="2">
          <syllabic>single</syllabic>
          <text>from</text>
        </lyric>
        <lyric default-y="-135" number="3">
          <syllabic>begin</syllabic>
          <text font-size="8.25" font-style="italic" font-weight="bold">fi</text>
        </lyric>
        <lyric default-y="-155" number="4">
          <syllabic>middle</syllabic>
          <text>ter</text>
        </lyric>
        <lyric default-y="-176" number="5">
          <syllabic>end</syllabic>
          <text>neath</text>
        </lyric>
      </note>
      <note>
        <chord/>
        <pitch>
          <step>D</step>
          <octave>4</octave>
        </pitch>
        <duration>3</duration>
        <voice>1</voice>
        <type>quarter</type>
        <dot/>
        <stem>up</stem>
      </note>
      <note>
        <pitch>
          <step>C</step>
          <octave>4</octave>
        </pitch>
        <duration>1</duration>
        <voice>1</voice>
        <type>eighth</type>
        <stem>double</stem>
        <lyric default-y="-93" number="1">
          <syllabic>begin</syllabic>
          <text>a</text>
        </lyric>
        <lyric default-y="-114" number="2">
          <syllabic>single</syllabic>
          <text>on</text>
        </lyric>
        <lyric default-y="-135" number="3">
          <syllabic>end</syllabic>
          <text font-size="8.25" font-style="italic" font-weight="bold">nal</text>
        </lyric>
        <lyric default-y="-155" number="4">
          <syllabic>middle</syllabic>
          <text>ni</text>
        </lyric>
        <lyric default-y="-176" number="5" relative-x="3">
          <syllabic>single</syllabic>
          <text>His</text>
        </lyric>
      </note>
      <note>
        <pitch>
          <step>C</step>
          <octave>4</octave>
        </pitch>
        <duration>2</duration>
        <voice>1</voice>
        <type>quarter</type>
        <stem>double</stem>
        <lyric default-y="-93" number="1">
          <syllabic>end</syllabic>
          <text>gain.”</text>
        </lyric>
        <lyric default-y="-114" number="2">
          <syllabic>single</syllabic>
          <text>high.</text>
        </lyric>
        <lyric default-y="-135" number="3">
          <syllabic>single</syllabic>
          <text font-size="8.25" font-style="italic" font-weight="bold">hour.</text>
        </lyric>
        <lyric default-y="-155" number="4">
          <syllabic>end</syllabic>
          <text>ty.</text>
        </lyric>
        <lyric default-y="-176" number="5">
          <syllabic>single</syllabic>
          <text>feet.</text>
        </lyric>
      </note>
      <barline location="right">
        <bar-style>light-heavy</bar-style>
      </barline>
    </measure>
  </part>
  <!--=========================================================-->
  <part id="P2">
    <measure implicit="yes" number="0" width="104">
      <print>
        <staff-layout number="1">
          <staff-distance>178</staff-distance>
        </staff-layout>
        <measure-numbering>none</measure-numbering>
      </print>
      <attributes>
        <divisions>2</divisions>
        <key>
          <fifths>0</fifths>
          <mode>major</mode>
        </key>
        <time>
          <beats>4</beats>
          <beat-type>4</beat-type>
        </time>
        <clef>
          <sign>F</sign>
          <line>4</line>
        </clef>
      </attributes>
      <sound tempo="101"/>
      <note default-x="71">
        <pitch>
          <step>C</step>
          <octave>3</octave>
        </pitch>
        <duration>2</duration>
        <voice>1</voice>
        <type>quarter</type>
        <stem default-y="-51">down</stem>
      </note>
      <note default-x="71">
        <chord/>
        <pitch>
          <step>E</step>
          <octave>3</octave>
        </pitch>
        <duration>2</duration>
        <voice>1</voice>
        <type>quarter</type>
        <stem>down</stem>
      </note>
    </measure>
    <!--=======================================================-->
    <measure number="1" width="186">
      <note default-x="20">
        <pitch>
          <step>C</step>
          <octave>3</octave>
        </pitch>
        <duration>3</duration>
        <voice>1</voice>
        <type>quarter</type>
        <dot/>
        <stem default-y="-51">down</stem>
      </note>
      <note default-x="20">
        <chord/>
        <pitch>
          <step>G</step>
          <octave>3</octave>
        </pitch>
        <duration>3</duration>
        <voice>1</voice>
        <type>quarter</type>
        <dot/>
        <stem>down</stem>
      </note>
      <note default-x="66">
        <pitch>
          <step>C</step>
          <octave>3</octave>
        </pitch>
        <duration>1</duration>
        <voice>1</voice>
        <type>eighth</type>
        <stem default-y="-56.5">down</stem>
      </note>
      <note default-x="66">
        <chord/>
        <pitch>
          <step>G</step>
          <octave>3</octave>
        </pitch>
        <duration>1</duration>
        <voice>1</voice>
        <type>eighth</type>
        <stem>down</stem>
      </note>
      <note default-x="108">
        <pitch>
          <step>C</step>
          <octave>3</octave>
        </pitch>
        <duration>2</duration>
        <voice>1</voice>
        <type>quarter</type>
        <stem default-y="-51">down</stem>
      </note>
      <backup>
        <duration>2</duration>
      </backup>
      <note default-x="108">
        <pitch>
          <step>C</step>
          <octave>4</octave>
        </pitch>
        <duration>3</duration>
        <voice>2</voice>
        <type>quarter</type>
        <dot/>
        <stem default-y="33">up</stem>
      </note>
      <note default-x="160">
        <pitch>
          <step>B</step>
          <octave>3</octave>
        </pitch>
        <duration>1</duration>
        <voice>2</voice>
        <type>eighth</type>
        <stem default-y="35">up</stem>
      </note>
      <backup>
        <duration>2</duration>
      </backup>
      <note default-x="148">
        <pitch>
          <step>C</step>
          <octave>3</octave>
        </pitch>
        <duration>2</duration>
        <voice>1</voice>
        <type>quarter</type>
        <stem default-y="-51">down</stem>
      </note>
    </measure>
    <!--=======================================================-->
    <measure number="2" width="211">
      <note default-x="19">
        <pitch>
          <step>F</step>
          <octave>3</octave>
        </pitch>
        <duration>1</duration>
        <voice>1</voice>
        <type>eighth</type>
        <stem default-y="-41">down</stem>
        <beam number="1">begin</beam>
      </note>
      <note default-x="19">
        <chord/>
        <pitch>
          <step>A</step>
          <octave>3</octave>
        </pitch>
        <duration>1</duration>
        <voice>1</voice>
        <type>eighth</type>
        <stem>down</stem>
      </note>
      <note default-x="47">
        <pitch>
          <step>G</step>
          <octave>3</octave>
        </pitch>
        <duration>1</duration>
        <voice>1</voice>
        <type>eighth</type>
        <stem default-y="-36">down</stem>
        <beam number="1">end</beam>
      </note>
      <note default-x="47">
        <chord/>
        <pitch>
          <step>B</step>
          <octave>3</octave>
        </pitch>
        <duration>1</duration>
        <voice>1</voice>
        <type>eighth</type>
        <stem>down</stem>
      </note>
      <note default-x="76">
        <pitch>
          <step>A</step>
          <octave>3</octave>
        </pitch>
        <duration>1</duration>
        <voice>1</voice>
        <type>eighth</type>
        <stem default-y="-31">down</stem>
        <beam number="1">begin</beam>
      </note>
      <note default-x="76">
        <chord/>
        <pitch>
          <step>C</step>
          <octave>4</octave>
        </pitch>
        <duration>1</duration>
        <voice>1</voice>
        <type>eighth</type>
        <stem>down</stem>
      </note>
      <note default-x="103">
        <pitch>
          <step>B</step>
          <octave>3</octave>
        </pitch>
        <duration>1</duration>
        <voice>1</voice>
        <type>eighth</type>
        <stem default-y="-26">down</stem>
        <beam number="1">end</beam>
      </note>
      <note default-x="103">
        <chord/>
        <pitch>
          <step>D</step>
          <octave>4</octave>
        </pitch>
        <duration>1</duration>
        <voice>1</voice>
        <type>eighth</type>
        <stem>down</stem>
      </note>
      <note default-x="128">
        <pitch>
          <step>C</step>
          <octave>4</octave>
        </pitch>
        <duration>2</duration>
        <voice>1</voice>
        <type>quarter</type>
        <stem default-y="-21.5">down</stem>
      </note>
      <note default-x="128">
        <chord/>
        <pitch>
          <step>E</step>
          <octave>4</octave>
        </pitch>
        <duration>2</duration>
        <voice>1</voice>
        <type>quarter</type>
        <stem>down</stem>
      </note>
      <note default-x="182">
        <pitch>
          <step>B</step>
          <octave>3</octave>
        </pitch>
        <duration>2</duration>
        <voice>1</voice>
        <type>quarter</type>
        <stem default-y="-26.5">down</stem>
      </note>
      <note default-x="182">
        <chord/>
        <pitch>
          <step>D</step>
          <octave>4</octave>
        </pitch>
        <duration>2</duration>
        <voice>1</voice>
        <type>quarter</type>
        <stem>down</stem>
      </note>
    </measure>
    <!--=======================================================-->
    <measure number="3" width="346">
      <note default-x="16">
        <pitch>
          <step>A</step>
          <octave>3</octave>
        </pitch>
        <duration>2</duration>
        <voice>1</voice>
        <type>quarter</type>
        <stem default-y="-31.5">down</stem>
      </note>
      <note default-x="16">
        <chord/>
        <pitch>
          <step>C</step>
          <octave>4</octave>
        </pitch>
        <duration>2</duration>
        <voice>1</voice>
        <type>quarter</type>
        <stem>down</stem>
      </note>
      <note default-x="60">
        <pitch>
          <step>D</step>
          <octave>3</octave>
        </pitch>
        <duration>2</duration>
        <voice>1</voice>
        <type>quarter</type>
        <stem default-y="-51.5">down</stem>
      </note>
      <note default-x="60">
        <chord/>
        <pitch>
          <step>A</step>
          <octave>3</octave>
        </pitch>
        <duration>2</duration>
        <voice>1</voice>
        <type>quarter</type>
        <stem>down</stem>
      </note>
      <note default-x="117">
        <pitch>
          <step>G</step>
          <octave>3</octave>
        </pitch>
        <duration>2</duration>
        <voice>1</voice>
        <type>quarter</type>
        <stem default-y="-36.5">down</stem>
      </note>
      <note default-x="117">
        <chord/>
        <pitch>
          <step>B</step>
          <octave>3</octave>
        </pitch>
        <duration>2</duration>
        <voice>1</voice>
        <type>quarter</type>
        <stem>down</stem>
      </note>
      <note default-x="154">
        <pitch>
          <step>B</step>
          <octave>2</octave>
        </pitch>
        <duration>1</duration>
        <voice>1</voice>
        <type>eighth</type>
        <stem default-y="-61">down</stem>
        <beam number="1">begin</beam>
      </note>
      <note default-x="154">
        <chord/>
        <pitch>
          <step>D</step>
          <octave>4</octave>
        </pitch>
        <duration>1</duration>
        <voice>1</voice>
        <type>eighth</type>
        <stem>down</stem>
      </note>
      <note default-x="179">
        <pitch>
          <step>C</step>
          <octave>3</octave>
        </pitch>
        <duration>1</duration>
        <voice>1</voice>
        <type>eighth</type>
        <stem default-y="-56">down</stem>
        <beam number="1">end</beam>
      </note>
      <note default-x="179">
        <chord/>
        <pitch>
          <step>C</step>
          <octave>4</octave>
        </pitch>
        <duration>1</duration>
        <voice>1</voice>
        <type>eighth</type>
        <stem>down</stem>
      </note>
    </measure>
    <!--=======================================================-->
    <measure number="4" width="85">
      <print new-system="yes">
        <staff-layout number="1">
          <staff-distance>170</staff-distance>
        </staff-layout>
      </print>
      <note default-x="719">
        <pitch>
          <step>D</step>
          <octave>3</octave>
        </pitch>
        <duration>2</duration>
        <voice>1</voice>
        <type>quarter</type>
        <stem default-y="245">down</stem>
      </note>
      <note default-x="719">
        <chord/>
        <pitch>
          <step>A</step>
          <octave>3</octave>
        </pitch>
        <duration>2</duration>
        <voice>1</voice>
        <type>quarter</type>
        <stem>down</stem>
      </note>
      <note default-x="767">
        <pitch>
          <step>D</step>
          <octave>3</octave>
        </pitch>
        <duration>2</duration>
        <voice>1</voice>
        <type>quarter</type>
        <stem default-y="245">down</stem>
      </note>
      <note default-x="767">
        <chord/>
        <pitch>
          <step>A</step>
          <octave>3</octave>
        </pitch>
        <duration>2</duration>
        <voice>1</voice>
        <type>quarter</type>
        <stem>down</stem>
      </note>
      <note default-x="817">
        <pitch>
          <step>G</step>
          <octave>3</octave>
        </pitch>
        <duration>2</duration>
        <voice>1</voice>
        <type>quarter</type>
        <stem default-y="260">down</stem>
      </note>
      <note default-x="817">
        <chord/>
        <pitch>
          <step>B</step>
          <octave>3</octave>
        </pitch>
        <duration>2</duration>
        <voice>1</voice>
        <type>quarter</type>
        <stem>down</stem>
      </note>
      <note default-x="52">
        <pitch>
          <step>G</step>
          <octave>3</octave>
        </pitch>
        <duration>2</duration>
        <voice>1</voice>
        <type>quarter</type>
        <stem>double</stem>
      </note>
    </measure>
    <!--=======================================================-->
    <measure number="5" width="190">
      <note default-x="21">
        <pitch>
          <step>B</step>
          <octave>2</octave>
        </pitch>
        <duration>3</duration>
        <voice>1</voice>
        <type>quarter</type>
        <dot/>
        <stem default-y="-56">down</stem>
      </note>
      <note default-x="21">
        <chord/>
        <pitch>
          <step>G</step>
          <octave>3</octave>
        </pitch>
        <duration>3</duration>
        <voice>1</voice>
        <type>quarter</type>
        <dot/>
        <stem>down</stem>
      </note>
      <note default-x="71">
        <pitch>
          <step>B</step>
          <octave>2</octave>
        </pitch>
        <duration>1</duration>
        <voice>1</voice>
        <type>eighth</type>
        <stem default-y="-61.5">down</stem>
      </note>
      <note default-x="71">
        <chord/>
        <pitch>
          <step>G</step>
          <octave>3</octave>
        </pitch>
        <duration>1</duration>
        <voice>1</voice>
        <type>eighth</type>
        <stem>down</stem>
      </note>
      <note default-x="113">
        <pitch>
          <step>C</step>
          <octave>3</octave>
        </pitch>
        <duration>2</duration>
        <voice>1</voice>
        <type>quarter</type>
        <stem default-y="-51">down</stem>
      </note>
      <note default-x="113">
        <chord/>
        <pitch>
          <step>G</step>
          <octave>3</octave>
        </pitch>
        <duration>2</duration>
        <voice>1</voice>
        <type>quarter</type>
        <stem>down</stem>
      </note>
      <note default-x="158">
        <pitch>
          <step>C</step>
          <octave>3</octave>
        </pitch>
        <duration>2</duration>
        <voice>1</voice>
        <type>quarter</type>
        <stem default-y="-51">down</stem>
      </note>
      <note default-x="158">
        <chord/>
        <pitch>
          <step>G</step>
          <octave>3</octave>
        </pitch>
        <duration>2</duration>
        <voice>1</voice>
        <type>quarter</type>
        <stem>down</stem>
      </note>
    </measure>
    <!--=======================================================-->
    <measure number="6" width="213">
      <note default-x="30">
        <pitch>
          <step>C</step>
          <alter>1</alter>
          <octave>3</octave>
        </pitch>
        <duration>3</duration>
        <voice>1</voice>
        <type>quarter</type>
        <dot/>
        <accidental>sharp</accidental>
        <stem default-y="-51">down</stem>
      </note>
      <note default-x="30">
        <chord/>
        <pitch>
          <step>A</step>
          <octave>3</octave>
        </pitch>
        <duration>3</duration>
        <voice>1</voice>
        <type>quarter</type>
        <dot/>
        <stem>down</stem>
      </note>
      <note default-x="84">
        <pitch>
          <step>C</step>
          <alter>1</alter>
          <octave>3</octave>
        </pitch>
        <duration>1</duration>
        <voice>1</voice>
        <type>eighth</type>
        <stem default-y="-56.5">down</stem>
      </note>
      <note default-x="84">
        <chord/>
        <pitch>
          <step>A</step>
          <octave>3</octave>
        </pitch>
        <duration>1</duration>
        <voice>1</voice>
        <type>eighth</type>
        <stem>down</stem>
      </note>
      <note default-x="132">
        <pitch>
          <step>D</step>
          <octave>3</octave>
        </pitch>
        <duration>2</duration>
        <voice>1</voice>
        <type>quarter</type>
        <stem default-y="-51.5">down</stem>
      </note>
      <note default-x="132">
        <chord/>
        <pitch>
          <step>A</step>
          <octave>3</octave>
        </pitch>
        <duration>2</duration>
        <voice>1</voice>
        <type>quarter</type>
        <stem>down</stem>
      </note>
      <note default-x="180">
        <pitch>
          <step>D</step>
          <alter>1</alter>
          <octave>3</octave>
        </pitch>
        <duration>2</duration>
        <voice>1</voice>
        <type>quarter</type>
        <accidental>sharp</accidental>
        <stem default-y="-51.5">down</stem>
      </note>
      <note default-x="180">
        <chord/>
        <pitch>
          <step>B</step>
          <octave>3</octave>
        </pitch>
        <duration>2</duration>
        <voice>1</voice>
        <type>quarter</type>
        <stem>down</stem>
      </note>
    </measure>
    <!--=======================================================-->
    <measure number="7" width="359">
      <note default-x="23">
        <pitch>
          <step>E</step>
          <octave>3</octave>
        </pitch>
        <duration>2</duration>
        <voice>1</voice>
        <type>quarter</type>
        <stem default-y="-46.5">down</stem>
      </note>
      <note default-x="23">
        <chord/>
        <pitch>
          <step>B</step>
          <octave>3</octave>
        </pitch>
        <duration>2</duration>
        <voice>1</voice>
        <type>quarter</type>
        <stem>down</stem>
      </note>
      <note default-x="74">
        <pitch>
          <step>F</step>
          <alter>1</alter>
          <octave>3</octave>
        </pitch>
        <duration>2</duration>
        <voice>1</voice>
        <type>quarter</type>
        <accidental>sharp</accidental>
        <stem default-y="-41.5">down</stem>
      </note>
      <note default-x="74">
        <chord/>
        <pitch>
          <step>A</step>
          <octave>3</octave>
        </pitch>
        <duration>2</duration>
        <voice>1</voice>
        <type>quarter</type>
        <stem>down</stem>
      </note>
      <note default-x="127">
        <pitch>
          <step>G</step>
          <octave>3</octave>
        </pitch>
        <duration>2</duration>
        <voice>1</voice>
        <type>quarter</type>
        <stem default-y="-36.5">down</stem>
      </note>
      <note default-x="127">
        <chord/>
        <pitch>
          <step>B</step>
          <octave>3</octave>
        </pitch>
        <duration>2</duration>
        <voice>1</voice>
        <type>quarter</type>
        <stem>down</stem>
      </note>
      <note default-x="166">
        <pitch>
          <step>A</step>
          <octave>3</octave>
        </pitch>
        <duration>2</duration>
        <voice>1</voice>
        <type>quarter</type>
        <stem default-y="-31.5">down</stem>
      </note>
      <note default-x="166">
        <chord/>
        <pitch>
          <step>C</step>
          <octave>4</octave>
        </pitch>
        <duration>2</duration>
        <voice>1</voice>
        <type>quarter</type>
        <stem>down</stem>
      </note>
    </measure>
    <!--=======================================================-->
    <measure number="8" width="848">
      <print new-system="yes">
        <staff-layout number="1">
          <staff-distance>169</staff-distance>
        </staff-layout>
      </print>
      <note default-x="719">
        <pitch>
          <step>B</step>
          <octave>3</octave>
        </pitch>
        <duration>2</duration>
        <voice>1</voice>
        <type>quarter</type>
        <stem>double</stem>
      </note>
      <note default-x="769">
        <pitch>
          <step>B</step>
          <octave>2</octave>
        </pitch>
        <duration>2</duration>
        <voice>1</voice>
        <type>quarter</type>
        <stem default-y="-56">down</stem>
      </note>
      <note default-x="769">
        <chord/>
        <pitch>
          <step>B</step>
          <octave>3</octave>
        </pitch>
        <duration>2</duration>
        <voice>1</voice>
        <type>quarter</type>
        <stem>down</stem>
      </note>
      <note default-x="818">
        <pitch>
          <step>E</step>
          <octave>3</octave>
        </pitch>
        <duration>2</duration>
        <voice>1</voice>
        <type>quarter</type>
        <stem default-y="-46.5">down</stem>
      </note>
      <note default-x="818">
        <chord/>
        <pitch>
          <step>G</step>
          <octave>3</octave>
        </pitch>
        <duration>2</duration>
        <voice>1</voice>
        <type>quarter</type>
        <stem>down</stem>
      </note>
      <note default-x="53">
        <pitch>
          <step>E</step>
          <octave>3</octave>
        </pitch>
        <duration>2</duration>
        <voice>1</voice>
        <type>quarter</type>
        <stem default-y="-341">down</stem>
      </note>
      <note default-x="53">
        <chord/>
        <pitch>
          <step>G</step>
          <octave>3</octave>
        </pitch>
        <duration>2</duration>
        <voice>1</voice>
        <type>quarter</type>
        <stem>down</stem>
      </note>
    </measure>
    <!--=======================================================-->
    <measure number="9">
      <note default-x="-736">
        <pitch>
          <step>C</step>
          <octave>3</octave>
        </pitch>
        <duration>3</duration>
        <voice>1</voice>
        <type>quarter</type>
        <dot/>
        <stem default-y="-51">down</stem>
      </note>
      <note default-x="-736">
        <chord/>
        <pitch>
          <step>G</step>
          <octave>3</octave>
        </pitch>
        <duration>3</duration>
        <voice>1</voice>
        <type>quarter</type>
        <dot/>
        <stem>down</stem>
      </note>
      <note default-x="-692">
        <pitch>
          <step>C</step>
          <octave>3</octave>
        </pitch>
        <duration>1</duration>
        <voice>1</voice>
        <type>eighth</type>
        <stem default-y="-56">down</stem>
      </note>
      <note default-x="-692">
        <chord/>
        <pitch>
          <step>G</step>
          <octave>3</octave>
        </pitch>
        <duration>1</duration>
        <voice>1</voice>
        <type>eighth</type>
        <stem>down</stem>
      </note>
      <note default-x="-645">
        <pitch>
          <step>F</step>
          <octave>3</octave>
        </pitch>
        <duration>2</duration>
        <voice>1</voice>
        <type>quarter</type>
        <stem>double</stem>
      </note>
      <note default-x="-595">
        <pitch>
          <step>F</step>
          <octave>3</octave>
        </pitch>
        <duration>2</duration>
        <voice>1</voice>
        <type>quarter</type>
        <stem default-y="-41">down</stem>
      </note>
      <note default-x="-595">
        <chord/>
        <pitch>
          <step>A</step>
          <octave>3</octave>
        </pitch>
        <duration>2</duration>
        <voice>1</voice>
        <type>quarter</type>
        <stem>down</stem>
      </note>
    </measure>
    <!--=======================================================-->
    <measure number="10">
      <note>
        <pitch>
          <step>D</step>
          <octave>3</octave>
        </pitch>
        <duration>3</duration>
        <voice>1</voice>
        <type>quarter</type>
        <dot/>
        <stem default-y="-51">down</stem>
      </note>
      <note>
        <chord/>
        <pitch>
          <step>A</step>
          <octave>3</octave>
        </pitch>
        <duration>3</duration>
        <voice>1</voice>
        <type>quarter</type>
        <dot/>
        <stem>down</stem>
      </note>
      <note>
        <pitch>
          <step>D</step>
          <octave>3</octave>
        </pitch>
        <duration>1</duration>
        <voice>1</voice>
        <type>eighth</type>
        <stem default-y="-51">down</stem>
      </note>
      <note>
        <chord/>
        <pitch>
          <step>A</step>
          <octave>3</octave>
        </pitch>
        <duration>1</duration>
        <voice>1</voice>
        <type>eighth</type>
        <stem>down</stem>
      </note>
      <note>
        <pitch>
          <step>G</step>
          <octave>3</octave>
        </pitch>
        <duration>2</duration>
        <voice>1</voice>
        <type>quarter</type>
        <stem>double</stem>
      </note>
      <note>
        <pitch>
          <step>B</step>
          <octave>2</octave>
        </pitch>
        <duration>2</duration>
        <voice>1</voice>
        <type>quarter</type>
        <stem default-y="-56">down</stem>
      </note>
      <note>
        <chord/>
        <pitch>
          <step>D</step>
          <octave>4</octave>
        </pitch>
        <duration>2</duration>
        <voice>1</voice>
        <type>quarter</type>
        <stem>down</stem>
      </note>
    </measure>
    <!--=======================================================-->
    <measure number="11">
      <note>
        <pitch>
          <step>C</step>
          <octave>3</octave>
        </pitch>
        <duration>2</duration>
        <voice>1</voice>
        <type>quarter</type>
        <stem default-y="-51">down</stem>
      </note>
      <note>
        <chord/>
        <pitch>
          <step>C</step>
          <octave>4</octave>
        </pitch>
        <duration>2</duration>
        <voice>1</voice>
        <type>quarter</type>
        <stem>down</stem>
      </note>
      <note>
        <pitch>
          <step>F</step>
          <alter>1</alter>
          <octave>2</octave>
        </pitch>
        <duration>2</duration>
        <voice>1</voice>
        <type>quarter</type>
        <accidental>sharp</accidental>
        <stem default-y="-71">down</stem>
      </note>
      <note>
        <chord/>
        <pitch>
          <step>C</step>
          <octave>4</octave>
        </pitch>
        <duration>2</duration>
        <voice>1</voice>
        <type>quarter</type>
        <stem>down</stem>
      </note>
      <note>
        <pitch>
          <step>G</step>
          <octave>2</octave>
        </pitch>
        <duration>2</duration>
        <voice>1</voice>
        <type>quarter</type>
        <stem default-y="-66">down</stem>
      </note>
      <note>
        <chord/>
        <pitch>
          <step>C</step>
          <octave>4</octave>
        </pitch>
        <duration>2</duration>
        <voice>1</voice>
        <type>quarter</type>
        <stem>down</stem>
      </note>
      <note>
        <pitch>
          <step>G</step>
          <octave>2</octave>
        </pitch>
        <duration>2</duration>
        <voice>1</voice>
        <type>quarter</type>
        <stem default-y="21.5">up</stem>
      </note>
      <note>
        <chord/>
        <pitch>
          <step>G</step>
          <octave>3</octave>
        </pitch>
        <duration>2</duration>
        <voice>1</voice>
        <type>quarter</type>
        <stem>up</stem>
      </note>
    </measure>
    <!--=======================================================-->
    <measure number="12">
      <note>
        <pitch>
          <step>G</step>
          <octave>2</octave>
        </pitch>
        <duration>3</duration>
        <voice>1</voice>
        <type>quarter</type>
        <dot/>
        <stem default-y="16.5">up</stem>
      </note>
      <note>
        <chord/>
        <pitch>
          <step>F</step>
          <octave>3</octave>
        </pitch>
        <duration>3</duration>
        <voice>1</voice>
        <type>quarter</type>
        <dot/>
        <stem>up</stem>
      </note>
      <note>
        <pitch>
          <step>C</step>
          <octave>3</octave>
        </pitch>
        <duration>1</duration>
        <voice>1</voice>
        <type>eighth</type>
        <stem default-y="-56">down</stem>
      </note>
      <note>
        <chord/>
        <pitch>
          <step>E</step>
          <octave>3</octave>
        </pitch>
        <duration>1</duration>
        <voice>1</voice>
        <type>eighth</type>
        <stem>down</stem>
      </note>
      <note>
        <pitch>
          <step>C</step>
          <octave>3</octave>
        </pitch>
        <duration>2</duration>
        <voice>1</voice>
        <type>quarter</type>
        <stem default-y="-51">down</stem>
      </note>
      <note>
        <chord/>
        <pitch>
          <step>E</step>
          <octave>3</octave>
        </pitch>
        <duration>2</duration>
        <voice>1</voice>
        <type>quarter</type>
        <stem>down</stem>
      </note>
      <barline location="right">
        <bar-style>light-heavy</bar-style>
      </barline>
    </measure>
  </part>
  <!--=========================================================-->
</score-partwise>
