<?xml version="1.0" encoding="UTF-8" standalone="no"?>
<!DOCTYPE score-partwise PUBLIC "-//Recordare//DTD MusicXML 3.1 Partwise//EN" "http://www.musicxml.org/dtds/partwise.dtd">
<score-partwise version="3.1">
  <identification>
    <encoding>
      <software>Finale v25 for Windows</software>
      <encoding-date>2020-07-08</encoding-date>
      <supports attribute="new-system" element="print" type="yes" value="yes"/>
      <supports attribute="new-page" element="print" type="yes" value="yes"/>
      <supports element="accidental" type="yes"/>
      <supports element="beam" type="yes"/>
      <supports element="stem" type="yes"/>
    </encoding>
  </identification>
  <defaults>
    <scaling>
      <millimeters>6.35</millimeters>
      <tenths>40</tenths>
    </scaling>
    <page-layout>
      <page-height>1380</page-height>
      <page-width>852</page-width>
      <page-margins type="both">
        <left-margin>0</left-margin>
        <right-margin>0</right-margin>
        <top-margin>0</top-margin>
        <bottom-margin>536</bottom-margin>
      </page-margins>
    </page-layout>
    <system-layout>
      <system-margins>
        <left-margin>5</left-margin>
        <right-margin>0</right-margin>
      </system-margins>
      <system-distance>46</system-distance>
      <top-system-distance>46</top-system-distance>
    </system-layout>
    <staff-layout>
      <staff-distance>108</staff-distance>
    </staff-layout>
    <appearance>
      <line-width type="stem">0.8333</line-width>
      <line-width type="beam">4.1667</line-width>
      <line-width type="staff">0.7096</line-width>
      <line-width type="light barline">0.8333</line-width>
      <line-width type="heavy barline">5</line-width>
      <line-width type="leger">0.7292</line-width>
      <line-width type="ending">0.7682</line-width>
      <line-width type="wedge">0.8333</line-width>
      <line-width type="enclosure">0.8333</line-width>
      <line-width type="tuplet bracket">0.7292</line-width>
      <note-size type="grace">55</note-size>
      <note-size type="cue">55</note-size>
      <distance type="hyphen">83</distance>
      <distance type="beam">8</distance>
    </appearance>
    <music-font font-family="Petrucci2" font-size="18"/>
    <word-font font-family="Palatino Linotype" font-size="9"/>
    <lyric-font font-family="Palatino Linotype" font-size="9"/>
  </defaults>
  <credit page="1">
    <credit-words default-y="536" font-size="7.5" valign="bottom" xml:space="preserve">Music: Adrianus Valerius, 1626; arr. Edward Kremser, 1877
Text: Anon., 1625; tr. Theodore Baker, 1917</credit-words>
  </credit>
  <credit page="1">
    <credit-words default-x="852" default-y="536" font-size="7.5" justify="right" valign="bottom" xml:space="preserve">KREMSER
12 11. 12 11.</credit-words>
  </credit>
  <part-list>
    <part-group number="1" type="start">
      <group-symbol default-x="-2">line</group-symbol>
      <group-barline>no</group-barline>
    </part-group>
    <score-part id="P1">
      <part-name print-object="no">MusicXML Part</part-name>
      <score-instrument id="P1-I2">
        <instrument-name>SmartMusic SoftSynth</instrument-name>
        <virtual-instrument/>
      </score-instrument>
      <midi-device>SmartMusic SoftSynth</midi-device>
      <midi-instrument id="P1-I2">
        <midi-channel>1</midi-channel>
        <midi-program>58</midi-program>
        <volume>80</volume>
        <pan>0</pan>
      </midi-instrument>
    </score-part>
    <score-part id="P2">
      <part-name print-object="no">MusicXML Part</part-name>
      <score-instrument id="P2-I1">
        <instrument-name>SmartMusic SoftSynth</instrument-name>
        <virtual-instrument/>
      </score-instrument>
      <midi-device>SmartMusic SoftSynth</midi-device>
      <midi-instrument id="P2-I1">
        <midi-channel>2</midi-channel>
        <midi-program>58</midi-program>
        <volume>80</volume>
        <pan>0</pan>
      </midi-instrument>
    </score-part>
    <part-group number="1" type="stop"/>
  </part-list>
  <!--=========================================================-->
  <part id="P1">
    <measure implicit="yes" number="0" width="107">
      <print>
        <system-layout>
          <top-system-distance>75</top-system-distance>
        </system-layout>
        <measure-numbering>system</measure-numbering>
      </print>
      <attributes>
        <divisions>2</divisions>
        <key>
          <fifths>0</fifths>
          <mode>major</mode>
        </key>
        <time>
          <beats>3</beats>
          <beat-type>4</beat-type>
        </time>
        <clef>
          <sign>G</sign>
          <line>2</line>
        </clef>
      </attributes>
      <sound tempo="101"/>
      <note default-x="69">
        <pitch>
          <step>C</step>
          <octave>4</octave>
        </pitch>
        <duration>2</duration>
        <voice>1</voice>
        <type>quarter</type>
        <stem default-y="2">up</stem>
        <lyric default-y="-91" number="1" relative-x="-2">
          <syllabic>single</syllabic>
          <text>1.</text>
          <elision> </elision>
          <syllabic>single</syllabic>
          <text>We</text>
        </lyric>
        <lyric default-y="-112" number="2" relative-x="-2">
          <syllabic>single</syllabic>
          <text>2.</text>
          <elision> </elision>
          <syllabic>begin</syllabic>
          <text>Be</text>
        </lyric>
        <lyric default-y="-132" number="3" relative-x="-2">
          <syllabic>single</syllabic>
          <text>3.</text>
          <elision> </elision>
          <syllabic>single</syllabic>
          <text>We</text>
        </lyric>
      </note>
      <note default-x="69">
        <chord/>
        <pitch>
          <step>G</step>
          <octave>4</octave>
        </pitch>
        <duration>2</duration>
        <voice>1</voice>
        <type>quarter</type>
        <stem>up</stem>
      </note>
    </measure>
    <!--=======================================================-->
    <measure number="1" width="130">
      <note default-x="18">
        <pitch>
          <step>C</step>
          <octave>4</octave>
        </pitch>
        <duration>3</duration>
        <voice>1</voice>
        <type>quarter</type>
        <dot/>
        <stem default-y="2">up</stem>
        <lyric default-y="-91" number="1">
          <syllabic>begin</syllabic>
          <text>gath</text>
        </lyric>
        <lyric default-y="-112" number="2">
          <syllabic>end</syllabic>
          <text>side</text>
        </lyric>
        <lyric default-y="-132" number="3">
          <syllabic>single</syllabic>
          <text>all</text>
        </lyric>
      </note>
      <note default-x="18">
        <chord/>
        <pitch>
          <step>G</step>
          <octave>4</octave>
        </pitch>
        <duration>3</duration>
        <voice>1</voice>
        <type>quarter</type>
        <dot/>
        <stem>up</stem>
      </note>
      <note default-x="61">
        <pitch>
          <step>C</step>
          <octave>4</octave>
        </pitch>
        <duration>1</duration>
        <voice>1</voice>
        <type>eighth</type>
        <stem default-y="7">up</stem>
        <lyric default-y="-91" number="1">
          <syllabic>end</syllabic>
          <text>er</text>
        </lyric>
        <lyric default-y="-112" number="2">
          <syllabic>single</syllabic>
          <text>us</text>
        </lyric>
        <lyric default-y="-132" number="3">
          <syllabic>single</syllabic>
          <text>do</text>
        </lyric>
      </note>
      <note default-x="61">
        <chord/>
        <pitch>
          <step>A</step>
          <octave>4</octave>
        </pitch>
        <duration>1</duration>
        <voice>1</voice>
        <type>eighth</type>
        <stem>up</stem>
      </note>
      <note default-x="96">
        <pitch>
          <step>C</step>
          <octave>4</octave>
        </pitch>
        <duration>2</duration>
        <voice>1</voice>
        <type>quarter</type>
        <stem default-y="2">up</stem>
        <lyric default-y="-91" number="1">
          <syllabic>begin</syllabic>
          <text>to</text>
        </lyric>
        <lyric default-y="-112" number="2">
          <syllabic>single</syllabic>
          <text>to</text>
        </lyric>
        <lyric default-y="-132" number="3">
          <syllabic>begin</syllabic>
          <text>ex</text>
        </lyric>
      </note>
      <note default-x="96">
        <chord/>
        <pitch>
          <step>G</step>
          <octave>4</octave>
        </pitch>
        <duration>2</duration>
        <voice>1</voice>
        <type>quarter</type>
        <stem>up</stem>
      </note>
    </measure>
    <!--=======================================================-->
    <measure number="2" width="145">
      <note default-x="19">
        <pitch>
          <step>C</step>
          <octave>4</octave>
        </pitch>
        <duration>2</duration>
        <voice>1</voice>
        <type>quarter</type>
        <stem default-y="-8">up</stem>
        <lyric default-y="-91" number="1">
          <syllabic>middle</syllabic>
          <text>geth</text>
        </lyric>
        <lyric default-y="-112" number="2">
          <syllabic>single</syllabic>
          <text>guide</text>
        </lyric>
        <lyric default-y="-132" number="3">
          <syllabic>end</syllabic>
          <text>tol</text>
        </lyric>
      </note>
      <note default-x="19">
        <chord/>
        <pitch>
          <step>E</step>
          <octave>4</octave>
        </pitch>
        <duration>2</duration>
        <voice>1</voice>
        <type>quarter</type>
        <stem>up</stem>
      </note>
      <note default-x="66">
        <pitch>
          <step>C</step>
          <octave>4</octave>
        </pitch>
        <duration>2</duration>
        <voice>1</voice>
        <type>quarter</type>
        <stem default-y="-3">up</stem>
        <lyric default-y="-91" number="1">
          <syllabic>end</syllabic>
          <text>er</text>
        </lyric>
        <lyric default-y="-112" number="2">
          <syllabic>single</syllabic>
          <text>us,</text>
        </lyric>
        <lyric default-y="-132" number="3">
          <syllabic>single</syllabic>
          <text>Thee,</text>
        </lyric>
      </note>
      <note default-x="66">
        <chord/>
        <pitch>
          <step>F</step>
          <octave>4</octave>
        </pitch>
        <duration>2</duration>
        <voice>1</voice>
        <type>quarter</type>
        <stem>up</stem>
      </note>
      <note default-x="112">
        <pitch>
          <step>C</step>
          <octave>4</octave>
        </pitch>
        <duration>2</duration>
        <voice>1</voice>
        <type>quarter</type>
        <stem default-y="2">up</stem>
        <lyric default-y="-91" number="1">
          <syllabic>single</syllabic>
          <text>to</text>
        </lyric>
        <lyric default-y="-112" number="2">
          <syllabic>single</syllabic>
          <text>our</text>
        </lyric>
        <lyric default-y="-132" number="3">
          <syllabic>single</syllabic>
          <text>Thou</text>
        </lyric>
      </note>
      <note default-x="112">
        <chord/>
        <pitch>
          <step>G</step>
          <octave>4</octave>
        </pitch>
        <duration>2</duration>
        <voice>1</voice>
        <type>quarter</type>
        <stem>up</stem>
      </note>
    </measure>
    <!--=======================================================-->
    <measure number="3" width="157">
      <note default-x="18">
        <pitch>
          <step>C</step>
          <octave>4</octave>
        </pitch>
        <duration>3</duration>
        <voice>1</voice>
        <type>quarter</type>
        <dot/>
        <stem default-y="-3">up</stem>
        <lyric default-y="-91" number="1">
          <syllabic>single</syllabic>
          <text>ask</text>
        </lyric>
        <lyric default-y="-112" number="2">
          <syllabic>single</syllabic>
          <text>God</text>
        </lyric>
        <lyric default-y="-132" number="3">
          <syllabic>begin</syllabic>
          <text>Lead</text>
        </lyric>
      </note>
      <note default-x="18">
        <chord/>
        <pitch>
          <step>F</step>
          <octave>4</octave>
        </pitch>
        <duration>3</duration>
        <voice>1</voice>
        <type>quarter</type>
        <dot/>
        <stem>up</stem>
      </note>
      <note default-x="66">
        <pitch>
          <step>C</step>
          <octave>4</octave>
        </pitch>
        <duration>1</duration>
        <voice>1</voice>
        <type>eighth</type>
        <stem default-y="-8">up</stem>
        <lyric default-y="-91" number="1">
          <syllabic>single</syllabic>
          <text>the</text>
        </lyric>
        <lyric default-y="-112" number="2">
          <syllabic>single</syllabic>
          <text>with</text>
        </lyric>
        <lyric default-y="-132" number="3">
          <syllabic>end</syllabic>
          <text>er</text>
        </lyric>
      </note>
      <note default-x="66">
        <chord/>
        <pitch>
          <step>E</step>
          <octave>4</octave>
        </pitch>
        <duration>1</duration>
        <voice>1</voice>
        <type>eighth</type>
        <stem>up</stem>
      </note>
      <note default-x="117">
        <pitch>
          <step>B</step>
          <octave>3</octave>
        </pitch>
        <duration>2</duration>
        <voice>1</voice>
        <type>quarter</type>
        <stem default-y="-13">up</stem>
        <lyric default-y="-91" number="1">
          <syllabic>single</syllabic>
          <text>Lord’s</text>
        </lyric>
        <lyric default-y="-112" number="2">
          <syllabic>single</syllabic>
          <text>us</text>
        </lyric>
        <lyric default-y="-132" number="3">
          <syllabic>begin</syllabic>
          <text>tri</text>
        </lyric>
      </note>
      <note default-x="117">
        <chord/>
        <pitch>
          <step>D</step>
          <octave>4</octave>
        </pitch>
        <duration>2</duration>
        <voice>1</voice>
        <type>quarter</type>
        <stem>up</stem>
      </note>
    </measure>
    <!--=======================================================-->
    <measure number="4" width="158">
      <note default-x="18">
        <pitch>
          <step>C</step>
          <octave>4</octave>
        </pitch>
        <duration>2</duration>
        <voice>1</voice>
        <type>quarter</type>
        <stem default-y="-8">up</stem>
        <lyric default-y="-91" number="1">
          <syllabic>begin</syllabic>
          <text>bless</text>
        </lyric>
        <lyric default-y="-112" number="2">
          <syllabic>begin</syllabic>
          <text>join</text>
        </lyric>
        <lyric default-y="-132" number="3">
          <syllabic>middle</syllabic>
          <text>um</text>
        </lyric>
      </note>
      <note default-x="18">
        <chord/>
        <pitch>
          <step>E</step>
          <octave>4</octave>
        </pitch>
        <duration>2</duration>
        <voice>1</voice>
        <type>quarter</type>
        <stem>up</stem>
      </note>
      <note default-x="74">
        <pitch>
          <step>C</step>
          <octave>4</octave>
        </pitch>
        <duration>2</duration>
        <voice>1</voice>
        <type>quarter</type>
        <stem>double</stem>
        <lyric default-y="-91" number="1">
          <syllabic>end</syllabic>
          <text>ing;</text>
        </lyric>
        <lyric default-y="-112" number="2">
          <syllabic>end</syllabic>
          <text>ing,</text>
        </lyric>
        <lyric default-y="-132" number="3">
          <syllabic>end</syllabic>
          <text>phant,</text>
        </lyric>
      </note>
      <note default-x="129">
        <pitch>
          <step>E</step>
          <octave>4</octave>
        </pitch>
        <duration>2</duration>
        <voice>1</voice>
        <type>quarter</type>
        <stem default-y="2">up</stem>
        <lyric default-y="-91" number="1">
          <syllabic>single</syllabic>
          <text>He</text>
        </lyric>
        <lyric default-y="-112" number="2">
          <syllabic>begin</syllabic>
          <text>Or</text>
        </lyric>
        <lyric default-y="-132" number="3">
          <syllabic>single</syllabic>
          <text>And</text>
        </lyric>
      </note>
      <note default-x="129">
        <chord/>
        <pitch>
          <step>G</step>
          <octave>4</octave>
        </pitch>
        <duration>2</duration>
        <voice>1</voice>
        <type>quarter</type>
        <stem>up</stem>
      </note>
    </measure>
    <!--=======================================================-->
    <measure number="5" width="151">
      <note default-x="17">
        <pitch>
          <step>D</step>
          <octave>4</octave>
        </pitch>
        <duration>3</duration>
        <voice>1</voice>
        <type>quarter</type>
        <dot/>
        <stem default-y="2">up</stem>
        <lyric default-y="-91" number="1">
          <syllabic>begin</syllabic>
          <text>chas</text>
        </lyric>
        <lyric default-y="-112" number="2">
          <syllabic>middle</syllabic>
          <text>dain</text>
        </lyric>
        <lyric default-y="-132" number="3">
          <syllabic>single</syllabic>
          <text>pray</text>
        </lyric>
      </note>
      <note default-x="17">
        <chord/>
        <pitch>
          <step>G</step>
          <octave>4</octave>
        </pitch>
        <duration>3</duration>
        <voice>1</voice>
        <type>quarter</type>
        <dot/>
        <stem>up</stem>
      </note>
      <note default-x="64">
        <pitch>
          <step>D</step>
          <octave>4</octave>
        </pitch>
        <duration>1</duration>
        <voice>1</voice>
        <type>eighth</type>
        <stem default-y="7">up</stem>
        <lyric default-y="-91" number="1">
          <syllabic>end</syllabic>
          <text>tens,</text>
        </lyric>
        <lyric default-y="-112" number="2">
          <syllabic>end</syllabic>
          <text>ing,</text>
        </lyric>
        <lyric default-y="-132" number="3">
          <syllabic>single</syllabic>
          <text>that</text>
        </lyric>
      </note>
      <note default-x="64">
        <chord/>
        <pitch>
          <step>A</step>
          <octave>4</octave>
        </pitch>
        <duration>1</duration>
        <voice>1</voice>
        <type>eighth</type>
        <stem>up</stem>
      </note>
      <note default-x="113">
        <pitch>
          <step>D</step>
          <octave>4</octave>
        </pitch>
        <duration>2</duration>
        <voice>1</voice>
        <type>quarter</type>
        <stem default-y="12">up</stem>
        <lyric default-y="-91" number="1">
          <syllabic>single</syllabic>
          <text>and</text>
        </lyric>
        <lyric default-y="-112" number="2">
          <syllabic>begin</syllabic>
          <text>main</text>
        </lyric>
        <lyric default-y="-132" number="3">
          <syllabic>single</syllabic>
          <text>Thou</text>
        </lyric>
      </note>
      <note default-x="113">
        <chord/>
        <pitch>
          <step>B</step>
          <octave>4</octave>
        </pitch>
        <duration>2</duration>
        <voice>1</voice>
        <type>quarter</type>
        <stem>up</stem>
      </note>
    </measure>
    <!--=======================================================-->
    <measure number="6" width="168">
      <print new-system="yes"/>
      <note default-x="45">
        <pitch>
          <step>C</step>
          <octave>5</octave>
        </pitch>
        <duration>3</duration>
        <voice>1</voice>
        <type>quarter</type>
        <dot/>
        <stem default-y="11">up</stem>
        <lyric default-y="-91" number="1">
          <syllabic>begin</syllabic>
          <text>has</text>
        </lyric>
        <lyric default-y="-112" number="2">
          <syllabic>middle</syllabic>
          <text>tain</text>
        </lyric>
        <lyric default-y="-132" number="3">
          <syllabic>single</syllabic>
          <text>still</text>
        </lyric>
      </note>
      <backup>
        <duration>3</duration>
      </backup>
      <note default-x="45">
        <pitch>
          <step>E</step>
          <octave>4</octave>
        </pitch>
        <duration>2</duration>
        <voice>2</voice>
        <type>quarter</type>
        <stem default-y="-66">down</stem>
      </note>
      <note default-x="82">
        <pitch>
          <step>D</step>
          <octave>4</octave>
        </pitch>
        <duration>2</duration>
        <voice>2</voice>
        <type>quarter</type>
        <stem default-y="-71">down</stem>
      </note>
      <backup>
        <duration>1</duration>
      </backup>
      <note default-x="107">
        <pitch>
          <step>D</step>
          <octave>5</octave>
        </pitch>
        <duration>1</duration>
        <voice>1</voice>
        <type>eighth</type>
        <stem default-y="22">up</stem>
        <lyric default-y="-91" number="1" relative-x="-9">
          <syllabic>end</syllabic>
          <text>tens</text>
        </lyric>
        <lyric default-y="-112" number="2" relative-x="-9">
          <syllabic>end</syllabic>
          <text>ing</text>
        </lyric>
        <lyric default-y="-132" number="3" relative-x="-9">
          <syllabic>single</syllabic>
          <text>our</text>
        </lyric>
      </note>
      <note default-x="137">
        <pitch>
          <step>D</step>
          <octave>4</octave>
        </pitch>
        <duration>2</duration>
        <voice>1</voice>
        <type>quarter</type>
        <stem default-y="12">up</stem>
        <lyric default-y="-91" number="1" relative-x="3">
          <syllabic>single</syllabic>
          <text>His</text>
        </lyric>
        <lyric default-y="-112" number="2" relative-x="3">
          <syllabic>single</syllabic>
          <text>His</text>
        </lyric>
        <lyric default-y="-132" number="3">
          <syllabic>begin</syllabic>
          <text>De</text>
        </lyric>
      </note>
      <note default-x="137">
        <chord/>
        <pitch>
          <step>B</step>
          <octave>4</octave>
        </pitch>
        <duration>2</duration>
        <voice>1</voice>
        <type>quarter</type>
        <stem>up</stem>
      </note>
    </measure>
    <!--=======================================================-->
    <measure number="7" width="139">
      <note default-x="17">
        <pitch>
          <step>E</step>
          <octave>4</octave>
        </pitch>
        <duration>3</duration>
        <voice>1</voice>
        <type>quarter</type>
        <dot/>
        <stem default-y="7">up</stem>
        <lyric default-y="-91" number="1">
          <syllabic>single</syllabic>
          <text>will</text>
        </lyric>
        <lyric default-y="-112" number="2" relative-x="-2">
          <syllabic>begin</syllabic>
          <text>king</text>
        </lyric>
        <lyric default-y="-132" number="3">
          <syllabic>middle</syllabic>
          <text>fend</text>
        </lyric>
      </note>
      <note default-x="17">
        <chord/>
        <pitch>
          <step>A</step>
          <octave>4</octave>
        </pitch>
        <duration>3</duration>
        <voice>1</voice>
        <type>quarter</type>
        <dot/>
        <stem>up</stem>
      </note>
      <note default-x="59">
        <pitch>
          <step>E</step>
          <octave>4</octave>
        </pitch>
        <duration>1</duration>
        <voice>1</voice>
        <type>eighth</type>
        <stem default-y="2">up</stem>
        <lyric default-y="-91" number="1">
          <syllabic>single</syllabic>
          <text>to</text>
        </lyric>
        <lyric default-y="-112" number="2" relative-x="5">
          <syllabic>end</syllabic>
          <text>dom</text>
        </lyric>
        <lyric default-y="-132" number="3">
          <syllabic>end</syllabic>
          <text>er</text>
        </lyric>
      </note>
      <note default-x="59">
        <chord/>
        <pitch>
          <step>G</step>
          <octave>4</octave>
        </pitch>
        <duration>1</duration>
        <voice>1</voice>
        <type>eighth</type>
        <stem>up</stem>
      </note>
      <note default-x="105">
        <pitch>
          <step>F</step>
          <alter>1</alter>
          <octave>4</octave>
        </pitch>
        <duration>2</duration>
        <voice>1</voice>
        <type>quarter</type>
        <accidental>sharp</accidental>
        <stem default-y="7">up</stem>
        <lyric default-y="-91" number="1">
          <syllabic>single</syllabic>
          <text>make</text>
        </lyric>
        <lyric default-y="-112" number="2">
          <syllabic>begin</syllabic>
          <text>di</text>
        </lyric>
        <lyric default-y="-132" number="3">
          <syllabic>single</syllabic>
          <text>wilt</text>
        </lyric>
      </note>
      <note default-x="105">
        <chord/>
        <pitch>
          <step>A</step>
          <octave>4</octave>
        </pitch>
        <duration>2</duration>
        <voice>1</voice>
        <type>quarter</type>
        <stem>up</stem>
      </note>
    </measure>
    <!--=======================================================-->
    <measure number="8" width="113">
      <note default-x="28">
        <pitch>
          <step>D</step>
          <octave>4</octave>
        </pitch>
        <duration>4</duration>
        <voice>1</voice>
        <type>half</type>
        <stem default-y="2">up</stem>
        <lyric default-y="-91" number="1">
          <syllabic>single</syllabic>
          <text>known.</text>
        </lyric>
        <lyric default-y="-112" number="2">
          <syllabic>end</syllabic>
          <text>vine.</text>
        </lyric>
        <lyric default-y="-132" number="3">
          <syllabic>single</syllabic>
          <text>be.</text>
        </lyric>
      </note>
      <note default-x="28">
        <chord/>
        <pitch>
          <step>G</step>
          <octave>4</octave>
        </pitch>
        <duration>4</duration>
        <voice>1</voice>
        <type>half</type>
        <stem>up</stem>
      </note>
      <note default-x="80">
        <pitch>
          <step>D</step>
          <octave>4</octave>
        </pitch>
        <duration>2</duration>
        <voice>1</voice>
        <type>quarter</type>
        <stem default-y="2">up</stem>
        <lyric default-y="-91" number="1">
          <syllabic>single</syllabic>
          <text>The</text>
        </lyric>
        <lyric default-y="-112" number="2">
          <syllabic>single</syllabic>
          <text>So</text>
        </lyric>
        <lyric default-y="-132" number="3">
          <syllabic>single</syllabic>
          <text>Let</text>
        </lyric>
      </note>
      <note default-x="80">
        <chord/>
        <pitch>
          <step>G</step>
          <octave>4</octave>
        </pitch>
        <duration>2</duration>
        <voice>1</voice>
        <type>quarter</type>
        <stem>up</stem>
      </note>
    </measure>
    <!--=======================================================-->
    <measure number="9" width="131">
      <note default-x="19">
        <pitch>
          <step>D</step>
          <octave>4</octave>
        </pitch>
        <duration>3</duration>
        <voice>1</voice>
        <type>quarter</type>
        <dot/>
        <stem default-y="2">up</stem>
        <lyric default-y="-91" number="1">
          <syllabic>begin</syllabic>
          <text>wick</text>
        </lyric>
        <lyric default-y="-112" number="2">
          <syllabic>single</syllabic>
          <text>from</text>
        </lyric>
        <lyric default-y="-132" number="3">
          <syllabic>single</syllabic>
          <text>Thy</text>
        </lyric>
      </note>
      <note default-x="19">
        <chord/>
        <pitch>
          <step>G</step>
          <octave>4</octave>
        </pitch>
        <duration>3</duration>
        <voice>1</voice>
        <type>quarter</type>
        <dot/>
        <stem>up</stem>
      </note>
      <note default-x="63">
        <pitch>
          <step>D</step>
          <octave>4</octave>
        </pitch>
        <duration>1</duration>
        <voice>1</voice>
        <type>eighth</type>
        <stem default-y="7">up</stem>
        <lyric default-y="-91" number="1">
          <syllabic>end</syllabic>
          <text>ed</text>
        </lyric>
        <lyric default-y="-112" number="2">
          <syllabic>single</syllabic>
          <text>the</text>
        </lyric>
        <lyric default-y="-132" number="3">
          <syllabic>begin</syllabic>
          <text>con</text>
        </lyric>
      </note>
      <note default-x="63">
        <chord/>
        <pitch>
          <step>A</step>
          <octave>4</octave>
        </pitch>
        <duration>1</duration>
        <voice>1</voice>
        <type>eighth</type>
        <stem>up</stem>
      </note>
      <note default-x="101">
        <pitch>
          <step>D</step>
          <octave>4</octave>
        </pitch>
        <duration>2</duration>
        <voice>1</voice>
        <type>quarter</type>
        <stem default-y="12">up</stem>
        <lyric default-y="-91" number="1">
          <syllabic>begin</syllabic>
          <text>op</text>
        </lyric>
        <lyric default-y="-112" number="2">
          <syllabic>begin</syllabic>
          <text>be</text>
        </lyric>
        <lyric default-y="-132" number="3" relative-x="3">
          <syllabic>middle</syllabic>
          <text>gre</text>
        </lyric>
      </note>
      <note default-x="101">
        <chord/>
        <pitch>
          <step>B</step>
          <octave>4</octave>
        </pitch>
        <duration>2</duration>
        <voice>1</voice>
        <type>quarter</type>
        <stem>up</stem>
      </note>
    </measure>
    <!--=======================================================-->
    <measure number="10" width="144">
      <note default-x="19">
        <pitch>
          <step>C</step>
          <octave>4</octave>
        </pitch>
        <duration>2</duration>
        <voice>1</voice>
        <type>quarter</type>
        <stem default-y="11">up</stem>
        <lyric default-y="-91" number="1">
          <syllabic>middle</syllabic>
          <text>press</text>
        </lyric>
        <lyric default-y="-112" number="2">
          <syllabic>middle</syllabic>
          <text>gin</text>
        </lyric>
        <lyric default-y="-132" number="3">
          <syllabic>middle</syllabic>
          <text>ga</text>
        </lyric>
      </note>
      <note default-x="19">
        <chord/>
        <pitch>
          <step>C</step>
          <octave>5</octave>
        </pitch>
        <duration>2</duration>
        <voice>1</voice>
        <type>quarter</type>
        <stem>up</stem>
      </note>
      <note default-x="68">
        <pitch>
          <step>C</step>
          <octave>4</octave>
        </pitch>
        <duration>2</duration>
        <voice>1</voice>
        <type>quarter</type>
        <stem default-y="2">up</stem>
        <lyric default-y="-91" number="1">
          <syllabic>end</syllabic>
          <text>ing</text>
        </lyric>
        <lyric default-y="-112" number="2">
          <syllabic>end</syllabic>
          <text>ning</text>
        </lyric>
        <lyric default-y="-132" number="3">
          <syllabic>end</syllabic>
          <text>tion</text>
        </lyric>
      </note>
      <note default-x="68">
        <chord/>
        <pitch>
          <step>G</step>
          <octave>4</octave>
        </pitch>
        <duration>2</duration>
        <voice>1</voice>
        <type>quarter</type>
        <stem>up</stem>
      </note>
      <note default-x="112">
        <pitch>
          <step>C</step>
          <octave>4</octave>
        </pitch>
        <duration>2</duration>
        <voice>1</voice>
        <type>quarter</type>
        <stem default-y="2">up</stem>
        <lyric default-y="-91" number="1">
          <syllabic>single</syllabic>
          <text>now</text>
        </lyric>
        <lyric default-y="-112" number="2">
          <syllabic>single</syllabic>
          <text>the</text>
        </lyric>
        <lyric default-y="-132" number="3">
          <syllabic>begin</syllabic>
          <text>es</text>
        </lyric>
      </note>
      <note default-x="112">
        <chord/>
        <pitch>
          <step>G</step>
          <octave>4</octave>
        </pitch>
        <duration>2</duration>
        <voice>1</voice>
        <type>quarter</type>
        <stem>up</stem>
      </note>
    </measure>
    <!--=======================================================-->
    <measure number="11" width="152">
      <note default-x="20">
        <pitch>
          <step>C</step>
          <octave>4</octave>
        </pitch>
        <duration>4</duration>
        <voice>1</voice>
        <type>half</type>
        <stem default-y="-72.5">down</stem>
        <lyric default-y="-91" number="1">
          <syllabic>single</syllabic>
          <text>cease</text>
        </lyric>
        <lyric default-y="-112" number="2">
          <syllabic>single</syllabic>
          <text>fight</text>
        </lyric>
        <lyric default-y="-132" number="3">
          <syllabic>end</syllabic>
          <text>cape</text>
        </lyric>
      </note>
      <backup>
        <duration>4</duration>
      </backup>
      <note default-x="20">
        <pitch>
          <step>G</step>
          <octave>4</octave>
        </pitch>
        <duration>3</duration>
        <voice>2</voice>
        <type>quarter</type>
        <dot/>
        <stem default-y="2">up</stem>
        <notations>
          <slur number="1" placement="above" type="start"/>
        </notations>
      </note>
      <note default-x="57">
        <pitch>
          <step>A</step>
          <octave>4</octave>
        </pitch>
        <duration>1</duration>
        <voice>2</voice>
        <type>eighth</type>
        <stem default-y="7">up</stem>
        <notations>
          <slur number="1" type="stop"/>
        </notations>
      </note>
      <note default-x="85">
        <pitch>
          <step>B</step>
          <octave>3</octave>
        </pitch>
        <duration>1</duration>
        <voice>1</voice>
        <type>eighth</type>
        <stem default-y="-3">up</stem>
        <lyric default-y="-91" number="1">
          <syllabic>single</syllabic>
          <text>from</text>
        </lyric>
        <lyric default-y="-112" number="2" relative-x="-6">
          <syllabic>single</syllabic>
          <text>we</text>
        </lyric>
        <lyric default-y="-132" number="3">
          <syllabic>begin</syllabic>
          <text>trib</text>
        </lyric>
      </note>
      <note default-x="85">
        <chord/>
        <pitch>
          <step>F</step>
          <octave>4</octave>
        </pitch>
        <duration>1</duration>
        <voice>1</voice>
        <type>eighth</type>
        <stem>up</stem>
      </note>
      <note default-x="117">
        <pitch>
          <step>B</step>
          <octave>3</octave>
        </pitch>
        <duration>1</duration>
        <voice>1</voice>
        <type>eighth</type>
        <stem default-y="2">up</stem>
        <lyric default-y="-91" number="1" relative-x="6">
          <syllabic>begin</syllabic>
          <text>dis</text>
        </lyric>
        <lyric default-y="-112" number="2" relative-x="3">
          <syllabic>single</syllabic>
          <text>were</text>
        </lyric>
        <lyric default-y="-132" number="3">
          <syllabic>middle</syllabic>
          <text>u</text>
        </lyric>
      </note>
      <note default-x="117">
        <chord/>
        <pitch>
          <step>G</step>
          <octave>4</octave>
        </pitch>
        <duration>1</duration>
        <voice>1</voice>
        <type>eighth</type>
        <stem>up</stem>
      </note>
    </measure>
    <!--=======================================================-->
    <measure number="12" width="218">
      <print new-system="yes"/>
      <note default-x="52">
        <pitch>
          <step>C</step>
          <octave>4</octave>
        </pitch>
        <duration>2</duration>
        <voice>1</voice>
        <type>quarter</type>
        <stem default-y="-8">up</stem>
        <lyric default-y="-97" number="1">
          <syllabic>middle</syllabic>
          <text>tress</text>
        </lyric>
        <lyric default-y="-117" number="2">
          <syllabic>begin</syllabic>
          <text>win</text>
        </lyric>
        <lyric default-y="-138" number="3">
          <syllabic>middle</syllabic>
          <text>la</text>
        </lyric>
      </note>
      <note default-x="52">
        <chord/>
        <pitch>
          <step>E</step>
          <octave>4</octave>
        </pitch>
        <duration>2</duration>
        <voice>1</voice>
        <type>quarter</type>
        <stem>up</stem>
      </note>
      <note default-x="110">
        <pitch>
          <step>C</step>
          <octave>4</octave>
        </pitch>
        <duration>2</duration>
        <voice>1</voice>
        <type>quarter</type>
        <stem>double</stem>
        <lyric default-y="-97" number="1">
          <syllabic>end</syllabic>
          <text>ing:</text>
        </lyric>
        <lyric default-y="-117" number="2">
          <syllabic>end</syllabic>
          <text>ning.</text>
        </lyric>
        <lyric default-y="-138" number="3">
          <syllabic>end</syllabic>
          <text>tion.</text>
        </lyric>
      </note>
      <note default-x="167">
        <pitch>
          <step>C</step>
          <octave>4</octave>
        </pitch>
        <duration>2</duration>
        <voice>1</voice>
        <type>quarter</type>
        <stem>double</stem>
        <lyric default-y="-97" number="1">
          <syllabic>single</syllabic>
          <text>Sing</text>
        </lyric>
        <lyric default-y="-117" number="2">
          <syllabic>single</syllabic>
          <text>Thou,</text>
        </lyric>
        <lyric default-y="-138" number="3">
          <syllabic>single</syllabic>
          <text>Thy</text>
        </lyric>
      </note>
    </measure>
    <!--=======================================================-->
    <measure number="13" width="209">
      <note default-x="24">
        <pitch>
          <step>C</step>
          <octave>4</octave>
        </pitch>
        <duration>3</duration>
        <voice>1</voice>
        <type>quarter</type>
        <dot/>
        <stem default-y="-3">up</stem>
        <lyric default-y="-97" number="1">
          <syllabic>begin</syllabic>
          <text>prais</text>
        </lyric>
        <lyric default-y="-117" number="2">
          <syllabic>single</syllabic>
          <text>Lord,</text>
        </lyric>
        <lyric default-y="-138" number="3">
          <syllabic>single</syllabic>
          <text>name</text>
        </lyric>
      </note>
      <note default-x="24">
        <chord/>
        <pitch>
          <step>F</step>
          <octave>4</octave>
        </pitch>
        <duration>3</duration>
        <voice>1</voice>
        <type>quarter</type>
        <dot/>
        <stem>up</stem>
      </note>
      <note default-x="80">
        <pitch>
          <step>C</step>
          <octave>4</octave>
        </pitch>
        <duration>1</duration>
        <voice>1</voice>
        <type>eighth</type>
        <stem default-y="2">up</stem>
        <lyric default-y="-97" number="1">
          <syllabic>end</syllabic>
          <text>es</text>
        </lyric>
        <lyric default-y="-117" number="2">
          <syllabic>single</syllabic>
          <text>wast</text>
        </lyric>
        <lyric default-y="-138" number="3">
          <syllabic>single</syllabic>
          <text>be</text>
        </lyric>
      </note>
      <note default-x="80">
        <chord/>
        <pitch>
          <step>G</step>
          <octave>4</octave>
        </pitch>
        <duration>1</duration>
        <voice>1</voice>
        <type>eighth</type>
        <stem>up</stem>
      </note>
      <note default-x="124">
        <pitch>
          <step>C</step>
          <octave>4</octave>
        </pitch>
        <duration>1</duration>
        <voice>1</voice>
        <type>eighth</type>
        <stem default-y="7">up</stem>
        <lyric default-y="-97" number="1">
          <syllabic>single</syllabic>
          <text>to</text>
        </lyric>
        <lyric default-y="-117" number="2">
          <syllabic>single</syllabic>
          <text>at</text>
        </lyric>
        <lyric default-y="-138" number="3">
          <syllabic>begin</syllabic>
          <text>ev</text>
        </lyric>
      </note>
      <note default-x="124">
        <chord/>
        <pitch>
          <step>A</step>
          <octave>4</octave>
        </pitch>
        <duration>1</duration>
        <voice>1</voice>
        <type>eighth</type>
        <stem>up</stem>
      </note>
      <note default-x="168">
        <pitch>
          <step>C</step>
          <octave>4</octave>
        </pitch>
        <duration>1</duration>
        <voice>1</voice>
        <type>eighth</type>
        <stem default-y="-3">up</stem>
        <lyric default-y="-97" number="1">
          <syllabic>single</syllabic>
          <text>His</text>
        </lyric>
        <lyric default-y="-117" number="2">
          <syllabic>single</syllabic>
          <text>our</text>
        </lyric>
        <lyric default-y="-138" number="3">
          <syllabic>end</syllabic>
          <text>er</text>
        </lyric>
      </note>
      <note default-x="168">
        <chord/>
        <pitch>
          <step>F</step>
          <octave>4</octave>
        </pitch>
        <duration>1</duration>
        <voice>1</voice>
        <type>eighth</type>
        <stem>up</stem>
      </note>
    </measure>
    <!--=======================================================-->
    <measure number="14" width="171">
      <note default-x="28">
        <pitch>
          <step>G</step>
          <octave>4</octave>
        </pitch>
        <duration>3</duration>
        <voice>1</voice>
        <type>quarter</type>
        <dot/>
        <stem default-y="2">up</stem>
        <notations>
          <slur default-y="-17" number="1" placement="above" relative-x="19" type="start"/>
        </notations>
        <lyric default-y="-97" number="1">
          <syllabic>single</syllabic>
          <text>name;</text>
        </lyric>
        <lyric default-y="-117" number="2">
          <syllabic>single</syllabic>
          <text>side:</text>
        </lyric>
        <lyric default-y="-138" number="3">
          <syllabic>single</syllabic>
          <text>praised!</text>
        </lyric>
      </note>
      <backup>
        <duration>3</duration>
      </backup>
      <note default-x="28">
        <pitch>
          <step>D</step>
          <octave>4</octave>
        </pitch>
        <duration>2</duration>
        <tie type="start"/>
        <voice>2</voice>
        <type>quarter</type>
        <stem default-y="-68.5">down</stem>
        <notations>
          <tied type="start"/>
        </notations>
      </note>
      <note default-x="72">
        <pitch>
          <step>D</step>
          <octave>4</octave>
        </pitch>
        <duration>2</duration>
        <tie type="stop"/>
        <voice>2</voice>
        <type>quarter</type>
        <stem default-y="-68.5">down</stem>
        <notations>
          <tied type="stop"/>
        </notations>
      </note>
      <backup>
        <duration>1</duration>
      </backup>
      <note default-x="92">
        <pitch>
          <step>F</step>
          <octave>4</octave>
        </pitch>
        <duration>1</duration>
        <voice>1</voice>
        <type>eighth</type>
        <stem default-y="-3">up</stem>
        <notations>
          <slur default-y="-22" number="1" type="stop"/>
        </notations>
        <lyric default-y="-97" number="1">
          <syllabic>single</syllabic>
          <text>He</text>
        </lyric>
      </note>
      <note default-x="130">
        <pitch>
          <step>C</step>
          <octave>4</octave>
        </pitch>
        <duration>2</duration>
        <voice>1</voice>
        <type>quarter</type>
        <stem default-y="-8">up</stem>
        <lyric default-y="-97" number="1">
          <syllabic>begin</syllabic>
          <text>for</text>
        </lyric>
        <lyric default-y="-117" number="2">
          <syllabic>single</syllabic>
          <text>all</text>
        </lyric>
        <lyric default-y="-138" number="3">
          <syllabic>single</syllabic>
          <text>O</text>
        </lyric>
      </note>
      <note default-x="130">
        <chord/>
        <pitch>
          <step>E</step>
          <octave>4</octave>
        </pitch>
        <duration>2</duration>
        <voice>1</voice>
        <type>quarter</type>
        <stem>up</stem>
      </note>
    </measure>
    <!--=======================================================-->
    <measure number="15" width="163">
      <note default-x="22">
        <pitch>
          <step>C</step>
          <octave>4</octave>
        </pitch>
        <duration>2</duration>
        <voice>1</voice>
        <type>quarter</type>
        <stem default-y="-3">up</stem>
        <lyric default-y="-97" number="1">
          <syllabic>end</syllabic>
          <text>gets</text>
        </lyric>
        <lyric default-y="-117" number="2">
          <syllabic>begin</syllabic>
          <text>glo</text>
        </lyric>
        <lyric default-y="-138" number="3">
          <syllabic>single</syllabic>
          <text>Lord,</text>
        </lyric>
      </note>
      <note default-x="22">
        <chord/>
        <pitch>
          <step>F</step>
          <octave>4</octave>
        </pitch>
        <duration>2</duration>
        <voice>1</voice>
        <type>quarter</type>
        <stem>up</stem>
      </note>
      <note default-x="78">
        <pitch>
          <step>B</step>
          <octave>3</octave>
        </pitch>
        <duration>3</duration>
        <voice>1</voice>
        <type>quarter</type>
        <dot/>
        <stem default-y="-13">up</stem>
        <lyric default-y="-97" number="1">
          <syllabic>single</syllabic>
          <text>not</text>
        </lyric>
        <lyric default-y="-117" number="2">
          <syllabic>end</syllabic>
          <text>ry</text>
        </lyric>
        <lyric default-y="-138" number="3">
          <syllabic>single</syllabic>
          <text>make</text>
        </lyric>
      </note>
      <note default-x="78">
        <chord/>
        <pitch>
          <step>D</step>
          <octave>4</octave>
        </pitch>
        <duration>3</duration>
        <voice>1</voice>
        <type>quarter</type>
        <dot/>
        <stem>up</stem>
      </note>
      <note default-x="127">
        <pitch>
          <step>C</step>
          <octave>4</octave>
        </pitch>
        <duration>1</duration>
        <voice>1</voice>
        <type>eighth</type>
        <stem>double</stem>
        <lyric default-y="-97" number="1">
          <syllabic>single</syllabic>
          <text>His</text>
        </lyric>
        <lyric default-y="-117" number="2">
          <syllabic>single</syllabic>
          <text>be</text>
        </lyric>
        <lyric default-y="-138" number="3">
          <syllabic>single</syllabic>
          <text>us</text>
        </lyric>
      </note>
    </measure>
    <!--=======================================================-->
    <measure number="16" width="87">
      <note default-x="27">
        <pitch>
          <step>C</step>
          <octave>4</octave>
        </pitch>
        <duration>4</duration>
        <voice>1</voice>
        <type>half</type>
        <stem>double</stem>
        <lyric default-y="-97" number="1">
          <syllabic>single</syllabic>
          <text>own.</text>
        </lyric>
        <lyric default-y="-117" number="2">
          <syllabic>single</syllabic>
          <text>Thine!</text>
        </lyric>
        <lyric default-y="-138" number="3">
          <syllabic>single</syllabic>
          <text>free!</text>
        </lyric>
      </note>
      <barline location="right">
        <bar-style>light-heavy</bar-style>
      </barline>
    </measure>
  </part>
  <!--=========================================================-->
  <part id="P2">
    <measure implicit="yes" number="0" width="107">
      <print>
        <staff-layout number="1">
          <staff-distance>117</staff-distance>
        </staff-layout>
        <measure-numbering>none</measure-numbering>
      </print>
      <attributes>
        <divisions>2</divisions>
        <key>
          <fifths>0</fifths>
          <mode>major</mode>
        </key>
        <time>
          <beats>3</beats>
          <beat-type>4</beat-type>
        </time>
        <clef>
          <sign>F</sign>
          <line>4</line>
        </clef>
      </attributes>
      <sound tempo="101"/>
      <note default-x="69">
        <pitch>
          <step>C</step>
          <octave>3</octave>
        </pitch>
        <duration>2</duration>
        <voice>1</voice>
        <type>quarter</type>
        <stem default-y="-51">down</stem>
      </note>
      <note default-x="69">
        <chord/>
        <pitch>
          <step>E</step>
          <octave>3</octave>
        </pitch>
        <duration>2</duration>
        <voice>1</voice>
        <type>quarter</type>
        <stem>down</stem>
      </note>
    </measure>
    <!--=======================================================-->
    <measure number="1" width="130">
      <note default-x="18">
        <pitch>
          <step>C</step>
          <octave>3</octave>
        </pitch>
        <duration>3</duration>
        <voice>1</voice>
        <type>quarter</type>
        <dot/>
        <stem default-y="-51">down</stem>
      </note>
      <note default-x="18">
        <chord/>
        <pitch>
          <step>E</step>
          <octave>3</octave>
        </pitch>
        <duration>3</duration>
        <voice>1</voice>
        <type>quarter</type>
        <dot/>
        <stem>down</stem>
      </note>
      <note default-x="61">
        <pitch>
          <step>C</step>
          <octave>3</octave>
        </pitch>
        <duration>1</duration>
        <voice>1</voice>
        <type>eighth</type>
        <stem default-y="-57">down</stem>
      </note>
      <note default-x="61">
        <chord/>
        <pitch>
          <step>F</step>
          <octave>3</octave>
        </pitch>
        <duration>1</duration>
        <voice>1</voice>
        <type>eighth</type>
        <stem>down</stem>
      </note>
      <note default-x="96">
        <pitch>
          <step>C</step>
          <octave>3</octave>
        </pitch>
        <duration>2</duration>
        <voice>1</voice>
        <type>quarter</type>
        <stem default-y="-51">down</stem>
      </note>
      <note default-x="96">
        <chord/>
        <pitch>
          <step>E</step>
          <octave>3</octave>
        </pitch>
        <duration>2</duration>
        <voice>1</voice>
        <type>quarter</type>
        <stem>down</stem>
      </note>
    </measure>
    <!--=======================================================-->
    <measure number="2" width="145">
      <note default-x="19">
        <pitch>
          <step>C</step>
          <octave>3</octave>
        </pitch>
        <duration>2</duration>
        <voice>1</voice>
        <type>quarter</type>
        <stem default-y="-51">down</stem>
      </note>
      <note default-x="19">
        <chord/>
        <pitch>
          <step>G</step>
          <octave>3</octave>
        </pitch>
        <duration>2</duration>
        <voice>1</voice>
        <type>quarter</type>
        <stem>down</stem>
      </note>
      <note default-x="66">
        <pitch>
          <step>D</step>
          <octave>3</octave>
        </pitch>
        <duration>2</duration>
        <voice>1</voice>
        <type>quarter</type>
        <stem default-y="-52">down</stem>
      </note>
      <note default-x="66">
        <chord/>
        <pitch>
          <step>G</step>
          <octave>3</octave>
        </pitch>
        <duration>2</duration>
        <voice>1</voice>
        <type>quarter</type>
        <stem>down</stem>
      </note>
      <note default-x="112">
        <pitch>
          <step>E</step>
          <octave>3</octave>
        </pitch>
        <duration>2</duration>
        <voice>1</voice>
        <type>quarter</type>
        <stem default-y="-47">down</stem>
      </note>
      <note default-x="112">
        <chord/>
        <pitch>
          <step>G</step>
          <octave>3</octave>
        </pitch>
        <duration>2</duration>
        <voice>1</voice>
        <type>quarter</type>
        <stem>down</stem>
      </note>
    </measure>
    <!--=======================================================-->
    <measure number="3" width="157">
      <note default-x="18">
        <pitch>
          <step>D</step>
          <octave>3</octave>
        </pitch>
        <duration>3</duration>
        <voice>1</voice>
        <type>quarter</type>
        <dot/>
        <stem default-y="-52">down</stem>
      </note>
      <note default-x="18">
        <chord/>
        <pitch>
          <step>A</step>
          <octave>3</octave>
        </pitch>
        <duration>3</duration>
        <voice>1</voice>
        <type>quarter</type>
        <dot/>
        <stem>down</stem>
      </note>
      <note default-x="66">
        <pitch>
          <step>D</step>
          <octave>3</octave>
        </pitch>
        <duration>1</duration>
        <voice>1</voice>
        <type>eighth</type>
        <stem default-y="-52">down</stem>
      </note>
      <note default-x="66">
        <chord/>
        <pitch>
          <step>A</step>
          <octave>3</octave>
        </pitch>
        <duration>1</duration>
        <voice>1</voice>
        <type>eighth</type>
        <stem>down</stem>
      </note>
      <note default-x="117">
        <pitch>
          <step>G</step>
          <octave>3</octave>
        </pitch>
        <duration>2</duration>
        <voice>1</voice>
        <type>quarter</type>
        <stem default-y="-37">down</stem>
      </note>
      <note default-x="117">
        <chord/>
        <pitch>
          <step>B</step>
          <octave>3</octave>
        </pitch>
        <duration>2</duration>
        <voice>1</voice>
        <type>quarter</type>
        <stem>down</stem>
      </note>
    </measure>
    <!--=======================================================-->
    <measure number="4" width="158">
      <note default-x="18">
        <pitch>
          <step>C</step>
          <octave>3</octave>
        </pitch>
        <duration>2</duration>
        <voice>1</voice>
        <type>quarter</type>
        <stem default-y="-51">down</stem>
      </note>
      <note default-x="18">
        <chord/>
        <pitch>
          <step>G</step>
          <octave>3</octave>
        </pitch>
        <duration>2</duration>
        <voice>1</voice>
        <type>quarter</type>
        <stem>down</stem>
      </note>
      <note default-x="74">
        <pitch>
          <step>C</step>
          <octave>3</octave>
        </pitch>
        <duration>2</duration>
        <voice>1</voice>
        <type>quarter</type>
        <stem default-y="-51">down</stem>
      </note>
      <note default-x="74">
        <chord/>
        <pitch>
          <step>E</step>
          <octave>3</octave>
        </pitch>
        <duration>2</duration>
        <voice>1</voice>
        <type>quarter</type>
        <stem>down</stem>
      </note>
      <note default-x="129">
        <pitch>
          <step>C</step>
          <octave>3</octave>
        </pitch>
        <duration>2</duration>
        <voice>1</voice>
        <type>quarter</type>
        <stem default-y="-51">down</stem>
      </note>
      <note default-x="129">
        <chord/>
        <pitch>
          <step>G</step>
          <octave>3</octave>
        </pitch>
        <duration>2</duration>
        <voice>1</voice>
        <type>quarter</type>
        <stem>down</stem>
      </note>
    </measure>
    <!--=======================================================-->
    <measure number="5" width="151">
      <note default-x="17">
        <pitch>
          <step>B</step>
          <octave>2</octave>
        </pitch>
        <duration>3</duration>
        <voice>1</voice>
        <type>quarter</type>
        <dot/>
        <stem default-y="-56">down</stem>
      </note>
      <note default-x="17">
        <chord/>
        <pitch>
          <step>G</step>
          <octave>3</octave>
        </pitch>
        <duration>3</duration>
        <voice>1</voice>
        <type>quarter</type>
        <dot/>
        <stem>down</stem>
      </note>
      <note default-x="64">
        <pitch>
          <step>B</step>
          <octave>2</octave>
        </pitch>
        <duration>1</duration>
        <voice>1</voice>
        <type>eighth</type>
        <stem default-y="-62">down</stem>
      </note>
      <note default-x="64">
        <chord/>
        <pitch>
          <step>G</step>
          <octave>3</octave>
        </pitch>
        <duration>1</duration>
        <voice>1</voice>
        <type>eighth</type>
        <stem>down</stem>
      </note>
      <note default-x="113">
        <pitch>
          <step>B</step>
          <octave>2</octave>
        </pitch>
        <duration>2</duration>
        <voice>1</voice>
        <type>quarter</type>
        <stem default-y="-56">down</stem>
      </note>
      <note default-x="113">
        <chord/>
        <pitch>
          <step>G</step>
          <octave>3</octave>
        </pitch>
        <duration>2</duration>
        <voice>1</voice>
        <type>quarter</type>
        <stem>down</stem>
      </note>
    </measure>
    <!--=======================================================-->
    <measure number="6" width="168">
      <print new-system="yes">
        <staff-layout number="1">
          <staff-distance>124</staff-distance>
        </staff-layout>
      </print>
      <note default-x="45">
        <pitch>
          <step>A</step>
          <octave>2</octave>
        </pitch>
        <duration>2</duration>
        <voice>1</voice>
        <type>quarter</type>
        <stem default-y="-61">down</stem>
      </note>
      <note default-x="45">
        <chord/>
        <pitch>
          <step>G</step>
          <octave>3</octave>
        </pitch>
        <duration>2</duration>
        <voice>1</voice>
        <type>quarter</type>
        <stem>down</stem>
      </note>
      <note default-x="82">
        <pitch>
          <step>D</step>
          <octave>3</octave>
        </pitch>
        <duration>2</duration>
        <voice>1</voice>
        <type>quarter</type>
        <stem default-y="-51.5">down</stem>
      </note>
      <note default-x="82">
        <chord/>
        <pitch>
          <step>F</step>
          <alter>1</alter>
          <octave>3</octave>
        </pitch>
        <duration>2</duration>
        <voice>1</voice>
        <type>quarter</type>
        <accidental>sharp</accidental>
        <stem>down</stem>
      </note>
      <note default-x="137">
        <pitch>
          <step>G</step>
          <octave>3</octave>
        </pitch>
        <duration>2</duration>
        <voice>1</voice>
        <type>quarter</type>
        <stem>double</stem>
      </note>
    </measure>
    <!--=======================================================-->
    <measure number="7" width="139">
      <note default-x="17">
        <pitch>
          <step>C</step>
          <octave>3</octave>
        </pitch>
        <duration>3</duration>
        <voice>1</voice>
        <type>quarter</type>
        <dot/>
        <stem default-y="-51">down</stem>
      </note>
      <note default-x="17">
        <chord/>
        <pitch>
          <step>G</step>
          <octave>3</octave>
        </pitch>
        <duration>3</duration>
        <voice>1</voice>
        <type>quarter</type>
        <dot/>
        <stem>down</stem>
      </note>
      <note default-x="59">
        <pitch>
          <step>C</step>
          <octave>3</octave>
        </pitch>
        <duration>1</duration>
        <voice>1</voice>
        <type>eighth</type>
        <stem default-y="-56.5">down</stem>
      </note>
      <note default-x="59">
        <chord/>
        <pitch>
          <step>G</step>
          <octave>3</octave>
        </pitch>
        <duration>1</duration>
        <voice>1</voice>
        <type>eighth</type>
        <stem>down</stem>
      </note>
      <note default-x="105">
        <pitch>
          <step>D</step>
          <octave>3</octave>
        </pitch>
        <duration>2</duration>
        <voice>1</voice>
        <type>quarter</type>
        <stem default-y="-51.5">down</stem>
      </note>
      <note default-x="105">
        <chord/>
        <pitch>
          <step>C</step>
          <octave>4</octave>
        </pitch>
        <duration>2</duration>
        <voice>1</voice>
        <type>quarter</type>
        <stem>down</stem>
      </note>
    </measure>
    <!--=======================================================-->
    <measure number="8" width="113">
      <note default-x="28">
        <pitch>
          <step>G</step>
          <octave>3</octave>
        </pitch>
        <duration>4</duration>
        <voice>1</voice>
        <type>half</type>
        <stem default-y="-36.5">down</stem>
      </note>
      <note default-x="28">
        <chord/>
        <pitch>
          <step>B</step>
          <octave>3</octave>
        </pitch>
        <duration>4</duration>
        <voice>1</voice>
        <type>half</type>
        <stem>down</stem>
      </note>
      <note default-x="80">
        <pitch>
          <step>G</step>
          <octave>3</octave>
        </pitch>
        <duration>2</duration>
        <voice>1</voice>
        <type>quarter</type>
        <stem default-y="-36.5">down</stem>
      </note>
      <note default-x="80">
        <chord/>
        <pitch>
          <step>B</step>
          <octave>3</octave>
        </pitch>
        <duration>2</duration>
        <voice>1</voice>
        <type>quarter</type>
        <stem>down</stem>
      </note>
    </measure>
    <!--=======================================================-->
    <measure number="9" width="131">
      <note default-x="19">
        <pitch>
          <step>F</step>
          <octave>3</octave>
        </pitch>
        <duration>3</duration>
        <voice>1</voice>
        <type>quarter</type>
        <dot/>
        <stem default-y="-41.5">down</stem>
      </note>
      <note default-x="19">
        <chord/>
        <pitch>
          <step>B</step>
          <octave>3</octave>
        </pitch>
        <duration>3</duration>
        <voice>1</voice>
        <type>quarter</type>
        <dot/>
        <stem>down</stem>
      </note>
      <note default-x="63">
        <pitch>
          <step>F</step>
          <octave>3</octave>
        </pitch>
        <duration>1</duration>
        <voice>1</voice>
        <type>eighth</type>
        <stem default-y="-41.5">down</stem>
      </note>
      <note default-x="63">
        <chord/>
        <pitch>
          <step>A</step>
          <octave>3</octave>
        </pitch>
        <duration>1</duration>
        <voice>1</voice>
        <type>eighth</type>
        <stem>down</stem>
      </note>
      <note default-x="101">
        <pitch>
          <step>G</step>
          <octave>3</octave>
        </pitch>
        <duration>2</duration>
        <voice>1</voice>
        <type>quarter</type>
        <stem default-y="19">up</stem>
      </note>
      <backup>
        <duration>2</duration>
      </backup>
      <note default-x="109">
        <pitch>
          <step>F</step>
          <octave>3</octave>
        </pitch>
        <duration>2</duration>
        <voice>2</voice>
        <type>quarter</type>
        <stem default-y="-41.5">down</stem>
      </note>
    </measure>
    <!--=======================================================-->
    <measure number="10" width="144">
      <note default-x="19">
        <pitch>
          <step>E</step>
          <octave>3</octave>
        </pitch>
        <duration>2</duration>
        <voice>1</voice>
        <type>quarter</type>
        <stem default-y="-46.5">down</stem>
      </note>
      <note default-x="19">
        <chord/>
        <pitch>
          <step>G</step>
          <octave>3</octave>
        </pitch>
        <duration>2</duration>
        <voice>1</voice>
        <type>quarter</type>
        <stem>down</stem>
      </note>
      <note default-x="68">
        <pitch>
          <step>E</step>
          <octave>3</octave>
        </pitch>
        <duration>2</duration>
        <voice>1</voice>
        <type>quarter</type>
        <stem default-y="-46.5">down</stem>
      </note>
      <note default-x="68">
        <chord/>
        <pitch>
          <step>G</step>
          <octave>3</octave>
        </pitch>
        <duration>2</duration>
        <voice>1</voice>
        <type>quarter</type>
        <stem>down</stem>
      </note>
      <note default-x="112">
        <pitch>
          <step>E</step>
          <octave>3</octave>
        </pitch>
        <duration>2</duration>
        <voice>1</voice>
        <type>quarter</type>
        <stem default-y="-46.5">down</stem>
      </note>
      <note default-x="112">
        <chord/>
        <pitch>
          <step>G</step>
          <octave>3</octave>
        </pitch>
        <duration>2</duration>
        <voice>1</voice>
        <type>quarter</type>
        <stem>down</stem>
      </note>
    </measure>
    <!--=======================================================-->
    <measure number="11" width="152">
      <note default-x="20">
        <pitch>
          <step>D</step>
          <octave>3</octave>
        </pitch>
        <duration>4</duration>
        <voice>1</voice>
        <type>half</type>
        <stem default-y="-51.5">down</stem>
      </note>
      <note default-x="20">
        <chord/>
        <pitch>
          <step>A</step>
          <octave>3</octave>
        </pitch>
        <duration>4</duration>
        <voice>1</voice>
        <type>half</type>
        <stem>down</stem>
      </note>
      <note default-x="85">
        <pitch>
          <step>G</step>
          <octave>3</octave>
        </pitch>
        <duration>1</duration>
        <voice>1</voice>
        <type>eighth</type>
        <stem>double</stem>
      </note>
      <note default-x="117">
        <pitch>
          <step>G</step>
          <octave>3</octave>
        </pitch>
        <duration>1</duration>
        <voice>1</voice>
        <type>eighth</type>
        <stem>double</stem>
      </note>
    </measure>
    <!--=======================================================-->
    <measure number="12" width="218">
      <print new-system="yes">
        <staff-layout number="1">
          <staff-distance>128</staff-distance>
        </staff-layout>
      </print>
      <note default-x="52">
        <pitch>
          <step>C</step>
          <octave>3</octave>
        </pitch>
        <duration>2</duration>
        <voice>1</voice>
        <type>quarter</type>
        <stem default-y="-51">down</stem>
      </note>
      <note default-x="52">
        <chord/>
        <pitch>
          <step>G</step>
          <octave>3</octave>
        </pitch>
        <duration>2</duration>
        <voice>1</voice>
        <type>quarter</type>
        <stem>down</stem>
      </note>
      <note default-x="110">
        <pitch>
          <step>C</step>
          <octave>3</octave>
        </pitch>
        <duration>2</duration>
        <voice>1</voice>
        <type>quarter</type>
        <stem default-y="-51">down</stem>
      </note>
      <note default-x="110">
        <chord/>
        <pitch>
          <step>E</step>
          <octave>3</octave>
        </pitch>
        <duration>2</duration>
        <voice>1</voice>
        <type>quarter</type>
        <stem>down</stem>
      </note>
      <note default-x="167">
        <pitch>
          <step>C</step>
          <octave>3</octave>
        </pitch>
        <duration>2</duration>
        <voice>1</voice>
        <type>quarter</type>
        <stem default-y="-51">down</stem>
      </note>
      <note default-x="167">
        <chord/>
        <pitch>
          <step>E</step>
          <octave>3</octave>
        </pitch>
        <duration>2</duration>
        <voice>1</voice>
        <type>quarter</type>
        <stem>down</stem>
      </note>
    </measure>
    <!--=======================================================-->
    <measure number="13" width="209">
      <note default-x="24">
        <pitch>
          <step>A</step>
          <octave>2</octave>
        </pitch>
        <duration>3</duration>
        <voice>1</voice>
        <type>quarter</type>
        <dot/>
        <stem default-y="17">up</stem>
      </note>
      <note default-x="24">
        <chord/>
        <pitch>
          <step>F</step>
          <octave>3</octave>
        </pitch>
        <duration>3</duration>
        <voice>1</voice>
        <type>quarter</type>
        <dot/>
        <stem>up</stem>
      </note>
      <note default-x="80">
        <pitch>
          <step>G</step>
          <octave>2</octave>
        </pitch>
        <duration>1</duration>
        <voice>1</voice>
        <type>eighth</type>
        <stem default-y="17">up</stem>
      </note>
      <note default-x="80">
        <chord/>
        <pitch>
          <step>E</step>
          <octave>3</octave>
        </pitch>
        <duration>1</duration>
        <voice>1</voice>
        <type>eighth</type>
        <stem>up</stem>
      </note>
      <note default-x="124">
        <pitch>
          <step>F</step>
          <octave>2</octave>
        </pitch>
        <duration>1</duration>
        <voice>1</voice>
        <type>eighth</type>
        <stem default-y="22">up</stem>
      </note>
      <note default-x="124">
        <chord/>
        <pitch>
          <step>F</step>
          <octave>3</octave>
        </pitch>
        <duration>1</duration>
        <voice>1</voice>
        <type>eighth</type>
        <stem>up</stem>
      </note>
      <note default-x="168">
        <pitch>
          <step>A</step>
          <octave>2</octave>
        </pitch>
        <duration>1</duration>
        <voice>1</voice>
        <type>eighth</type>
        <stem default-y="22">up</stem>
      </note>
      <note default-x="168">
        <chord/>
        <pitch>
          <step>F</step>
          <octave>3</octave>
        </pitch>
        <duration>1</duration>
        <voice>1</voice>
        <type>eighth</type>
        <stem>up</stem>
      </note>
    </measure>
    <!--=======================================================-->
    <measure number="14" width="171">
      <note default-x="28">
        <pitch>
          <step>B</step>
          <octave>2</octave>
        </pitch>
        <duration>2</duration>
        <tie type="start"/>
        <voice>1</voice>
        <type>quarter</type>
        <stem default-y="12">up</stem>
        <notations>
          <tied type="start"/>
          <slur default-y="-10" number="1" placement="above" relative-x="16" type="start"/>
        </notations>
      </note>
      <note default-x="28">
        <chord/>
        <pitch>
          <step>D</step>
          <octave>3</octave>
        </pitch>
        <duration>2</duration>
        <voice>1</voice>
        <type>quarter</type>
        <stem>up</stem>
      </note>
      <note default-x="72">
        <pitch>
          <step>B</step>
          <octave>2</octave>
        </pitch>
        <duration>2</duration>
        <tie type="stop"/>
        <voice>1</voice>
        <type>quarter</type>
        <stem default-y="-56">down</stem>
        <notations>
          <tied type="stop"/>
          <slur default-y="-2" number="1" type="stop"/>
        </notations>
      </note>
      <note default-x="72">
        <chord/>
        <pitch>
          <step>G</step>
          <octave>3</octave>
        </pitch>
        <duration>2</duration>
        <voice>1</voice>
        <type>quarter</type>
        <stem>down</stem>
      </note>
      <note default-x="130">
        <pitch>
          <step>C</step>
          <octave>3</octave>
        </pitch>
        <duration>2</duration>
        <voice>1</voice>
        <type>quarter</type>
        <stem default-y="-51">down</stem>
      </note>
      <note default-x="130">
        <chord/>
        <pitch>
          <step>G</step>
          <octave>3</octave>
        </pitch>
        <duration>2</duration>
        <voice>1</voice>
        <type>quarter</type>
        <stem>down</stem>
      </note>
    </measure>
    <!--=======================================================-->
    <measure number="15" width="163">
      <note default-x="22">
        <pitch>
          <step>D</step>
          <octave>3</octave>
        </pitch>
        <duration>2</duration>
        <voice>1</voice>
        <type>quarter</type>
        <stem default-y="-52">down</stem>
      </note>
      <note default-x="22">
        <chord/>
        <pitch>
          <step>F</step>
          <octave>3</octave>
        </pitch>
        <duration>2</duration>
        <voice>1</voice>
        <type>quarter</type>
        <stem>down</stem>
      </note>
      <note default-x="78">
        <pitch>
          <step>G</step>
          <octave>2</octave>
        </pitch>
        <duration>3</duration>
        <voice>1</voice>
        <type>quarter</type>
        <dot/>
        <stem default-y="17">up</stem>
      </note>
      <note default-x="78">
        <chord/>
        <pitch>
          <step>F</step>
          <octave>3</octave>
        </pitch>
        <duration>3</duration>
        <voice>1</voice>
        <type>quarter</type>
        <dot/>
        <stem>up</stem>
      </note>
      <note default-x="127">
        <pitch>
          <step>C</step>
          <octave>3</octave>
        </pitch>
        <duration>1</duration>
        <voice>1</voice>
        <type>eighth</type>
        <stem default-y="-57">down</stem>
      </note>
      <note default-x="127">
        <chord/>
        <pitch>
          <step>E</step>
          <octave>3</octave>
        </pitch>
        <duration>1</duration>
        <voice>1</voice>
        <type>eighth</type>
        <stem>down</stem>
      </note>
    </measure>
    <!--=======================================================-->
    <measure number="16" width="87">
      <note default-x="27">
        <pitch>
          <step>C</step>
          <octave>3</octave>
        </pitch>
        <duration>4</duration>
        <voice>1</voice>
        <type>half</type>
        <stem default-y="-51">down</stem>
      </note>
      <note default-x="27">
        <chord/>
        <pitch>
          <step>E</step>
          <octave>3</octave>
        </pitch>
        <duration>4</duration>
        <voice>1</voice>
        <type>half</type>
        <stem>down</stem>
      </note>
      <barline location="right">
        <bar-style>light-heavy</bar-style>
      </barline>
    </measure>
  </part>
  <!--=========================================================-->
</score-partwise>
