<?xml version="1.0" encoding="UTF-8" standalone="no"?>
<!DOCTYPE score-partwise PUBLIC "-//Recordare//DTD MusicXML 3.1 Partwise//EN" "http://www.musicxml.org/dtds/partwise.dtd">
<score-partwise version="3.1">
  <identification>
    <encoding>
      <software>Finale v25 for Windows</software>
      <encoding-date>2020-07-08</encoding-date>
      <supports attribute="new-system" element="print" type="yes" value="yes"/>
      <supports attribute="new-page" element="print" type="yes" value="yes"/>
      <supports element="accidental" type="yes"/>
      <supports element="beam" type="yes"/>
      <supports element="stem" type="yes"/>
    </encoding>
  </identification>
  <defaults>
    <scaling>
      <millimeters>6.35</millimeters>
      <tenths>40</tenths>
    </scaling>
    <page-layout>
      <page-height>1380</page-height>
      <page-width>852</page-width>
      <page-margins type="both">
        <left-margin>0</left-margin>
        <right-margin>0</right-margin>
        <top-margin>0</top-margin>
        <bottom-margin>451</bottom-margin>
      </page-margins>
    </page-layout>
    <system-layout>
      <system-margins>
        <left-margin>5</left-margin>
        <right-margin>0</right-margin>
      </system-margins>
      <system-distance>54</system-distance>
      <top-system-distance>54</top-system-distance>
    </system-layout>
    <staff-layout>
      <staff-distance>108</staff-distance>
    </staff-layout>
    <appearance>
      <line-width type="stem">0.8333</line-width>
      <line-width type="beam">4.1667</line-width>
      <line-width type="staff">0.7096</line-width>
      <line-width type="light barline">0.8333</line-width>
      <line-width type="heavy barline">5</line-width>
      <line-width type="leger">0.7292</line-width>
      <line-width type="ending">0.7682</line-width>
      <line-width type="wedge">0.8333</line-width>
      <line-width type="enclosure">0.8333</line-width>
      <line-width type="tuplet bracket">0.7292</line-width>
      <note-size type="grace">55</note-size>
      <note-size type="cue">55</note-size>
      <distance type="hyphen">83</distance>
      <distance type="beam">8</distance>
    </appearance>
    <music-font font-family="Petrucci2" font-size="18"/>
    <word-font font-family="Palatino Linotype" font-size="9"/>
    <lyric-font font-family="Palatino Linotype" font-size="9" name="verse"/>
    <lyric-font font-family="Palatino Linotype" font-size="9" name="chorus"/>
    <lyric-font font-family="Palatino Linotype" font-size="9" name="section"/>
  </defaults>
  <credit page="1">
    <credit-words default-y="451" font-size="7.5" valign="bottom">Music: Ben Zornes, 2015 </credit-words>
    <credit-words font-size="6">©</credit-words>
    <credit-words font-size="7.5" xml:space="preserve">
Text: Edith G. Cherry, 1895 </credit-words>
  </credit>
  <credit page="1">
    <credit-words default-x="852" default-y="451" font-size="7.5" justify="right" valign="bottom" xml:space="preserve">AUCA
10 10. 10 10.</credit-words>
  </credit>
  <part-list>
    <part-group number="1" type="start">
      <group-symbol default-x="-2">line</group-symbol>
      <group-barline>no</group-barline>
    </part-group>
    <score-part id="P1">
      <part-name print-object="no">MusicXML Part</part-name>
      <score-instrument id="P1-I2">
        <instrument-name>SmartMusic SoftSynth</instrument-name>
        <virtual-instrument/>
      </score-instrument>
      <midi-device>SmartMusic SoftSynth</midi-device>
      <midi-instrument id="P1-I2">
        <midi-channel>1</midi-channel>
        <midi-program>58</midi-program>
        <volume>80</volume>
        <pan>0</pan>
      </midi-instrument>
    </score-part>
    <score-part id="P2">
      <part-name print-object="no">MusicXML Part</part-name>
      <score-instrument id="P2-I1">
        <instrument-name>SmartMusic SoftSynth</instrument-name>
        <virtual-instrument/>
      </score-instrument>
      <midi-device>SmartMusic SoftSynth</midi-device>
      <midi-instrument id="P2-I1">
        <midi-channel>2</midi-channel>
        <midi-program>58</midi-program>
        <volume>80</volume>
        <pan>0</pan>
      </midi-instrument>
    </score-part>
    <part-group number="1" type="stop"/>
  </part-list>
  <!--=========================================================-->
  <part id="P1">
    <measure implicit="yes" number="0" width="237">
      <print>
        <system-layout>
          <top-system-distance>75</top-system-distance>
        </system-layout>
        <measure-numbering>system</measure-numbering>
      </print>
      <attributes>
        <divisions>4</divisions>
        <key>
          <fifths>2</fifths>
          <mode>major</mode>
        </key>
        <time>
          <beats>4</beats>
          <beat-type>4</beat-type>
        </time>
        <clef>
          <sign>G</sign>
          <line>2</line>
        </clef>
      </attributes>
      <sound tempo="71"/>
      <note default-x="97">
        <pitch>
          <step>B</step>
          <octave>3</octave>
        </pitch>
        <duration>2</duration>
        <voice>1</voice>
        <type>eighth</type>
        <stem default-y="-13">up</stem>
        <lyric default-y="-82" name="verse" number="1" relative-x="-5">
          <syllabic>single</syllabic>
          <text>1.</text>
          <elision> </elision>
          <syllabic>single</syllabic>
          <text>We</text>
        </lyric>
        <lyric default-y="-103" name="verse" number="2" relative-x="-5">
          <syllabic>single</syllabic>
          <text>2.</text>
          <elision> </elision>
          <syllabic>single</syllabic>
          <text>Yes,</text>
        </lyric>
        <lyric default-y="-124" name="verse" number="3" relative-x="-5">
          <syllabic>single</syllabic>
          <text>3.</text>
          <elision> </elision>
          <syllabic>single</syllabic>
          <text>We</text>
        </lyric>
        <lyric default-y="-145" name="verse" number="4" relative-x="-5">
          <syllabic>single</syllabic>
          <text>4.</text>
          <elision> </elision>
          <syllabic>single</syllabic>
          <text>We</text>
        </lyric>
      </note>
      <note default-x="97">
        <chord/>
        <pitch>
          <step>D</step>
          <octave>4</octave>
        </pitch>
        <duration>2</duration>
        <voice>1</voice>
        <type>eighth</type>
        <stem>up</stem>
      </note>
      <note default-x="150">
        <pitch>
          <step>B</step>
          <octave>3</octave>
        </pitch>
        <duration>2</duration>
        <voice>1</voice>
        <type>eighth</type>
        <stem default-y="-13">up</stem>
        <lyric default-y="-82" name="verse" number="1">
          <syllabic>single</syllabic>
          <text>rest</text>
        </lyric>
        <lyric default-y="-103" name="verse" number="2">
          <syllabic>single</syllabic>
          <text>in</text>
        </lyric>
        <lyric default-y="-124" name="verse" number="3">
          <syllabic>single</syllabic>
          <text>go</text>
        </lyric>
        <lyric default-y="-145" name="verse" number="4">
          <syllabic>single</syllabic>
          <text>rest</text>
        </lyric>
      </note>
      <note default-x="150">
        <chord/>
        <pitch>
          <step>D</step>
          <octave>4</octave>
        </pitch>
        <duration>2</duration>
        <voice>1</voice>
        <type>eighth</type>
        <stem>up</stem>
      </note>
      <note default-x="197">
        <pitch>
          <step>A</step>
          <octave>3</octave>
        </pitch>
        <duration>2</duration>
        <voice>1</voice>
        <type>eighth</type>
        <stem default-y="-8">up</stem>
        <lyric default-y="-82" name="verse" number="1">
          <syllabic>single</syllabic>
          <text>on</text>
        </lyric>
        <lyric default-y="-103" name="verse" number="2">
          <syllabic>single</syllabic>
          <text>Thy</text>
        </lyric>
        <lyric default-y="-124" name="verse" number="3">
          <syllabic>single</syllabic>
          <text>in</text>
        </lyric>
        <lyric default-y="-145" name="verse" number="4">
          <syllabic>single</syllabic>
          <text>on</text>
        </lyric>
      </note>
      <note default-x="197">
        <chord/>
        <pitch>
          <step>E</step>
          <octave>4</octave>
        </pitch>
        <duration>2</duration>
        <voice>1</voice>
        <type>eighth</type>
        <stem>up</stem>
      </note>
    </measure>
    <!--=======================================================-->
    <measure number="1" width="334">
      <note default-x="22">
        <pitch>
          <step>D</step>
          <octave>4</octave>
        </pitch>
        <duration>6</duration>
        <voice>1</voice>
        <type>quarter</type>
        <dot/>
        <stem default-y="-3">up</stem>
        <lyric default-y="-82" name="verse" number="1">
          <syllabic>single</syllabic>
          <text>Thee,</text>
        </lyric>
        <lyric default-y="-103" name="verse" number="2">
          <syllabic>single</syllabic>
          <text>name,</text>
        </lyric>
        <lyric default-y="-124" name="verse" number="3">
          <syllabic>single</syllabic>
          <text>faith,</text>
        </lyric>
        <lyric default-y="-145" name="verse" number="4">
          <syllabic>single</syllabic>
          <text>Thee,</text>
        </lyric>
      </note>
      <note default-x="22">
        <chord/>
        <pitch>
          <step>F</step>
          <alter>1</alter>
          <octave>4</octave>
        </pitch>
        <duration>6</duration>
        <voice>1</voice>
        <type>quarter</type>
        <dot/>
        <stem>up</stem>
      </note>
      <note default-x="71">
        <pitch>
          <step>D</step>
          <octave>4</octave>
        </pitch>
        <duration>2</duration>
        <voice>1</voice>
        <type>eighth</type>
        <stem default-y="7">up</stem>
        <lyric default-y="-82" name="verse" number="1">
          <syllabic>single</syllabic>
          <text>our</text>
        </lyric>
        <lyric default-y="-103" name="verse" number="2">
          <syllabic>single</syllabic>
          <text>O</text>
        </lyric>
        <lyric default-y="-124" name="verse" number="3">
          <syllabic>single</syllabic>
          <text>our</text>
        </lyric>
        <lyric default-y="-145" name="verse" number="4">
          <syllabic>single</syllabic>
          <text>our</text>
        </lyric>
      </note>
      <note default-x="71">
        <chord/>
        <pitch>
          <step>A</step>
          <octave>4</octave>
        </pitch>
        <duration>2</duration>
        <voice>1</voice>
        <type>eighth</type>
        <stem>up</stem>
      </note>
      <note default-x="123">
        <pitch>
          <step>D</step>
          <octave>4</octave>
        </pitch>
        <duration>3</duration>
        <voice>1</voice>
        <type>eighth</type>
        <dot/>
        <stem default-y="12">up</stem>
        <lyric default-y="-82" name="verse" number="1">
          <syllabic>single</syllabic>
          <text>Shield</text>
        </lyric>
        <lyric default-y="-103" name="verse" number="2">
          <syllabic>begin</syllabic>
          <text>Cap</text>
        </lyric>
        <lyric default-y="-124" name="verse" number="3">
          <syllabic>single</syllabic>
          <text>own</text>
        </lyric>
        <lyric default-y="-145" name="verse" number="4">
          <syllabic>single</syllabic>
          <text>Shield</text>
        </lyric>
      </note>
      <note default-x="123">
        <chord/>
        <pitch>
          <step>B</step>
          <octave>4</octave>
        </pitch>
        <duration>3</duration>
        <voice>1</voice>
        <type>eighth</type>
        <dot/>
        <stem>up</stem>
      </note>
      <note default-x="185">
        <pitch>
          <step>D</step>
          <octave>4</octave>
        </pitch>
        <duration>1</duration>
        <voice>1</voice>
        <type>16th</type>
        <stem default-y="17">up</stem>
        <lyric default-y="-82" name="verse" number="1">
          <syllabic>single</syllabic>
          <text>and</text>
        </lyric>
        <lyric default-y="-103" name="verse" number="2">
          <syllabic>end</syllabic>
          <text>tain</text>
        </lyric>
        <lyric default-y="-124" name="verse" number="3">
          <syllabic>single</syllabic>
          <text>great</text>
        </lyric>
        <lyric default-y="-145" name="verse" number="4">
          <syllabic>single</syllabic>
          <text>and</text>
        </lyric>
      </note>
      <note default-x="185">
        <chord/>
        <pitch>
          <step>A</step>
          <octave>4</octave>
        </pitch>
        <duration>1</duration>
        <voice>1</voice>
        <type>16th</type>
        <stem>up</stem>
      </note>
      <note default-x="235">
        <pitch>
          <step>D</step>
          <octave>4</octave>
        </pitch>
        <duration>3</duration>
        <voice>1</voice>
        <type>eighth</type>
        <dot/>
        <stem default-y="7">up</stem>
        <lyric default-y="-82" name="verse" number="1">
          <syllabic>single</syllabic>
          <text>our</text>
        </lyric>
        <lyric default-y="-103" name="verse" number="2">
          <syllabic>single</syllabic>
          <text>of</text>
        </lyric>
        <lyric default-y="-124" name="verse" number="3">
          <syllabic>begin</syllabic>
          <text>weak</text>
        </lyric>
        <lyric default-y="-145" name="verse" number="4">
          <syllabic>single</syllabic>
          <text>our</text>
        </lyric>
      </note>
      <note default-x="235">
        <chord/>
        <pitch>
          <step>A</step>
          <octave>4</octave>
        </pitch>
        <duration>3</duration>
        <voice>1</voice>
        <type>eighth</type>
        <dot/>
        <stem>up</stem>
      </note>
      <note default-x="289">
        <pitch>
          <step>D</step>
          <octave>4</octave>
        </pitch>
        <duration>1</duration>
        <voice>1</voice>
        <type>16th</type>
        <stem default-y="7">up</stem>
        <lyric default-y="-82" name="verse" number="1">
          <syllabic>begin</syllabic>
          <text>De</text>
        </lyric>
        <lyric default-y="-103" name="verse" number="2">
          <syllabic>begin</syllabic>
          <text>sal</text>
        </lyric>
        <lyric default-y="-124" name="verse" number="3">
          <syllabic>end</syllabic>
          <text>ness</text>
        </lyric>
        <lyric default-y="-145" name="verse" number="4">
          <syllabic>begin</syllabic>
          <text>De</text>
        </lyric>
      </note>
      <note default-x="289">
        <chord/>
        <pitch>
          <step>F</step>
          <alter>1</alter>
          <octave>4</octave>
        </pitch>
        <duration>1</duration>
        <voice>1</voice>
        <type>16th</type>
        <stem>up</stem>
      </note>
    </measure>
    <!--=======================================================-->
    <measure number="2" width="277">
      <note default-x="16">
        <pitch>
          <step>D</step>
          <octave>4</octave>
        </pitch>
        <duration>2</duration>
        <voice>1</voice>
        <type>eighth</type>
        <stem default-y="-3">up</stem>
        <lyric default-y="-82" name="verse" number="1">
          <syllabic>middle</syllabic>
          <text>fend</text>
        </lyric>
        <lyric default-y="-103" name="verse" number="2">
          <syllabic>middle</syllabic>
          <text>va</text>
        </lyric>
        <lyric default-y="-124" name="verse" number="3">
          <syllabic>begin</syllabic>
          <text>feel</text>
        </lyric>
        <lyric default-y="-145" name="verse" number="4">
          <syllabic>middle</syllabic>
          <text>fend</text>
        </lyric>
      </note>
      <note default-x="16">
        <chord/>
        <pitch>
          <step>F</step>
          <alter>1</alter>
          <octave>4</octave>
        </pitch>
        <duration>2</duration>
        <voice>1</voice>
        <type>eighth</type>
        <stem>up</stem>
      </note>
      <note default-x="67">
        <pitch>
          <step>C</step>
          <alter>1</alter>
          <octave>4</octave>
        </pitch>
        <duration>6</duration>
        <voice>1</voice>
        <type>quarter</type>
        <dot/>
        <stem default-y="-8">up</stem>
        <lyric default-y="-82" name="verse" number="1">
          <syllabic>end</syllabic>
          <text>er!</text>
        </lyric>
        <lyric default-y="-103" name="verse" number="2">
          <syllabic>end</syllabic>
          <text>tion!</text>
        </lyric>
        <lyric default-y="-124" name="verse" number="3">
          <syllabic>end</syllabic>
          <text>ing,</text>
        </lyric>
        <lyric default-y="-145" name="verse" number="4">
          <syllabic>end</syllabic>
          <text>er!</text>
        </lyric>
      </note>
      <note default-x="67">
        <chord/>
        <pitch>
          <step>E</step>
          <octave>4</octave>
        </pitch>
        <duration>6</duration>
        <voice>1</voice>
        <type>quarter</type>
        <dot/>
        <stem>up</stem>
      </note>
      <note default-x="106">
        <rest/>
        <duration>2</duration>
        <voice>1</voice>
        <type>eighth</type>
      </note>
      <note default-x="145">
        <pitch>
          <step>B</step>
          <octave>3</octave>
        </pitch>
        <duration>2</duration>
        <voice>1</voice>
        <type>eighth</type>
        <stem default-y="-13">up</stem>
        <lyric default-y="-82" name="verse" number="1" relative-x="6">
          <syllabic>single</syllabic>
          <text>We</text>
        </lyric>
        <lyric default-y="-103" name="verse" number="2" relative-x="6">
          <syllabic>single</syllabic>
          <text>In</text>
        </lyric>
        <lyric default-y="-124" name="verse" number="3" relative-x="6">
          <syllabic>single</syllabic>
          <text>And</text>
        </lyric>
        <lyric default-y="-145" name="verse" number="4" relative-x="6">
          <syllabic>single</syllabic>
          <text>Thine</text>
        </lyric>
      </note>
      <note default-x="145">
        <chord/>
        <pitch>
          <step>D</step>
          <octave>4</octave>
        </pitch>
        <duration>2</duration>
        <voice>1</voice>
        <type>eighth</type>
        <stem>up</stem>
      </note>
      <note default-x="195">
        <pitch>
          <step>B</step>
          <octave>3</octave>
        </pitch>
        <duration>2</duration>
        <voice>1</voice>
        <type>eighth</type>
        <stem default-y="-13">up</stem>
        <lyric default-y="-82" name="verse" number="1">
          <syllabic>single</syllabic>
          <text>go</text>
        </lyric>
        <lyric default-y="-103" name="verse" number="2">
          <syllabic>single</syllabic>
          <text>Thy</text>
        </lyric>
        <lyric default-y="-124" name="verse" number="3">
          <syllabic>begin</syllabic>
          <text>need</text>
        </lyric>
        <lyric default-y="-145" name="verse" number="4">
          <syllabic>single</syllabic>
          <text>is</text>
        </lyric>
      </note>
      <note default-x="195">
        <chord/>
        <pitch>
          <step>D</step>
          <octave>4</octave>
        </pitch>
        <duration>2</duration>
        <voice>1</voice>
        <type>eighth</type>
        <stem>up</stem>
      </note>
      <note default-x="240">
        <pitch>
          <step>A</step>
          <octave>3</octave>
        </pitch>
        <duration>2</duration>
        <voice>1</voice>
        <type>eighth</type>
        <stem default-y="-8">up</stem>
        <lyric default-y="-82" name="verse" number="1">
          <syllabic>single</syllabic>
          <text>not</text>
        </lyric>
        <lyric default-y="-103" name="verse" number="2">
          <syllabic>single</syllabic>
          <text>dear</text>
        </lyric>
        <lyric default-y="-124" name="verse" number="3">
          <syllabic>end</syllabic>
          <text>ing</text>
        </lyric>
        <lyric default-y="-145" name="verse" number="4">
          <syllabic>single</syllabic>
          <text>the</text>
        </lyric>
      </note>
      <note default-x="240">
        <chord/>
        <pitch>
          <step>E</step>
          <octave>4</octave>
        </pitch>
        <duration>2</duration>
        <voice>1</voice>
        <type>eighth</type>
        <stem>up</stem>
      </note>
    </measure>
    <!--=======================================================-->
    <measure number="3" width="381">
      <print new-system="yes"/>
      <note default-x="80">
        <pitch>
          <step>D</step>
          <octave>4</octave>
        </pitch>
        <duration>6</duration>
        <voice>1</voice>
        <type>quarter</type>
        <dot/>
        <stem default-y="-3">up</stem>
        <lyric default-y="-82" name="verse" number="1">
          <syllabic>single</syllabic>
          <text>forth</text>
        </lyric>
        <lyric default-y="-103" name="verse" number="2">
          <syllabic>single</syllabic>
          <text>name,</text>
        </lyric>
        <lyric default-y="-124" name="verse" number="3">
          <syllabic>single</syllabic>
          <text>more</text>
        </lyric>
        <lyric default-y="-145" name="verse" number="4">
          <syllabic>begin</syllabic>
          <text>bat</text>
        </lyric>
      </note>
      <note default-x="80">
        <chord/>
        <pitch>
          <step>F</step>
          <alter>1</alter>
          <octave>4</octave>
        </pitch>
        <duration>6</duration>
        <voice>1</voice>
        <type>quarter</type>
        <dot/>
        <stem>up</stem>
      </note>
      <note default-x="132">
        <pitch>
          <step>D</step>
          <octave>4</octave>
        </pitch>
        <duration>2</duration>
        <voice>1</voice>
        <type>eighth</type>
        <stem default-y="7">up</stem>
        <lyric default-y="-82" name="verse" number="1">
          <syllabic>begin</syllabic>
          <text>a</text>
        </lyric>
        <lyric default-y="-103" name="verse" number="2">
          <syllabic>single</syllabic>
          <text>all</text>
        </lyric>
        <lyric default-y="-124" name="verse" number="3">
          <syllabic>single</syllabic>
          <text>each</text>
        </lyric>
        <lyric default-y="-145" name="verse" number="4">
          <syllabic>end</syllabic>
          <text>tle,</text>
        </lyric>
      </note>
      <note default-x="132">
        <chord/>
        <pitch>
          <step>A</step>
          <octave>4</octave>
        </pitch>
        <duration>2</duration>
        <voice>1</voice>
        <type>eighth</type>
        <stem>up</stem>
      </note>
      <note default-x="184">
        <pitch>
          <step>D</step>
          <octave>4</octave>
        </pitch>
        <duration>3</duration>
        <voice>1</voice>
        <type>eighth</type>
        <dot/>
        <stem default-y="12">up</stem>
        <lyric default-y="-82" name="verse" number="1">
          <syllabic>end</syllabic>
          <text>lone</text>
        </lyric>
        <lyric default-y="-103" name="verse" number="2">
          <syllabic>begin</syllabic>
          <text>oth</text>
        </lyric>
        <lyric default-y="-124" name="verse" number="3">
          <syllabic>single</syllabic>
          <text>day</text>
        </lyric>
        <lyric default-y="-145" name="verse" number="4">
          <syllabic>single</syllabic>
          <text>Thine</text>
        </lyric>
      </note>
      <note default-x="184">
        <chord/>
        <pitch>
          <step>B</step>
          <octave>4</octave>
        </pitch>
        <duration>3</duration>
        <voice>1</voice>
        <type>eighth</type>
        <dot/>
        <stem>up</stem>
      </note>
      <note default-x="239">
        <pitch>
          <step>D</step>
          <octave>4</octave>
        </pitch>
        <duration>1</duration>
        <voice>1</voice>
        <type>16th</type>
        <stem default-y="17">up</stem>
        <lyric default-y="-82" name="verse" number="1">
          <syllabic>begin</syllabic>
          <text>a</text>
        </lyric>
        <lyric default-y="-103" name="verse" number="2">
          <syllabic>end</syllabic>
          <text>er</text>
        </lyric>
        <lyric default-y="-124" name="verse" number="3">
          <syllabic>single</syllabic>
          <text>Thy</text>
        </lyric>
        <lyric default-y="-145" name="verse" number="4">
          <syllabic>single</syllabic>
          <text>shall</text>
        </lyric>
      </note>
      <note default-x="239">
        <chord/>
        <pitch>
          <step>A</step>
          <octave>4</octave>
        </pitch>
        <duration>1</duration>
        <voice>1</voice>
        <type>16th</type>
        <stem>up</stem>
      </note>
      <note default-x="289">
        <pitch>
          <step>D</step>
          <octave>4</octave>
        </pitch>
        <duration>3</duration>
        <voice>1</voice>
        <type>eighth</type>
        <dot/>
        <stem default-y="7">up</stem>
        <lyric default-y="-82" name="verse" number="1">
          <syllabic>end</syllabic>
          <text>gainst</text>
        </lyric>
        <lyric default-y="-103" name="verse" number="2">
          <syllabic>single</syllabic>
          <text>names</text>
        </lyric>
        <lyric default-y="-124" name="verse" number="3">
          <syllabic>single</syllabic>
          <text>grace</text>
        </lyric>
        <lyric default-y="-145" name="verse" number="4">
          <syllabic>single</syllabic>
          <text>be</text>
        </lyric>
      </note>
      <note default-x="289">
        <chord/>
        <pitch>
          <step>A</step>
          <octave>4</octave>
        </pitch>
        <duration>3</duration>
        <voice>1</voice>
        <type>eighth</type>
        <dot/>
        <stem>up</stem>
      </note>
      <note default-x="345">
        <pitch>
          <step>D</step>
          <octave>4</octave>
        </pitch>
        <duration>1</duration>
        <voice>1</voice>
        <type>16th</type>
        <stem default-y="7">up</stem>
        <lyric default-y="-82" name="verse" number="1">
          <syllabic>single</syllabic>
          <text>the</text>
        </lyric>
        <lyric default-y="-103" name="verse" number="2">
          <syllabic>begin</syllabic>
          <text>a</text>
        </lyric>
        <lyric default-y="-124" name="verse" number="3">
          <syllabic>single</syllabic>
          <text>to</text>
        </lyric>
        <lyric default-y="-145" name="verse" number="4">
          <syllabic>single</syllabic>
          <text>the</text>
        </lyric>
      </note>
      <note default-x="345">
        <chord/>
        <pitch>
          <step>F</step>
          <alter>1</alter>
          <octave>4</octave>
        </pitch>
        <duration>1</duration>
        <voice>1</voice>
        <type>16th</type>
        <stem>up</stem>
      </note>
    </measure>
    <!--=======================================================-->
    <measure number="4" width="467">
      <note default-x="24">
        <pitch>
          <step>C</step>
          <alter>1</alter>
          <octave>4</octave>
        </pitch>
        <duration>8</duration>
        <voice>1</voice>
        <type>half</type>
        <stem default-y="-8">up</stem>
        <lyric default-y="-82" name="verse" number="1">
          <syllabic>single</syllabic>
          <text>foe;</text>
        </lyric>
        <lyric default-y="-103" name="verse" number="2">
          <syllabic>end</syllabic>
          <text>bove;</text>
        </lyric>
        <lyric default-y="-124" name="verse" number="3">
          <syllabic>single</syllabic>
          <text>know:</text>
        </lyric>
        <lyric default-y="-145" name="verse" number="4">
          <syllabic>single</syllabic>
          <text>praise;</text>
        </lyric>
      </note>
      <note default-x="24">
        <chord/>
        <pitch>
          <step>E</step>
          <octave>4</octave>
        </pitch>
        <duration>8</duration>
        <voice>1</voice>
        <type>half</type>
        <stem>up</stem>
      </note>
      <note default-x="61">
        <rest/>
        <duration>2</duration>
        <voice>1</voice>
        <type>eighth</type>
      </note>
      <note default-x="103">
        <pitch>
          <step>A</step>
          <octave>4</octave>
        </pitch>
        <duration>2</duration>
        <voice>1</voice>
        <type>eighth</type>
        <stem>double</stem>
        <lyric default-y="-82" name="verse" number="1" relative-x="4">
          <syllabic>single</syllabic>
          <text>Strong</text>
        </lyric>
        <lyric default-y="-103" name="verse" number="2" relative-x="4">
          <syllabic>begin</syllabic>
          <text>Je</text>
        </lyric>
        <lyric default-y="-124" name="verse" number="3" relative-x="4">
          <syllabic>single</syllabic>
          <text>Yet</text>
        </lyric>
        <lyric default-y="-145" name="verse" number="4" relative-x="4">
          <syllabic>single</syllabic>
          <text>When</text>
        </lyric>
      </note>
      <note default-x="153">
        <pitch>
          <step>A</step>
          <octave>4</octave>
        </pitch>
        <duration>2</duration>
        <voice>1</voice>
        <type>eighth</type>
        <stem>double</stem>
        <lyric default-y="-82" name="verse" number="1">
          <syllabic>single</syllabic>
          <text>in</text>
        </lyric>
        <lyric default-y="-103" name="verse" number="2">
          <syllabic>end</syllabic>
          <text>sus</text>
        </lyric>
        <lyric default-y="-124" name="verse" number="3">
          <syllabic>single</syllabic>
          <text>from</text>
        </lyric>
        <lyric default-y="-145" name="verse" number="4" relative-x="4">
          <syllabic>begin</syllabic>
          <text>pass</text>
        </lyric>
      </note>
      <note default-x="202">
        <pitch>
          <step>A</step>
          <octave>4</octave>
        </pitch>
        <duration>2</duration>
        <voice>1</voice>
        <type>eighth</type>
        <stem default-y="-56">down</stem>
        <lyric default-y="-82" name="verse" number="1" relative-x="-4">
          <syllabic>single</syllabic>
          <text>Thy</text>
        </lyric>
        <lyric default-y="-103" name="verse" number="2">
          <syllabic>single</syllabic>
          <text>our</text>
        </lyric>
        <lyric default-y="-124" name="verse" number="3">
          <syllabic>single</syllabic>
          <text>our</text>
        </lyric>
        <lyric default-y="-145" name="verse" number="4">
          <syllabic>end</syllabic>
          <text>ing</text>
        </lyric>
      </note>
      <note default-x="202">
        <chord/>
        <pitch>
          <step>C</step>
          <alter>1</alter>
          <octave>5</octave>
        </pitch>
        <duration>2</duration>
        <voice>1</voice>
        <type>eighth</type>
        <stem>down</stem>
      </note>
    </measure>
    <!--=======================================================-->
    <measure number="5" width="848">
      <print new-system="yes"/>
      <note default-x="640">
        <pitch>
          <step>A</step>
          <octave>4</octave>
        </pitch>
        <duration>6</duration>
        <voice>1</voice>
        <type>quarter</type>
        <dot/>
        <stem default-y="-51">down</stem>
        <lyric default-y="-82" name="verse" number="1" relative-x="3">
          <syllabic>single</syllabic>
          <text>strength,</text>
        </lyric>
        <lyric default-y="-103" name="verse" number="2">
          <syllabic>begin</syllabic>
          <text>Right</text>
        </lyric>
        <lyric default-y="-124" name="verse" number="3">
          <syllabic>single</syllabic>
          <text>hearts</text>
        </lyric>
        <lyric default-y="-145" name="verse" number="4" relative-x="3">
          <syllabic>single</syllabic>
          <text>through</text>
        </lyric>
      </note>
      <note default-x="640">
        <chord/>
        <pitch>
          <step>D</step>
          <octave>5</octave>
        </pitch>
        <duration>6</duration>
        <voice>1</voice>
        <type>quarter</type>
        <dot/>
        <stem>down</stem>
      </note>
      <note default-x="696">
        <pitch>
          <step>F</step>
          <alter>1</alter>
          <octave>4</octave>
        </pitch>
        <duration>2</duration>
        <voice>1</voice>
        <type>eighth</type>
        <stem default-y="7">up</stem>
        <lyric default-y="-82" name="verse" number="1" relative-x="8">
          <syllabic>single</syllabic>
          <text>safe</text>
        </lyric>
        <lyric default-y="-103" name="verse" number="2">
          <syllabic>middle</syllabic>
          <text>eous</text>
        </lyric>
        <lyric default-y="-124" name="verse" number="3">
          <syllabic>single</syllabic>
          <text>a</text>
        </lyric>
        <lyric default-y="-145" name="verse" number="4" relative-x="5">
          <syllabic>single</syllabic>
          <text>the</text>
        </lyric>
      </note>
      <note default-x="696">
        <chord/>
        <pitch>
          <step>A</step>
          <octave>4</octave>
        </pitch>
        <duration>2</duration>
        <voice>1</voice>
        <type>eighth</type>
        <stem>up</stem>
      </note>
      <note default-x="752">
        <pitch>
          <step>F</step>
          <alter>1</alter>
          <octave>4</octave>
        </pitch>
        <duration>3</duration>
        <voice>1</voice>
        <type>eighth</type>
        <dot/>
        <stem default-y="22">up</stem>
        <lyric default-y="-82" name="verse" number="1">
          <syllabic>single</syllabic>
          <text>in</text>
        </lyric>
        <lyric default-y="-103" name="verse" number="2">
          <syllabic>end</syllabic>
          <text>ness,</text>
        </lyric>
        <lyric default-y="-124" name="verse" number="3">
          <syllabic>single</syllabic>
          <text>song</text>
        </lyric>
        <lyric default-y="-145" name="verse" number="4">
          <syllabic>single</syllabic>
          <text>gates</text>
        </lyric>
      </note>
      <note default-x="752">
        <chord/>
        <pitch>
          <step>D</step>
          <octave>5</octave>
        </pitch>
        <duration>3</duration>
        <voice>1</voice>
        <type>eighth</type>
        <dot/>
        <stem>up</stem>
      </note>
      <note default-x="808">
        <pitch>
          <step>F</step>
          <alter>1</alter>
          <octave>4</octave>
        </pitch>
        <duration>1</duration>
        <voice>1</voice>
        <type>16th</type>
        <stem default-y="32">up</stem>
        <lyric default-y="-82" name="verse" number="1">
          <syllabic>single</syllabic>
          <text>Thy</text>
        </lyric>
        <lyric default-y="-103" name="verse" number="2">
          <syllabic>single</syllabic>
          <text>our</text>
        </lyric>
        <lyric default-y="-124" name="verse" number="3">
          <syllabic>single</syllabic>
          <text>of</text>
        </lyric>
        <lyric default-y="-145" name="verse" number="4">
          <syllabic>single</syllabic>
          <text>of</text>
        </lyric>
      </note>
      <note default-x="808">
        <chord/>
        <pitch>
          <step>D</step>
          <octave>5</octave>
        </pitch>
        <duration>1</duration>
        <voice>1</voice>
        <type>16th</type>
        <stem>up</stem>
      </note>
      <note default-x="75">
        <pitch>
          <step>A</step>
          <octave>4</octave>
        </pitch>
        <duration>3</duration>
        <voice>1</voice>
        <type>eighth</type>
        <dot/>
        <stem default-y="-336">down</stem>
        <lyric default-y="-89" name="verse" number="1">
          <syllabic>begin</syllabic>
          <text>keep</text>
        </lyric>
        <lyric default-y="-110" name="verse" number="2">
          <syllabic>single</syllabic>
          <text>sure</text>
        </lyric>
        <lyric default-y="-131" name="verse" number="3">
          <syllabic>begin</syllabic>
          <text>tri</text>
        </lyric>
        <lyric default-y="-152" name="verse" number="4">
          <syllabic>begin</syllabic>
          <text>pearl</text>
        </lyric>
      </note>
      <note default-x="75">
        <chord/>
        <pitch>
          <step>C</step>
          <alter>1</alter>
          <octave>5</octave>
        </pitch>
        <duration>3</duration>
        <voice>1</voice>
        <type>eighth</type>
        <dot/>
        <stem>down</stem>
      </note>
      <note default-x="133">
        <pitch>
          <step>E</step>
          <octave>4</octave>
        </pitch>
        <duration>1</duration>
        <voice>1</voice>
        <type>16th</type>
        <stem default-y="-252">up</stem>
        <lyric default-y="-89" name="verse" number="1">
          <syllabic>end</syllabic>
          <text>ing</text>
        </lyric>
        <lyric default-y="-110" name="verse" number="2">
          <syllabic>begin</syllabic>
          <text>Foun</text>
        </lyric>
        <lyric default-y="-131" name="verse" number="3" relative-x="-2">
          <syllabic>end</syllabic>
          <text>umph</text>
        </lyric>
        <lyric default-y="-152" name="verse" number="4">
          <syllabic>end</syllabic>
          <text>y</text>
        </lyric>
      </note>
      <note default-x="133">
        <chord/>
        <pitch>
          <step>C</step>
          <alter>1</alter>
          <octave>5</octave>
        </pitch>
        <duration>1</duration>
        <voice>1</voice>
        <type>16th</type>
        <stem>up</stem>
      </note>
    </measure>
    <!--=======================================================-->
    <measure number="6">
      <note default-x="-655">
        <pitch>
          <step>A</step>
          <octave>4</octave>
        </pitch>
        <duration>2</duration>
        <voice>1</voice>
        <type>eighth</type>
        <stem default-y="-56.5">down</stem>
        <lyric default-y="-89" name="verse" number="1" relative-x="-5">
          <syllabic>begin</syllabic>
          <text>ten</text>
        </lyric>
        <lyric default-y="-110" name="verse" number="2" relative-x="-5">
          <syllabic>middle</syllabic>
          <text>da</text>
        </lyric>
        <lyric default-y="-131" name="verse" number="3" relative-x="-5">
          <syllabic>begin</syllabic>
          <text>peal</text>
        </lyric>
        <lyric default-y="-152" name="verse" number="4" relative-x="-8">
          <syllabic>begin</syllabic>
          <text>splen</text>
        </lyric>
      </note>
      <note default-x="-655">
        <chord/>
        <pitch>
          <step>C</step>
          <alter>1</alter>
          <octave>5</octave>
        </pitch>
        <duration>2</duration>
        <voice>1</voice>
        <type>eighth</type>
        <stem>down</stem>
      </note>
      <note default-x="-610">
        <pitch>
          <step>G</step>
          <octave>4</octave>
        </pitch>
        <duration>6</duration>
        <voice>1</voice>
        <type>quarter</type>
        <dot/>
        <stem default-y="12">up</stem>
        <lyric default-y="-89" name="verse" number="1">
          <syllabic>end</syllabic>
          <text>der,</text>
        </lyric>
        <lyric default-y="-110" name="verse" number="2">
          <syllabic>end</syllabic>
          <text>tion,</text>
        </lyric>
        <lyric default-y="-131" name="verse" number="3">
          <syllabic>end</syllabic>
          <text>ing,</text>
        </lyric>
        <lyric default-y="-152" name="verse" number="4">
          <syllabic>end</syllabic>
          <text>dor,</text>
        </lyric>
      </note>
      <note default-x="-610">
        <chord/>
        <pitch>
          <step>B</step>
          <octave>4</octave>
        </pitch>
        <duration>6</duration>
        <voice>1</voice>
        <type>quarter</type>
        <dot/>
        <stem>up</stem>
      </note>
      <note default-x="-579">
        <rest/>
        <duration>2</duration>
        <voice>1</voice>
        <type>eighth</type>
      </note>
      <note default-x="-549">
        <pitch>
          <step>G</step>
          <octave>4</octave>
        </pitch>
        <duration>2</duration>
        <voice>1</voice>
        <type>eighth</type>
        <stem default-y="-61.5">down</stem>
        <lyric default-y="-89" name="verse" number="1" relative-x="6">
          <syllabic>single</syllabic>
          <text>We</text>
        </lyric>
        <lyric default-y="-110" name="verse" number="2" relative-x="6">
          <syllabic>single</syllabic>
          <text>Our</text>
        </lyric>
        <lyric default-y="-131" name="verse" number="3" relative-x="-4">
          <syllabic>single</syllabic>
          <text>“We</text>
        </lyric>
        <lyric default-y="-152" name="verse" number="4" relative-x="6">
          <syllabic>begin</syllabic>
          <text>Vic</text>
        </lyric>
      </note>
      <note default-x="-549">
        <chord/>
        <pitch>
          <step>D</step>
          <octave>5</octave>
        </pitch>
        <duration>2</duration>
        <voice>1</voice>
        <type>eighth</type>
        <stem>down</stem>
      </note>
      <note default-x="-497">
        <pitch>
          <step>G</step>
          <octave>4</octave>
        </pitch>
        <duration>2</duration>
        <voice>1</voice>
        <type>eighth</type>
        <stem default-y="-61.5">down</stem>
        <lyric default-y="-89" name="verse" number="1">
          <syllabic>single</syllabic>
          <text>rest</text>
        </lyric>
        <lyric default-y="-110" name="verse" number="2" relative-x="4">
          <syllabic>single</syllabic>
          <text>Prince</text>
        </lyric>
        <lyric default-y="-131" name="verse" number="3">
          <syllabic>single</syllabic>
          <text>rest</text>
        </lyric>
        <lyric default-y="-152" name="verse" number="4">
          <syllabic>end</syllabic>
          <text>tors,</text>
        </lyric>
      </note>
      <note default-x="-497">
        <chord/>
        <pitch>
          <step>D</step>
          <octave>5</octave>
        </pitch>
        <duration>2</duration>
        <voice>1</voice>
        <type>eighth</type>
        <stem>down</stem>
      </note>
      <note default-x="-448">
        <pitch>
          <step>G</step>
          <octave>4</octave>
        </pitch>
        <duration>2</duration>
        <voice>1</voice>
        <type>eighth</type>
        <stem default-y="12">up</stem>
        <lyric default-y="-89" name="verse" number="1">
          <syllabic>single</syllabic>
          <text>on</text>
        </lyric>
        <lyric default-y="-110" name="verse" number="2">
          <syllabic>single</syllabic>
          <text>of</text>
        </lyric>
        <lyric default-y="-131" name="verse" number="3">
          <syllabic>single</syllabic>
          <text>on</text>
        </lyric>
        <lyric default-y="-152" name="verse" number="4">
          <syllabic>single</syllabic>
          <text>we</text>
        </lyric>
      </note>
      <note default-x="-448">
        <chord/>
        <pitch>
          <step>B</step>
          <octave>4</octave>
        </pitch>
        <duration>2</duration>
        <voice>1</voice>
        <type>eighth</type>
        <stem>up</stem>
      </note>
    </measure>
    <!--=======================================================-->
    <measure number="7">
      <note>
        <pitch>
          <step>A</step>
          <octave>4</octave>
        </pitch>
        <duration>6</duration>
        <voice>1</voice>
        <type>quarter</type>
        <dot/>
        <stem>double</stem>
        <lyric default-y="-89" name="verse" number="1">
          <syllabic>single</syllabic>
          <text>Thee,</text>
        </lyric>
        <lyric default-y="-110" name="verse" number="2">
          <syllabic>begin</syllabic>
          <text>glo</text>
        </lyric>
        <lyric default-y="-131" name="verse" number="3">
          <syllabic>single</syllabic>
          <text>Thee,</text>
        </lyric>
        <lyric default-y="-152" name="verse" number="4">
          <syllabic>single</syllabic>
          <text>rest</text>
        </lyric>
      </note>
      <note>
        <pitch>
          <step>D</step>
          <octave>4</octave>
        </pitch>
        <duration>2</duration>
        <voice>1</voice>
        <type>eighth</type>
        <stem>double</stem>
        <lyric default-y="-89" name="verse" number="1">
          <syllabic>single</syllabic>
          <text>and</text>
        </lyric>
        <lyric default-y="-110" name="verse" number="2">
          <syllabic>end</syllabic>
          <text>ry</text>
        </lyric>
        <lyric default-y="-131" name="verse" number="3">
          <syllabic>single</syllabic>
          <text>and</text>
        </lyric>
        <lyric default-y="-152" name="verse" number="4" relative-x="-3">
          <syllabic>single</syllabic>
          <text>with</text>
        </lyric>
      </note>
      <note>
        <pitch>
          <step>D</step>
          <octave>4</octave>
        </pitch>
        <duration>3</duration>
        <voice>1</voice>
        <type>eighth</type>
        <dot/>
        <stem default-y="2">up</stem>
        <lyric default-y="-89" name="verse" number="1">
          <syllabic>single</syllabic>
          <text>in</text>
        </lyric>
        <lyric default-y="-110" name="verse" number="2">
          <syllabic>single</syllabic>
          <text>and</text>
        </lyric>
        <lyric default-y="-131" name="verse" number="3">
          <syllabic>single</syllabic>
          <text>in</text>
        </lyric>
        <lyric default-y="-152" name="verse" number="4" relative-x="-6">
          <syllabic>single</syllabic>
          <text>Thee,</text>
        </lyric>
      </note>
      <note>
        <chord/>
        <pitch>
          <step>G</step>
          <octave>4</octave>
        </pitch>
        <duration>3</duration>
        <voice>1</voice>
        <type>eighth</type>
        <dot/>
        <stem>up</stem>
      </note>
      <note>
        <pitch>
          <step>D</step>
          <octave>4</octave>
        </pitch>
        <duration>1</duration>
        <voice>1</voice>
        <type>16th</type>
        <stem default-y="12">up</stem>
        <lyric default-y="-89" name="verse" number="1">
          <syllabic>single</syllabic>
          <text>Thy</text>
        </lyric>
        <lyric default-y="-110" name="verse" number="2">
          <syllabic>single</syllabic>
          <text>our</text>
        </lyric>
        <lyric default-y="-131" name="verse" number="3">
          <syllabic>single</syllabic>
          <text>Thy</text>
        </lyric>
        <lyric default-y="-152" name="verse" number="4" relative-x="4">
          <syllabic>single</syllabic>
          <text>through</text>
        </lyric>
      </note>
      <note>
        <chord/>
        <pitch>
          <step>G</step>
          <octave>4</octave>
        </pitch>
        <duration>1</duration>
        <voice>1</voice>
        <type>16th</type>
        <stem>up</stem>
      </note>
      <note>
        <pitch>
          <step>C</step>
          <alter>1</alter>
          <octave>4</octave>
        </pitch>
        <duration>3</duration>
        <voice>1</voice>
        <type>eighth</type>
        <dot/>
        <stem default-y="-8">up</stem>
        <lyric default-y="-89" name="verse" number="1">
          <syllabic>single</syllabic>
          <text>name</text>
        </lyric>
        <lyric default-y="-110" name="verse" number="2">
          <syllabic>single</syllabic>
          <text>King</text>
        </lyric>
        <lyric default-y="-131" name="verse" number="3">
          <syllabic>single</syllabic>
          <text>name</text>
        </lyric>
        <lyric default-y="-152" name="verse" number="4" relative-x="8">
          <syllabic>begin</syllabic>
          <text>end</text>
        </lyric>
      </note>
      <note>
        <chord/>
        <pitch>
          <step>E</step>
          <octave>4</octave>
        </pitch>
        <duration>3</duration>
        <voice>1</voice>
        <type>eighth</type>
        <dot/>
        <stem>up</stem>
      </note>
      <note>
        <pitch>
          <step>B</step>
          <octave>3</octave>
        </pitch>
        <duration>1</duration>
        <voice>1</voice>
        <type>16th</type>
        <stem default-y="-3">up</stem>
        <lyric default-y="-89" name="verse" number="1">
          <syllabic>single</syllabic>
          <text>we</text>
        </lyric>
        <lyric default-y="-110" name="verse" number="2">
          <syllabic>single</syllabic>
          <text>of</text>
        </lyric>
        <lyric default-y="-131" name="verse" number="3">
          <syllabic>single</syllabic>
          <text>we</text>
        </lyric>
        <lyric default-y="-152" name="verse" number="4">
          <syllabic>end</syllabic>
          <text>less</text>
        </lyric>
      </note>
      <note>
        <chord/>
        <pitch>
          <step>D</step>
          <octave>4</octave>
        </pitch>
        <duration>1</duration>
        <voice>1</voice>
        <type>16th</type>
        <stem>up</stem>
      </note>
    </measure>
    <!--=======================================================-->
    <measure number="8">
      <note>
        <pitch>
          <step>A</step>
          <octave>3</octave>
        </pitch>
        <duration>8</duration>
        <voice>1</voice>
        <type>half</type>
        <stem default-y="-13">up</stem>
        <lyric default-y="-89" name="verse" number="1">
          <syllabic>single</syllabic>
          <text>go.</text>
        </lyric>
        <lyric default-y="-110" name="verse" number="2">
          <syllabic>single</syllabic>
          <text>love.</text>
        </lyric>
        <lyric default-y="-131" name="verse" number="3">
          <syllabic>single</syllabic>
          <text>go.”</text>
        </lyric>
        <lyric default-y="-152" name="verse" number="4">
          <syllabic>single</syllabic>
          <text>days.</text>
        </lyric>
      </note>
      <note>
        <chord/>
        <pitch>
          <step>D</step>
          <octave>4</octave>
        </pitch>
        <duration>8</duration>
        <voice>1</voice>
        <type>half</type>
        <stem>up</stem>
      </note>
      <note>
        <rest/>
        <duration>2</duration>
        <voice>1</voice>
        <type>eighth</type>
      </note>
      <barline location="right">
        <bar-style>light-heavy</bar-style>
      </barline>
    </measure>
  </part>
  <!--=========================================================-->
  <part id="P2">
    <measure implicit="yes" number="0" width="237">
      <print>
        <staff-layout number="1">
          <staff-distance>145</staff-distance>
        </staff-layout>
        <measure-numbering>none</measure-numbering>
      </print>
      <attributes>
        <divisions>4</divisions>
        <key>
          <fifths>2</fifths>
          <mode>major</mode>
        </key>
        <time>
          <beats>4</beats>
          <beat-type>4</beat-type>
        </time>
        <clef>
          <sign>F</sign>
          <line>4</line>
        </clef>
      </attributes>
      <sound tempo="71"/>
      <note default-x="97">
        <pitch>
          <step>B</step>
          <octave>2</octave>
        </pitch>
        <duration>2</duration>
        <voice>1</voice>
        <type>eighth</type>
        <stem default-y="-61.5">down</stem>
      </note>
      <note default-x="97">
        <chord/>
        <pitch>
          <step>F</step>
          <alter>1</alter>
          <octave>3</octave>
        </pitch>
        <duration>2</duration>
        <voice>1</voice>
        <type>eighth</type>
        <stem>down</stem>
      </note>
      <note default-x="150">
        <pitch>
          <step>B</step>
          <octave>2</octave>
        </pitch>
        <duration>2</duration>
        <voice>1</voice>
        <type>eighth</type>
        <stem default-y="-61.5">down</stem>
      </note>
      <note default-x="150">
        <chord/>
        <pitch>
          <step>F</step>
          <alter>1</alter>
          <octave>3</octave>
        </pitch>
        <duration>2</duration>
        <voice>1</voice>
        <type>eighth</type>
        <stem>down</stem>
      </note>
      <note default-x="197">
        <pitch>
          <step>C</step>
          <alter>1</alter>
          <octave>3</octave>
        </pitch>
        <duration>2</duration>
        <voice>1</voice>
        <type>eighth</type>
        <stem default-y="-56.5">down</stem>
      </note>
      <note default-x="197">
        <chord/>
        <pitch>
          <step>A</step>
          <octave>3</octave>
        </pitch>
        <duration>2</duration>
        <voice>1</voice>
        <type>eighth</type>
        <stem>down</stem>
      </note>
    </measure>
    <!--=======================================================-->
    <measure number="1" width="334">
      <note default-x="22">
        <pitch>
          <step>D</step>
          <octave>3</octave>
        </pitch>
        <duration>6</duration>
        <voice>1</voice>
        <type>quarter</type>
        <dot/>
        <stem default-y="-51.5">down</stem>
      </note>
      <note default-x="22">
        <chord/>
        <pitch>
          <step>A</step>
          <octave>3</octave>
        </pitch>
        <duration>6</duration>
        <voice>1</voice>
        <type>quarter</type>
        <dot/>
        <stem>down</stem>
      </note>
      <note default-x="71">
        <pitch>
          <step>F</step>
          <alter>1</alter>
          <octave>3</octave>
        </pitch>
        <duration>2</duration>
        <voice>1</voice>
        <type>eighth</type>
        <stem default-y="-41.5">down</stem>
      </note>
      <note default-x="71">
        <chord/>
        <pitch>
          <step>A</step>
          <octave>3</octave>
        </pitch>
        <duration>2</duration>
        <voice>1</voice>
        <type>eighth</type>
        <stem>down</stem>
      </note>
      <note default-x="123">
        <pitch>
          <step>G</step>
          <octave>3</octave>
        </pitch>
        <duration>3</duration>
        <voice>1</voice>
        <type>eighth</type>
        <dot/>
        <stem>double</stem>
      </note>
      <note default-x="185">
        <pitch>
          <step>G</step>
          <octave>3</octave>
        </pitch>
        <duration>1</duration>
        <voice>1</voice>
        <type>16th</type>
        <stem>double</stem>
      </note>
      <note default-x="235">
        <pitch>
          <step>F</step>
          <alter>1</alter>
          <octave>3</octave>
        </pitch>
        <duration>3</duration>
        <voice>1</voice>
        <type>eighth</type>
        <dot/>
        <stem default-y="-41.5">down</stem>
      </note>
      <note default-x="235">
        <chord/>
        <pitch>
          <step>A</step>
          <octave>3</octave>
        </pitch>
        <duration>3</duration>
        <voice>1</voice>
        <type>eighth</type>
        <dot/>
        <stem>down</stem>
      </note>
      <note default-x="289">
        <pitch>
          <step>D</step>
          <octave>3</octave>
        </pitch>
        <duration>1</duration>
        <voice>1</voice>
        <type>16th</type>
        <stem default-y="-61.5">down</stem>
      </note>
      <note default-x="289">
        <chord/>
        <pitch>
          <step>A</step>
          <octave>3</octave>
        </pitch>
        <duration>1</duration>
        <voice>1</voice>
        <type>16th</type>
        <stem>down</stem>
      </note>
    </measure>
    <!--=======================================================-->
    <measure number="2" width="277">
      <note default-x="16">
        <pitch>
          <step>A</step>
          <octave>2</octave>
        </pitch>
        <duration>2</duration>
        <voice>1</voice>
        <type>eighth</type>
        <stem default-y="-66.5">down</stem>
      </note>
      <note default-x="16">
        <chord/>
        <pitch>
          <step>A</step>
          <octave>3</octave>
        </pitch>
        <duration>2</duration>
        <voice>1</voice>
        <type>eighth</type>
        <stem>down</stem>
      </note>
      <note default-x="67">
        <pitch>
          <step>A</step>
          <octave>2</octave>
        </pitch>
        <duration>6</duration>
        <voice>1</voice>
        <type>quarter</type>
        <dot/>
        <stem default-y="-61">down</stem>
      </note>
      <note default-x="67">
        <chord/>
        <pitch>
          <step>A</step>
          <octave>3</octave>
        </pitch>
        <duration>6</duration>
        <voice>1</voice>
        <type>quarter</type>
        <dot/>
        <stem>down</stem>
      </note>
      <note default-x="106">
        <rest/>
        <duration>2</duration>
        <voice>1</voice>
        <type>eighth</type>
      </note>
      <note default-x="145">
        <pitch>
          <step>B</step>
          <octave>2</octave>
        </pitch>
        <duration>2</duration>
        <voice>1</voice>
        <type>eighth</type>
        <stem default-y="-61.5">down</stem>
      </note>
      <note default-x="145">
        <chord/>
        <pitch>
          <step>F</step>
          <alter>1</alter>
          <octave>3</octave>
        </pitch>
        <duration>2</duration>
        <voice>1</voice>
        <type>eighth</type>
        <stem>down</stem>
      </note>
      <note default-x="195">
        <pitch>
          <step>B</step>
          <octave>2</octave>
        </pitch>
        <duration>2</duration>
        <voice>1</voice>
        <type>eighth</type>
        <stem default-y="-61.5">down</stem>
      </note>
      <note default-x="195">
        <chord/>
        <pitch>
          <step>F</step>
          <alter>1</alter>
          <octave>3</octave>
        </pitch>
        <duration>2</duration>
        <voice>1</voice>
        <type>eighth</type>
        <stem>down</stem>
      </note>
      <note default-x="240">
        <pitch>
          <step>C</step>
          <alter>1</alter>
          <octave>3</octave>
        </pitch>
        <duration>2</duration>
        <voice>1</voice>
        <type>eighth</type>
        <stem default-y="-56.5">down</stem>
      </note>
      <note default-x="240">
        <chord/>
        <pitch>
          <step>A</step>
          <octave>3</octave>
        </pitch>
        <duration>2</duration>
        <voice>1</voice>
        <type>eighth</type>
        <stem>down</stem>
      </note>
    </measure>
    <!--=======================================================-->
    <measure number="3" width="381">
      <print new-system="yes">
        <staff-layout number="1">
          <staff-distance>145</staff-distance>
        </staff-layout>
      </print>
      <note default-x="80">
        <pitch>
          <step>D</step>
          <octave>3</octave>
        </pitch>
        <duration>6</duration>
        <voice>1</voice>
        <type>quarter</type>
        <dot/>
        <stem default-y="-51">down</stem>
      </note>
      <note default-x="80">
        <chord/>
        <pitch>
          <step>A</step>
          <octave>3</octave>
        </pitch>
        <duration>6</duration>
        <voice>1</voice>
        <type>quarter</type>
        <dot/>
        <stem>down</stem>
      </note>
      <note default-x="132">
        <pitch>
          <step>F</step>
          <alter>1</alter>
          <octave>3</octave>
        </pitch>
        <duration>2</duration>
        <voice>1</voice>
        <type>eighth</type>
        <stem default-y="-41">down</stem>
      </note>
      <note default-x="132">
        <chord/>
        <pitch>
          <step>A</step>
          <octave>3</octave>
        </pitch>
        <duration>2</duration>
        <voice>1</voice>
        <type>eighth</type>
        <stem>down</stem>
      </note>
      <note default-x="184">
        <pitch>
          <step>G</step>
          <octave>3</octave>
        </pitch>
        <duration>3</duration>
        <voice>1</voice>
        <type>eighth</type>
        <dot/>
        <stem>double</stem>
      </note>
      <note default-x="239">
        <pitch>
          <step>G</step>
          <octave>3</octave>
        </pitch>
        <duration>1</duration>
        <voice>1</voice>
        <type>16th</type>
        <stem>double</stem>
      </note>
      <note default-x="289">
        <pitch>
          <step>F</step>
          <alter>1</alter>
          <octave>3</octave>
        </pitch>
        <duration>3</duration>
        <voice>1</voice>
        <type>eighth</type>
        <dot/>
        <stem default-y="-41">down</stem>
      </note>
      <note default-x="289">
        <chord/>
        <pitch>
          <step>A</step>
          <octave>3</octave>
        </pitch>
        <duration>3</duration>
        <voice>1</voice>
        <type>eighth</type>
        <dot/>
        <stem>down</stem>
      </note>
      <note default-x="345">
        <pitch>
          <step>D</step>
          <octave>3</octave>
        </pitch>
        <duration>1</duration>
        <voice>1</voice>
        <type>16th</type>
        <stem default-y="-61">down</stem>
      </note>
      <note default-x="345">
        <chord/>
        <pitch>
          <step>A</step>
          <octave>3</octave>
        </pitch>
        <duration>1</duration>
        <voice>1</voice>
        <type>16th</type>
        <stem>down</stem>
      </note>
    </measure>
    <!--=======================================================-->
    <measure number="4" width="467">
      <note default-x="24">
        <pitch>
          <step>A</step>
          <octave>3</octave>
        </pitch>
        <duration>8</duration>
        <voice>1</voice>
        <type>half</type>
        <stem>double</stem>
      </note>
      <note default-x="61">
        <rest/>
        <duration>2</duration>
        <voice>1</voice>
        <type>eighth</type>
      </note>
      <note default-x="103">
        <pitch>
          <step>A</step>
          <octave>3</octave>
        </pitch>
        <duration>2</duration>
        <voice>1</voice>
        <type>eighth</type>
        <stem default-y="-31">down</stem>
      </note>
      <note default-x="103">
        <chord/>
        <pitch>
          <step>C</step>
          <alter>1</alter>
          <octave>4</octave>
        </pitch>
        <duration>2</duration>
        <voice>1</voice>
        <type>eighth</type>
        <stem>down</stem>
      </note>
      <note default-x="153">
        <pitch>
          <step>A</step>
          <octave>3</octave>
        </pitch>
        <duration>2</duration>
        <voice>1</voice>
        <type>eighth</type>
        <stem default-y="-31">down</stem>
      </note>
      <note default-x="153">
        <chord/>
        <pitch>
          <step>C</step>
          <alter>1</alter>
          <octave>4</octave>
        </pitch>
        <duration>2</duration>
        <voice>1</voice>
        <type>eighth</type>
        <stem>down</stem>
      </note>
      <note default-x="202">
        <pitch>
          <step>A</step>
          <octave>3</octave>
        </pitch>
        <duration>2</duration>
        <voice>1</voice>
        <type>eighth</type>
        <stem default-y="-31">down</stem>
      </note>
      <note default-x="202">
        <chord/>
        <pitch>
          <step>E</step>
          <octave>4</octave>
        </pitch>
        <duration>2</duration>
        <voice>1</voice>
        <type>eighth</type>
        <stem>down</stem>
      </note>
    </measure>
    <!--=======================================================-->
    <measure number="5" width="848">
      <print new-system="yes">
        <staff-layout number="1">
          <staff-distance>151</staff-distance>
        </staff-layout>
      </print>
      <note default-x="640">
        <pitch>
          <step>F</step>
          <alter>1</alter>
          <octave>3</octave>
        </pitch>
        <duration>6</duration>
        <voice>1</voice>
        <type>quarter</type>
        <dot/>
        <stem default-y="-41">down</stem>
      </note>
      <note default-x="640">
        <chord/>
        <pitch>
          <step>D</step>
          <octave>4</octave>
        </pitch>
        <duration>6</duration>
        <voice>1</voice>
        <type>quarter</type>
        <dot/>
        <stem>down</stem>
      </note>
      <note default-x="696">
        <pitch>
          <step>A</step>
          <octave>3</octave>
        </pitch>
        <duration>2</duration>
        <voice>1</voice>
        <type>eighth</type>
        <stem default-y="-31">down</stem>
      </note>
      <note default-x="696">
        <chord/>
        <pitch>
          <step>D</step>
          <octave>4</octave>
        </pitch>
        <duration>2</duration>
        <voice>1</voice>
        <type>eighth</type>
        <stem>down</stem>
      </note>
      <note default-x="752">
        <pitch>
          <step>B</step>
          <octave>3</octave>
        </pitch>
        <duration>3</duration>
        <voice>1</voice>
        <type>eighth</type>
        <dot/>
        <stem default-y="-26">down</stem>
      </note>
      <note default-x="752">
        <chord/>
        <pitch>
          <step>D</step>
          <octave>4</octave>
        </pitch>
        <duration>3</duration>
        <voice>1</voice>
        <type>eighth</type>
        <dot/>
        <stem>down</stem>
      </note>
      <note default-x="808">
        <pitch>
          <step>B</step>
          <octave>3</octave>
        </pitch>
        <duration>1</duration>
        <voice>1</voice>
        <type>16th</type>
        <stem default-y="-36">down</stem>
      </note>
      <note default-x="808">
        <chord/>
        <pitch>
          <step>D</step>
          <octave>4</octave>
        </pitch>
        <duration>1</duration>
        <voice>1</voice>
        <type>16th</type>
        <stem>down</stem>
      </note>
      <note default-x="75">
        <pitch>
          <step>A</step>
          <octave>3</octave>
        </pitch>
        <duration>3</duration>
        <voice>1</voice>
        <type>eighth</type>
        <dot/>
        <stem default-y="-316">down</stem>
      </note>
      <note default-x="75">
        <chord/>
        <pitch>
          <step>E</step>
          <octave>4</octave>
        </pitch>
        <duration>3</duration>
        <voice>1</voice>
        <type>eighth</type>
        <dot/>
        <stem>down</stem>
      </note>
      <note default-x="133">
        <pitch>
          <step>A</step>
          <octave>3</octave>
        </pitch>
        <duration>1</duration>
        <voice>1</voice>
        <type>16th</type>
        <stem default-y="-326">down</stem>
      </note>
      <note default-x="133">
        <chord/>
        <pitch>
          <step>C</step>
          <alter>1</alter>
          <octave>4</octave>
        </pitch>
        <duration>1</duration>
        <voice>1</voice>
        <type>16th</type>
        <stem>down</stem>
      </note>
    </measure>
    <!--=======================================================-->
    <measure number="6">
      <note default-x="-655">
        <pitch>
          <step>G</step>
          <octave>3</octave>
        </pitch>
        <duration>2</duration>
        <voice>1</voice>
        <type>eighth</type>
        <stem default-y="-36">down</stem>
      </note>
      <note default-x="-655">
        <chord/>
        <pitch>
          <step>D</step>
          <octave>4</octave>
        </pitch>
        <duration>2</duration>
        <voice>1</voice>
        <type>eighth</type>
        <stem>down</stem>
      </note>
      <note default-x="-610">
        <pitch>
          <step>G</step>
          <octave>3</octave>
        </pitch>
        <duration>6</duration>
        <voice>1</voice>
        <type>quarter</type>
        <dot/>
        <stem default-y="-36">down</stem>
      </note>
      <note default-x="-610">
        <chord/>
        <pitch>
          <step>D</step>
          <octave>4</octave>
        </pitch>
        <duration>6</duration>
        <voice>1</voice>
        <type>quarter</type>
        <dot/>
        <stem>down</stem>
      </note>
      <note default-x="-579">
        <rest/>
        <duration>2</duration>
        <voice>1</voice>
        <type>eighth</type>
      </note>
      <note default-x="-549">
        <pitch>
          <step>G</step>
          <octave>3</octave>
        </pitch>
        <duration>2</duration>
        <voice>1</voice>
        <type>eighth</type>
        <stem default-y="-36">down</stem>
      </note>
      <note default-x="-549">
        <chord/>
        <pitch>
          <step>B</step>
          <octave>3</octave>
        </pitch>
        <duration>2</duration>
        <voice>1</voice>
        <type>eighth</type>
        <stem>down</stem>
      </note>
      <note default-x="-497">
        <pitch>
          <step>G</step>
          <octave>3</octave>
        </pitch>
        <duration>2</duration>
        <voice>1</voice>
        <type>eighth</type>
        <stem default-y="-36">down</stem>
      </note>
      <note default-x="-497">
        <chord/>
        <pitch>
          <step>B</step>
          <octave>3</octave>
        </pitch>
        <duration>2</duration>
        <voice>1</voice>
        <type>eighth</type>
        <stem>down</stem>
      </note>
      <note default-x="-448">
        <pitch>
          <step>G</step>
          <octave>3</octave>
        </pitch>
        <duration>2</duration>
        <voice>1</voice>
        <type>eighth</type>
        <stem default-y="-36">down</stem>
      </note>
      <note default-x="-448">
        <chord/>
        <pitch>
          <step>D</step>
          <octave>4</octave>
        </pitch>
        <duration>2</duration>
        <voice>1</voice>
        <type>eighth</type>
        <stem>down</stem>
      </note>
    </measure>
    <!--=======================================================-->
    <measure number="7">
      <note>
        <pitch>
          <step>F</step>
          <alter>1</alter>
          <octave>3</octave>
        </pitch>
        <duration>6</duration>
        <voice>1</voice>
        <type>quarter</type>
        <dot/>
        <stem default-y="-41">down</stem>
      </note>
      <note>
        <chord/>
        <pitch>
          <step>D</step>
          <octave>4</octave>
        </pitch>
        <duration>6</duration>
        <voice>1</voice>
        <type>quarter</type>
        <dot/>
        <stem>down</stem>
      </note>
      <note>
        <pitch>
          <step>F</step>
          <alter>1</alter>
          <octave>3</octave>
        </pitch>
        <duration>2</duration>
        <voice>1</voice>
        <type>eighth</type>
        <stem default-y="-41">down</stem>
      </note>
      <note>
        <chord/>
        <pitch>
          <step>A</step>
          <octave>3</octave>
        </pitch>
        <duration>2</duration>
        <voice>1</voice>
        <type>eighth</type>
        <stem>down</stem>
      </note>
      <note>
        <pitch>
          <step>G</step>
          <octave>3</octave>
        </pitch>
        <duration>3</duration>
        <voice>1</voice>
        <type>eighth</type>
        <dot/>
        <stem default-y="-36">down</stem>
      </note>
      <note>
        <chord/>
        <pitch>
          <step>B</step>
          <octave>3</octave>
        </pitch>
        <duration>3</duration>
        <voice>1</voice>
        <type>eighth</type>
        <dot/>
        <stem>down</stem>
      </note>
      <note>
        <pitch>
          <step>G</step>
          <octave>3</octave>
        </pitch>
        <duration>1</duration>
        <voice>1</voice>
        <type>16th</type>
        <stem default-y="-46">down</stem>
      </note>
      <note>
        <chord/>
        <pitch>
          <step>B</step>
          <octave>3</octave>
        </pitch>
        <duration>1</duration>
        <voice>1</voice>
        <type>16th</type>
        <stem>down</stem>
      </note>
      <note>
        <pitch>
          <step>A</step>
          <octave>3</octave>
        </pitch>
        <duration>3</duration>
        <voice>1</voice>
        <type>eighth</type>
        <dot/>
        <stem>double</stem>
      </note>
      <note>
        <pitch>
          <step>A</step>
          <octave>2</octave>
        </pitch>
        <duration>1</duration>
        <voice>1</voice>
        <type>16th</type>
        <stem default-y="-76">down</stem>
      </note>
      <note>
        <chord/>
        <pitch>
          <step>G</step>
          <octave>3</octave>
        </pitch>
        <duration>1</duration>
        <voice>1</voice>
        <type>16th</type>
        <stem>down</stem>
      </note>
    </measure>
    <!--=======================================================-->
    <measure number="8">
      <note>
        <pitch>
          <step>D</step>
          <octave>3</octave>
        </pitch>
        <duration>8</duration>
        <voice>1</voice>
        <type>half</type>
        <stem default-y="-51">down</stem>
      </note>
      <note>
        <chord/>
        <pitch>
          <step>F</step>
          <alter>1</alter>
          <octave>3</octave>
        </pitch>
        <duration>8</duration>
        <voice>1</voice>
        <type>half</type>
        <stem>down</stem>
      </note>
      <note>
        <rest/>
        <duration>2</duration>
        <voice>1</voice>
        <type>eighth</type>
      </note>
      <barline location="right">
        <bar-style>light-heavy</bar-style>
      </barline>
    </measure>
  </part>
  <!--=========================================================-->
</score-partwise>
