<?xml version="1.0" encoding="UTF-8" standalone="no"?>
<!DOCTYPE score-partwise PUBLIC "-//Recordare//DTD MusicXML 3.1 Partwise//EN" "http://www.musicxml.org/dtds/partwise.dtd">
<score-partwise version="3.1">
  <identification>
    <encoding>
      <software>Finale v25 for Windows</software>
      <encoding-date>2020-07-08</encoding-date>
      <supports attribute="new-system" element="print" type="yes" value="yes"/>
      <supports attribute="new-page" element="print" type="yes" value="yes"/>
      <supports element="accidental" type="yes"/>
      <supports element="beam" type="yes"/>
      <supports element="stem" type="yes"/>
    </encoding>
  </identification>
  <defaults>
    <scaling>
      <millimeters>6.35</millimeters>
      <tenths>40</tenths>
    </scaling>
    <page-layout>
      <page-height>1380</page-height>
      <page-width>852</page-width>
      <page-margins type="both">
        <left-margin>0</left-margin>
        <right-margin>0</right-margin>
        <top-margin>0</top-margin>
        <bottom-margin>350</bottom-margin>
      </page-margins>
    </page-layout>
    <system-layout>
      <system-margins>
        <left-margin>5</left-margin>
        <right-margin>0</right-margin>
      </system-margins>
      <system-distance>54</system-distance>
      <top-system-distance>54</top-system-distance>
    </system-layout>
    <staff-layout>
      <staff-distance>173</staff-distance>
    </staff-layout>
    <appearance>
      <line-width type="stem">0.8333</line-width>
      <line-width type="beam">4.1667</line-width>
      <line-width type="staff">0.7096</line-width>
      <line-width type="light barline">0.8333</line-width>
      <line-width type="heavy barline">5</line-width>
      <line-width type="leger">0.7292</line-width>
      <line-width type="ending">0.7682</line-width>
      <line-width type="wedge">0.8333</line-width>
      <line-width type="enclosure">0.8333</line-width>
      <line-width type="tuplet bracket">0.7292</line-width>
      <note-size type="grace">55</note-size>
      <note-size type="cue">55</note-size>
      <distance type="hyphen">83</distance>
      <distance type="beam">8</distance>
    </appearance>
    <music-font font-family="Petrucci2" font-size="18"/>
    <word-font font-family="Palatino Linotype" font-size="9"/>
    <lyric-font font-family="Palatino Linotype" font-size="9"/>
  </defaults>
  <credit page="1">
    <credit-words default-y="350" font-size="7.5" valign="bottom" xml:space="preserve">Music: Sydney H. Nicholson, 1939
Text: Thomas Kelly, 1815</credit-words>
  </credit>
  <credit page="1">
    <credit-words default-x="852" default-y="350" font-size="7.5" justify="right" valign="bottom" xml:space="preserve">BOW BRICKHILL
8 8. 8 8.</credit-words>
  </credit>
  <part-list>
    <part-group number="1" type="start">
      <group-symbol default-x="-2">line</group-symbol>
      <group-barline>no</group-barline>
    </part-group>
    <part-group number="2" type="start">
      <group-barline>no</group-barline>
    </part-group>
    <score-part id="P1">
      <part-name print-object="no">MusicXML Part</part-name>
      <score-instrument id="P1-I5">
        <instrument-name>None</instrument-name>
      </score-instrument>
      <midi-instrument id="P1-I5">
        <midi-channel>5</midi-channel>
        <midi-program>57</midi-program>
        <volume>80</volume>
        <pan>0</pan>
      </midi-instrument>
    </score-part>
    <score-part id="P2">
      <part-name print-object="no">MusicXML Part</part-name>
      <score-instrument id="P2-I6">
        <instrument-name>None</instrument-name>
      </score-instrument>
      <midi-instrument id="P2-I6">
        <midi-channel>6</midi-channel>
        <midi-program>58</midi-program>
        <volume>80</volume>
        <pan>0</pan>
      </midi-instrument>
    </score-part>
    <part-group number="2" type="stop"/>
    <part-group number="1" type="stop"/>
  </part-list>
  <!--=========================================================-->
  <part id="P1">
    <measure implicit="yes" number="0" width="130">
      <print>
        <system-layout>
          <top-system-distance>75</top-system-distance>
        </system-layout>
        <measure-numbering>system</measure-numbering>
      </print>
      <attributes>
        <divisions>2</divisions>
        <key>
          <fifths>0</fifths>
          <mode>major</mode>
        </key>
        <time>
          <beats>3</beats>
          <beat-type>4</beat-type>
        </time>
        <clef>
          <sign>G</sign>
          <line>2</line>
        </clef>
      </attributes>
      <sound tempo="100"/>
      <note default-x="74">
        <pitch>
          <step>G</step>
          <octave>4</octave>
        </pitch>
        <duration>2</duration>
        <voice>1</voice>
        <type>quarter</type>
        <stem default-y="11">up</stem>
        <lyric default-y="-97" number="1">
          <syllabic>single</syllabic>
          <text>1.</text>
          <elision> </elision>
          <syllabic>single</syllabic>
          <text>We</text>
        </lyric>
        <lyric default-y="-118" number="2">
          <syllabic>single</syllabic>
          <text>2.</text>
          <elision> </elision>
          <syllabic>begin</syllabic>
          <text>In</text>
        </lyric>
        <lyric default-y="-139" number="3">
          <syllabic>single</syllabic>
          <text font-size="8.25" font-style="italic" font-weight="bold">3.</text>
          <elision> </elision>
          <syllabic>single</syllabic>
          <text font-size="8.25" font-style="italic" font-weight="bold">The</text>
        </lyric>
        <lyric default-y="-160" number="4">
          <syllabic>single</syllabic>
          <text>4.</text>
          <elision> </elision>
          <syllabic>single</syllabic>
          <text>It</text>
        </lyric>
        <lyric default-y="-180" number="5">
          <syllabic>single</syllabic>
          <text>5.</text>
          <elision> </elision>
          <syllabic>single</syllabic>
          <text>To</text>
        </lyric>
      </note>
      <note default-x="74">
        <chord/>
        <pitch>
          <step>C</step>
          <octave>5</octave>
        </pitch>
        <duration>2</duration>
        <voice>1</voice>
        <type>quarter</type>
        <stem>up</stem>
      </note>
    </measure>
    <!--=======================================================-->
    <measure number="1" width="147">
      <note default-x="32">
        <pitch>
          <step>F</step>
          <octave>4</octave>
        </pitch>
        <duration>4</duration>
        <voice>1</voice>
        <type>half</type>
        <stem default-y="-61">down</stem>
        <notations>
          <slur default-y="0" number="1" placement="above" relative-x="17" type="start"/>
        </notations>
        <lyric default-y="-97" number="1">
          <syllabic>single</syllabic>
          <text>sing</text>
        </lyric>
        <lyric default-y="-118" number="2">
          <syllabic>end</syllabic>
          <text>scribed</text>
        </lyric>
        <lyric default-y="-139" number="3">
          <syllabic>single</syllabic>
          <text font-size="8.25" font-style="italic" font-weight="bold">cross!</text>
        </lyric>
        <lyric default-y="-160" number="4">
          <syllabic>single</syllabic>
          <text>makes</text>
        </lyric>
        <lyric default-y="-180" number="5">
          <syllabic>single</syllabic>
          <text>Christ,</text>
        </lyric>
      </note>
      <backup>
        <duration>4</duration>
      </backup>
      <note default-x="32">
        <pitch>
          <step>B</step>
          <octave>4</octave>
        </pitch>
        <duration>2</duration>
        <voice>2</voice>
        <type>quarter</type>
        <stem default-y="12">up</stem>
      </note>
      <note default-x="69">
        <pitch>
          <step>A</step>
          <octave>4</octave>
        </pitch>
        <duration>2</duration>
        <voice>2</voice>
        <type>quarter</type>
        <stem default-y="7">up</stem>
        <notations>
          <slur default-y="-4" number="1" type="stop"/>
        </notations>
      </note>
      <note default-x="108">
        <pitch>
          <step>G</step>
          <octave>4</octave>
        </pitch>
        <duration>2</duration>
        <voice>1</voice>
        <type>quarter</type>
        <stem default-y="11">up</stem>
        <lyric default-y="-97" number="1">
          <syllabic>single</syllabic>
          <text>the</text>
        </lyric>
        <lyric default-y="-118" number="2">
          <syllabic>begin</syllabic>
          <text>up</text>
        </lyric>
        <lyric default-y="-139" number="3">
          <syllabic>single</syllabic>
          <text font-size="8.25" font-style="italic" font-weight="bold">It</text>
        </lyric>
        <lyric default-y="-160" number="4">
          <syllabic>single</syllabic>
          <text>the</text>
        </lyric>
        <lyric default-y="-180" number="5">
          <syllabic>single</syllabic>
          <text>who</text>
        </lyric>
      </note>
      <note default-x="108">
        <chord/>
        <pitch>
          <step>C</step>
          <octave>5</octave>
        </pitch>
        <duration>2</duration>
        <voice>1</voice>
        <type>quarter</type>
        <stem>up</stem>
      </note>
    </measure>
    <!--=======================================================-->
    <measure number="2" width="133">
      <note default-x="26">
        <pitch>
          <step>G</step>
          <octave>4</octave>
        </pitch>
        <duration>4</duration>
        <voice>1</voice>
        <type>half</type>
        <stem default-y="2">up</stem>
        <notations>
          <slur default-y="-63" number="1" placement="below" relative-x="6" type="start"/>
        </notations>
        <lyric default-y="-97" number="1">
          <syllabic>single</syllabic>
          <text>praise</text>
        </lyric>
        <lyric default-y="-118" number="2">
          <syllabic>end</syllabic>
          <text>on</text>
        </lyric>
        <lyric default-y="-139" number="3">
          <syllabic>single</syllabic>
          <text font-size="8.25" font-style="italic" font-weight="bold">takes</text>
        </lyric>
        <lyric default-y="-160" number="4">
          <syllabic>begin</syllabic>
          <text>cow</text>
        </lyric>
        <lyric default-y="-180" number="5">
          <syllabic>single</syllabic>
          <text>won</text>
        </lyric>
      </note>
      <backup>
        <duration>4</duration>
      </backup>
      <note default-x="26">
        <pitch>
          <step>D</step>
          <octave>4</octave>
        </pitch>
        <duration>2</duration>
        <voice>2</voice>
        <type>quarter</type>
        <stem default-y="-71">down</stem>
      </note>
      <note default-x="61">
        <pitch>
          <step>C</step>
          <octave>4</octave>
        </pitch>
        <duration>2</duration>
        <voice>2</voice>
        <type>quarter</type>
        <stem default-y="-75">down</stem>
        <notations>
          <slur default-y="-65" number="1" type="stop"/>
        </notations>
      </note>
      <note default-x="96">
        <pitch>
          <step>F</step>
          <octave>4</octave>
        </pitch>
        <duration>2</duration>
        <voice>1</voice>
        <type>quarter</type>
        <stem default-y="7">up</stem>
        <lyric default-y="-97" number="1">
          <syllabic>single</syllabic>
          <text>of</text>
        </lyric>
        <lyric default-y="-118" number="2">
          <syllabic>single</syllabic>
          <text>the</text>
        </lyric>
        <lyric default-y="-139" number="3">
          <syllabic>single</syllabic>
          <text font-size="8.25" font-style="italic" font-weight="bold">our</text>
        </lyric>
        <lyric default-y="-160" number="4">
          <syllabic>end</syllabic>
          <text>ard</text>
        </lyric>
        <lyric default-y="-180" number="5">
          <syllabic>single</syllabic>
          <text>for</text>
        </lyric>
      </note>
      <note default-x="96">
        <chord/>
        <pitch>
          <step>A</step>
          <octave>4</octave>
        </pitch>
        <duration>2</duration>
        <voice>1</voice>
        <type>quarter</type>
        <stem>up</stem>
      </note>
    </measure>
    <!--=======================================================-->
    <measure number="3" width="145">
      <note default-x="23">
        <pitch>
          <step>C</step>
          <octave>4</octave>
        </pitch>
        <duration>4</duration>
        <voice>1</voice>
        <type>half</type>
        <stem default-y="-70">down</stem>
        <notations>
          <slur default-y="-15" number="1" placement="above" relative-x="14" type="start"/>
        </notations>
        <lyric default-y="-97" number="1">
          <syllabic>single</syllabic>
          <text>Him</text>
        </lyric>
        <lyric default-y="-118" number="2">
          <syllabic>single</syllabic>
          <text>cross</text>
        </lyric>
        <lyric default-y="-139" number="3">
          <syllabic>single</syllabic>
          <text font-size="8.25" font-style="italic" font-weight="bold">guilt</text>
        </lyric>
        <lyric default-y="-160" number="4">
          <syllabic>begin</syllabic>
          <text>spir</text>
        </lyric>
        <lyric default-y="-180" number="5">
          <syllabic>begin</syllabic>
          <text>sin</text>
        </lyric>
      </note>
      <backup>
        <duration>4</duration>
      </backup>
      <note default-x="23">
        <pitch>
          <step>E</step>
          <octave>4</octave>
        </pitch>
        <duration>2</duration>
        <voice>2</voice>
        <type>quarter</type>
        <stem default-y="-8">up</stem>
      </note>
      <note default-x="63">
        <pitch>
          <step>F</step>
          <octave>4</octave>
        </pitch>
        <duration>2</duration>
        <voice>2</voice>
        <type>quarter</type>
        <stem default-y="-3">up</stem>
        <notations>
          <slur default-y="-15" number="1" type="stop"/>
        </notations>
      </note>
      <note default-x="103">
        <pitch>
          <step>B</step>
          <octave>3</octave>
        </pitch>
        <duration>2</duration>
        <voice>1</voice>
        <type>quarter</type>
        <stem default-y="-13">up</stem>
        <lyric default-y="-97" number="1">
          <syllabic>single</syllabic>
          <text>who</text>
        </lyric>
        <lyric default-y="-118" number="2">
          <syllabic>single</syllabic>
          <text>we</text>
        </lyric>
        <lyric default-y="-139" number="3">
          <syllabic>begin</syllabic>
          <text font-size="8.25" font-style="italic" font-weight="bold">a</text>
        </lyric>
        <lyric default-y="-160" number="4">
          <syllabic>end</syllabic>
          <text>it</text>
        </lyric>
        <lyric default-y="-180" number="5">
          <syllabic>end</syllabic>
          <text>ners</text>
        </lyric>
      </note>
      <note default-x="103">
        <chord/>
        <pitch>
          <step>D</step>
          <octave>4</octave>
        </pitch>
        <duration>2</duration>
        <voice>1</voice>
        <type>quarter</type>
        <stem>up</stem>
      </note>
    </measure>
    <!--=======================================================-->
    <measure number="4" width="143">
      <note default-x="26">
        <pitch>
          <step>C</step>
          <octave>4</octave>
        </pitch>
        <duration>4</duration>
        <voice>1</voice>
        <type>half</type>
        <stem default-y="-18">up</stem>
        <notations>
          <slur default-y="-71" number="1" placement="below" relative-x="13" type="start"/>
        </notations>
        <lyric default-y="-97" number="1">
          <syllabic>single</syllabic>
          <text>died,</text>
        </lyric>
        <lyric default-y="-118" number="2">
          <syllabic>single</syllabic>
          <text>see,</text>
        </lyric>
        <lyric default-y="-139" number="3">
          <syllabic>end</syllabic>
          <text font-size="8.25" font-style="italic" font-weight="bold">way;</text>
        </lyric>
        <lyric default-y="-160" number="4">
          <syllabic>single</syllabic>
          <text>brave,</text>
        </lyric>
        <lyric default-y="-180" number="5">
          <syllabic>single</syllabic>
          <text>grace</text>
        </lyric>
      </note>
      <backup>
        <duration>4</duration>
      </backup>
      <note default-x="35">
        <pitch>
          <step>B</step>
          <octave>3</octave>
        </pitch>
        <duration>2</duration>
        <voice>2</voice>
        <type>quarter</type>
        <stem default-y="-77">down</stem>
      </note>
      <note default-x="65">
        <pitch>
          <step>A</step>
          <octave>3</octave>
        </pitch>
        <duration>2</duration>
        <voice>2</voice>
        <type>quarter</type>
        <stem default-y="-82">down</stem>
        <notations>
          <slur default-y="-71" number="1" type="stop"/>
        </notations>
      </note>
      <note default-x="103">
        <pitch>
          <step>G</step>
          <octave>3</octave>
        </pitch>
        <duration>2</duration>
        <voice>1</voice>
        <type>quarter</type>
        <stem default-y="-18">up</stem>
        <lyric default-y="-97" number="1">
          <syllabic>single</syllabic>
          <text>Of</text>
        </lyric>
        <lyric default-y="-118" number="2">
          <syllabic>single</syllabic>
          <text>In</text>
        </lyric>
        <lyric default-y="-139" number="3">
          <syllabic>single</syllabic>
          <text font-size="8.25" font-style="italic" font-weight="bold">It</text>
        </lyric>
        <lyric default-y="-160" number="4">
          <syllabic>single</syllabic>
          <text>And</text>
        </lyric>
        <lyric default-y="-180" number="5">
          <syllabic>single</syllabic>
          <text>By</text>
        </lyric>
      </note>
      <note default-x="103">
        <chord/>
        <pitch>
          <step>C</step>
          <octave>4</octave>
        </pitch>
        <duration>2</duration>
        <voice>1</voice>
        <type>quarter</type>
        <stem>up</stem>
      </note>
    </measure>
    <!--=======================================================-->
    <measure number="5" width="148">
      <note default-x="29">
        <pitch>
          <step>C</step>
          <octave>4</octave>
        </pitch>
        <duration>4</duration>
        <voice>1</voice>
        <type>half</type>
        <stem default-y="-3">up</stem>
        <lyric default-y="-97" number="1">
          <syllabic>single</syllabic>
          <text>Him</text>
        </lyric>
        <lyric default-y="-118" number="2">
          <syllabic>begin</syllabic>
          <text>shin</text>
        </lyric>
        <lyric default-y="-139" number="3">
          <syllabic>single</syllabic>
          <text font-size="8.25" font-style="italic" font-weight="bold">holds</text>
        </lyric>
        <lyric default-y="-160" number="4">
          <syllabic>single</syllabic>
          <text>nerves</text>
        </lyric>
        <lyric default-y="-180" number="5">
          <syllabic>begin</syllabic>
          <text>bit</text>
        </lyric>
      </note>
      <note default-x="29">
        <chord/>
        <pitch>
          <step>F</step>
          <octave>4</octave>
        </pitch>
        <duration>4</duration>
        <voice>1</voice>
        <type>half</type>
        <stem>up</stem>
      </note>
      <note default-x="107">
        <pitch>
          <step>E</step>
          <octave>4</octave>
        </pitch>
        <duration>2</duration>
        <voice>1</voice>
        <type>quarter</type>
        <stem>double</stem>
        <lyric default-y="-97" number="1">
          <syllabic>single</syllabic>
          <text>who</text>
        </lyric>
        <lyric default-y="-118" number="2">
          <syllabic>end</syllabic>
          <text>ing</text>
        </lyric>
        <lyric default-y="-139" number="3">
          <syllabic>single</syllabic>
          <text font-size="8.25" font-style="italic" font-weight="bold">the</text>
        </lyric>
        <lyric default-y="-160" number="4">
          <syllabic>single</syllabic>
          <text>the</text>
        </lyric>
        <lyric default-y="-180" number="5">
          <syllabic>end</syllabic>
          <text>ter</text>
        </lyric>
      </note>
    </measure>
    <!--=======================================================-->
    <measure number="6" width="186">
      <print new-system="yes"/>
      <note default-x="53">
        <pitch>
          <step>A</step>
          <octave>4</octave>
        </pitch>
        <duration>4</duration>
        <voice>1</voice>
        <type>half</type>
        <stem default-y="7">up</stem>
        <notations>
          <slur default-y="-57" number="1" placement="below" relative-x="5" type="start"/>
        </notations>
        <lyric default-y="-89" number="1">
          <syllabic>single</syllabic>
          <text>died</text>
        </lyric>
        <lyric default-y="-110" number="2">
          <syllabic>begin</syllabic>
          <text>let</text>
        </lyric>
        <lyric default-y="-130" number="3">
          <syllabic>begin</syllabic>
          <text font-size="8.25" font-style="italic" font-weight="bold">faint</text>
        </lyric>
        <lyric default-y="-151" number="4">
          <syllabic>begin</syllabic>
          <text>fee</text>
        </lyric>
        <lyric default-y="-172" number="5">
          <syllabic>single</syllabic>
          <text>grief</text>
        </lyric>
      </note>
      <backup>
        <duration>4</duration>
      </backup>
      <note default-x="53">
        <pitch>
          <step>E</step>
          <octave>4</octave>
        </pitch>
        <duration>2</duration>
        <voice>2</voice>
        <type>quarter</type>
        <stem default-y="-64">down</stem>
      </note>
      <note default-x="92">
        <pitch>
          <step>D</step>
          <octave>4</octave>
        </pitch>
        <duration>2</duration>
        <voice>2</voice>
        <type>quarter</type>
        <stem default-y="-69">down</stem>
        <notations>
          <slur default-y="-61" number="1" type="stop"/>
        </notations>
      </note>
      <note default-x="128">
        <pitch>
          <step>D</step>
          <octave>4</octave>
        </pitch>
        <duration>2</duration>
        <voice>1</voice>
        <type>quarter</type>
        <stem default-y="2">up</stem>
        <lyric default-y="-89" number="1">
          <syllabic>begin</syllabic>
          <text>up</text>
        </lyric>
        <lyric default-y="-110" number="2">
          <syllabic>end</syllabic>
          <text>ters,</text>
        </lyric>
        <lyric default-y="-130" number="3">
          <syllabic>end</syllabic>
          <text font-size="8.25" font-style="italic" font-weight="bold">ing</text>
        </lyric>
        <lyric default-y="-151" number="4">
          <syllabic>end</syllabic>
          <text>ble</text>
        </lyric>
        <lyric default-y="-172" number="5">
          <syllabic>single</syllabic>
          <text>and</text>
        </lyric>
      </note>
      <note default-x="128">
        <chord/>
        <pitch>
          <step>G</step>
          <octave>4</octave>
        </pitch>
        <duration>2</duration>
        <voice>1</voice>
        <type>quarter</type>
        <stem>up</stem>
      </note>
    </measure>
    <!--=======================================================-->
    <measure number="7" width="172">
      <note default-x="22">
        <pitch>
          <step>C</step>
          <octave>5</octave>
        </pitch>
        <duration>4</duration>
        <voice>1</voice>
        <type>half</type>
        <stem default-y="11">up</stem>
        <notations>
          <slur default-y="-47" number="1" placement="below" relative-x="6" type="start"/>
        </notations>
        <lyric default-y="-89" number="1">
          <syllabic>end</syllabic>
          <text>on</text>
        </lyric>
        <lyric default-y="-110" number="2">
          <syllabic>single</syllabic>
          <text>“God</text>
        </lyric>
        <lyric default-y="-130" number="3">
          <syllabic>begin</syllabic>
          <text font-size="8.25" font-style="italic" font-weight="bold">spir</text>
        </lyric>
        <lyric default-y="-151" number="4">
          <syllabic>single</syllabic>
          <text>arm</text>
        </lyric>
        <lyric default-y="-172" number="5">
          <syllabic>begin</syllabic>
          <text>an</text>
        </lyric>
      </note>
      <backup>
        <duration>4</duration>
      </backup>
      <note default-x="22">
        <pitch>
          <step>G</step>
          <octave>4</octave>
        </pitch>
        <duration>2</duration>
        <voice>2</voice>
        <type>quarter</type>
        <stem default-y="-56">down</stem>
      </note>
      <note default-x="64">
        <pitch>
          <step>A</step>
          <octave>4</octave>
        </pitch>
        <duration>1</duration>
        <voice>2</voice>
        <type>eighth</type>
        <stem default-y="-52.5">down</stem>
        <beam number="1">begin</beam>
      </note>
      <note default-x="87">
        <pitch>
          <step>G</step>
          <octave>4</octave>
        </pitch>
        <duration>1</duration>
        <voice>2</voice>
        <type>eighth</type>
        <stem default-y="-57.5">down</stem>
        <beam number="1">end</beam>
        <notations>
          <slur default-y="-60" number="1" type="stop"/>
        </notations>
      </note>
      <note default-x="126">
        <pitch>
          <step>F</step>
          <alter>1</alter>
          <octave>4</octave>
        </pitch>
        <duration>2</duration>
        <voice>1</voice>
        <type>quarter</type>
        <accidental>sharp</accidental>
        <stem default-y="16">up</stem>
        <lyric default-y="-89" number="1">
          <syllabic>single</syllabic>
          <text>the</text>
        </lyric>
        <lyric default-y="-110" number="2">
          <syllabic>single</syllabic>
          <text>is</text>
        </lyric>
        <lyric default-y="-130" number="3">
          <syllabic>end</syllabic>
          <text font-size="8.25" font-style="italic" font-weight="bold">it</text>
        </lyric>
        <lyric default-y="-151" number="4">
          <syllabic>single</syllabic>
          <text>for</text>
        </lyric>
        <lyric default-y="-172" number="5">
          <syllabic>end</syllabic>
          <text>guish</text>
        </lyric>
      </note>
      <note default-x="126">
        <chord/>
        <pitch>
          <step>D</step>
          <octave>5</octave>
        </pitch>
        <duration>2</duration>
        <voice>1</voice>
        <type>quarter</type>
        <stem>up</stem>
      </note>
    </measure>
    <!--=======================================================-->
    <measure number="8" width="158">
      <note default-x="24">
        <pitch>
          <step>G</step>
          <octave>4</octave>
        </pitch>
        <duration>4</duration>
        <voice>1</voice>
        <type>half</type>
        <stem>double</stem>
        <lyric default-y="-89" number="1">
          <syllabic>single</syllabic>
          <text>cross;</text>
        </lyric>
        <lyric default-y="-110" number="2">
          <syllabic>single</syllabic>
          <text>love.”</text>
        </lyric>
        <lyric default-y="-130" number="3">
          <syllabic>single</syllabic>
          <text font-size="8.25" font-style="italic" font-weight="bold">up;</text>
        </lyric>
        <lyric default-y="-151" number="4">
          <syllabic>single</syllabic>
          <text>fight;</text>
        </lyric>
        <lyric default-y="-172" number="5">
          <syllabic>single</syllabic>
          <text>sore,</text>
        </lyric>
      </note>
      <note default-x="94">
        <pitch>
          <step>G</step>
          <octave>4</octave>
        </pitch>
        <duration>2</duration>
        <voice>1</voice>
        <type>quarter</type>
        <stem>double</stem>
        <lyric default-y="-89" number="1">
          <syllabic>single</syllabic>
          <text>The</text>
        </lyric>
        <lyric default-y="-110" number="2">
          <syllabic>single</syllabic>
          <text>He</text>
        </lyric>
        <lyric default-y="-130" number="3">
          <syllabic>single</syllabic>
          <text font-size="8.25" font-style="italic" font-weight="bold">It</text>
        </lyric>
        <lyric default-y="-151" number="4">
          <syllabic>single</syllabic>
          <text>It</text>
        </lyric>
        <lyric default-y="-172" number="5">
          <syllabic>single</syllabic>
          <text>Be</text>
        </lyric>
      </note>
    </measure>
    <!--=======================================================-->
    <measure number="9" width="178">
      <note default-x="27">
        <pitch>
          <step>G</step>
          <octave>4</octave>
        </pitch>
        <duration>4</duration>
        <voice>1</voice>
        <type>half</type>
        <stem default-y="11">up</stem>
        <lyric default-y="-89" number="1">
          <syllabic>begin</syllabic>
          <text>sin</text>
        </lyric>
        <lyric default-y="-110" number="2">
          <syllabic>single</syllabic>
          <text>bears</text>
        </lyric>
        <lyric default-y="-130" number="3">
          <syllabic>single</syllabic>
          <text font-size="8.25" font-style="italic" font-weight="bold">cheers</text>
        </lyric>
        <lyric default-y="-151" number="4">
          <syllabic>single</syllabic>
          <text>takes</text>
        </lyric>
        <lyric default-y="-172" number="5">
          <syllabic>single</syllabic>
          <text>praise</text>
        </lyric>
      </note>
      <note default-x="27">
        <chord/>
        <pitch>
          <step>C</step>
          <octave>5</octave>
        </pitch>
        <duration>4</duration>
        <voice>1</voice>
        <type>half</type>
        <stem>up</stem>
      </note>
      <note default-x="111">
        <pitch>
          <step>F</step>
          <octave>4</octave>
        </pitch>
        <duration>2</duration>
        <voice>1</voice>
        <type>quarter</type>
        <stem default-y="7">up</stem>
        <lyric default-y="-89" number="1">
          <syllabic>end</syllabic>
          <text>ner’s</text>
        </lyric>
        <lyric default-y="-110" number="2">
          <syllabic>single</syllabic>
          <text>our</text>
        </lyric>
        <lyric default-y="-130" number="3">
          <syllabic>single</syllabic>
          <text font-size="8.25" font-style="italic" font-weight="bold">with</text>
        </lyric>
        <lyric default-y="-151" number="4">
          <syllabic>single</syllabic>
          <text>its</text>
        </lyric>
        <lyric default-y="-172" number="5">
          <syllabic>single</syllabic>
          <text>from</text>
        </lyric>
      </note>
      <note default-x="111">
        <chord/>
        <pitch>
          <step>A</step>
          <octave>4</octave>
        </pitch>
        <duration>2</duration>
        <voice>1</voice>
        <type>quarter</type>
        <stem>up</stem>
      </note>
    </measure>
    <!--=======================================================-->
    <measure number="10" width="153">
      <note default-x="22">
        <pitch>
          <step>D</step>
          <octave>4</octave>
        </pitch>
        <duration>4</duration>
        <voice>1</voice>
        <type>half</type>
        <stem default-y="2">up</stem>
        <lyric default-y="-89" number="1">
          <syllabic>single</syllabic>
          <text>hope</text>
        </lyric>
        <lyric default-y="-110" number="2">
          <syllabic>single</syllabic>
          <text>sins</text>
        </lyric>
        <lyric default-y="-130" number="3">
          <syllabic>single</syllabic>
          <text font-size="8.25" font-style="italic" font-weight="bold">hope</text>
        </lyric>
        <lyric default-y="-151" number="4">
          <syllabic>begin</syllabic>
          <text>ter</text>
        </lyric>
        <lyric default-y="-172" number="5">
          <syllabic>single</syllabic>
          <text>all</text>
        </lyric>
      </note>
      <note default-x="22">
        <chord/>
        <pitch>
          <step>G</step>
          <octave>4</octave>
        </pitch>
        <duration>4</duration>
        <voice>1</voice>
        <type>half</type>
        <stem>up</stem>
      </note>
      <note default-x="97">
        <pitch>
          <step>G</step>
          <octave>4</octave>
        </pitch>
        <duration>2</duration>
        <voice>1</voice>
        <type>quarter</type>
        <stem default-y="-56">down</stem>
        <lyric default-y="-89" number="1">
          <syllabic>single</syllabic>
          <text>let</text>
        </lyric>
        <lyric default-y="-110" number="2">
          <syllabic>begin</syllabic>
          <text>up</text>
        </lyric>
        <lyric default-y="-130" number="3">
          <syllabic>single</syllabic>
          <text font-size="8.25" font-style="italic" font-weight="bold">the</text>
        </lyric>
        <lyric default-y="-151" number="4">
          <syllabic>end</syllabic>
          <text>ror</text>
        </lyric>
        <lyric default-y="-172" number="5">
          <syllabic>single</syllabic>
          <text>the</text>
        </lyric>
      </note>
      <backup>
        <duration>2</duration>
      </backup>
      <note default-x="97">
        <pitch>
          <step>G</step>
          <octave>4</octave>
        </pitch>
        <duration>1</duration>
        <voice>2</voice>
        <type>eighth</type>
        <stem default-y="1">up</stem>
        <beam number="1">begin</beam>
      </note>
      <note default-x="126">
        <pitch>
          <step>A</step>
          <octave>4</octave>
        </pitch>
        <duration>1</duration>
        <voice>2</voice>
        <type>eighth</type>
        <stem default-y="6">up</stem>
        <beam number="1">end</beam>
      </note>
    </measure>
    <!--=======================================================-->
    <measure number="11" width="185">
      <print new-system="yes"/>
      <note default-x="58">
        <pitch>
          <step>F</step>
          <octave>4</octave>
        </pitch>
        <duration>4</duration>
        <voice>1</voice>
        <type>half</type>
        <stem default-y="-61">down</stem>
        <notations>
          <slur default-y="7" number="1" placement="above" relative-x="18" type="start"/>
        </notations>
        <lyric default-y="-89" number="1">
          <syllabic>single</syllabic>
          <text>none</text>
        </lyric>
        <lyric default-y="-110" number="2">
          <syllabic>end</syllabic>
          <text>on</text>
        </lyric>
        <lyric default-y="-130" number="3">
          <syllabic>begin</syllabic>
          <text font-size="8.25" font-style="italic" font-weight="bold">gloom</text>
        </lyric>
        <lyric default-y="-151" number="4">
          <syllabic>single</syllabic>
          <text>from</text>
        </lyric>
        <lyric default-y="-172" number="5">
          <syllabic>begin</syllabic>
          <text>ran</text>
        </lyric>
      </note>
      <backup>
        <duration>4</duration>
      </backup>
      <note default-x="58">
        <pitch>
          <step>B</step>
          <alter>-1</alter>
          <octave>4</octave>
        </pitch>
        <duration>2</duration>
        <voice>2</voice>
        <type>quarter</type>
        <accidental>flat</accidental>
        <stem default-y="12">up</stem>
      </note>
      <note default-x="97">
        <pitch>
          <step>D</step>
          <octave>5</octave>
        </pitch>
        <duration>2</duration>
        <voice>2</voice>
        <type>quarter</type>
        <stem default-y="16.5">up</stem>
        <notations>
          <slur default-y="12" number="1" type="stop"/>
        </notations>
      </note>
      <note default-x="133">
        <pitch>
          <step>G</step>
          <octave>4</octave>
        </pitch>
        <duration>2</duration>
        <voice>1</voice>
        <type>quarter</type>
        <stem default-y="-56">down</stem>
        <lyric default-y="-89" number="1">
          <syllabic>begin</syllabic>
          <text>de</text>
        </lyric>
        <lyric default-y="-110" number="2">
          <syllabic>single</syllabic>
          <text>the</text>
        </lyric>
        <lyric default-y="-130" number="3">
          <syllabic>end</syllabic>
          <text font-size="8.25" font-style="italic" font-weight="bold">y</text>
        </lyric>
        <lyric default-y="-151" number="4">
          <syllabic>single</syllabic>
          <text>the</text>
        </lyric>
        <lyric default-y="-172" number="5">
          <syllabic>end</syllabic>
          <text>somed</text>
        </lyric>
      </note>
      <backup>
        <duration>2</duration>
      </backup>
      <note default-x="133">
        <pitch>
          <step>C</step>
          <octave>5</octave>
        </pitch>
        <duration>1</duration>
        <voice>2</voice>
        <type>eighth</type>
        <stem default-y="16.5">up</stem>
        <beam number="1">begin</beam>
      </note>
      <note default-x="163">
        <pitch>
          <step>B</step>
          <alter>-1</alter>
          <octave>4</octave>
        </pitch>
        <duration>1</duration>
        <voice>2</voice>
        <type>eighth</type>
        <stem default-y="11.5">up</stem>
        <beam number="1">end</beam>
      </note>
    </measure>
    <!--=======================================================-->
    <measure number="12" width="136">
      <note default-x="20">
        <pitch>
          <step>A</step>
          <octave>4</octave>
        </pitch>
        <duration>4</duration>
        <voice>1</voice>
        <type>half</type>
        <stem default-y="7">up</stem>
        <notations>
          <slur default-y="-47" number="1" placement="below" relative-x="13" type="start"/>
        </notations>
        <lyric default-y="-89" number="1">
          <syllabic>end</syllabic>
          <text>ride;</text>
        </lyric>
        <lyric default-y="-110" number="2">
          <syllabic>single</syllabic>
          <text>tree;</text>
        </lyric>
        <lyric default-y="-130" number="3">
          <syllabic>single</syllabic>
          <text font-size="8.25" font-style="italic" font-weight="bold">day</text>
        </lyric>
        <lyric default-y="-151" number="4">
          <syllabic>single</syllabic>
          <text>grave</text>
        </lyric>
        <lyric default-y="-172" number="5">
          <syllabic>single</syllabic>
          <text>race</text>
        </lyric>
      </note>
      <backup>
        <duration>4</duration>
      </backup>
      <note default-x="28">
        <pitch>
          <step>G</step>
          <octave>4</octave>
        </pitch>
        <duration>2</duration>
        <voice>2</voice>
        <type>quarter</type>
        <stem default-y="-56">down</stem>
      </note>
      <note default-x="55">
        <pitch>
          <step>F</step>
          <octave>4</octave>
        </pitch>
        <duration>2</duration>
        <voice>2</voice>
        <type>quarter</type>
        <stem default-y="-61">down</stem>
        <notations>
          <slur default-y="-49" number="1" type="stop"/>
        </notations>
      </note>
      <note default-x="88">
        <pitch>
          <step>G</step>
          <octave>4</octave>
        </pitch>
        <duration>2</duration>
        <voice>1</voice>
        <type>quarter</type>
        <stem default-y="2">up</stem>
        <lyric default-y="-89" number="1">
          <syllabic>single</syllabic>
          <text>For</text>
        </lyric>
        <lyric default-y="-110" number="2">
          <syllabic>single</syllabic>
          <text>He</text>
        </lyric>
        <lyric default-y="-130" number="3">
          <syllabic>single</syllabic>
          <text font-size="8.25" font-style="italic" font-weight="bold">And</text>
        </lyric>
        <lyric default-y="-151" number="4">
          <syllabic>single</syllabic>
          <text>And</text>
        </lyric>
        <lyric default-y="-172" number="5">
          <syllabic>begin</syllabic>
          <text>For</text>
        </lyric>
      </note>
      <backup>
        <duration>2</duration>
      </backup>
      <note default-x="88">
        <pitch>
          <step>E</step>
          <octave>4</octave>
        </pitch>
        <duration>1</duration>
        <voice>2</voice>
        <type>eighth</type>
        <stem default-y="-67">down</stem>
        <beam number="1">begin</beam>
      </note>
      <note default-x="115">
        <pitch>
          <step>D</step>
          <octave>4</octave>
        </pitch>
        <duration>1</duration>
        <voice>2</voice>
        <type>eighth</type>
        <stem default-y="-72">down</stem>
        <beam number="1">end</beam>
      </note>
    </measure>
    <!--=======================================================-->
    <measure number="13" width="133">
      <note default-x="28">
        <pitch>
          <step>E</step>
          <octave>5</octave>
        </pitch>
        <duration>4</duration>
        <voice>1</voice>
        <type>half</type>
        <stem default-y="21.5">up</stem>
        <notations>
          <slur default-y="-57" number="1" placement="below" relative-x="4" type="start"/>
        </notations>
        <lyric default-y="-89" number="1">
          <syllabic>single</syllabic>
          <text>this</text>
        </lyric>
        <lyric default-y="-110" number="2">
          <syllabic>single</syllabic>
          <text>brings</text>
        </lyric>
        <lyric default-y="-130" number="3">
          <syllabic>begin</syllabic>
          <text font-size="8.25" font-style="italic" font-weight="bold">sweet</text>
        </lyric>
        <lyric default-y="-151" number="4">
          <syllabic>single</syllabic>
          <text>gilds</text>
        </lyric>
        <lyric default-y="-172" number="5">
          <syllabic>middle</syllabic>
          <text>ev</text>
        </lyric>
      </note>
      <backup>
        <duration>4</duration>
      </backup>
      <note default-x="28">
        <pitch>
          <step>E</step>
          <octave>4</octave>
        </pitch>
        <duration>2</duration>
        <voice>2</voice>
        <type>quarter</type>
        <stem default-y="-66">down</stem>
      </note>
      <note default-x="63">
        <pitch>
          <step>G</step>
          <octave>4</octave>
        </pitch>
        <duration>2</duration>
        <voice>2</voice>
        <type>quarter</type>
        <stem default-y="-56">down</stem>
        <notations>
          <slur default-y="-51" number="1" type="stop"/>
        </notations>
      </note>
      <note default-x="97">
        <pitch>
          <step>F</step>
          <octave>4</octave>
        </pitch>
        <duration>2</duration>
        <voice>1</voice>
        <type>quarter</type>
        <stem default-y="12">up</stem>
        <lyric default-y="-89" number="1">
          <syllabic>single</syllabic>
          <text>we</text>
        </lyric>
        <lyric default-y="-110" number="2">
          <syllabic>single</syllabic>
          <text>us</text>
        </lyric>
        <lyric default-y="-130" number="3">
          <syllabic>end</syllabic>
          <text font-size="8.25" font-style="italic" font-weight="bold">ens</text>
        </lyric>
        <lyric default-y="-151" number="4">
          <syllabic>single</syllabic>
          <text>the</text>
        </lyric>
        <lyric default-y="-172" number="5">
          <syllabic>end</syllabic>
          <text>er</text>
        </lyric>
      </note>
      <note default-x="97">
        <chord/>
        <pitch>
          <step>B</step>
          <octave>4</octave>
        </pitch>
        <duration>2</duration>
        <voice>1</voice>
        <type>quarter</type>
        <stem>up</stem>
      </note>
    </measure>
    <!--=======================================================-->
    <measure number="14" width="143">
      <note default-x="25">
        <pitch>
          <step>F</step>
          <octave>4</octave>
        </pitch>
        <duration>2</duration>
        <voice>1</voice>
        <type>quarter</type>
        <stem default-y="16.5">up</stem>
        <notations>
          <slur default-y="5" number="1" placement="above" relative-x="15" type="start"/>
          <slur default-y="-45" number="2" placement="below" relative-x="6" type="start"/>
        </notations>
        <lyric default-y="-89" number="1">
          <syllabic>single</syllabic>
          <text>count</text>
        </lyric>
        <lyric default-y="-110" number="2">
          <syllabic>begin</syllabic>
          <text>mer</text>
        </lyric>
        <lyric default-y="-130" number="3">
          <syllabic>begin</syllabic>
          <text font-size="8.25" font-style="italic" font-weight="bold">ev</text>
        </lyric>
        <lyric default-y="-151" number="4">
          <syllabic>single</syllabic>
          <text>bed</text>
        </lyric>
        <lyric default-y="-172" number="5">
          <syllabic>single</syllabic>
          <text>and</text>
        </lyric>
      </note>
      <note default-x="25">
        <chord/>
        <pitch>
          <step>D</step>
          <octave>5</octave>
        </pitch>
        <duration>2</duration>
        <voice>1</voice>
        <type>quarter</type>
        <stem>up</stem>
      </note>
      <note default-x="66">
        <pitch>
          <step>E</step>
          <octave>4</octave>
        </pitch>
        <duration>2</duration>
        <voice>1</voice>
        <type>quarter</type>
        <stem default-y="11.5">up</stem>
        <notations>
          <slur default-y="2" number="1" type="stop"/>
          <slur default-y="-49" number="2" type="stop"/>
        </notations>
      </note>
      <note default-x="66">
        <chord/>
        <pitch>
          <step>C</step>
          <octave>5</octave>
        </pitch>
        <duration>2</duration>
        <voice>1</voice>
        <type>quarter</type>
        <stem>up</stem>
      </note>
      <note default-x="103">
        <pitch>
          <step>F</step>
          <octave>4</octave>
        </pitch>
        <duration>2</duration>
        <voice>1</voice>
        <type>quarter</type>
        <stem default-y="7">up</stem>
        <lyric default-y="-89" number="1">
          <syllabic>single</syllabic>
          <text>the</text>
        </lyric>
        <lyric default-y="-110" number="2">
          <syllabic>end</syllabic>
          <text>cy</text>
        </lyric>
        <lyric default-y="-130" number="3">
          <syllabic>end</syllabic>
          <text font-size="8.25" font-style="italic" font-weight="bold">’ry</text>
        </lyric>
        <lyric default-y="-151" number="4">
          <syllabic>single</syllabic>
          <text>of</text>
        </lyric>
        <lyric default-y="-172" number="5">
          <syllabic>begin</syllabic>
          <text>for</text>
        </lyric>
      </note>
      <note default-x="103">
        <chord/>
        <pitch>
          <step>A</step>
          <octave>4</octave>
        </pitch>
        <duration>2</duration>
        <voice>1</voice>
        <type>quarter</type>
        <stem>up</stem>
      </note>
    </measure>
    <!--=======================================================-->
    <measure number="15" width="162">
      <note default-x="25">
        <pitch>
          <step>E</step>
          <octave>4</octave>
        </pitch>
        <duration>2</duration>
        <voice>1</voice>
        <type>quarter</type>
        <stem default-y="2">up</stem>
        <notations>
          <slur default-y="-15" number="1" placement="above" relative-x="15" type="start"/>
          <slur default-y="-48" number="2" placement="below" relative-x="4" type="start"/>
        </notations>
        <lyric default-y="-89" number="1">
          <syllabic>single</syllabic>
          <text>world</text>
        </lyric>
        <lyric default-y="-110" number="2">
          <syllabic>single</syllabic>
          <text>from</text>
        </lyric>
        <lyric default-y="-130" number="3">
          <syllabic>begin</syllabic>
          <text font-size="8.25" font-style="italic" font-weight="bold">bit</text>
        </lyric>
        <lyric default-y="-151" number="4">
          <syllabic>single</syllabic>
          <text>death</text>
        </lyric>
        <lyric default-y="-172" number="5">
          <syllabic>middle</syllabic>
          <text>ev</text>
        </lyric>
      </note>
      <note default-x="25">
        <chord/>
        <pitch>
          <step>G</step>
          <octave>4</octave>
        </pitch>
        <duration>2</duration>
        <voice>1</voice>
        <type>quarter</type>
        <stem>up</stem>
      </note>
      <note default-x="70">
        <pitch>
          <step>C</step>
          <octave>4</octave>
        </pitch>
        <duration>2</duration>
        <voice>1</voice>
        <type>quarter</type>
        <stem default-y="-8">up</stem>
        <notations>
          <slur default-y="-24" number="1" type="stop"/>
          <slur default-y="-57" number="2" type="stop"/>
        </notations>
      </note>
      <note default-x="70">
        <chord/>
        <pitch>
          <step>E</step>
          <octave>4</octave>
        </pitch>
        <duration>2</duration>
        <voice>1</voice>
        <type>quarter</type>
        <stem>up</stem>
      </note>
      <note default-x="115">
        <pitch>
          <step>B</step>
          <octave>3</octave>
        </pitch>
        <duration>2</duration>
        <voice>1</voice>
        <type>quarter</type>
        <stem default-y="-13">up</stem>
        <lyric default-y="-89" number="1">
          <syllabic>single</syllabic>
          <text>but</text>
        </lyric>
        <lyric default-y="-110" number="2">
          <syllabic>begin</syllabic>
          <text>a</text>
        </lyric>
        <lyric default-y="-130" number="3">
          <syllabic>end</syllabic>
          <text font-size="8.25" font-style="italic" font-weight="bold">ter</text>
        </lyric>
        <lyric default-y="-151" number="4">
          <syllabic>single</syllabic>
          <text>with</text>
        </lyric>
        <lyric default-y="-172" number="5">
          <syllabic>middle</syllabic>
          <text>er</text>
        </lyric>
      </note>
      <note default-x="115">
        <chord/>
        <pitch>
          <step>D</step>
          <octave>4</octave>
        </pitch>
        <duration>2</duration>
        <voice>1</voice>
        <type>quarter</type>
        <stem>up</stem>
      </note>
    </measure>
    <!--=======================================================-->
    <measure number="16" width="88">
      <note default-x="26">
        <pitch>
          <step>C</step>
          <octave>4</octave>
        </pitch>
        <duration>4</duration>
        <voice>1</voice>
        <type>half</type>
        <stem>double</stem>
        <lyric default-y="-89" number="1">
          <syllabic>single</syllabic>
          <text>loss.</text>
        </lyric>
        <lyric default-y="-110" number="2">
          <syllabic>end</syllabic>
          <text>bove.</text>
        </lyric>
        <lyric default-y="-130" number="3">
          <syllabic>single</syllabic>
          <text font-size="8.25" font-style="italic" font-weight="bold">cup.</text>
        </lyric>
        <lyric default-y="-151" number="4">
          <syllabic>single</syllabic>
          <text>light;</text>
        </lyric>
        <lyric default-y="-172" number="5">
          <syllabic>end</syllabic>
          <text>more.</text>
        </lyric>
      </note>
      <barline location="right">
        <bar-style>light-heavy</bar-style>
      </barline>
    </measure>
  </part>
  <!--=========================================================-->
  <part id="P2">
    <measure implicit="yes" number="0" width="130">
      <print>
        <staff-layout number="1">
          <staff-distance>184</staff-distance>
        </staff-layout>
        <measure-numbering>none</measure-numbering>
      </print>
      <attributes>
        <divisions>2</divisions>
        <key>
          <fifths>0</fifths>
          <mode>major</mode>
        </key>
        <time>
          <beats>3</beats>
          <beat-type>4</beat-type>
        </time>
        <clef>
          <sign>F</sign>
          <line>4</line>
        </clef>
      </attributes>
      <sound tempo="100"/>
      <note default-x="74">
        <pitch>
          <step>C</step>
          <octave>3</octave>
        </pitch>
        <duration>2</duration>
        <voice>1</voice>
        <type>quarter</type>
        <stem default-y="-51">down</stem>
      </note>
      <note default-x="74">
        <chord/>
        <pitch>
          <step>E</step>
          <octave>4</octave>
        </pitch>
        <duration>2</duration>
        <voice>1</voice>
        <type>quarter</type>
        <stem>down</stem>
      </note>
    </measure>
    <!--=======================================================-->
    <measure number="1" width="147">
      <note default-x="32">
        <pitch>
          <step>D</step>
          <octave>3</octave>
        </pitch>
        <duration>4</duration>
        <voice>1</voice>
        <type>half</type>
        <stem default-y="-52">down</stem>
      </note>
      <note default-x="32">
        <chord/>
        <pitch>
          <step>D</step>
          <octave>4</octave>
        </pitch>
        <duration>4</duration>
        <voice>1</voice>
        <type>half</type>
        <stem>down</stem>
      </note>
      <note default-x="108">
        <pitch>
          <step>E</step>
          <octave>3</octave>
        </pitch>
        <duration>2</duration>
        <voice>1</voice>
        <type>quarter</type>
        <stem default-y="-47">down</stem>
      </note>
      <note default-x="108">
        <chord/>
        <pitch>
          <step>C</step>
          <octave>4</octave>
        </pitch>
        <duration>2</duration>
        <voice>1</voice>
        <type>quarter</type>
        <stem>down</stem>
      </note>
    </measure>
    <!--=======================================================-->
    <measure number="2" width="133">
      <note default-x="26">
        <pitch>
          <step>F</step>
          <octave>3</octave>
        </pitch>
        <duration>2</duration>
        <voice>1</voice>
        <type>quarter</type>
        <stem default-y="-42">down</stem>
        <notations>
          <slur default-y="18" number="1" placement="above" relative-x="7" type="start"/>
          <slur default-y="-26" number="2" placement="below" relative-x="5" type="start"/>
        </notations>
      </note>
      <note default-x="26">
        <chord/>
        <pitch>
          <step>B</step>
          <octave>3</octave>
        </pitch>
        <duration>2</duration>
        <voice>1</voice>
        <type>quarter</type>
        <stem>down</stem>
      </note>
      <note default-x="61">
        <pitch>
          <step>E</step>
          <octave>3</octave>
        </pitch>
        <duration>2</duration>
        <voice>1</voice>
        <type>quarter</type>
        <stem default-y="-47">down</stem>
        <notations>
          <slur default-y="20" number="1" type="stop"/>
          <slur default-y="-29" number="2" type="stop"/>
        </notations>
      </note>
      <note default-x="61">
        <chord/>
        <pitch>
          <step>C</step>
          <octave>4</octave>
        </pitch>
        <duration>2</duration>
        <voice>1</voice>
        <type>quarter</type>
        <stem>down</stem>
      </note>
      <note default-x="96">
        <pitch>
          <step>D</step>
          <octave>3</octave>
        </pitch>
        <duration>2</duration>
        <voice>1</voice>
        <type>quarter</type>
        <stem default-y="-52">down</stem>
      </note>
      <note default-x="96">
        <chord/>
        <pitch>
          <step>C</step>
          <octave>4</octave>
        </pitch>
        <duration>2</duration>
        <voice>1</voice>
        <type>quarter</type>
        <stem>down</stem>
      </note>
    </measure>
    <!--=======================================================-->
    <measure number="3" width="145">
      <note default-x="23">
        <pitch>
          <step>G</step>
          <octave>3</octave>
        </pitch>
        <duration>4</duration>
        <voice>1</voice>
        <type>half</type>
        <stem default-y="-37">down</stem>
        <notations>
          <slur default-y="26" number="1" placement="above" relative-x="17" type="start"/>
        </notations>
      </note>
      <backup>
        <duration>4</duration>
      </backup>
      <note default-x="23">
        <pitch>
          <step>C</step>
          <octave>4</octave>
        </pitch>
        <duration>2</duration>
        <voice>2</voice>
        <type>quarter</type>
        <stem default-y="33">up</stem>
      </note>
      <note default-x="63">
        <pitch>
          <step>A</step>
          <octave>3</octave>
        </pitch>
        <duration>2</duration>
        <voice>2</voice>
        <type>quarter</type>
        <stem default-y="27">up</stem>
        <notations>
          <slur default-y="22" number="1" type="stop"/>
        </notations>
      </note>
      <note default-x="103">
        <pitch>
          <step>G</step>
          <octave>2</octave>
        </pitch>
        <duration>2</duration>
        <voice>1</voice>
        <type>quarter</type>
        <stem default-y="17">up</stem>
      </note>
      <note default-x="103">
        <chord/>
        <pitch>
          <step>F</step>
          <octave>3</octave>
        </pitch>
        <duration>2</duration>
        <voice>1</voice>
        <type>quarter</type>
        <stem>up</stem>
      </note>
    </measure>
    <!--=======================================================-->
    <measure number="4" width="143">
      <note default-x="26">
        <pitch>
          <step>A</step>
          <octave>2</octave>
        </pitch>
        <duration>4</duration>
        <voice>1</voice>
        <type>half</type>
        <stem default-y="12">up</stem>
      </note>
      <note default-x="26">
        <chord/>
        <pitch>
          <step>E</step>
          <octave>3</octave>
        </pitch>
        <duration>4</duration>
        <voice>1</voice>
        <type>half</type>
        <stem>up</stem>
      </note>
      <note default-x="103">
        <pitch>
          <step>B</step>
          <alter>-1</alter>
          <octave>2</octave>
        </pitch>
        <duration>2</duration>
        <voice>1</voice>
        <type>quarter</type>
        <accidental>flat</accidental>
        <stem default-y="12">up</stem>
      </note>
      <note default-x="103">
        <chord/>
        <pitch>
          <step>E</step>
          <octave>3</octave>
        </pitch>
        <duration>2</duration>
        <voice>1</voice>
        <type>quarter</type>
        <stem>up</stem>
      </note>
    </measure>
    <!--=======================================================-->
    <measure number="5" width="148">
      <note default-x="29">
        <pitch>
          <step>A</step>
          <octave>2</octave>
        </pitch>
        <duration>2</duration>
        <voice>1</voice>
        <type>quarter</type>
        <stem default-y="17">up</stem>
        <notations>
          <slur default-y="9" number="1" placement="above" relative-x="15" type="start"/>
          <slur default-y="-42" number="2" placement="below" relative-x="8" type="start"/>
        </notations>
      </note>
      <note default-x="29">
        <chord/>
        <pitch>
          <step>F</step>
          <octave>3</octave>
        </pitch>
        <duration>2</duration>
        <voice>1</voice>
        <type>quarter</type>
        <stem>up</stem>
      </note>
      <note default-x="68">
        <pitch>
          <step>A</step>
          <octave>3</octave>
        </pitch>
        <duration>2</duration>
        <voice>1</voice>
        <type>quarter</type>
        <stem default-y="-32">down</stem>
        <notations>
          <slur default-y="20" number="1" type="stop"/>
          <slur default-y="-22" number="2" type="stop"/>
        </notations>
      </note>
      <note default-x="68">
        <chord/>
        <pitch>
          <step>C</step>
          <octave>4</octave>
        </pitch>
        <duration>2</duration>
        <voice>1</voice>
        <type>quarter</type>
        <stem>down</stem>
      </note>
      <note default-x="107">
        <pitch>
          <step>G</step>
          <octave>3</octave>
        </pitch>
        <duration>2</duration>
        <voice>1</voice>
        <type>quarter</type>
        <stem default-y="-37">down</stem>
      </note>
      <note default-x="107">
        <chord/>
        <pitch>
          <step>B</step>
          <octave>3</octave>
        </pitch>
        <duration>2</duration>
        <voice>1</voice>
        <type>quarter</type>
        <stem>down</stem>
      </note>
    </measure>
    <!--=======================================================-->
    <measure number="6" width="186">
      <print new-system="yes">
        <staff-layout number="1">
          <staff-distance>184</staff-distance>
        </staff-layout>
      </print>
      <note default-x="53">
        <pitch>
          <step>F</step>
          <octave>3</octave>
        </pitch>
        <duration>4</duration>
        <voice>1</voice>
        <type>half</type>
        <stem default-y="-41.5">down</stem>
      </note>
      <note default-x="53">
        <chord/>
        <pitch>
          <step>A</step>
          <octave>3</octave>
        </pitch>
        <duration>4</duration>
        <voice>1</voice>
        <type>half</type>
        <stem>down</stem>
      </note>
      <note default-x="128">
        <pitch>
          <step>G</step>
          <octave>3</octave>
        </pitch>
        <duration>1</duration>
        <voice>1</voice>
        <type>eighth</type>
        <stem default-y="-36">down</stem>
        <beam number="1">begin</beam>
      </note>
      <backup>
        <duration>1</duration>
      </backup>
      <note default-x="128">
        <pitch>
          <step>B</step>
          <octave>3</octave>
        </pitch>
        <duration>2</duration>
        <voice>2</voice>
        <type>quarter</type>
        <stem default-y="26">up</stem>
      </note>
      <backup>
        <duration>1</duration>
      </backup>
      <note default-x="154">
        <pitch>
          <step>F</step>
          <octave>3</octave>
        </pitch>
        <duration>1</duration>
        <voice>1</voice>
        <type>eighth</type>
        <stem default-y="-41">down</stem>
        <beam number="1">end</beam>
      </note>
    </measure>
    <!--=======================================================-->
    <measure number="7" width="172">
      <note default-x="22">
        <pitch>
          <step>E</step>
          <octave>3</octave>
        </pitch>
        <duration>4</duration>
        <voice>1</voice>
        <type>half</type>
        <stem default-y="-46.5">down</stem>
      </note>
      <note default-x="22">
        <chord/>
        <pitch>
          <step>C</step>
          <octave>4</octave>
        </pitch>
        <duration>4</duration>
        <voice>1</voice>
        <type>half</type>
        <stem>down</stem>
      </note>
      <note default-x="126">
        <pitch>
          <step>D</step>
          <octave>3</octave>
        </pitch>
        <duration>2</duration>
        <voice>1</voice>
        <type>quarter</type>
        <stem default-y="-51.5">down</stem>
      </note>
      <note default-x="126">
        <chord/>
        <pitch>
          <step>C</step>
          <octave>4</octave>
        </pitch>
        <duration>2</duration>
        <voice>1</voice>
        <type>quarter</type>
        <stem>down</stem>
      </note>
    </measure>
    <!--=======================================================-->
    <measure number="8" width="158">
      <note default-x="24">
        <pitch>
          <step>G</step>
          <octave>3</octave>
        </pitch>
        <duration>4</duration>
        <voice>1</voice>
        <type>half</type>
        <stem default-y="-36.5">down</stem>
      </note>
      <note default-x="24">
        <chord/>
        <pitch>
          <step>B</step>
          <octave>3</octave>
        </pitch>
        <duration>4</duration>
        <voice>1</voice>
        <type>half</type>
        <stem>down</stem>
      </note>
      <note default-x="94">
        <pitch>
          <step>G</step>
          <octave>3</octave>
        </pitch>
        <duration>1</duration>
        <voice>1</voice>
        <type>eighth</type>
        <stem default-y="-36">down</stem>
        <beam number="1">begin</beam>
      </note>
      <backup>
        <duration>1</duration>
      </backup>
      <note default-x="94">
        <pitch>
          <step>B</step>
          <octave>3</octave>
        </pitch>
        <duration>2</duration>
        <voice>2</voice>
        <type>quarter</type>
        <stem default-y="31">up</stem>
      </note>
      <backup>
        <duration>1</duration>
      </backup>
      <note default-x="129">
        <pitch>
          <step>F</step>
          <octave>3</octave>
        </pitch>
        <duration>1</duration>
        <voice>1</voice>
        <type>eighth</type>
        <stem default-y="-41">down</stem>
        <beam number="1">end</beam>
      </note>
    </measure>
    <!--=======================================================-->
    <measure number="9" width="178">
      <note default-x="27">
        <pitch>
          <step>E</step>
          <octave>3</octave>
        </pitch>
        <duration>4</duration>
        <voice>1</voice>
        <type>half</type>
        <stem default-y="-46.5">down</stem>
        <notations>
          <slur default-y="32" number="1" placement="above" relative-x="17" type="start"/>
        </notations>
      </note>
      <backup>
        <duration>4</duration>
      </backup>
      <note default-x="27">
        <pitch>
          <step>C</step>
          <octave>4</octave>
        </pitch>
        <duration>2</duration>
        <voice>2</voice>
        <type>quarter</type>
        <stem default-y="36">up</stem>
      </note>
      <note default-x="70">
        <pitch>
          <step>E</step>
          <octave>4</octave>
        </pitch>
        <duration>2</duration>
        <voice>2</voice>
        <type>quarter</type>
        <stem default-y="44">up</stem>
        <notations>
          <slur default-y="36" number="1" type="stop"/>
        </notations>
      </note>
      <note default-x="111">
        <pitch>
          <step>F</step>
          <octave>3</octave>
        </pitch>
        <duration>2</duration>
        <voice>1</voice>
        <type>quarter</type>
        <stem default-y="-41.5">down</stem>
      </note>
      <backup>
        <duration>2</duration>
      </backup>
      <note default-x="111">
        <pitch>
          <step>D</step>
          <octave>4</octave>
        </pitch>
        <duration>1</duration>
        <voice>2</voice>
        <type>eighth</type>
        <stem default-y="41">up</stem>
        <beam number="1">begin</beam>
      </note>
      <note default-x="144">
        <pitch>
          <step>C</step>
          <octave>4</octave>
        </pitch>
        <duration>1</duration>
        <voice>2</voice>
        <type>eighth</type>
        <stem default-y="36">up</stem>
        <beam number="1">end</beam>
      </note>
    </measure>
    <!--=======================================================-->
    <measure number="10" width="153">
      <note default-x="22">
        <pitch>
          <step>G</step>
          <octave>3</octave>
        </pitch>
        <duration>2</duration>
        <voice>1</voice>
        <type>quarter</type>
        <stem default-y="-36.5">down</stem>
        <notations>
          <slur default-y="-26" number="1" placement="below" relative-x="6" type="start"/>
        </notations>
      </note>
      <backup>
        <duration>2</duration>
      </backup>
      <note default-x="22">
        <pitch>
          <step>B</step>
          <octave>3</octave>
        </pitch>
        <duration>4</duration>
        <voice>2</voice>
        <type>half</type>
        <stem default-y="31">up</stem>
      </note>
      <backup>
        <duration>2</duration>
      </backup>
      <note default-x="57">
        <pitch>
          <step>F</step>
          <octave>3</octave>
        </pitch>
        <duration>2</duration>
        <voice>1</voice>
        <type>quarter</type>
        <stem default-y="-41.5">down</stem>
        <notations>
          <slur default-y="-27" number="1" type="stop"/>
        </notations>
      </note>
      <note default-x="97">
        <pitch>
          <step>E</step>
          <octave>3</octave>
        </pitch>
        <duration>2</duration>
        <voice>1</voice>
        <type>quarter</type>
        <stem default-y="-46.5">down</stem>
      </note>
      <note default-x="97">
        <chord/>
        <pitch>
          <step>C</step>
          <octave>4</octave>
        </pitch>
        <duration>2</duration>
        <voice>1</voice>
        <type>quarter</type>
        <stem>down</stem>
      </note>
    </measure>
    <!--=======================================================-->
    <measure number="11" width="185">
      <print new-system="yes">
        <staff-layout number="1">
          <staff-distance>176</staff-distance>
        </staff-layout>
      </print>
      <note default-x="58">
        <pitch>
          <step>D</step>
          <octave>3</octave>
        </pitch>
        <duration>4</duration>
        <voice>1</voice>
        <type>half</type>
        <stem default-y="-52">down</stem>
        <notations>
          <slur default-y="30" number="1" placement="above" relative-x="16" type="start"/>
        </notations>
      </note>
      <backup>
        <duration>4</duration>
      </backup>
      <note default-x="58">
        <pitch>
          <step>D</step>
          <octave>4</octave>
        </pitch>
        <duration>2</duration>
        <voice>2</voice>
        <type>quarter</type>
        <stem default-y="37">up</stem>
      </note>
      <note default-x="97">
        <pitch>
          <step>B</step>
          <alter>-1</alter>
          <octave>3</octave>
        </pitch>
        <duration>2</duration>
        <voice>2</voice>
        <type>quarter</type>
        <accidental>flat</accidental>
        <stem default-y="30.5">up</stem>
        <notations>
          <slur default-y="27" number="1" type="stop"/>
        </notations>
      </note>
      <note default-x="133">
        <pitch>
          <step>E</step>
          <octave>3</octave>
        </pitch>
        <duration>2</duration>
        <voice>1</voice>
        <type>quarter</type>
        <stem default-y="-47">down</stem>
      </note>
      <note default-x="133">
        <chord/>
        <pitch>
          <step>G</step>
          <octave>3</octave>
        </pitch>
        <duration>2</duration>
        <voice>1</voice>
        <type>quarter</type>
        <stem>down</stem>
      </note>
    </measure>
    <!--=======================================================-->
    <measure number="12" width="136">
      <note default-x="20">
        <pitch>
          <step>F</step>
          <octave>3</octave>
        </pitch>
        <duration>4</duration>
        <voice>1</voice>
        <type>half</type>
        <stem default-y="-42">down</stem>
      </note>
      <note default-x="20">
        <chord/>
        <pitch>
          <step>C</step>
          <octave>4</octave>
        </pitch>
        <duration>4</duration>
        <voice>1</voice>
        <type>half</type>
        <stem>down</stem>
      </note>
      <note default-x="88">
        <pitch>
          <step>G</step>
          <octave>3</octave>
        </pitch>
        <duration>2</duration>
        <voice>1</voice>
        <type>quarter</type>
        <stem default-y="-37">down</stem>
      </note>
      <note default-x="88">
        <chord/>
        <pitch>
          <step>B</step>
          <octave>3</octave>
        </pitch>
        <duration>2</duration>
        <voice>1</voice>
        <type>quarter</type>
        <stem>down</stem>
      </note>
    </measure>
    <!--=======================================================-->
    <measure number="13" width="133">
      <note default-x="28">
        <pitch>
          <step>C</step>
          <octave>3</octave>
        </pitch>
        <duration>4</duration>
        <voice>1</voice>
        <type>half</type>
        <stem default-y="-51">down</stem>
      </note>
      <note default-x="28">
        <chord/>
        <pitch>
          <step>C</step>
          <octave>4</octave>
        </pitch>
        <duration>4</duration>
        <voice>1</voice>
        <type>half</type>
        <stem>down</stem>
      </note>
      <note default-x="97">
        <pitch>
          <step>G</step>
          <octave>3</octave>
        </pitch>
        <duration>2</duration>
        <voice>1</voice>
        <type>quarter</type>
        <stem default-y="-37">down</stem>
      </note>
      <note default-x="97">
        <chord/>
        <pitch>
          <step>D</step>
          <octave>4</octave>
        </pitch>
        <duration>2</duration>
        <voice>1</voice>
        <type>quarter</type>
        <stem>down</stem>
      </note>
    </measure>
    <!--=======================================================-->
    <measure number="14" width="143">
      <note default-x="25">
        <pitch>
          <step>B</step>
          <octave>3</octave>
        </pitch>
        <duration>2</duration>
        <voice>1</voice>
        <type>quarter</type>
        <stem default-y="32">up</stem>
        <notations>
          <slur default-y="24" number="1" placement="above" relative-x="15" type="start"/>
        </notations>
      </note>
      <backup>
        <duration>2</duration>
      </backup>
      <note default-x="34">
        <pitch>
          <step>A</step>
          <octave>3</octave>
        </pitch>
        <duration>4</duration>
        <voice>2</voice>
        <type>half</type>
        <stem default-y="-32">down</stem>
      </note>
      <backup>
        <duration>2</duration>
      </backup>
      <note default-x="66">
        <pitch>
          <step>C</step>
          <octave>4</octave>
        </pitch>
        <duration>2</duration>
        <voice>1</voice>
        <type>quarter</type>
        <stem default-y="37">up</stem>
        <notations>
          <slur default-y="27" number="1" type="stop"/>
        </notations>
      </note>
      <note default-x="103">
        <pitch>
          <step>D</step>
          <octave>3</octave>
        </pitch>
        <duration>2</duration>
        <voice>1</voice>
        <type>quarter</type>
        <stem default-y="-52">down</stem>
      </note>
      <note default-x="103">
        <chord/>
        <pitch>
          <step>F</step>
          <octave>3</octave>
        </pitch>
        <duration>2</duration>
        <voice>1</voice>
        <type>quarter</type>
        <stem>down</stem>
      </note>
    </measure>
    <!--=======================================================-->
    <measure number="15" width="162">
      <note default-x="25">
        <pitch>
          <step>E</step>
          <octave>3</octave>
        </pitch>
        <duration>2</duration>
        <voice>1</voice>
        <type>quarter</type>
        <stem default-y="-47">down</stem>
        <notations>
          <slur default-y="5" number="1" placement="above" relative-x="8" type="start"/>
          <slur default-y="-32" number="2" placement="below" relative-x="5" type="start"/>
        </notations>
      </note>
      <note default-x="25">
        <chord/>
        <pitch>
          <step>G</step>
          <octave>3</octave>
        </pitch>
        <duration>2</duration>
        <voice>1</voice>
        <type>quarter</type>
        <stem>down</stem>
      </note>
      <note default-x="70">
        <pitch>
          <step>F</step>
          <octave>3</octave>
        </pitch>
        <duration>2</duration>
        <voice>1</voice>
        <type>quarter</type>
        <stem default-y="-42">down</stem>
        <notations>
          <slur default-y="10" number="1" type="stop"/>
          <slur default-y="-29" number="2" type="stop"/>
        </notations>
      </note>
      <note default-x="70">
        <chord/>
        <pitch>
          <step>A</step>
          <octave>3</octave>
        </pitch>
        <duration>2</duration>
        <voice>1</voice>
        <type>quarter</type>
        <stem>down</stem>
      </note>
      <note default-x="115">
        <pitch>
          <step>G</step>
          <octave>2</octave>
        </pitch>
        <duration>2</duration>
        <voice>1</voice>
        <type>quarter</type>
        <stem default-y="17">up</stem>
      </note>
      <note default-x="115">
        <chord/>
        <pitch>
          <step>F</step>
          <octave>3</octave>
        </pitch>
        <duration>2</duration>
        <voice>1</voice>
        <type>quarter</type>
        <stem>up</stem>
      </note>
    </measure>
    <!--=======================================================-->
    <measure number="16" width="88">
      <note default-x="26">
        <pitch>
          <step>C</step>
          <octave>3</octave>
        </pitch>
        <duration>4</duration>
        <voice>1</voice>
        <type>half</type>
        <stem default-y="-51">down</stem>
      </note>
      <note default-x="26">
        <chord/>
        <pitch>
          <step>E</step>
          <octave>3</octave>
        </pitch>
        <duration>4</duration>
        <voice>1</voice>
        <type>half</type>
        <stem>down</stem>
      </note>
      <barline location="right">
        <bar-style>light-heavy</bar-style>
      </barline>
    </measure>
  </part>
  <!--=========================================================-->
</score-partwise>
